<svg width="752" height="514" viewBox="0 0 752 514" fill="none" xmlns="http://www.w3.org/2000/svg">
<path d="M634.889 192.518C632.429 177.705 627.263 163.501 619.664 150.653C618.97 149.477 618.254 148.313 617.516 147.162C616.058 144.88 614.518 142.648 612.898 140.467C607.172 132.741 600.495 125.809 593.032 119.843L593.007 119.823C585.99 114.255 578.368 109.538 570.294 105.765C558.725 100.317 546.285 96.6567 533.475 94.5629C532.242 94.3586 531.007 94.1713 529.769 94.0011C528.576 93.8308 527.38 93.6765 526.181 93.5382C524.952 93.3948 523.721 93.2614 522.486 93.1461C505.702 91.553 488.552 92.4706 472.142 95.4179C468.725 96.0285 465.342 96.7281 461.995 97.5167C458.781 98.2696 455.582 99.095 452.384 99.9384C443.432 102.303 434.495 104.831 425.415 106.454C419.121 107.578 412.755 108.266 406.262 108.166C401.228 108.071 396.211 107.552 391.26 106.614C373.347 103.294 356.209 95.1872 339.043 87.7095C337.449 87.0165 335.854 86.329 334.258 85.6469C333.709 85.413 333.16 85.1802 332.611 84.9484C330.531 84.0698 328.449 83.2153 326.365 82.385C325.881 82.1939 325.396 82.0039 324.911 81.815C289.613 68.0457 250.045 62.2105 214.376 71.9501C211.752 72.6662 209.186 73.4444 206.678 74.2846C206.073 74.4867 205.471 74.6931 204.872 74.904C197.77 77.3982 191.165 80.3998 185.133 83.9122C184.525 84.2636 183.923 84.6217 183.329 84.9863C170.309 92.9401 160.088 103.359 153.482 116.243C152.591 117.978 151.766 119.758 151.009 121.581C150.745 122.217 150.49 122.858 150.243 123.505C147.083 131.762 145.276 140.907 144.993 150.933C144.869 155.307 145.61 161.806 146.76 169.432C149.725 189.075 155.402 216.193 156.032 233.728C156.096 235.555 156.107 237.277 156.054 238.875C155.966 241.564 155.698 243.905 155.208 245.804C155.153 246.018 155.092 246.237 155.028 246.463C150.85 260.687 127.666 286.39 118.748 316.115C115.999 325.275 114.604 334.818 115.535 344.523C115.669 345.907 115.829 347.301 116.017 348.705C116.096 349.28 116.178 349.858 116.264 350.429C116.284 350.548 116.3 350.67 116.319 350.792C116.318 350.794 116.318 350.796 116.318 350.798C116.318 350.8 116.318 350.802 116.319 350.803C116.814 354.039 117.433 357.219 118.176 360.342C118.422 361.396 118.687 362.443 118.962 363.482C119.079 363.93 119.203 364.377 119.325 364.823C119.47 365.341 119.617 365.858 119.766 366.372C123.76 380.083 130.21 392.911 138.786 404.2L139.004 404.487C140.065 405.871 141.154 407.226 142.271 408.553C145.552 412.454 149.09 416.121 152.86 419.526C153.164 419.803 153.472 420.076 153.779 420.35C153.985 420.536 154.195 420.717 154.406 420.902L155.094 421.492L155.576 421.898C155.874 422.151 156.169 422.393 156.471 422.646C157.067 423.141 157.673 423.635 158.278 424.113C158.582 424.353 158.887 424.59 159.193 424.829C159.808 425.304 160.422 425.773 161.047 426.235C161.672 426.696 162.292 427.152 162.924 427.597C163.245 427.823 163.555 428.043 163.873 428.264C164.158 428.462 164.444 428.661 164.733 428.854C164.772 428.882 164.812 428.908 164.85 428.933C165.083 429.098 165.318 429.249 165.552 429.403C165.644 429.467 165.74 429.531 165.834 429.594L166.541 430.057C166.634 430.116 166.725 430.177 166.819 430.235C167.02 430.366 167.222 430.493 167.423 430.623C167.566 430.716 167.709 430.806 167.853 430.893C167.998 430.981 168.141 431.078 168.286 431.167C168.491 431.295 168.699 431.426 168.908 431.549C169.036 431.632 169.163 431.714 169.288 431.783C169.478 431.902 169.666 432.015 169.854 432.126C170.068 432.254 170.285 432.383 170.497 432.51L170.789 432.674C171.041 432.823 171.293 432.969 171.546 433.113C171.626 433.162 171.707 433.205 171.782 433.249C172.022 433.388 172.264 433.523 172.502 433.656C172.643 433.737 172.785 433.821 172.925 433.892C173.071 433.974 173.219 434.057 173.368 434.137C173.569 434.249 173.773 434.36 173.975 434.467L174.458 434.732L174.972 435.004C175.153 435.099 175.335 435.195 175.516 435.287C175.698 435.379 175.888 435.482 176.076 435.574C176.222 435.653 176.371 435.727 176.519 435.801L177.064 436.076L177.599 436.342C177.776 436.427 177.952 436.516 178.131 436.599L178.801 436.928L178.989 437.015L179.734 437.368L180.462 437.697L180.715 437.811C180.988 437.936 181.261 438.057 181.534 438.177L181.632 438.221L181.793 438.292C182.055 438.407 182.32 438.521 182.583 438.635C182.847 438.748 183.152 438.877 183.435 438.994C183.653 439.088 183.87 439.175 184.091 439.267C184.098 439.269 184.106 439.269 184.113 439.267C184.46 439.412 184.812 439.554 185.162 439.692C185.513 439.831 185.879 439.974 186.236 440.111C186.592 440.248 186.954 440.386 187.314 440.518C188.485 440.957 189.663 441.371 190.849 441.758C192.884 442.43 194.942 443.039 197.021 443.584C203.161 445.189 209.433 446.211 215.756 446.635C218.066 446.79 220.39 446.864 222.727 446.859C223.93 446.859 225.137 446.829 226.347 446.783C230.668 446.613 234.975 446.167 239.242 445.447L241.569 445.053L261.305 441.725L262.872 441.46L277.141 439.053L284.179 437.867L299.699 435.249C303.205 434.657 306.715 434.102 310.229 433.584C316.335 432.686 322.446 431.897 328.563 431.216L329.392 431.127H329.423H329.44C329.967 431.07 330.493 431.012 331.017 430.963H331.033C332.854 430.769 334.675 430.586 336.496 430.412L336.825 430.383C356.343 428.548 376.001 429.025 395.412 431.806C399.269 432.355 403.215 432.919 407.253 433.498C423.718 435.839 441.543 438.286 459.636 439.964C491.588 442.93 524.391 443.516 552.079 436.971C552.593 436.849 553.102 436.725 553.612 436.599C567.072 433.266 579.278 428.197 589.534 420.849C596.376 415.941 601.878 410.752 606.269 405.432C618.099 391.1 621.877 375.833 622.122 362.611C622.502 342.441 614.665 327.042 614.665 327.042C614.064 323.395 613.182 320.321 612.133 317.995C610.95 315.402 610.16 312.638 609.792 309.8C609.764 309.588 609.74 309.377 609.719 309.166C609.547 307.539 609.512 305.899 609.615 304.265C609.641 303.822 609.679 303.377 609.724 302.934C609.789 302.285 609.874 301.637 609.978 300.99C610.279 299.157 610.702 297.347 611.246 295.573C611.465 294.842 611.704 294.11 611.962 293.377C612.171 292.774 612.394 292.17 612.631 291.565C617.09 280.051 625.314 268.674 629.843 256.903C630.165 256.079 630.463 255.255 630.738 254.432C631.211 253.034 631.653 251.618 632.064 250.185C634.894 240.358 636.377 229.786 636.656 219.196C636.909 210.266 636.317 201.331 634.889 192.518Z" fill="#24282D"/>
<g opacity="0.5">
<path d="M609.348 254.221L613.172 247.236L620.916 247.272L624.679 254.282C627.629 253.684 630.502 252.737 633.239 251.458L632.332 243.513L638.609 238.87L645.679 242.266C647.724 240.001 649.508 237.503 650.996 234.821L645.693 228.943L648.103 221.402L655.781 219.883C656.133 216.819 656.138 213.723 655.797 210.658L648.131 209.099L645.759 201.552L651.084 195.696C649.608 193.001 647.834 190.49 645.798 188.211L638.708 191.574L632.451 186.913L633.398 178.969C632.093 178.358 630.759 177.815 629.4 177.345C627.911 176.844 626.394 176.435 624.857 176.119L621.043 183.103H613.311L609.518 176.118C606.571 176.721 603.703 177.675 600.972 178.961L601.897 186.905L595.64 191.576L588.557 188.202C586.518 190.47 584.744 192.975 583.271 195.664L588.594 201.533L586.219 209.083L578.551 210.627C578.215 213.598 578.209 216.599 578.532 219.572L586.189 221.162L588.538 228.717L583.195 234.552C584.658 237.245 586.421 239.754 588.45 242.028L595.542 238.704L601.78 243.391L600.816 251.326C602.155 251.972 603.531 252.534 604.936 253.01C606.383 253.5 607.856 253.904 609.348 254.221ZM602.403 224.674C601.185 222.69 600.36 220.478 599.976 218.167C599.593 215.855 599.658 213.488 600.168 211.202C600.679 208.917 601.624 206.756 602.95 204.846C604.276 202.935 605.956 201.312 607.896 200.068C616.028 194.796 626.768 197.315 631.913 205.655C633.131 207.641 633.956 209.854 634.339 212.168C634.723 214.481 634.659 216.849 634.15 219.137C633.641 221.425 632.698 223.587 631.374 225.501C630.05 227.415 628.371 229.043 626.434 230.292C624.496 231.541 622.337 232.386 620.081 232.78C617.825 233.173 615.515 233.107 613.284 232.586C611.052 232.064 608.943 231.097 607.076 229.739C605.209 228.382 603.621 226.661 602.403 224.674Z" fill="#5681BF"/>
</g>
<path d="M630.743 237.306C636.38 233.572 640.355 227.711 641.806 220.993C643.258 214.275 642.068 207.241 638.496 201.416C634.923 195.591 629.256 191.444 622.722 189.873C616.187 188.303 609.313 189.436 603.588 193.027C591.671 200.717 588.091 216.882 595.59 229.106C599.192 234.972 604.918 239.132 611.51 240.67C618.103 242.207 625.021 240.998 630.743 237.306ZM597.7 227.733C595.279 223.786 594.053 219.191 594.178 214.53C594.304 209.868 595.775 205.35 598.405 201.545C601.035 197.741 604.706 194.821 608.955 193.156C613.203 191.491 617.838 191.155 622.273 192.19C626.707 193.225 630.743 195.586 633.869 198.973C636.996 202.36 639.073 206.621 639.837 211.218C640.601 215.815 640.019 220.541 638.163 224.798C636.308 229.056 633.263 232.654 629.413 235.137C624.248 238.459 618.009 239.546 612.063 238.158C606.118 236.77 600.953 233.021 597.7 227.733Z" fill="#969696"/>
<path d="M630.743 237.306C626.809 239.854 622.267 241.243 617.614 241.32C619.255 240.307 620.833 239.251 622.348 238.152C626.294 237.216 629.928 235.228 632.884 232.388C635.839 229.549 638.01 225.959 639.176 221.982C640.374 220.481 641.502 218.975 642.56 217.466C642.22 221.485 640.976 225.368 638.925 228.81C636.875 232.252 634.074 235.161 630.743 237.306Z" fill="#969696"/>
<path d="M611.752 252.127L615.579 245.138L623.324 245.174L627.088 252.184C630.038 251.587 632.91 250.639 635.646 249.361L634.741 241.417L641.017 236.774L648.087 240.168C650.133 237.904 651.916 235.406 653.403 232.723L648.1 226.845L650.511 219.305L658.188 217.786C658.54 214.722 658.545 211.626 658.204 208.56L650.538 207.002L648.166 199.453L653.491 193.598C652.015 190.904 650.241 188.392 648.205 186.114L641.115 189.476L634.863 184.811L635.81 176.865C634.504 176.255 633.169 175.713 631.81 175.241C630.322 174.74 628.805 174.331 627.269 174.015L623.453 181.008H615.722L611.93 174.025C608.983 174.628 606.115 175.582 603.384 176.867L604.309 184.811L598.052 189.481L590.969 186.107C588.93 188.376 587.156 190.881 585.683 193.57L591.006 199.438L588.631 206.989L580.963 208.532C580.625 211.504 580.619 214.505 580.944 217.478L588.599 219.068L590.95 226.623L585.599 232.453C587.062 235.146 588.825 237.655 590.853 239.931L597.946 236.605L604.184 241.291L603.22 249.227C604.559 249.872 605.935 250.435 607.34 250.911C608.786 251.403 610.26 251.809 611.752 252.127ZM604.814 222.58C603.595 220.596 602.77 218.384 602.387 216.073C602.003 213.761 602.069 211.394 602.579 209.109C603.089 206.823 604.034 204.663 605.359 202.752C606.685 200.841 608.365 199.218 610.304 197.974C618.438 192.702 629.177 195.221 634.323 203.56C635.541 205.547 636.366 207.76 636.75 210.073C637.134 212.386 637.069 214.755 636.56 217.042C636.052 219.33 635.108 221.493 633.784 223.407C632.46 225.321 630.782 226.949 628.844 228.198C626.906 229.447 624.748 230.292 622.491 230.685C620.235 231.079 617.925 231.013 615.694 230.491C613.463 229.97 611.353 229.003 609.486 227.645C607.62 226.288 606.032 224.566 604.814 222.58Z" fill="#B5CAE8"/>
<g opacity="0.44">
<path d="M633.147 235.213C638.784 231.479 642.759 225.617 644.21 218.899C645.661 212.181 644.472 205.147 640.899 199.322C637.327 193.497 631.66 189.35 625.125 187.78C618.591 186.209 611.717 187.342 605.991 190.933C594.075 198.625 590.495 214.788 597.993 227.012C605.49 239.236 621.231 242.905 633.147 235.213ZM600.102 225.639C597.68 221.692 596.454 217.097 596.579 212.435C596.704 207.773 598.174 203.254 600.804 199.449C603.435 195.644 607.106 192.725 611.355 191.059C615.604 189.394 620.239 189.058 624.674 190.094C629.109 191.129 633.145 193.49 636.271 196.877C639.398 200.265 641.474 204.527 642.238 209.124C643.001 213.722 642.418 218.448 640.562 222.706C638.705 226.963 635.659 230.561 631.809 233.043C626.644 236.363 620.406 237.448 614.463 236.06C608.519 234.673 603.355 230.925 600.102 225.639Z" fill="#5681BF"/>
</g>
<g opacity="0.51">
<path d="M576.562 165.732L576.157 168.557C576.996 169.012 577.861 169.431 578.749 169.806C579.638 170.182 580.538 170.511 581.446 170.795L583.102 168.498C583.53 167.904 584.105 167.439 584.768 167.149C585.43 166.86 586.156 166.758 586.871 166.854C587.585 166.949 588.261 167.239 588.829 167.692C589.397 168.146 589.836 168.747 590.102 169.434L591.133 172.101C593.042 172.03 594.94 171.768 596.8 171.32L597.114 168.478C597.196 167.745 597.467 167.047 597.9 166.457C598.333 165.867 598.912 165.407 599.577 165.124C600.242 164.84 600.969 164.744 601.682 164.846C602.396 164.947 603.07 165.243 603.634 165.701L605.82 167.475C607.442 166.44 608.961 165.245 610.357 163.908L609.241 161.272C608.953 160.595 608.848 159.852 608.935 159.119C609.022 158.386 609.299 157.691 609.736 157.104C610.174 156.518 610.757 156.063 611.424 155.785C612.091 155.507 612.818 155.417 613.531 155.525L616.287 155.94C616.73 155.08 617.136 154.194 617.505 153.282C617.873 152.371 618.194 151.449 618.469 150.518L616.229 148.819C615.65 148.381 615.195 147.791 614.913 147.112C614.631 146.432 614.532 145.688 614.625 144.956C614.718 144.224 615 143.531 615.443 142.948C615.885 142.366 616.472 141.915 617.141 141.643L619.743 140.586C619.673 138.628 619.418 136.682 618.98 134.775L616.209 134.454C615.494 134.371 614.813 134.093 614.237 133.648C613.661 133.204 613.212 132.611 612.936 131.929C612.659 131.247 612.566 130.501 612.665 129.77C612.765 129.038 613.053 128.347 613.5 127.769L615.231 125.528C614.221 123.865 613.056 122.307 611.752 120.876L609.181 122.029C608.521 122.323 607.796 122.432 607.081 122.342C606.366 122.253 605.688 121.969 605.116 121.521C604.544 121.072 604.1 120.475 603.829 119.791C603.558 119.107 603.47 118.361 603.575 117.63L603.981 114.805C603.143 114.35 602.279 113.934 601.39 113.556C600.5 113.178 599.602 112.849 598.693 112.568L597.037 114.864C596.609 115.458 596.033 115.924 595.371 116.213C594.708 116.502 593.982 116.604 593.268 116.508C592.553 116.413 591.877 116.123 591.309 115.67C590.741 115.216 590.301 114.615 590.036 113.928L589.006 111.261C587.096 111.332 585.198 111.595 583.338 112.044L583.017 114.884C582.936 115.618 582.665 116.316 582.232 116.906C581.799 117.496 581.22 117.957 580.555 118.241C579.89 118.524 579.163 118.62 578.45 118.518C577.736 118.416 577.062 118.12 576.498 117.662L574.313 115.887C572.694 116.922 571.178 118.116 569.785 119.452L570.901 122.088C571.189 122.765 571.294 123.509 571.207 124.241C571.12 124.974 570.843 125.67 570.406 126.256C569.968 126.842 569.385 127.298 568.718 127.576C568.051 127.854 567.324 127.944 566.611 127.836L563.855 127.419C563.412 128.279 563.004 129.166 562.637 130.077C562.271 130.988 561.95 131.91 561.673 132.841L563.913 134.539C564.492 134.978 564.947 135.568 565.229 136.248C565.511 136.927 565.61 137.672 565.517 138.404C565.424 139.136 565.141 139.829 564.699 140.412C564.257 140.995 563.67 141.445 563.001 141.717L560.399 142.773C560.469 144.731 560.724 146.677 561.161 148.584L563.933 148.913C564.648 148.997 565.329 149.275 565.904 149.719C566.479 150.163 566.929 150.756 567.205 151.438C567.481 152.12 567.575 152.865 567.476 153.596C567.377 154.327 567.089 155.018 566.642 155.597L564.913 157.824C565.922 159.487 567.087 161.045 568.392 162.477L570.963 161.324C571.623 161.03 572.349 160.923 573.063 161.013C573.778 161.104 574.456 161.389 575.028 161.838C575.599 162.288 576.042 162.886 576.312 163.571C576.582 164.256 576.668 165.002 576.562 165.732ZM586.174 141.834C586.174 141.96 586.189 142.083 586.205 142.208C586.229 142.384 586.264 142.558 586.308 142.729L578.102 151.574C576.769 149.877 575.794 147.916 575.237 145.813C574.68 143.711 574.553 141.513 574.864 139.358C574.902 139.1 574.997 138.854 575.142 138.638C575.287 138.423 575.477 138.244 575.699 138.116C575.921 137.987 576.169 137.912 576.423 137.896C576.678 137.88 576.932 137.924 577.168 138.024L586.174 141.834ZM588.561 128.067L588.34 138.096C588.003 138.268 587.691 138.49 587.417 138.755L578.409 134.943C578.173 134.843 577.962 134.69 577.793 134.494C577.624 134.298 577.5 134.066 577.431 133.814C577.363 133.562 577.351 133.297 577.397 133.04C577.443 132.782 577.545 132.539 577.697 132.329C579.852 129.338 582.968 127.223 586.496 126.358C586.745 126.298 587.004 126.297 587.253 126.356C587.503 126.414 587.736 126.53 587.935 126.695C588.134 126.86 588.293 127.069 588.401 127.307C588.509 127.545 588.562 127.805 588.557 128.067H588.561ZM592.642 138.665C592.33 138.387 591.978 138.161 591.598 137.996L591.816 128.044C591.821 127.785 591.882 127.532 591.996 127.301C592.11 127.071 592.273 126.87 592.473 126.713C592.672 126.556 592.904 126.447 593.151 126.394C593.398 126.342 593.653 126.347 593.897 126.409C594.594 126.594 595.277 126.828 595.942 127.11C598.918 128.362 601.432 130.545 603.128 133.347C603.267 133.574 603.353 133.831 603.379 134.098C603.404 134.364 603.369 134.634 603.275 134.884C603.182 135.134 603.033 135.359 602.84 135.54C602.647 135.721 602.416 135.853 602.164 135.927L592.642 138.665ZM597.676 153.029L593.024 144.297C593.627 143.587 593.965 142.682 593.979 141.74L603.289 139.062C603.529 138.993 603.782 138.979 604.028 139.023C604.274 139.066 604.507 139.165 604.711 139.313C604.915 139.46 605.085 139.652 605.207 139.875C605.33 140.098 605.402 140.347 605.42 140.602C605.578 143.012 605.195 145.427 604.3 147.662C603.405 149.896 602.023 151.891 600.258 153.492C600.07 153.663 599.846 153.788 599.603 153.859C599.36 153.929 599.105 153.942 598.857 153.898C598.609 153.854 598.373 153.752 598.168 153.602C597.963 153.451 597.794 153.255 597.673 153.029H597.676ZM581.741 152.492L588.41 145.304C588.922 145.553 589.483 145.683 590.05 145.686L594.753 154.51C594.877 154.74 594.948 154.996 594.96 155.259C594.971 155.522 594.924 155.783 594.822 156.024C594.719 156.265 594.564 156.479 594.369 156.649C594.173 156.819 593.942 156.94 593.693 157.004C590.535 157.794 587.214 157.531 584.212 156.254C583.476 155.943 582.764 155.574 582.083 155.151C581.869 155.017 581.686 154.836 581.549 154.621C581.411 154.405 581.323 154.161 581.29 153.906C581.257 153.651 581.28 153.391 581.357 153.147C581.435 152.902 581.565 152.678 581.738 152.492H581.741Z" fill="#3D5891"/>
</g>
<g opacity="0.16">
<path d="M577.634 157.257C574.631 154.735 572.424 151.356 571.293 147.547C570.163 143.739 570.159 139.672 571.282 135.862C572.406 132.051 574.606 128.667 577.605 126.139C580.603 123.61 584.266 122.05 588.13 121.655C591.993 121.26 595.884 122.049 599.311 123.921C602.737 125.793 605.545 128.665 607.38 132.174C609.215 135.682 609.994 139.669 609.619 143.632C609.243 147.594 607.731 151.353 605.272 154.434C601.969 158.562 597.204 161.178 592.023 161.707C586.841 162.236 581.666 160.636 577.634 157.257ZM580.089 154.183C582.501 156.208 585.444 157.454 588.547 157.764C591.649 158.074 594.772 157.434 597.519 155.924C600.267 154.414 602.516 152.103 603.982 149.282C605.448 146.462 606.066 143.259 605.757 140.079C605.447 136.899 604.225 133.884 602.245 131.416C600.264 128.948 597.614 127.138 594.63 126.214C591.646 125.29 588.461 125.294 585.48 126.226C582.498 127.158 579.853 128.975 577.878 131.449C575.236 134.766 573.984 139.023 574.399 143.285C574.813 147.547 576.86 151.466 580.089 154.183Z" fill="#2D2D2D"/>
</g>
<path d="M577.866 163.083L577.459 165.908C578.299 166.363 579.163 166.779 580.052 167.157C580.942 167.535 581.84 167.864 582.749 168.145L584.404 165.851C584.832 165.257 585.407 164.791 586.07 164.502C586.733 164.213 587.459 164.111 588.173 164.206C588.887 164.302 589.563 164.591 590.132 165.045C590.7 165.499 591.139 166.1 591.405 166.786L592.436 169.452C594.345 169.382 596.243 169.12 598.102 168.671L598.423 165.831C598.505 165.097 598.776 164.399 599.209 163.809C599.641 163.219 600.22 162.758 600.885 162.475C601.55 162.191 602.277 162.095 602.99 162.197C603.704 162.298 604.378 162.593 604.942 163.052L607.129 164.828C608.75 163.792 610.27 162.597 611.665 161.261L610.549 158.625C610.263 157.949 610.158 157.206 610.246 156.475C610.333 155.743 610.61 155.049 611.047 154.463C611.484 153.878 612.065 153.423 612.731 153.145C613.396 152.867 614.123 152.776 614.834 152.882L617.59 153.299C618.033 152.437 618.439 151.551 618.806 150.641C619.174 149.732 619.495 148.811 619.77 147.877L617.53 146.179C616.952 145.739 616.498 145.149 616.216 144.47C615.935 143.791 615.835 143.046 615.928 142.314C616.021 141.582 616.304 140.889 616.746 140.307C617.188 139.724 617.774 139.273 618.443 139.001L621.044 137.945C620.975 135.987 620.72 134.041 620.283 132.134L617.511 131.805C616.796 131.721 616.115 131.443 615.54 130.999C614.964 130.555 614.515 129.962 614.239 129.28C613.962 128.598 613.869 127.853 613.968 127.122C614.067 126.391 614.355 125.7 614.802 125.121L616.532 122.881C615.523 121.218 614.358 119.66 613.054 118.228L610.483 119.373C609.822 119.668 609.097 119.776 608.383 119.687C607.668 119.597 606.989 119.313 606.417 118.865C605.846 118.416 605.401 117.819 605.13 117.135C604.859 116.451 604.772 115.705 604.876 114.974L605.281 112.149C604.443 111.694 603.578 111.276 602.69 110.9C601.801 110.525 600.901 110.195 599.993 109.912L598.338 112.208C597.91 112.802 597.335 113.268 596.672 113.557C596.009 113.846 595.283 113.948 594.569 113.853C593.855 113.757 593.179 113.468 592.61 113.014C592.042 112.56 591.603 111.959 591.337 111.273L590.306 108.605C588.399 108.678 586.505 108.941 584.648 109.39L584.327 112.231C584.244 112.963 583.973 113.659 583.541 114.247C583.109 114.836 582.531 115.295 581.868 115.578C581.205 115.862 580.48 115.958 579.768 115.858C579.056 115.759 578.384 115.466 577.819 115.011L575.632 113.236C574.009 114.271 572.488 115.466 571.091 116.803L572.206 119.439C572.494 120.116 572.6 120.86 572.513 121.593C572.426 122.326 572.15 123.022 571.712 123.608C571.274 124.195 570.691 124.65 570.024 124.928C569.356 125.205 568.629 125.295 567.916 125.187L565.16 124.772C564.717 125.632 564.311 126.517 563.944 127.429C563.576 128.341 563.255 129.262 562.98 130.193L565.218 131.892C565.797 132.331 566.251 132.92 566.534 133.6C566.816 134.279 566.915 135.023 566.822 135.756C566.729 136.488 566.446 137.181 566.004 137.763C565.561 138.346 564.975 138.796 564.305 139.068L561.706 140.126C561.775 142.083 562.03 144.028 562.467 145.935L565.237 146.264C565.953 146.347 566.634 146.625 567.209 147.069C567.785 147.513 568.234 148.106 568.511 148.788C568.787 149.47 568.881 150.215 568.782 150.947C568.683 151.678 568.395 152.369 567.948 152.948L566.216 155.19C567.226 156.853 568.392 158.411 569.696 159.842L572.267 158.697C572.926 158.406 573.649 158.299 574.361 158.389C575.073 158.479 575.749 158.762 576.32 159.209C576.89 159.655 577.334 160.25 577.605 160.931C577.877 161.612 577.967 162.354 577.866 163.083ZM587.474 139.185C587.474 139.309 587.489 139.434 587.505 139.559C587.528 139.735 587.562 139.909 587.608 140.08L579.4 148.928C578.068 147.231 577.093 145.269 576.537 143.167C575.98 141.065 575.853 138.867 576.164 136.712C576.202 136.454 576.297 136.208 576.441 135.992C576.586 135.777 576.776 135.598 576.998 135.47C577.22 135.341 577.467 135.266 577.722 135.25C577.976 135.233 578.231 135.277 578.466 135.376L587.474 139.185ZM589.859 125.416L589.639 135.445C589.302 135.618 588.991 135.84 588.717 136.104L579.709 132.289C579.473 132.189 579.262 132.036 579.093 131.84C578.924 131.644 578.8 131.412 578.731 131.16C578.663 130.908 578.651 130.643 578.697 130.386C578.743 130.128 578.845 129.885 578.997 129.675C581.151 126.681 584.268 124.565 587.797 123.699C588.047 123.639 588.307 123.638 588.557 123.697C588.807 123.756 589.04 123.873 589.24 124.038C589.439 124.204 589.598 124.415 589.705 124.653C589.813 124.892 589.865 125.153 589.859 125.416ZM589.559 137.506C589.853 137.138 590.247 136.867 590.691 136.729C591.135 136.59 591.609 136.589 592.054 136.727C592.498 136.865 592.893 137.134 593.188 137.502C593.483 137.87 593.665 138.319 593.711 138.792C593.757 139.266 593.665 139.743 593.447 140.163C593.228 140.583 592.893 140.928 592.484 141.152C592.075 141.377 591.61 141.473 591.148 141.427C590.686 141.381 590.247 141.195 589.888 140.894C589.649 140.693 589.452 140.447 589.306 140.168C589.16 139.89 589.07 139.584 589.039 139.27C589.008 138.955 589.039 138.638 589.128 138.335C589.217 138.033 589.363 137.751 589.559 137.506ZM593.94 136.024C593.629 135.745 593.276 135.519 592.896 135.353L593.114 125.401C593.119 125.142 593.181 124.888 593.295 124.657C593.409 124.426 593.573 124.224 593.774 124.067C593.975 123.91 594.208 123.802 594.455 123.75C594.703 123.698 594.959 123.705 595.203 123.768C599.034 124.782 602.338 127.266 604.433 130.706C604.572 130.933 604.658 131.19 604.684 131.457C604.709 131.723 604.674 131.993 604.58 132.243C604.487 132.493 604.337 132.718 604.145 132.899C603.952 133.08 603.72 133.212 603.469 133.286L593.94 136.024ZM598.976 150.386L594.316 141.655C594.919 140.944 595.257 140.039 595.271 139.098L604.579 136.419C604.819 136.35 605.072 136.337 605.318 136.38C605.564 136.423 605.797 136.522 606.001 136.669C606.205 136.817 606.375 137.009 606.497 137.232C606.62 137.455 606.692 137.703 606.71 137.958C606.869 140.368 606.487 142.784 605.592 145.019C604.698 147.253 603.315 149.248 601.55 150.849C601.361 151.018 601.137 151.141 600.896 151.21C600.654 151.279 600.4 151.291 600.153 151.246C599.906 151.201 599.672 151.099 599.468 150.949C599.265 150.799 599.097 150.604 598.976 150.378V150.386ZM583.04 149.851L589.71 142.653C590.223 142.901 590.783 143.031 591.35 143.034L596.053 151.857C596.177 152.088 596.248 152.344 596.26 152.607C596.271 152.869 596.224 153.132 596.122 153.373C596.019 153.614 595.864 153.828 595.669 153.998C595.473 154.168 595.242 154.289 594.993 154.353C591.835 155.141 588.515 154.879 585.512 153.604C584.777 153.292 584.066 152.923 583.385 152.5C583.171 152.366 582.988 152.185 582.851 151.97C582.714 151.755 582.625 151.511 582.592 151.256C582.559 151.001 582.582 150.742 582.66 150.497C582.737 150.253 582.867 150.029 583.04 149.842V149.851Z" fill="#5681BF"/>
<g opacity="0.5">
<path d="M578.944 154.609C575.94 152.086 573.733 148.707 572.603 144.899C571.472 141.09 571.468 137.024 572.591 133.213C573.714 129.403 575.914 126.019 578.913 123.49C581.911 120.961 585.574 119.401 589.437 119.006C593.301 118.611 597.192 119.399 600.619 121.271C604.045 123.143 606.854 126.015 608.688 129.523C610.523 133.031 611.303 137.019 610.928 140.981C610.552 144.943 609.04 148.702 606.581 151.783C603.279 155.912 598.514 158.528 593.333 159.057C588.151 159.587 582.976 157.987 578.944 154.609ZM581.399 151.535C583.811 153.559 586.754 154.805 589.857 155.115C592.959 155.424 596.082 154.784 598.829 153.274C601.576 151.764 603.825 149.452 605.291 146.632C606.757 143.811 607.375 140.609 607.065 137.428C606.756 134.248 605.533 131.234 603.552 128.766C601.572 126.298 598.922 124.488 595.938 123.564C592.953 122.64 589.769 122.645 586.787 123.577C583.806 124.509 581.16 126.327 579.186 128.8C576.543 132.117 575.291 136.373 575.705 140.635C576.118 144.897 578.164 148.817 581.392 151.535H581.399Z" fill="#5681BF"/>
</g>
<path d="M133.207 408.475C123.277 393.694 111.31 380.454 101.176 365.816C96.2077 358.64 91.5849 349.148 95.806 341.484C98.1568 337.217 102.895 334.711 107.653 334.235C112.411 333.759 117.185 335.097 121.573 337.036C134.778 342.882 145.13 354.169 152.54 366.813C159.951 379.457 164.723 393.501 169.439 407.429C165.313 386.539 163.259 365.147 164.161 343.838C164.699 331.133 164.765 296.013 186.159 305.673C199.537 311.715 200.475 336.952 199.923 349.582C199.063 369.258 191.406 388.501 193.277 408.101C199.359 385.188 207.108 361.314 224.533 345.663C227.213 343.258 230.17 341.041 233.584 339.998C236.999 338.955 240.963 339.253 243.765 341.51C247.013 344.125 248.054 348.691 248.264 352.92C249.122 369.811 240.351 385.498 231.369 399.684C223.805 411.628 215.67 423.902 212.332 437.524L149.241 441.808C146.008 429.926 140.071 418.702 133.207 408.475Z" fill="#6FC183"/>
<path d="M163.452 441.029C163.411 441.029 163.371 441.015 163.34 440.989C163.308 440.962 163.286 440.925 163.279 440.884C155.49 399.752 130.591 359.647 99.8441 338.71C99.8098 338.682 99.787 338.642 99.7802 338.597C99.7734 338.553 99.783 338.507 99.8072 338.47C99.8315 338.433 99.8685 338.406 99.911 338.395C99.9535 338.384 99.9984 338.39 100.037 338.411C115.623 349.026 129.869 364.51 141.231 383.192C152.135 401.119 159.871 421.045 163.621 440.816C163.625 440.839 163.625 440.863 163.621 440.886C163.616 440.909 163.607 440.931 163.594 440.95C163.582 440.97 163.565 440.986 163.546 440.999C163.527 441.012 163.505 441.021 163.483 441.025L163.452 441.029Z" fill="#40947E"/>
<path d="M186.244 439.483C186.208 439.483 186.174 439.471 186.145 439.45C186.116 439.429 186.095 439.399 186.083 439.365C178.385 417.566 177.311 393.236 176.892 372.164C176.444 349.746 178.409 327.054 180.308 305.113C180.314 305.067 180.337 305.025 180.372 304.996C180.407 304.967 180.452 304.953 180.497 304.957C180.542 304.961 180.584 304.983 180.614 305.018C180.644 305.053 180.659 305.098 180.657 305.145C178.758 327.08 176.8 349.761 177.241 372.159C177.66 393.246 178.751 417.553 186.411 439.246C186.426 439.291 186.424 439.34 186.405 439.383C186.385 439.425 186.35 439.459 186.306 439.475C186.286 439.482 186.265 439.485 186.244 439.483Z" fill="#40947E"/>
<path d="M201.218 439.042C201.195 439.041 201.172 439.036 201.151 439.027C201.13 439.017 201.111 439.004 201.095 438.987C201.079 438.97 201.066 438.95 201.058 438.928C201.05 438.906 201.046 438.882 201.046 438.859C201.354 419.973 207.595 402.902 213.913 387.623C220.32 372.138 228.664 354.487 241.982 341.016C241.998 340.998 242.017 340.984 242.039 340.974C242.06 340.964 242.084 340.959 242.107 340.959C242.131 340.958 242.155 340.963 242.176 340.972C242.198 340.981 242.218 340.995 242.235 341.012C242.251 341.029 242.264 341.05 242.273 341.072C242.282 341.095 242.286 341.119 242.285 341.143C242.284 341.167 242.279 341.191 242.269 341.213C242.259 341.235 242.245 341.255 242.228 341.271C228.953 354.698 220.628 372.307 214.235 387.762C208.055 402.704 201.702 420.46 201.396 438.864C201.396 438.887 201.391 438.911 201.382 438.933C201.373 438.954 201.36 438.974 201.343 438.991C201.327 439.007 201.307 439.02 201.286 439.029C201.264 439.038 201.241 439.042 201.218 439.042Z" fill="#40947E"/>
<path d="M149.376 398.614C149.354 398.613 149.332 398.609 149.311 398.601C149.268 398.583 149.233 398.549 149.215 398.505C149.196 398.462 149.196 398.412 149.213 398.368C152.966 388.531 154.005 377.824 152.216 367.421C152.21 367.397 152.208 367.372 152.212 367.347C152.216 367.323 152.225 367.299 152.238 367.278C152.251 367.257 152.268 367.239 152.288 367.226C152.308 367.212 152.331 367.203 152.355 367.198C152.379 367.194 152.404 367.195 152.427 367.201C152.451 367.207 152.473 367.218 152.492 367.233C152.511 367.249 152.527 367.268 152.539 367.29C152.55 367.311 152.558 367.335 152.56 367.36C154.359 377.827 153.313 388.599 149.537 398.497C149.525 398.531 149.503 398.56 149.474 398.581C149.446 398.602 149.412 398.613 149.376 398.614Z" fill="#40947E"/>
<path d="M134.844 374.212C134.818 374.212 134.793 374.207 134.769 374.197C124.125 369.27 112.679 366.421 101.017 365.795C100.973 365.789 100.934 365.767 100.906 365.732C100.877 365.697 100.863 365.653 100.865 365.608C100.867 365.563 100.886 365.52 100.918 365.489C100.949 365.457 100.991 365.439 101.035 365.438C112.741 366.066 124.23 368.926 134.913 373.872C134.95 373.889 134.98 373.917 134.998 373.954C135.016 373.99 135.022 374.032 135.014 374.072C135.006 374.112 134.984 374.148 134.954 374.173C134.923 374.199 134.884 374.213 134.844 374.213V374.212Z" fill="#40947E"/>
<path d="M122.2 358.265H122.174C122.152 358.262 122.13 358.254 122.11 358.243C122.09 358.231 122.073 358.216 122.059 358.197C122.045 358.179 122.035 358.157 122.029 358.135C122.023 358.112 122.022 358.088 122.025 358.065C122.923 350.912 122.216 343.644 119.958 336.813C119.949 336.791 119.945 336.766 119.945 336.742C119.946 336.717 119.951 336.693 119.961 336.671C119.971 336.648 119.985 336.628 120.003 336.612C120.021 336.595 120.041 336.583 120.064 336.575C120.087 336.567 120.111 336.564 120.135 336.566C120.158 336.568 120.182 336.575 120.203 336.587C120.224 336.598 120.242 336.614 120.257 336.633C120.272 336.652 120.283 336.674 120.29 336.698C122.563 343.579 123.275 350.901 122.37 358.106C122.366 358.15 122.346 358.189 122.314 358.219C122.283 358.248 122.242 358.264 122.2 358.265Z" fill="#40947E"/>
<path d="M156.064 414.436C156.036 414.436 156.009 414.43 155.984 414.418C149.025 410.835 141.379 408.878 133.594 408.686C133.571 408.686 133.549 408.681 133.528 408.671C133.507 408.662 133.488 408.648 133.472 408.631C133.456 408.614 133.444 408.594 133.435 408.572C133.427 408.55 133.423 408.527 133.424 408.503C133.425 408.456 133.445 408.411 133.478 408.379C133.512 408.346 133.556 408.328 133.602 408.329C141.438 408.522 149.135 410.491 156.141 414.095C156.182 414.116 156.214 414.154 156.228 414.199C156.243 414.244 156.239 414.293 156.218 414.335C156.204 414.365 156.183 414.39 156.155 414.408C156.128 414.426 156.096 414.435 156.064 414.436Z" fill="#40947E"/>
<path d="M177.292 350.765C177.267 350.767 177.241 350.762 177.218 350.751C177.195 350.741 177.175 350.725 177.159 350.704C171.838 344.531 167.81 336.991 165.181 328.299C165.168 328.254 165.173 328.205 165.195 328.163C165.216 328.121 165.253 328.09 165.297 328.075C165.319 328.068 165.342 328.065 165.365 328.068C165.388 328.07 165.41 328.077 165.431 328.088C165.451 328.099 165.469 328.114 165.483 328.132C165.498 328.15 165.509 328.171 165.516 328.194C168.128 336.843 172.134 344.339 177.421 350.475C177.451 350.511 177.466 350.558 177.463 350.605C177.46 350.652 177.439 350.696 177.405 350.727C177.373 350.754 177.333 350.768 177.292 350.765Z" fill="black"/>
<path d="M178.52 334.451C178.486 334.451 178.452 334.441 178.424 334.423C178.395 334.404 178.373 334.377 178.359 334.345C178.34 334.302 178.338 334.253 178.354 334.209C178.37 334.164 178.402 334.128 178.444 334.108C185.6 330.706 191.65 325.266 195.873 318.436C195.886 318.416 195.901 318.399 195.92 318.385C195.939 318.372 195.96 318.362 195.982 318.357C196.004 318.351 196.028 318.351 196.05 318.355C196.073 318.358 196.094 318.367 196.114 318.379C196.133 318.392 196.15 318.408 196.163 318.427C196.177 318.446 196.186 318.468 196.191 318.491C196.196 318.513 196.197 318.537 196.193 318.56C196.189 318.583 196.181 318.606 196.169 318.626C191.913 325.515 185.814 331.005 178.6 334.441C178.574 334.449 178.547 334.453 178.52 334.451Z" fill="black"/>
<path d="M177.467 385.688C177.435 385.688 177.403 385.679 177.376 385.662C177.348 385.644 177.326 385.62 177.311 385.59C177.296 385.561 177.289 385.528 177.291 385.495C177.293 385.462 177.304 385.43 177.323 385.403C183.438 376.747 190.875 368.897 198.3 363.261C198.337 363.237 198.382 363.229 198.426 363.237C198.469 363.245 198.508 363.27 198.534 363.307C198.56 363.343 198.572 363.389 198.567 363.434C198.562 363.479 198.541 363.52 198.507 363.55C191.116 369.151 183.695 376.994 177.605 385.614C177.59 385.636 177.569 385.655 177.545 385.668C177.521 385.68 177.494 385.687 177.467 385.688Z" fill="#40947E"/>
<path d="M178.52 403.612C178.484 403.611 178.45 403.599 178.421 403.578C178.392 403.556 178.37 403.526 178.359 403.492C175.746 395.676 171.299 388.639 165.409 383.001C165.393 382.985 165.379 382.966 165.369 382.945C165.36 382.923 165.354 382.9 165.354 382.877C165.353 382.853 165.356 382.83 165.364 382.808C165.372 382.786 165.384 382.766 165.4 382.749C165.432 382.714 165.475 382.694 165.522 382.692C165.568 382.69 165.613 382.707 165.647 382.739C171.576 388.419 176.052 395.506 178.68 403.376C178.695 403.421 178.691 403.47 178.671 403.513C178.65 403.555 178.615 403.588 178.571 403.604C178.554 403.609 178.537 403.611 178.52 403.612Z" fill="#40947E"/>
<path d="M226.259 362.469C226.216 362.469 226.175 362.454 226.143 362.425C226.111 362.397 226.09 362.357 226.084 362.314C225.316 356.44 224.966 350.517 225.038 344.591C225.035 344.566 225.038 344.541 225.046 344.517C225.053 344.493 225.066 344.471 225.082 344.453C225.099 344.434 225.119 344.42 225.141 344.409C225.163 344.399 225.188 344.394 225.212 344.394C225.236 344.394 225.26 344.399 225.283 344.409C225.305 344.42 225.325 344.434 225.342 344.453C225.358 344.471 225.37 344.493 225.378 344.517C225.386 344.541 225.389 344.566 225.386 344.591C225.316 350.5 225.665 356.406 226.431 362.263C226.434 362.286 226.432 362.31 226.427 362.333C226.421 362.356 226.41 362.377 226.396 362.396C226.382 362.415 226.365 362.43 226.345 362.442C226.325 362.454 226.303 362.461 226.28 362.464L226.259 362.469Z" fill="black"/>
<path d="M218.106 378.533C218.073 378.534 218.041 378.525 218.012 378.508C217.984 378.492 217.961 378.467 217.945 378.437C217.924 378.395 217.919 378.346 217.933 378.301C217.947 378.255 217.978 378.217 218.019 378.195C227.258 373.225 236.991 369.284 247.05 366.441C247.072 366.435 247.095 366.433 247.117 366.436C247.14 366.439 247.162 366.446 247.182 366.458C247.202 366.47 247.219 366.485 247.233 366.504C247.247 366.522 247.257 366.543 247.263 366.566C247.269 366.589 247.271 366.612 247.268 366.636C247.265 366.659 247.258 366.681 247.247 366.702C247.235 366.722 247.22 366.74 247.202 366.754C247.184 366.768 247.163 366.779 247.141 366.785C237.108 369.623 227.399 373.555 218.181 378.512C218.158 378.525 218.132 378.532 218.106 378.533Z" fill="#40947E"/>
<path d="M208.309 402.963C208.269 402.962 208.231 402.949 208.2 402.924C208.169 402.899 208.147 402.865 208.137 402.826C206.003 394.017 204.814 384.34 204.467 373.218C204.464 373.193 204.466 373.168 204.473 373.144C204.48 373.12 204.492 373.098 204.508 373.079C204.523 373.06 204.543 373.045 204.565 373.034C204.587 373.024 204.611 373.017 204.635 373.017C204.659 373.016 204.684 373.02 204.706 373.03C204.729 373.039 204.749 373.053 204.766 373.071C204.783 373.089 204.796 373.11 204.805 373.133C204.813 373.157 204.817 373.182 204.816 373.207C205.163 384.348 206.36 394.009 208.476 402.74C208.481 402.763 208.483 402.787 208.479 402.81C208.476 402.833 208.468 402.855 208.456 402.875C208.444 402.895 208.429 402.913 208.41 402.927C208.392 402.94 208.371 402.95 208.349 402.956C208.336 402.961 208.323 402.963 208.309 402.963Z" fill="#40947E"/>
<path d="M205.041 413.916C205.005 413.916 204.971 413.904 204.942 413.883C204.913 413.862 204.892 413.832 204.88 413.798C204.87 413.75 204.87 413.701 204.881 413.654C204.892 413.607 204.913 413.562 204.942 413.524L227.621 405.348C227.756 405.36 227.856 405.409 227.888 405.501C227.904 405.546 227.901 405.595 227.881 405.638C227.861 405.681 227.826 405.714 227.782 405.73L205.103 413.907C205.083 413.914 205.062 413.917 205.041 413.916Z" fill="#40947E"/>
<path d="M193.804 420.755C193.709 420.755 193.63 420.679 193.582 420.538L193.193 409.006C193.217 408.968 193.249 408.937 193.285 408.912C193.322 408.888 193.362 408.872 193.405 408.864C193.428 408.863 193.451 408.867 193.473 408.875C193.494 408.883 193.514 408.896 193.531 408.912C193.548 408.928 193.562 408.947 193.571 408.969C193.581 408.99 193.586 409.013 193.587 409.037L193.976 420.569C193.978 420.615 193.962 420.66 193.932 420.695C193.902 420.73 193.86 420.751 193.815 420.755H193.804Z" fill="#40947E"/>
<path d="M169.934 420.236C169.89 420.237 169.847 420.22 169.815 420.189C169.782 420.159 169.762 420.116 169.759 420.071L168.805 407.205C168.803 407.181 168.805 407.158 168.812 407.135C168.819 407.113 168.831 407.092 168.846 407.075C168.861 407.057 168.879 407.042 168.9 407.032C168.92 407.021 168.943 407.015 168.965 407.014C169.012 407.01 169.057 407.025 169.093 407.056C169.128 407.087 169.15 407.131 169.153 407.178L170.106 420.043C170.11 420.091 170.095 420.138 170.065 420.174C170.035 420.21 169.992 420.232 169.946 420.236H169.934Z" fill="#40947E"/>
<path d="M523.13 393.226C515.318 377.164 505.278 362.335 497.245 346.388C493.307 338.568 490.026 328.503 495.253 321.523C498.163 317.635 503.197 315.836 507.973 316.054C512.748 316.271 517.292 318.276 521.374 320.831C533.648 328.518 542.354 341.184 547.965 354.769C553.576 368.353 556.38 382.94 559.147 397.412C557.916 376.136 558.807 354.66 562.612 333.683C564.881 321.181 569.744 286.416 589.607 299.054C602.026 306.962 599.506 332.08 597.234 344.507C593.699 363.864 583.478 381.818 582.657 401.495C591.816 379.681 602.742 357.156 622.135 344.164C625.119 342.166 628.349 340.395 631.873 339.854C635.397 339.314 639.28 340.184 641.747 342.82C644.605 345.876 645.012 350.546 644.639 354.764C643.182 371.612 632.353 385.885 621.52 398.641C612.399 409.381 602.667 420.36 597.501 433.373L534.449 428.547C532.879 416.307 528.535 404.338 523.13 393.226Z" fill="#2E6857"/>
<path d="M548.659 429.805C548.615 429.806 548.572 429.789 548.539 429.758C548.506 429.728 548.486 429.685 548.483 429.64C546.394 387.795 527.218 344.509 499.635 319.362C499.618 319.347 499.604 319.328 499.594 319.307C499.584 319.286 499.578 319.263 499.576 319.239C499.575 319.216 499.578 319.192 499.586 319.17C499.593 319.148 499.605 319.128 499.62 319.11C499.636 319.092 499.654 319.078 499.675 319.068C499.696 319.057 499.718 319.051 499.741 319.05C499.764 319.049 499.787 319.052 499.809 319.06C499.831 319.068 499.851 319.08 499.868 319.095C513.847 331.843 525.838 349.22 534.535 369.342C542.883 388.658 547.826 409.5 548.836 429.614C548.838 429.66 548.823 429.706 548.793 429.741C548.763 429.776 548.721 429.798 548.676 429.801L548.659 429.805Z" fill="#40947E"/>
<path d="M571.437 431.549C571.396 431.549 571.357 431.535 571.325 431.509C571.293 431.483 571.271 431.446 571.263 431.406C566.632 408.773 568.878 384.511 571.347 363.548C573.967 341.286 579.013 319.1 583.893 297.65C583.905 297.607 583.934 297.569 583.972 297.546C584.011 297.523 584.057 297.516 584.1 297.527C584.143 297.537 584.181 297.564 584.206 297.602C584.231 297.64 584.241 297.686 584.233 297.731C579.355 319.177 574.311 341.352 571.7 363.596C569.235 384.531 566.992 408.758 571.612 431.338C571.616 431.361 571.617 431.385 571.612 431.408C571.608 431.431 571.599 431.453 571.587 431.472C571.574 431.492 571.558 431.509 571.539 431.522C571.52 431.535 571.499 431.544 571.477 431.549C571.463 431.55 571.45 431.55 571.437 431.549Z" fill="#40947E"/>
<path d="M586.324 433.262H586.295C586.249 433.255 586.208 433.229 586.181 433.191C586.153 433.153 586.142 433.105 586.149 433.058C588.972 414.819 597.718 398.113 605.89 384.177C614.35 369.762 625.025 353.487 640.052 342.062C640.07 342.048 640.091 342.038 640.113 342.032C640.135 342.027 640.158 342.025 640.181 342.029C640.203 342.032 640.225 342.04 640.245 342.052C640.264 342.064 640.281 342.08 640.295 342.099C640.309 342.118 640.319 342.139 640.324 342.162C640.33 342.185 640.331 342.208 640.327 342.231C640.324 342.255 640.316 342.277 640.305 342.297C640.293 342.317 640.277 342.335 640.259 342.349C625.282 353.737 614.632 369.976 606.194 384.358C598.033 398.264 589.309 414.933 586.497 433.111C586.491 433.153 586.47 433.192 586.438 433.219C586.406 433.247 586.366 433.262 586.324 433.262Z" fill="#40947E"/>
<path d="M540.518 385.787C540.487 385.787 540.456 385.78 540.429 385.764C540.402 385.749 540.379 385.727 540.363 385.7C540.346 385.672 540.337 385.641 540.336 385.61C540.335 385.578 540.342 385.546 540.357 385.518C545.418 376.317 547.91 365.865 547.56 355.308C547.56 355.284 547.563 355.261 547.571 355.239C547.579 355.217 547.592 355.196 547.607 355.179C547.623 355.162 547.642 355.148 547.663 355.139C547.684 355.129 547.706 355.124 547.729 355.123C547.774 355.122 547.817 355.138 547.851 355.169C547.884 355.2 547.905 355.242 547.909 355.288C548.261 365.911 545.754 376.428 540.662 385.686C540.649 385.714 540.628 385.738 540.603 385.756C540.577 385.774 540.548 385.784 540.518 385.787Z" fill="black"/>
<path d="M529.463 359.538C529.429 359.539 529.395 359.529 529.366 359.51C519.501 353.102 508.557 348.636 497.095 346.342C497.07 346.339 497.047 346.332 497.026 346.319C497.005 346.307 496.986 346.29 496.972 346.27C496.957 346.25 496.947 346.227 496.942 346.203C496.936 346.178 496.936 346.153 496.941 346.129C496.946 346.104 496.955 346.081 496.969 346.061C496.983 346.04 497.001 346.023 497.022 346.01C497.043 345.997 497.066 345.989 497.09 345.985C497.114 345.982 497.139 345.984 497.162 345.991C508.667 348.294 519.652 352.776 529.554 359.209C529.574 359.221 529.59 359.237 529.604 359.257C529.617 359.276 529.626 359.298 529.631 359.321C529.636 359.344 529.636 359.367 529.632 359.391C529.628 359.414 529.62 359.436 529.607 359.456C529.592 359.481 529.57 359.501 529.545 359.516C529.52 359.53 529.492 359.538 529.463 359.538Z" fill="#40947E"/>
<path d="M519.123 341.932C519.106 341.934 519.089 341.934 519.073 341.932C519.028 341.919 518.991 341.888 518.968 341.847C518.946 341.806 518.94 341.757 518.952 341.711C520.818 334.76 521.112 327.464 519.81 320.378C519.806 320.355 519.806 320.332 519.811 320.309C519.815 320.286 519.824 320.264 519.837 320.245C519.85 320.225 519.866 320.208 519.885 320.196C519.905 320.183 519.926 320.174 519.948 320.169C519.971 320.165 519.994 320.165 520.016 320.17C520.039 320.174 520.06 320.184 520.079 320.197C520.098 320.21 520.114 320.227 520.127 320.246C520.139 320.266 520.148 320.288 520.153 320.311C521.464 327.45 521.168 334.802 519.288 341.807C519.277 341.843 519.255 341.875 519.226 341.897C519.196 341.92 519.16 341.932 519.123 341.932Z" fill="#40947E"/>
<path d="M544.978 402.413C544.942 402.413 544.906 402.403 544.875 402.381C538.475 397.834 531.171 394.796 523.49 393.485C523.445 393.477 523.404 393.451 523.377 393.412C523.35 393.374 523.34 393.326 523.347 393.279C523.355 393.232 523.38 393.191 523.418 393.163C523.455 393.135 523.502 393.124 523.548 393.131C531.282 394.448 538.635 397.505 545.08 402.081C545.098 402.095 545.115 402.112 545.127 402.131C545.14 402.151 545.148 402.173 545.153 402.196C545.157 402.219 545.156 402.243 545.152 402.266C545.147 402.289 545.138 402.311 545.125 402.33C545.109 402.356 545.087 402.376 545.062 402.391C545.036 402.405 545.007 402.413 544.978 402.413Z" fill="#40947E"/>
<path d="M574.695 342.419C574.666 342.42 574.637 342.414 574.611 342.4C574.585 342.386 574.563 342.365 574.547 342.34C570.124 335.464 567.165 327.418 565.751 318.428C565.747 318.382 565.76 318.336 565.787 318.3C565.814 318.264 565.854 318.239 565.898 318.232C565.943 318.225 565.988 318.235 566.025 318.261C566.062 318.287 566.087 318.327 566.097 318.372C567.501 327.311 570.435 335.309 574.838 342.143C574.855 342.169 574.866 342.2 574.867 342.232C574.869 342.265 574.862 342.296 574.847 342.325C574.832 342.353 574.811 342.377 574.784 342.394C574.757 342.41 574.726 342.419 574.695 342.419Z" fill="#40947E"/>
<path d="M578.14 326.443C578.098 326.443 578.058 326.427 578.027 326.399C577.995 326.371 577.974 326.332 577.968 326.29C577.962 326.248 577.971 326.204 577.993 326.168C578.015 326.132 578.049 326.105 578.089 326.092C585.635 323.749 592.365 319.231 597.478 313.077C597.492 313.057 597.51 313.04 597.531 313.027C597.552 313.014 597.575 313.006 597.599 313.002C597.623 312.999 597.648 313.001 597.671 313.008C597.695 313.015 597.716 313.027 597.735 313.043C597.753 313.059 597.768 313.079 597.779 313.102C597.79 313.124 597.796 313.148 597.797 313.173C597.798 313.198 597.794 313.223 597.785 313.246C597.776 313.269 597.762 313.29 597.745 313.308C592.59 319.517 585.801 324.074 578.188 326.436C578.173 326.441 578.156 326.443 578.14 326.443Z" fill="#40947E"/>
<path d="M570.106 377.022C570.072 377.023 570.038 377.012 570.009 376.993C569.98 376.974 569.958 376.947 569.944 376.914C569.93 376.882 569.926 376.846 569.932 376.812C569.938 376.777 569.954 376.745 569.977 376.719C577.208 369.034 585.659 362.317 593.773 357.808C593.814 357.786 593.862 357.781 593.906 357.795C593.95 357.808 593.987 357.839 594.009 357.881C594.02 357.901 594.027 357.924 594.03 357.947C594.032 357.971 594.03 357.994 594.023 358.017C594.017 358.039 594.006 358.06 593.991 358.079C593.977 358.097 593.959 358.112 593.939 358.123C585.856 362.615 577.436 369.307 570.228 376.968C570.212 376.985 570.193 376.999 570.173 377.008C570.152 377.017 570.129 377.022 570.106 377.022Z" fill="#40947E"/>
<path d="M568.694 394.924C568.652 394.924 568.613 394.909 568.581 394.882C568.549 394.855 568.528 394.818 568.52 394.777C567.002 386.663 563.56 379.057 558.498 372.629C558.484 372.611 558.473 372.59 558.466 372.567C558.459 372.545 558.457 372.521 558.46 372.498C558.462 372.475 558.469 372.452 558.48 372.432C558.491 372.411 558.506 372.393 558.524 372.378C558.542 372.363 558.562 372.352 558.584 372.345C558.606 372.339 558.629 372.336 558.652 372.339C558.675 372.341 558.697 372.348 558.717 372.36C558.738 372.371 558.755 372.386 558.77 372.405C563.868 378.879 567.334 386.539 568.864 394.711C568.872 394.758 568.863 394.806 568.837 394.845C568.811 394.884 568.771 394.911 568.726 394.92L568.694 394.924Z" fill="#40947E"/>
<path d="M621.581 361.042C621.535 361.041 621.491 361.022 621.458 360.988C621.426 360.954 621.407 360.908 621.407 360.861C621.451 354.935 621.914 349.02 622.793 343.163C622.802 343.118 622.828 343.079 622.865 343.053C622.901 343.028 622.946 343.017 622.99 343.024C623.034 343.031 623.074 343.055 623.101 343.091C623.129 343.126 623.142 343.172 623.138 343.217C622.261 349.057 621.799 354.955 621.756 360.864C621.756 360.912 621.737 360.957 621.704 360.99C621.671 361.024 621.627 361.042 621.581 361.042Z" fill="#40947E"/>
<path d="M611.313 375.78C611.272 375.782 611.231 375.768 611.199 375.741C611.166 375.715 611.144 375.677 611.137 375.635C611.129 375.593 611.136 375.55 611.157 375.513C611.178 375.476 611.211 375.448 611.251 375.434C621.081 371.838 631.259 369.331 641.61 367.958C641.656 367.953 641.703 367.966 641.74 367.995C641.776 368.025 641.8 368.068 641.806 368.115C641.809 368.139 641.807 368.163 641.8 368.186C641.793 368.209 641.782 368.231 641.767 368.249C641.752 368.268 641.734 368.283 641.713 368.294C641.692 368.306 641.669 368.312 641.646 368.314C631.323 369.683 621.173 372.181 611.369 375.765C611.352 375.773 611.333 375.779 611.313 375.78Z" fill="#40947E"/>
<path d="M598.275 398.558C598.231 398.558 598.188 398.541 598.156 398.51C598.123 398.48 598.103 398.438 598.099 398.393C597.194 389.419 597.329 379.657 598.51 368.55C598.512 368.526 598.518 368.502 598.529 368.481C598.54 368.46 598.555 368.441 598.573 368.425C598.59 368.41 598.611 368.399 598.634 368.392C598.656 368.385 598.68 368.382 598.703 368.385C598.726 368.386 598.749 368.392 598.77 368.403C598.791 368.414 598.809 368.429 598.824 368.447C598.839 368.466 598.851 368.487 598.857 368.51C598.864 368.533 598.866 368.557 598.864 368.581C597.686 379.663 597.551 389.401 598.452 398.35C598.455 398.374 598.453 398.398 598.446 398.421C598.439 398.444 598.428 398.465 598.413 398.483C598.398 398.502 598.379 398.517 598.359 398.528C598.338 398.538 598.315 398.545 598.291 398.546L598.275 398.558Z" fill="#40947E"/>
<path d="M593.542 408.935C593.499 408.934 593.458 408.917 593.427 408.887C593.396 408.858 593.376 408.818 593.371 408.774C593.367 408.731 593.378 408.687 593.402 408.651C593.427 408.616 593.463 408.591 593.505 408.58L617.077 403.74C617.1 403.736 617.123 403.736 617.146 403.74C617.168 403.745 617.19 403.754 617.209 403.767C617.228 403.78 617.244 403.797 617.257 403.817C617.27 403.837 617.278 403.859 617.283 403.882C617.288 403.905 617.288 403.928 617.283 403.952C617.279 403.975 617.27 403.996 617.257 404.016C617.245 404.035 617.228 404.052 617.209 404.065C617.19 404.078 617.169 404.087 617.146 404.091L593.574 408.931L593.542 408.935Z" fill="#40947E"/>
<path d="M581.482 414.085H581.462C581.438 414.083 581.416 414.076 581.395 414.065C581.374 414.054 581.356 414.039 581.341 414.021C581.326 414.003 581.315 413.982 581.308 413.959C581.301 413.936 581.299 413.912 581.301 413.889L582.492 402.413C582.494 402.389 582.5 402.366 582.511 402.344C582.522 402.323 582.537 402.304 582.554 402.289C582.572 402.274 582.593 402.262 582.615 402.255C582.638 402.248 582.661 402.246 582.684 402.248C582.708 402.25 582.731 402.256 582.752 402.267C582.772 402.278 582.791 402.293 582.806 402.312C582.821 402.33 582.832 402.351 582.839 402.374C582.846 402.398 582.848 402.422 582.845 402.446L581.654 413.922C581.651 413.966 581.631 414.007 581.599 414.037C581.567 414.068 581.526 414.084 581.482 414.085Z" fill="#40947E"/>
<path d="M557.918 410.149H557.905C557.859 410.145 557.817 410.123 557.787 410.087C557.757 410.051 557.741 410.005 557.745 409.958L558.558 397.083C558.557 397.058 558.562 397.034 558.572 397.011C558.581 396.989 558.595 396.968 558.613 396.951C558.63 396.934 558.651 396.921 558.673 396.913C558.696 396.905 558.72 396.901 558.744 396.903C558.768 396.904 558.791 396.911 558.813 396.922C558.834 396.933 558.853 396.949 558.868 396.968C558.884 396.987 558.895 397.009 558.901 397.033C558.908 397.057 558.91 397.082 558.906 397.106L558.092 409.981C558.089 410.026 558.07 410.069 558.038 410.1C558.005 410.132 557.962 410.149 557.918 410.149Z" fill="black"/>
<path d="M374.569 454.709C501.247 453.032 603.841 443.81 603.719 434.112C603.597 424.414 500.805 417.911 374.127 419.589C247.448 421.267 144.854 430.488 144.976 440.187C145.099 449.885 247.891 456.387 374.569 454.709Z" fill="#ACCBEF"/>
<path d="M333.695 357.184L279.305 356.11L270.394 417.014L342.396 416.065L333.695 357.184Z" fill="#99B1DA"/>
<g opacity="0.47">
<path d="M333.3 354.512L279.095 357.551L273.805 393.698L338.238 387.927L333.3 354.512Z" fill="#5681BF"/>
</g>
<path d="M263.151 415.547L349.655 414.401C350.969 414.384 352.236 414.902 353.177 415.843C354.118 416.783 354.657 418.068 354.674 419.416L354.755 425.878L258.334 427.155L258.252 420.693C258.244 420.025 258.364 419.362 258.606 418.742C258.847 418.121 259.206 417.556 259.661 417.078C260.116 416.6 260.658 416.219 261.257 415.956C261.856 415.693 262.5 415.554 263.151 415.547Z" fill="#3D5891"/>
<path d="M444.281 142.294L161.672 146.024C154.809 146.115 149.315 151.625 149.399 158.324L151.872 355.352C151.955 362.055 157.587 367.415 164.45 367.326L447.058 363.589C453.92 363.499 459.416 357.988 459.331 351.288L456.858 154.268C456.774 147.564 451.142 142.203 444.281 142.294Z" fill="#92BAEA"/>
<g opacity="0.24">
<path d="M208.564 366.737L333.017 365.096L373.194 143.233L248.742 144.874L208.564 366.737Z" fill="white"/>
</g>
<path d="M447.022 360.48L164.413 364.208C162.782 364.23 161.162 363.922 159.646 363.302C158.131 362.681 156.749 361.761 155.581 360.593C154.412 359.426 153.479 358.033 152.835 356.496C152.192 354.959 151.849 353.306 151.828 351.634L151.867 354.744C151.955 361.78 157.591 367.409 165.546 368.021L448.147 364.293C453.917 363.5 459.409 357.724 459.321 350.688L459.281 347.578C459.323 350.955 458.056 354.212 455.757 356.631C453.458 359.051 450.316 360.435 447.022 360.48Z" fill="#99B1DA"/>
<path d="M444.281 142.294L161.672 146.024C154.809 146.115 149.315 151.625 149.399 158.324L151.578 331.919L459.036 327.861L456.858 154.268C456.774 147.564 451.142 142.203 444.281 142.294Z" fill="#5681BF"/>
<path d="M446.133 151.281L160.058 155.07L162.284 331.769L448.359 327.981L446.133 151.281Z" fill="#3D5891"/>
<path d="M442.216 154.243L163.679 157.931L165.869 331.721L444.405 328.033L442.216 154.243Z" fill="#D1DBED"/>
<path d="M322.603 346.385L288.427 346.836C287.05 346.855 285.945 347.604 285.956 348.51C285.967 349.416 287.092 350.136 288.468 350.118L322.639 349.668C324.016 349.649 325.121 348.901 325.11 347.993C325.099 347.085 323.979 346.367 322.603 346.385Z" fill="#5681BF"/>
<g style="mix-blend-mode:overlay">
<path d="M444.281 142.294L161.672 146.024C160.04 146.045 158.429 146.396 156.929 147.056C155.43 147.716 154.072 148.673 152.933 149.871C151.794 151.069 150.897 152.485 150.292 154.039C149.687 155.593 149.386 157.254 149.407 158.927L149.439 161.594C149.418 159.921 149.719 158.26 150.324 156.706C150.929 155.152 151.827 153.735 152.966 152.537C154.105 151.338 155.463 150.382 156.962 149.722C158.462 149.062 160.074 148.711 161.706 148.689L444.315 144.961C447.61 144.918 450.787 146.219 453.147 148.577C455.507 150.935 456.857 154.158 456.9 157.536L456.866 154.871C456.823 151.492 455.474 148.269 453.114 145.91C450.754 143.552 447.576 142.251 444.281 142.294Z" fill="#99B1DA"/>
</g>
<g opacity="0.46">
<path d="M221.557 157.175L164.741 243.145L163.671 157.94L221.557 157.175Z" fill="white"/>
<path d="M382.122 155.057C362.396 196.597 318.401 284.4 296.261 330.014L206.895 331.192L297.824 156.177L382.122 155.057Z" fill="white"/>
</g>
<path d="M501.156 118.759C497.3 136.858 482.221 136.423 481.842 114.245L481.889 103.889L501.518 91.5811L501.156 118.759Z" fill="#F5B0A6"/>
<path d="M428.937 170.498C428.294 172.767 427.652 174.755 427.02 176.46C424.25 183.92 421.71 186.345 421.71 186.345L411.379 175.665C411.379 175.665 404.925 177.74 402.566 175.5C400.207 173.259 396.195 165.175 398.549 160.493C400.903 155.811 407.828 147.256 410.616 148.825C411.556 149.362 413.118 151.22 414.758 153.465C417.972 157.851 421.536 163.647 421.536 163.647L428.937 170.498Z" fill="#F5B0A6"/>
<path d="M428.937 170.498C428.294 172.767 427.652 174.755 427.02 176.46C424.289 173.59 420.583 169.602 419.417 167.696C417.988 165.409 415.835 157.559 414.757 153.454C417.971 157.839 421.534 163.635 421.534 163.635L428.937 170.498Z" fill="#F5B0A6"/>
<path d="M394.18 159.987C393.966 160.328 393.017 162.587 394.315 165.33C395.613 168.073 396.592 169.623 397.485 169.962C398.379 170.302 399.964 170.35 400.056 168.234C400.056 168.234 401.247 169.445 402.658 168.126C404.068 166.806 403.49 165.307 403.49 165.307C403.49 165.307 405.171 166.724 406.638 165.076C407.061 164.621 407.369 164.066 407.534 163.46C407.698 162.854 407.715 162.216 407.583 161.602C407.583 161.602 409.588 163.157 411.084 161.913C412.58 160.669 411.714 158.453 410.303 155.239C408.892 152.025 410.566 149.948 409.92 148.617C409.275 147.285 405.502 146.508 404.378 149.673C404.378 149.673 400.04 148.773 399.595 153.671C399.595 153.671 395.655 155.014 395.632 158.098L394.18 159.987Z" fill="#C8C8C8"/>
<path d="M421.258 166.454C421.221 166.568 421.167 166.676 421.098 166.773C420.121 168.572 415.708 172.641 412.673 170.663C411.431 169.856 411.183 167.986 411.359 166.004C411.5 164.32 411.945 162.544 412.332 161.243C412.665 160.1 412.954 159.333 412.954 159.333C412.954 159.333 407.084 162.198 404.409 161.146C404.198 161.059 404.013 160.918 403.87 160.737C403.728 160.555 403.634 160.339 403.596 160.11C403.559 159.88 403.58 159.644 403.657 159.425C403.734 159.206 403.864 159.011 404.036 158.859C404.509 158.446 405.127 157.902 405.836 157.305C407.738 155.699 410.21 153.787 411.6 153.38C414.105 152.64 417.943 153.737 420.437 154.943C422.931 156.149 421.819 164.892 421.258 166.454Z" fill="#F18A8B"/>
<path d="M412.957 159.333C412.957 159.333 407.088 162.198 404.412 161.146C404.201 161.059 404.016 160.918 403.874 160.737C403.731 160.555 403.637 160.339 403.599 160.11C403.562 159.88 403.583 159.644 403.66 159.425C403.737 159.206 403.868 159.011 404.039 158.859C404.512 158.445 405.13 157.902 405.839 157.305C405.784 158.17 405.913 160.468 408.95 158.922C412.646 157.032 414.988 157.131 414.988 157.131C413.946 158.389 413.055 159.772 412.335 161.249C412.671 160.099 412.957 159.333 412.957 159.333Z" fill="#ACACAC"/>
<path d="M421.104 166.773C420.127 168.572 415.715 172.641 412.679 170.663C411.437 169.856 411.19 167.986 411.365 166.004C412.607 168.251 417.763 168.742 421.104 166.773Z" fill="#F18A8B"/>
<path d="M470.117 173.411C464.299 185.702 456.299 213.351 447.7 212.76C439.102 212.168 417.675 184.861 417.675 184.861C417.501 180.791 418.503 177.74 420.002 175.482C423.673 169.968 432.321 165.329 432.321 165.329L442.663 174.614C442.663 174.614 447.607 164.806 451.385 149.363C455.163 133.92 461.691 126.446 461.691 126.446L463.637 132.871L464.601 133.365C472.128 138.879 475.934 161.119 470.117 173.411Z" fill="#6FC183"/>
<path d="M470.117 173.411C464.299 185.702 456.299 213.351 447.7 212.76C439.102 212.169 417.675 184.861 417.675 184.861C417.501 180.791 418.503 177.74 420.002 175.482C424.983 179.941 437.439 190.958 442.309 194.511C448.475 199.002 456.377 178.791 456.377 178.791C456.377 178.791 448.57 185.816 446.924 186.228C445.279 186.64 454.666 164.078 458.548 149.668C460.022 144.215 461.44 138.057 463.637 132.877L464.601 133.372C472.128 138.879 475.934 161.119 470.117 173.411Z" fill="#40947E"/>
<path d="M480.629 398.92C483.721 410.342 483.575 421.819 483.575 421.819C483.575 421.819 423.847 425.928 423.251 424.73C422.814 423.874 422.494 420.403 424.707 417.79C425.595 416.744 426.882 415.834 428.724 415.294C435.038 413.441 457.875 402.711 459.35 398.558C459.386 398.473 459.41 398.383 459.422 398.291C459.969 394.352 461.113 368.688 461.098 367.467L484.347 366.564L480.629 398.92Z" fill="#243354"/>
<g opacity="0.36">
<path d="M457.197 407.152C450.769 412.327 436.469 417.996 429.979 417.941C427.549 417.926 425.854 417.87 424.707 417.791C425.595 416.745 426.882 415.836 428.724 415.295C435.039 413.442 457.875 402.712 459.35 398.559L459.52 398.76C459.52 398.76 463.623 401.974 457.197 407.152Z" fill="#5681BF"/>
</g>
<path d="M453.732 359.861C453.756 361.85 453.941 363.569 454.375 365.107C454.699 366.296 455.211 367.424 455.89 368.444C460.436 375.212 480.509 380.428 487.04 368.938C493.572 357.449 492.198 355.184 492.817 332.832C493.436 310.479 498.203 266.648 498.203 266.648L498.788 261.921L503.265 225.727L503.458 224.157L502.251 224.127L462.08 222.887C462.485 223.289 462.208 230.63 461.612 241.386C460.2 266.366 456.985 309.705 456.27 326.924C455.585 343.145 453.678 353.046 453.732 359.861Z" fill="#739EC0"/>
<path d="M533.249 367.731L542.906 409.871C542.906 409.871 539.576 426.218 540.54 432.544C541.504 438.87 552.423 440.841 559.18 439.846C565.936 438.851 569.696 433.066 569.674 431.254C569.651 429.442 560.859 409.332 560.859 409.332C560.859 409.332 558.91 371.317 557.324 362.583C555.738 353.848 533.249 367.731 533.249 367.731Z" fill="#243354"/>
<g opacity="0.36">
<path d="M545.83 410.541C545.83 410.541 546.24 422.931 546.681 427.753C547.123 432.575 561.464 429.386 563.071 425.32C564.678 421.254 560.889 413.735 559.461 411.404C558.032 409.073 556.917 411.704 545.83 410.541Z" fill="#5681BF"/>
</g>
<path d="M488.379 226.644C488.52 227.073 489.894 231.658 491.956 238.625C497.787 258.339 509.106 297.128 513.487 314.772C519.584 339.319 524.833 367.985 532.448 371.991C533.664 372.616 534.932 373.127 536.237 373.518C545.097 376.246 559.536 375.749 559.425 359.046V358.858C559.189 340.021 544 275.069 541.512 261.133C541.512 261.124 541.512 261.114 541.512 261.104C541.414 260.55 541.337 260.077 541.279 259.694C541.178 258.992 541.016 258.163 540.821 257.255C539.685 252.01 537.108 243.807 534.601 236.293C534.238 235.208 533.875 234.137 533.52 233.092C532.9 231.269 532.295 229.522 531.731 227.906C529.768 222.343 528.312 218.368 528.312 218.368L488.379 226.644Z" fill="#739EC0"/>
<path d="M533.886 206.565C535.305 218.559 534.086 222.473 529.697 225.771C525.309 229.069 473.713 232.361 463.536 228.274C453.358 224.186 459.313 194.88 458.781 178.007C458.249 161.134 458.376 139.8 461.691 126.442C461.691 126.442 468.808 122.74 476.701 119.17C478.629 118.296 480.61 117.431 482.541 116.628L490.206 120.612L499.863 113.113C502.631 113.445 505.38 113.925 508.1 114.551C520.169 117.248 533.595 122.325 534.64 123.368C534.871 123.584 529.57 130.422 529.8 132.846C530.994 145.279 532.222 182.269 533.324 199.476C533.515 202.562 533.7 205.002 533.886 206.565Z" fill="#6FC183"/>
<path d="M533.324 199.48C529.789 193.763 526.387 187.106 523.975 179.857C516.293 156.735 522.221 132.606 526.429 132.063C526.911 132.011 528.113 132.261 529.803 132.849C530.994 145.283 532.222 182.269 533.324 199.48Z" fill="#40947E"/>
<g opacity="0.31">
<path d="M536.224 373.518C545.084 376.246 559.523 375.749 559.412 359.045V358.857C559.176 340.021 543.987 275.069 541.499 261.133C541.499 261.123 541.499 261.113 541.499 261.104C541.499 261.094 539.218 274.194 539.433 278.593C540.539 301.032 550.972 345.587 551.653 353.64C552.309 361.465 546.675 370.915 536.224 373.518Z" fill="#1D2F59"/>
</g>
<path d="M458.534 298.163C467.44 290.293 474.857 268.586 476.156 258.105C477.35 248.46 483.485 241.746 491.956 238.624C494.844 237.578 497.859 236.943 500.916 236.736C512.549 235.891 538.305 259.371 541.498 261.138C541.498 261.128 541.498 261.118 541.498 261.109C539.653 248.038 536.991 239.124 535.961 227.519C535.789 225.605 535.622 223.73 535.455 221.928C533.832 204.242 532.456 191.888 532.451 191.526C532.44 190.654 522.603 189.303 522.603 189.303C510.949 178.778 511.254 157.314 511.429 150.712C506.088 149.042 476.882 153.398 470.125 154.202C470.768 165.421 466.751 173.72 463.216 184.564C461.251 190.582 457.41 193.412 457.41 193.412C457.41 193.412 459.112 236.232 458.534 298.163Z" fill="#739EC0"/>
<path d="M468.356 138.605C468.44 145.187 469.516 152.019 470.464 158.045C470.893 160.763 471.297 163.33 471.589 165.702L477.293 164.966C476.99 162.495 476.577 159.875 476.141 157.106C474.334 145.632 471.89 128.742 476.471 119.518C474.016 119.747 471.698 121.157 469.434 122.658C468.459 126.274 468.297 133.936 468.356 138.605Z" fill="#2C4DA2"/>
<path d="M490.206 120.616C488.364 121.538 483.391 128.457 483.391 128.457C483.391 128.457 478.016 123.719 476.7 119.174C476.608 118.863 476.536 118.545 476.485 118.223C479.098 117.123 480.663 117.579 481.937 116.507L482.541 116.632L490.206 120.616Z" fill="white"/>
<path d="M508.1 114.555C507.468 119.383 499.887 128.064 499.887 128.064C499.887 128.064 494.863 122.406 490.206 120.62L499.863 113.121L501.422 111.912C504.828 112.731 505.46 113.525 508.1 114.555Z" fill="white"/>
<path d="M518.414 117.251C512.245 125.567 511.81 138.892 511.423 150.707C511.33 153.567 510.941 161.348 510.78 163.887L505.114 163.526C505.275 161.089 505.587 153.302 505.677 150.496C505.881 144.267 506.112 137.21 507.269 130.604C508.297 124.74 509.94 119.92 512.25 116.007C514.276 116.33 516.409 116.732 518.414 117.251Z" fill="#2C4DA2"/>
<path d="M505.54 144.264L504.994 156.645L507.759 158.694L510.939 157.46L512.122 145.226L505.54 144.264Z" fill="#2F4171"/>
<path d="M511.924 143.244L513.587 152.645L507.573 154.317L504.113 148.538L506.053 142.202L506.371 149.198L508.498 150.594L511.317 149.867L511.924 143.244Z" fill="#3D5891"/>
<path d="M505.712 143.968L506.053 142.202L511.924 143.244L511.937 145.36L509.735 144.969L508.726 148.286L508.077 144.465L505.712 143.968Z" fill="#3D5891"/>
<path d="M475.026 145.159L476.112 156.279L473.734 158.449L471.133 157.282L468.771 146.857L475.026 145.159Z" fill="#2F4171"/>
<path d="M468.745 144.871L468.168 154.38L474.165 155.357L476.874 149.235L474.303 143.174L474.764 150.146L472.862 151.77L470.059 151.37L468.745 144.871Z" fill="#3D5891"/>
<path d="M474.827 144.886L474.303 143.174L468.745 144.871L468.964 146.97L471.048 146.334L472.388 149.508L472.597 145.647L474.827 144.886Z" fill="#3D5891"/>
<g opacity="0.43">
<path d="M512.088 151.544L508.423 151.599L506.38 150.608L508.349 152.602L512.088 151.544Z" fill="white"/>
</g>
<g opacity="0.43">
<path d="M469.82 153.442L473.157 152.737L474.814 151.396L473.426 153.658L469.82 153.442Z" fill="white"/>
</g>
<path d="M478.254 159.747C481.666 159.561 500.774 160.302 502.005 160.077L501.554 165.174C499.333 165.469 491.191 167.451 490.212 167.408C489.208 167.365 479.463 165.34 478.95 164.518C478.134 163.215 478.965 161.673 478.254 159.747Z" fill="#2F4171"/>
<path d="M500.321 162.706L498.309 180.152L489.073 182.561L483.894 180.165L479.196 161.401L483.218 181.055L488.742 183.621L499.865 181.01L500.321 162.706Z" fill="#2F4171"/>
<path d="M488.281 165.063C488.284 165.365 488.375 165.659 488.542 165.908C488.708 166.157 488.943 166.35 489.217 166.462C489.49 166.574 489.79 166.6 490.078 166.537C490.366 166.475 490.629 166.326 490.834 166.11C491.04 165.893 491.178 165.62 491.232 165.323C491.285 165.026 491.252 164.72 491.136 164.442C491.019 164.165 490.825 163.929 490.578 163.765C490.331 163.601 490.042 163.515 489.748 163.52C489.553 163.522 489.36 163.564 489.18 163.643C489.001 163.722 488.838 163.836 488.702 163.979C488.566 164.123 488.458 164.292 488.386 164.478C488.314 164.664 488.278 164.863 488.281 165.063Z" fill="#3D5891"/>
<g opacity="0.43">
<path d="M488.821 164.851C488.822 164.961 488.855 165.069 488.916 165.16C488.976 165.252 489.062 165.322 489.162 165.364C489.262 165.405 489.372 165.415 489.478 165.392C489.583 165.369 489.68 165.315 489.755 165.236C489.831 165.157 489.881 165.056 489.901 164.948C489.921 164.839 489.909 164.727 489.866 164.625C489.823 164.523 489.752 164.437 489.662 164.377C489.571 164.317 489.465 164.286 489.358 164.287C489.286 164.288 489.216 164.303 489.15 164.332C489.085 164.361 489.025 164.403 488.975 164.455C488.926 164.507 488.886 164.569 488.86 164.637C488.833 164.705 488.82 164.777 488.821 164.851Z" fill="white"/>
</g>
<g opacity="0.31">
<path d="M454.37 365.107C454.694 366.296 455.206 367.424 455.886 368.444C460.431 375.212 480.504 380.428 487.036 368.939C493.568 357.449 492.194 355.184 492.812 332.832C493.431 310.479 498.198 266.648 498.198 266.648L498.783 261.921L494.471 255.522C494.471 255.522 484.195 338.987 481.576 350.949C479.704 359.502 466.078 366.172 454.37 365.107Z" fill="#1D2F59"/>
</g>
<path d="M583.337 277.044L583.828 316.138C583.852 318.031 583.141 319.856 581.852 321.212C580.564 322.567 578.802 323.343 576.956 323.367L507.605 324.283C505.759 324.307 503.978 323.578 502.656 322.257C501.334 320.936 500.578 319.13 500.554 317.237L500.064 278.143L583.337 277.044Z" fill="#5681BF"/>
<path d="M585.829 266.042L497.33 267.214L497.672 294.379L586.171 293.208L585.829 266.042Z" fill="#99B1DA"/>
<path d="M585.21 266.079L497.324 267.232L506.335 258.3C507.58 257.066 509.238 256.366 510.969 256.343L571.814 255.541C573.613 255.518 575.347 256.229 576.634 257.517L585.21 266.079Z" fill="#5681BF"/>
<path d="M559.242 244.956L525.367 245.402C525 245.403 524.637 245.479 524.299 245.626C523.962 245.772 523.656 245.986 523.399 246.255C523.143 246.524 522.942 246.843 522.807 247.192C522.672 247.542 522.607 247.916 522.614 248.292L522.775 260.774L529.215 260.689L529.104 251.778L555.677 251.427L555.789 260.338L562.216 260.254L562.056 247.773C562.055 247.397 561.981 247.026 561.838 246.68C561.696 246.335 561.487 246.021 561.225 245.759C560.964 245.497 560.653 245.291 560.313 245.153C559.972 245.015 559.608 244.948 559.242 244.956Z" fill="#3D5891"/>
<g opacity="0.51">
<path d="M583.559 293.241L500.286 294.344L500.345 299.032L583.618 297.929L583.559 293.241Z" fill="#2F4171"/>
</g>
<path d="M519.557 290.871L507.974 291.024L508.137 303.944L519.719 303.791L519.557 290.871Z" fill="#D1DBED"/>
<path d="M576.462 290.119L564.88 290.272L565.043 303.192L576.624 303.039L576.462 290.119Z" fill="#D1DBED"/>
<path d="M516.722 292.63L510.852 292.708L510.959 301.145L516.828 301.068L516.722 292.63Z" fill="#3D5891"/>
<path d="M573.626 291.877L567.757 291.955L567.863 300.392L573.733 300.314L573.626 291.877Z" fill="#3D5891"/>
<path d="M519.294 270.022L507.711 270.176L507.94 288.304L519.523 288.151L519.294 270.022Z" fill="#3D5891"/>
<path d="M576.2 269.268L564.619 269.421L564.848 287.549L576.429 287.396L576.2 269.268Z" fill="#3D5891"/>
<path d="M556.417 216.603L555.151 223.98L553.97 230.822C553.167 237.379 553.258 248.433 552.611 250.336C552.592 250.416 552.556 250.492 552.506 250.557C551.724 251.522 549.738 251.407 549.738 251.407C549.738 251.407 548.452 253.178 547.398 253.599C546.344 254.021 544.631 253.37 544.631 253.37C544.631 253.37 542.941 255.005 541.61 254.898C540.28 254.791 538.021 252.377 538.021 252.377C538.021 252.377 537.378 253.731 536.475 254.558C535.572 255.385 532.386 254.878 531.458 254.076C530.625 253.367 531.64 249.077 531.844 248.277C531.857 248.236 531.867 248.194 531.873 248.151L528.688 246.252C528.482 244.24 528.513 242.21 528.78 240.206V240.196C528.949 238.917 529.303 237.672 529.832 236.501C531.677 232.578 541.127 228.553 541.127 228.553L542.505 221.614L544.101 213.577L556.417 216.603Z" fill="#F5B0A6"/>
<path d="M533.072 241.419C532.943 242.109 531.852 247.745 531.873 248.152L528.688 246.252C528.482 244.24 528.513 242.21 528.78 240.206C529.177 241.438 529.871 243.152 530.748 243.718C532.024 244.532 532.909 241.906 533.072 241.419Z" fill="#F18A8B"/>
<path d="M552.611 250.336C552.592 250.416 552.556 250.492 552.506 250.557C551.724 251.522 549.738 251.407 549.738 251.407C549.738 251.407 548.452 253.178 547.398 253.6C546.344 254.021 544.631 253.371 544.631 253.371C544.631 253.371 542.941 255.005 541.61 254.898C540.28 254.791 538.021 252.377 538.021 252.377L538.847 250.071C538.847 250.071 541.479 251.664 543.139 251.313C544.088 251.133 544.989 250.748 545.782 250.183C545.782 250.183 547.967 251.453 549.799 250.067C549.797 250.061 551.306 250.588 552.611 250.336Z" fill="#F18A8B"/>
<path d="M556.417 216.603L555.151 223.98C550.374 224.183 545.189 222.591 542.505 221.61L544.101 213.572L556.417 216.603Z" fill="#F18A8B"/>
<path d="M563.052 218.081C553.951 224.371 538.758 216.241 538.758 216.241L539.049 213.888L542.21 188.275C542.21 188.275 538.636 184.705 533.951 178.77C530.266 174.142 526.893 169.263 523.855 164.167C515.445 149.982 531.115 121.193 534.64 123.371C541.336 127.49 569.168 174.813 569.553 180.007C569.939 185.201 563.052 218.081 563.052 218.081Z" fill="#6FC183"/>
<path d="M554.749 188.33C559.49 186.31 555.006 194.198 548.912 195.36C544.413 196.202 540.699 207.823 539.049 213.888L542.21 188.276C542.21 188.276 538.636 184.706 533.95 178.77C536.277 180.525 539.018 182.305 541.413 183.119C546.98 185.002 551.936 184.358 556.019 182.347C560.102 180.335 558.726 186.32 551.299 187.2C543.873 188.08 550.009 190.35 554.749 188.33Z" fill="#40947E"/>
<path d="M398.817 203.623L438.492 109.599C445.928 110.362 453.103 105.097 454.324 97.016L456.434 83.0556C456.697 81.3053 456.386 79.5148 455.551 77.9647C454.716 76.4145 453.403 75.1921 451.817 74.4889L451.737 74.4527L442.628 96.0341C439.64 96.5215 436.579 96.1263 433.803 94.8948C431.027 93.6633 428.65 91.6464 426.951 89.0803L436.059 67.4989L435.977 67.4626C434.39 66.7594 432.621 66.6156 430.946 67.0539C429.271 67.4921 427.785 68.4876 426.722 69.8844L418.242 81.0194C413.333 87.4641 414.503 96.4311 420.137 101.464L380.462 195.488C376.95 196.291 373.776 198.213 371.396 200.98C369.015 203.746 367.55 207.215 367.212 210.888C366.873 214.56 367.677 218.249 369.509 221.424C371.341 224.599 374.107 227.098 377.41 228.562C380.713 230.026 384.383 230.38 387.894 229.573C391.405 228.766 394.577 226.839 396.954 224.07C399.331 221.3 400.792 217.83 401.127 214.157C401.462 210.484 400.653 206.796 398.817 203.623ZM391.5 222.643L379.288 224.093L371.956 213.972L376.837 202.402L389.049 200.953L396.381 211.073L391.5 222.643Z" fill="#F19A6D"/>
<path d="M389.581 185.612L422.521 107.546C422.805 106.873 423.215 106.264 423.729 105.754C424.242 105.244 424.848 104.842 425.513 104.572C426.178 104.302 426.888 104.169 427.603 104.18C428.318 104.192 429.023 104.347 429.68 104.638C430.336 104.93 430.93 105.35 431.428 105.877C431.926 106.403 432.317 107.025 432.581 107.707C432.844 108.388 432.974 109.117 432.963 109.85C432.952 110.583 432.8 111.307 432.516 111.979L399.576 190.045C399.002 191.403 397.925 192.473 396.582 193.018C395.24 193.562 393.741 193.538 392.416 192.951C391.759 192.66 391.166 192.239 390.668 191.713C390.17 191.186 389.779 190.565 389.516 189.883C389.252 189.202 389.123 188.474 389.134 187.741C389.145 187.008 389.297 186.284 389.581 185.612Z" fill="#B74C34"/>
<path d="M398.26 153.292C395.009 150.613 401.994 143.314 404.891 142.927C410.239 142.208 403.731 150.37 402.372 151.823C403.072 152.856 403.096 155.641 403.589 155.902L398.26 153.292Z" fill="#F5B0A6"/>
<path d="M413.782 161.951C403.92 159.664 408.349 151.585 406.737 150.103C405.603 149.06 404.411 148.291 403.323 147.212C402.235 146.132 400.573 144.925 402.026 143.355C403.101 142.192 404.414 143.274 405.545 143.668C407.944 144.505 413.915 146.035 415.589 148.437C419.047 153.394 423.413 155.076 421.535 161.539C421.541 161.539 418.099 162.949 413.782 161.951Z" fill="#F5B0A6"/>
<path d="M395.735 153.488C396.884 149.495 404.894 152.547 406.101 154.931C408.325 159.33 399.767 157.063 398.184 156.482C397.57 157.534 395.342 158.737 395.292 159.282L395.735 153.488Z" fill="#F5B0A6"/>
<path d="M393.64 156.958C395.296 153.131 402.752 157.348 403.617 159.905C405.224 164.628 397.122 161.118 395.647 160.306C394.904 161.269 392.558 162.149 392.433 162.683L393.64 156.958Z" fill="#F5B0A6"/>
<path d="M392.808 161.485C394.313 158.419 400.215 162.212 400.816 164.348C401.925 168.294 395.475 165.052 394.305 164.322C393.662 165.078 391.715 165.694 391.59 166.134L392.808 161.485Z" fill="#F5B0A6"/>
<path d="M495.367 91.0322C495.367 91.0322 497.196 95.4605 496.203 95.79C493.199 96.7834 495.367 91.0322 495.367 91.0322Z" fill="white"/>
<path d="M481.891 103.889C481.891 103.889 493.71 104.27 496.498 95.0176C496.498 95.0176 497.906 111.726 481.844 114.245L481.891 103.889Z" fill="#F18A8B"/>
<path d="M465.528 74.4639C463.439 76.0026 466.293 79.2266 466.332 79.2579C468.502 81.3205 470.855 81.0964 470.855 81.0964C470.855 81.0964 471.848 89.159 479.201 91.7636L504.107 92.5478C504.107 92.5478 510.274 85.7027 508.267 75.9515C506.26 66.2003 501.419 58.4211 495.496 62.8626C495.496 62.8626 491.705 55.9549 485.533 58.3058C479.672 60.5397 479.556 63.9796 470.972 63.487C470.254 63.4374 469.534 63.5523 468.864 63.8233C468.194 64.0943 467.592 64.5145 467.1 65.0537C465.758 66.5628 465.024 69.1723 468.695 73.2332C468.689 73.2283 466.96 73.4079 465.528 74.4639Z" fill="black"/>
<g opacity="0.42">
<path d="M486.78 62.6274C486.78 62.6274 478.552 67.695 471.912 66.3259C471.912 66.3259 473.721 68.9717 478.682 68.5879C478.682 68.5879 475.998 71.2089 473.027 71.0508C473.027 71.0508 476.763 73.4725 484.72 67.3062L482.329 66.6966C482.329 66.6966 486.086 64.0393 486.78 62.6274Z" fill="#3C3C3C"/>
</g>
<path d="M503.292 94.7393C503.166 94.7776 503.038 94.8089 502.908 94.8332C502.908 94.8332 500.14 96.3571 497.124 94.1034C494.823 92.3851 489.202 101.635 487.103 107.313C483.822 109.077 479.961 109.77 476.64 106.609C473.908 103.998 472.73 99.1857 472.603 94.0408C472.443 87.5252 473.828 80.5186 474.493 77.1974C474.745 75.9387 474.922 75.2023 474.922 75.2023C474.922 75.2023 483.001 78.6619 494.394 74.4165L492.581 80.1496C492.555 80.2287 492.531 80.3143 492.509 80.4033C492.447 80.6499 492.398 80.8995 492.361 81.1512C492.346 81.2336 492.335 81.316 492.329 81.395C492.319 81.4758 492.311 81.5598 492.305 81.6356C492.298 81.7114 492.285 81.7871 492.282 81.8646C492.268 82.0754 492.261 82.2896 492.261 82.4972V82.5548C492.261 82.7822 492.274 83.0112 492.295 83.2369C492.45 84.8434 493.029 86.3762 493.97 87.6701C494.912 88.964 496.18 89.9699 497.638 90.5795C497.638 90.5795 497.651 90.5795 497.659 90.5894C497.653 90.5623 497.649 90.5348 497.647 90.507C497.543 89.727 497.618 88.9329 497.864 88.1874C498.066 87.5368 498.419 86.9459 498.891 86.4646C499.364 85.9834 499.942 85.6261 500.578 85.423C502.854 84.7278 505.306 86.2467 506.054 88.8217C506.803 91.3966 505.566 94.0457 503.292 94.7393Z" fill="#F5B0A6"/>
<path d="M499.579 91.7835C499.516 91.7843 499.455 91.7662 499.402 91.7316C499.349 91.697 499.307 91.6473 499.281 91.5887C499.256 91.53 499.248 91.465 499.258 91.4015C499.268 91.3381 499.295 91.279 499.338 91.2316L502.272 87.9697C502.33 87.9082 502.41 87.8725 502.493 87.8702C502.577 87.8679 502.658 87.8992 502.72 87.9573C502.781 88.0155 502.818 88.096 502.823 88.1816C502.827 88.2673 502.799 88.3514 502.744 88.4161L500.604 90.7967L502.651 90.169C502.732 90.1462 502.818 90.1567 502.892 90.1984C502.965 90.24 503.02 90.3095 503.044 90.3919C503.068 90.4743 503.06 90.5632 503.021 90.6394C502.982 90.7157 502.916 90.7733 502.836 90.8L499.666 91.7703C499.637 91.7787 499.608 91.7832 499.579 91.7835Z" fill="#F18A8B"/>
<path d="M478.415 92.5677C476.863 92.5874 475.891 92.2382 475.455 91.5199C474.682 90.2415 475.839 88.174 476.985 86.3354C478.27 84.2629 477.374 82.1262 477.366 82.1048C477.348 82.0649 477.339 82.0218 477.337 81.9781C477.336 81.9343 477.343 81.8907 477.358 81.8498C477.374 81.8089 477.396 81.7714 477.426 81.7396C477.455 81.7077 477.49 81.6821 477.529 81.6641C477.568 81.6461 477.61 81.6362 477.653 81.6349C477.695 81.6336 477.738 81.6409 477.778 81.6564C477.818 81.672 477.854 81.6954 477.885 81.7254C477.916 81.7554 477.941 81.7914 477.959 81.8313C478.002 81.9318 479.018 84.3025 477.533 86.6946C476.471 88.398 475.46 90.2629 476.008 91.169C476.397 91.8131 477.644 92.0372 479.615 91.828C479.701 91.8184 479.786 91.8438 479.853 91.8988C479.92 91.9538 479.963 92.0338 479.972 92.1212C479.982 92.2086 479.957 92.2962 479.903 92.3648C479.849 92.4334 479.771 92.4773 479.686 92.4869C479.225 92.5331 478.802 92.5611 478.415 92.5677Z" fill="#F18A8B"/>
<path d="M476.49 84.6221C476.418 85.1624 476.029 85.5545 475.622 85.4985C475.216 85.4425 474.944 84.9565 475.017 84.4145C475.089 83.8725 475.476 83.482 475.884 83.5381C476.292 83.5941 476.562 84.0801 476.49 84.6221Z" fill="black"/>
<path d="M482.643 84.9321C482.57 85.4725 482.181 85.8646 481.775 85.8086C481.368 85.7526 481.097 85.2666 481.169 84.7246C481.241 84.1826 481.629 83.7921 482.037 83.8481C482.445 83.9041 482.715 84.3901 482.643 84.9321Z" fill="black"/>
<path d="M484.826 82.629C484.725 82.6315 484.625 82.6096 484.534 82.5649C484.442 82.5203 484.363 82.4542 484.301 82.372C482.908 80.4955 481.033 81.5565 480.824 81.6833C480.676 81.7746 480.499 81.8021 480.332 81.7596C480.164 81.7171 480.02 81.6082 479.931 81.4568C479.842 81.3054 479.815 81.1239 479.857 80.9523C479.898 80.7807 480.004 80.633 480.152 80.5417C481.2 79.8827 483.631 79.2682 485.336 81.5647C485.412 81.662 485.459 81.7795 485.473 81.9034C485.486 82.0273 485.465 82.1526 485.412 82.2647C485.359 82.3768 485.276 82.4712 485.172 82.5369C485.069 82.6025 484.95 82.6367 484.828 82.6355L484.826 82.629Z" fill="black"/>
<path d="M476.551 81.474C476.449 81.476 476.347 81.4528 476.255 81.4064C476.163 81.36 476.083 81.2916 476.023 81.2072C475.986 81.161 475.43 80.4889 474.109 80.8678C473.943 80.9154 473.765 80.8934 473.614 80.8066C473.464 80.7198 473.353 80.5753 473.307 80.4049C473.261 80.2345 473.282 80.0521 473.367 79.898C473.451 79.7438 473.592 79.6304 473.758 79.5828C476.008 78.9403 477.028 80.3571 477.07 80.418C477.143 80.5163 477.187 80.6333 477.197 80.7559C477.208 80.8785 477.185 81.0017 477.131 81.1116C477.077 81.2216 476.994 81.3138 476.892 81.3778C476.789 81.4419 476.671 81.4752 476.551 81.474Z" fill="black"/>
<path d="M490.567 88.5366C490.672 89.3883 489.309 90.2664 487.522 90.497C485.736 90.7277 484.204 90.2252 484.098 89.3751C483.992 88.5251 485.356 87.6453 487.151 87.413C488.946 87.1807 490.457 87.6849 490.567 88.5366Z" fill="#F18A8B"/>
<path d="M471.949 95.8624C470.114 105.012 479.662 112.128 487.611 107.559L487.772 107.464C488.946 106.766 490.045 105.942 491.05 105.006C495.701 100.696 497.12 94.7916 497.638 90.5807C496.674 90.1821 495.846 89.4423 495.099 88.7422C494.97 91.1886 494.283 94.1952 492.229 95.6103C489.61 97.4143 488.085 96.5988 487.494 96.3583C485.405 95.4884 484.017 94.2496 480.234 93.5214C478.267 93.1425 476.469 93.8295 473.967 94.1804C473.599 94.2331 473.122 94.3237 472.794 93.9794C472.697 93.8748 472.622 93.7509 472.573 93.6153C472.304 94.3451 472.095 95.0968 471.949 95.8624Z" fill="black"/>
<path d="M477.239 98.2796L482.575 97.6206C482.575 97.6206 482.834 100.818 480.325 100.915C477.817 101.013 477.239 98.2796 477.239 98.2796Z" fill="white"/>
<g opacity="0.75">
<path d="M311.416 122.808C310.613 124.643 311.379 127.044 313.086 128.037C310.701 129.913 310.354 133.956 312.392 136.225C314.429 138.493 318.384 138.488 320.41 136.213C321.167 138.727 323.848 140.332 326.411 140.198C328.974 140.065 331.319 138.436 332.795 136.282C333.747 134.897 334.402 133.113 333.848 131.505C333.131 129.406 330.764 128.521 328.68 127.902C331.008 127.27 333.062 125.857 334.515 123.889C335.439 122.63 336.085 120.854 335.275 119.515C334.608 118.413 333.231 118.054 331.986 117.829C330.549 117.571 329.066 117.367 327.647 117.698C326.228 118.029 324.861 118.994 324.433 120.421C325.026 119.467 324.615 118.114 323.765 117.391C322.915 116.668 321.758 116.459 320.654 116.441C319.444 116.421 318.16 116.632 317.244 117.441C316.328 118.25 316.222 119.459 316.404 120.561C314.424 120.325 312.335 120.713 311.416 122.808Z" fill="white"/>
</g>
<g opacity="0.54">
<path d="M336.845 166.234C336.314 168.439 337.529 170.948 339.565 171.847C338.426 174.209 337.936 176.845 338.146 179.471C338.23 180.49 338.432 181.532 339.004 182.371C339.576 183.209 340.45 183.755 341.341 184.196C347.228 187.109 354.852 185.776 359.466 181.027C359.948 180.532 360.455 179.972 361.13 179.882C361.612 179.816 362.094 180.012 362.593 180.046C363.383 180.097 364.137 179.727 364.831 179.335C366.92 178.15 368.909 176.64 370.23 174.595C371.551 172.551 372.134 169.903 371.345 167.587C370.156 164.094 366.296 162.315 362.705 161.951C364.741 159.435 365.809 155.594 363.96 152.931C362.437 150.74 359.487 150.131 356.871 150.346C354.499 150.546 351.785 151.701 351.332 154.096C350.54 152.841 349.037 152.201 347.578 152.136C346.119 152.07 344.686 152.498 343.307 152.982C340.92 153.818 338.185 155.424 338.236 158.01C338.276 159.997 339.894 161.14 341.188 162.294C339.374 163.323 337.436 163.808 336.845 166.234Z" fill="white"/>
</g>
<g opacity="0.54">
<path d="M268.764 206.762C266.881 203.231 265.241 199.271 265.846 195.294C266.452 191.317 270.169 187.62 273.996 188.515C273.047 185.396 274.186 181.854 276.407 179.516C278.627 177.179 281.793 175.95 284.96 175.592C288.598 175.18 292.743 176.108 294.761 179.235C295.748 175.116 299.076 171.836 302.926 170.264C306.776 168.693 311.084 168.651 315.17 169.352C318.454 169.913 321.832 171.045 324.049 173.59C326.267 176.136 326.853 180.409 324.576 182.9C328.915 180.912 334.608 183.05 336.668 187.437C338.728 191.824 336.8 197.722 332.578 199.958C335.349 201.16 336.917 204.425 336.779 207.506C336.64 210.587 335.058 213.437 333.011 215.701C329.351 219.693 324.313 222.059 318.973 222.29C319.43 222.972 319.113 223.964 318.491 224.503C317.869 225.042 317.055 225.236 316.267 225.414C312.56 226.257 308.765 227.106 305 226.62C299.672 225.931 295.038 222.674 290.646 219.513C289.391 222.643 285.913 224.478 282.625 224.244C279.337 224.01 276.341 221.964 274.372 219.254C272.563 216.763 271.575 213.188 273.233 210.59C273.519 210.139 273.681 209.811 273.326 209.406C271.671 211.228 269.516 208.172 268.764 206.762Z" fill="white"/>
</g>
<g opacity="0.42">
<path d="M297.712 182.297C298.997 180.958 300.935 180.241 302.728 180.63C303.112 178.488 305.057 176.988 307.057 176.268C310.767 174.933 315.215 175.731 318.038 178.534C320.861 181.338 321.744 186.113 319.83 189.632C320.15 188.61 320.184 187.517 319.928 186.477C319.673 185.437 319.138 184.491 318.384 183.747C316.687 182.126 314.153 181.77 311.849 182.05C310.748 182.184 309.614 182.465 308.775 183.203C307.936 183.941 307.489 185.254 308.007 186.259C307.171 184.941 305.55 184.249 304.028 184.424C302.506 184.599 301.126 185.577 300.31 186.91C299.373 188.434 299.399 190.795 301.064 191.753C299.221 191.34 297.26 191.671 296.174 189.897C294.823 187.699 296.11 183.963 297.712 182.297Z" fill="#D1DBED"/>
</g>
<g opacity="0.42">
<path d="M317.773 199.066C319.15 198.443 320.85 199.302 321.596 200.643C322.341 201.984 322.309 203.643 321.986 205.152C321.552 207.185 320.553 209.186 318.85 210.32C317.146 211.453 314.672 211.473 313.226 210.012C315.732 212.351 319.671 212.909 322.706 211.359C325.741 209.809 327.673 206.252 327.366 202.793C327.302 201.842 327.018 200.92 326.538 200.104C325.375 198.237 323.035 197.483 320.876 197.506C321.472 197.096 321.527 196.167 321.186 195.517C320.845 194.868 320.222 194.435 319.626 194.035C318.122 193.01 316.438 191.939 314.644 192.186C312.443 192.488 310.925 194.709 310.377 196.756C311.733 195.29 314.408 193.821 316.443 194.231C318.609 194.653 320.021 197.527 317.773 199.066Z" fill="#D1DBED"/>
</g>
<g opacity="0.42">
<path d="M342.779 166.796C342.882 165.221 344.31 163.861 345.849 163.871C345.133 163.296 344.845 162.276 344.985 161.353C345.125 160.431 345.64 159.607 346.27 158.937C347.573 157.563 349.498 156.755 351.345 157.052C353.191 157.348 354.86 158.854 355.159 160.747C354.613 159.923 353.638 159.533 352.693 159.317C351.42 159.027 350.058 158.988 348.844 159.472C347.631 159.956 346.595 161.039 346.388 162.358C346.18 163.678 346.96 165.159 348.223 165.488C347.727 165.316 347.195 165.292 346.687 165.419C346.178 165.546 345.716 165.82 345.354 166.207C344.781 166.841 344.53 167.816 344.872 168.607C345.215 169.398 346.214 169.866 346.971 169.483C344.961 170.498 342.613 169.357 342.779 166.796Z" fill="#D1DBED"/>
</g>
<g opacity="0.42">
<path d="M353.059 167.114C353.808 166.556 354.713 166.266 355.606 166.014C356.57 165.744 357.611 165.51 358.539 165.884C359.466 166.258 360.112 167.498 359.549 168.34C359.952 167.968 360.448 167.719 360.981 167.621C361.515 167.523 362.064 167.581 362.568 167.786C363.071 167.992 363.509 168.338 363.83 168.785C364.152 169.233 364.345 169.763 364.387 170.317C364.487 171.65 363.687 172.917 362.639 173.711C361.592 174.505 360.319 174.909 359.072 175.296C360.007 175.263 360.941 174.755 361.396 173.917C361.85 173.078 361.747 171.928 361.074 171.263C360.401 170.597 359.189 170.572 358.558 171.281C359.04 170.22 358.378 168.897 357.386 168.307C356.082 167.531 354.248 167.813 353.268 168.984C352.288 170.156 352.339 172.114 353.429 173.194C351.888 171.508 350.904 168.719 353.059 167.114Z" fill="#D1DBED"/>
</g>
<g opacity="0.51">
<path d="M314.984 125.892C314.739 124.886 315.221 123.698 316.155 123.299C317.089 122.9 318.342 123.503 318.514 124.526C318.707 123.003 320.166 121.891 321.657 121.713C322.526 121.614 323.487 121.816 324.067 122.489C324.647 123.161 324.721 124.121 324.482 124.96C324.242 125.798 323.717 126.513 323.156 127.169C323.535 126.576 323.845 125.825 323.575 125.171C323.275 124.434 322.33 124.162 321.585 124.39C321.104 124.549 320.685 124.862 320.391 125.283C320.097 125.704 319.942 126.211 319.95 126.729C319.422 126.324 318.826 125.937 318.167 125.943C317.508 125.95 316.819 126.526 316.923 127.194C317.028 127.861 317.754 128.157 318.319 128.227C316.938 128.042 315.358 127.439 314.984 125.892Z" fill="#E5E5E5"/>
</g>
<g opacity="0.51">
<path d="M318.613 129.867C319.114 129.601 319.665 129.447 320.228 129.416C320.987 129.342 321.788 129.375 322.457 129.745C323.125 130.116 323.615 130.915 323.452 131.678C324.187 130.689 325.804 130.666 326.68 131.533C327.555 132.399 327.66 133.902 327.06 134.992C326.461 136.083 325.275 136.745 324.065 136.882C324.898 136.841 325.544 136.058 325.778 135.248C325.905 134.806 325.939 134.302 325.708 133.905C325.397 133.366 324.692 133.187 324.101 133.319C323.509 133.45 322.994 133.826 322.494 134.193C322.733 133.085 322.222 131.826 321.244 131.291C320.265 130.755 318.907 131.06 318.297 132.007C317.686 132.955 318.003 134.324 318.919 134.938C316.5 134.319 316.537 131.086 318.613 129.867Z" fill="#E5E5E5"/>
</g>
<path d="M400.151 317.273L356.395 325.84L352.582 358.096C351.605 366.359 352.542 374.741 355.317 382.562C358.092 390.383 362.627 397.424 368.554 403.111L387.812 421.592L410.82 408.365C417.9 404.294 423.945 398.569 428.463 391.655C432.98 384.74 435.844 376.831 436.822 368.569L439.452 346.329C439.362 342.854 439.478 339.377 439.799 335.917L400.151 317.273ZM432.496 368.663C431.619 376.092 429.044 383.204 424.983 389.421C420.921 395.638 415.486 400.786 409.12 404.445L388.435 416.337L371.12 399.721C365.792 394.607 361.715 388.278 359.22 381.247C356.724 374.215 355.882 366.679 356.76 359.251L360.19 330.256L399.527 322.546L435.925 339.68L432.496 368.663Z" fill="#B74C34"/>
<path d="M399.527 322.538L360.192 330.248L356.76 359.243C355.882 366.671 356.724 374.207 359.22 381.238C361.715 388.27 365.792 394.599 371.12 399.712L388.435 416.328L409.119 404.445C415.485 400.786 420.92 395.638 424.982 389.421C429.044 383.204 431.618 376.092 432.497 368.663L435.925 339.668L399.527 322.538ZM387.269 411.071C384.307 409.061 381.627 406.661 379.051 404.16C376.476 401.66 374.059 398.997 371.702 396.282C369.37 393.524 367.119 390.765 365.033 387.755C362.983 384.684 361.77 381.154 360.913 377.612C359.307 370.462 359.283 363.093 359.866 355.866C360.505 348.631 361.747 341.466 363.578 334.449L363.644 334.411L363.684 334.479C361.994 341.508 360.896 348.673 360.401 355.895C359.928 363.091 360.065 370.404 361.751 377.385C362.657 380.834 363.902 384.236 365.914 387.121L366.666 388.202L367.493 389.258L369.145 391.373C370.257 392.775 371.366 394.174 372.52 395.544C374.769 398.317 377.139 400.997 379.59 403.599C380.803 404.908 382.063 406.172 383.348 407.407C384.614 408.665 385.946 409.851 387.338 410.961L387.352 411.038L387.269 411.071Z" fill="#F3CE90"/>
<g opacity="0.45">
<path d="M383.34 407.424C382.055 406.188 380.795 404.925 379.582 403.615C377.138 401.015 374.774 398.333 372.512 395.561C371.36 394.193 370.251 392.791 369.137 391.389L367.484 389.274L366.658 388.218L365.906 387.139C363.894 384.253 362.647 380.851 361.743 377.401C360.059 370.421 359.92 363.106 360.394 355.912C360.888 348.69 361.986 341.525 363.676 334.495L363.635 334.428L363.57 334.466C361.739 341.483 360.497 348.648 359.858 355.882C359.273 363.106 359.295 370.475 360.904 377.628C361.762 381.17 362.975 384.701 365.027 387.772C367.116 390.782 369.365 393.538 371.694 396.299C374.051 399.014 376.471 401.674 379.043 404.177C381.616 406.679 384.299 409.078 387.261 411.088L387.336 411.071L387.323 410.996C385.934 409.88 384.604 408.688 383.34 407.424Z" fill="white"/>
</g>
<g opacity="0.3">
<path d="M423.241 358.891C418.599 391.498 388.675 416.139 388.44 416.33L409.119 404.446C415.485 400.786 420.92 395.639 424.982 389.421C429.044 383.204 431.618 376.092 432.496 368.663L435.925 339.668L399.527 322.535C399.527 322.535 425.491 343.018 423.241 358.891Z" fill="#EF7C59"/>
</g>
<path d="M390.601 369.204L383.686 354.822L371.797 360.059L387.42 389.447L431.648 346.095L428.624 344.206L390.601 369.204Z" fill="white"/>
<path d="M232.443 338.827L198.777 339.273C194.22 339.333 190.574 343.169 190.633 347.841L190.976 375.092C191.035 379.764 194.776 383.502 199.333 383.442L233 382.996C237.556 382.936 241.203 379.1 241.144 374.428L240.8 347.177C240.742 342.505 237 338.767 232.443 338.827Z" fill="#F19A6D"/>
<path d="M202.333 397.243L219.55 379.563L202.106 379.146L202.333 397.243Z" fill="#F19A6D"/>
<path d="M224.305 348.797C223.496 347.577 222.365 346.619 221.045 346.034L219.878 345.495C218.017 344.639 217.629 346.611 216.664 348.8C215.585 351.261 215.577 353.019 217.789 354.1L218.369 354.363C220.323 357.306 217.789 361.574 217.529 362.592C216.96 363.467 215.527 368.243 212.083 368.698L211.5 368.429C209.25 367.452 207.965 368.627 206.89 371.088C205.926 373.276 204.75 374.877 206.61 375.742L207.777 376.279C209.08 376.901 210.529 377.129 211.955 376.938C211.955 376.938 215.313 376.696 218.022 373.643C218.725 372.85 219.3 371.946 219.725 370.966L222.415 364.831L225.105 358.698C225.537 357.72 225.814 356.679 225.928 355.612C226.352 351.515 224.3 348.779 224.3 348.779L224.305 348.797Z" fill="white"/>
</svg>
