<svg width="56" height="56" viewBox="0 0 56 56" fill="none" xmlns="http://www.w3.org/2000/svg">
<path d="M25.6667 24.2993V28C25.6667 29.288 26.7097 30.3333 28 30.3333H31.7007C34.1927 30.3333 36.5377 29.3603 38.2993 27.5987L53.949 11.949C55.2697 10.626 56 8.869 56 6.99767C56 5.12633 55.2697 3.36933 53.949 2.04867C51.219 -0.681333 46.781 -0.681333 44.051 2.04867L28.4014 17.6983C26.6373 19.46 25.6667 21.8073 25.6667 24.2993ZM30.3334 24.2993C30.3334 23.072 30.8327 21.868 31.7007 21L47.3503 5.35033C48.2627 4.44033 49.7374 4.44033 50.6497 5.35033C51.0907 5.789 51.3334 6.37467 51.3334 7C51.3334 7.62533 51.0907 8.20867 50.6497 8.64967L35 24.2993C34.118 25.1813 32.9467 25.6667 31.7007 25.6667H30.3334V24.2993ZM56 23.3333V37.3333C56 42.4807 51.814 46.6667 46.6667 46.6667H40.0097L31.0333 54.0867C30.191 54.838 29.1107 55.216 28.0187 55.216C26.908 55.216 25.7903 54.824 24.899 54.0307L16.1513 46.6667H9.33101C4.18368 46.6667 -0.00231934 42.4807 -0.00231934 37.3333V9.33333C1.39978e-05 4.186 4.18601 0 9.33335 0H32.6667C33.957 0 35 1.04533 35 2.33333C35 3.62133 33.957 4.66667 32.6667 4.66667H9.33335C6.75968 4.66667 4.66668 6.75967 4.66668 9.33333V37.3333C4.66668 39.907 6.75968 42 9.33335 42H17.0053C17.5537 42 18.088 42.1937 18.5103 42.5483L27.9557 50.5027L37.688 42.5343C38.1057 42.189 38.6307 42 39.1743 42H46.669C49.2427 42 51.3357 39.907 51.3357 37.3333V23.3333C51.3357 22.0453 52.3787 21 53.669 21C54.9593 21 56 22.0453 56 23.3333Z" fill="#FAF3E6"/>
</svg>
