<svg width="57" height="57" viewBox="0 0 57 57" fill="none" xmlns="http://www.w3.org/2000/svg">
<path d="M26.1263 25.0843V28.9045C26.1263 30.2342 27.1879 31.3133 28.5012 31.3133H32.2678C34.8042 31.3133 37.1909 30.3088 38.984 28.4902L54.9125 12.3349C56.2567 10.9692 57 9.15543 57 7.22364C57 5.29184 56.2567 3.47807 54.9125 2.11474C52.1338 -0.703469 47.6168 -0.703469 44.8381 2.11474L28.9097 18.27C27.1142 20.0886 26.1263 22.5118 26.1263 25.0843ZM30.8761 25.0843C30.8761 23.8173 31.3843 22.5744 32.2678 21.6784L48.1962 5.52308C49.1248 4.58368 50.6258 4.58368 51.5544 5.52308C52.0032 5.97592 52.2502 6.58051 52.2502 7.22604C52.2502 7.87158 52.0032 8.47376 51.5544 8.92901L35.6259 25.0843C34.7282 25.9948 33.536 26.4958 32.2678 26.4958H30.8761V25.0843ZM57 24.0871V38.5394C57 43.8531 52.7394 48.1743 47.5004 48.1743H40.7248L31.5886 55.8341C30.7312 56.6097 29.6316 56.9999 28.5202 56.9999C27.3897 56.9999 26.2522 56.5952 25.3449 55.7762L16.4414 48.1743H9.4996C4.26057 48.1743 0 43.8531 0 38.5394V9.63477C0.0023749 4.32113 4.26295 -0.00012207 9.50198 -0.00012207H33.251C34.5643 -0.00012207 35.6259 1.07899 35.6259 2.4086C35.6259 3.73821 34.5643 4.81732 33.251 4.81732H9.50198C6.88246 4.81732 4.75218 6.97795 4.75218 9.63477V38.5394C4.75218 41.1963 6.88246 43.3569 9.50198 43.3569H17.3107C17.8688 43.3569 18.4126 43.5568 18.8425 43.9229L28.4561 52.1343L38.3618 43.9085C38.7869 43.552 39.3212 43.3569 39.8746 43.3569H47.5028C50.1223 43.3569 52.2526 41.1963 52.2526 38.5394V24.0871C52.2526 22.7575 53.3142 21.6784 54.6275 21.6784C55.9408 21.6784 57 22.7575 57 24.0871Z" fill="#6B6B6B"/>
</svg>
