<svg width="152" height="48" viewBox="0 0 152 48" fill="none" xmlns="http://www.w3.org/2000/svg">
<path d="M64.0458 29.8618C64.0458 30.3599 63.9676 30.8213 63.8114 31.2461C63.6551 31.666 63.4354 32.0298 63.1522 32.3374C62.8739 32.645 62.5394 32.8867 62.1488 33.0625C61.763 33.2334 61.3407 33.3188 60.8817 33.3188C60.4178 33.3188 59.993 33.248 59.6073 33.1064C59.2215 32.9648 58.8895 32.7476 58.6112 32.4546C58.3329 32.1616 58.1156 31.793 57.9593 31.3486C57.8031 30.9043 57.725 30.3818 57.725 29.7812V22.1641H59.4169V29.7812C59.4169 30.1426 59.4535 30.4502 59.5267 30.7041C59.6 30.9531 59.7001 31.1558 59.827 31.312C59.9588 31.4683 60.1127 31.583 60.2884 31.6562C60.4691 31.7246 60.6669 31.7588 60.8817 31.7588C61.1258 31.7588 61.3382 31.7124 61.5189 31.6196C61.7044 31.522 61.8583 31.3853 61.9803 31.2095C62.1073 31.0337 62.2001 30.8237 62.2586 30.5796C62.3221 30.3354 62.3539 30.0645 62.3539 29.7666V29.3711C62.3539 29.0488 62.2977 28.7437 62.1854 28.4556C62.078 28.1626 61.9242 27.8916 61.724 27.6426C61.6214 27.5107 61.5213 27.3789 61.4237 27.2471C61.3309 27.1152 61.2479 26.9834 61.1747 26.8516C61.1014 26.7148 61.0404 26.5781 60.9916 26.4414C60.9476 26.2998 60.9256 26.1558 60.9256 26.0093C60.9256 25.897 60.933 25.7822 60.9476 25.665C60.9671 25.5479 60.9964 25.4282 61.0355 25.3062C61.0794 25.1792 61.138 25.0449 61.2113 24.9033C61.2845 24.7617 61.3773 24.6079 61.4896 24.4419L63.2474 24.9326C63.2035 24.9863 63.1571 25.0425 63.1083 25.1011C63.0643 25.1548 63.0228 25.2061 62.9837 25.2549C62.9447 25.3037 62.9081 25.3477 62.8739 25.3867C62.8446 25.4209 62.8275 25.4453 62.8226 25.46C62.7396 25.5723 62.6761 25.6675 62.6322 25.7456C62.5882 25.8237 62.5663 25.9116 62.5663 26.0093C62.5663 26.1655 62.6297 26.334 62.7567 26.5146C62.8885 26.6953 63.0399 26.8833 63.2108 27.0786H63.2035C63.4574 27.3667 63.66 27.6841 63.8114 28.0308C63.9676 28.3726 64.0458 28.7754 64.0458 29.2393V29.8618ZM71.6996 29.9351C71.6996 32.1909 70.6449 33.3188 68.5355 33.3188C68.013 33.3188 67.5541 33.2334 67.1586 33.0625C66.7679 32.8867 66.4383 32.6499 66.1698 32.3521C65.9061 32.0493 65.7059 31.7002 65.5692 31.3047C65.4374 30.9092 65.3714 30.4868 65.3714 30.0376V29.5688C65.3714 29.4126 65.3959 29.2466 65.4447 29.0708C65.4935 28.8901 65.5619 28.707 65.6498 28.5215C65.7377 28.3359 65.8402 28.1455 65.9574 27.9502C66.0746 27.7549 66.2015 27.562 66.3382 27.3716L67.6273 28.0161C67.4418 28.3628 67.3026 28.6753 67.2098 28.9536C67.117 29.2319 67.0707 29.437 67.0707 29.5688V30.0742C67.0707 30.3477 67.0951 30.5894 67.1439 30.7993C67.1976 31.0093 67.2806 31.1851 67.3929 31.3267C67.5101 31.4683 67.6615 31.5757 67.847 31.6489C68.0326 31.7222 68.2621 31.7588 68.5355 31.7588C68.7894 31.7588 69.0067 31.7271 69.1874 31.6636C69.3729 31.5952 69.5243 31.4878 69.6415 31.3413C69.7635 31.1899 69.8539 30.9971 69.9125 30.7627C69.9711 30.5234 70.0003 30.2329 70.0003 29.8911V29.1221C70.0003 28.8291 69.9588 28.5605 69.8758 28.3164C69.7928 28.0674 69.6854 27.8354 69.5536 27.6206C69.4217 27.4058 69.2704 27.2031 69.0995 27.0127C68.9286 26.8174 68.7552 26.627 68.5794 26.4414C68.3793 26.2314 68.1839 26.019 67.9935 25.8042C67.8031 25.5845 67.6322 25.3525 67.4808 25.1084C67.3343 24.8643 67.2147 24.5981 67.1219 24.3101C67.034 24.022 66.9901 23.7021 66.9901 23.3506V22.1641H68.6161V23.3506C68.6161 23.5605 68.6502 23.7607 68.7186 23.9512C68.7919 24.1367 68.8871 24.3174 69.0043 24.4932C69.1263 24.6689 69.263 24.8423 69.4144 25.0132C69.5707 25.1841 69.7294 25.3574 69.8905 25.5332V25.5259C70.1102 25.7603 70.3275 26.002 70.5423 26.251C70.7572 26.4951 70.9501 26.7612 71.121 27.0493C71.2919 27.3374 71.431 27.6523 71.5384 27.9941C71.6459 28.3311 71.6996 28.707 71.6996 29.1221V29.9351ZM74.9295 30.1182C74.9295 30.6309 75.0589 31.0337 75.3177 31.3267C75.5765 31.6147 75.9354 31.7588 76.3944 31.7588C76.8534 31.7588 77.2123 31.6147 77.4711 31.3267C77.7347 31.0337 77.8666 30.6309 77.8666 30.1182V28.6826C77.8666 28.0869 77.7396 27.6328 77.4857 27.3203C77.2318 27.0078 76.868 26.8516 76.3944 26.8516C76.1698 26.8516 75.9671 26.8857 75.7865 26.9541C75.6058 27.0176 75.452 27.1226 75.3251 27.269C75.1981 27.4106 75.1004 27.5938 75.0321 27.8184C74.9637 28.043 74.9295 28.3164 74.9295 28.6387V30.1182ZM73.2377 22.1641H74.9295V25.7969C75.2079 25.5918 75.4691 25.4575 75.7132 25.394C75.9623 25.3306 76.1893 25.2988 76.3944 25.2988C76.9364 25.2988 77.4051 25.377 77.8006 25.5332C78.201 25.6846 78.5306 25.9019 78.7894 26.1851C79.0482 26.4634 79.2411 26.7979 79.368 27.1885C79.495 27.5791 79.5585 28.0112 79.5585 28.4849V30.3379C79.5585 30.6943 79.495 31.0508 79.368 31.4072C79.2411 31.7637 79.0482 32.0835 78.7894 32.3667C78.5306 32.6499 78.201 32.8794 77.8006 33.0552C77.4051 33.231 76.9364 33.3188 76.3944 33.3188C75.9159 33.3188 75.4813 33.231 75.0907 33.0552C74.7001 32.8794 74.368 32.6499 74.0946 32.3667C73.8211 32.0835 73.6087 31.7637 73.4574 31.4072C73.3109 31.0508 73.2377 30.6943 73.2377 30.3379V22.1641ZM87.2049 30.6089C87.2049 31.0874 87.117 31.4976 86.9413 31.8394C86.7704 32.1812 86.5384 32.4619 86.2455 32.6816C85.9574 32.9014 85.6229 33.0625 85.242 33.165C84.8612 33.2676 84.4632 33.3188 84.0482 33.3188C83.5892 33.3188 83.1644 33.248 82.7738 33.1064C82.388 32.96 82.0536 32.7598 81.7704 32.5059C81.492 32.2471 81.2748 31.9443 81.1185 31.5977C80.9623 31.251 80.8841 30.8726 80.8841 30.4624C80.8841 30.1646 80.8963 29.9082 80.9208 29.6934C80.9501 29.4736 80.9964 29.2734 81.0599 29.0928C81.1283 28.9121 81.2186 28.7437 81.3309 28.5874C81.4432 28.4263 81.5848 28.2554 81.7557 28.0747L83.0228 28.5801C82.9203 28.7119 82.8397 28.8438 82.7811 28.9756C82.7225 29.1025 82.6761 29.2393 82.6419 29.3857C82.6127 29.5322 82.5931 29.6958 82.5834 29.8765C82.5785 30.0522 82.576 30.2524 82.576 30.4771C82.576 30.8921 82.6957 31.2095 82.9349 31.4292C83.1742 31.6489 83.5453 31.7588 84.0482 31.7588C84.4974 31.7588 84.8539 31.6538 85.1175 31.4438C85.3812 31.229 85.513 30.9385 85.513 30.5723V24.7935C85.513 24.481 85.4032 24.2271 85.1835 24.0317C84.9686 23.8364 84.6732 23.7388 84.2972 23.7388C83.9066 23.7388 83.5892 23.834 83.3451 24.0244C83.1058 24.2148 82.9862 24.4761 82.9862 24.8081C82.9862 24.9302 82.9911 25.0547 83.0008 25.1816C83.0106 25.3086 83.0521 25.4624 83.1253 25.6431L81.7997 26.1191C81.7167 26.002 81.6459 25.8994 81.5873 25.8115C81.5336 25.7188 81.4872 25.626 81.4481 25.5332C81.4139 25.4404 81.3871 25.3379 81.3675 25.2256C81.3529 25.1133 81.3456 24.9741 81.3456 24.8081C81.3456 24.4126 81.4139 24.0537 81.5506 23.7314C81.6874 23.4043 81.8802 23.126 82.1293 22.8965C82.3783 22.6621 82.6786 22.4814 83.0301 22.3545C83.3817 22.2275 83.7748 22.1641 84.2093 22.1641C84.6341 22.1641 85.0272 22.2202 85.3885 22.3325C85.7547 22.4448 86.0721 22.6133 86.3407 22.8379C86.6092 23.0576 86.8192 23.3311 86.9706 23.6582C87.1268 23.9854 87.2049 24.3638 87.2049 24.7935V30.6089ZM102.095 26.4341C102.095 26.6392 102.066 26.8687 102.007 27.1226C101.949 27.3765 101.866 27.6401 101.758 27.9136C101.651 28.1821 101.519 28.4556 101.363 28.7339C101.211 29.0073 101.043 29.2686 100.857 29.5176C100.672 29.7617 100.469 29.9863 100.249 30.1914C100.035 30.3965 99.8099 30.5649 99.5755 30.6968L98.4403 29.6641C98.7381 29.4443 99.0067 29.1904 99.246 28.9023C99.4852 28.6143 99.6878 28.3188 99.8539 28.0161C100.025 27.7134 100.154 27.418 100.242 27.1299C100.335 26.8418 100.381 26.5879 100.381 26.3682V25.5186C100.381 25.2402 100.352 24.9937 100.293 24.7788C100.24 24.564 100.161 24.3857 100.059 24.2441C99.9613 24.0977 99.8441 23.9878 99.7074 23.9146C99.5755 23.8413 99.4339 23.8047 99.2826 23.8047C99.0384 23.8047 98.8382 23.8438 98.682 23.9219C98.5306 24 98.411 24.1099 98.3231 24.2515C98.2352 24.3882 98.1742 24.5493 98.14 24.7349C98.1107 24.9204 98.0961 25.1206 98.0961 25.3354V27.3789H96.4701V25.3354C96.4701 25.1255 96.4554 24.9253 96.4261 24.7349C96.4017 24.5396 96.3529 24.3687 96.2796 24.2222C96.2064 24.0757 96.1039 23.9585 95.972 23.8706C95.8402 23.7827 95.6669 23.7388 95.452 23.7388C95.2567 23.7388 95.0931 23.7827 94.9613 23.8706C94.8343 23.9585 94.7318 24.0757 94.6537 24.2222C94.5755 24.3687 94.5194 24.5347 94.4852 24.7202C94.451 24.9058 94.4339 25.0962 94.4339 25.2915V27.3789H92.7933V25.2915C92.7933 25.1011 92.7836 24.9155 92.764 24.7349C92.7494 24.5542 92.7054 24.3955 92.6322 24.2588C92.5589 24.1221 92.4442 24.0122 92.2879 23.9292C92.1366 23.8462 91.9242 23.8047 91.6507 23.8047C91.4505 23.8047 91.2796 23.856 91.138 23.9585C90.9964 24.061 90.8793 24.2002 90.7865 24.376C90.6937 24.5518 90.6253 24.7593 90.5814 24.9985C90.5423 25.2329 90.5228 25.4844 90.5228 25.7529L90.5375 26.6904C90.5326 27.1689 90.6131 27.6206 90.7792 28.0454C90.9452 28.4702 91.1795 28.8608 91.4823 29.2173C91.7899 29.5688 92.1561 29.8862 92.5809 30.1694C93.0057 30.4478 93.4745 30.6846 93.9872 30.8799C94.5047 31.0752 95.0565 31.2241 95.6424 31.3267C96.2333 31.4292 96.8436 31.4805 97.4735 31.4805H98.8211V33.1797H97.5028C96.5702 33.1797 95.7084 33.0942 94.9173 32.9233C94.1312 32.7524 93.4183 32.5181 92.7787 32.2202C92.139 31.9175 91.5751 31.561 91.0868 31.1509C90.6034 30.7407 90.1957 30.2964 89.8636 29.8179C89.5316 29.3345 89.2777 28.8291 89.1019 28.3018C88.931 27.7695 88.8407 27.2349 88.8309 26.6978L88.8236 25.7163C88.8236 25.2231 88.8773 24.7642 88.9847 24.3394C89.097 23.9146 89.2679 23.5459 89.4974 23.2334C89.7269 22.9209 90.0199 22.6768 90.3763 22.501C90.7328 22.3203 91.1576 22.23 91.6507 22.23C91.8656 22.23 92.0658 22.2544 92.2513 22.3032C92.4369 22.3472 92.6102 22.4204 92.7713 22.5229C92.9325 22.6206 93.0838 22.7451 93.2254 22.8965C93.3719 23.043 93.5135 23.2188 93.6502 23.4238C93.8651 23.0234 94.1166 22.7134 94.4046 22.4937C94.6927 22.2739 95.0419 22.1641 95.452 22.1641C95.8475 22.1641 96.1942 22.2739 96.492 22.4937C96.7948 22.7085 97.0633 23.0137 97.2977 23.4092C97.5809 23.0186 97.891 22.7256 98.2279 22.5303C98.5697 22.3301 98.9164 22.23 99.2679 22.23C99.6634 22.23 100.032 22.3008 100.374 22.4424C100.721 22.584 101.021 22.7915 101.275 23.0649C101.529 23.3384 101.729 23.6753 101.875 24.0757C102.022 24.4761 102.095 24.9351 102.095 25.4526V26.4341ZM112.246 26.5952C112.246 26.1851 112.234 25.8066 112.21 25.46C112.19 25.1084 112.137 24.8057 112.049 24.5518C111.966 24.2979 111.836 24.1001 111.661 23.9585C111.485 23.812 111.243 23.7388 110.935 23.7388C110.052 23.7388 109.61 24.2856 109.61 25.3794V29.7227H107.918V25.3794C107.918 24.8032 107.808 24.3857 107.588 24.127C107.373 23.8682 107.036 23.7388 106.577 23.7388C106.294 23.7388 106.065 23.812 105.889 23.9585C105.718 24.1001 105.586 24.3003 105.494 24.5591C105.401 24.8179 105.34 25.1279 105.31 25.4893C105.281 25.8457 105.266 26.2363 105.266 26.6611V28.4409C105.266 28.8413 105.298 29.2393 105.362 29.6348C105.43 30.0303 105.537 30.3867 105.684 30.7041C105.83 31.0166 106.018 31.2705 106.248 31.4658C106.482 31.6611 106.768 31.7588 107.105 31.7588V33.3188C106.631 33.3188 106.216 33.2505 105.86 33.1138C105.503 32.9771 105.193 32.7915 104.93 32.5571C104.666 32.3179 104.446 32.0396 104.27 31.7222C104.095 31.4048 103.953 31.0679 103.846 30.7114C103.743 30.3501 103.67 29.979 103.626 29.5981C103.582 29.2124 103.56 28.8364 103.56 28.4702V26.6611C103.56 26.29 103.572 25.9214 103.597 25.5552C103.626 25.189 103.677 24.8398 103.75 24.5078C103.828 24.1758 103.936 23.8682 104.073 23.585C104.214 23.2969 104.397 23.0479 104.622 22.8379C104.847 22.6279 105.12 22.4644 105.442 22.3472C105.765 22.2251 106.148 22.1641 106.592 22.1641C106.846 22.1641 107.078 22.2007 107.288 22.2739C107.498 22.3423 107.688 22.4375 107.859 22.5596C108.035 22.6768 108.191 22.8135 108.328 22.9697C108.47 23.126 108.597 23.2896 108.709 23.4604C108.821 23.2993 108.951 23.1406 109.097 22.9844C109.244 22.8281 109.407 22.6914 109.588 22.5742C109.773 22.4521 109.978 22.3545 110.203 22.2812C110.428 22.2031 110.672 22.1641 110.935 22.1641C111.36 22.1641 111.729 22.2227 112.041 22.3398C112.359 22.457 112.63 22.6182 112.854 22.8232C113.079 23.0283 113.262 23.2725 113.404 23.5557C113.55 23.834 113.665 24.1367 113.748 24.4639C113.831 24.7861 113.887 25.1255 113.916 25.4819C113.951 25.8384 113.968 26.1948 113.968 26.5513L113.96 28.4702C113.96 28.8218 113.936 29.1855 113.887 29.5615C113.838 29.9326 113.758 30.2988 113.645 30.6602C113.533 31.0166 113.387 31.356 113.206 31.6782C113.025 32.0005 112.803 32.2837 112.539 32.5278C112.281 32.772 111.978 32.9648 111.631 33.1064C111.285 33.248 110.887 33.3188 110.437 33.3188V31.7588C110.745 31.7588 111.011 31.6636 111.236 31.4731C111.46 31.2778 111.648 31.0239 111.8 30.7114C111.951 30.394 112.063 30.0352 112.137 29.6348C112.21 29.2295 112.246 28.8193 112.246 28.4043V26.5952ZM121.98 29.8618C121.98 30.3599 121.902 30.8213 121.746 31.2461C121.59 31.666 121.37 32.0298 121.087 32.3374C120.808 32.645 120.474 32.8867 120.083 33.0625C119.698 33.2334 119.275 33.3188 118.816 33.3188C118.352 33.3188 117.928 33.248 117.542 33.1064C117.156 32.9648 116.824 32.7476 116.546 32.4546C116.267 32.1616 116.05 31.793 115.894 31.3486C115.738 30.9043 115.66 30.3818 115.66 29.7812V22.1641H117.351V29.7812C117.351 30.1426 117.388 30.4502 117.461 30.7041C117.535 30.9531 117.635 31.1558 117.762 31.312C117.893 31.4683 118.047 31.583 118.223 31.6562C118.404 31.7246 118.601 31.7588 118.816 31.7588C119.06 31.7588 119.273 31.7124 119.453 31.6196C119.639 31.522 119.793 31.3853 119.915 31.2095C120.042 31.0337 120.135 30.8237 120.193 30.5796C120.257 30.3354 120.288 30.0645 120.288 29.7666V29.3711C120.288 29.0488 120.232 28.7437 120.12 28.4556C120.013 28.1626 119.859 27.8916 119.659 27.6426C119.556 27.5107 119.456 27.3789 119.358 27.2471C119.265 27.1152 119.182 26.9834 119.109 26.8516C119.036 26.7148 118.975 26.5781 118.926 26.4414C118.882 26.2998 118.86 26.1558 118.86 26.0093C118.86 25.897 118.868 25.7822 118.882 25.665C118.902 25.5479 118.931 25.4282 118.97 25.3062C119.014 25.1792 119.073 25.0449 119.146 24.9033C119.219 24.7617 119.312 24.6079 119.424 24.4419L121.182 24.9326C121.138 24.9863 121.092 25.0425 121.043 25.1011C120.999 25.1548 120.957 25.2061 120.918 25.2549C120.879 25.3037 120.843 25.3477 120.808 25.3867C120.779 25.4209 120.762 25.4453 120.757 25.46C120.674 25.5723 120.611 25.6675 120.567 25.7456C120.523 25.8237 120.501 25.9116 120.501 26.0093C120.501 26.1655 120.564 26.334 120.691 26.5146C120.823 26.6953 120.974 26.8833 121.145 27.0786H121.138C121.392 27.3667 121.595 27.6841 121.746 28.0308C121.902 28.3726 121.98 28.7754 121.98 29.2393V29.8618ZM128.155 28.5142C128.155 28.2749 128.123 28.0552 128.059 27.855C128.001 27.6499 127.911 27.4741 127.788 27.3276C127.666 27.1763 127.513 27.0591 127.327 26.9761C127.146 26.8931 126.936 26.8516 126.697 26.8516C126.565 26.8516 126.414 26.8613 126.243 26.8809C126.077 26.9004 125.916 26.9639 125.76 27.0713C125.608 27.1738 125.479 27.3398 125.371 27.5693C125.269 27.7939 125.218 28.1113 125.218 28.5215V30.1401C125.218 30.3599 125.247 30.5698 125.306 30.77C125.364 30.9653 125.452 31.1362 125.569 31.2827C125.691 31.4292 125.845 31.5464 126.031 31.6343C126.216 31.7173 126.433 31.7588 126.682 31.7588C127.176 31.7588 127.544 31.6147 127.788 31.3267C128.033 31.0337 128.155 30.6113 128.155 30.0596V28.5142ZM129.847 30.1548C129.847 30.6382 129.778 31.0752 129.641 31.4658C129.505 31.8564 129.302 32.1885 129.034 32.4619C128.765 32.7354 128.435 32.9478 128.045 33.0991C127.654 33.2456 127.205 33.3188 126.697 33.3188C126.233 33.3188 125.808 33.2456 125.423 33.0991C125.037 32.9526 124.702 32.7427 124.419 32.4692C124.136 32.1909 123.916 31.8564 123.76 31.4658C123.604 31.0752 123.526 30.6333 123.526 30.1401V24.4932C123.526 24.1123 123.577 23.7852 123.68 23.5117C123.787 23.2334 123.931 23.0039 124.112 22.8232C124.297 22.6426 124.512 22.5083 124.756 22.4204C125 22.3325 125.262 22.2886 125.54 22.2886C125.769 22.2886 125.984 22.3081 126.184 22.3472C126.39 22.3862 126.59 22.4277 126.785 22.4717H126.778C126.949 22.5107 127.112 22.5449 127.268 22.5742C127.425 22.6035 127.569 22.6182 127.701 22.6182C127.94 22.6182 128.208 22.562 128.506 22.4497C128.804 22.3374 129.185 22.1763 129.649 21.9663V23.4531C129.449 23.5752 129.261 23.6802 129.085 23.7681C128.909 23.8511 128.738 23.9194 128.572 23.9731C128.411 24.0269 128.252 24.0659 128.096 24.0903C127.94 24.1147 127.781 24.127 127.62 24.127C127.425 24.127 127.242 24.1123 127.071 24.083C126.905 24.0537 126.741 24.0195 126.58 23.9805C126.438 23.9512 126.297 23.9243 126.155 23.8999C126.014 23.8706 125.872 23.856 125.73 23.856C125.515 23.8511 125.359 23.9146 125.262 24.0464C125.169 24.1733 125.122 24.3345 125.122 24.5298V25.8335C125.386 25.6235 125.652 25.4819 125.921 25.4087C126.189 25.3354 126.443 25.2988 126.682 25.2988C127.19 25.2988 127.64 25.3892 128.03 25.5698C128.426 25.7456 128.758 25.98 129.026 26.2729C129.295 26.5659 129.497 26.9028 129.634 27.2837C129.776 27.6646 129.847 28.0601 129.847 28.4702V30.1548ZM140.005 26.5952C140.005 26.1851 139.993 25.8066 139.969 25.46C139.949 25.1084 139.895 24.8057 139.807 24.5518C139.724 24.2979 139.595 24.1001 139.419 23.9585C139.244 23.812 139.002 23.7388 138.694 23.7388C137.81 23.7388 137.369 24.2856 137.369 25.3794V29.7227H135.677V25.3794C135.677 24.8032 135.567 24.3857 135.347 24.127C135.132 23.8682 134.795 23.7388 134.336 23.7388C134.053 23.7388 133.824 23.812 133.648 23.9585C133.477 24.1001 133.345 24.3003 133.252 24.5591C133.16 24.8179 133.098 25.1279 133.069 25.4893C133.04 25.8457 133.025 26.2363 133.025 26.6611V28.4409C133.025 28.8413 133.057 29.2393 133.12 29.6348C133.189 30.0303 133.296 30.3867 133.443 30.7041C133.589 31.0166 133.777 31.2705 134.007 31.4658C134.241 31.6611 134.527 31.7588 134.864 31.7588V33.3188C134.39 33.3188 133.975 33.2505 133.619 33.1138C133.262 32.9771 132.952 32.7915 132.688 32.5571C132.425 32.3179 132.205 32.0396 132.029 31.7222C131.853 31.4048 131.712 31.0679 131.604 30.7114C131.502 30.3501 131.429 29.979 131.385 29.5981C131.341 29.2124 131.319 28.8364 131.319 28.4702V26.6611C131.319 26.29 131.331 25.9214 131.355 25.5552C131.385 25.189 131.436 24.8398 131.509 24.5078C131.587 24.1758 131.695 23.8682 131.831 23.585C131.973 23.2969 132.156 23.0479 132.381 22.8379C132.605 22.6279 132.879 22.4644 133.201 22.3472C133.523 22.2251 133.907 22.1641 134.351 22.1641C134.605 22.1641 134.837 22.2007 135.047 22.2739C135.257 22.3423 135.447 22.4375 135.618 22.5596C135.794 22.6768 135.95 22.8135 136.087 22.9697C136.228 23.126 136.355 23.2896 136.468 23.4604C136.58 23.2993 136.709 23.1406 136.856 22.9844C137.002 22.8281 137.166 22.6914 137.347 22.5742C137.532 22.4521 137.737 22.3545 137.962 22.2812C138.186 22.2031 138.431 22.1641 138.694 22.1641C139.119 22.1641 139.488 22.2227 139.8 22.3398C140.118 22.457 140.389 22.6182 140.613 22.8232C140.838 23.0283 141.021 23.2725 141.162 23.5557C141.309 23.834 141.424 24.1367 141.507 24.4639C141.59 24.7861 141.646 25.1255 141.675 25.4819C141.709 25.8384 141.726 26.1948 141.726 26.5513L141.719 28.4702C141.719 28.8218 141.695 29.1855 141.646 29.5615C141.597 29.9326 141.516 30.2988 141.404 30.6602C141.292 31.0166 141.145 31.356 140.965 31.6782C140.784 32.0005 140.562 32.2837 140.298 32.5278C140.039 32.772 139.737 32.9648 139.39 33.1064C139.043 33.248 138.645 33.3188 138.196 33.3188V31.7588C138.504 31.7588 138.77 31.6636 138.994 31.4731C139.219 31.2778 139.407 31.0239 139.558 30.7114C139.71 30.394 139.822 30.0352 139.895 29.6348C139.969 29.2295 140.005 28.8193 140.005 28.4043V26.5952Z" fill="#FDC234"/>
<path d="M41.8917 31.3368L38.2725 29.7881C38.3979 29.845 38.4466 29.9193 38.446 30.0806C38.4388 32.4368 38.4436 34.7931 38.437 37.1493C38.4364 37.3543 38.4904 37.405 38.6837 37.4025C39.67 37.3918 40.6568 37.3925 41.6425 37.4025C41.8274 37.405 41.8634 37.3468 41.8628 37.1662C41.8562 35.2956 41.8586 33.4243 41.8586 31.5537C41.8586 31.4168 41.8586 31.3531 41.8917 31.3368ZM39.5727 19.635L40.3891 17.44C39.2143 17.7031 38.0222 17.8356 36.8282 17.9525C35.7002 18.0625 34.5705 18.1375 33.4383 18.1818C33.203 18.1912 32.9671 18.195 32.7312 18.2006C31.1854 18.2725 29.6385 18.2668 28.0921 18.2256C27.903 18.2206 27.7145 18.2093 27.526 18.2012C26.58 18.1868 25.6363 18.1343 24.6933 18.0625C23.7574 17.9912 22.8221 17.9087 21.8911 17.7837C21.202 17.6912 20.5116 17.6031 19.8357 17.4306L20.6869 19.6362C20.6587 19.5 20.6833 19.4831 20.8076 19.5012C21.7164 19.6343 22.6301 19.7287 23.5437 19.82C24.7203 19.9375 25.9004 20.0043 27.0806 20.0512C29.106 20.1318 31.1326 20.1343 33.158 20.0512C34.723 19.9875 36.2867 19.8925 37.8433 19.6993C38.3793 19.6325 38.916 19.5725 39.4515 19.5006C39.5751 19.4837 39.6045 19.4993 39.5727 19.635ZM33.679 7.77308C33.6784 7.92183 33.6862 8.06871 33.7295 8.21058C33.8729 8.67558 34.337 8.79433 34.6737 8.45308C34.834 8.29121 34.9181 8.08683 34.9763 7.86683C35.1342 7.27183 35.2986 6.67808 35.4517 6.08183C35.4817 5.96496 35.4997 5.91996 35.597 5.98371L33.6274 4.51996C33.6652 4.72183 33.6832 4.93433 33.6808 5.15746C33.673 6.02933 33.6802 6.90121 33.679 7.77308ZM25.3194 7.98308C25.3842 8.21746 25.4971 8.42433 25.7078 8.55246C26.0187 8.74183 26.3291 8.64371 26.4839 8.30746C26.5188 8.23246 26.5386 8.15058 26.565 8.07121C26.568 7.02808 26.5704 5.98433 26.574 4.94121C26.5746 4.80183 26.5602 4.66058 26.6202 4.52871L24.7365 5.93058C24.8079 6.01058 24.8109 6.11183 24.8355 6.19996C24.9988 6.79371 25.1549 7.38933 25.3194 7.98308ZM18.4022 31.5131C18.3986 33.3912 18.4034 35.2693 18.3956 37.1468C18.3944 37.3487 18.44 37.4056 18.6381 37.4031C19.6178 37.3918 20.5975 37.39 21.5765 37.4043C21.7944 37.4075 21.8269 37.3331 21.8263 37.1318C21.8197 34.7893 21.8245 32.4475 21.8179 30.1056C21.8173 29.9356 21.8575 29.8462 21.9997 29.7806L18.2401 31.3606C18.3944 31.3012 18.4028 31.3668 18.4022 31.5131Z" fill="#24282D"/>
<path d="M30.1235 46.7093C28.1498 46.7199 26.1826 46.5931 24.2172 46.4087C22.3948 46.2374 20.5771 46.0256 18.7654 45.7606C16.2928 45.3993 13.8238 45.0149 11.3836 44.4587C10.539 44.2662 10.0233 43.6031 10.0011 42.7018C9.99091 42.2899 10.0509 41.8906 10.1764 41.5C10.8025 39.5506 11.4346 37.6024 12.0487 35.6487C12.4563 34.3512 13.2517 33.4424 14.4673 32.9343C15.7183 32.4112 16.9717 31.8949 18.2215 31.3681C18.395 31.2949 18.404 31.3599 18.4034 31.5124C18.3998 33.3906 18.4046 35.2681 18.3962 37.1462C18.3956 37.3481 18.4406 37.4043 18.6393 37.4024C19.619 37.3912 20.5987 37.3893 21.5778 37.4037C21.7951 37.4068 21.8275 37.3331 21.8275 37.1312C21.8209 34.7893 21.8257 32.4468 21.8191 30.1049C21.8185 29.9231 21.8647 29.8337 22.0322 29.7668C22.6679 29.5137 23.2994 29.2487 23.9261 28.9737C24.0858 28.9037 24.1914 28.9274 24.3241 29.0337C26.0265 30.3943 27.7326 31.7499 29.4392 33.1049C29.9284 33.4937 30.3264 33.4899 30.8193 33.0987C32.5313 31.7393 34.2439 30.3812 35.9518 29.0162C36.0778 28.9156 36.1757 28.9106 36.3149 28.9706C36.9567 29.2462 37.6008 29.5149 38.2473 29.7768C38.392 29.8356 38.4472 29.9087 38.4466 30.0812C38.4394 32.4374 38.4448 34.7937 38.4376 37.1499C38.437 37.3549 38.491 37.4056 38.6849 37.4031C39.6712 37.3924 40.6575 37.3924 41.6437 37.4031C41.8286 37.4049 41.8641 37.3468 41.8635 37.1668C41.8569 35.2962 41.8593 33.4249 41.8593 31.5543C41.8593 31.2981 41.8599 31.2974 42.0766 31.3874C43.2345 31.8687 44.3847 32.3724 45.5523 32.8268C46.9437 33.3674 47.8232 34.3656 48.2722 35.8343C48.8623 37.7662 49.4992 39.6824 50.1115 41.6068C50.267 42.0949 50.3144 42.5993 50.2093 43.1043C50.0557 43.8418 49.5838 44.2862 48.9037 44.4487C47.2661 44.8406 45.6057 45.1124 43.9459 45.3849C42.6588 45.5962 41.3694 45.7843 40.077 45.9562C38.7509 46.1325 37.4213 46.2749 36.0904 46.4031C34.5363 46.5531 32.9803 46.6624 31.4202 46.7081C30.988 46.7199 30.5557 46.7093 30.1235 46.7093ZM30.1403 39.6431C27.6953 39.6431 25.251 39.6431 22.806 39.6431C21.4013 39.6431 19.9966 39.6431 18.5919 39.6431C18.4947 39.6431 18.3956 39.6106 18.3968 39.7899C18.404 41.1399 18.4016 42.4899 18.3986 43.8399C18.3986 43.9468 18.4304 43.9856 18.5343 43.9962C18.9509 44.0387 19.3663 44.0887 19.7817 44.1399C20.8814 44.2756 21.9854 44.3674 23.0893 44.4512C24.2947 44.5424 25.5013 44.6181 26.7085 44.6818C28.3004 44.7656 29.893 44.8181 31.4874 44.7656C33.7283 44.6918 35.9662 44.5643 38.1999 44.3656C39.3566 44.2624 40.5122 44.1481 41.6654 44.0068C41.8376 43.9856 41.8641 43.9168 41.8635 43.7568C41.8575 42.4631 41.8551 41.1693 41.8653 39.8756C41.8671 39.6743 41.8064 39.6387 41.6293 39.6393C37.7989 39.6443 33.9696 39.6431 30.1403 39.6431Z" fill="#FDC234"/>
<path d="M27.526 18.2006C26.5806 18.1868 25.6363 18.1337 24.6938 18.0618C23.758 17.9906 22.8227 17.9081 21.8917 17.7831C21.2025 17.6906 20.5116 17.6024 19.8363 17.4299C19.1003 17.2418 18.7029 16.7162 18.545 15.9681C18.3343 14.9681 18.6813 14.0918 19.4833 13.6174C19.7816 13.4406 20.1088 13.3512 20.451 13.3499C20.6016 13.3493 20.6455 13.2924 20.6581 13.1462C20.8081 11.3612 21.4138 9.75056 22.4091 8.29743C23.0454 7.36806 23.8246 6.58618 24.7371 5.92993C24.8091 6.00993 24.8121 6.11118 24.8361 6.19931C24.9994 6.79306 25.1555 7.38868 25.3199 7.98181C25.3848 8.21618 25.4976 8.42306 25.7089 8.55118C26.0199 8.74056 26.3302 8.64243 26.4851 8.30618C26.5199 8.23118 26.5397 8.14868 26.5661 8.06993C26.6436 8.01681 26.6232 7.93306 26.6232 7.85868C26.6238 6.74806 26.6226 5.63743 26.622 4.52681C26.6676 4.10868 26.8495 3.74931 27.0914 3.42493C27.6287 2.70368 28.3562 2.30306 29.1996 2.11368C30.387 1.84681 31.4994 2.04368 32.4988 2.76931C33.2864 3.34118 33.6916 4.13993 33.6826 5.15556C33.6748 6.02743 33.682 6.89931 33.6802 7.77118C33.6802 7.91993 33.6874 8.06681 33.7312 8.20868C33.8741 8.67368 34.3381 8.79243 34.6755 8.45118C34.8352 8.28931 34.9198 8.08493 34.9781 7.86493C35.1359 7.26993 35.2998 6.67618 35.4535 6.07993C35.4859 5.95306 35.5051 5.91118 35.6282 6.00306C37.4218 7.34806 38.6314 9.12431 39.2653 11.3262C39.4364 11.9193 39.5517 12.5262 39.5961 13.1443C39.6081 13.3156 39.6825 13.3424 39.8254 13.3481C40.7018 13.3818 41.4 13.9124 41.6671 14.7393C41.6881 14.8049 41.6947 14.8756 41.7079 14.9437C41.7061 15.2824 41.7049 15.6212 41.7031 15.9599C41.6257 16.6631 41.0806 17.2831 40.3903 17.4381C39.2161 17.7018 38.0239 17.8343 36.8294 17.9506C35.7014 18.0606 34.5717 18.1356 33.4395 18.1806C33.2042 18.1899 32.9683 18.1931 32.7324 18.1993C30.9963 18.2006 29.2615 18.2006 27.526 18.2006Z" fill="#FEC234"/>
<path d="M29.9314 27.673C25.9029 27.6324 22.3053 24.903 20.9757 20.7537C20.858 20.3874 20.7668 20.0137 20.6875 19.6362C20.6587 19.4999 20.6833 19.483 20.8076 19.5012C21.7164 19.6343 22.6301 19.7287 23.5437 19.8199C24.7203 19.9374 25.9005 20.0043 27.0806 20.0512C29.106 20.1318 31.1326 20.1343 33.1574 20.0512C34.7224 19.9874 36.2861 19.8924 37.8427 19.6987C38.3787 19.6318 38.9154 19.5718 39.4509 19.4999C39.5745 19.483 39.6039 19.4987 39.5721 19.6343C38.6837 23.4368 36.4932 26.0024 32.9077 27.2387C31.9976 27.553 31.0546 27.6755 29.9314 27.673Z" fill="#FDC234"/>
<path d="M27.5261 18.2006C29.2616 18.2006 30.9964 18.2006 32.7319 18.2006C31.1855 18.2718 29.6392 18.2668 28.0922 18.2256C27.9037 18.2206 27.7146 18.2093 27.5261 18.2006Z" fill="#FDC234"/>
<path d="M26.6213 4.52869C26.6219 5.63931 26.6231 6.74994 26.6225 7.86056C26.6225 7.93494 26.6431 8.01869 26.5649 8.07181C26.568 7.02806 26.5704 5.98494 26.574 4.94119C26.5752 4.80181 26.5607 4.66056 26.6213 4.52869Z" fill="#FDC234"/>
<path d="M41.702 15.9612C41.7038 15.6224 41.7051 15.2837 41.7069 14.9449C41.8008 15.2843 41.7911 15.6231 41.702 15.9612Z" fill="#FDC234"/>
<path d="M30.1404 39.643C33.9696 39.643 37.7989 39.6443 41.6282 39.6393C41.8053 39.6393 41.8653 39.6749 41.8641 39.8755C41.8545 41.1693 41.8563 42.463 41.8623 43.7568C41.8629 43.9174 41.8365 43.9855 41.6642 44.0068C40.511 44.1487 39.3555 44.263 38.1987 44.3655C35.965 44.5643 33.7271 44.6918 31.4862 44.7655C29.8919 44.818 28.2993 44.7655 26.7073 44.6818C25.5001 44.618 24.2935 44.5424 23.0881 44.4512C21.9842 44.3674 20.8803 44.2755 19.7805 44.1399C19.3651 44.0887 18.9491 44.0387 18.5331 43.9962C18.4299 43.9855 18.3974 43.9468 18.3974 43.8399C18.4004 42.4899 18.4022 41.1399 18.3956 39.7899C18.3944 39.6099 18.4935 39.643 18.5907 39.643C19.9954 39.6424 21.4001 39.643 22.8048 39.643C25.2504 39.643 27.6954 39.643 30.1404 39.643Z" fill="#24282D"/>
</svg>
