<svg width="151" height="48" viewBox="0 0 151 48" fill="none" xmlns="http://www.w3.org/2000/svg">
<path d="M55.121 32.2236V21.7061H56.4979L59.8304 27.1553C60.1722 26.5986 60.514 26.042 60.8558 25.4854C61.1976 24.9287 61.5419 24.3672 61.8885 23.8008C62.0985 23.459 62.3109 23.1099 62.5257 22.7534C62.7455 22.3921 62.9579 22.043 63.1629 21.7061H64.5252V32.2236H63.1117V24.4819C62.8089 24.9751 62.5013 25.4731 62.1888 25.9761C61.8763 26.4741 61.5663 26.9746 61.2586 27.4775C61.1463 27.6582 61.0267 27.8511 60.8998 28.0562C60.7777 28.2563 60.6532 28.459 60.5262 28.6641C60.4042 28.8643 60.2821 29.0645 60.16 29.2646C60.0379 29.46 59.9232 29.6455 59.8158 29.8213L56.5565 24.4819V32.2236H55.121ZM69.037 28.0635H72.2962C72.1644 27.7119 72.035 27.375 71.9081 27.0527C71.786 26.7305 71.6615 26.4082 71.5345 26.0859C71.4515 25.8711 71.3758 25.6758 71.3075 25.5C71.2391 25.3242 71.1708 25.1484 71.1024 24.9727C71.0389 24.7969 70.9706 24.6138 70.8973 24.4233C70.8241 24.2329 70.7411 24.0181 70.6483 23.7788L69.037 28.0635ZM65.9901 32.2236L69.9745 21.7061H71.3148L75.2845 32.2236H73.8343L72.787 29.4697H68.5096C68.3387 29.9141 68.1605 30.3779 67.975 30.8613C67.7943 31.3398 67.621 31.7939 67.4549 32.2236H65.9901ZM79.7596 32.2236C79.3592 32.2236 78.9881 32.1846 78.6463 32.1064C78.3045 32.0234 78.0189 31.8818 77.7894 31.6816C77.5892 31.5107 77.4012 31.3154 77.2254 31.0957C77.0545 30.8711 76.8763 30.6099 76.6908 30.312L77.8114 29.3672C77.9725 29.6455 78.1361 29.8896 78.3021 30.0996C78.473 30.3047 78.6195 30.4512 78.7416 30.5391H78.7342C78.8758 30.6367 79.0296 30.7026 79.1957 30.7368C79.3617 30.771 79.5497 30.7881 79.7596 30.7881C79.994 30.7881 80.204 30.7637 80.3895 30.7148C80.5799 30.666 80.7484 30.583 80.8949 30.4658C81.0267 30.3633 81.1293 30.2119 81.2025 30.0117C81.2806 29.8066 81.3197 29.5747 81.3197 29.3159C81.3197 29.0864 81.2757 28.8667 81.1878 28.6567C81.1048 28.4419 80.995 28.271 80.8583 28.144C80.7752 28.0659 80.6703 27.9829 80.5433 27.895C80.4164 27.8071 80.2723 27.7168 80.1112 27.624C79.9501 27.5312 79.7743 27.436 79.5838 27.3384C79.3983 27.2407 79.203 27.1455 78.9979 27.0527C78.6805 26.9111 78.3778 26.7598 78.0897 26.5986C77.8016 26.4326 77.5599 26.252 77.3646 26.0566C77.1791 25.8467 77.0301 25.6099 76.9178 25.3462C76.8104 25.0825 76.7567 24.7993 76.7567 24.4966C76.7567 24.0669 76.8275 23.6787 76.9691 23.332C77.1156 22.9805 77.3353 22.6826 77.6283 22.4385C77.9212 22.1992 78.246 22.0186 78.6024 21.8965C78.9588 21.7695 79.3446 21.7061 79.7596 21.7061C80.2967 21.7061 80.7948 21.8184 81.2538 22.043C81.7176 22.2676 82.1449 22.6289 82.5355 23.127L81.4442 23.9912C81.1952 23.7129 80.9291 23.498 80.6459 23.3467C80.3675 23.1904 80.0721 23.1123 79.7596 23.1123C79.5497 23.1123 79.3544 23.144 79.1737 23.2075C78.993 23.271 78.8148 23.3638 78.639 23.4858C78.3412 23.6812 78.1922 23.9766 78.1922 24.3721C78.1922 24.5186 78.2313 24.665 78.3094 24.8115C78.3876 24.958 78.4925 25.0996 78.6244 25.2363C78.7611 25.373 78.9198 25.5 79.1004 25.6172C79.2811 25.7344 79.474 25.8394 79.6791 25.9321C80.1966 26.1665 80.6532 26.4033 81.0487 26.6426C81.4491 26.8818 81.764 27.1235 81.9935 27.3677C82.2328 27.6265 82.4183 27.9121 82.5502 28.2246C82.682 28.5371 82.7479 28.8789 82.7479 29.25C82.7479 30.1973 82.4964 30.9297 81.9935 31.4473C81.4906 31.9648 80.746 32.2236 79.7596 32.2236ZM84.3446 23.1123V21.7061H92.6429V23.1123H89.2152V32.2236H87.787V23.1123H84.3446ZM94.2323 32.2236V21.7061H100.692V23.1123H95.6678V26.2544H99.0882V27.6606H95.6678V30.7881H100.692V32.2236H94.2323ZM103.724 26.2544H105.27C105.485 26.2544 105.68 26.2251 105.856 26.1665C106.032 26.103 106.185 26.0078 106.317 25.8809C106.454 25.7441 106.556 25.5781 106.625 25.3828C106.693 25.1826 106.727 24.9434 106.727 24.665C106.727 24.4111 106.696 24.1865 106.632 23.9912C106.569 23.791 106.469 23.625 106.332 23.4932C106.19 23.3613 106.027 23.2661 105.841 23.2075C105.656 23.144 105.438 23.1123 105.189 23.1123H103.724V26.2544ZM105.189 21.7061C105.717 21.7061 106.163 21.772 106.53 21.9038C106.901 22.0356 107.216 22.2456 107.474 22.5337C107.723 22.812 107.902 23.1294 108.009 23.4858C108.121 23.8423 108.178 24.2354 108.178 24.665C108.178 24.9727 108.153 25.2437 108.104 25.478C108.06 25.7124 107.985 25.9248 107.877 26.1152C107.775 26.3057 107.636 26.4839 107.46 26.6499C107.284 26.811 107.064 26.9746 106.801 27.1406C106.908 27.2578 107.008 27.3994 107.101 27.5654C107.194 27.7314 107.279 27.9146 107.357 28.1147C107.435 28.3149 107.509 28.5249 107.577 28.7446C107.645 28.9644 107.706 29.1841 107.76 29.4038C107.833 29.687 107.919 29.9629 108.016 30.2314C108.114 30.4951 108.217 30.7466 108.324 30.9858C108.436 31.2251 108.551 31.4497 108.668 31.6597C108.786 31.8696 108.9 32.0576 109.013 32.2236H107.496C107.409 32.1455 107.323 32.0332 107.24 31.8867C107.157 31.7354 107.074 31.562 106.991 31.3667C106.913 31.1665 106.835 30.9468 106.757 30.7075C106.683 30.4634 106.61 30.2119 106.537 29.9531C106.454 29.6455 106.366 29.3525 106.273 29.0742C106.185 28.7959 106.093 28.5542 105.995 28.3491C105.897 28.1392 105.792 27.9731 105.68 27.8511C105.573 27.7241 105.458 27.6606 105.336 27.6606H103.724V32.2236H102.289V21.7061H105.189ZM114.476 32.2236C113.856 32.2236 113.287 32.0942 112.77 31.8354C112.257 31.5718 111.82 31.208 111.459 30.7441C111.093 30.2705 110.817 29.7163 110.631 29.0815C110.451 28.4419 110.36 27.7388 110.36 26.9722C110.36 25.5073 110.726 24.272 111.459 23.2661C111.835 22.7485 112.262 22.3604 112.741 22.1016C113.224 21.8379 113.766 21.7061 114.367 21.7061C114.855 21.7061 115.289 21.7622 115.67 21.8745C116.056 21.9819 116.395 22.1357 116.688 22.3359C116.967 22.5264 117.218 22.7559 117.443 23.0244C117.672 23.2881 117.885 23.6128 118.08 23.9985L116.849 24.6211C116.556 24.1084 116.217 23.73 115.831 23.4858C115.446 23.2368 114.994 23.1123 114.476 23.1123C114.076 23.1123 113.712 23.2124 113.385 23.4126C113.063 23.6128 112.785 23.896 112.55 24.2622C112.291 24.6577 112.101 25.0801 111.979 25.5293C111.857 25.9785 111.796 26.4595 111.796 26.9722C111.796 27.4556 111.859 27.9268 111.986 28.3857C112.113 28.8398 112.301 29.2622 112.55 29.6528C112.785 30.0239 113.063 30.3071 113.385 30.5024C113.712 30.6929 114.076 30.7881 114.476 30.7881C114.779 30.7881 115.045 30.771 115.275 30.7368C115.509 30.7026 115.722 30.6392 115.912 30.5464C116.063 30.478 116.215 30.3535 116.366 30.1729C116.517 29.9922 116.679 29.7456 116.849 29.4331L118.08 29.9238C117.885 30.3291 117.677 30.6782 117.457 30.9712C117.238 31.2642 117.008 31.501 116.769 31.6816C116.51 31.8672 116.19 32.0039 115.809 32.0918C115.433 32.1797 114.989 32.2236 114.476 32.2236ZM119.589 32.2236V21.7061H121.024V30.7881H126.049V32.2236H119.589ZM127.645 21.7061H129.081V28.6714C129.081 28.9888 129.13 29.2842 129.227 29.5576C129.33 29.8311 129.474 30.063 129.66 30.2534C129.835 30.4438 130.057 30.5806 130.326 30.6636C130.599 30.7466 130.897 30.7881 131.22 30.7881C131.527 30.7881 131.813 30.7417 132.077 30.6489C132.34 30.5562 132.565 30.4219 132.75 30.2461C132.951 30.0557 133.097 29.8237 133.19 29.5503C133.283 29.2769 133.329 28.9839 133.329 28.6714V21.7061H134.765V28.6714C134.765 29.2036 134.677 29.6748 134.501 30.085C134.33 30.4951 134.069 30.8735 133.717 31.2202C133.375 31.5571 132.999 31.8086 132.589 31.9746C132.179 32.1406 131.723 32.2236 131.22 32.2236C130.189 32.2236 129.335 31.8892 128.656 31.2202C128.305 30.8833 128.048 30.5073 127.887 30.0923C127.726 29.6772 127.645 29.2036 127.645 28.6714V21.7061ZM137.797 25.7783H139.262C139.735 25.7783 140.116 25.6514 140.404 25.3975C140.668 25.168 140.8 24.8579 140.8 24.4673C140.8 24.2866 140.765 24.1157 140.697 23.9546C140.634 23.7886 140.531 23.6396 140.39 23.5078C140.258 23.3809 140.099 23.2832 139.913 23.2148C139.728 23.1465 139.511 23.1123 139.262 23.1123H137.797V25.7783ZM137.797 30.7881H139.342C139.552 30.7881 139.747 30.7637 139.928 30.7148C140.109 30.666 140.263 30.5781 140.39 30.4512C140.526 30.3242 140.629 30.1387 140.697 29.8945C140.765 29.6455 140.8 29.3525 140.8 29.0156C140.8 28.6885 140.765 28.4102 140.697 28.1807C140.634 27.9463 140.531 27.7632 140.39 27.6313C140.243 27.4849 140.075 27.3799 139.884 27.3164C139.699 27.248 139.491 27.2139 139.262 27.2139H137.797V30.7881ZM139.262 21.7061C139.794 21.7061 140.243 21.772 140.609 21.9038C140.98 22.0356 141.288 22.2456 141.532 22.5337C141.766 22.812 141.945 23.1294 142.067 23.4858C142.189 23.8374 142.25 24.2305 142.25 24.665C142.25 24.8604 142.218 25.0459 142.155 25.2217C142.096 25.3975 142.013 25.5635 141.906 25.7197C141.803 25.876 141.681 26.0225 141.539 26.1592C141.403 26.2959 141.256 26.418 141.1 26.5254C141.251 26.6426 141.395 26.7793 141.532 26.9355C141.674 27.0918 141.798 27.2651 141.906 27.4556C142.013 27.646 142.096 27.8535 142.155 28.0781C142.218 28.3027 142.25 28.5396 142.25 28.7886C142.25 29.9702 142.008 30.8394 141.525 31.396C141.046 31.9478 140.292 32.2236 139.262 32.2236H136.361V21.7061H139.262Z" fill="#FDC234"/>
<path d="M41.8917 31.3368L38.2725 29.7881C38.398 29.845 38.4466 29.9193 38.446 30.0806C38.4388 32.4368 38.4436 34.7931 38.437 37.1493C38.4364 37.3543 38.4904 37.405 38.6837 37.4025C39.67 37.3918 40.6569 37.3925 41.6426 37.4025C41.8275 37.405 41.8635 37.3468 41.8629 37.1662C41.8563 35.2956 41.8587 33.4243 41.8587 31.5537C41.8587 31.4168 41.8587 31.3531 41.8917 31.3368ZM39.5728 19.635L40.3891 17.44C39.2144 17.7031 38.0222 17.8356 36.8282 17.9525C35.7003 18.0625 34.5705 18.1375 33.4384 18.1818C33.203 18.1912 32.9671 18.195 32.7312 18.2006C31.1855 18.2725 29.6385 18.2668 28.0922 18.2256C27.9031 18.2206 27.7146 18.2093 27.5261 18.2012C26.58 18.1868 25.6364 18.1343 24.6933 18.0625C23.7574 17.9912 22.8222 17.9087 21.8911 17.7837C21.202 17.6912 20.5117 17.6031 19.8357 17.4306L20.6869 19.6362C20.6587 19.5 20.6833 19.4831 20.8076 19.5012C21.7164 19.6343 22.6301 19.7287 23.5437 19.82C24.7203 19.9375 25.9005 20.0043 27.0807 20.0512C29.106 20.1318 31.1326 20.1343 33.158 20.0512C34.723 19.9875 36.2867 19.8925 37.8433 19.6993C38.3794 19.6325 38.916 19.5725 39.4515 19.5006C39.5752 19.4837 39.6046 19.4993 39.5728 19.635ZM33.6791 7.77308C33.6785 7.92183 33.6863 8.06871 33.7295 8.21058C33.873 8.67558 34.337 8.79433 34.6738 8.45308C34.834 8.29121 34.9181 8.08683 34.9763 7.86683C35.1342 7.27183 35.2987 6.67808 35.4517 6.08183C35.4818 5.96496 35.4998 5.91996 35.597 5.98371L33.6274 4.51996C33.6653 4.72183 33.6833 4.93433 33.6809 5.15746C33.6731 6.02933 33.6803 6.90121 33.6791 7.77308ZM25.3194 7.98308C25.3842 8.21746 25.4971 8.42433 25.7078 8.55246C26.0187 8.74183 26.3291 8.64371 26.484 8.30746C26.5188 8.23246 26.5386 8.15058 26.565 8.07121C26.568 7.02808 26.5704 5.98433 26.574 4.94121C26.5746 4.80183 26.5602 4.66058 26.6202 4.52871L24.7365 5.93058C24.8079 6.01058 24.811 6.11183 24.8356 6.19996C24.9988 6.79371 25.1549 7.38933 25.3194 7.98308ZM18.4022 31.5131C18.3986 33.3912 18.4034 35.2693 18.3956 37.1468C18.3944 37.3487 18.44 37.4056 18.6381 37.4031C19.6178 37.3918 20.5975 37.39 21.5766 37.4043C21.7945 37.4075 21.8269 37.3331 21.8263 37.1318C21.8197 34.7893 21.8245 32.4475 21.8179 30.1056C21.8173 29.9356 21.8575 29.8462 21.9998 29.7806L18.2401 31.3606C18.3944 31.3012 18.4028 31.3668 18.4022 31.5131Z" fill="#24282D"/>
<path d="M30.1235 46.7093C28.1498 46.7199 26.1826 46.5931 24.2172 46.4087C22.3948 46.2374 20.5771 46.0256 18.7654 45.7606C16.2928 45.3993 13.8238 45.0149 11.3836 44.4587C10.539 44.2662 10.0233 43.6031 10.0011 42.7018C9.99091 42.2899 10.0509 41.8906 10.1764 41.5C10.8025 39.5506 11.4346 37.6024 12.0487 35.6487C12.4563 34.3512 13.2517 33.4424 14.4673 32.9343C15.7183 32.4112 16.9717 31.8949 18.2215 31.3681C18.395 31.2949 18.404 31.3599 18.4034 31.5124C18.3998 33.3906 18.4046 35.2681 18.3962 37.1462C18.3956 37.3481 18.4406 37.4043 18.6393 37.4024C19.619 37.3912 20.5987 37.3893 21.5778 37.4037C21.7951 37.4068 21.8275 37.3331 21.8275 37.1312C21.8209 34.7893 21.8257 32.4468 21.8191 30.1049C21.8185 29.9231 21.8647 29.8337 22.0322 29.7668C22.6679 29.5137 23.2994 29.2487 23.9261 28.9737C24.0858 28.9037 24.1914 28.9274 24.3241 29.0337C26.0265 30.3943 27.7326 31.7499 29.4392 33.1049C29.9284 33.4937 30.3264 33.4899 30.8193 33.0987C32.5313 31.7393 34.2439 30.3812 35.9518 29.0162C36.0778 28.9156 36.1757 28.9106 36.3149 28.9706C36.9567 29.2462 37.6008 29.5149 38.2473 29.7768C38.392 29.8356 38.4472 29.9087 38.4466 30.0812C38.4394 32.4374 38.4448 34.7937 38.4376 37.1499C38.437 37.3549 38.491 37.4056 38.6849 37.4031C39.6712 37.3924 40.6575 37.3924 41.6437 37.4031C41.8286 37.4049 41.8641 37.3468 41.8635 37.1668C41.8569 35.2962 41.8593 33.4249 41.8593 31.5543C41.8593 31.2981 41.8599 31.2974 42.0766 31.3874C43.2345 31.8687 44.3847 32.3724 45.5523 32.8268C46.9437 33.3674 47.8232 34.3656 48.2722 35.8343C48.8623 37.7662 49.4992 39.6824 50.1115 41.6068C50.267 42.0949 50.3144 42.5993 50.2093 43.1043C50.0557 43.8418 49.5838 44.2862 48.9037 44.4487C47.2661 44.8406 45.6057 45.1124 43.9459 45.3849C42.6588 45.5962 41.3694 45.7843 40.077 45.9562C38.7509 46.1325 37.4213 46.2749 36.0904 46.4031C34.5363 46.5531 32.9803 46.6624 31.4202 46.7081C30.988 46.7199 30.5557 46.7093 30.1235 46.7093ZM30.1403 39.6431C27.6953 39.6431 25.251 39.6431 22.806 39.6431C21.4013 39.6431 19.9966 39.6431 18.5919 39.6431C18.4947 39.6431 18.3956 39.6106 18.3968 39.7899C18.404 41.1399 18.4016 42.4899 18.3986 43.8399C18.3986 43.9468 18.4304 43.9856 18.5343 43.9962C18.9509 44.0387 19.3663 44.0887 19.7817 44.1399C20.8814 44.2756 21.9854 44.3674 23.0893 44.4512C24.2947 44.5424 25.5013 44.6181 26.7085 44.6818C28.3004 44.7656 29.893 44.8181 31.4874 44.7656C33.7283 44.6918 35.9662 44.5643 38.1999 44.3656C39.3566 44.2624 40.5122 44.1481 41.6654 44.0068C41.8376 43.9856 41.8641 43.9168 41.8635 43.7568C41.8575 42.4631 41.8551 41.1693 41.8653 39.8756C41.8671 39.6743 41.8064 39.6387 41.6293 39.6393C37.7989 39.6443 33.9696 39.6431 30.1403 39.6431Z" fill="#FDC234"/>
<path d="M27.526 18.2006C26.5806 18.1868 25.6363 18.1337 24.6939 18.0618C23.758 17.9906 22.8228 17.9081 21.8917 17.7831C21.2026 17.6906 20.5116 17.6024 19.8363 17.4299C19.1003 17.2418 18.7029 16.7162 18.5451 15.9681C18.3344 14.9681 18.6813 14.0918 19.4833 13.6174C19.7817 13.4406 20.1088 13.3512 20.451 13.3499C20.6017 13.3493 20.6455 13.2924 20.6581 13.1462C20.8082 11.3612 21.4139 9.75056 22.4092 8.29743C23.0455 7.36806 23.8246 6.58618 24.7371 5.92993C24.8091 6.00993 24.8121 6.11118 24.8361 6.19931C24.9994 6.79306 25.1555 7.38868 25.32 7.98181C25.3848 8.21618 25.4977 8.42306 25.709 8.55118C26.0199 8.74056 26.3303 8.64243 26.4851 8.30618C26.52 8.23118 26.5398 8.14868 26.5662 8.06993C26.6436 8.01681 26.6232 7.93306 26.6232 7.85868C26.6238 6.74806 26.6226 5.63743 26.622 4.52681C26.6676 4.10868 26.8495 3.74931 27.0914 3.42493C27.6287 2.70368 28.3563 2.30306 29.1997 2.11368C30.387 1.84681 31.4994 2.04368 32.4989 2.76931C33.2865 3.34118 33.6917 4.13993 33.6827 5.15556C33.6748 6.02743 33.682 6.89931 33.6802 7.77118C33.6802 7.91993 33.6875 8.06681 33.7313 8.20868C33.8741 8.67368 34.3382 8.79243 34.6755 8.45118C34.8352 8.28931 34.9199 8.08493 34.9781 7.86493C35.136 7.26993 35.2998 6.67618 35.4535 6.07993C35.4859 5.95306 35.5051 5.91118 35.6282 6.00306C37.4219 7.34806 38.6315 9.12431 39.2654 11.3262C39.4365 11.9193 39.5517 12.5262 39.5961 13.1443C39.6081 13.3156 39.6826 13.3424 39.8254 13.3481C40.7019 13.3818 41.4 13.9124 41.6671 14.7393C41.6882 14.8049 41.6948 14.8756 41.708 14.9437C41.7062 15.2824 41.705 15.6212 41.7032 15.9599C41.6257 16.6631 41.0807 17.2831 40.3903 17.4381C39.2162 17.7018 38.024 17.8343 36.8294 17.9506C35.7014 18.0606 34.5717 18.1356 33.4395 18.1806C33.2042 18.1899 32.9683 18.1931 32.7324 18.1993C30.9963 18.2006 29.2615 18.2006 27.526 18.2006Z" fill="#FEC234"/>
<path d="M29.9314 27.673C25.9029 27.6324 22.3053 24.903 20.9757 20.7537C20.858 20.3874 20.7668 20.0137 20.6875 19.6362C20.6587 19.4999 20.6833 19.483 20.8076 19.5012C21.7164 19.6343 22.6301 19.7287 23.5437 19.8199C24.7203 19.9374 25.9005 20.0043 27.0806 20.0512C29.106 20.1318 31.1326 20.1343 33.1574 20.0512C34.7224 19.9874 36.2861 19.8924 37.8427 19.6987C38.3787 19.6318 38.9154 19.5718 39.4509 19.4999C39.5745 19.483 39.6039 19.4987 39.5721 19.6343C38.6837 23.4368 36.4932 26.0024 32.9077 27.2387C31.9976 27.553 31.0546 27.6755 29.9314 27.673Z" fill="#FDC234"/>
<path d="M27.5261 18.2006C29.2615 18.2006 30.9964 18.2006 32.7318 18.2006C31.1854 18.2718 29.6391 18.2668 28.0921 18.2256C27.9036 18.2206 27.7146 18.2093 27.5261 18.2006Z" fill="#FDC234"/>
<path d="M26.6214 4.52869C26.622 5.63931 26.6232 6.74994 26.6226 7.86056C26.6226 7.93494 26.6432 8.01869 26.565 8.07181C26.568 7.02806 26.5705 5.98494 26.5741 4.94119C26.5753 4.80181 26.5608 4.66056 26.6214 4.52869Z" fill="#FDC234"/>
<path d="M41.702 15.9612C41.7038 15.6224 41.705 15.2837 41.7068 14.9449C41.8008 15.2843 41.7911 15.6231 41.702 15.9612Z" fill="#FDC234"/>
<path d="M30.1403 39.643C33.9696 39.643 37.7989 39.6443 41.6281 39.6393C41.8052 39.6393 41.8653 39.6749 41.8641 39.8755C41.8545 41.1693 41.8563 42.463 41.8623 43.7568C41.8629 43.9174 41.8364 43.9855 41.6642 44.0068C40.511 44.1487 39.3554 44.263 38.1987 44.3655C35.965 44.5643 33.7271 44.6918 31.4862 44.7655C29.8918 44.818 28.2992 44.7655 26.7073 44.6818C25.5001 44.618 24.2935 44.5424 23.0881 44.4512C21.9842 44.3674 20.8802 44.2755 19.7805 44.1399C19.3651 44.0887 18.9491 44.0387 18.5331 43.9962C18.4298 43.9855 18.3974 43.9468 18.3974 43.8399C18.4004 42.4899 18.4022 41.1399 18.3956 39.7899C18.3944 39.6099 18.4935 39.643 18.5907 39.643C19.9954 39.6424 21.4001 39.643 22.8048 39.643C25.2504 39.643 27.6953 39.643 30.1403 39.643Z" fill="#24282D"/>
</svg>
