<svg width="154" height="48" viewBox="0 0 154 48" fill="none" xmlns="http://www.w3.org/2000/svg">
<path d="M57.7547 26.5728C57.7547 26.2651 57.7181 26.0015 57.6449 25.7817C57.5716 25.562 57.4691 25.3838 57.3373 25.2471C57.2054 25.1104 57.0516 25.0103 56.8758 24.9468C56.7001 24.8833 56.5096 24.8516 56.3045 24.8516C56.0604 24.8516 55.8456 24.9053 55.66 25.0127C55.4745 25.1152 55.3182 25.2495 55.1913 25.4155C55.0692 25.5815 54.9764 25.7695 54.9129 25.9795C54.8495 26.1846 54.8177 26.3921 54.8177 26.6021V28.0376C54.8177 28.3013 54.8519 28.5405 54.9203 28.7554C54.9935 28.9702 55.0961 29.1533 55.2279 29.3047C55.3646 29.4512 55.5282 29.5659 55.7186 29.6489C55.909 29.7319 56.1214 29.7734 56.3558 29.7734C56.8099 29.7734 57.1566 29.6245 57.3959 29.3267C57.6351 29.0288 57.7547 28.5991 57.7547 28.0376V26.5728ZM59.4466 28.1987C59.4466 28.6821 59.371 29.1167 59.2196 29.5024C59.0682 29.8833 58.8558 30.2104 58.5824 30.4839C58.3089 30.7524 57.9794 30.96 57.5936 31.1064C57.2127 31.248 56.7928 31.3188 56.3338 31.3188C55.8114 31.3188 55.35 31.2358 54.9496 31.0698C54.5541 30.9038 54.2196 30.6743 53.9461 30.3813C53.6776 30.0884 53.4725 29.7417 53.3309 29.3413C53.1942 28.9409 53.1258 28.5063 53.1258 28.0376V26.6021C53.1258 26.2163 53.1942 25.8281 53.3309 25.4375C53.4725 25.0469 53.6776 24.6929 53.9461 24.3755C54.2196 24.0581 54.5541 23.7993 54.9496 23.5991C55.35 23.3989 55.8114 23.2988 56.3338 23.2988C56.5682 23.2988 56.8124 23.3306 57.0663 23.394C57.3251 23.4526 57.5765 23.5747 57.8207 23.7603V22.5737C57.8207 22.4419 57.7792 22.3247 57.6961 22.2222C57.6131 22.1196 57.5033 22.0317 57.3666 21.9585C57.2347 21.8853 57.0834 21.8315 56.9125 21.7974C56.7416 21.7583 56.5707 21.7388 56.3998 21.7388C55.9798 21.7388 55.6649 21.7949 55.4549 21.9072C55.245 22.0195 55.14 22.1538 55.14 22.3101V22.874H53.4335V22.3101C53.4335 22.0269 53.5165 21.7559 53.6825 21.4971C53.8534 21.2334 54.078 21.0039 54.3563 20.8086C54.6346 20.6133 54.952 20.457 55.3085 20.3398C55.6649 20.2227 56.0336 20.1641 56.4144 20.1641C56.8099 20.1641 57.1908 20.2227 57.557 20.3398C57.9281 20.4521 58.2528 20.6157 58.5311 20.8306C58.8143 21.0405 59.0389 21.2944 59.2049 21.5923C59.3758 21.8853 59.4613 22.2124 59.4613 22.5737L59.4466 28.1987ZM67.3348 27.9351C67.3348 30.1909 66.2801 31.3188 64.1708 31.3188C63.6483 31.3188 63.1893 31.2334 62.7938 31.0625C62.4032 30.8867 62.0736 30.6499 61.805 30.3521C61.5414 30.0493 61.3412 29.7002 61.2044 29.3047C61.0726 28.9092 61.0067 28.4868 61.0067 28.0376V27.5688C61.0067 27.4126 61.0311 27.2466 61.0799 27.0708C61.1288 26.8901 61.1971 26.707 61.285 26.5215C61.3729 26.3359 61.4754 26.1455 61.5926 25.9502C61.7098 25.7549 61.8368 25.562 61.9735 25.3716L63.2626 26.0161C63.077 26.3628 62.9378 26.6753 62.8451 26.9536C62.7523 27.2319 62.7059 27.437 62.7059 27.5688V28.0742C62.7059 28.3477 62.7303 28.5894 62.7792 28.7993C62.8329 29.0093 62.9159 29.1851 63.0282 29.3267C63.1454 29.4683 63.2967 29.5757 63.4823 29.6489C63.6678 29.7222 63.8973 29.7588 64.1708 29.7588C64.4247 29.7588 64.6419 29.7271 64.8226 29.6636C65.0082 29.5952 65.1595 29.4878 65.2767 29.3413C65.3988 29.1899 65.4891 28.9971 65.5477 28.7627C65.6063 28.5234 65.6356 28.2329 65.6356 27.8911V27.1221C65.6356 26.8291 65.5941 26.5605 65.5111 26.3164C65.4281 26.0674 65.3207 25.8354 65.1888 25.6206C65.057 25.4058 64.9056 25.2031 64.7347 25.0127C64.5638 24.8174 64.3905 24.627 64.2147 24.4414C64.0145 24.2314 63.8192 24.019 63.6288 23.8042C63.4383 23.5845 63.2674 23.3525 63.1161 23.1084C62.9696 22.8643 62.85 22.5981 62.7572 22.3101C62.6693 22.022 62.6253 21.7021 62.6253 21.3506V20.1641H64.2513V21.3506C64.2513 21.5605 64.2855 21.7607 64.3539 21.9512C64.4271 22.1367 64.5223 22.3174 64.6395 22.4932C64.7616 22.6689 64.8983 22.8423 65.0497 23.0132C65.2059 23.1841 65.3646 23.3574 65.5257 23.5332V23.5259C65.7455 23.7603 65.9627 24.002 66.1776 24.251C66.3924 24.4951 66.5853 24.7612 66.7562 25.0493C66.9271 25.3374 67.0663 25.6523 67.1737 25.9941C67.2811 26.3311 67.3348 26.707 67.3348 27.1221V27.9351ZM75.1937 27.8618C75.1937 28.3599 75.1156 28.8213 74.9593 29.2461C74.8031 29.666 74.5834 30.0298 74.3002 30.3374C74.0218 30.645 73.6874 30.8867 73.2967 31.0625C72.911 31.2334 72.4886 31.3188 72.0296 31.3188C71.5658 31.3188 71.141 31.248 70.7552 31.1064C70.3695 30.9648 70.0375 30.7476 69.7591 30.4546C69.4808 30.1616 69.2635 29.793 69.1073 29.3486C68.951 28.9043 68.8729 28.3818 68.8729 27.7812V20.1641H70.5648V27.7812C70.5648 28.1426 70.6014 28.4502 70.6747 28.7041C70.7479 28.9531 70.848 29.1558 70.975 29.312C71.1068 29.4683 71.2606 29.583 71.4364 29.6562C71.617 29.7246 71.8148 29.7588 72.0296 29.7588C72.2738 29.7588 72.4862 29.7124 72.6669 29.6196C72.8524 29.522 73.0062 29.3853 73.1283 29.2095C73.2552 29.0337 73.348 28.8237 73.4066 28.5796C73.4701 28.3354 73.5018 28.0645 73.5018 27.7666V27.3711C73.5018 27.0488 73.4457 26.7437 73.3334 26.4556C73.2259 26.1626 73.0721 25.8916 72.8719 25.6426C72.7694 25.5107 72.6693 25.3789 72.5716 25.2471C72.4789 25.1152 72.3959 24.9834 72.3226 24.8516C72.2494 24.7148 72.1883 24.5781 72.1395 24.4414C72.0956 24.2998 72.0736 24.1558 72.0736 24.0093C72.0736 23.897 72.0809 23.7822 72.0956 23.665C72.1151 23.5479 72.1444 23.4282 72.1835 23.3062C72.2274 23.1792 72.286 23.0449 72.3592 22.9033C72.4325 22.7617 72.5252 22.6079 72.6376 22.4419L74.3954 22.9326C74.3514 22.9863 74.305 23.0425 74.2562 23.1011C74.2123 23.1548 74.1708 23.2061 74.1317 23.2549C74.0926 23.3037 74.056 23.3477 74.0218 23.3867C73.9925 23.4209 73.9754 23.4453 73.9706 23.46C73.8876 23.5723 73.8241 23.6675 73.7801 23.7456C73.7362 23.8237 73.7142 23.9116 73.7142 24.0093C73.7142 24.1655 73.7777 24.334 73.9046 24.5146C74.0365 24.6953 74.1878 24.8833 74.3587 25.0786H74.3514C74.6053 25.3667 74.808 25.6841 74.9593 26.0308C75.1156 26.3726 75.1937 26.7754 75.1937 27.2393V27.8618ZM83.0526 25.2983C83.0526 24.5073 82.8963 23.8921 82.5838 23.4526C82.2762 23.0132 81.849 22.7324 81.3021 22.6104C81.3168 22.9619 81.3338 23.3257 81.3534 23.7017C81.3729 24.0776 81.3924 24.4536 81.412 24.8296C81.4315 25.2056 81.451 25.5791 81.4706 25.9502C81.4901 26.3164 81.5072 26.6655 81.5218 26.9976H79.7201L79.9398 22.625C79.6908 22.6934 79.4588 22.7983 79.244 22.9399C79.034 23.0815 78.8509 23.2622 78.6947 23.4819C78.5433 23.7017 78.4237 23.9629 78.3358 24.2656C78.2528 24.5684 78.2113 24.9126 78.2113 25.2983V27.3052C78.2113 27.6079 78.2674 27.9082 78.3797 28.2061C78.4969 28.499 78.6605 28.7603 78.8705 28.9897C79.0853 29.2192 79.3417 29.4048 79.6395 29.5464C79.9374 29.688 80.2718 29.7588 80.6429 29.7588C80.9945 29.7588 81.3168 29.6929 81.6097 29.561C81.9076 29.4292 82.1615 29.251 82.3714 29.0264C82.5863 28.8018 82.7523 28.543 82.8695 28.25C82.9916 27.9521 83.0526 27.6372 83.0526 27.3052V25.2983ZM84.7518 27.3052C84.7518 27.6909 84.6957 28.0596 84.5834 28.4111C84.4759 28.7578 84.3246 29.0801 84.1293 29.3779C83.9388 29.6709 83.7118 29.9395 83.4481 30.1836C83.1893 30.4229 82.9061 30.6279 82.5985 30.7988C82.2958 30.9648 81.9759 31.0942 81.639 31.187C81.307 31.2749 80.975 31.3188 80.6429 31.3188C80.306 31.3188 79.9691 31.2749 79.6322 31.187C79.2953 31.0942 78.973 30.9648 78.6654 30.7988C78.3627 30.6328 78.0794 30.4302 77.8158 30.1909C77.557 29.9517 77.3299 29.6831 77.1346 29.3853C76.9442 29.0874 76.7928 28.7651 76.6805 28.4185C76.5731 28.0669 76.5194 27.6958 76.5194 27.3052V25.2983C76.5194 24.7563 76.6073 24.2534 76.7831 23.7896C76.9637 23.3208 77.203 22.9033 77.5008 22.5371C77.7987 22.1709 78.1429 21.8657 78.5336 21.6216C78.9291 21.3726 79.3417 21.1968 79.7713 21.0942C79.6835 20.9233 79.5931 20.75 79.5003 20.5742C79.4076 20.3936 79.3368 20.2568 79.2879 20.1641H81.8294L81.4486 21.0796C81.8783 21.1821 82.2909 21.3555 82.6864 21.5996C83.0868 21.8438 83.4383 22.1489 83.7411 22.5151C84.0487 22.8765 84.2928 23.2939 84.4735 23.7676C84.659 24.2363 84.7518 24.7466 84.7518 25.2983V27.3052ZM92.391 28.6089C92.391 29.0874 92.3031 29.4976 92.1273 29.8394C91.9564 30.1812 91.7245 30.4619 91.4315 30.6816C91.1434 30.9014 90.8089 31.0625 90.4281 31.165C90.0472 31.2676 89.6493 31.3188 89.2342 31.3188C88.7752 31.3188 88.3504 31.248 87.9598 31.1064C87.5741 30.96 87.2396 30.7598 86.9564 30.5059C86.6781 30.2471 86.4608 29.9443 86.3045 29.5977C86.1483 29.251 86.0702 28.8726 86.0702 28.4624C86.0702 28.1646 86.0824 27.9082 86.1068 27.6934C86.1361 27.4736 86.1825 27.2734 86.246 27.0928C86.3143 26.9121 86.4046 26.7437 86.5169 26.5874C86.6293 26.4263 86.7709 26.2554 86.9418 26.0747L88.2088 26.5801C88.1063 26.7119 88.0257 26.8438 87.9671 26.9756C87.9086 27.1025 87.8622 27.2393 87.828 27.3857C87.7987 27.5322 87.7792 27.6958 87.7694 27.8765C87.7645 28.0522 87.7621 28.2524 87.7621 28.4771C87.7621 28.8921 87.8817 29.2095 88.121 29.4292C88.3602 29.6489 88.7313 29.7588 89.2342 29.7588C89.6835 29.7588 90.0399 29.6538 90.3036 29.4438C90.5672 29.229 90.6991 28.9385 90.6991 28.5723V22.7935C90.6991 22.481 90.5892 22.2271 90.3695 22.0317C90.1546 21.8364 89.8592 21.7388 89.4833 21.7388C89.0926 21.7388 88.7752 21.834 88.5311 22.0244C88.2919 22.2148 88.1722 22.4761 88.1722 22.8081C88.1722 22.9302 88.1771 23.0547 88.1869 23.1816C88.1966 23.3086 88.2381 23.4624 88.3114 23.6431L86.9857 24.1191C86.9027 24.002 86.8319 23.8994 86.7733 23.8115C86.7196 23.7188 86.6732 23.626 86.6341 23.5332C86.6 23.4404 86.5731 23.3379 86.5536 23.2256C86.5389 23.1133 86.5316 22.9741 86.5316 22.8081C86.5316 22.4126 86.6 22.0537 86.7367 21.7314C86.8734 21.4043 87.0663 21.126 87.3153 20.8965C87.5643 20.6621 87.8646 20.4814 88.2162 20.3545C88.5677 20.2275 88.9608 20.1641 89.3954 20.1641C89.8202 20.1641 90.2132 20.2202 90.5746 20.3325C90.9408 20.4448 91.2582 20.6133 91.5267 20.8379C91.7953 21.0576 92.0052 21.3311 92.1566 21.6582C92.3128 21.9854 92.391 22.3638 92.391 22.7935V28.6089ZM104.41 27.6787C104.41 27.8984 104.369 28.1401 104.286 28.4038C104.207 28.6675 104.093 28.936 103.941 29.2095C103.795 29.478 103.617 29.7417 103.407 30.0005C103.197 30.2544 102.96 30.4814 102.696 30.6816C102.437 30.877 102.154 31.0356 101.847 31.1577C101.539 31.2749 101.217 31.3335 100.88 31.3335V29.7588C101.134 29.7588 101.37 29.6904 101.59 29.5537C101.815 29.4121 102.01 29.2388 102.176 29.0337C102.342 28.8286 102.472 28.6064 102.564 28.3672C102.662 28.123 102.711 27.8984 102.711 27.6934V26.6533C102.711 26.2725 102.664 25.9624 102.572 25.7231C102.484 25.479 102.371 25.2886 102.235 25.1519C102.098 25.0103 101.952 24.915 101.795 24.8662C101.644 24.8125 101.507 24.7856 101.385 24.7856C101.244 24.7856 101.095 24.8149 100.938 24.8735C100.782 24.9272 100.638 25.02 100.506 25.1519C100.374 25.2837 100.265 25.4595 100.177 25.6792C100.094 25.894 100.052 26.1626 100.052 26.4849V28.3818H98.3529V26.4849C98.3529 26.1626 98.3089 25.894 98.2211 25.6792C98.138 25.4595 98.0331 25.2837 97.9061 25.1519C97.7792 25.02 97.6376 24.9272 97.4813 24.8735C97.3299 24.8149 97.1859 24.7856 97.0492 24.7856C96.8832 24.7856 96.7196 24.8125 96.5585 24.8662C96.4022 24.915 96.2606 25.0103 96.1336 25.1519C96.0067 25.2886 95.9042 25.479 95.826 25.7231C95.7479 25.9624 95.7088 26.2725 95.7088 26.6533V27.73C95.7088 27.9302 95.7503 28.1475 95.8334 28.3818C95.9212 28.6162 96.0458 28.8359 96.2069 29.041C96.368 29.2461 96.5609 29.417 96.7855 29.5537C97.015 29.6904 97.2713 29.7588 97.5545 29.7588V31.3188C97.1639 31.3188 96.805 31.2578 96.4779 31.1357C96.1507 31.0137 95.8553 30.8525 95.5917 30.6523C95.3329 30.4521 95.1034 30.2227 94.9032 29.9639C94.703 29.7051 94.537 29.4414 94.4051 29.1729C94.2733 28.8994 94.1732 28.6309 94.1048 28.3672C94.0414 28.0986 94.0096 27.8569 94.0096 27.6421V26.6533C94.0096 26.126 94.0536 25.5986 94.1415 25.0713C94.2342 24.5439 94.3929 24.041 94.6175 23.5625C94.847 23.0791 95.1522 22.6323 95.5331 22.2222C95.9188 21.8071 96.4046 21.4482 96.9906 21.1455C97.5765 20.8379 98.2723 20.5986 99.078 20.4277C99.8885 20.252 100.831 20.1641 101.905 20.1641V21.7388C100.582 21.7388 99.4759 21.8877 98.5873 22.1855C97.6986 22.4834 97.015 22.8911 96.5365 23.4087L96.9979 23.2988C97.1981 23.2988 97.4007 23.3159 97.6058 23.3501C97.8109 23.3843 98.0086 23.4478 98.1991 23.5405C98.3944 23.6333 98.5775 23.7603 98.7484 23.9214C98.9242 24.0776 99.0829 24.2827 99.2245 24.5366C99.3758 24.2876 99.5419 24.085 99.7225 23.9287C99.9032 23.7676 100.089 23.6406 100.279 23.5479C100.47 23.4551 100.658 23.3916 100.843 23.3574C101.034 23.3184 101.214 23.2988 101.385 23.2988C101.766 23.2988 102.137 23.3574 102.498 23.4746C102.865 23.5918 103.189 23.7822 103.473 24.0459C103.756 24.3096 103.983 24.6562 104.154 25.0859C104.325 25.5107 104.41 26.0332 104.41 26.6533V27.6787ZM112.049 28.6162C112.049 29.0508 111.969 29.4365 111.807 29.7734C111.646 30.1055 111.424 30.3862 111.141 30.6157C110.863 30.8452 110.531 31.021 110.145 31.1431C109.759 31.2603 109.342 31.3188 108.892 31.3188C108.443 31.3188 108.026 31.2554 107.64 31.1284C107.259 30.9966 106.925 30.811 106.637 30.5718C106.353 30.3276 106.131 30.0347 105.97 29.6929C105.809 29.3511 105.728 28.9678 105.728 28.543V28.2793C105.728 28.0791 105.785 27.8789 105.897 27.6787C106.009 27.4736 106.173 27.2783 106.388 27.0928L107.735 27.6934C107.525 28.0254 107.42 28.333 107.42 28.6162C107.42 28.9775 107.535 29.2583 107.765 29.4585C107.999 29.6587 108.375 29.7588 108.892 29.7588C109.107 29.7588 109.305 29.7368 109.486 29.6929C109.666 29.644 109.82 29.5757 109.947 29.4878C110.079 29.3999 110.179 29.29 110.247 29.1582C110.321 29.0215 110.357 28.8652 110.357 28.6895V25.562C110.357 25.4155 110.333 25.2397 110.284 25.0347C110.24 24.8247 110.155 24.6245 110.028 24.4341C109.906 24.2437 109.73 24.0825 109.5 23.9507C109.276 23.8188 108.985 23.7529 108.629 23.7529C108.443 23.7529 108.294 23.7773 108.182 23.8262C108.07 23.8701 107.984 23.9263 107.926 23.9946C107.867 24.063 107.828 24.1387 107.808 24.2217C107.789 24.2998 107.779 24.3755 107.779 24.4487C107.779 24.6147 107.808 24.7661 107.867 24.9028C107.926 25.0347 108.011 25.1641 108.123 25.291L106.988 25.9795C106.832 25.8916 106.7 25.7891 106.593 25.6719C106.49 25.5547 106.405 25.4277 106.336 25.291C106.273 25.1543 106.226 25.0151 106.197 24.8735C106.168 24.7319 106.153 24.5928 106.153 24.4561C106.153 24.1338 106.207 23.8359 106.314 23.5625C106.427 23.2891 106.588 23.0522 106.798 22.8521C107.013 22.6519 107.271 22.4956 107.574 22.3833C107.882 22.271 108.233 22.2148 108.629 22.2148C109.005 22.2148 109.339 22.2856 109.632 22.4272C109.925 22.5688 110.189 22.7544 110.423 22.9839V21.6582H109.076V20.1641H112.049V28.6162ZM126.866 24.4341C126.866 24.6392 126.837 24.8687 126.778 25.1226C126.72 25.3765 126.637 25.6401 126.529 25.9136C126.422 26.1821 126.29 26.4556 126.134 26.7339C125.982 27.0073 125.814 27.2686 125.628 27.5176C125.443 27.7617 125.24 27.9863 125.02 28.1914C124.806 28.3965 124.581 28.5649 124.347 28.6968L123.211 27.6641C123.509 27.4443 123.778 27.1904 124.017 26.9023C124.256 26.6143 124.459 26.3188 124.625 26.0161C124.796 25.7134 124.925 25.418 125.013 25.1299C125.106 24.8418 125.152 24.5879 125.152 24.3682V23.5186C125.152 23.2402 125.123 22.9937 125.064 22.7788C125.011 22.564 124.932 22.3857 124.83 22.2441C124.732 22.0977 124.615 21.9878 124.478 21.9146C124.347 21.8413 124.205 21.8047 124.054 21.8047C123.809 21.8047 123.609 21.8438 123.453 21.9219C123.302 22 123.182 22.1099 123.094 22.2515C123.006 22.3882 122.945 22.5493 122.911 22.7349C122.882 22.9204 122.867 23.1206 122.867 23.3354V25.3789H121.241V23.3354C121.241 23.1255 121.226 22.9253 121.197 22.7349C121.173 22.5396 121.124 22.3687 121.051 22.2222C120.977 22.0757 120.875 21.9585 120.743 21.8706C120.611 21.7827 120.438 21.7388 120.223 21.7388C120.028 21.7388 119.864 21.7827 119.732 21.8706C119.605 21.9585 119.503 22.0757 119.425 22.2222C119.347 22.3687 119.29 22.5347 119.256 22.7202C119.222 22.9058 119.205 23.0962 119.205 23.2915V25.3789H117.564V23.2915C117.564 23.1011 117.555 22.9155 117.535 22.7349C117.52 22.5542 117.476 22.3955 117.403 22.2588C117.33 22.1221 117.215 22.0122 117.059 21.9292C116.908 21.8462 116.695 21.8047 116.422 21.8047C116.222 21.8047 116.051 21.856 115.909 21.9585C115.767 22.061 115.65 22.2002 115.557 22.376C115.465 22.5518 115.396 22.7593 115.352 22.9985C115.313 23.2329 115.294 23.4844 115.294 23.7529L115.308 24.6904C115.304 25.1689 115.384 25.6206 115.55 26.0454C115.716 26.4702 115.951 26.8608 116.253 27.2173C116.561 27.5688 116.927 27.8862 117.352 28.1694C117.777 28.4478 118.245 28.6846 118.758 28.8799C119.276 29.0752 119.827 29.2241 120.413 29.3267C121.004 29.4292 121.615 29.4805 122.244 29.4805H123.592V31.1797H122.274C121.341 31.1797 120.479 31.0942 119.688 30.9233C118.902 30.7524 118.189 30.5181 117.55 30.2202C116.91 29.9175 116.346 29.561 115.858 29.1509C115.374 28.7407 114.967 28.2964 114.635 27.8179C114.303 27.3345 114.049 26.8291 113.873 26.3018C113.702 25.7695 113.612 25.2349 113.602 24.6978L113.595 23.7163C113.595 23.2231 113.648 22.7642 113.756 22.3394C113.868 21.9146 114.039 21.5459 114.268 21.2334C114.498 20.9209 114.791 20.6768 115.147 20.501C115.504 20.3203 115.929 20.23 116.422 20.23C116.637 20.23 116.837 20.2544 117.022 20.3032C117.208 20.3472 117.381 20.4204 117.542 20.5229C117.703 20.6206 117.855 20.7451 117.996 20.8965C118.143 21.043 118.285 21.2188 118.421 21.4238C118.636 21.0234 118.888 20.7134 119.176 20.4937C119.464 20.2739 119.813 20.1641 120.223 20.1641C120.619 20.1641 120.965 20.2739 121.263 20.4937C121.566 20.7085 121.834 21.0137 122.069 21.4092C122.352 21.0186 122.662 20.7256 122.999 20.5303C123.341 20.3301 123.687 20.23 124.039 20.23C124.434 20.23 124.803 20.3008 125.145 20.4424C125.492 20.584 125.792 20.7915 126.046 21.0649C126.3 21.3384 126.5 21.6753 126.646 22.0757C126.793 22.4761 126.866 22.9351 126.866 23.4526V24.4341ZM134.513 27.9351C134.513 30.1909 133.458 31.3188 131.348 31.3188C130.826 31.3188 130.367 31.2334 129.972 31.0625C129.581 30.8867 129.251 30.6499 128.983 30.3521C128.719 30.0493 128.519 29.7002 128.382 29.3047C128.25 28.9092 128.184 28.4868 128.184 28.0376V27.5688C128.184 27.4126 128.209 27.2466 128.258 27.0708C128.307 26.8901 128.375 26.707 128.463 26.5215C128.551 26.3359 128.653 26.1455 128.77 25.9502C128.888 25.7549 129.015 25.562 129.151 25.3716L130.44 26.0161C130.255 26.3628 130.116 26.6753 130.023 26.9536C129.93 27.2319 129.884 27.437 129.884 27.5688V28.0742C129.884 28.3477 129.908 28.5894 129.957 28.7993C130.011 29.0093 130.094 29.1851 130.206 29.3267C130.323 29.4683 130.474 29.5757 130.66 29.6489C130.846 29.7222 131.075 29.7588 131.348 29.7588C131.602 29.7588 131.82 29.7271 132 29.6636C132.186 29.5952 132.337 29.4878 132.454 29.3413C132.577 29.1899 132.667 28.9971 132.725 28.7627C132.784 28.5234 132.813 28.2329 132.813 27.8911V27.1221C132.813 26.8291 132.772 26.5605 132.689 26.3164C132.606 26.0674 132.498 25.8354 132.367 25.6206C132.235 25.4058 132.083 25.2031 131.912 25.0127C131.742 24.8174 131.568 24.627 131.392 24.4414C131.192 24.2314 130.997 24.019 130.807 23.8042C130.616 23.5845 130.445 23.3525 130.294 23.1084C130.147 22.8643 130.028 22.5981 129.935 22.3101C129.847 22.022 129.803 21.7021 129.803 21.3506V20.1641H131.429V21.3506C131.429 21.5605 131.463 21.7607 131.532 21.9512C131.605 22.1367 131.7 22.3174 131.817 22.4932C131.939 22.6689 132.076 22.8423 132.227 23.0132C132.384 23.1841 132.542 23.3574 132.703 23.5332V23.5259C132.923 23.7603 133.14 24.002 133.355 24.251C133.57 24.4951 133.763 24.7612 133.934 25.0493C134.105 25.3374 134.244 25.6523 134.351 25.9941C134.459 26.3311 134.513 26.707 134.513 27.1221V27.9351ZM137.53 28.0376C137.53 28.2622 137.557 28.4795 137.611 28.6895C137.669 28.8945 137.757 29.0776 137.874 29.2388C137.996 29.395 138.148 29.522 138.328 29.6196C138.514 29.7124 138.736 29.7588 138.995 29.7588C139.264 29.7588 139.491 29.7075 139.676 29.605C139.862 29.5024 140.013 29.3706 140.13 29.2095C140.247 29.0483 140.33 28.8726 140.379 28.6821C140.433 28.4868 140.46 28.2988 140.46 28.1182V26.7339C140.46 26.5386 140.428 26.3384 140.365 26.1333C140.306 25.9233 140.216 25.7354 140.094 25.5693C139.976 25.3984 139.825 25.2593 139.64 25.1519C139.459 25.0444 139.244 24.9907 138.995 24.9907C138.731 24.9907 138.507 25.0396 138.321 25.1372C138.136 25.23 137.984 25.3594 137.867 25.5254C137.75 25.6865 137.664 25.877 137.611 26.0967C137.557 26.3115 137.53 26.5386 137.53 26.7778V28.0376ZM138.409 20.1641C138.409 20.335 138.431 20.4814 138.475 20.6035C138.524 20.7207 138.585 20.8208 138.658 20.9038C138.731 20.9868 138.814 21.0576 138.907 21.1162C139 21.1699 139.093 21.2188 139.185 21.2627C139.322 21.3311 139.456 21.4043 139.588 21.4824C139.725 21.5557 139.847 21.6436 139.954 21.7461C140.062 21.8438 140.147 21.9585 140.211 22.0903C140.279 22.2222 140.313 22.3784 140.313 22.5591C140.313 22.7886 140.296 22.9839 140.262 23.145C140.233 23.3013 140.182 23.4624 140.108 23.6284C140.445 23.7651 140.741 23.9507 140.994 24.1851C141.253 24.4146 141.466 24.6685 141.632 24.9468C141.803 25.2251 141.93 25.5156 142.013 25.8184C142.1 26.1211 142.144 26.4092 142.144 26.6826L142.159 28.1987C142.159 28.4087 142.127 28.6333 142.064 28.8726C142.005 29.1069 141.915 29.3413 141.793 29.5757C141.676 29.8052 141.527 30.0249 141.346 30.2349C141.17 30.4448 140.965 30.6304 140.731 30.7915C140.496 30.9526 140.233 31.082 139.94 31.1797C139.652 31.2725 139.337 31.3188 138.995 31.3188C138.473 31.3188 138.014 31.2236 137.618 31.0332C137.227 30.8428 136.898 30.5986 136.629 30.3008C136.366 29.998 136.165 29.6611 136.029 29.29C135.897 28.9141 135.831 28.5454 135.831 28.1841V26.6973C135.831 26.3652 135.877 26.0308 135.97 25.6938C136.063 25.3521 136.212 25.0371 136.417 24.749C136.627 24.4609 136.895 24.2095 137.223 23.9946C137.555 23.7749 137.957 23.6187 138.431 23.5259C138.475 23.4136 138.509 23.3159 138.534 23.2329C138.558 23.1499 138.577 23.0742 138.592 23.0059C138.607 22.9375 138.614 22.8716 138.614 22.8081C138.619 22.7446 138.621 22.6763 138.621 22.603C138.602 22.564 138.543 22.5176 138.446 22.4639C138.353 22.4102 138.241 22.3491 138.109 22.2808C137.948 22.1978 137.784 22.1074 137.618 22.0098C137.457 21.9072 137.308 21.7778 137.171 21.6216C137.035 21.4653 136.922 21.27 136.834 21.0356C136.751 20.8013 136.71 20.5107 136.71 20.1641H138.409ZM150.018 26.8364C150.013 27.3198 149.976 27.8081 149.908 28.3013C149.84 28.7944 149.713 29.251 149.527 29.6709C149.347 30.0908 149.09 30.4546 148.758 30.7622C148.431 31.0698 148.001 31.2847 147.469 31.4067L147.308 29.7588C147.645 29.7588 147.899 29.5098 148.07 29.0117C148.241 28.5088 148.326 27.7983 148.326 26.8804V24.3535C148.326 23.9434 148.304 23.5771 148.26 23.2549C148.221 22.9277 148.148 22.6519 148.04 22.4272C147.933 22.2026 147.786 22.0317 147.601 21.9146C147.42 21.7974 147.191 21.7388 146.912 21.7388C146.6 21.7388 146.344 21.7998 146.143 21.9219C145.948 22.0439 145.794 22.2197 145.682 22.4492C145.57 22.6738 145.492 22.9521 145.448 23.2842C145.409 23.6113 145.389 23.9824 145.389 24.3975V26.8804C145.389 27.3296 145.399 27.7324 145.418 28.0889C145.443 28.4453 145.482 28.748 145.536 28.9971C145.594 29.2412 145.672 29.4292 145.77 29.561C145.868 29.6929 145.99 29.7588 146.136 29.7588L146.121 31.3921C145.75 31.3237 145.431 31.2065 145.162 31.0405C144.898 30.8745 144.676 30.6768 144.495 30.4473C144.32 30.2129 144.178 29.9517 144.071 29.6636C143.963 29.3755 143.883 29.0776 143.829 28.77C143.775 28.4575 143.739 28.1401 143.719 27.8179C143.704 27.4956 143.697 27.1831 143.697 26.8804V24.4194C143.697 24.0923 143.714 23.7603 143.748 23.4233C143.783 23.0864 143.844 22.7617 143.932 22.4492C144.024 22.1318 144.146 21.834 144.298 21.5557C144.449 21.2773 144.642 21.0356 144.876 20.8306C145.111 20.6255 145.391 20.4644 145.719 20.3472C146.046 20.2251 146.427 20.1641 146.861 20.1641C147.525 20.1641 148.065 20.2788 148.48 20.5083C148.895 20.7329 149.217 21.0381 149.447 21.4238C149.676 21.8096 149.83 22.2563 149.908 22.7642C149.991 23.2671 150.033 23.7969 150.033 24.3535L150.018 26.8364Z" fill="#FDC234"/>
<path d="M41.8917 31.3368L38.2725 29.7881C38.3979 29.845 38.4466 29.9193 38.446 30.0806C38.4388 32.4368 38.4436 34.7931 38.437 37.1493C38.4364 37.3543 38.4904 37.405 38.6837 37.4025C39.67 37.3918 40.6568 37.3925 41.6425 37.4025C41.8274 37.405 41.8634 37.3468 41.8628 37.1662C41.8562 35.2956 41.8586 33.4243 41.8586 31.5537C41.8586 31.4168 41.8586 31.3531 41.8917 31.3368ZM39.5727 19.635L40.3891 17.44C39.2143 17.7031 38.0222 17.8356 36.8282 17.9525C35.7002 18.0625 34.5705 18.1375 33.4383 18.1818C33.203 18.1912 32.9671 18.195 32.7312 18.2006C31.1854 18.2725 29.6385 18.2668 28.0921 18.2256C27.903 18.2206 27.7145 18.2093 27.526 18.2012C26.58 18.1868 25.6363 18.1343 24.6933 18.0625C23.7574 17.9912 22.8221 17.9087 21.8911 17.7837C21.202 17.6912 20.5116 17.6031 19.8357 17.4306L20.6869 19.6362C20.6587 19.5 20.6833 19.4831 20.8076 19.5012C21.7164 19.6343 22.6301 19.7287 23.5437 19.82C24.7203 19.9375 25.9004 20.0043 27.0806 20.0512C29.106 20.1318 31.1326 20.1343 33.158 20.0512C34.723 19.9875 36.2867 19.8925 37.8433 19.6993C38.3793 19.6325 38.916 19.5725 39.4515 19.5006C39.5751 19.4837 39.6045 19.4993 39.5727 19.635ZM33.679 7.77308C33.6784 7.92183 33.6862 8.06871 33.7295 8.21058C33.8729 8.67558 34.337 8.79433 34.6737 8.45308C34.834 8.29121 34.9181 8.08683 34.9763 7.86683C35.1342 7.27183 35.2986 6.67808 35.4517 6.08183C35.4817 5.96496 35.4997 5.91996 35.597 5.98371L33.6274 4.51996C33.6652 4.72183 33.6832 4.93433 33.6808 5.15746C33.673 6.02933 33.6802 6.90121 33.679 7.77308ZM25.3194 7.98308C25.3842 8.21746 25.4971 8.42433 25.7078 8.55246C26.0187 8.74183 26.3291 8.64371 26.4839 8.30746C26.5188 8.23246 26.5386 8.15058 26.565 8.07121C26.568 7.02808 26.5704 5.98433 26.574 4.94121C26.5746 4.80183 26.5602 4.66058 26.6202 4.52871L24.7365 5.93058C24.8079 6.01058 24.8109 6.11183 24.8355 6.19996C24.9988 6.79371 25.1549 7.38933 25.3194 7.98308ZM18.4022 31.5131C18.3986 33.3912 18.4034 35.2693 18.3956 37.1468C18.3944 37.3487 18.44 37.4056 18.6381 37.4031C19.6178 37.3918 20.5975 37.39 21.5765 37.4043C21.7944 37.4075 21.8269 37.3331 21.8263 37.1318C21.8197 34.7893 21.8245 32.4475 21.8179 30.1056C21.8173 29.9356 21.8575 29.8462 21.9997 29.7806L18.2401 31.3606C18.3944 31.3012 18.4028 31.3668 18.4022 31.5131Z" fill="#24282D"/>
<path d="M30.1235 46.7093C28.1498 46.7199 26.1826 46.5931 24.2172 46.4087C22.3948 46.2374 20.5771 46.0256 18.7654 45.7606C16.2928 45.3993 13.8238 45.0149 11.3836 44.4587C10.539 44.2662 10.0233 43.6031 10.0011 42.7018C9.99091 42.2899 10.0509 41.8906 10.1764 41.5C10.8025 39.5506 11.4346 37.6024 12.0487 35.6487C12.4563 34.3512 13.2517 33.4424 14.4673 32.9343C15.7183 32.4112 16.9717 31.8949 18.2215 31.3681C18.395 31.2949 18.404 31.3599 18.4034 31.5124C18.3998 33.3906 18.4046 35.2681 18.3962 37.1462C18.3956 37.3481 18.4406 37.4043 18.6393 37.4024C19.619 37.3912 20.5987 37.3893 21.5778 37.4037C21.7951 37.4068 21.8275 37.3331 21.8275 37.1312C21.8209 34.7893 21.8257 32.4468 21.8191 30.1049C21.8185 29.9231 21.8647 29.8337 22.0322 29.7668C22.6679 29.5137 23.2994 29.2487 23.9261 28.9737C24.0858 28.9037 24.1914 28.9274 24.3241 29.0337C26.0265 30.3943 27.7326 31.7499 29.4392 33.1049C29.9284 33.4937 30.3264 33.4899 30.8193 33.0987C32.5313 31.7393 34.2439 30.3812 35.9518 29.0162C36.0778 28.9156 36.1757 28.9106 36.3149 28.9706C36.9567 29.2462 37.6008 29.5149 38.2473 29.7768C38.392 29.8356 38.4472 29.9087 38.4466 30.0812C38.4394 32.4374 38.4448 34.7937 38.4376 37.1499C38.437 37.3549 38.491 37.4056 38.6849 37.4031C39.6712 37.3924 40.6575 37.3924 41.6437 37.4031C41.8286 37.4049 41.8641 37.3468 41.8635 37.1668C41.8568 35.2962 41.8592 33.4249 41.8592 31.5543C41.8592 31.2981 41.8598 31.2974 42.0766 31.3874C43.2345 31.8687 44.3847 32.3724 45.5522 32.8268C46.9437 33.3674 47.8232 34.3656 48.2722 35.8343C48.8623 37.7662 49.4992 39.6824 50.1115 41.6068C50.2669 42.0949 50.3144 42.5993 50.2093 43.1043C50.0556 43.8418 49.5838 44.2862 48.9037 44.4487C47.2661 44.8406 45.6057 45.1124 43.9459 45.3849C42.6588 45.5962 41.3694 45.7843 40.077 45.9562C38.7509 46.1325 37.4213 46.2749 36.0904 46.4031C34.5363 46.5531 32.9803 46.6624 31.4202 46.7081C30.9879 46.7199 30.5557 46.7093 30.1235 46.7093ZM30.1403 39.6431C27.6953 39.6431 25.251 39.6431 22.806 39.6431C21.4013 39.6431 19.9966 39.6431 18.5919 39.6431C18.4947 39.6431 18.3956 39.6106 18.3968 39.7899C18.404 41.1399 18.4016 42.4899 18.3986 43.8399C18.3986 43.9468 18.4304 43.9856 18.5343 43.9962C18.9509 44.0387 19.3663 44.0887 19.7817 44.1399C20.8814 44.2756 21.9854 44.3674 23.0893 44.4512C24.2947 44.5424 25.5013 44.6181 26.7085 44.6818C28.3004 44.7656 29.893 44.8181 31.4874 44.7656C33.7283 44.6918 35.9662 44.5643 38.1999 44.3656C39.3566 44.2624 40.5122 44.1481 41.6654 44.0068C41.8376 43.9856 41.8641 43.9168 41.8635 43.7568C41.8574 42.4631 41.855 41.1693 41.8653 39.8756C41.8671 39.6743 41.8064 39.6387 41.6293 39.6393C37.7989 39.6443 33.9696 39.6431 30.1403 39.6431Z" fill="#25719D"/>
<path d="M27.5261 18.2006C26.5806 18.1868 25.6364 18.1337 24.6939 18.0618C23.758 17.9906 22.8228 17.9081 21.8917 17.7831C21.2026 17.6906 20.5117 17.6024 19.8363 17.4299C19.1004 17.2418 18.703 16.7162 18.5451 15.9681C18.3344 14.9681 18.6814 14.0918 19.4834 13.6174C19.7817 13.4406 20.1089 13.3512 20.451 13.3499C20.6017 13.3493 20.6455 13.2924 20.6581 13.1462C20.8082 11.3612 21.4139 9.75056 22.4092 8.29743C23.0455 7.36806 23.8247 6.58618 24.7371 5.92993C24.8092 6.00993 24.8122 6.11118 24.8362 6.19931C24.9994 6.79306 25.1555 7.38868 25.32 7.98181C25.3848 8.21618 25.4977 8.42306 25.709 8.55118C26.0199 8.74056 26.3303 8.64243 26.4852 8.30618C26.52 8.23118 26.5398 8.14868 26.5662 8.06993C26.6436 8.01681 26.6232 7.93306 26.6232 7.85868C26.6238 6.74806 26.6226 5.63743 26.622 4.52681C26.6677 4.10868 26.8495 3.74931 27.0915 3.42493C27.6287 2.70368 28.3563 2.30306 29.1997 2.11368C30.3871 1.84681 31.4994 2.04368 32.4989 2.76931C33.2865 3.34118 33.6917 4.13993 33.6827 5.15556C33.6749 6.02743 33.6821 6.89931 33.6803 7.77118C33.6803 7.91993 33.6875 8.06681 33.7313 8.20868C33.8742 8.67368 34.3382 8.79243 34.6756 8.45118C34.8352 8.28931 34.9199 8.08493 34.9781 7.86493C35.136 7.26993 35.2999 6.67618 35.4535 6.07993C35.486 5.95306 35.5052 5.91118 35.6282 6.00306C37.4219 7.34806 38.6315 9.12431 39.2654 11.3262C39.4365 11.9193 39.5517 12.5262 39.5962 13.1443C39.6082 13.3156 39.6826 13.3424 39.8255 13.3481C40.7019 13.3818 41.4 13.9124 41.6672 14.7393C41.6882 14.8049 41.6948 14.8756 41.708 14.9437C41.7062 15.2824 41.705 15.6212 41.7032 15.9599C41.6258 16.6631 41.0807 17.2831 40.3904 17.4381C39.2162 17.7018 38.024 17.8343 36.8294 17.9506C35.7015 18.0606 34.5717 18.1356 33.4396 18.1806C33.2042 18.1899 32.9683 18.1931 32.7324 18.1993C30.9964 18.2006 29.2615 18.2006 27.5261 18.2006Z" fill="#FDC234"/>
<path d="M29.9314 27.673C25.9029 27.6324 22.3053 24.903 20.9757 20.7537C20.858 20.3874 20.7668 20.0137 20.6875 19.6362C20.6587 19.4999 20.6833 19.483 20.8076 19.5012C21.7164 19.6343 22.6301 19.7287 23.5437 19.8199C24.7203 19.9374 25.9005 20.0043 27.0806 20.0512C29.106 20.1318 31.1326 20.1343 33.1574 20.0512C34.7224 19.9874 36.2861 19.8924 37.8427 19.6987C38.3787 19.6318 38.9154 19.5718 39.4509 19.4999C39.5745 19.483 39.6039 19.4987 39.5721 19.6343C38.6837 23.4368 36.4932 26.0024 32.9077 27.2387C31.9976 27.553 31.0546 27.6755 29.9314 27.673Z" fill="#FAF3E6"/>
<path d="M27.5261 18.2006C29.2615 18.2006 30.9964 18.2006 32.7318 18.2006C31.1854 18.2718 29.6391 18.2668 28.0921 18.2256C27.9036 18.2206 27.7146 18.2093 27.5261 18.2006Z" fill="#FDC234"/>
<path d="M26.6214 4.52869C26.622 5.63931 26.6232 6.74994 26.6226 7.86056C26.6226 7.93494 26.6432 8.01869 26.565 8.07181C26.568 7.02806 26.5705 5.98494 26.5741 4.94119C26.5753 4.80181 26.5608 4.66056 26.6214 4.52869Z" fill="#FDC234"/>
<path d="M41.702 15.9612C41.7038 15.6224 41.705 15.2837 41.7068 14.9449C41.8008 15.2843 41.7911 15.6231 41.702 15.9612Z" fill="#FDC234"/>
<path d="M30.1403 39.643C33.9696 39.643 37.7988 39.6443 41.6281 39.6393C41.8052 39.6393 41.8652 39.6749 41.864 39.8755C41.8544 41.1693 41.8562 42.463 41.8622 43.7568C41.8628 43.9174 41.8364 43.9855 41.6641 44.0068C40.511 44.1487 39.3554 44.263 38.1986 44.3655C35.965 44.5643 33.7271 44.6918 31.4862 44.7655C29.8918 44.818 28.2992 44.7655 26.7072 44.6818C25.5 44.618 24.2935 44.5424 23.0881 44.4512C21.9841 44.3674 20.8802 44.2755 19.7805 44.1399C19.3651 44.0887 18.9491 44.0387 18.533 43.9962C18.4298 43.9855 18.3974 43.9468 18.3974 43.8399C18.4004 42.4899 18.4022 41.1399 18.3956 39.7899C18.3944 39.6099 18.4934 39.643 18.5907 39.643C19.9954 39.6424 21.4 39.643 22.8047 39.643C25.2503 39.643 27.6953 39.643 30.1403 39.643Z" fill="#24282D"/>
</svg>
