<svg width="155" height="48" viewBox="0 0 155 48" fill="none" xmlns="http://www.w3.org/2000/svg">
<path d="M58.7547 27.5728C58.7547 27.2651 58.7181 27.0015 58.6449 26.7817C58.5716 26.562 58.4691 26.3838 58.3373 26.2471C58.2054 26.1104 58.0516 26.0103 57.8758 25.9468C57.7001 25.8833 57.5096 25.8516 57.3045 25.8516C57.0604 25.8516 56.8456 25.9053 56.66 26.0127C56.4745 26.1152 56.3182 26.2495 56.1913 26.4155C56.0692 26.5815 55.9764 26.7695 55.9129 26.9795C55.8495 27.1846 55.8177 27.3921 55.8177 27.6021V29.0376C55.8177 29.3013 55.8519 29.5405 55.9203 29.7554C55.9935 29.9702 56.0961 30.1533 56.2279 30.3047C56.3646 30.4512 56.5282 30.5659 56.7186 30.6489C56.909 30.7319 57.1214 30.7734 57.3558 30.7734C57.8099 30.7734 58.1566 30.6245 58.3959 30.3267C58.6351 30.0288 58.7547 29.5991 58.7547 29.0376V27.5728ZM60.4466 29.1987C60.4466 29.6821 60.371 30.1167 60.2196 30.5024C60.0682 30.8833 59.8558 31.2104 59.5824 31.4839C59.3089 31.7524 58.9794 31.96 58.5936 32.1064C58.2127 32.248 57.7928 32.3188 57.3338 32.3188C56.8114 32.3188 56.35 32.2358 55.9496 32.0698C55.5541 31.9038 55.2196 31.6743 54.9461 31.3813C54.6776 31.0884 54.4725 30.7417 54.3309 30.3413C54.1942 29.9409 54.1258 29.5063 54.1258 29.0376V27.6021C54.1258 27.2163 54.1942 26.8281 54.3309 26.4375C54.4725 26.0469 54.6776 25.6929 54.9461 25.3755C55.2196 25.0581 55.5541 24.7993 55.9496 24.5991C56.35 24.3989 56.8114 24.2988 57.3338 24.2988C57.5682 24.2988 57.8124 24.3306 58.0663 24.394C58.3251 24.4526 58.5765 24.5747 58.8207 24.7603V23.5737C58.8207 23.4419 58.7792 23.3247 58.6961 23.2222C58.6131 23.1196 58.5033 23.0317 58.3666 22.9585C58.2347 22.8853 58.0834 22.8315 57.9125 22.7974C57.7416 22.7583 57.5707 22.7388 57.3998 22.7388C56.9798 22.7388 56.6649 22.7949 56.4549 22.9072C56.245 23.0195 56.14 23.1538 56.14 23.3101V23.874H54.4335V23.3101C54.4335 23.0269 54.5165 22.7559 54.6825 22.4971C54.8534 22.2334 55.078 22.0039 55.3563 21.8086C55.6346 21.6133 55.952 21.457 56.3085 21.3398C56.6649 21.2227 57.0336 21.1641 57.4144 21.1641C57.8099 21.1641 58.1908 21.2227 58.557 21.3398C58.9281 21.4521 59.2528 21.6157 59.5311 21.8306C59.8143 22.0405 60.0389 22.2944 60.2049 22.5923C60.3758 22.8853 60.4613 23.2124 60.4613 23.5737L60.4466 29.1987ZM68.3348 28.9351C68.3348 31.1909 67.2801 32.3188 65.1708 32.3188C64.6483 32.3188 64.1893 32.2334 63.7938 32.0625C63.4032 31.8867 63.0736 31.6499 62.805 31.3521C62.5414 31.0493 62.3412 30.7002 62.2044 30.3047C62.0726 29.9092 62.0067 29.4868 62.0067 29.0376V28.5688C62.0067 28.4126 62.0311 28.2466 62.0799 28.0708C62.1288 27.8901 62.1971 27.707 62.285 27.5215C62.3729 27.3359 62.4754 27.1455 62.5926 26.9502C62.7098 26.7549 62.8368 26.562 62.9735 26.3716L64.2626 27.0161C64.077 27.3628 63.9378 27.6753 63.8451 27.9536C63.7523 28.2319 63.7059 28.437 63.7059 28.5688V29.0742C63.7059 29.3477 63.7303 29.5894 63.7792 29.7993C63.8329 30.0093 63.9159 30.1851 64.0282 30.3267C64.1454 30.4683 64.2967 30.5757 64.4823 30.6489C64.6678 30.7222 64.8973 30.7588 65.1708 30.7588C65.4247 30.7588 65.6419 30.7271 65.8226 30.6636C66.0082 30.5952 66.1595 30.4878 66.2767 30.3413C66.3988 30.1899 66.4891 29.9971 66.5477 29.7627C66.6063 29.5234 66.6356 29.2329 66.6356 28.8911V28.1221C66.6356 27.8291 66.5941 27.5605 66.5111 27.3164C66.4281 27.0674 66.3207 26.8354 66.1888 26.6206C66.057 26.4058 65.9056 26.2031 65.7347 26.0127C65.5638 25.8174 65.3905 25.627 65.2147 25.4414C65.0145 25.2314 64.8192 25.019 64.6288 24.8042C64.4383 24.5845 64.2674 24.3525 64.1161 24.1084C63.9696 23.8643 63.85 23.5981 63.7572 23.3101C63.6693 23.022 63.6253 22.7021 63.6253 22.3506V21.1641H65.2513V22.3506C65.2513 22.5605 65.2855 22.7607 65.3539 22.9512C65.4271 23.1367 65.5223 23.3174 65.6395 23.4932C65.7616 23.6689 65.8983 23.8423 66.0497 24.0132C66.2059 24.1841 66.3646 24.3574 66.5257 24.5332V24.5259C66.7455 24.7603 66.9627 25.002 67.1776 25.251C67.3924 25.4951 67.5853 25.7612 67.7562 26.0493C67.9271 26.3374 68.0663 26.6523 68.1737 26.9941C68.2811 27.3311 68.3348 27.707 68.3348 28.1221V28.9351ZM76.1937 28.8618C76.1937 29.3599 76.1156 29.8213 75.9593 30.2461C75.8031 30.666 75.5834 31.0298 75.3002 31.3374C75.0218 31.645 74.6874 31.8867 74.2967 32.0625C73.911 32.2334 73.4886 32.3188 73.0296 32.3188C72.5658 32.3188 72.141 32.248 71.7552 32.1064C71.3695 31.9648 71.0375 31.7476 70.7591 31.4546C70.4808 31.1616 70.2635 30.793 70.1073 30.3486C69.951 29.9043 69.8729 29.3818 69.8729 28.7812V21.1641H71.5648V28.7812C71.5648 29.1426 71.6014 29.4502 71.6747 29.7041C71.7479 29.9531 71.848 30.1558 71.975 30.312C72.1068 30.4683 72.2606 30.583 72.4364 30.6562C72.617 30.7246 72.8148 30.7588 73.0296 30.7588C73.2738 30.7588 73.4862 30.7124 73.6669 30.6196C73.8524 30.522 74.0062 30.3853 74.1283 30.2095C74.2552 30.0337 74.348 29.8237 74.4066 29.5796C74.4701 29.3354 74.5018 29.0645 74.5018 28.7666V28.3711C74.5018 28.0488 74.4457 27.7437 74.3334 27.4556C74.2259 27.1626 74.0721 26.8916 73.8719 26.6426C73.7694 26.5107 73.6693 26.3789 73.5716 26.2471C73.4789 26.1152 73.3959 25.9834 73.3226 25.8516C73.2494 25.7148 73.1883 25.5781 73.1395 25.4414C73.0956 25.2998 73.0736 25.1558 73.0736 25.0093C73.0736 24.897 73.0809 24.7822 73.0956 24.665C73.1151 24.5479 73.1444 24.4282 73.1835 24.3062C73.2274 24.1792 73.286 24.0449 73.3592 23.9033C73.4325 23.7617 73.5252 23.6079 73.6376 23.4419L75.3954 23.9326C75.3514 23.9863 75.305 24.0425 75.2562 24.1011C75.2123 24.1548 75.1708 24.2061 75.1317 24.2549C75.0926 24.3037 75.056 24.3477 75.0218 24.3867C74.9925 24.4209 74.9754 24.4453 74.9706 24.46C74.8876 24.5723 74.8241 24.6675 74.7801 24.7456C74.7362 24.8237 74.7142 24.9116 74.7142 25.0093C74.7142 25.1655 74.7777 25.334 74.9046 25.5146C75.0365 25.6953 75.1878 25.8833 75.3587 26.0786H75.3514C75.6053 26.3667 75.808 26.6841 75.9593 27.0308C76.1156 27.3726 76.1937 27.7754 76.1937 28.2393V28.8618ZM84.0526 26.2983C84.0526 25.5073 83.8963 24.8921 83.5838 24.4526C83.2762 24.0132 82.849 23.7324 82.3021 23.6104C82.3168 23.9619 82.3338 24.3257 82.3534 24.7017C82.3729 25.0776 82.3924 25.4536 82.412 25.8296C82.4315 26.2056 82.451 26.5791 82.4706 26.9502C82.4901 27.3164 82.5072 27.6655 82.5218 27.9976H80.7201L80.9398 23.625C80.6908 23.6934 80.4588 23.7983 80.244 23.9399C80.034 24.0815 79.8509 24.2622 79.6947 24.4819C79.5433 24.7017 79.4237 24.9629 79.3358 25.2656C79.2528 25.5684 79.2113 25.9126 79.2113 26.2983V28.3052C79.2113 28.6079 79.2674 28.9082 79.3797 29.2061C79.4969 29.499 79.6605 29.7603 79.8705 29.9897C80.0853 30.2192 80.3417 30.4048 80.6395 30.5464C80.9374 30.688 81.2718 30.7588 81.6429 30.7588C81.9945 30.7588 82.3168 30.6929 82.6097 30.561C82.9076 30.4292 83.1615 30.251 83.3714 30.0264C83.5863 29.8018 83.7523 29.543 83.8695 29.25C83.9916 28.9521 84.0526 28.6372 84.0526 28.3052V26.2983ZM85.7518 28.3052C85.7518 28.6909 85.6957 29.0596 85.5834 29.4111C85.4759 29.7578 85.3246 30.0801 85.1293 30.3779C84.9388 30.6709 84.7118 30.9395 84.4481 31.1836C84.1893 31.4229 83.9061 31.6279 83.5985 31.7988C83.2958 31.9648 82.9759 32.0942 82.639 32.187C82.307 32.2749 81.975 32.3188 81.6429 32.3188C81.306 32.3188 80.9691 32.2749 80.6322 32.187C80.2953 32.0942 79.973 31.9648 79.6654 31.7988C79.3627 31.6328 79.0794 31.4302 78.8158 31.1909C78.557 30.9517 78.3299 30.6831 78.1346 30.3853C77.9442 30.0874 77.7928 29.7651 77.6805 29.4185C77.5731 29.0669 77.5194 28.6958 77.5194 28.3052V26.2983C77.5194 25.7563 77.6073 25.2534 77.7831 24.7896C77.9637 24.3208 78.203 23.9033 78.5008 23.5371C78.7987 23.1709 79.1429 22.8657 79.5336 22.6216C79.9291 22.3726 80.3417 22.1968 80.7713 22.0942C80.6835 21.9233 80.5931 21.75 80.5003 21.5742C80.4076 21.3936 80.3368 21.2568 80.2879 21.1641H82.8294L82.4486 22.0796C82.8783 22.1821 83.2909 22.3555 83.6864 22.5996C84.0868 22.8438 84.4383 23.1489 84.7411 23.5151C85.0487 23.8765 85.2928 24.2939 85.4735 24.7676C85.659 25.2363 85.7518 25.7466 85.7518 26.2983V28.3052ZM93.391 29.6089C93.391 30.0874 93.3031 30.4976 93.1273 30.8394C92.9564 31.1812 92.7245 31.4619 92.4315 31.6816C92.1434 31.9014 91.8089 32.0625 91.4281 32.165C91.0472 32.2676 90.6493 32.3188 90.2342 32.3188C89.7752 32.3188 89.3504 32.248 88.9598 32.1064C88.5741 31.96 88.2396 31.7598 87.9564 31.5059C87.6781 31.2471 87.4608 30.9443 87.3045 30.5977C87.1483 30.251 87.0702 29.8726 87.0702 29.4624C87.0702 29.1646 87.0824 28.9082 87.1068 28.6934C87.1361 28.4736 87.1825 28.2734 87.246 28.0928C87.3143 27.9121 87.4046 27.7437 87.5169 27.5874C87.6293 27.4263 87.7709 27.2554 87.9418 27.0747L89.2088 27.5801C89.1063 27.7119 89.0257 27.8438 88.9671 27.9756C88.9086 28.1025 88.8622 28.2393 88.828 28.3857C88.7987 28.5322 88.7792 28.6958 88.7694 28.8765C88.7645 29.0522 88.7621 29.2524 88.7621 29.4771C88.7621 29.8921 88.8817 30.2095 89.121 30.4292C89.3602 30.6489 89.7313 30.7588 90.2342 30.7588C90.6835 30.7588 91.0399 30.6538 91.3036 30.4438C91.5672 30.229 91.6991 29.9385 91.6991 29.5723V23.7935C91.6991 23.481 91.5892 23.2271 91.3695 23.0317C91.1546 22.8364 90.8592 22.7388 90.4833 22.7388C90.0926 22.7388 89.7752 22.834 89.5311 23.0244C89.2919 23.2148 89.1722 23.4761 89.1722 23.8081C89.1722 23.9302 89.1771 24.0547 89.1869 24.1816C89.1966 24.3086 89.2381 24.4624 89.3114 24.6431L87.9857 25.1191C87.9027 25.002 87.8319 24.8994 87.7733 24.8115C87.7196 24.7188 87.6732 24.626 87.6341 24.5332C87.6 24.4404 87.5731 24.3379 87.5536 24.2256C87.5389 24.1133 87.5316 23.9741 87.5316 23.8081C87.5316 23.4126 87.6 23.0537 87.7367 22.7314C87.8734 22.4043 88.0663 22.126 88.3153 21.8965C88.5643 21.6621 88.8646 21.4814 89.2162 21.3545C89.5677 21.2275 89.9608 21.1641 90.3954 21.1641C90.8202 21.1641 91.2132 21.2202 91.5746 21.3325C91.9408 21.4448 92.2582 21.6133 92.5267 21.8379C92.7953 22.0576 93.0052 22.3311 93.1566 22.6582C93.3128 22.9854 93.391 23.3638 93.391 23.7935V29.6089ZM105.41 28.6787C105.41 28.8984 105.369 29.1401 105.286 29.4038C105.207 29.6675 105.093 29.936 104.941 30.2095C104.795 30.478 104.617 30.7417 104.407 31.0005C104.197 31.2544 103.96 31.4814 103.696 31.6816C103.437 31.877 103.154 32.0356 102.847 32.1577C102.539 32.2749 102.217 32.3335 101.88 32.3335V30.7588C102.134 30.7588 102.37 30.6904 102.59 30.5537C102.815 30.4121 103.01 30.2388 103.176 30.0337C103.342 29.8286 103.472 29.6064 103.564 29.3672C103.662 29.123 103.711 28.8984 103.711 28.6934V27.6533C103.711 27.2725 103.664 26.9624 103.572 26.7231C103.484 26.479 103.371 26.2886 103.235 26.1519C103.098 26.0103 102.952 25.915 102.795 25.8662C102.644 25.8125 102.507 25.7856 102.385 25.7856C102.244 25.7856 102.095 25.8149 101.938 25.8735C101.782 25.9272 101.638 26.02 101.506 26.1519C101.374 26.2837 101.265 26.4595 101.177 26.6792C101.094 26.894 101.052 27.1626 101.052 27.4849V29.3818H99.3529V27.4849C99.3529 27.1626 99.3089 26.894 99.2211 26.6792C99.138 26.4595 99.0331 26.2837 98.9061 26.1519C98.7792 26.02 98.6376 25.9272 98.4813 25.8735C98.3299 25.8149 98.1859 25.7856 98.0492 25.7856C97.8832 25.7856 97.7196 25.8125 97.5585 25.8662C97.4022 25.915 97.2606 26.0103 97.1336 26.1519C97.0067 26.2886 96.9042 26.479 96.826 26.7231C96.7479 26.9624 96.7088 27.2725 96.7088 27.6533V28.73C96.7088 28.9302 96.7503 29.1475 96.8334 29.3818C96.9212 29.6162 97.0458 29.8359 97.2069 30.041C97.368 30.2461 97.5609 30.417 97.7855 30.5537C98.015 30.6904 98.2713 30.7588 98.5545 30.7588V32.3188C98.1639 32.3188 97.805 32.2578 97.4779 32.1357C97.1507 32.0137 96.8553 31.8525 96.5917 31.6523C96.3329 31.4521 96.1034 31.2227 95.9032 30.9639C95.703 30.7051 95.537 30.4414 95.4051 30.1729C95.2733 29.8994 95.1732 29.6309 95.1048 29.3672C95.0414 29.0986 95.0096 28.8569 95.0096 28.6421V27.6533C95.0096 27.126 95.0536 26.5986 95.1415 26.0713C95.2342 25.5439 95.3929 25.041 95.6175 24.5625C95.847 24.0791 96.1522 23.6323 96.5331 23.2222C96.9188 22.8071 97.4046 22.4482 97.9906 22.1455C98.5765 21.8379 99.2723 21.5986 100.078 21.4277C100.889 21.252 101.831 21.1641 102.905 21.1641V22.7388C101.582 22.7388 100.476 22.8877 99.5873 23.1855C98.6986 23.4834 98.015 23.8911 97.5365 24.4087L97.9979 24.2988C98.1981 24.2988 98.4007 24.3159 98.6058 24.3501C98.8109 24.3843 99.0086 24.4478 99.1991 24.5405C99.3944 24.6333 99.5775 24.7603 99.7484 24.9214C99.9242 25.0776 100.083 25.2827 100.224 25.5366C100.376 25.2876 100.542 25.085 100.723 24.9287C100.903 24.7676 101.089 24.6406 101.279 24.5479C101.47 24.4551 101.658 24.3916 101.843 24.3574C102.034 24.3184 102.214 24.2988 102.385 24.2988C102.766 24.2988 103.137 24.3574 103.498 24.4746C103.865 24.5918 104.189 24.7822 104.473 25.0459C104.756 25.3096 104.983 25.6562 105.154 26.0859C105.325 26.5107 105.41 27.0332 105.41 27.6533V28.6787ZM113.049 29.6162C113.049 30.0508 112.969 30.4365 112.807 30.7734C112.646 31.1055 112.424 31.3862 112.141 31.6157C111.863 31.8452 111.531 32.021 111.145 32.1431C110.759 32.2603 110.342 32.3188 109.892 32.3188C109.443 32.3188 109.026 32.2554 108.64 32.1284C108.259 31.9966 107.925 31.811 107.637 31.5718C107.353 31.3276 107.131 31.0347 106.97 30.6929C106.809 30.3511 106.728 29.9678 106.728 29.543V29.2793C106.728 29.0791 106.785 28.8789 106.897 28.6787C107.009 28.4736 107.173 28.2783 107.388 28.0928L108.735 28.6934C108.525 29.0254 108.42 29.333 108.42 29.6162C108.42 29.9775 108.535 30.2583 108.765 30.4585C108.999 30.6587 109.375 30.7588 109.892 30.7588C110.107 30.7588 110.305 30.7368 110.486 30.6929C110.666 30.644 110.82 30.5757 110.947 30.4878C111.079 30.3999 111.179 30.29 111.247 30.1582C111.321 30.0215 111.357 29.8652 111.357 29.6895V26.562C111.357 26.4155 111.333 26.2397 111.284 26.0347C111.24 25.8247 111.155 25.6245 111.028 25.4341C110.906 25.2437 110.73 25.0825 110.5 24.9507C110.276 24.8188 109.985 24.7529 109.629 24.7529C109.443 24.7529 109.294 24.7773 109.182 24.8262C109.07 24.8701 108.984 24.9263 108.926 24.9946C108.867 25.063 108.828 25.1387 108.808 25.2217C108.789 25.2998 108.779 25.3755 108.779 25.4487C108.779 25.6147 108.808 25.7661 108.867 25.9028C108.926 26.0347 109.011 26.1641 109.123 26.291L107.988 26.9795C107.832 26.8916 107.7 26.7891 107.593 26.6719C107.49 26.5547 107.405 26.4277 107.336 26.291C107.273 26.1543 107.226 26.0151 107.197 25.8735C107.168 25.7319 107.153 25.5928 107.153 25.4561C107.153 25.1338 107.207 24.8359 107.314 24.5625C107.427 24.2891 107.588 24.0522 107.798 23.8521C108.013 23.6519 108.271 23.4956 108.574 23.3833C108.882 23.271 109.233 23.2148 109.629 23.2148C110.005 23.2148 110.339 23.2856 110.632 23.4272C110.925 23.5688 111.189 23.7544 111.423 23.9839V22.6582H110.076V21.1641H113.049V29.6162ZM127.866 25.4341C127.866 25.6392 127.837 25.8687 127.778 26.1226C127.72 26.3765 127.637 26.6401 127.529 26.9136C127.422 27.1821 127.29 27.4556 127.134 27.7339C126.982 28.0073 126.814 28.2686 126.628 28.5176C126.443 28.7617 126.24 28.9863 126.02 29.1914C125.806 29.3965 125.581 29.5649 125.347 29.6968L124.211 28.6641C124.509 28.4443 124.778 28.1904 125.017 27.9023C125.256 27.6143 125.459 27.3188 125.625 27.0161C125.796 26.7134 125.925 26.418 126.013 26.1299C126.106 25.8418 126.152 25.5879 126.152 25.3682V24.5186C126.152 24.2402 126.123 23.9937 126.064 23.7788C126.011 23.564 125.932 23.3857 125.83 23.2441C125.732 23.0977 125.615 22.9878 125.478 22.9146C125.347 22.8413 125.205 22.8047 125.054 22.8047C124.809 22.8047 124.609 22.8438 124.453 22.9219C124.302 23 124.182 23.1099 124.094 23.2515C124.006 23.3882 123.945 23.5493 123.911 23.7349C123.882 23.9204 123.867 24.1206 123.867 24.3354V26.3789H122.241V24.3354C122.241 24.1255 122.226 23.9253 122.197 23.7349C122.173 23.5396 122.124 23.3687 122.051 23.2222C121.977 23.0757 121.875 22.9585 121.743 22.8706C121.611 22.7827 121.438 22.7388 121.223 22.7388C121.028 22.7388 120.864 22.7827 120.732 22.8706C120.605 22.9585 120.503 23.0757 120.425 23.2222C120.347 23.3687 120.29 23.5347 120.256 23.7202C120.222 23.9058 120.205 24.0962 120.205 24.2915V26.3789H118.564V24.2915C118.564 24.1011 118.555 23.9155 118.535 23.7349C118.52 23.5542 118.476 23.3955 118.403 23.2588C118.33 23.1221 118.215 23.0122 118.059 22.9292C117.908 22.8462 117.695 22.8047 117.422 22.8047C117.222 22.8047 117.051 22.856 116.909 22.9585C116.767 23.061 116.65 23.2002 116.557 23.376C116.465 23.5518 116.396 23.7593 116.352 23.9985C116.313 24.2329 116.294 24.4844 116.294 24.7529L116.308 25.6904C116.304 26.1689 116.384 26.6206 116.55 27.0454C116.716 27.4702 116.951 27.8608 117.253 28.2173C117.561 28.5688 117.927 28.8862 118.352 29.1694C118.777 29.4478 119.245 29.6846 119.758 29.8799C120.276 30.0752 120.827 30.2241 121.413 30.3267C122.004 30.4292 122.615 30.4805 123.244 30.4805H124.592V32.1797H123.274C122.341 32.1797 121.479 32.0942 120.688 31.9233C119.902 31.7524 119.189 31.5181 118.55 31.2202C117.91 30.9175 117.346 30.561 116.858 30.1509C116.374 29.7407 115.967 29.2964 115.635 28.8179C115.303 28.3345 115.049 27.8291 114.873 27.3018C114.702 26.7695 114.612 26.2349 114.602 25.6978L114.595 24.7163C114.595 24.2231 114.648 23.7642 114.756 23.3394C114.868 22.9146 115.039 22.5459 115.268 22.2334C115.498 21.9209 115.791 21.6768 116.147 21.501C116.504 21.3203 116.929 21.23 117.422 21.23C117.637 21.23 117.837 21.2544 118.022 21.3032C118.208 21.3472 118.381 21.4204 118.542 21.5229C118.703 21.6206 118.855 21.7451 118.996 21.8965C119.143 22.043 119.285 22.2188 119.421 22.4238C119.636 22.0234 119.888 21.7134 120.176 21.4937C120.464 21.2739 120.813 21.1641 121.223 21.1641C121.619 21.1641 121.965 21.2739 122.263 21.4937C122.566 21.7085 122.834 22.0137 123.069 22.4092C123.352 22.0186 123.662 21.7256 123.999 21.5303C124.341 21.3301 124.687 21.23 125.039 21.23C125.434 21.23 125.803 21.3008 126.145 21.4424C126.492 21.584 126.792 21.7915 127.046 22.0649C127.3 22.3384 127.5 22.6753 127.646 23.0757C127.793 23.4761 127.866 23.9351 127.866 24.4526V25.4341ZM135.513 28.9351C135.513 31.1909 134.458 32.3188 132.348 32.3188C131.826 32.3188 131.367 32.2334 130.972 32.0625C130.581 31.8867 130.251 31.6499 129.983 31.3521C129.719 31.0493 129.519 30.7002 129.382 30.3047C129.25 29.9092 129.184 29.4868 129.184 29.0376V28.5688C129.184 28.4126 129.209 28.2466 129.258 28.0708C129.307 27.8901 129.375 27.707 129.463 27.5215C129.551 27.3359 129.653 27.1455 129.77 26.9502C129.888 26.7549 130.015 26.562 130.151 26.3716L131.44 27.0161C131.255 27.3628 131.116 27.6753 131.023 27.9536C130.93 28.2319 130.884 28.437 130.884 28.5688V29.0742C130.884 29.3477 130.908 29.5894 130.957 29.7993C131.011 30.0093 131.094 30.1851 131.206 30.3267C131.323 30.4683 131.474 30.5757 131.66 30.6489C131.846 30.7222 132.075 30.7588 132.348 30.7588C132.602 30.7588 132.82 30.7271 133 30.6636C133.186 30.5952 133.337 30.4878 133.454 30.3413C133.577 30.1899 133.667 29.9971 133.725 29.7627C133.784 29.5234 133.813 29.2329 133.813 28.8911V28.1221C133.813 27.8291 133.772 27.5605 133.689 27.3164C133.606 27.0674 133.498 26.8354 133.367 26.6206C133.235 26.4058 133.083 26.2031 132.912 26.0127C132.742 25.8174 132.568 25.627 132.392 25.4414C132.192 25.2314 131.997 25.019 131.807 24.8042C131.616 24.5845 131.445 24.3525 131.294 24.1084C131.147 23.8643 131.028 23.5981 130.935 23.3101C130.847 23.022 130.803 22.7021 130.803 22.3506V21.1641H132.429V22.3506C132.429 22.5605 132.463 22.7607 132.532 22.9512C132.605 23.1367 132.7 23.3174 132.817 23.4932C132.939 23.6689 133.076 23.8423 133.227 24.0132C133.384 24.1841 133.542 24.3574 133.703 24.5332V24.5259C133.923 24.7603 134.14 25.002 134.355 25.251C134.57 25.4951 134.763 25.7612 134.934 26.0493C135.105 26.3374 135.244 26.6523 135.351 26.9941C135.459 27.3311 135.513 27.707 135.513 28.1221V28.9351ZM138.53 29.0376C138.53 29.2622 138.557 29.4795 138.611 29.6895C138.669 29.8945 138.757 30.0776 138.874 30.2388C138.996 30.395 139.148 30.522 139.328 30.6196C139.514 30.7124 139.736 30.7588 139.995 30.7588C140.264 30.7588 140.491 30.7075 140.676 30.605C140.862 30.5024 141.013 30.3706 141.13 30.2095C141.247 30.0483 141.33 29.8726 141.379 29.6821C141.433 29.4868 141.46 29.2988 141.46 29.1182V27.7339C141.46 27.5386 141.428 27.3384 141.365 27.1333C141.306 26.9233 141.216 26.7354 141.094 26.5693C140.976 26.3984 140.825 26.2593 140.64 26.1519C140.459 26.0444 140.244 25.9907 139.995 25.9907C139.731 25.9907 139.507 26.0396 139.321 26.1372C139.136 26.23 138.984 26.3594 138.867 26.5254C138.75 26.6865 138.664 26.877 138.611 27.0967C138.557 27.3115 138.53 27.5386 138.53 27.7778V29.0376ZM139.409 21.1641C139.409 21.335 139.431 21.4814 139.475 21.6035C139.524 21.7207 139.585 21.8208 139.658 21.9038C139.731 21.9868 139.814 22.0576 139.907 22.1162C140 22.1699 140.093 22.2188 140.185 22.2627C140.322 22.3311 140.456 22.4043 140.588 22.4824C140.725 22.5557 140.847 22.6436 140.954 22.7461C141.062 22.8438 141.147 22.9585 141.211 23.0903C141.279 23.2222 141.313 23.3784 141.313 23.5591C141.313 23.7886 141.296 23.9839 141.262 24.145C141.233 24.3013 141.182 24.4624 141.108 24.6284C141.445 24.7651 141.741 24.9507 141.994 25.1851C142.253 25.4146 142.466 25.6685 142.632 25.9468C142.803 26.2251 142.93 26.5156 143.013 26.8184C143.1 27.1211 143.144 27.4092 143.144 27.6826L143.159 29.1987C143.159 29.4087 143.127 29.6333 143.064 29.8726C143.005 30.1069 142.915 30.3413 142.793 30.5757C142.676 30.8052 142.527 31.0249 142.346 31.2349C142.17 31.4448 141.965 31.6304 141.731 31.7915C141.496 31.9526 141.233 32.082 140.94 32.1797C140.652 32.2725 140.337 32.3188 139.995 32.3188C139.473 32.3188 139.014 32.2236 138.618 32.0332C138.227 31.8428 137.898 31.5986 137.629 31.3008C137.366 30.998 137.165 30.6611 137.029 30.29C136.897 29.9141 136.831 29.5454 136.831 29.1841V27.6973C136.831 27.3652 136.877 27.0308 136.97 26.6938C137.063 26.3521 137.212 26.0371 137.417 25.749C137.627 25.4609 137.895 25.2095 138.223 24.9946C138.555 24.7749 138.957 24.6187 139.431 24.5259C139.475 24.4136 139.509 24.3159 139.534 24.2329C139.558 24.1499 139.577 24.0742 139.592 24.0059C139.607 23.9375 139.614 23.8716 139.614 23.8081C139.619 23.7446 139.621 23.6763 139.621 23.603C139.602 23.564 139.543 23.5176 139.446 23.4639C139.353 23.4102 139.241 23.3491 139.109 23.2808C138.948 23.1978 138.784 23.1074 138.618 23.0098C138.457 22.9072 138.308 22.7778 138.171 22.6216C138.035 22.4653 137.922 22.27 137.834 22.0356C137.751 21.8013 137.71 21.5107 137.71 21.1641H139.409ZM151.018 27.8364C151.013 28.3198 150.976 28.8081 150.908 29.3013C150.84 29.7944 150.713 30.251 150.527 30.6709C150.347 31.0908 150.09 31.4546 149.758 31.7622C149.431 32.0698 149.001 32.2847 148.469 32.4067L148.308 30.7588C148.645 30.7588 148.899 30.5098 149.07 30.0117C149.241 29.5088 149.326 28.7983 149.326 27.8804V25.3535C149.326 24.9434 149.304 24.5771 149.26 24.2549C149.221 23.9277 149.148 23.6519 149.04 23.4272C148.933 23.2026 148.786 23.0317 148.601 22.9146C148.42 22.7974 148.191 22.7388 147.912 22.7388C147.6 22.7388 147.344 22.7998 147.143 22.9219C146.948 23.0439 146.794 23.2197 146.682 23.4492C146.57 23.6738 146.492 23.9521 146.448 24.2842C146.409 24.6113 146.389 24.9824 146.389 25.3975V27.8804C146.389 28.3296 146.399 28.7324 146.418 29.0889C146.443 29.4453 146.482 29.748 146.536 29.9971C146.594 30.2412 146.672 30.4292 146.77 30.561C146.868 30.6929 146.99 30.7588 147.136 30.7588L147.121 32.3921C146.75 32.3237 146.431 32.2065 146.162 32.0405C145.898 31.8745 145.676 31.6768 145.495 31.4473C145.32 31.2129 145.178 30.9517 145.071 30.6636C144.963 30.3755 144.883 30.0776 144.829 29.77C144.775 29.4575 144.739 29.1401 144.719 28.8179C144.704 28.4956 144.697 28.1831 144.697 27.8804V25.4194C144.697 25.0923 144.714 24.7603 144.748 24.4233C144.783 24.0864 144.844 23.7617 144.932 23.4492C145.024 23.1318 145.146 22.834 145.298 22.5557C145.449 22.2773 145.642 22.0356 145.876 21.8306C146.111 21.6255 146.391 21.4644 146.719 21.3472C147.046 21.2251 147.427 21.1641 147.861 21.1641C148.525 21.1641 149.065 21.2788 149.48 21.5083C149.895 21.7329 150.217 22.0381 150.447 22.4238C150.676 22.8096 150.83 23.2563 150.908 23.7642C150.991 24.2671 151.033 24.7969 151.033 25.3535L151.018 27.8364Z" fill="#FDC234"/>
<path d="M41.8917 31.3368L38.2725 29.7881C38.3979 29.845 38.4466 29.9193 38.446 30.0806C38.4388 32.4368 38.4436 34.7931 38.437 37.1493C38.4364 37.3543 38.4904 37.405 38.6837 37.4025C39.67 37.3918 40.6568 37.3925 41.6425 37.4025C41.8274 37.405 41.8634 37.3468 41.8628 37.1662C41.8562 35.2956 41.8586 33.4243 41.8586 31.5537C41.8586 31.4168 41.8586 31.3531 41.8917 31.3368ZM39.5727 19.635L40.3891 17.44C39.2143 17.7031 38.0222 17.8356 36.8282 17.9525C35.7002 18.0625 34.5705 18.1375 33.4383 18.1818C33.203 18.1912 32.9671 18.195 32.7312 18.2006C31.1854 18.2725 29.6385 18.2668 28.0921 18.2256C27.903 18.2206 27.7145 18.2093 27.526 18.2012C26.58 18.1868 25.6363 18.1343 24.6933 18.0625C23.7574 17.9912 22.8221 17.9087 21.8911 17.7837C21.202 17.6912 20.5116 17.6031 19.8357 17.4306L20.6869 19.6362C20.6587 19.5 20.6833 19.4831 20.8076 19.5012C21.7164 19.6343 22.6301 19.7287 23.5437 19.82C24.7203 19.9375 25.9004 20.0043 27.0806 20.0512C29.106 20.1318 31.1326 20.1343 33.158 20.0512C34.723 19.9875 36.2867 19.8925 37.8433 19.6993C38.3793 19.6325 38.916 19.5725 39.4515 19.5006C39.5751 19.4837 39.6045 19.4993 39.5727 19.635ZM33.679 7.77308C33.6784 7.92183 33.6862 8.06871 33.7295 8.21058C33.8729 8.67558 34.337 8.79433 34.6737 8.45308C34.834 8.29121 34.9181 8.08683 34.9763 7.86683C35.1342 7.27183 35.2986 6.67808 35.4517 6.08183C35.4817 5.96496 35.4997 5.91996 35.597 5.98371L33.6274 4.51996C33.6652 4.72183 33.6832 4.93433 33.6808 5.15746C33.673 6.02933 33.6802 6.90121 33.679 7.77308ZM25.3194 7.98308C25.3842 8.21746 25.4971 8.42433 25.7078 8.55246C26.0187 8.74183 26.3291 8.64371 26.4839 8.30746C26.5188 8.23246 26.5386 8.15058 26.565 8.07121C26.568 7.02808 26.5704 5.98433 26.574 4.94121C26.5746 4.80183 26.5602 4.66058 26.6202 4.52871L24.7365 5.93058C24.8079 6.01058 24.8109 6.11183 24.8355 6.19996C24.9988 6.79371 25.1549 7.38933 25.3194 7.98308ZM18.4022 31.5131C18.3986 33.3912 18.4034 35.2693 18.3956 37.1468C18.3944 37.3487 18.44 37.4056 18.6381 37.4031C19.6178 37.3918 20.5975 37.39 21.5765 37.4043C21.7944 37.4075 21.8269 37.3331 21.8263 37.1318C21.8197 34.7893 21.8245 32.4475 21.8179 30.1056C21.8173 29.9356 21.8575 29.8462 21.9997 29.7806L18.2401 31.3606C18.3944 31.3012 18.4028 31.3668 18.4022 31.5131Z" fill="#24282D"/>
<path d="M30.1235 46.7093C28.1498 46.7199 26.1826 46.5931 24.2172 46.4087C22.3948 46.2374 20.5771 46.0256 18.7654 45.7606C16.2928 45.3993 13.8238 45.0149 11.3836 44.4587C10.539 44.2662 10.0233 43.6031 10.0011 42.7018C9.99091 42.2899 10.0509 41.8906 10.1764 41.5C10.8025 39.5506 11.4346 37.6024 12.0487 35.6487C12.4563 34.3512 13.2517 33.4424 14.4673 32.9343C15.7183 32.4112 16.9717 31.8949 18.2215 31.3681C18.395 31.2949 18.404 31.3599 18.4034 31.5124C18.3998 33.3906 18.4046 35.2681 18.3962 37.1462C18.3956 37.3481 18.4406 37.4043 18.6393 37.4024C19.619 37.3912 20.5987 37.3893 21.5778 37.4037C21.7951 37.4068 21.8275 37.3331 21.8275 37.1312C21.8209 34.7893 21.8257 32.4468 21.8191 30.1049C21.8185 29.9231 21.8647 29.8337 22.0322 29.7668C22.6679 29.5137 23.2994 29.2487 23.9261 28.9737C24.0858 28.9037 24.1914 28.9274 24.3241 29.0337C26.0265 30.3943 27.7326 31.7499 29.4392 33.1049C29.9284 33.4937 30.3264 33.4899 30.8193 33.0987C32.5313 31.7393 34.2439 30.3812 35.9518 29.0162C36.0778 28.9156 36.1757 28.9106 36.3149 28.9706C36.9567 29.2462 37.6008 29.5149 38.2473 29.7768C38.392 29.8356 38.4472 29.9087 38.4466 30.0812C38.4394 32.4374 38.4448 34.7937 38.4376 37.1499C38.437 37.3549 38.491 37.4056 38.6849 37.4031C39.6712 37.3924 40.6575 37.3924 41.6437 37.4031C41.8286 37.4049 41.8641 37.3468 41.8635 37.1668C41.8569 35.2962 41.8593 33.4249 41.8593 31.5543C41.8593 31.2981 41.8599 31.2974 42.0766 31.3874C43.2345 31.8687 44.3847 32.3724 45.5523 32.8268C46.9437 33.3674 47.8232 34.3656 48.2722 35.8343C48.8623 37.7662 49.4992 39.6824 50.1115 41.6068C50.267 42.0949 50.3144 42.5993 50.2093 43.1043C50.0557 43.8418 49.5838 44.2862 48.9037 44.4487C47.2661 44.8406 45.6057 45.1124 43.9459 45.3849C42.6588 45.5962 41.3694 45.7843 40.077 45.9562C38.7509 46.1325 37.4213 46.2749 36.0904 46.4031C34.5363 46.5531 32.9803 46.6624 31.4202 46.7081C30.988 46.7199 30.5557 46.7093 30.1235 46.7093ZM30.1403 39.6431C27.6953 39.6431 25.251 39.6431 22.806 39.6431C21.4013 39.6431 19.9966 39.6431 18.5919 39.6431C18.4947 39.6431 18.3956 39.6106 18.3968 39.7899C18.404 41.1399 18.4016 42.4899 18.3986 43.8399C18.3986 43.9468 18.4304 43.9856 18.5343 43.9962C18.9509 44.0387 19.3663 44.0887 19.7817 44.1399C20.8814 44.2756 21.9854 44.3674 23.0893 44.4512C24.2947 44.5424 25.5013 44.6181 26.7085 44.6818C28.3004 44.7656 29.893 44.8181 31.4874 44.7656C33.7283 44.6918 35.9662 44.5643 38.1999 44.3656C39.3566 44.2624 40.5122 44.1481 41.6654 44.0068C41.8376 43.9856 41.8641 43.9168 41.8635 43.7568C41.8575 42.4631 41.8551 41.1693 41.8653 39.8756C41.8671 39.6743 41.8064 39.6387 41.6293 39.6393C37.7989 39.6443 33.9696 39.6431 30.1403 39.6431Z" fill="#FDC234"/>
<path d="M27.5261 18.2006C26.5806 18.1868 25.6364 18.1337 24.6939 18.0618C23.758 17.9906 22.8228 17.9081 21.8917 17.7831C21.2026 17.6906 20.5117 17.6024 19.8363 17.4299C19.1004 17.2418 18.703 16.7162 18.5451 15.9681C18.3344 14.9681 18.6814 14.0918 19.4834 13.6174C19.7817 13.4406 20.1089 13.3512 20.451 13.3499C20.6017 13.3493 20.6455 13.2924 20.6581 13.1462C20.8082 11.3612 21.4139 9.75056 22.4092 8.29743C23.0455 7.36806 23.8247 6.58618 24.7371 5.92993C24.8092 6.00993 24.8122 6.11118 24.8362 6.19931C24.9994 6.79306 25.1555 7.38868 25.32 7.98181C25.3848 8.21618 25.4977 8.42306 25.709 8.55118C26.0199 8.74056 26.3303 8.64243 26.4852 8.30618C26.52 8.23118 26.5398 8.14868 26.5662 8.06993C26.6436 8.01681 26.6232 7.93306 26.6232 7.85868C26.6238 6.74806 26.6226 5.63743 26.622 4.52681C26.6677 4.10868 26.8495 3.74931 27.0915 3.42493C27.6287 2.70368 28.3563 2.30306 29.1997 2.11368C30.3871 1.84681 31.4994 2.04368 32.4989 2.76931C33.2865 3.34118 33.6917 4.13993 33.6827 5.15556C33.6749 6.02743 33.6821 6.89931 33.6803 7.77118C33.6803 7.91993 33.6875 8.06681 33.7313 8.20868C33.8742 8.67368 34.3382 8.79243 34.6756 8.45118C34.8352 8.28931 34.9199 8.08493 34.9781 7.86493C35.136 7.26993 35.2999 6.67618 35.4535 6.07993C35.486 5.95306 35.5052 5.91118 35.6282 6.00306C37.4219 7.34806 38.6315 9.12431 39.2654 11.3262C39.4365 11.9193 39.5517 12.5262 39.5962 13.1443C39.6082 13.3156 39.6826 13.3424 39.8255 13.3481C40.7019 13.3818 41.4 13.9124 41.6672 14.7393C41.6882 14.8049 41.6948 14.8756 41.708 14.9437C41.7062 15.2824 41.705 15.6212 41.7032 15.9599C41.6258 16.6631 41.0807 17.2831 40.3904 17.4381C39.2162 17.7018 38.024 17.8343 36.8294 17.9506C35.7015 18.0606 34.5717 18.1356 33.4396 18.1806C33.2042 18.1899 32.9683 18.1931 32.7324 18.1993C30.9964 18.2006 29.2615 18.2006 27.5261 18.2006Z" fill="#FEC234"/>
<path d="M29.9314 27.673C25.9029 27.6324 22.3053 24.903 20.9757 20.7537C20.858 20.3874 20.7668 20.0137 20.6875 19.6362C20.6587 19.4999 20.6833 19.483 20.8076 19.5012C21.7164 19.6343 22.6301 19.7287 23.5437 19.8199C24.7203 19.9374 25.9005 20.0043 27.0806 20.0512C29.106 20.1318 31.1326 20.1343 33.1574 20.0512C34.7224 19.9874 36.2861 19.8924 37.8427 19.6987C38.3787 19.6318 38.9154 19.5718 39.4509 19.4999C39.5745 19.483 39.6039 19.4987 39.5721 19.6343C38.6837 23.4368 36.4932 26.0024 32.9077 27.2387C31.9976 27.553 31.0546 27.6755 29.9314 27.673Z" fill="#FDC234"/>
<path d="M27.5261 18.2006C29.2615 18.2006 30.9964 18.2006 32.7318 18.2006C31.1854 18.2718 29.6391 18.2668 28.0921 18.2256C27.9036 18.2206 27.7146 18.2093 27.5261 18.2006Z" fill="#FDC234"/>
<path d="M26.6214 4.52869C26.622 5.63931 26.6232 6.74994 26.6226 7.86056C26.6226 7.93494 26.6432 8.01869 26.565 8.07181C26.568 7.02806 26.5705 5.98494 26.5741 4.94119C26.5753 4.80181 26.5608 4.66056 26.6214 4.52869Z" fill="#FDC234"/>
<path d="M41.702 15.9612C41.7038 15.6224 41.705 15.2837 41.7068 14.9449C41.8008 15.2843 41.7911 15.6231 41.702 15.9612Z" fill="#FDC234"/>
<path d="M30.1403 39.643C33.9696 39.643 37.7988 39.6443 41.6281 39.6393C41.8052 39.6393 41.8652 39.6749 41.864 39.8755C41.8544 41.1693 41.8562 42.463 41.8622 43.7568C41.8628 43.9174 41.8364 43.9855 41.6641 44.0068C40.511 44.1487 39.3554 44.263 38.1986 44.3655C35.965 44.5643 33.7271 44.6918 31.4862 44.7655C29.8918 44.818 28.2992 44.7655 26.7072 44.6818C25.5 44.618 24.2935 44.5424 23.0881 44.4512C21.9841 44.3674 20.8802 44.2755 19.7805 44.1399C19.3651 44.0887 18.9491 44.0387 18.533 43.9962C18.4298 43.9855 18.3974 43.9468 18.3974 43.8399C18.4004 42.4899 18.4022 41.1399 18.3956 39.7899C18.3944 39.6099 18.4934 39.643 18.5907 39.643C19.9954 39.6424 21.4 39.643 22.8047 39.643C25.2503 39.643 27.6953 39.643 30.1403 39.643Z" fill="#24282D"/>
</svg>
