<svg width="746" height="385" viewBox="0 0 746 385" fill="none" xmlns="http://www.w3.org/2000/svg">
<path d="M161.022 292.327C148.266 285.324 137.031 275.853 127.972 264.465C118.912 253.077 112.21 240 108.256 225.996C106.059 218.063 105.273 208.307 111.398 202.813C115.83 198.839 122.658 198.577 128.253 200.612C133.848 202.647 138.495 206.601 143.012 210.475C150.986 217.312 158.96 224.15 166.933 230.99C170.507 234.055 175.702 237.233 179.488 234.436C183.957 231.137 180.874 224.162 177.811 219.526C169.367 206.723 163.438 192.429 160.343 177.408C158.734 169.581 157.93 161.331 160.292 153.699C162.654 146.068 168.776 139.184 176.662 137.905C186.758 136.269 195.905 143.748 202.884 151.223C227.93 178.05 245.177 211.073 261.55 243.92C262.107 228.253 265.291 212.791 270.969 198.179C272.849 193.349 276.722 187.709 281.745 188.999C284.076 189.601 285.738 191.598 287.233 193.484C302.966 213.317 318.697 233.151 334.426 252.984C337.285 256.591 340.311 260.785 339.614 265.333C338.6 271.973 330.716 274.754 324.137 276.121C267.577 287.855 203.966 315.609 161.022 292.327Z" fill="#BBA211"/>
<path d="M688.983 205.048C686.566 205.847 683.993 203.748 683.219 201.318C682.446 198.888 682.915 196.27 683.167 193.736C683.885 186.464 682.723 179.143 682.791 171.84C682.859 164.536 684.405 156.77 689.507 151.543C689.609 160.559 690.825 169.529 693.129 178.247C694.303 182.668 695.759 187.095 695.785 191.673C695.811 196.251 695.104 203.029 688.983 205.048Z" fill="#BBA211"/>
<path d="M692.858 177.151C689.498 176.918 686.158 176.452 682.863 175.755C683.085 181.759 683.761 187.764 683.167 193.738C682.914 196.272 682.444 198.892 683.219 201.32C683.994 203.749 686.564 205.847 688.983 205.05C695.104 203.031 695.812 196.25 695.785 191.675C695.758 187.1 694.3 182.672 693.128 178.249C693.032 177.884 692.952 177.516 692.858 177.151Z" fill="#A88F13"/>
<path d="M687.57 223.928C687.205 223.929 686.855 223.785 686.596 223.529C686.337 223.273 686.191 222.924 686.188 222.56L685.946 188.9C685.944 188.535 686.088 188.183 686.345 187.923C686.601 187.663 686.951 187.515 687.317 187.512H687.326C687.69 187.511 688.041 187.654 688.3 187.911C688.559 188.168 688.705 188.517 688.707 188.882L688.948 222.538C688.95 222.903 688.808 223.255 688.551 223.515C688.295 223.776 687.945 223.924 687.58 223.928H687.57Z" fill="#77620A"/>
<path d="M646.307 184.794C639.761 181.329 634.787 175.494 632.402 168.482C628.902 158.03 631.633 146.676 633.04 135.741C634.578 123.747 634.466 111.599 635.557 99.5536C636.649 87.5077 639.05 75.3141 645.142 64.8653C645.53 64.2021 646.025 63.4769 646.787 63.3601C647.858 63.193 648.659 64.294 649.126 65.2714C653.59 74.653 652.235 85.6255 653.538 95.9361C654.461 103.244 656.754 110.362 657.191 117.717C657.685 126.066 655.764 134.379 655.672 142.742C655.594 149.657 656.764 156.519 657.019 163.426C657.274 170.334 656.527 177.542 652.967 183.465C652.335 184.519 651.536 185.586 650.363 185.943C649.19 186.3 647.661 185.505 646.307 184.794Z" fill="#BBA211"/>
<path d="M653.713 97.1304C653.657 96.7319 653.588 96.3347 653.538 95.9362C652.243 85.6704 653.574 74.7504 649.18 65.3951C648.005 64.9084 646.789 64.5254 645.547 64.2505C645.402 64.4483 645.266 64.6535 645.141 64.8653C640.671 72.5325 638.201 81.1412 636.765 89.9391C637.903 92.0636 639.49 93.9154 641.415 95.3663C643.166 96.6394 645.202 97.4656 647.345 97.773C649.489 98.0804 651.675 97.8599 653.713 97.1304Z" fill="#E2C639"/>
<path d="M657.017 163.507C655.737 159.732 653.611 156.3 650.801 153.473C645.63 148.342 638.964 145.235 632.035 142.761C630.753 151.465 629.645 160.253 632.401 168.482C634.787 175.494 639.761 181.329 646.306 184.794C647.058 185.218 647.847 185.571 648.663 185.849C650.362 185.125 651.924 184.116 653.283 182.864C656.535 177.08 657.255 170.165 657.017 163.507Z" fill="#A88F13"/>
<path d="M669.511 192.089C667.057 191.045 664.848 189.432 662.433 185.709C658.532 184.925 656.193 180.586 656.28 176.61C656.366 172.633 658.263 168.95 660.098 165.42C661.933 161.89 663.794 158.182 663.8 154.205C663.8 149.536 661.24 145.14 661.313 140.472C661.401 134.685 665.413 129.839 668.114 124.723C670.849 119.533 672.316 113.77 672.397 107.905C677.493 116.14 673.259 127.417 677.284 136.225C678.34 138.534 679.938 140.594 680.731 143.009C681.531 145.446 681.456 148.069 681.371 150.635C681.07 159.898 680.768 169.161 680.465 178.424C680.326 182.625 680.05 187.193 677.277 190.351C676.364 191.469 675.103 192.248 673.694 192.563C672.286 192.878 670.813 192.712 669.511 192.089Z" fill="#BBA211"/>
<path d="M680.826 167.173C677.537 162.269 672.701 158.412 667.432 155.649C666.237 155.027 665.014 154.461 663.781 153.926C663.781 154.019 663.8 154.111 663.8 154.202C663.794 158.179 661.935 161.89 660.098 165.417C658.262 168.944 656.368 172.63 656.28 176.607C656.191 180.584 658.532 184.922 662.433 185.706C664.85 189.429 667.057 191.042 669.511 192.087C670.812 192.708 672.284 192.875 673.691 192.56C675.098 192.246 676.359 191.469 677.271 190.353C680.047 187.195 680.322 182.627 680.459 178.426C680.582 174.676 680.704 170.925 680.826 167.173Z" fill="#A88F13"/>
<path d="M645.527 224.312H645.502C645.137 224.304 644.789 224.153 644.535 223.889C644.282 223.626 644.143 223.273 644.149 222.907C645.029 175.173 645.435 126.789 645.353 79.0952C645.353 78.7295 645.498 78.3788 645.756 78.1198C646.015 77.8609 646.365 77.7148 646.731 77.7137C647.097 77.7137 647.448 77.8593 647.707 78.1183C647.967 78.3774 648.112 78.7288 648.112 79.0952C648.195 126.805 647.788 175.206 646.906 222.961C646.898 223.321 646.749 223.664 646.492 223.917C646.234 224.169 645.888 224.311 645.527 224.312Z" fill="#77620A"/>
<path d="M670.247 224.723C669.881 224.723 669.529 224.578 669.27 224.319C669.011 224.06 668.866 223.708 668.866 223.342L668.801 148.012C668.801 147.646 668.946 147.295 669.204 147.036C669.462 146.777 669.812 146.631 670.178 146.63C670.359 146.63 670.539 146.665 670.707 146.734C670.874 146.803 671.027 146.904 671.155 147.032C671.283 147.16 671.385 147.312 671.455 147.48C671.524 147.647 671.56 147.826 671.56 148.008L671.629 223.338C671.629 223.703 671.484 224.054 671.226 224.313C670.968 224.572 670.618 224.718 670.252 224.719L670.247 224.723Z" fill="#77620A"/>
<path d="M677.278 136.226C674.399 129.924 675.734 122.361 674.868 115.55C673.17 115.446 671.772 116.566 671.423 119.647C670.661 126.376 669.898 133.105 669.136 139.834C672.195 139.707 675.127 138.571 677.472 136.603C677.409 136.475 677.34 136.358 677.278 136.226Z" fill="#E2C639"/>
<path d="M608.738 227.629C618.989 214.286 633.407 204.755 649.699 200.552C652.505 199.838 656.279 199.728 657.436 202.382C658.148 204.018 657.407 205.905 656.567 207.479C653.892 212.494 650.193 216.89 645.709 220.382C655.931 213.539 667.474 208.915 679.593 206.809C681.121 206.446 682.708 206.413 684.25 206.711C685.765 207.11 687.183 208.276 687.403 209.825C687.667 211.67 686.248 213.296 684.879 214.562C680.422 218.676 675.383 222.11 669.924 224.755C688.968 214.958 711.045 209.453 731.962 214.026C736.196 214.95 741.193 217.355 741.16 221.693C741.142 223.96 739.593 225.996 737.673 227.204C735.752 228.411 733.491 228.931 731.271 229.404C702.431 235.572 672.84 237.215 643.39 238.841C632.273 239.452 621.137 240.066 610.006 239.722C606.582 239.619 602.849 239.298 600.345 236.959C597.841 234.62 597.855 229.564 608.738 227.629Z" fill="#917B0C"/>
<path d="M741.162 221.688C741.184 218.69 738.802 216.616 735.93 215.316C732.041 215.277 728.083 216.175 724.247 217.038C687.062 225.357 648.838 228.039 610.856 224.995C610.131 225.856 609.422 226.733 608.739 227.629C597.855 229.563 597.84 234.618 600.347 236.954C602.853 239.291 606.583 239.613 610.007 239.717C621.139 240.063 632.275 239.447 643.392 238.836C672.841 237.211 702.433 235.567 731.272 229.399C733.493 228.925 735.752 228.404 737.674 227.199C739.597 225.994 741.144 223.955 741.162 221.688Z" fill="#77620A"/>
<path d="M246.899 253.38C172.886 254.433 99.6013 264.32 29.9245 282.653C15.7367 286.39 -0.887331 293.26 0.0368798 304.293C1.04951 316.365 21.5514 321.109 37.8895 322.763C92.3152 328.284 146.74 333.805 201.164 339.325C206.369 339.853 212.078 340.581 215.418 343.556C221.005 348.534 205 353 205 366C205 394.938 321.5 380.855 333.5 379C462.5 359.062 464.5 368 483 365.881C579.5 365.881 537.857 300.855 719.587 254.512C726.702 252.697 734.055 250.782 739.505 246.969C744.956 243.156 747.973 236.884 744.547 231.963C740.038 225.49 728.002 224.808 718.092 225.036C583.509 228.152 449.471 239.049 317.226 257.625L246.899 253.38Z" fill="#24282D"/>
<path d="M553.776 244.035C466.462 246.149 379.323 252.928 292.733 264.343C276.406 266.497 260.031 268.829 244.235 273.483C240.619 274.546 236.53 276.235 235.519 279.866C234.577 283.24 236.97 286.829 240.084 288.436C243.197 290.043 246.843 290.139 250.347 290.2C358.996 292.016 467.607 284.734 575.042 268.431C595.468 265.331 616.033 261.853 635.219 254.186C639.359 252.528 644.212 249.154 643.014 244.861C641.994 241.209 637.38 240.195 633.6 239.917C605.253 237.809 576.942 243.473 553.776 244.035Z" fill="#F0E3E1"/>
<path d="M143.009 210.478C138.492 206.604 133.843 202.651 128.25 200.615C122.657 198.58 115.83 198.842 111.396 202.816C110.309 203.794 109.395 204.949 108.694 206.232C111.714 212.77 116.022 218.735 121.879 222.863C129.1 227.944 138.854 229.865 146.998 226.448C150.061 225.22 152.62 222.993 154.258 220.128C150.51 216.91 146.761 213.694 143.009 210.478Z" fill="#E2C639"/>
<path d="M162.531 148.56C167.842 155.425 175.034 160.599 183.232 163.451C187.826 165.014 193.972 165.28 196.439 161.102C197.959 158.519 197.375 155.218 196.325 152.411C194.263 147.033 190.726 142.345 186.119 138.887C183.099 137.763 179.842 137.426 176.656 137.91C170.609 138.887 165.602 143.173 162.531 148.56Z" fill="#E2C639"/>
<path d="M600.14 9.95203C612.04 0.13799 629.585 -2.25197 643.676 4.01996C646.715 5.3745 649.951 7.64704 650.1 10.9736C650.248 14.3583 647.149 16.8933 644.29 18.7044C618.943 34.6013 588.433 40.0887 559.135 34.0202C555.09 33.1623 550.974 32.0288 547.695 29.5131C544.416 26.9975 542.136 22.7888 542.979 18.7417C544.197 12.8953 550.837 10.0978 556.674 8.84202C572.137 5.5161 588.479 6.36018 600.14 9.95203Z" fill="#739EC0"/>
<path d="M169.998 32.8605C161.322 27.0008 150.696 24.7715 140.396 26.65C130.096 28.5285 120.941 34.3654 114.892 42.9108C111.819 47.2527 109.631 53.113 112.169 57.7845C114.8 62.6279 121.098 63.8499 126.588 64.3465C156.497 67.0321 188.394 63.2468 212.742 45.6716C218.16 41.7579 223.631 35.7395 222.002 29.2569C220.567 23.5534 214.249 20.5535 208.444 19.6162C195.765 17.5654 182.208 22.0013 169.998 32.8605Z" fill="#739EC0"/>
<path d="M215.842 102.62C215.539 102.619 215.244 102.519 215.003 102.334C214.763 102.149 214.589 101.89 214.511 101.597C214.045 100.129 213.796 98.5999 213.771 97.0593C213.763 96.1535 213.952 95.2567 214.325 94.4313C214.698 93.6058 215.247 92.8715 215.932 92.2794C217.133 91.4391 218.537 90.9354 219.998 90.8205C228.967 89.4622 238.089 89.4587 247.059 90.8102C247.247 90.8259 247.431 90.8801 247.597 90.9695C247.764 91.0588 247.91 91.1815 248.028 91.3298C248.145 91.4781 248.231 91.6489 248.279 91.8316C248.328 92.0144 248.338 92.2051 248.31 92.3921C248.282 92.5791 248.216 92.7583 248.116 92.9187C248.016 93.0791 247.884 93.2172 247.728 93.3245C247.572 93.4318 247.396 93.5059 247.211 93.5424C247.025 93.5789 246.834 93.5769 246.649 93.5365C237.952 92.2295 229.108 92.2332 220.412 93.5476C219.434 93.6107 218.486 93.9154 217.654 94.4345C217.287 94.7796 216.996 95.1985 216.802 95.6637C216.608 96.1289 216.514 96.63 216.528 97.1339C216.567 98.4076 216.786 99.6695 217.176 100.883C217.27 101.236 217.221 101.612 217.038 101.928C216.856 102.245 216.555 102.477 216.202 102.572C216.085 102.604 215.964 102.62 215.842 102.62Z" fill="#F7B048"/>
<path d="M475.358 215.809L462.438 213.67L468.14 263.124L476.591 263.468L478.745 262.233L478.833 261.877L484.625 249.759L475.358 215.809Z" fill="#D39037"/>
<path d="M463.149 214.98C467.381 215.513 470.725 218.922 472.813 222.637C476.329 228.891 477.222 236.322 476.845 243.482C476.468 250.641 474.906 257.69 473.794 264.775C473.226 268.411 472.772 272.082 471.69 275.601C470.607 279.121 468.844 282.521 466.059 284.926C461.012 289.287 453.694 289.616 447.044 289.144C443.143 288.868 439.05 288.315 435.927 285.96C433.302 283.983 431.677 280.947 430.631 277.839C428.362 271.087 428.516 263.792 428.784 256.677C429.242 244.585 430.189 231.8 437.11 221.87C440.434 217.104 445.192 213.167 450.809 211.675C456.426 210.184 462.905 211.441 463.149 214.98Z" fill="#5F4B4D"/>
<path d="M461.426 233.243C453.569 239.667 450.669 251.479 454.656 260.812C455.73 263.326 457.62 265.898 460.34 266.163C461.171 266.206 462.001 266.073 462.776 265.773C463.552 265.474 464.256 265.014 464.842 264.424C466.005 263.235 466.931 261.835 467.568 260.299C469.952 255.105 470.968 249.389 470.522 243.692C470.311 241.038 469.734 238.305 468.099 236.206C466.464 234.106 463.103 231.87 461.426 233.243Z" fill="#33292B"/>
<path d="M451.561 289.292C452.932 286.793 452.374 283.632 451.809 280.787C448.572 264.508 447.695 247.848 449.205 231.319C449.827 224.523 450.871 217.711 452.99 211.238C452.255 211.339 451.527 211.485 450.809 211.675C445.19 213.164 440.434 217.102 437.11 221.869C430.189 231.799 429.242 244.584 428.784 256.676C428.516 263.791 428.362 271.087 430.631 277.838C431.677 280.946 433.306 283.985 435.927 285.959C439.05 288.311 443.143 288.869 447.044 289.143C448.528 289.249 450.045 289.303 451.561 289.292Z" fill="#513F42"/>
<path d="M596.277 242.897L593.246 244.945H588.346L590.484 203.601L601.979 221.065L596.277 242.897Z" fill="#D39037"/>
<path d="M586.617 198.927C589.873 200.585 592.098 203.839 593.234 207.314C594.369 210.789 594.531 214.498 594.546 218.149C594.578 226.586 593.872 235.009 592.437 243.323C591.746 247.322 590.8 251.474 588.18 254.576C586.061 256.932 583.3 258.617 580.236 259.424C577.188 260.216 574.055 260.635 570.906 260.673C567.979 260.9 565.035 260.693 562.168 260.059C559.333 259.315 556.613 257.737 555.048 255.256C553.65 253.042 553.284 250.34 553.127 247.727C552.556 238.972 554.071 230.206 557.548 222.151C561.053 214.095 566.678 207.141 573.823 202.029C575.768 200.573 577.944 199.453 580.26 198.717C582.594 198.052 585.085 198.146 586.617 198.927Z" fill="#5F4B4D"/>
<path d="M580.568 259.309C580.468 258.237 580.241 257.18 579.891 256.162C574.521 238.272 573.022 219.445 575.493 200.931C574.927 201.283 574.371 201.651 573.825 202.036C566.679 207.148 561.055 214.102 557.55 222.158C554.073 230.213 552.558 238.979 553.129 247.734C553.286 250.346 553.651 253.048 555.05 255.263C556.615 257.744 559.332 259.322 562.17 260.066C565.037 260.7 567.981 260.907 570.908 260.68C574.057 260.642 577.19 260.223 580.238 259.431C580.347 259.392 580.454 259.341 580.568 259.309Z" fill="#513F42"/>
<path d="M487.74 74.2835L489.519 67.9349C489.519 67.9349 401.38 44.2736 400.741 44.3033C370.113 41.112 339.12 42.6054 308.632 46.9281C294.504 48.9312 279.987 51.7287 268.21 59.7911C254.158 69.4138 245.793 85.3105 239.677 102.64C227.235 157.785 224.144 214.628 230.531 270.796L377.43 279.438C377.43 279.438 440.535 268.847 440.979 268.663C441.787 255.853 444.104 243.182 447.882 230.915C449.554 225.485 451.832 219.311 457.1 217.182C483.865 206.353 476.075 256.668 476.588 263.414C476.588 263.414 571.252 246.435 570.533 247.004C571.243 235.71 572.045 224.071 577.095 213.947C578.388 211.354 580.008 208.827 582.384 207.178C584.76 205.529 588.028 204.905 590.59 206.252C593.82 207.949 594.921 211.994 595.32 215.622C596.334 224.823 594.938 234.096 593.543 243.252C593.543 243.252 593.849 244.945 593.283 244.731C601.107 243.549 608.878 242.07 616.596 240.295C618.837 239.775 621.241 239.134 622.683 237.337C624.255 235.377 624.226 232.621 624.121 230.107C623.829 223.092 623.537 216.079 623.242 209.067C623.242 209.067 617.843 125.34 617.901 126.118C617.349 118.775 618.152 117.305 617.763 111.757C617.415 106.73 487.74 74.2835 487.74 74.2835Z" fill="#FBAE2C"/>
<path d="M622.28 194.183L607.995 193.429L430.138 191.479H430.125C429.772 191.496 429.44 191.648 429.195 191.903C428.951 192.158 428.813 192.498 428.812 192.851C428.81 193.204 428.943 193.545 429.185 193.803C429.426 194.061 429.757 194.216 430.11 194.238L607.907 196.184L622.459 196.954C622.401 196.067 622.341 195.143 622.28 194.183Z" fill="#BF7926"/>
<path d="M593.479 244.749C593.414 244.76 593.349 244.772 593.283 244.78C593.315 244.795 593.351 244.8 593.386 244.794C593.421 244.789 593.453 244.773 593.479 244.749Z" fill="#E59C3C"/>
<path d="M623.242 209.115C623.242 209.115 620.449 116.073 617.766 111.805C615.082 107.538 586.631 100.615 586.631 100.615C579.537 135.967 567.9 170.253 552.009 202.618C546.022 214.793 539.299 228.712 544.381 241.292C545.812 244.765 548.047 247.849 550.902 250.291C562.544 248.267 570.75 246.887 570.536 247.058C571.246 235.764 572.048 224.125 577.098 214C578.391 211.408 580.011 208.881 582.387 207.231C584.763 205.582 588.031 204.958 590.593 206.305C593.823 208.003 594.923 212.048 595.323 215.675C596.337 224.876 594.941 234.149 593.546 243.305C593.546 243.305 593.762 244.514 593.482 244.756C601.239 243.577 608.945 242.108 616.599 240.35C618.84 239.831 621.244 239.19 622.686 237.392C624.258 235.433 624.229 232.677 624.124 230.162C623.83 223.142 623.537 216.127 623.242 209.115Z" fill="#E59C3C"/>
<path d="M416.846 213.46C416.846 212.276 416.228 211.315 415.464 211.315C414.705 211.315 414.083 212.276 414.083 213.46V273.268C415.009 273.069 416.086 272.972 416.998 272.775L416.846 213.46Z" fill="#BF7926"/>
<path d="M620.805 160.124L604.51 158.242L598.044 157.494L441.155 139.358L447.432 74.7415L614.7 114.84L617.138 115.417L618.325 115.706C618.945 118.999 619.94 141.775 620.805 160.124Z" fill="#C4DFF2"/>
<path d="M400.543 44.4235C369.953 41.338 339.1 42.0171 308.675 46.4453C294.546 48.4484 280.03 51.2459 268.253 59.3082C254.201 68.9309 245.836 84.8277 239.719 102.157C227.278 157.302 224.187 214.144 230.575 270.313L377.451 278.953C378.594 233.292 379.736 187.63 380.879 141.968C381.441 119.466 382.011 96.8901 385.472 74.6441C386.599 67.3989 388.086 60.0473 391.736 53.6877C393.916 49.871 397.065 46.6978 400.865 44.4891C400.759 44.4611 400.652 44.4392 400.543 44.4235Z" fill="#C4DFF2"/>
<path d="M309.038 48.1175C294.909 50.1207 280.393 52.9175 268.616 60.9798C254.564 70.6025 245.836 84.8277 239.719 102.157C237.747 110.886 236.036 119.672 234.533 128.492C235.968 128.809 237.405 129.089 238.833 129.337C276.755 135.909 317.247 125.952 347.794 102.536C363.708 90.3411 378.249 72.8191 373.333 53.383C372.455 49.9835 371.04 46.7462 369.141 43.7935C349.028 43.77 328.94 45.2152 309.038 48.1175Z" fill="#ADCADB"/>
<path d="M329.664 43.9544C291.687 97.95 257.505 154.517 227.365 213.249C227.365 216.678 227.4 220.106 227.469 223.535C234.204 223.635 241.682 226.454 249.193 224.73C257.413 222.844 263.4 215.962 268.665 209.376C310.166 157.464 344.069 100.051 376.999 42.258C361.201 41.8413 345.392 42.4078 329.664 43.9544Z" fill="#E5F3F9"/>
<path d="M273.326 130.896C296.136 129.098 318.178 121.834 337.589 109.72C349.607 90.0883 361.199 70.1743 372.634 50.1828C371.75 47.3398 369.772 46.1358 368.208 43.6629C367.478 43.6588 366.75 43.636 366.02 43.6367C365.017 43.6367 364.012 43.642 363.006 43.6526C359.663 43.6844 356.319 43.7438 352.975 43.866C352.591 43.8792 352.207 43.904 351.823 43.9178C348.579 44.0463 345.337 44.2165 342.097 44.4283C341.406 44.4725 340.709 44.5146 340.016 44.5616C336.452 44.811 331.52 45.8664 328.067 44.9546C327.427 44.7861 328.556 45.6585 328.467 45.6668C308.59 73.9291 291.098 101.268 273.326 130.896Z" fill="#8AA8B7"/>
<path d="M269.418 234.543C271.415 235.796 273.66 236.601 275.999 236.904C278.337 237.206 280.713 236.998 282.963 236.295C287.334 234.844 290.884 231.667 294.187 228.457C315.028 208.227 331.275 183.815 346.854 159.303C359.074 140.077 370.978 120.653 382.565 101.032C383.209 92.202 384.113 83.3978 385.475 74.6461C386.602 67.401 388.089 60.0494 391.739 53.6897C393.926 49.8782 397.081 46.7117 400.885 44.5105C400.779 44.4814 400.671 44.4583 400.563 44.4414C399.428 44.3226 397.879 44.1479 396.741 44.0422C355.772 108.83 313.752 172.009 269.418 234.543Z" fill="#E5F3F9"/>
<path d="M379.868 182.326C379.799 182.308 379.739 182.285 379.673 182.268C368.181 179.12 355.863 180.27 343.933 181.446C305.228 185.266 266.524 189.087 227.82 192.908C227.103 208.956 227.23 225.031 228.2 241.066C234.728 243.431 242.389 244.262 249.46 244.581C285.634 246.22 321.963 243.461 357.619 237.678C364.723 236.527 371.917 235.183 378.606 232.814C379.027 215.987 379.448 199.157 379.868 182.326Z" fill="#ADCADB"/>
<path d="M282.963 236.295C287.334 234.844 290.884 231.667 294.186 228.457C308.359 214.7 320.404 199.008 331.562 182.668C322.284 183.583 313.005 184.498 303.725 185.413C292.4 201.869 280.964 218.246 269.415 234.543C271.413 235.796 273.658 236.602 275.997 236.904C278.336 237.207 280.712 236.999 282.963 236.295Z" fill="#8AA8B7"/>
<path d="M238.483 191.893C234.696 198.978 230.965 206.043 227.297 213.191C227.297 213.838 227.281 214.535 227.283 215.181C227.289 216.669 227.214 218.152 227.329 219.646C227.432 220.953 227.383 222.271 227.411 223.583C234.135 223.697 241.597 226.499 249.093 224.777C257.312 222.892 263.299 216.01 268.565 209.424C274.389 202.139 280.066 194.745 285.596 187.242C269.891 188.794 254.187 190.344 238.483 191.893Z" fill="#8AA8B7"/>
<path d="M585.296 219.039C578.926 223.028 578.719 232.572 580.623 239.84C580.934 241.03 581.57 242.389 582.79 242.534C584.01 242.679 584.931 241.519 585.553 240.472C587.41 237.365 588.91 234.058 590.023 230.614C590.827 228.127 591.433 225.483 590.965 222.909C590.496 220.334 588.156 217.247 585.296 219.039Z" fill="#33292B"/>
<path d="M353.526 91.6936C353.222 91.6936 352.927 91.5932 352.687 91.4081C352.446 91.2229 352.273 90.9634 352.195 90.6699C351.882 89.4697 351.732 88.2327 351.749 86.9924L351.727 86.1587C351.655 85.2477 351.788 84.3323 352.116 83.4794C352.444 82.6265 352.958 81.8576 353.621 81.2289C354.767 80.3519 356.127 79.7979 357.559 79.6243C362.818 78.6296 378.064 78.3437 383.6 78.7395C383.964 78.7665 384.303 78.9368 384.542 79.2131C384.781 79.4893 384.901 79.849 384.875 80.2135C384.845 80.577 384.674 80.9142 384.398 81.1529C384.122 81.3916 383.764 81.5129 383.4 81.4907C378.128 81.1101 363.053 81.3933 358.073 82.3341C357.127 82.4355 356.221 82.7694 355.435 83.3059C355.088 83.6674 354.823 84.0998 354.658 84.5732C354.494 85.0467 354.434 85.5501 354.483 86.0489C354.495 86.3563 354.5 86.6505 354.506 86.9399C354.486 87.9575 354.605 88.9729 354.859 89.9585C354.953 90.3119 354.903 90.6881 354.719 91.0045C354.536 91.321 354.235 91.5519 353.882 91.6466C353.766 91.6786 353.646 91.6944 353.526 91.6936Z" fill="#F7B048"/>
<path d="M352.116 86.2554C356.154 85.9934 360.192 85.7307 364.231 85.4673C365.177 85.3092 366.149 85.4477 367.013 85.8638C368.325 86.6844 368.467 88.5135 368.447 90.0593C368.351 97.7484 367.823 105.426 366.864 113.055C366.656 114.708 366.4 116.428 365.429 117.781C363.86 119.964 360.921 120.565 358.265 121.002C356.266 121.324 353.967 121.572 352.444 120.238C351.252 119.19 350.931 117.491 350.71 115.919C349.405 106.603 349.218 97.1284 352.116 86.2554Z" fill="#F7B048"/>
<path d="M490.341 260.574C489.983 260.573 489.64 260.433 489.383 260.183C489.126 259.934 488.976 259.595 488.964 259.237C488.289 237.515 487.889 215.444 487.775 193.638C487.774 193.272 487.918 192.921 488.175 192.661C488.432 192.401 488.782 192.253 489.148 192.251H489.155C489.52 192.251 489.87 192.395 490.128 192.652C490.387 192.91 490.534 193.259 490.536 193.623C490.65 215.407 491.049 237.452 491.724 259.151C491.735 259.517 491.6 259.872 491.35 260.138C491.1 260.405 490.754 260.561 490.388 260.574H490.341Z" fill="#BF7926"/>
<path d="M507.284 225.129C505.727 225.132 504.228 225.715 503.078 226.765C501.928 227.815 501.211 229.256 501.068 230.807C501.026 232.365 501.538 233.887 502.511 235.104C503.485 236.321 504.858 237.154 506.386 237.456C507.931 237.671 509.504 237.364 510.853 236.583C512.203 235.801 513.253 234.591 513.835 233.144C514.339 231.914 514.377 230.542 513.941 229.286C513.493 228.211 512.72 227.303 511.731 226.688C510.407 225.796 508.876 225.259 507.284 225.129Z" fill="#BF7926"/>
<path d="M559.324 220.628C558.511 220.459 557.671 220.475 556.865 220.673C556.059 220.871 555.307 221.246 554.665 221.773C553.386 222.852 552.554 224.37 552.331 226.029C552.189 226.773 552.22 227.539 552.422 228.269C552.624 228.998 552.993 229.672 553.498 230.235C554.403 230.999 555.506 231.49 556.679 231.651C557.942 231.952 559.248 232.026 560.537 231.87C561.834 231.712 563.03 231.087 563.901 230.112C565.252 228.495 565.198 226.012 564.159 224.18C563.638 223.29 562.94 222.516 562.108 221.905C561.277 221.294 560.329 220.859 559.324 220.628Z" fill="#BF7926"/>
<path d="M430.186 232.802C428.911 233.701 427.82 234.836 426.972 236.145C426.212 237.505 426.045 239.31 426.977 240.559C428.29 242.314 430.928 242.151 433.096 241.813C435.05 241.508 437.115 241.155 438.611 239.862C440.107 238.569 440.677 235.994 439.238 234.638C438.453 233.899 437.315 233.708 436.311 233.309C435.307 232.911 433.435 230.189 430.186 232.802Z" fill="#BF7926"/>
<path d="M213.439 132.835C213.079 121.998 213.028 111.157 213.288 100.31C213.318 99.1274 213.406 97.8129 214.27 97.0068C215.037 96.2849 216.184 96.1931 217.234 96.1406C219.997 96.0066 222.76 95.8696 225.523 95.7296C226.87 95.6605 228.35 95.6364 229.404 96.4784C230.679 97.4986 230.814 99.3539 230.845 100.988C230.975 107.524 231.103 114.063 231.23 120.605C231.293 123.806 231.286 127.251 229.45 129.88C227.848 132.17 225.077 133.421 222.306 133.801C219.536 134.182 216.725 133.795 213.439 132.835Z" fill="#F7B048"/>
<path d="M392.839 229.505C391.162 180.058 389.509 130.24 397.392 81.3995C398.162 76.6334 399.119 71.6601 402.126 67.8845C406.143 62.8462 413.151 60.9867 419.57 61.578C425.989 62.1693 431.998 64.8459 438.155 67.5039C435.906 108.59 433.657 149.711 428.882 190.581C427.703 200.648 426.219 211.118 420.472 219.465C414.725 227.812 403.381 233.211 392.839 229.505Z" fill="#C4DFF2"/>
<path d="M393.942 217.712C393.401 218.065 392.911 218.491 392.486 218.978C392.602 222.488 392.72 225.997 392.839 229.505C403.381 233.211 414.727 227.812 420.474 219.467C426.221 211.121 427.707 200.65 428.881 190.581C433.654 149.709 435.903 108.59 438.152 67.5018C433.461 65.4772 428.855 63.4492 424.089 62.3323C427.456 113.161 416.772 165.453 393.942 217.712Z" fill="#ADCADB"/>
<path d="M483.372 83.3391L443.357 116.678L441.623 134.516C444.824 131.011 448.263 127.73 451.915 124.697C466.085 112.387 480.185 99.9986 494.213 87.5312C494.688 87.1399 495.142 86.7227 495.571 86.2817L483.372 83.3391Z" fill="#E5F3F9"/>
<path d="M499.465 87.2155C484.691 106.997 467.431 124.794 448.111 140.167L457.373 141.239C458.547 140.19 459.678 139.069 460.78 137.947C472.43 126.093 484.081 114.239 495.731 102.384C498.511 99.5549 501.319 96.6904 503.308 93.2657C504.182 91.8089 504.798 90.2129 505.131 88.5473L499.465 87.2155Z" fill="#E5F3F9"/>
<path d="M438.146 67.6434C423.565 79.8239 408.983 92.004 394.4 104.184C392.371 124.55 391.387 145.006 391.45 165.473C404.765 144.355 419.657 124.274 435.997 105.399C436.759 92.8168 437.475 80.2315 438.146 67.6434Z" fill="#E5F3F9"/>
<path d="M391.826 196.132C406.429 183.295 420.022 169.353 432.487 154.43C433.16 146.564 433.777 138.693 434.339 130.816C420.08 148.175 405.821 165.534 391.562 182.894C391.626 187.307 391.715 191.719 391.826 196.132Z" fill="#E5F3F9"/>
<path d="M264.942 61.799C264.32 62.3019 263.698 62.8068 263.102 63.3345C262.88 63.5293 262.672 63.7366 262.454 63.9369C261.86 64.4777 261.269 65.0207 260.7 65.5864C260.522 65.7625 260.354 65.9497 260.176 66.1293C259.577 66.7399 258.983 67.3554 258.41 67.9943C258.279 68.14 258.154 68.2899 258.025 68.4357C257.415 69.1264 256.815 69.824 256.229 70.5417C256.142 70.6488 256.06 70.7579 255.974 70.8643C255.356 71.6366 254.752 72.4231 254.161 73.2239C254.114 73.2888 254.067 73.3551 254.023 73.4201C253.401 74.2729 252.795 75.1414 252.205 76.0255C252.188 76.0531 252.171 76.0794 252.153 76.1063C251.542 77.0273 250.945 77.9649 250.364 78.919V78.9266C258.693 73.4173 268.227 69.621 277.969 67.2359C292.327 63.7193 307.197 62.9595 321.961 62.2155C341.552 61.2278 361.146 60.2391 380.743 59.2495C383.651 59.1472 386.552 58.8989 389.435 58.5056C390.089 56.848 390.86 55.2387 391.741 53.6897C393.909 49.8735 397.047 46.6978 400.837 44.4842C400.799 44.4739 400.763 44.4649 400.732 44.4587L400.635 44.4373C400.596 44.427 400.557 44.4199 400.517 44.4158C369.936 41.3331 339.092 42.0147 308.677 46.4453C294.549 48.4484 280.032 51.2459 268.256 59.3082C267.354 59.9257 266.475 60.573 265.619 61.2423C265.387 61.4198 265.17 61.6194 264.942 61.799Z" fill="#5F4B4D"/>
<path d="M377.428 279.59C377.905 260.563 378.464 238.666 378.935 219.633C378.906 219.627 378.881 219.61 378.851 219.604C375.95 218.86 372.922 219.881 370.143 220.986C362.487 224.034 355.13 227.832 344.062 231.955C343.686 245.192 341.251 258.288 336.844 270.775C336.212 272.555 335.538 274.488 336.117 276.286C336.145 276.373 336.421 276.943 336.453 277.025L373.238 279.189L377.428 279.59Z" fill="#F7B048"/>
<path d="M379.026 215.934C328.2 218.395 277.642 219.076 227.266 217.297C227.283 219.537 227.33 221.77 227.387 224.005C227.417 225.156 227.448 226.31 227.481 227.465C232.576 230.581 238.106 232.922 243.89 234.41C253.284 236.925 263.052 237.65 272.753 238.347C291.699 239.717 310.773 241.041 329.646 238.906C347.074 236.937 364.483 231.812 378.876 221.888C378.925 219.903 378.975 217.919 379.026 215.934Z" fill="#5F4B4D"/>
<path d="M245.883 232.683C246.125 226.081 238.392 223.802 233.651 223.22C231.531 222.911 229.368 223.178 227.388 223.995C227.707 239.168 228.659 254.158 230.35 269.239L230.524 270.785L250.096 271.937C246.864 259.114 245.446 245.901 245.883 232.683Z" fill="#F7B048"/>
<path d="M230.086 265.583C233.25 265.959 236.452 265.89 239.597 265.38C239.543 261.833 239.136 258.299 238.381 254.832C235.279 254.807 232.177 254.78 229.074 254.753C229.372 258.368 229.709 261.978 230.086 265.583Z" fill="#F4D34A"/>
<path d="M228.574 248.475C232.302 249 236.079 249.084 239.827 248.726C239.803 246.18 239.487 243.644 238.886 241.17C238.707 240.398 238.357 239.675 237.863 239.056C236.628 237.653 234.483 237.619 232.625 237.812C231.059 237.979 229.369 238.199 227.938 237.655C228.112 241.265 228.325 244.872 228.574 248.475Z" fill="#F4D34A"/>
<path d="M378.54 235.441C368.363 238.941 358.187 242.44 348.014 245.94C348.091 248.837 348.169 251.736 348.248 254.637C358.226 252.999 368.205 251.359 378.182 249.719C378.302 244.961 378.421 240.201 378.54 235.441Z" fill="#F4D34A"/>
<path d="M377.94 259.353C377.901 259.329 377.867 259.306 377.826 259.284C368.013 260.933 358.2 262.58 348.386 264.224C348.07 266.642 347.755 269.059 347.441 271.477C355.574 271.206 363.707 270.934 371.84 270.662C373.809 270.682 375.772 270.437 377.677 269.934C377.765 266.406 377.853 262.879 377.94 259.353Z" fill="#F4D34A"/>
<path d="M345.28 272.848C347.148 261.715 348.792 250.54 350.213 239.32C350.517 236.933 350.762 234.296 349.566 232.29C347.759 229.262 343.842 229.348 340.609 229.726C309.181 233.384 277.407 232.866 246.115 228.185C244.52 242.122 246.999 257.773 249.347 271.9L343.893 277.462C344.548 275.989 345.015 274.438 345.28 272.848Z" fill="#5F4B4D"/>
<path d="M535.793 95.9237C527 113.762 516.596 130.76 504.71 146.705L524.445 149.011C524.878 148.376 525.262 147.71 525.596 147.018C533.472 131.366 539.38 114.799 543.185 97.6948L535.793 95.9237Z" fill="#E5F3F9"/>
<path d="M548.379 98.9416C543.083 115.944 537.857 132.952 532.699 149.965L537.572 150.529C545.537 136.242 549.216 119.818 552.734 103.753C553.033 102.56 553.212 101.339 553.267 100.11L548.379 98.9416Z" fill="#E5F3F9"/>
<path d="M564.611 153.63L569.955 154.255C578.895 142.545 585.917 129.488 590.757 115.573C591.464 113.553 592.069 111.24 591.39 109.178L587.367 108.215C579.826 123.372 572.157 138.476 564.611 153.63Z" fill="#E5F3F9"/>
<path d="M604.51 158.242C604.498 158.253 598.04 157.504 598.04 157.494C603.248 143.282 608.519 128.655 614.699 114.84L617.138 115.417C617.608 129.371 613.245 145.422 604.51 158.242Z" fill="#E5F3F9"/>
<path d="M421.64 122.807C426.298 116.903 431.084 111.101 435.997 105.4C435.997 105.391 435.997 105.381 435.997 105.372C436.758 92.7951 437.474 80.2181 438.144 67.6407C433.65 71.3964 429.155 75.1513 424.659 78.9052C424.74 93.5936 423.731 108.268 421.64 122.807Z" fill="#8AA8B7"/>
<path d="M415.747 153.452C413.522 162.68 410.898 171.922 407.872 181.179C416.496 172.66 424.7 163.744 432.484 154.43C433.156 146.581 433.772 138.726 434.334 130.867C434.333 130.85 434.333 130.833 434.334 130.816C428.14 138.362 421.944 145.907 415.747 153.452Z" fill="#8AA8B7"/>
<path d="M290.202 223.03C289.719 222.592 289.111 222.316 288.464 222.238C287.817 222.16 287.161 222.285 286.588 222.595C286.023 222.917 285.529 223.352 285.138 223.872C284.747 224.392 284.466 224.987 284.313 225.619C284.036 226.638 284.024 227.71 284.276 228.735C284.529 229.76 285.038 230.704 285.756 231.477C286.494 232.233 287.429 232.766 288.454 233.018C289.48 233.27 290.555 233.23 291.559 232.902C292.551 232.542 293.411 231.889 294.023 231.03C294.636 230.17 294.973 229.144 294.989 228.089C294.958 225.986 293.377 223.978 290.202 223.03Z" fill="#F7B048"/>
<path d="M264.853 245.967C263.04 247.499 263.776 250.679 265.664 252.115C267.551 253.55 270.084 253.732 272.451 253.853C280.911 254.302 289.374 254.751 297.838 255.081C305.164 255.365 319.695 256.641 319.492 252.585C319.294 248.648 312.613 248.867 308.727 248.214C294.865 245.869 280.724 245.187 264.853 245.967Z" fill="#47393B"/>
<path d="M299.813 227.837C313.933 227.027 328.055 226.214 342.179 225.397C342.902 225.291 343.64 225.38 344.316 225.657C344.647 225.809 344.906 226.083 345.038 226.421C345.171 226.76 345.167 227.137 345.027 227.473C344.745 227.845 344.343 228.109 343.889 228.217C332.114 232.465 319.604 234.296 307.107 233.601C305.316 233.582 303.542 233.263 301.857 232.657C300.201 231.975 298.713 230.684 299.813 227.837Z" fill="#F7B048"/>
<path d="M245.515 224.777L275.614 227.707C276.37 227.72 277.112 227.914 277.776 228.274C278.103 228.464 278.352 228.762 278.482 229.116C278.612 229.47 278.614 229.859 278.489 230.215C278.295 230.492 278.044 230.724 277.753 230.895C277.461 231.066 277.136 231.171 276.8 231.205C269.976 232.806 262.905 233.056 255.985 231.943C251.604 231.235 246.864 229.643 245.515 224.777Z" fill="#F7B048"/>
<path d="M256.12 271.015C256.135 271.062 256.16 271.105 256.175 271.153L258.157 271.282C256.779 270.537 256.444 270.772 256.12 271.015Z" fill="#47393B"/>
<path d="M320.667 264.818C318.719 263.513 316.231 263.412 313.887 263.361C298.599 263.001 283.312 262.644 268.028 262.287C265.101 262.218 261.968 262.206 259.532 263.828C257.095 265.45 256.019 269.344 258.187 271.288L324.218 275.646C324.338 271.585 323.977 267.031 320.667 264.818Z" fill="#47393B"/>
<path d="M608.275 205.74C607.504 205.753 606.755 205.997 606.125 206.44C605.182 207.258 605.239 208.723 605.471 209.948C605.702 211.174 606.008 212.535 605.359 213.602C611.407 213.773 617.458 213.462 623.456 212.671C623.4 211.307 623.343 209.944 623.285 208.581C623.285 208.581 623.216 207.387 623.099 205.307C618.154 205.063 613.197 205.208 608.275 205.74Z" fill="#F4D34A"/>
<path d="M623.687 218.161C619.743 218.129 615.803 218.417 611.905 219.024C610.013 219.322 607.893 219.861 606.971 221.542C606.266 222.829 606.488 224.401 606.735 225.847C606.913 226.897 607.168 228.067 608.061 228.647C608.809 229.02 609.658 229.137 610.479 228.982C615.038 228.598 619.572 227.964 624.061 227.083C623.939 224.11 623.814 221.136 623.687 218.161Z" fill="#F4D34A"/>
<path d="M594.831 157.123C594.924 141.594 595.504 125.918 596.683 110.446L594.037 109.812C593.989 109.923 593.956 110.039 593.939 110.158C592.759 125.619 592.024 141.265 591.923 156.783L594.831 157.123Z" fill="#ADCADB"/>
<path d="M557.145 152.076L561.99 102.205L559.259 101.55C559.259 101.566 554.399 151.811 554.399 151.811C554.376 152.059 554.387 151.892 554.347 152.444L557.082 152.759C557.12 152.341 557.12 152.341 557.145 152.076Z" fill="#ADCADB"/>
<path d="M502.855 146.511L507.036 89.0025L504.358 88.3608C504.342 88.434 500.11 146.193 500.11 146.193L502.855 146.511Z" fill="#ADCADB"/>
<path d="M548.191 195.234C548.192 195.046 548.155 194.861 548.083 194.688C548.01 194.515 547.903 194.359 547.768 194.229C547.633 194.099 547.474 193.998 547.298 193.931C547.123 193.865 546.936 193.835 546.749 193.843C546.562 193.851 546.378 193.897 546.21 193.979C546.041 194.06 545.89 194.175 545.767 194.316C545.644 194.457 545.551 194.622 545.494 194.801C545.437 194.979 545.416 195.167 545.434 195.354L547.825 250.232C547.825 250.257 547.84 250.275 547.842 250.301C548.769 250.139 549.678 249.981 550.57 249.826L548.191 195.234Z" fill="#BF7926"/>
</svg>
