<svg width="549" height="424" viewBox="0 0 549 424" fill="none" xmlns="http://www.w3.org/2000/svg">
<g filter="url(#filter0_d_228_290)">
<path d="M129.432 391.158C120.647 392.958 121.858 401.951 128.661 405.903C131.879 407.774 135.694 408.394 139.41 408.939C213.921 419.855 288.595 414.182 363.351 412.152C368.808 412.004 374.277 412.131 379.705 411.471C386.64 410.629 413.993 398.899 399.461 390.74C396.701 389.191 393.37 389.006 390.181 388.859C375.735 388.196 361.289 387.556 346.843 386.94C332.004 386.315 317.156 385.678 302.308 385.863C256.825 386.445 212.514 392.612 166.981 388.585C154.513 387.488 141.622 388.664 129.432 391.158Z" fill="#8C95A1"/>
<path d="M544.572 154.334C544.509 156.035 544.42 157.747 544.307 159.469C544.196 161.146 544.063 162.831 543.908 164.524C543.753 166.217 543.571 167.929 543.364 169.661C540.746 191.672 534.204 214.854 523.045 238.616C517.34 250.756 510.396 263.02 502.213 275.406C482.671 304.812 448.63 327.022 408.222 342.247C406.715 342.815 405.2 343.373 403.678 343.921C402.349 344.4 401.012 344.872 399.668 345.336C399.315 345.457 398.963 345.579 398.609 345.697C396.679 346.36 394.735 347.005 392.778 347.632C388.912 348.877 385.006 350.062 381.058 351.186C373.855 353.241 366.534 355.099 359.095 356.761C352.859 358.157 346.566 359.415 340.213 360.535C326.726 362.917 313.048 364.679 299.406 365.827C297.845 365.961 296.284 366.084 294.723 366.196C293.364 366.297 292.002 366.393 290.635 366.482C234.651 370.114 180.02 363.376 142.095 346.667C139.6 345.569 137.18 344.427 134.834 343.242C131.859 341.734 129.01 340.163 126.286 338.528C117.326 333.114 109.802 326.968 104.03 320.076C100.325 315.65 96.7163 311.108 93.2468 306.445C92.4026 305.31 91.5657 304.167 90.736 303.015C89.6145 301.456 88.5103 299.885 87.4232 298.3C80.4537 288.139 74.2314 277.442 69.1889 266.205C68.677 265.067 68.1781 263.923 67.6923 262.774C67.0316 261.214 66.3945 259.642 65.7808 258.058C64.3073 254.254 62.9791 250.391 61.7961 246.469C59.7908 239.757 58.2948 232.899 57.3211 225.954C57.1603 224.814 57.0125 223.67 56.8778 222.522C56.701 221.022 56.5477 219.517 56.4179 218.006C56.1615 215.029 55.9944 212.039 55.9166 209.036C55.8702 207.219 55.8566 205.402 55.876 203.585L216.055 203.441L215.952 80.7877C218.159 80.1733 220.361 79.5414 222.559 78.8919C241.226 73.3683 259.525 66.4893 277.134 58.2075C290.795 51.7857 304.602 44.5822 316.389 34.9564C322.104 30.2896 330.161 24.9764 339.919 19.9535C354.399 12.5007 372.609 5.69041 392.48 2.57704C396.064 2.01457 399.698 1.57912 403.382 1.27067C404.893 1.14492 406.408 1.04309 407.927 0.96518C410.195 0.850447 412.475 0.791521 414.767 0.788403L415.738 0.787533L415.995 0.787303C416.294 0.787035 416.592 0.786769 416.891 0.797665C417.247 0.797346 417.603 0.808191 417.96 0.81744L418.752 0.837459L418.811 0.837406L419.337 0.852885L420.097 0.880909C420.41 0.893387 420.739 0.907449 421.059 0.92311C421.843 0.959089 422.627 1.00145 423.418 1.05496C423.972 1.09115 424.525 1.12893 425.078 1.17468C425.161 1.17461 425.245 1.1857 425.326 1.1936C425.583 1.2141 425.842 1.2346 426.1 1.25829L426.629 1.30566C426.883 1.32617 427.138 1.34986 427.392 1.37515C429.33 1.5616 431.272 1.79537 433.219 2.07644C433.47 2.11289 433.72 2.14935 433.971 2.189C434.186 2.2207 434.402 2.254 434.617 2.28889C434.97 2.34173 435.323 2.3983 435.675 2.45859C435.89 2.49189 436.105 2.52838 436.321 2.56646L437.129 2.70768C437.843 2.83622 438.557 2.96954 439.273 3.11084L439.732 3.20133L440.516 3.36011C440.556 3.36008 440.595 3.37599 440.634 3.38393C440.874 3.43316 441.104 3.48558 441.354 3.54277C441.824 3.63963 442.278 3.74289 442.741 3.85092C443.055 3.92081 443.368 3.9939 443.682 4.06857C443.915 4.12259 444.152 4.17819 444.382 4.23859L445.028 4.39749C445.39 4.48807 445.754 4.57865 446.116 4.67721C446.395 4.74713 446.676 4.82024 446.955 4.89654L447.709 5.10001L448.316 5.26851C448.589 5.34482 448.863 5.42751 449.138 5.50381L449.638 5.6485L450.147 5.80752C450.329 5.86158 450.514 5.91724 450.696 5.96651L451.456 6.19867C451.685 6.27024 451.916 6.3418 452.145 6.41655C452.374 6.4913 452.588 6.55809 452.808 6.63126C453.027 6.70442 453.258 6.77598 453.482 6.85074L453.681 6.91754L454.285 7.11955C454.482 7.18954 454.681 7.25634 454.879 7.32474C455.583 7.56972 456.29 7.81947 456.989 8.0804C457.203 8.15676 457.417 8.2395 457.631 8.31905C458.351 8.58633 459.069 8.86319 459.785 9.14962C460.056 9.25942 460.329 9.36762 460.6 9.47902C460.938 9.61746 461.273 9.75432 461.61 9.89595C462.087 10.0954 462.565 10.2997 463.043 10.5087L463.642 10.7697L463.94 10.9018C464.183 11.0079 464.425 11.1172 464.668 11.2297C465.209 11.4732 465.75 11.7247 466.289 11.9794C466.562 12.1067 466.83 12.2357 467.1 12.3646C468.123 12.8581 469.145 13.3691 470.166 13.8977L471.036 14.353C471.141 14.4088 471.249 14.4629 471.35 14.5234C471.604 14.6587 471.861 14.7941 472.115 14.9342C472.179 14.966 472.245 15.0026 472.309 15.0393L473.056 15.4501C473.242 15.552 473.429 15.6555 473.612 15.7685C473.743 15.8402 473.871 15.9118 474 15.9867C474.169 16.0806 474.338 16.1777 474.508 16.2765L475.154 16.6491C475.264 16.7128 475.372 16.7749 475.482 16.8418C475.692 16.9628 475.9 17.087 476.109 17.2112C476.245 17.2892 476.38 17.3704 476.514 17.4532C476.763 17.6013 477.012 17.751 477.258 17.9039C477.596 18.1094 477.931 18.3148 478.267 18.5234C478.66 18.7687 479.053 19.0176 479.446 19.2703C479.724 19.4471 479.998 19.6239 480.273 19.8038C480.608 20.0226 480.942 20.2429 481.275 20.4648C481.607 20.6862 481.941 20.9108 482.272 21.1353C482.603 21.3599 482.937 21.5893 483.27 21.8218C484.153 22.4356 485.029 23.061 485.897 23.6982C486.176 23.902 486.455 24.1075 486.731 24.3146L487.421 24.8323C488.017 25.2794 488.608 25.7329 489.192 26.1927C489.419 26.3663 489.644 26.5448 489.865 26.7216C490.172 26.9637 490.479 27.2085 490.786 27.456L491.584 28.1044L491.76 28.2477L492.605 28.9503C492.908 29.2036 493.207 29.4569 493.507 29.7134C493.772 29.938 494.036 30.1643 494.301 30.3937C494.863 30.8812 495.423 31.3735 495.979 31.8706C496.148 32.0182 496.314 32.168 496.478 32.3199C496.961 32.7543 497.441 33.1941 497.918 33.6391C502.264 37.6861 506.345 42.0168 510.138 46.6037C515.019 52.5046 519.42 58.7991 523.3 65.4252C526.742 71.3016 529.78 77.4131 532.393 83.7161C541.088 104.634 545.557 128.524 544.572 154.334Z" fill="#24282D"/>
<path d="M544.572 154.337C544.508 156.038 544.42 157.75 544.306 159.473C544.196 161.149 544.063 162.834 543.908 164.527C543.752 166.22 543.571 167.932 543.363 169.664C540.745 191.676 534.203 214.858 523.044 238.621C517.339 250.761 510.395 263.025 502.212 275.412C482.67 304.818 448.629 327.028 408.22 342.254C406.712 342.822 405.198 343.38 403.676 343.928C402.347 344.407 401.01 344.879 399.666 345.343C399.313 345.464 398.96 345.586 398.606 345.704C396.677 346.367 394.733 347.012 392.775 347.639L392.487 2.57708C396.071 2.0146 399.705 1.57914 403.389 1.27069C404.9 1.14493 406.415 1.0431 407.934 0.965187C410.202 0.850452 412.482 0.791524 414.775 0.788406L415.745 0.787537L416.002 0.787307C416.301 0.787038 416.599 0.786773 416.899 0.797668C417.254 0.797349 417.61 0.808195 417.968 0.817444L418.759 0.837464L418.819 0.837411L419.344 0.85289L420.104 0.880915C420.418 0.893393 420.747 0.907455 421.067 0.923117C421.85 0.959096 422.634 1.00145 423.426 1.05497C423.979 1.08956 424.532 1.12947 425.086 1.17469C425.169 1.17462 425.252 1.18571 425.333 1.19361C425.591 1.21411 425.849 1.23461 426.108 1.2583L426.636 1.30568C426.89 1.32618 427.146 1.34988 427.4 1.37517C429.337 1.56162 431.279 1.79539 433.226 2.07647C433.477 2.11292 433.728 2.14938 433.979 2.18903C434.194 2.22073 434.41 2.25403 434.625 2.28892C434.977 2.34124 435.329 2.39834 435.683 2.45863C435.898 2.49193 436.112 2.52841 436.329 2.5665L437.136 2.70772C437.851 2.83626 438.564 2.96959 439.281 3.11089L439.74 3.20138L440.524 3.36017C440.563 3.36013 440.602 3.37605 440.642 3.38399C440.881 3.43321 441.112 3.48564 441.361 3.54283C441.832 3.63969 442.286 3.74295 442.749 3.85098C443.062 3.92088 443.376 3.99396 443.689 4.06864C443.923 4.12266 444.16 4.17826 444.39 4.23866L445.036 4.39757C445.398 4.48815 445.762 4.57873 446.124 4.67729C446.403 4.74721 446.684 4.82033 446.963 4.89663L447.717 5.10009L448.324 5.26861C448.597 5.34491 448.871 5.4276 449.145 5.50391L449.645 5.64859L450.155 5.80762C450.337 5.86169 450.522 5.91734 450.704 5.96662L451.464 6.19879C451.693 6.27035 451.924 6.34191 452.152 6.41666C452.381 6.49142 452.596 6.55821 452.816 6.63138C453.035 6.70454 453.266 6.77611 453.49 6.85086L453.689 6.91767L454.293 7.11968C454.49 7.18967 454.689 7.25647 454.887 7.32488C455.591 7.56985 456.298 7.81961 456.997 8.08054C457.211 8.15691 457.425 8.23965 457.639 8.3192C458.359 8.58649 459.077 8.86335 459.793 9.14978C460.064 9.25959 460.337 9.36779 460.608 9.47919C460.946 9.61764 461.281 9.7545 461.618 9.89614C462.095 10.0956 462.573 10.2998 463.051 10.5089L463.65 10.7699L463.948 10.902C464.191 11.0081 464.433 11.1174 464.676 11.2299C465.217 11.4718 465.758 11.7233 466.297 11.9796C466.57 12.107 466.838 12.2359 467.108 12.3648C468.131 12.8562 469.153 13.3672 470.174 13.898L471.044 14.3533C471.149 14.409 471.257 14.4632 471.358 14.5237C471.612 14.659 471.869 14.7943 472.123 14.9345C472.187 14.9663 472.253 15.0029 472.317 15.0395L473.064 15.4504C473.25 15.5523 473.437 15.6558 473.62 15.7688C473.751 15.8405 473.879 15.9121 474.008 15.987C474.177 16.0809 474.347 16.1781 474.516 16.2768L475.162 16.6494C475.272 16.7131 475.38 16.7752 475.49 16.8421C475.7 16.9631 475.909 17.0873 476.117 17.2115C476.254 17.2896 476.388 17.3708 476.522 17.4536C476.771 17.6017 477.02 17.7514 477.267 17.9043C477.604 18.1097 477.939 18.3151 478.275 18.5238C478.668 18.769 479.061 19.018 479.454 19.2707C479.732 19.4475 480.006 19.6243 480.281 19.8042C480.617 20.023 480.951 20.2433 481.283 20.4652C481.616 20.6866 481.95 20.9112 482.281 21.1357C482.611 21.3603 482.945 21.5897 483.278 21.8222C484.161 22.436 485.037 23.0615 485.905 23.6986C486.184 23.9025 486.463 24.108 486.739 24.3151L487.43 24.8328C488.026 25.2799 488.616 25.7334 489.2 26.1932C489.428 26.3669 489.652 26.5453 489.873 26.7221C490.181 26.9643 490.488 27.2091 490.794 27.4565L491.592 28.1049L491.768 28.2483L492.614 28.9509C492.916 29.2042 493.216 29.4575 493.515 29.714C493.781 29.9386 494.044 30.1649 494.309 30.3943C494.872 30.8818 495.431 31.3741 495.988 31.8712C496.156 32.0189 496.322 32.1686 496.486 32.3205C496.97 32.755 497.45 33.1947 497.926 33.6398C502.272 37.6868 506.354 42.0176 510.146 46.6046C515.027 52.5056 519.429 58.8003 523.308 65.4265C526.75 71.303 529.789 77.4147 532.402 83.7178C541.088 104.636 545.556 128.526 544.572 154.337Z" fill="#B3C7FF"/>
<path d="M544.567 154.333L403.499 154.459L403.371 1.27061C404.882 1.14486 406.397 1.04304 407.916 0.965122C432.616 -0.283426 458.936 4.90644 483.263 21.8216C488.417 25.4066 493.316 29.3582 497.923 33.6468C502.269 37.6937 506.35 42.0244 510.143 46.6113C515.023 52.5121 519.425 58.8066 523.304 65.4327C526.746 71.309 529.785 77.4205 532.398 83.7234C541.083 104.633 545.552 128.523 544.567 154.333Z" fill="#85A9F9"/>
<path d="M543.907 164.525C543.75 166.227 543.569 167.939 543.362 169.663C540.744 191.674 534.202 214.856 523.043 238.618C517.338 250.759 510.394 263.022 502.211 275.409C482.669 304.815 448.629 327.024 408.22 342.25C406.713 342.818 405.198 343.376 403.676 343.924L403.526 164.651L543.907 164.525Z" fill="#85A9F9"/>
<path d="M544.568 154.333C544.504 156.034 544.416 157.746 544.302 159.468L408.062 159.59L407.929 0.965198C432.629 -0.283351 458.949 4.90652 483.276 21.8217C488.426 25.4072 493.321 29.3588 497.924 33.6469C502.269 37.6938 506.351 42.0245 510.143 46.6114C515.024 52.5122 519.426 58.8067 523.305 65.4328C526.747 71.3091 529.785 77.4206 532.399 83.7236C541.084 104.633 545.552 128.523 544.568 154.333Z" fill="#24282D"/>
<path d="M416.817 52.6092L414.55 52.6112C413.758 52.6119 413.117 53.2658 413.117 54.0718L413.145 86.6473C413.145 87.4532 413.788 88.106 414.58 88.1053L416.847 88.1032C417.639 88.1025 418.28 87.4486 418.28 86.6427L418.252 54.0672C418.252 53.2612 417.609 52.6085 416.817 52.6092Z" fill="#B3C7FF"/>
<path d="M414.251 50.4552L411.984 50.4572C411.192 50.4579 410.55 51.1118 410.551 51.9177L410.578 84.4933C410.579 85.2992 411.222 85.9519 412.014 85.9512L414.28 85.9492C415.072 85.9485 415.714 85.2946 415.713 84.4887L415.686 51.9131C415.685 51.1072 415.043 50.4545 414.251 50.4552Z" fill="white"/>
<path opacity="0.39" d="M398.599 345.7C396.669 346.363 394.726 347.008 392.768 347.635C388.903 348.88 384.996 350.065 381.048 351.189C373.845 353.243 366.524 355.102 359.084 356.764C352.849 358.16 346.555 359.418 340.202 360.538L347.894 295.15L356.82 219.314L367.888 104.893L375.725 104.886C375.8 105.524 388.575 216.356 392.688 245.938C395.761 268.077 398.217 319.779 398.599 345.7Z" fill="#B3C7FF"/>
<path opacity="0.39" d="M376.981 101.855L377.027 102.514L393.557 344.695C391.572 345.516 389.567 346.315 387.543 347.092C372.854 352.743 357.41 357.221 341.671 360.542L341.386 19.9462C355.86 12.498 374.076 5.6907 393.949 2.57408C397.532 2.0116 401.166 1.57614 404.85 1.26769C406.361 1.14193 407.876 1.0401 409.395 0.962187C414.356 0.708025 419.327 0.728594 424.286 1.0238C438.977 1.90854 453.978 5.3432 468.566 12.3683C446.064 69.9215 376.981 101.855 376.981 101.855Z" fill="#B3C7FF"/>
<path d="M543.363 169.663C540.745 191.674 534.203 214.856 523.043 238.618C517.339 250.759 510.395 263.023 502.212 275.409C482.67 304.815 448.629 327.025 408.221 342.25L408.077 169.784L543.363 169.663Z" fill="#24282D"/>
<path d="M431.044 86.7796L467.803 48.4579" stroke="white" stroke-width="7.12" stroke-miterlimit="10"/>
<path d="M497.924 33.639L463.245 69.7931" stroke="white" stroke-width="7.12" stroke-miterlimit="10"/>
<path d="M510.142 46.6042L478.396 79.6977" stroke="white" stroke-width="7.12" stroke-miterlimit="10"/>
<path d="M487.557 102.696L524.316 64.3747" stroke="white" stroke-width="7.12" stroke-miterlimit="10"/>
<path d="M532.399 83.7182L532.399 83.7198L517.601 99.1461" stroke="white" stroke-width="7.12" stroke-miterlimit="10"/>
<g opacity="0.52">
<path d="M424.896 101.656C420.503 96.924 421.581 88.9428 425.338 83.6782C429.566 77.7513 436.486 74.2364 443.562 72.8838C453.999 70.8887 465.709 73.6448 472.756 81.7269C474.775 84.0423 476.389 86.7391 478.679 88.7783C483.504 93.0797 490.497 93.7367 496.879 93.12C500.545 92.7641 504.212 92.0574 507.882 92.3602C513.392 92.8144 518.464 95.5049 523.211 98.3855C528.827 101.793 534.712 106.243 535.877 112.789C537.019 119.207 533.214 125.38 529.29 130.538C525.366 135.696 520.944 141.105 520.566 147.611C520.272 152.647 522.491 157.468 523.099 162.476C524.316 172.509 518.584 182.46 511.406 188.96C507.91 192.124 503.04 194.216 498.536 192.934C495.181 191.98 492.49 189.254 490.975 186.062C488.791 181.46 488.799 176.131 489.439 171.169C489.773 168.577 490.226 165.746 488.917 163.501C488.154 162.19 486.878 161.271 485.551 160.556C477.422 156.211 466.628 159.787 461.999 167.689C460.784 169.763 459.943 172.113 458.273 173.827C456.093 176.062 452.599 176.863 449.671 175.838C446.744 174.814 444.46 171.976 444.074 168.826C443.767 166.318 444.559 163.823 445.305 161.413C447.372 154.735 448.996 147.972 450.617 141.18C452.195 134.597 453.535 127.406 451.071 120.864C449.553 116.843 446.702 113.505 443.432 110.836C439.934 107.982 435.94 107.166 431.793 105.685C429.281 104.789 426.755 103.658 424.896 101.656Z" fill="#9BDAF9"/>
</g>
<path d="M215.949 80.7828L216.051 203.437L55.8736 203.581C55.8531 205.399 55.8667 207.216 55.9142 209.032L222.664 208.883L222.555 78.8839C220.358 79.5333 218.156 80.1663 215.949 80.7828Z" fill="#B3C7FF"/>
<path d="M215.948 80.7828L216.051 203.437L55.8731 203.581C55.8847 202.489 55.9083 201.397 55.944 200.305L212.83 200.164L212.731 81.658C213.805 81.37 214.877 81.0782 215.948 80.7828Z" fill="#85A9F9"/>
<path d="M212.731 81.6581L212.83 200.161L55.9443 200.302C56.4335 185.47 59.1437 170.672 64.2154 157.002C66.5959 150.535 69.5523 144.302 73.0479 138.383C88.5248 112.302 115.728 94.6118 145.812 93.0124C161.843 92.1576 177.324 89.8663 193.05 86.4426C199.637 85.0098 206.198 83.415 212.731 81.6581Z" fill="#24282D"/>
<path d="M73.1424 166.021L109.901 127.7" stroke="white" stroke-width="7.12" stroke-miterlimit="10"/>
<path d="M105.345 149.035L142.104 110.713" stroke="white" stroke-width="7.12" stroke-miterlimit="10"/>
<path d="M120.494 158.941L157.253 120.62" stroke="white" stroke-width="7.12" stroke-miterlimit="10"/>
<path d="M129.657 181.938L166.417 143.616" stroke="white" stroke-width="7.12" stroke-miterlimit="10"/>
<path d="M161.031 135.771L197.79 97.4492" stroke="white" stroke-width="7.12" stroke-miterlimit="10"/>
<path d="M159.701 178.389L196.46 140.067" stroke="white" stroke-width="7.12" stroke-miterlimit="10"/>
<path d="M299.273 217.79L299.401 370.626L290.623 370.633L290.62 366.487C234.635 370.119 180.004 363.381 142.08 346.672C139.585 345.574 137.164 344.432 134.819 343.247C131.855 341.736 129.011 340.164 126.286 338.529C117.327 333.114 109.803 326.968 104.03 320.076C100.326 315.65 96.7169 311.108 93.2474 306.445C92.4031 305.31 91.5662 304.167 90.7366 303.015C89.6151 301.457 88.5108 299.885 87.4238 298.301C80.4543 288.14 74.232 277.443 69.1895 266.205C68.6776 265.067 68.1787 263.924 67.6929 262.775C67.0322 261.215 66.395 259.643 65.7814 258.059C64.3079 254.255 62.9797 250.392 61.7966 246.47C59.7914 239.758 58.2954 232.9 57.3217 225.955C57.1608 224.815 57.0131 223.671 56.8784 222.523C56.7015 221.023 56.5483 219.518 56.4185 218.007L299.273 217.79Z" fill="#B3C7FF"/>
<path d="M294.593 222.31L294.623 257.85L65.7772 258.055C64.3069 254.252 62.9802 250.389 61.7972 246.467C59.7919 239.756 58.2959 232.899 57.3222 225.955C57.1614 224.815 57.0136 223.671 56.8789 222.523L294.593 222.31Z" fill="#FAF3E6"/>
<path d="M294.626 262.573L294.655 298.113L87.4255 298.298C80.4561 288.139 74.2339 277.443 69.1915 266.207C68.6795 265.068 68.1806 263.925 67.6948 262.776L294.626 262.573Z" fill="#FAF3E6"/>
<path d="M294.66 302.835L294.689 338.377L126.287 338.528C117.327 333.114 109.803 326.969 104.031 320.077C100.326 315.652 96.7175 311.11 93.2481 306.448C92.4038 305.313 91.5669 304.17 90.7373 303.018L294.66 302.835Z" fill="#FAF3E6"/>
<path d="M294.692 343.1L294.722 378.641L290.634 378.644L290.624 366.482C234.641 370.113 180.011 363.375 142.087 346.668C139.592 345.57 137.172 344.428 134.826 343.243L294.692 343.1Z" fill="#FAF3E6"/>
<path d="M294.593 222.31L294.622 257.85L290.535 257.854L290.508 225.746L57.3212 225.955C57.1604 224.815 57.0126 223.671 56.8779 222.523L294.593 222.31Z" fill="#85A9F9"/>
<path d="M294.626 262.573L294.655 298.113L290.567 298.116L290.541 266.008L69.1915 266.207C68.6795 265.068 68.1806 263.925 67.6948 262.776L294.626 262.573Z" fill="#85A9F9"/>
<path d="M294.66 302.835L294.689 338.377L290.602 338.381L290.575 306.271L93.2481 306.448C92.4038 305.313 91.5669 304.17 90.7373 303.018L294.66 302.835Z" fill="#85A9F9"/>
<path d="M294.692 343.1L294.722 378.641L290.634 378.644L290.607 346.535L142.087 346.668C139.592 345.57 137.172 344.428 134.826 343.243L294.692 343.1Z" fill="#85A9F9"/>
<path d="M263.184 159.42C262.601 166.698 261.062 176.953 254.685 179.06C248.307 181.168 246.662 186.42 242.979 174.854C242.979 174.854 237.077 146.548 241.526 136.323C241.526 136.323 245.38 137.289 248.226 140.615C248.226 140.615 246.825 135.434 242.715 131.175C242.715 131.175 244.191 125.699 246.565 123.024C246.565 123.024 251.943 128.714 253.985 132.905C253.985 132.905 251.248 136.719 250.562 141.302C250.562 141.302 255.013 138.957 257.426 139.57C257.426 139.568 263.76 152.141 263.184 159.42Z" fill="#92E7E0"/>
<g opacity="0.47">
<path d="M280.62 153.525C278.719 154.003 276.861 154.645 275.068 155.444C275.068 155.444 278.181 156.239 279.615 157.354C279.615 157.354 275.436 175.62 270.125 178.733L259.38 178.824L250.588 178.9C250.588 178.9 257.499 162.001 261.355 157.945C261.355 157.945 263.977 157.443 266.934 160.705C266.934 160.705 266.536 155.381 264.627 153.69C264.627 153.69 271.073 145.281 282.779 141.094C282.78 141.097 281.608 150.242 280.62 153.525Z" fill="#92E7E0"/>
</g>
<path d="M268.862 175.894C268.862 175.894 273.54 169.168 282.206 165.442C282.206 165.442 281.631 177.664 279.506 178.221C277.382 178.778 268.862 175.894 268.862 175.894Z" fill="#58C9D1"/>
<path d="M263.184 159.421C262.601 166.698 261.062 176.953 254.685 179.061C252.907 167.101 246.565 123.024 246.565 123.024C246.565 123.024 251.943 128.714 253.985 132.905C253.985 132.905 251.248 136.719 250.562 141.302C250.562 141.302 255.013 138.957 257.426 139.57C257.426 139.568 263.76 152.141 263.184 159.421Z" fill="#58C9D1"/>
<g opacity="0.47">
<path d="M280.62 153.526C278.719 154.003 276.862 154.645 275.068 155.445C275.068 155.445 278.182 156.239 279.616 157.354C279.616 157.354 275.436 175.62 270.125 178.733L259.38 178.825C262.368 172.677 275.95 145.285 282.779 141.1C282.781 141.097 281.608 150.243 280.62 153.526Z" fill="#58C9D1"/>
</g>
<path d="M259.381 178.83C259.381 178.83 274.142 147.521 282.78 141.105" stroke="#1A4EA2" stroke-width="1.37" stroke-miterlimit="10"/>
<path d="M254.691 179.061L253.588 172.068L252.521 165.071L250.436 151.07C249.764 146.4 249.083 141.73 248.43 137.057L247.465 130.04C247.149 127.701 246.85 125.361 246.565 123.024C246.89 125.36 247.237 127.694 247.589 130.027L248.623 137.029L250.686 151.033L252.712 165.042L253.71 172.059L254.691 179.061Z" fill="#1A4EA2"/>
<path d="M250.728 152.202C250.773 151.727 250.851 151.257 250.962 150.794C251.023 150.564 251.084 150.333 251.155 150.105C251.225 149.876 251.295 149.648 251.38 149.427C251.464 149.205 251.536 148.977 251.641 148.76L251.937 148.109L252.273 147.471C252.383 147.258 252.519 147.062 252.639 146.856L252.83 146.555L253.04 146.264C253.182 146.074 253.311 145.873 253.466 145.693C253.764 145.322 254.083 144.97 254.423 144.638L254.676 144.389L254.803 144.265L254.938 144.15L255.481 143.695C255.665 143.547 255.855 143.409 256.053 143.281C256.247 143.147 256.443 143.016 256.639 142.888C255.898 143.46 255.203 144.091 254.562 144.777C253.923 145.459 253.351 146.202 252.853 146.996C252.347 147.786 251.914 148.621 251.56 149.492C251.466 149.707 251.391 149.931 251.305 150.151C251.219 150.371 251.149 150.597 251.082 150.821C250.939 151.274 250.821 151.735 250.728 152.202Z" fill="#1A4EA2"/>
<g opacity="0.5">
<path d="M249.766 145.606C249.333 144.974 248.868 144.364 248.373 143.78C247.882 143.2 247.358 142.648 246.804 142.13L246.381 141.749C246.238 141.626 246.086 141.513 245.94 141.392C245.867 141.333 245.794 141.271 245.719 141.214L245.487 141.055C245.33 140.949 245.184 140.828 245.017 140.736L244.535 140.438C244.378 140.335 244.201 140.262 244.035 140.169C243.707 139.973 243.344 139.862 242.997 139.692C243.741 139.877 244.456 140.168 245.12 140.556C245.782 140.951 246.402 141.415 246.969 141.941C247.532 142.469 248.052 143.042 248.524 143.656C248.997 144.264 249.414 144.918 249.766 145.606Z" fill="#1A4EA2"/>
</g>
<path opacity="0.5" d="M252.393 163.542C252.393 163.542 250.371 157.949 244.842 156.482" stroke="#1A4EA2" stroke-width="1.37" stroke-miterlimit="10"/>
<path d="M272.468 177.284L250.301 177.304C245.525 177.308 241.657 181.251 241.661 186.111L241.68 208.98C241.684 213.84 245.559 217.775 250.335 217.771L272.502 217.751C277.278 217.747 281.146 213.804 281.142 208.945L281.123 186.075C281.119 181.216 277.244 177.28 272.468 177.284Z" fill="#F49F4A"/>
<path d="M281.123 186.077L281.137 203.382C279.44 202.084 276.299 200.037 270.428 198.637C263.237 196.915 247.797 194.963 241.668 194.223L241.661 186.112C241.659 183.778 242.568 181.539 244.189 179.888C245.809 178.236 248.008 177.307 250.301 177.304L272.466 177.284C274.76 177.283 276.961 178.208 278.584 179.857C280.207 181.506 281.121 183.743 281.123 186.077Z" fill="#E58128"/>
<path d="M283.698 176.612L239.069 176.652L239.081 191.748L283.711 191.708L283.698 176.612Z" fill="#FFC38D"/>
<path d="M171.01 46.3973C165.325 61.9513 186.253 69.5715 198.058 70.3822C220.288 71.9044 243.256 62.4173 262.132 51.3471C278.699 41.6345 293.879 29.6984 309.337 18.2485C313.018 15.5214 316.951 12.5006 318.222 8.04365C298.429 9.9751 279.696 17.1683 260.971 23.5163C241.816 30.0082 222.408 32.4816 202.218 30.4759C188.969 29.1657 176.184 32.2407 171.01 46.3973Z" fill="#EBF0FF"/>
<path d="M472.25 106.969L349.717 215.042L353.154 219.077L475.687 111.004L472.25 106.969Z" fill="#5466A6"/>
<path d="M371.392 168.286C371.393 169.757 366.735 171.723 367.059 173.355C367.383 174.988 368.19 181.853 366.426 184.958C365.174 187.155 360.963 188.537 358.656 189.909C358.238 190.142 357.854 190.431 357.512 190.768C357.241 191.057 357.097 191.354 357.121 191.665C357.172 192.303 357.852 193.804 358.504 195.574C355.779 199.404 349.647 203.716 349.647 203.716C349.647 203.716 342.931 204.452 338.315 203.429C337.196 202.776 336.571 201.845 336.57 200.509C336.568 197.836 337.741 195.421 337.755 192.652C337.761 191.784 337.642 190.919 337.4 190.086C336.983 188.64 336.143 187.071 334.629 185.314C329.002 178.78 332.993 149.69 351.144 151.471C351.144 151.471 357.087 150.812 359.982 154.568L360.046 154.654C362.882 158.403 363.218 163.565 365.61 165.016C368.001 166.467 371.39 166.816 371.392 168.286Z" fill="#FFC890"/>
<path d="M355.564 157.251C357.194 155.035 358.962 154.73 360.043 154.656L359.979 154.57C357.084 150.813 351.141 151.472 351.141 151.472C332.99 149.691 328.998 178.783 334.626 185.316C336.14 187.068 336.98 188.642 337.397 190.088C340.031 189.987 346.366 189.35 349.086 185.666C351.19 182.817 351.995 181.255 352.059 180.007C353.267 180.468 355.336 180.334 355.821 179.871C356.416 179.299 357.074 178.827 354.598 179.165C352.658 179.43 351.784 178.371 351.495 177.892L351.38 177.674C350.256 175.602 349.978 170.455 351.834 170.954C353.69 171.454 357.412 175.589 357.69 173.375C357.969 171.161 352.42 161.524 355.564 157.251Z" fill="#FF9D6C"/>
<path d="M358.498 195.578C355.774 199.408 349.642 203.719 349.642 203.719C349.642 203.719 342.927 204.455 338.312 203.433C337.192 202.78 336.567 201.849 336.566 200.513C336.564 197.84 337.737 195.424 337.751 192.656C337.751 192.656 341.098 195.38 347.736 193.84C354.273 192.325 357.411 190.82 357.507 190.774C357.236 191.063 357.092 191.36 357.116 191.671C357.167 192.313 357.84 193.809 358.498 195.578Z" fill="black"/>
<path d="M427.237 157.5C426.701 158.972 419.87 169.828 418.967 172.157C418.065 174.486 418.687 197.036 418.454 207.026C418.221 217.017 414.194 226.15 409.38 227.129C407.321 227.551 403.833 227.294 400.513 226.876C397.074 226.432 393.815 225.804 392.518 225.54L391.921 225.419C390.825 225.498 389.733 225.22 388.804 224.625C386.765 223.351 385.273 220.684 383.618 217.714C381.222 213.425 385.277 205.216 387.322 203.198C387.867 202.673 388.509 202.263 389.211 201.992C390.379 201.547 391.62 201.335 392.866 201.367C392.866 201.367 393.887 201.618 395.265 201.937C397.938 202.559 401.953 203.426 402.437 203.186C403.161 202.819 411.749 171.862 411.749 171.862C411.749 171.862 409.515 166.839 409.212 164.388C408.909 161.937 411.617 158.073 412.697 155.932C413.776 153.791 413.477 151.396 415.103 152.252C416.729 153.109 415.529 157.89 416.736 159.428C417.942 160.965 426.45 154.419 426.45 154.419C426.597 154.606 426.729 154.804 426.845 155.012C427.179 155.6 427.578 156.579 427.237 157.5Z" fill="#FFC890"/>
<path d="M401.924 208.256C402.836 211.763 394.835 204.69 393.929 206.941C393.024 209.192 392.375 221.82 395.96 224.531C397.28 225.529 399.124 226.25 400.507 226.882C397.068 226.439 393.809 225.81 392.512 225.546L391.915 225.426C390.82 225.505 389.728 225.227 388.799 224.631C386.76 223.357 385.267 220.691 383.613 217.721C381.218 213.432 385.272 205.223 387.317 203.206C387.862 202.68 388.504 202.271 389.206 202C390.374 201.555 391.614 201.343 392.861 201.375C392.861 201.375 393.881 201.626 395.259 201.945C397.932 202.566 401.947 203.433 402.431 203.194C402.363 203.256 401.032 204.834 401.924 208.256Z" fill="#FF9D6C"/>
<path d="M395.256 201.934C394.662 201.953 394.086 202.145 393.595 202.487C393.105 202.829 392.722 203.307 392.49 203.864C391.65 205.827 389.916 222.41 392.508 225.553L391.911 225.432C390.815 225.511 389.724 225.233 388.794 224.638C387.565 219.977 385.646 208.14 389.202 201.992C390.369 201.547 391.61 201.335 392.856 201.367C392.856 201.367 393.878 201.614 395.256 201.934Z" fill="black"/>
<path d="M320.446 250.983C319.417 250.984 316.196 249.813 312.424 248.105C306.076 245.229 298.154 240.83 296.456 237.913C294.717 234.938 299.348 229.083 302.912 225.248C304.92 223.085 306.59 221.567 306.59 221.567C306.59 221.567 328.93 224.143 330.072 228.413C331.213 232.683 323.211 250.98 320.446 250.983Z" fill="#FFC890"/>
<path d="M294.715 368.387C294.715 368.387 289.614 372.698 289.458 375.3C289.302 377.903 281.831 375.315 281.045 372.776C280.259 370.236 282.44 367.095 282.44 367.095C282.44 367.095 285.574 365.667 288.724 361.465C291.874 357.263 294.715 368.387 294.715 368.387Z" fill="#FFC890"/>
<path d="M273.651 371.434C273.285 371.834 272.99 372.297 272.781 372.801L298.705 398.512C298.705 398.512 299.574 398.939 300.915 398.032C301.279 397.777 301.616 397.484 301.919 397.157C303.812 395.146 295.673 383.787 293.754 379.201C291.28 373.274 290.524 374.688 290.524 374.688C290.524 374.688 285.617 372.459 282.807 367.161C282.807 367.161 283.567 363.4 276.055 369.325C275.178 369.933 274.372 370.641 273.651 371.434Z" fill="#454B6B"/>
<path d="M273.651 371.434C273.284 371.835 272.99 372.297 272.78 372.801L298.705 398.512C298.705 398.512 299.574 398.939 300.915 398.032L273.651 371.434Z" fill="#5C689F"/>
<path d="M291.554 381.472C291.595 381.517 291.652 381.544 291.712 381.549C291.773 381.553 291.832 381.534 291.88 381.495C292.543 380.884 293.361 380.474 294.242 380.313C294.272 380.31 294.301 380.3 294.326 380.283C294.351 380.267 294.373 380.246 294.389 380.22C294.405 380.194 294.415 380.165 294.419 380.135C294.422 380.105 294.419 380.074 294.41 380.045C294.393 379.981 294.354 379.925 294.301 379.887C294.248 379.849 294.183 379.831 294.118 379.837C293.153 380.005 292.255 380.452 291.531 381.123C291.51 381.146 291.494 381.173 291.483 381.202C291.472 381.232 291.467 381.264 291.468 381.295C291.469 381.327 291.477 381.358 291.49 381.386C291.503 381.415 291.521 381.441 291.544 381.462L291.554 381.472Z" fill="white"/>
<path d="M293.678 384.264C293.719 384.31 293.775 384.337 293.836 384.342C293.896 384.347 293.956 384.328 294.004 384.289C295.047 383.309 295.921 383.31 295.929 383.31C295.959 383.312 295.989 383.306 296.016 383.294C296.043 383.282 296.068 383.265 296.088 383.242C296.108 383.219 296.122 383.193 296.13 383.164C296.139 383.134 296.141 383.104 296.136 383.074C296.127 383.009 296.096 382.949 296.049 382.904C296.001 382.859 295.94 382.833 295.876 382.829C295.833 382.829 294.83 382.812 293.656 383.917C293.634 383.94 293.618 383.967 293.607 383.996C293.596 384.026 293.591 384.057 293.593 384.088C293.594 384.12 293.601 384.151 293.614 384.179C293.627 384.208 293.646 384.233 293.668 384.255L293.678 384.264Z" fill="white"/>
<path d="M289.668 378.357C289.709 378.402 289.766 378.43 289.827 378.434C289.888 378.439 289.948 378.42 289.995 378.381C291.746 376.709 292.93 377.74 292.941 377.754C292.986 377.799 293.046 377.825 293.108 377.824C293.171 377.824 293.231 377.799 293.275 377.754C293.312 377.702 293.327 377.638 293.319 377.574C293.31 377.511 293.278 377.453 293.229 377.413C293.168 377.357 291.684 376.059 289.644 378.006C289.623 378.029 289.607 378.057 289.596 378.086C289.586 378.116 289.581 378.147 289.583 378.179C289.584 378.21 289.592 378.241 289.605 378.269C289.618 378.298 289.637 378.323 289.66 378.344L289.668 378.357Z" fill="white"/>
<path d="M372.483 375.757C372.483 375.757 371.629 382.455 373.259 384.463C374.889 386.471 367.682 389.757 365.406 388.441C363.131 387.126 362.628 383.315 362.628 383.315C362.628 383.315 363.967 380.097 363.463 374.837C362.958 369.576 372.483 375.757 372.483 375.757Z" fill="#FFC890"/>
<path d="M359.091 392.58C359.091 393.127 359.184 393.67 359.367 394.184L395.562 395.061C395.562 395.061 396.483 394.771 396.853 393.173C396.952 392.735 397.004 392.286 397.009 391.837C397.05 389.052 383.487 386.369 379.018 384.335C373.241 381.708 373.634 383.267 373.634 383.267C373.634 383.267 368.546 385.034 362.944 383.098C362.944 383.098 360.984 379.818 359.446 389.36C359.207 390.416 359.088 391.497 359.091 392.58Z" fill="#454B6B"/>
<path d="M359.092 392.581C359.091 393.128 359.184 393.671 359.367 394.185L395.562 395.061C395.562 395.061 396.483 394.772 396.854 393.174L359.092 392.581Z" fill="#5C689F"/>
<path d="M378.921 387.532C378.982 387.537 379.042 387.517 379.089 387.479C379.137 387.44 379.168 387.384 379.177 387.323C379.251 386.416 379.576 385.549 380.115 384.822C380.135 384.799 380.15 384.771 380.159 384.741C380.167 384.711 380.168 384.679 380.163 384.648C380.158 384.618 380.145 384.589 380.127 384.563C380.109 384.538 380.085 384.517 380.058 384.503C380.003 384.467 379.937 384.452 379.873 384.461C379.808 384.47 379.748 384.502 379.704 384.551C379.109 385.343 378.75 386.292 378.67 387.285C378.67 387.317 378.676 387.348 378.687 387.377C378.699 387.407 378.716 387.433 378.738 387.455C378.76 387.478 378.786 387.495 378.815 387.507C378.844 387.519 378.875 387.525 378.906 387.524L378.921 387.532Z" fill="white"/>
<path d="M382.346 388.107C382.406 388.111 382.466 388.092 382.514 388.053C382.561 388.014 382.592 387.959 382.601 387.898C382.71 386.462 383.35 385.854 383.356 385.848C383.38 385.829 383.399 385.804 383.412 385.777C383.425 385.749 383.432 385.719 383.432 385.688C383.432 385.657 383.425 385.627 383.412 385.6C383.399 385.572 383.38 385.548 383.356 385.529C383.306 385.487 383.243 385.464 383.178 385.464C383.113 385.464 383.05 385.487 383 385.529C382.968 385.556 382.217 386.239 382.101 387.861C382.101 387.893 382.107 387.924 382.119 387.954C382.131 387.983 382.148 388.009 382.17 388.031C382.192 388.054 382.218 388.071 382.247 388.083C382.276 388.095 382.307 388.101 382.338 388.1L382.346 388.107Z" fill="white"/>
<path d="M375.456 386.556C375.517 386.561 375.577 386.542 375.625 386.504C375.673 386.465 375.704 386.409 375.713 386.347C375.877 383.91 377.435 383.848 377.452 383.848C377.483 383.85 377.514 383.845 377.543 383.834C377.572 383.823 377.599 383.807 377.622 383.785C377.645 383.764 377.663 383.738 377.676 383.71C377.689 383.681 377.697 383.65 377.698 383.618C377.69 383.555 377.659 383.497 377.61 383.457C377.562 383.416 377.5 383.396 377.437 383.4C377.354 383.4 375.4 383.478 375.208 386.319C375.208 386.35 375.214 386.381 375.226 386.41C375.238 386.439 375.256 386.466 375.278 386.488C375.3 386.51 375.326 386.527 375.355 386.539C375.383 386.551 375.414 386.557 375.445 386.556L375.456 386.556Z" fill="white"/>
<path d="M358.7 153.309C357.1 152.705 355.839 153.283 354.952 154.576C354.742 154.884 354.56 155.212 354.408 155.554C353.695 157.136 353.36 159.325 353.442 161.656C353.495 163.219 353.915 164.747 354.456 166.158C355.721 169.442 357.646 172.08 357.153 172.957C356.451 174.215 353.006 167.13 349.834 171.08C346.661 175.03 351.162 179.962 351.162 179.962C348.615 189.656 337.855 189.215 332.653 188.232C331.857 188.066 331.103 187.735 330.439 187.258C330.295 187.158 330.15 187.053 330.008 186.939C329.069 186.185 328.231 185.309 327.515 184.334C326.247 182.664 325.093 180.608 324.132 178.436C323.846 177.799 323.576 177.148 323.328 176.495C322.48 174.317 321.848 172.059 321.441 169.753C320.46 163.786 329.221 153.307 340.19 149.619C342.082 148.976 344.041 148.558 346.028 148.377C350.896 147.95 353.901 148.473 355.754 149.325C359.033 150.816 358.7 153.309 358.7 153.309Z" fill="#700000"/>
<path d="M358.7 153.309C355.149 151.97 353.261 156.453 353.442 161.657C353.624 166.86 357.86 171.7 357.154 172.958C356.448 174.215 353.006 167.131 349.834 171.081C346.662 175.031 351.163 179.963 351.163 179.963C348.616 189.657 337.855 189.215 332.653 188.233C329.405 187.621 326.293 183.305 324.131 178.445C326.423 181.1 332.008 187.04 339.437 181.94C347.623 176.328 348.816 152.108 355.75 149.319C359.033 150.816 358.7 153.309 358.7 153.309Z" fill="#4C0000"/>
<path d="M320.447 250.982C319.417 250.983 316.197 249.812 312.425 248.104C311.836 243.044 314.027 235.847 311.609 234.004C309.19 232.161 305.121 227.722 302.914 225.241C304.921 223.078 306.591 221.56 306.591 221.56C306.591 221.56 328.931 224.136 330.072 228.406C331.213 232.676 323.212 250.979 320.447 250.982Z" fill="#FF9D6C"/>
<path d="M304.207 223.892C304.207 223.892 307.751 229.592 311.381 231.52C315.011 233.448 317.924 238.331 317.784 239.425C317.644 240.52 322.1 237.868 322.434 235.143C322.767 232.417 320.642 229.58 320.642 229.58L306.294 221.568L304.207 223.892Z" fill="black"/>
<path d="M391.25 205.042C390.702 209.337 388.05 224.213 391.911 225.426C391.911 225.426 392.646 227.201 383.543 223.563C383.543 223.563 384.112 242.362 382.09 244.048C380.067 245.734 326.945 237.362 321.423 235.49C316.876 233.955 311.149 230.329 306.599 225.603C305.622 224.596 304.703 223.532 303.847 222.416C303.847 222.416 313.162 208.357 321.142 201.11C322.995 199.426 324.773 198.112 326.349 197.421C329.125 196.208 331.23 195.24 332.828 194.545C336.045 193.142 337.215 192.828 337.686 193.802C337.686 193.802 341.057 196.384 345.56 196.286C350.063 196.188 357.122 191.672 357.122 191.672C357.122 191.672 360.201 190.736 364.437 191.475C366.445 191.827 368.387 192.495 370.193 193.457C371.568 194.152 373 194.725 374.473 195.168C382.328 197.666 393.843 200.094 394.385 201.728C394.368 201.727 391.798 200.745 391.25 205.042Z" fill="#FEBD57"/>
<path d="M382.089 244.047C380.068 245.731 326.945 237.362 321.423 235.49C316.876 233.955 311.149 230.328 306.6 225.602C306.805 225.68 314.264 228.516 315.89 224.178C316.961 221.326 318.484 209.451 321.142 201.105C322.995 199.421 324.773 198.106 326.349 197.416C329.126 196.203 331.23 195.235 332.828 194.54C332.75 194.792 326.925 213.218 328.666 220.444C330.417 227.721 337.96 232.11 344.947 232.009C351.934 231.909 358.605 225.754 360.103 221.515C362.262 215.397 360.311 196.945 364.437 191.468C366.445 191.82 368.387 192.489 370.192 193.45C371.568 194.146 373 194.718 374.473 195.161C374.414 195.468 374.337 195.77 374.24 196.067C373.232 199.154 369.753 217.62 375.358 220.402C380.962 223.185 383.542 223.558 383.542 223.558C383.542 223.558 384.111 242.361 382.089 244.047Z" fill="#FF8C3E"/>
<path d="M386.302 333.467C385.939 339.547 378.656 374.637 378.656 374.637C373.786 378.947 359.282 374.303 359.282 374.303C358.725 366.354 359.559 347.427 358.635 340.787C357.711 334.147 346.56 303.009 346.56 303.009C346.56 303.009 342.902 325.181 341.62 330.887C340.337 336.593 337.676 341.928 329.133 350.822C320.59 359.716 296.975 371.709 296.975 371.709C294.284 370.719 292.258 369.373 290.74 367.96C286.959 364.442 286.302 360.495 286.302 360.495C291.259 351.879 312.298 331.942 312.751 328.2C313.204 324.458 312.916 307.529 313.637 289.195C313.929 281.771 315.318 270.979 315.784 264.843C315.86 263.838 313.887 261.486 313.967 260.509C314.607 252.693 316.413 251.188 317.186 244.327C318.645 231.36 323.465 199.17 326.228 196.582C327.818 195.093 329.764 194.641 331.131 194.527C331.693 194.474 332.26 194.48 332.822 194.543C330.396 195.524 321.759 217.259 329.214 227.352C332.748 232.134 338.062 234.025 343.391 234.159C349.296 234.313 355.221 232.319 358.771 229.758C365.524 224.888 364.036 204.312 363.847 198.512C363.657 192.712 366.875 191.572 366.875 191.572C369.612 191.775 371.193 192.809 372.025 193.613C372.335 193.899 372.6 194.233 372.809 194.603C369.734 195.287 371.111 203.744 370.471 210.207C369.831 216.67 368.192 230.872 370.676 234.052C373.16 237.231 383.397 237.402 383.397 237.402C383.834 237.482 384.141 238.39 384.349 239.813C385.12 245.066 384.578 257.303 384.581 260.322C384.584 264.15 383.202 262.942 382.744 263.879C382.285 264.816 383.955 282.396 384.786 287.822C385.616 293.249 386.665 327.386 386.302 333.467Z" fill="#739EC0"/>
<path d="M317.759 264.005C317.759 264.005 323.96 270.218 344.294 269.403C364.627 268.587 379.547 263.95 379.547 263.95" stroke="black" stroke-width="0.95" stroke-miterlimit="10"/>
<path d="M346.565 303.01C346.565 303.01 342.906 325.181 341.624 330.887C340.342 336.593 337.68 341.929 329.137 350.823C320.594 359.717 296.98 371.709 296.98 371.709C294.289 370.719 292.263 369.373 290.745 367.96C299.945 361.938 328.677 342.568 333.265 332.748C338.741 321.019 338.407 295.743 340.598 291.989C342.789 288.234 346.565 303.01 346.565 303.01Z" fill="#5466A6"/>
<path d="M357.152 172.957C356.449 174.215 353.004 167.131 349.832 171.081C346.66 175.03 351.161 179.962 351.161 179.962C348.614 189.655 337.854 189.214 332.653 188.231C330.852 187.893 329.092 186.415 327.515 184.335C343.784 188.038 345.614 174.318 347.507 170.394C349.376 166.514 354.333 166.166 354.455 166.158C355.719 169.442 357.645 172.08 357.152 172.957Z" fill="black"/>
<path d="M354.95 154.576C354.741 154.885 354.559 155.212 354.407 155.554C354.25 155.503 344.755 152.641 336.836 163.264C330.367 171.94 330.249 183.266 330.439 187.256C330.295 187.156 330.151 187.051 330.008 186.938C329.134 183.577 327.789 175.968 330.878 168.486C335.009 158.483 346.34 149.696 354.95 154.576Z" fill="#4C0000"/>
<path d="M340.184 149.627C337.601 151.332 333.594 154.294 328.935 158.843C322.234 165.388 322.877 173.713 323.326 176.501C322.478 174.323 321.846 172.065 321.44 169.76C320.455 163.793 329.216 153.314 340.184 149.627Z" fill="#4C0000"/>
<path d="M353.249 176.514C353.593 176.686 353.984 176.734 354.359 176.651C354.544 176.606 354.716 176.517 354.861 176.391C355.005 176.265 355.118 176.105 355.189 175.926C355.33 175.53 355.221 175.087 355.058 174.701C354.722 173.904 353.103 172.566 352.292 173.52C351.498 174.451 352.313 176.074 353.249 176.514Z" fill="#FF9D6C"/>
<path d="M341.622 291.418C341.622 291.418 339.741 291.15 340.989 295.989C342.238 300.828 344.209 316.945 344.209 316.945L346.488 303.492C346.488 303.492 344.326 293.685 341.622 291.418Z" fill="black"/>
<path d="M343.396 234.158C330.759 234.822 325.035 227.477 325.137 215.965C325.238 204.453 331.132 194.528 331.132 194.528C331.694 194.475 332.261 194.48 332.823 194.544C330.397 195.525 321.76 217.26 329.215 227.353C332.752 232.139 338.066 234.025 343.396 234.158Z" fill="#4D6C98"/>
<path d="M384.356 239.813C380.05 239.612 373.317 238.669 369.732 236.226C364.243 232.483 368.248 203.391 369.028 198.378C369.807 193.365 372.029 193.613 372.029 193.613C372.339 193.899 372.604 194.233 372.813 194.603C369.739 195.287 371.116 203.744 370.475 210.207C369.835 216.67 368.196 230.872 370.68 234.051C373.164 237.231 383.401 237.402 383.401 237.402C383.842 237.481 384.148 238.39 384.356 239.813Z" fill="#4D6C98"/>
<path d="M383.543 223.564C380.824 223.069 378.211 222.094 375.822 220.683L375.351 220.409C375.351 220.409 370.281 218.554 383.612 233.219L383.543 223.564Z" fill="black"/>
<path d="M320.457 198.47C318.876 197.599 317.695 196.685 316.85 195.746C311.552 189.914 318.936 183.239 321.383 181.709C324.217 179.934 326.789 181.863 326.789 181.863C326.789 181.863 327.608 182.462 328.598 183.289C329.953 184.426 331.628 185.997 331.966 187.069C332.461 188.677 331.865 204.745 320.457 198.47Z" fill="#700000"/>
<path d="M320.457 198.47C318.876 197.599 317.695 196.685 316.85 195.746C318.507 196.418 320.8 196.756 323.534 195.53C328.036 193.515 328.576 186.29 328.59 183.291C329.945 184.428 331.62 185.999 331.958 187.07C332.461 188.677 331.865 204.745 320.457 198.47Z" fill="#4C0000"/>
<path d="M361.343 165.702C361.33 166.031 361.401 166.356 361.549 166.648C361.635 166.805 361.754 166.94 361.898 167.043C362.042 167.146 362.207 167.216 362.38 167.245C362.453 167.261 362.528 167.254 362.597 167.227C362.642 167.204 362.682 167.169 362.711 167.127C362.954 166.819 362.947 166.388 362.799 166.011C362.52 165.287 361.336 164.4 361.343 165.702Z" fill="black"/>
<path d="M357.773 164.847C357.678 164.213 357.674 163.569 357.762 162.934C357.851 162.279 358.086 161.653 358.448 161.104C358.637 160.829 358.865 160.584 359.123 160.376C359.385 160.171 359.682 160.015 359.999 159.918C360.312 159.819 360.642 159.786 360.969 159.821C361.13 159.839 361.287 159.877 361.439 159.934C361.514 159.962 361.587 159.995 361.659 160.031C361.731 160.067 361.787 160.129 361.816 160.206C361.795 160.174 361.767 160.147 361.735 160.126C361.704 160.105 361.668 160.091 361.63 160.085C361.411 160.025 361.183 159.999 360.955 160.009C360.658 160.021 360.365 160.086 360.09 160.2C359.545 160.43 359.079 160.818 358.751 161.317C358.415 161.823 358.175 162.389 358.044 162.984C357.914 163.599 357.823 164.221 357.773 164.847Z" fill="black"/>
<path d="M367.47 177.005C367.136 177.228 366.777 177.411 366.401 177.549C366.027 177.696 365.638 177.803 365.242 177.869C365.043 177.903 364.841 177.918 364.639 177.932C364.434 177.937 364.23 177.926 364.027 177.898C363.619 177.857 363.231 177.695 362.912 177.431C363.279 177.551 363.663 177.608 364.047 177.599C364.428 177.595 364.807 177.559 365.182 177.492C365.561 177.435 365.939 177.354 366.318 177.269C366.697 177.184 367.075 177.088 367.47 177.005Z" fill="#4C0000"/>
<path d="M426.833 154.996C424.985 156.559 421.923 159.024 420.332 159.614C417.959 160.494 416.447 160.847 415.41 159.661C414.373 158.476 415.09 152.243 415.09 152.243C416.717 153.099 415.516 157.88 416.723 159.418C417.929 160.955 426.436 154.409 426.436 154.409C426.583 154.594 426.716 154.79 426.833 154.996Z" fill="#FF9D6C"/>
<path d="M454.916 88.4121L439.514 103.072L481.349 148.577L496.751 133.918L454.916 88.4121Z" fill="#0476AF"/>
<path d="M456.459 86.8373L441.057 101.497L482.892 147.003L498.294 132.343L456.459 86.8373Z" fill="#2794D7"/>
<path d="M415.716 263.658L452.475 225.337" stroke="white" stroke-width="8.47" stroke-miterlimit="10"/>
<path d="M451.298 250.029L488.058 211.707" stroke="white" stroke-width="8.47" stroke-miterlimit="10"/>
<path d="M471.686 265.139L508.446 226.817" stroke="white" stroke-width="8.47" stroke-miterlimit="10"/>
<path d="M523.037 238.619L516.117 245.833" stroke="white" stroke-width="8.47" stroke-miterlimit="10"/>
<path d="M339.986 101.589C339.986 101.589 356.954 103.375 375.511 101.853L375.717 104.883C375.717 104.883 353.306 108.33 339.98 104.209L339.986 101.589Z" fill="#85A9F9"/>
<path opacity="0.39" d="M376.979 101.853L377.025 102.511C375.276 103.404 374.311 103.89 374.311 103.89L358.637 103.904C358.637 103.904 399.503 79.4794 412.586 45.1662C418.842 28.7339 422.343 12.9931 424.286 1.03335C438.976 1.91807 453.977 5.35264 468.564 12.3775C446.06 69.9198 376.979 101.853 376.979 101.853Z" fill="#B3C7FF"/>
<path d="M143.715 176.253C143.715 176.253 157.217 177.102 159.583 188.107C161.95 199.112 148.515 200.441 145.227 196.435C141.938 192.429 139.695 181.853 139.695 181.853L143.715 176.253Z" fill="#12133F"/>
<path d="M141.24 216.465C141.24 216.465 135.412 208.974 134.864 205.466C134.315 201.958 136.743 203.138 136.32 200.135L136.32 200.095C136.137 198.867 135.51 197.115 134.829 195.471C133.814 193.01 132.674 190.759 132.674 190.759L142.739 178.31L142.857 178.165C142.857 178.165 142.874 178.213 142.904 178.305C143.113 178.914 143.993 181.435 145.169 183.971C145.734 185.229 146.391 186.443 147.134 187.601C148.027 188.941 149.112 189.513 150.105 189.718C151.062 189.898 152.049 189.804 152.957 189.447C152.957 189.447 154.417 195.462 154.783 198.756C155.15 202.051 141.24 216.465 141.24 216.465Z" fill="#FFC890"/>
<path d="M141.24 216.463C141.24 216.463 135.413 208.973 134.865 205.465C134.316 201.957 136.744 203.137 136.321 200.134C136.412 200.665 137.405 206.364 139.258 207.563C141.112 208.762 149.146 197.144 150.099 189.708C151.056 189.888 152.043 189.795 152.951 189.438C152.951 189.438 154.41 195.452 154.777 198.746C155.143 202.04 141.24 216.463 141.24 216.463Z" fill="#FF9D6C"/>
<path d="M145.161 183.953C144.249 186.82 142.792 189.476 140.873 191.771C137.613 195.636 134.821 195.444 134.821 195.444C133.806 192.983 132.667 190.732 132.667 190.732L142.731 178.284L142.888 178.284C143.105 178.896 143.984 181.417 145.161 183.953Z" fill="black"/>
<path d="M132.718 267.635C132.718 267.635 126.511 280.543 125.522 283.25C124.532 285.958 121.732 298.072 118.927 298.751C116.122 299.429 113.345 296.045 116.15 291.489C118.954 286.934 130.37 267.364 131.091 267.17C131.812 266.977 132.718 267.635 132.718 267.635Z" fill="#FF9D6C"/>
<path d="M178.685 369.882C178.685 369.92 178.67 369.958 178.662 369.995C178.092 372.659 177.274 376.125 176.488 379.354C175.273 384.363 174.145 388.802 174.145 388.802L165.173 388.979L166.205 377.323L167.052 367.766L168.084 356.123L168.927 346.604C168.927 346.604 174.775 346.28 177.877 351.967C179.722 355.358 180.598 360.882 178.685 369.882Z" fill="#FED194"/>
<path d="M176.799 390.814C176.856 391.165 176.907 392.472 176.978 392.743C177.45 394.507 178.06 395.536 168.332 399.726C157.103 404.56 150.021 405.975 145.576 401.53C141.585 397.538 152.657 393.709 165.435 384.289C165.382 384.48 164.571 390.479 175.116 385.48C175.555 385.27 175.768 385.847 175.9 386.322C176.422 388.202 176.527 389.092 176.799 390.814Z" fill="#070208"/>
<path d="M168.331 399.727C157.102 404.561 150.021 405.976 145.575 401.531C145.575 401.531 150.42 404.237 157.487 402.206C163.265 400.54 173.711 394.628 176.969 392.745C177.439 394.508 178.067 395.537 168.331 399.727Z" fill="#FFB113"/>
<path d="M164.637 389.914C164.55 389.966 164.447 389.982 164.349 389.959C164.251 389.937 164.166 389.877 164.11 389.792C162.71 387.647 161.321 387.209 161.307 387.206C161.212 387.172 161.134 387.103 161.088 387.013C161.041 386.922 161.031 386.817 161.058 386.719C161.086 386.621 161.149 386.537 161.235 386.485C161.321 386.432 161.423 386.415 161.521 386.437C161.588 386.458 163.187 386.935 164.763 389.351C164.792 389.395 164.812 389.443 164.821 389.495C164.831 389.546 164.831 389.599 164.821 389.65C164.811 389.701 164.791 389.75 164.762 389.793C164.734 389.837 164.697 389.874 164.654 389.903L164.637 389.914Z" fill="white"/>
<path d="M162.142 391.511C162.056 391.563 161.953 391.579 161.856 391.557C161.758 391.534 161.672 391.474 161.617 391.389C160.217 389.244 158.826 388.807 158.814 388.803C158.714 388.775 158.629 388.707 158.578 388.614C158.527 388.522 158.514 388.413 158.542 388.311C158.571 388.209 158.637 388.122 158.728 388.071C158.819 388.019 158.926 388.006 159.026 388.034C159.094 388.054 160.694 388.532 162.27 390.947C162.327 391.035 162.348 391.143 162.328 391.246C162.307 391.35 162.247 391.441 162.161 391.5L162.142 391.511Z" fill="white"/>
<path d="M159.198 393.629C159.111 393.68 159.009 393.697 158.911 393.674C158.813 393.651 158.728 393.591 158.673 393.506C157.273 391.361 155.882 390.924 155.868 390.92C155.769 390.89 155.685 390.821 155.635 390.729C155.585 390.637 155.573 390.528 155.601 390.426C155.615 390.376 155.638 390.329 155.67 390.289C155.702 390.248 155.741 390.214 155.786 390.188C155.831 390.163 155.88 390.147 155.931 390.141C155.981 390.135 156.033 390.139 156.082 390.153C156.149 390.172 157.749 390.649 159.326 393.065C159.354 393.109 159.374 393.158 159.384 393.209C159.394 393.261 159.393 393.314 159.383 393.365C159.373 393.416 159.353 393.465 159.324 393.508C159.295 393.552 159.258 393.589 159.215 393.617C159.21 393.622 159.204 393.626 159.198 393.629Z" fill="white"/>
<path d="M244.137 354.397C244.147 354.434 244.156 354.472 244.167 354.507C244.861 357.143 245.694 360.603 246.453 363.838C247.631 368.857 248.625 373.332 248.625 373.332L240.732 377.675L236.395 366.834L232.841 357.946L228.51 347.116L224.97 338.265C224.97 338.265 230.018 335.243 235.339 338.854C238.512 341.005 241.779 345.509 244.137 354.397Z" fill="#FED194"/>
<path d="M251.894 373.876C252.102 374.163 252.738 375.3 252.923 375.508C254.129 376.858 255.142 377.485 248.386 385.749C240.586 395.285 234.932 399.844 228.976 397.969C223.631 396.285 231.744 387.717 238.856 373.386C238.895 373.58 240.877 379.284 247.995 369.926C248.291 369.534 248.741 369.948 249.072 370.308C250.381 371.733 250.875 372.475 251.894 373.876Z" fill="#070208"/>
<path d="M248.386 385.75C240.586 395.285 234.932 399.845 228.976 397.97C228.976 397.97 234.505 398.124 239.874 393.016C244.259 388.841 250.874 378.712 252.923 375.517C254.129 376.859 255.143 377.486 248.386 385.75Z" fill="#FFB113"/>
<path d="M240.678 378.755C240.625 378.842 240.541 378.904 240.444 378.929C240.347 378.954 240.244 378.941 240.157 378.891C237.946 377.638 236.513 377.898 236.499 377.901C236.449 377.912 236.397 377.912 236.346 377.902C236.296 377.892 236.248 377.872 236.205 377.843C236.162 377.815 236.125 377.777 236.096 377.734C236.067 377.691 236.047 377.642 236.037 377.591C236.026 377.539 236.026 377.487 236.036 377.435C236.046 377.384 236.065 377.335 236.093 377.291C236.122 377.247 236.158 377.21 236.201 377.18C236.244 377.151 236.291 377.13 236.342 377.12C236.409 377.106 238.047 376.784 240.535 378.194C240.581 378.219 240.621 378.253 240.653 378.294C240.686 378.335 240.71 378.382 240.725 378.432C240.739 378.482 240.744 378.535 240.738 378.587C240.733 378.64 240.717 378.69 240.693 378.736L240.678 378.755Z" fill="white"/>
<path d="M239.188 381.341C239.134 381.427 239.05 381.489 238.953 381.514C238.855 381.54 238.752 381.526 238.664 381.477C236.454 380.224 235.023 380.485 235.007 380.486C234.905 380.508 234.799 380.487 234.713 380.429C234.626 380.37 234.565 380.279 234.544 380.176C234.524 380.072 234.544 379.964 234.601 379.876C234.659 379.788 234.748 379.726 234.85 379.705C234.919 379.691 236.555 379.369 239.045 380.779C239.09 380.804 239.13 380.839 239.163 380.879C239.195 380.92 239.22 380.967 239.234 381.018C239.249 381.068 239.253 381.121 239.248 381.174C239.242 381.226 239.227 381.277 239.202 381.323L239.188 381.341Z" fill="white"/>
<path d="M237.52 384.588C237.467 384.674 237.383 384.736 237.286 384.761C237.189 384.787 237.086 384.773 236.998 384.724C234.788 383.471 233.355 383.73 233.341 383.733C233.239 383.755 233.133 383.734 233.047 383.676C232.96 383.617 232.899 383.526 232.878 383.423C232.858 383.319 232.878 383.211 232.935 383.123C232.993 383.035 233.082 382.973 233.184 382.952C233.251 382.938 234.889 382.616 237.377 384.026C237.423 384.051 237.463 384.085 237.495 384.126C237.528 384.167 237.552 384.214 237.567 384.264C237.581 384.315 237.586 384.367 237.58 384.42C237.575 384.472 237.559 384.522 237.534 384.568L237.52 384.588Z" fill="white"/>
<path d="M143.821 179.493C143.816 190.407 131.244 198.29 122.202 193.346C119.949 192.115 116.915 189.664 115.581 187.343C114.625 185.68 114.794 183.659 114.075 181.922C113.93 181.574 113.761 181.231 113.585 180.893C112.824 179.459 111.8 178.077 110.969 176.714C110.042 175.195 109.176 173.544 108.731 171.829C108.413 170.689 108.336 169.494 108.505 168.321C108.505 168.315 108.505 168.309 108.505 168.303C108.834 166.23 109.708 164.821 110.876 163.547C115.142 160.72 124.069 158.223 130.751 157.593C134.181 158.37 137.386 159.951 140.111 162.21C141.076 163.002 141.937 163.916 142.673 164.932C143.539 166.157 144.142 167.538 144.244 169.037C144.374 171.003 143.645 172.902 143.753 174.871C143.85 176.697 143.824 177.654 143.821 179.493Z" fill="#FFC890"/>
<path d="M142.138 167.458C140.9 165.595 139.463 167.876 139.373 169.321C139.284 170.766 137.376 174.17 128.647 175.646C119.918 177.123 113.542 168.732 112.269 169.381C110.995 170.029 113.513 180.623 113.575 180.887C112.813 179.453 111.79 178.071 110.958 176.708C110.032 175.189 109.166 173.538 108.721 171.824C108.621 170.615 108.562 169.41 108.498 168.298C108.468 167.77 108.438 167.263 108.401 166.786C108.322 165.713 109.266 164.606 110.869 163.542C115.134 160.715 124.062 158.218 130.743 157.588C134.173 158.366 137.378 159.946 140.103 162.205C141.068 162.996 141.929 163.911 142.664 164.926C143.056 166.943 142.73 168.339 142.138 167.458Z" fill="#FF9D6C"/>
<path d="M143.931 172.37C143.928 168.223 141.418 166.084 139.381 166.58C137.344 167.076 138.73 172.016 137.271 170.437C135.812 168.858 135.621 172.416 130.182 173.901C124.742 175.385 118.037 172.034 115.121 168.97C114.731 168.546 114.294 168.168 113.819 167.845C113.271 167.492 112.84 167.384 112.503 167.408C111.696 167.465 111.429 168.281 111.429 168.281C109.916 171.324 113.111 180.05 113.111 180.05C109.733 179.268 105.895 172.536 105.501 167.201C105.108 161.865 109.271 161.885 109.271 161.885C109.271 161.885 111.218 150.389 122.097 148.502C132.977 146.616 143.67 154.019 144.836 161.331C144.863 161.502 144.889 161.671 144.912 161.837C145.914 168.821 143.931 172.37 143.931 172.37Z" fill="#12133F"/>
<path d="M143.93 172.369C143.927 168.223 141.417 166.083 139.38 166.579C137.343 167.076 138.73 172.015 137.271 170.436C135.812 168.857 135.62 172.415 130.181 173.899C124.742 175.384 118.038 172.033 115.121 168.969C114.731 168.545 114.294 168.167 113.82 167.845C117.795 169.117 129.607 172.599 132.46 169.764L132.562 169.662C133.125 169.084 133.542 168.376 133.777 167.598C134.011 166.82 134.057 165.995 133.91 165.196C133.762 164.396 133.426 163.644 132.93 163.006C132.434 162.367 131.793 161.861 131.063 161.53C127.105 159.735 120.401 157.261 116.158 158.783C109.82 161.051 115.822 155.763 115.822 155.763C115.822 155.763 121.811 152.826 126.91 155.09C130.692 156.769 140.237 160.19 144.917 161.843C145.913 168.82 143.93 172.369 143.93 172.369Z" fill="#01032D"/>
<path d="M190.188 231.875C183.398 235.933 152.682 236.67 144.11 236.799C142.699 236.82 141.885 236.824 141.885 236.824C141.885 236.824 141.213 236.968 140.116 237.131C137.941 237.452 134.099 237.858 130.53 237.358C129.312 237.204 128.117 236.905 126.968 236.467C126.968 236.467 127.008 235.574 127.102 234.075C127.478 228.174 128.713 212.846 131.74 205.622C132.663 203.424 133.751 201.975 135.028 201.773C135.392 201.72 135.763 201.761 136.107 201.891C136.107 201.891 136.585 211.473 141.13 210.727C145.675 209.981 151.765 195.796 151.121 189.792C151.121 189.792 150.397 188.602 151.165 188.23C151.932 187.857 163.847 183.22 167.393 183.033C170.938 182.847 172.397 183.121 176.581 185.615C180.765 188.109 187.881 201.987 189.426 207.354C190.971 212.72 198.094 227.149 190.188 231.875Z" fill="#FEBD57"/>
<path d="M145.134 236.306C145.134 236.306 144.772 236.504 144.117 236.8C142.706 236.82 141.893 236.824 141.893 236.824C141.893 236.824 141.22 236.968 140.123 237.132C137.948 237.453 134.106 237.858 130.537 237.359C129.319 237.205 128.124 236.906 126.975 236.468C126.975 236.468 127.015 235.574 127.109 234.075C130.534 234.512 136.17 234.983 136.394 233.368C136.72 231.046 133.842 221.623 132.497 217.245C131.151 212.866 131.747 205.622 131.747 205.622C132.67 203.424 133.758 201.975 135.035 201.772C135.599 203.096 136.704 219.759 137.362 222.945C138.02 226.131 145.134 236.306 145.134 236.306Z" fill="#FF8C3E"/>
<path d="M136.687 205.674C136.687 205.674 137.655 220.736 142.975 227.677C148.294 234.618 158.731 224.538 159.478 221.693C160.225 218.847 159.202 196.877 158.724 193.259C158.724 193.259 160.066 189.881 161.501 193.256C162.937 196.631 168.892 221.891 164.873 227.587C160.855 233.283 144.275 234.755 141.547 232.954C138.818 231.152 135.046 209.637 135.046 209.637L136.116 201.893C136.116 201.893 136.38 204.575 136.687 205.674Z" fill="#FF8C3E"/>
<path d="M165.581 183.325C165.581 183.325 166.348 192.807 170.244 202.105C174.141 211.402 178.209 216.276 177.591 212.112C176.973 207.949 177.587 207.342 178.215 208.244C178.843 209.146 184.111 222.824 186.851 226.304C189.591 229.785 184.264 231.385 179.964 227.987C175.663 224.589 171.854 216.978 168.011 210.274C164.168 203.57 162.494 184.167 162.494 184.167C162.494 184.167 164.548 183.146 165.581 183.325Z" fill="#FF8C3E"/>
<path d="M169.362 203.151C169.362 203.151 177.635 217.509 182.13 220.417C186.624 223.325 189.91 224.731 189.91 224.731C189.91 224.731 189.934 228.718 187.876 228.671C185.818 228.623 172.382 216.022 170.326 211.304C168.271 206.585 169.362 203.151 169.362 203.151Z" fill="black"/>
<path d="M251.241 362.04C242.336 372.877 231.745 370.129 231.745 370.129C231.745 370.129 229.595 364.836 224.948 354.29C220.301 343.744 206.908 320.248 204.993 314.6C203.077 308.951 184.224 279.268 182.673 278.16C181.122 277.051 176.792 315.006 179.897 331.933C183.002 348.859 181.206 375.244 181.206 375.244C178.149 377.451 174.782 378.298 171.769 378.493C168.749 378.681 165.721 378.305 162.834 377.385C162.834 377.385 160.455 361.279 159.364 351.383C158.272 341.486 153.423 319.274 153.418 313.164C153.413 307.423 151.355 282.668 149.225 268.474C149.086 267.551 146.493 264.229 146.346 263.373C145.099 255.996 142.874 246.394 140.125 237.131C137.632 228.733 134.594 220.56 133.509 215.544C131.225 204.996 133.499 202.682 133.499 202.682C134.751 200.818 136.12 201.882 136.12 201.882C135.291 205.721 137.517 222.818 142.894 229.108C148.271 235.398 159.54 225.321 160.411 221.899C162.342 214.309 157.497 186.362 157.768 185.061C158.04 183.759 161.685 182.558 163.042 182.373C163.366 182.314 163.7 182.376 163.983 182.546C164.314 182.783 164.539 183.144 164.611 183.549C163 193.518 174.9 216.143 181.273 222.799C187.645 229.455 188.824 224.547 188.824 224.547C188.824 224.547 194.538 204.644 197.177 206.956C198.002 207.679 200.127 211.358 202.734 216.444C206.37 223.534 210.942 233.364 214.235 241.724C214.723 242.965 213.804 244.24 214.238 245.377C215.494 248.68 217.288 252.777 217.885 254.733C221.077 265.19 227.271 299.201 235.107 314.927C242.943 330.653 251.241 362.04 251.241 362.04Z" fill="#E49DC3"/>
<path d="M202.726 216.463C201.726 221.859 199.758 228.623 198.364 229.854C196.259 231.706 191.77 235.885 180.259 227.098C168.749 218.311 163.294 191.622 163.214 186.497C163.181 184.293 163.551 183.147 163.982 182.561C164.313 182.798 164.539 183.159 164.61 183.564C162.999 193.533 174.899 216.158 181.271 222.814C187.644 229.469 188.823 224.561 188.823 224.561C188.823 224.561 194.537 204.659 197.175 206.971C197.994 207.699 200.12 211.378 202.726 216.463Z" fill="#5466A6"/>
<path d="M182.673 278.16C181.125 277.045 176.791 315.006 179.897 331.933C183.002 348.86 181.206 375.245 181.206 375.245C178.149 377.452 174.782 378.299 171.769 378.494C178.474 373.836 177.099 343.757 174.856 332.934C172.614 322.112 173.057 313.831 173.404 301.55C173.751 289.27 178.3 274.167 178.656 272.621C179.012 271.076 182.673 278.16 182.673 278.16Z" fill="#5466A6"/>
<path d="M205.447 126.053L78.6976 357.755C78.1705 358.719 78.5109 359.934 79.4578 360.471L79.6331 360.57C80.5801 361.106 81.7751 360.76 82.3022 359.796L209.051 128.094C209.578 127.131 209.238 125.915 208.291 125.378L208.116 125.279C207.169 124.743 205.974 125.089 205.447 126.053Z" fill="#5466A6"/>
<path d="M141.832 242.34L139.623 246.38L129.838 264.269L115.61 290.277C115.61 290.277 114.124 298.914 113.012 298.094C111.9 297.274 111.999 294.296 111.996 291.111C111.994 287.926 117.236 280.12 118.447 278.372C119.657 276.625 123.986 267.381 124.792 263.273C125.597 259.166 128.012 251.049 129.421 247.353C130.153 245.427 130.421 241.677 130.511 238.515C130.521 238.121 130.53 237.735 130.536 237.363C130.558 237.365 130.58 237.365 130.602 237.363C131.086 237.431 131.573 237.483 132.063 237.521L132.077 237.521C135.17 237.745 138.258 237.41 140.123 237.133L141.832 242.34Z" fill="#FFC890"/>
<path d="M114.873 297.079C114.668 297.371 114.482 297.698 114.521 298.036C114.564 298.412 114.878 298.724 115.22 298.959C115.996 299.47 116.902 299.739 117.827 299.733C118.329 299.751 118.827 299.641 119.276 299.413C119.702 299.175 120.017 298.755 119.996 298.315C119.957 297.983 119.809 297.674 119.576 297.438C118.93 296.725 118.057 296.267 117.112 296.144C116.142 296.019 115.377 296.362 114.873 297.079Z" fill="#FFC890"/>
<path d="M116.609 293.887C116.41 294.17 116.227 294.487 116.265 294.819C116.308 295.186 116.614 295.489 116.948 295.716C117.706 296.214 118.59 296.475 119.492 296.468C119.98 296.486 120.465 296.38 120.903 296.161C121.319 295.931 121.626 295.522 121.607 295.095C121.568 294.772 121.423 294.472 121.196 294.244C120.564 293.55 119.713 293.105 118.792 292.985C117.848 292.853 117.101 293.19 116.609 293.887Z" fill="#FFC890"/>
<path d="M118.251 290.913C118.063 291.169 117.893 291.456 117.929 291.756C117.969 292.087 118.256 292.361 118.568 292.567C119.284 293.018 120.111 293.253 120.954 293.246C121.412 293.263 121.867 293.168 122.281 292.969C122.671 292.759 122.959 292.392 122.94 292.011C122.902 291.717 122.766 291.446 122.555 291.241C121.954 290.611 121.158 290.21 120.301 290.105C119.412 289.984 118.712 290.289 118.251 290.913Z" fill="#FFC890"/>
<path d="M120.104 288.181C119.947 288.425 119.79 288.698 119.824 288.979C119.858 289.298 120.106 289.556 120.378 289.752C120.986 290.176 121.708 290.402 122.445 290.397C122.845 290.413 123.241 290.323 123.596 290.135C123.932 289.935 124.183 289.586 124.167 289.217C124.137 288.943 124.02 288.686 123.832 288.486C123.332 287.896 122.638 287.511 121.88 287.403C121.542 287.337 121.191 287.376 120.874 287.515C120.558 287.653 120.289 287.886 120.104 288.181Z" fill="#FFC890"/>
<path d="M94.0558 396.463L4.33642 396.544L4.39754 396.536C5.19056 396.423 13.5157 395.183 25.6483 390.399C33.4374 387.326 32.6126 383.257 33.3319 379.296C33.789 376.766 34.8779 374.281 39.2414 372.127C47.6863 367.961 54.9751 366.34 58.0452 365.795C59.0451 365.617 59.5999 365.555 59.5999 365.555C59.5999 365.555 74.9829 365.904 78.4805 366.67C81.978 367.435 91.355 377.563 91.355 377.563C90.8455 385.006 98.1418 382.979 99.829 389.473C101.516 395.967 94.0558 396.463 94.0558 396.463Z" fill="#FA4C6D"/>
<path d="M94.0558 396.463L4.33642 396.544L4.39754 396.536C6.13252 396.346 43.3473 391.833 63.4853 391.589C84.2896 391.337 88.0884 384.975 83.616 380.551C76.9975 373.998 58.2318 365.868 58.0546 365.795C59.0545 365.617 59.6093 365.555 59.6093 365.555C59.6093 365.555 74.9923 365.904 78.4898 366.67C81.9874 367.435 91.3644 377.563 91.3644 377.563C90.8549 385.006 98.1512 382.979 99.8385 389.473C101.526 395.967 94.0558 396.463 94.0558 396.463Z" fill="#D11A4A"/>
<path d="M50.3461 383.752C45.6778 388.434 25.6474 390.399 25.6474 390.399C33.4361 387.325 32.6114 383.256 33.3306 379.296C33.4451 379.344 37.7112 381.07 46.485 377.117C55.3778 373.105 55.0097 379.071 50.3461 383.752Z" fill="#D11A4A"/>
<path d="M178.656 272.626C178.656 272.626 179.214 271.465 184.036 279.859C184.036 279.859 181.185 298.772 178.821 313.922C178.821 313.922 177.96 297.974 178.259 292.401C178.559 286.828 179.458 279.231 178.656 272.626Z" fill="black"/>
<path d="M193.884 255.497C193.884 255.497 203.081 267.408 216.101 260.223C216.101 260.223 204.419 263.101 193.884 255.497Z" fill="#5466A6"/>
<path d="M150.683 261.698C150.683 261.698 162.107 261.793 175.07 256.119" stroke="#5466A6" stroke-width="2.03" stroke-miterlimit="10"/>
<path d="M181.756 254.114C181.756 254.114 201.029 247.906 208.44 242.868" stroke="#5466A6" stroke-width="2.03" stroke-miterlimit="10"/>
<path d="M186.838 226.304C186.838 226.304 183.67 221.682 182.466 209.905C181.261 198.128 182.152 190.991 181.329 188.714C180.505 186.437 176.914 176.261 176.388 173.754C175.863 171.248 178.175 168.359 178.699 168.13C179.222 167.902 181.125 162.278 182.693 163.183C183.338 163.563 183.884 164.096 184.284 164.736C185.043 166.011 185.521 167.663 186.887 168.605L188.354 165.924C189.176 167.518 190.872 178.68 190.057 181.711C189.241 184.742 189.389 185.061 190.885 189.761C192.381 194.461 198.142 208.441 199.417 215.047C200.692 221.654 199.725 227.504 196.665 228.875C193.605 230.246 189.856 230.243 186.838 226.304Z" fill="#FFC890"/>
<path d="M129.838 264.267C133.362 253.807 136.774 242.802 136.055 241.367C134.975 239.209 131.893 238.66 130.509 238.514C130.52 238.12 130.529 237.734 130.535 237.363C134.104 237.862 137.946 237.46 140.121 237.136L141.83 242.343L129.838 264.267Z" fill="#FF9D6C"/>
<path d="M141.832 242.34L139.622 246.379C139.535 245.142 139.219 239.827 136.795 238.922C135.445 238.419 133.402 237.657 132.082 237.521C135.175 237.745 138.262 237.41 140.127 237.133L141.832 242.34Z" fill="black"/>
<path d="M136.427 209.932C136.728 211.825 137.107 213.706 137.543 215.57C137.979 217.434 138.463 219.287 139.052 221.101C139.348 222.008 139.671 222.904 140.034 223.782C140.397 224.661 140.778 225.525 141.196 226.37C141.608 227.212 142.098 228.013 142.66 228.76C143.232 229.492 143.915 230.163 144.773 230.548L144.754 230.602C144.288 230.476 143.847 230.269 143.45 229.991C143.049 229.711 142.681 229.387 142.352 229.024C141.707 228.297 141.15 227.494 140.692 226.633C139.759 224.928 139.162 223.077 138.615 221.234C138.068 219.391 137.635 217.509 137.261 215.625C136.886 213.74 136.592 211.841 136.364 209.932L136.427 209.932Z" fill="black"/>
<path d="M181.817 191.735C181.884 193.09 181.935 194.446 182.016 195.8L182.237 199.86C182.322 201.213 182.396 202.571 182.501 203.916C182.605 205.262 182.698 206.618 182.818 207.965C182.938 209.313 183.066 210.66 183.221 212.004C183.292 212.677 183.379 213.347 183.462 214.018C183.546 214.69 183.644 215.358 183.748 216.026C183.956 217.36 184.183 218.695 184.481 220.012C184.76 221.336 185.147 222.634 185.637 223.893C185.494 223.587 185.34 223.284 185.207 222.973C185.073 222.662 184.947 222.335 184.837 222.016C184.727 221.698 184.608 221.379 184.509 221.06C184.41 220.741 184.308 220.409 184.214 220.082C183.847 218.772 183.561 217.441 183.314 216.096C182.816 213.422 182.5 210.718 182.255 208.012C182.01 205.306 181.87 202.59 181.794 199.879C181.718 197.168 181.712 194.447 181.817 191.735Z" fill="black"/>
<path d="M136.286 201.467C136.286 201.467 136.75 206.609 138.486 208.591C140.223 210.574 143.266 209.839 148.068 202.263C148.068 202.263 144.505 212.246 139.562 210.531C139.562 210.531 136.301 209.541 136.025 202.043L136.286 201.467Z" fill="black"/>
<path d="M112.216 160.156C112.501 160.156 124.606 146.847 140.062 166.51L138.895 167.691C138.895 167.691 128.223 150.191 113.812 160.442L112.216 160.156Z" fill="#FEBD57"/>
<path d="M109.93 162.81C109.93 162.81 107.522 158.387 101.586 159.434C95.6499 160.48 89.7222 169.81 89.7222 169.81C89.7222 169.81 91.9146 167.622 97.8577 167.41C103.801 167.199 108.959 163.696 109.93 162.81Z" fill="#FEBD57"/>
<path d="M109.931 162.809C109.931 162.809 107.119 158.863 111.177 153.691C115.235 148.519 119.549 147.384 119.549 147.384C119.549 147.384 119.016 152.314 117.606 157.039C116.196 161.764 109.931 162.809 109.931 162.809Z" fill="#FFD49C"/>
<path d="M78.6977 357.754C78.6977 357.754 59.1781 365.228 59.6047 365.553C60.0313 365.878 76.6303 368.887 91.3579 377.562L82.3011 359.795L78.6977 357.754Z" fill="#5655CC"/>
<path d="M115.702 188.969C118.233 188.966 120.282 186.878 120.28 184.303C120.278 181.729 118.225 179.644 115.695 179.646C113.164 179.648 111.115 181.737 111.117 184.311C111.119 186.886 113.172 188.971 115.702 188.969Z" stroke="black" stroke-width="2.03" stroke-miterlimit="10"/>
<path d="M127.273 182.962C129.803 182.959 131.853 180.871 131.851 178.296C131.848 175.722 129.796 173.637 127.265 173.639C124.735 173.641 122.686 175.73 122.688 178.304C122.69 180.879 124.743 182.964 127.273 182.962Z" stroke="black" stroke-width="2.03" stroke-miterlimit="10"/>
<path d="M119.581 181.842C119.581 181.842 120.049 179.337 123.014 180.044" stroke="black" stroke-width="2.03" stroke-miterlimit="10"/>
<path d="M117.554 183.394C117.661 183.411 117.77 183.394 117.867 183.345C117.931 183.306 117.985 183.251 118.024 183.186C118.104 183.049 118.146 182.892 118.146 182.733C118.146 182.573 118.104 182.417 118.023 182.28C117.778 181.85 116.88 181.244 116.672 181.986C116.497 182.607 116.917 183.318 117.554 183.394Z" fill="black"/>
<path d="M126.946 178.786C127.053 178.803 127.162 178.786 127.259 178.738C127.323 178.698 127.377 178.643 127.416 178.578C127.496 178.441 127.539 178.285 127.539 178.125C127.539 177.965 127.496 177.809 127.415 177.672C127.17 177.242 126.272 176.637 126.064 177.378C125.889 177.989 126.319 178.707 126.946 178.786Z" fill="black"/>
<path d="M120.725 183.654C120.725 183.742 120.53 188.501 122.329 188.069C124.128 187.636 125.932 185.871 125.932 185.871C125.932 185.871 123.101 187.771 122.2 186.399C121.3 185.027 120.724 183.225 120.725 183.654Z" fill="#FF9D6C"/>
<path d="M112.713 178.897C112.684 178.83 112.678 178.756 112.695 178.685C112.708 178.615 112.726 178.547 112.75 178.481C112.794 178.345 112.856 178.226 112.906 178.095C113.021 177.835 113.18 177.599 113.376 177.396C113.575 177.19 113.813 177.027 114.076 176.917C114.208 176.855 114.352 176.825 114.498 176.827C114.643 176.829 114.786 176.865 114.916 176.93C114.664 176.959 114.423 177.051 114.214 177.199C114.009 177.342 113.815 177.502 113.636 177.678C113.451 177.855 113.275 178.041 113.109 178.237C113.023 178.339 112.952 178.449 112.868 178.556C112.829 178.607 112.794 178.66 112.761 178.715C112.728 178.77 112.711 178.833 112.713 178.897Z" fill="black"/>
<path d="M120.523 174.457C120.489 174.414 120.465 174.364 120.453 174.311C120.441 174.258 120.44 174.202 120.452 174.149C120.473 174.046 120.51 173.947 120.56 173.855C120.653 173.682 120.772 173.523 120.912 173.386C121.051 173.249 121.209 173.135 121.382 173.048C121.471 173.004 121.563 172.969 121.658 172.942C121.71 172.923 121.765 172.917 121.82 172.924C121.874 172.931 121.926 172.952 121.972 172.983C121.885 173 121.806 173.045 121.748 173.111L121.555 173.298L121.174 173.662L120.8 174.034C120.737 174.091 120.679 174.153 120.625 174.219C120.566 174.285 120.53 174.368 120.523 174.457Z" fill="black"/>
<path d="M123.329 190.988C123.329 190.988 127.465 192.464 129.706 186.677" stroke="#D65600" stroke-width="1.02" stroke-miterlimit="10" stroke-linecap="round"/>
<path d="M140.505 169.584C140.472 169.971 140.552 170.36 140.736 170.7C140.83 170.871 140.961 171.018 141.12 171.128C141.278 171.239 141.46 171.31 141.651 171.337C141.714 171.349 141.779 171.346 141.841 171.329C141.903 171.312 141.96 171.281 142.009 171.238C142.058 171.179 142.092 171.109 142.111 171.034C142.314 170.367 142.312 169.327 141.774 168.802C141.148 168.201 140.548 168.903 140.505 169.584Z" fill="#FF9D6C"/>
<g opacity="0.45">
<path d="M131.531 178.676C131.627 179.518 132.374 180.296 133.202 180.214C133.556 180.159 133.893 180.018 134.182 179.803C134.418 179.656 134.629 179.473 134.809 179.26C134.961 179.058 135.087 178.836 135.183 178.601C135.652 177.539 135.651 175.539 134.046 175.603C132.673 175.657 131.376 177.312 131.531 178.676Z" fill="#FF9D6C"/>
</g>
</g>
<defs>
<filter id="filter0_d_228_290" x="0.336426" y="0.785828" width="548.37" height="422.656" filterUnits="userSpaceOnUse" color-interpolation-filters="sRGB">
<feFlood flood-opacity="0" result="BackgroundImageFix"/>
<feColorMatrix in="SourceAlpha" type="matrix" values="0 0 0 0 0 0 0 0 0 0 0 0 0 0 0 0 0 0 127 0" result="hardAlpha"/>
<feOffset dy="4"/>
<feGaussianBlur stdDeviation="2"/>
<feComposite in2="hardAlpha" operator="out"/>
<feColorMatrix type="matrix" values="0 0 0 0 0 0 0 0 0 0 0 0 0 0 0 0 0 0 0.25 0"/>
<feBlend mode="normal" in2="BackgroundImageFix" result="effect1_dropShadow_228_290"/>
<feBlend mode="normal" in="SourceGraphic" in2="effect1_dropShadow_228_290" result="shape"/>
</filter>
</defs>
</svg>
