<svg width="483" height="460" viewBox="0 0 483 460" fill="none" xmlns="http://www.w3.org/2000/svg">
<g filter="url(#filter0_d_246_43)">
<path d="M476.711 237.61C474.576 252.533 470.022 268.324 462.67 284.931C456.736 298.334 448.978 312.268 439.193 326.705C437.187 329.666 435.094 332.648 432.916 335.652C428.297 342.021 423.612 348.087 418.863 353.852C418.515 354.272 418.168 354.69 417.821 355.106C415.933 357.378 414.038 359.602 412.135 361.778C411.995 361.942 411.852 362.105 411.71 362.266C410.456 363.696 409.199 365.104 407.939 366.491C404.875 369.868 401.79 373.129 398.685 376.273C368.705 406.659 336.881 426.525 304.992 438.109C296.694 441.125 288.219 443.635 279.616 445.625C263.014 449.462 246.015 451.322 228.974 451.164C226.171 451.139 223.377 451.062 220.593 450.931C209.325 450.395 198.113 449.015 187.052 446.801C170.653 443.515 154.652 438.486 139.323 431.798C133.554 429.284 127.952 426.573 122.518 423.665C113.831 419.031 105.453 413.838 97.4379 408.119C97.181 407.938 96.9246 407.755 96.6688 407.569C93.5856 405.347 90.5944 403.071 87.6952 400.739C87.4314 400.525 87.1744 400.315 86.9036 400.098C85.6779 399.105 84.4702 398.1 83.2805 397.086C82.9732 396.827 82.6694 396.565 82.3656 396.303C80.3356 394.56 78.36 392.79 76.4388 390.993C76.0765 390.657 75.716 390.319 75.3572 389.98C57.1791 372.752 43.9678 353.506 37.5445 334.497C33.2304 321.755 31.9631 309.115 34.279 297.26C35.1939 292.583 35.7772 288.101 37.1816 284.141C64.6267 206.767 99.0524 194.917 128.773 145.645C154.349 103.243 154.33 109.216 154.33 109.216C220.2 18.1825 499.392 79.1232 476.711 237.61Z" fill="#24282D"/>
<path d="M321.396 362.759H308.668C308.262 362.759 307.86 362.68 307.485 362.524C307.11 362.369 306.77 362.142 306.483 361.855C306.196 361.569 305.968 361.228 305.813 360.854C305.657 360.479 305.577 360.077 305.577 359.672V352.5H324.486V359.672C324.486 360.077 324.406 360.479 324.251 360.854C324.096 361.228 323.868 361.569 323.581 361.855C323.294 362.142 322.954 362.369 322.579 362.524C322.204 362.68 321.802 362.759 321.396 362.759Z" fill="#CED7FF"/>
<path d="M404.412 362.759H391.683C391.278 362.759 390.876 362.68 390.501 362.524C390.126 362.369 389.785 362.142 389.498 361.855C389.211 361.569 388.984 361.228 388.828 360.854C388.673 360.479 388.593 360.077 388.593 359.672V352.5H407.495V359.672C407.495 360.49 407.171 361.274 406.593 361.853C406.014 362.432 405.23 362.758 404.412 362.759Z" fill="#CED7FF"/>
<g style="mix-blend-mode:multiply">
<path d="M324.486 352.5H305.577V357.835H324.486V352.5Z" fill="#CADCED"/>
<path d="M407.502 352.5H388.593V357.834H407.502V352.5Z" fill="#CADCED"/>
</g>
<path d="M439.193 247.538V326.706C437.186 329.666 435.094 332.648 432.916 335.653C428.297 342.021 423.612 348.088 418.863 353.852C418.515 354.272 418.168 354.69 417.821 355.107H283.097C282.496 355.106 281.92 354.867 281.495 354.442C281.07 354.017 280.832 353.441 280.832 352.84V247.538C280.834 246.939 281.074 246.365 281.498 245.942C281.923 245.519 282.498 245.282 283.097 245.282H436.926C437.223 245.28 437.518 245.338 437.793 245.451C438.068 245.563 438.318 245.729 438.529 245.939C438.739 246.148 438.906 246.398 439.021 246.672C439.135 246.946 439.193 247.241 439.193 247.538Z" fill="white"/>
<path d="M333.987 342.637C357.248 342.637 376.104 323.789 376.104 300.54C376.104 277.29 357.248 258.442 333.987 258.442C310.727 258.442 291.871 277.29 291.871 300.54C291.871 323.789 310.727 342.637 333.987 342.637Z" fill="#E1E7FF"/>
<path d="M361.553 328.092C376.777 312.875 376.777 288.204 361.553 272.987C346.33 257.77 321.647 257.77 306.423 272.987C291.2 288.204 291.2 312.875 306.423 328.092C321.647 343.309 346.33 343.309 361.553 328.092Z" fill="#ABBBF4"/>
<path d="M358.759 321.914C358.902 321.682 359.033 321.442 359.151 321.196C361.115 317.031 355.332 317.108 352.397 316.511C348.041 315.629 345.973 311.676 344.584 307.906C343.647 305.355 342.242 304.137 341.576 303.673C342.016 302.907 342.324 302.073 342.489 301.206C346.473 302.993 350.754 305.664 354.966 304.378C366.399 300.879 365.082 282.482 356.181 277.037C355.949 276.894 355.709 276.763 355.462 276.646C351.296 274.682 351.372 280.454 350.775 283.398C349.893 287.752 345.938 289.819 342.166 291.207C340.98 291.62 339.885 292.256 338.939 293.081C338.062 292.53 337.086 292.156 336.066 291.981C337.779 288.38 339.772 284.577 338.626 280.827C335.126 269.398 316.721 270.715 311.273 279.612C311.13 279.844 311 280.084 310.883 280.33C308.919 284.495 314.702 284.419 317.637 285.016C321.993 285.897 324.061 289.85 325.45 293.623C325.871 294.826 326.525 295.936 327.373 296.888C326.99 297.88 326.81 298.938 326.844 300C323.061 298.235 319.032 295.937 315.066 297.149C303.635 300.647 304.952 319.044 313.851 324.489C314.083 324.633 314.323 324.763 314.57 324.88C318.736 326.844 318.662 321.073 319.257 318.128C320.139 313.774 324.092 311.707 327.866 310.319C330.568 309.327 331.774 307.814 332.172 307.196C333.026 307.489 333.924 307.634 334.828 307.623C333.057 311.772 330.045 316.269 331.396 320.689C334.908 332.125 353.311 330.813 358.759 321.914Z" fill="#859CDD"/>
<path d="M336.904 320.937C334.213 316.729 336.406 311.065 336.814 306.361L341.675 301.676C341.675 301.676 343.994 302.087 346.14 305.065C348.49 308.324 351.553 311.574 355.985 311.251C358.983 311.038 364.523 309.406 363.754 313.951C363.706 314.22 363.645 314.486 363.57 314.748C360.722 324.788 343.35 331.004 336.904 320.937Z" fill="#E8F4FF"/>
<path d="M333.13 280.598C335.821 284.806 333.628 290.47 333.218 295.174L328.357 299.859C328.357 299.859 326.038 299.448 323.892 296.47C321.54 293.211 318.478 289.961 314.046 290.284C311.049 290.497 305.509 292.128 306.279 287.584C306.326 287.315 306.387 287.049 306.463 286.787C309.311 276.747 326.684 270.531 333.13 280.598Z" fill="#E8F4FF"/>
<path d="M355.195 298.882C350.987 301.572 345.321 299.378 340.613 298.971L335.925 294.112C335.925 294.112 336.337 291.794 339.316 289.647C342.578 287.298 345.828 284.237 345.506 279.806C345.291 276.81 343.661 271.272 348.206 272.043C348.475 272.087 348.741 272.144 349.003 272.216C359.048 275.074 365.266 292.439 355.195 298.882Z" fill="#E8F4FF"/>
<path d="M314.837 302.653C319.047 299.965 324.714 302.157 329.42 302.564L334.107 307.423C334.107 307.423 333.696 309.74 330.717 311.886C327.457 314.236 324.207 317.297 324.528 321.727C324.743 324.724 326.373 330.261 321.828 329.49C321.559 329.447 321.293 329.389 321.03 329.317C310.987 326.461 304.766 309.096 314.837 302.653Z" fill="#E8F4FF"/>
<path d="M339.86 307.629C344.172 304.653 345.253 298.747 342.275 294.437C339.298 290.128 333.389 289.047 329.077 292.023C324.766 294.999 323.684 300.906 326.662 305.215C329.64 309.525 335.549 310.606 339.86 307.629Z" fill="#859CDD"/>
<path d="M338.953 306.316C342.538 303.841 343.438 298.929 340.961 295.345C338.485 291.761 333.571 290.862 329.985 293.337C326.399 295.812 325.5 300.724 327.976 304.308C330.453 307.892 335.367 308.791 338.953 306.316Z" fill="#E1E7FF"/>
<path d="M419.123 256.502H393.87C393.418 256.502 393.051 256.868 393.051 257.321V300.682C393.051 301.134 393.418 301.501 393.87 301.501H419.123C419.575 301.501 419.942 301.134 419.942 300.682V257.321C419.942 256.868 419.575 256.502 419.123 256.502Z" fill="#E1E7FF"/>
<path d="M404.185 314.694H394.876C394.423 314.694 394.057 315.06 394.057 315.513V325.943C394.057 326.396 394.423 326.763 394.876 326.763H404.185C404.637 326.763 405.004 326.396 405.004 325.943V315.513C405.004 315.06 404.637 314.694 404.185 314.694Z" fill="#E1E7FF"/>
<path d="M404.185 332.153H394.876C394.423 332.153 394.057 332.519 394.057 332.972V343.402C394.057 343.855 394.423 344.221 394.876 344.221H404.185C404.637 344.221 405.004 343.855 405.004 343.402V332.972C405.004 332.519 404.637 332.153 404.185 332.153Z" fill="#E1E7FF"/>
<path d="M417.45 314.694H408.141C407.688 314.694 407.322 315.06 407.322 315.513V325.943C407.322 326.396 407.688 326.763 408.141 326.763H417.45C417.902 326.763 418.269 326.396 418.269 325.943V315.513C418.269 315.06 417.902 314.694 417.45 314.694Z" fill="#E1E7FF"/>
<path d="M417.45 332.153H408.141C407.688 332.153 407.322 332.519 407.322 332.972V343.402C407.322 343.855 407.688 344.221 408.141 344.221H417.45C417.902 344.221 418.269 343.855 418.269 343.402V332.972C418.269 332.519 417.902 332.153 417.45 332.153Z" fill="#E1E7FF"/>
<path d="M288.074 253.463C288.075 253.735 287.995 254 287.844 254.226C287.694 254.451 287.48 254.627 287.229 254.731C286.978 254.835 286.703 254.863 286.436 254.81C286.17 254.757 285.926 254.627 285.734 254.435C285.542 254.243 285.411 253.999 285.358 253.733C285.305 253.467 285.332 253.192 285.436 252.941C285.54 252.69 285.715 252.476 285.941 252.325C286.166 252.175 286.432 252.094 286.703 252.094C287.066 252.094 287.415 252.239 287.672 252.495C287.929 252.752 288.074 253.1 288.074 253.463Z" fill="#BBD6F2"/>
<path d="M288.074 347.346C288.075 347.618 287.995 347.883 287.844 348.109C287.694 348.334 287.48 348.51 287.229 348.614C286.978 348.718 286.703 348.746 286.436 348.693C286.17 348.64 285.926 348.51 285.734 348.318C285.542 348.126 285.411 347.882 285.358 347.616C285.305 347.35 285.332 347.075 285.436 346.824C285.54 346.573 285.715 346.359 285.941 346.208C286.166 346.058 286.432 345.977 286.703 345.977C287.066 345.977 287.415 346.122 287.672 346.378C287.929 346.635 288.074 346.983 288.074 347.346Z" fill="#BBD6F2"/>
<path d="M433.395 253.463C433.395 253.734 433.315 253.999 433.164 254.224C433.014 254.449 432.8 254.625 432.55 254.728C432.299 254.832 432.024 254.859 431.758 254.806C431.493 254.753 431.249 254.623 431.057 254.432C430.865 254.24 430.735 253.996 430.682 253.731C430.629 253.465 430.656 253.19 430.76 252.94C430.864 252.689 431.039 252.476 431.265 252.325C431.49 252.175 431.755 252.094 432.026 252.094C432.205 252.094 432.383 252.13 432.55 252.199C432.716 252.267 432.867 252.368 432.994 252.495C433.121 252.622 433.222 252.773 433.291 252.94C433.36 253.106 433.395 253.284 433.395 253.463Z" fill="#BBD6F2"/>
<g style="mix-blend-mode:multiply">
<path d="M401.85 263.153H398.329C398.173 263.153 398.048 262.62 398.048 261.964C398.048 261.307 398.173 260.774 398.329 260.774H401.85C402.006 260.774 402.131 261.307 402.131 261.964C402.131 262.62 402.006 263.153 401.85 263.153Z" fill="#ABBBF4"/>
<path d="M401.85 269.539H398.329C398.173 269.539 398.048 269.006 398.048 268.349C398.048 267.693 398.173 267.16 398.329 267.16H401.85C402.006 267.16 402.131 267.693 402.131 268.349C402.131 269.006 402.006 269.539 401.85 269.539Z" fill="#ABBBF4"/>
<path d="M401.85 275.925H398.329C398.173 275.925 398.048 275.392 398.048 274.734C398.048 274.078 398.173 273.546 398.329 273.546H401.85C402.006 273.546 402.131 274.078 402.131 274.734C402.131 275.392 402.006 275.925 401.85 275.925Z" fill="#ABBBF4"/>
</g>
<g style="mix-blend-mode:multiply">
<path d="M408.258 263.153H404.737C404.581 263.153 404.456 262.62 404.456 261.964C404.456 261.307 404.581 260.774 404.737 260.774H408.258C408.414 260.774 408.539 261.307 408.539 261.964C408.537 262.62 408.414 263.153 408.258 263.153Z" fill="#ABBBF4"/>
<path d="M408.257 269.539H404.737C404.581 269.539 404.456 269.006 404.456 268.348C404.456 267.693 404.581 267.16 404.737 267.16H408.257C408.414 267.16 408.539 267.693 408.539 268.348C408.537 269.006 408.414 269.539 408.257 269.539Z" fill="#ABBBF4"/>
<path d="M408.257 275.925H404.737C404.581 275.925 404.456 275.392 404.456 274.734C404.456 274.078 404.581 273.546 404.737 273.546H408.257C408.414 273.546 408.539 274.078 408.539 274.734C408.537 275.392 408.414 275.925 408.257 275.925Z" fill="#ABBBF4"/>
</g>
<g style="mix-blend-mode:multiply">
<path d="M414.665 263.153H411.141C410.986 263.153 410.861 262.62 410.861 261.964C410.861 261.307 410.986 260.774 411.141 260.774H414.663C414.818 260.774 414.944 261.307 414.944 261.964C414.946 262.62 414.819 263.153 414.665 263.153Z" fill="#ABBBF4"/>
<path d="M414.665 269.539H411.141C410.986 269.539 410.861 269.006 410.861 268.349C410.861 267.693 410.986 267.16 411.141 267.16H414.663C414.818 267.16 414.945 267.693 414.945 268.349C414.946 269.006 414.82 269.539 414.665 269.539Z" fill="#ABBBF4"/>
<path d="M414.665 275.925H411.141C410.986 275.925 410.861 275.392 410.861 274.734C410.861 274.078 410.986 273.546 411.141 273.546H414.663C414.818 273.546 414.945 274.078 414.945 274.734C414.946 275.392 414.82 275.925 414.665 275.925Z" fill="#ABBBF4"/>
</g>
<path opacity="0.19" d="M14.3701 54.8486C14.3701 54.8486 -5.19161 136.184 9.41891 146.54C23.4947 156.514 208.89 153.554 215.041 139.5C221.192 125.446 214.235 93.302 214.235 93.302L32.8971 61.1719L14.3701 54.8486Z" fill="#AFBEFF"/>
<path d="M19.6859 54.8486H14.3701C16.14 54.73 17.9159 54.73 19.6859 54.8486Z" fill="#AFBEFF"/>
<path d="M196.977 54.8486V124.014H41.7613V70.2213C41.6348 69.3667 41.4445 68.5227 41.1919 67.6965C40.6951 66.0427 39.9163 64.487 38.8899 63.0981C34.239 56.8025 25.3835 55.1991 19.6858 54.8521L196.977 54.8486Z" fill="#AFBEFF"/>
<path d="M190.858 63.0946V67.6931H41.1902C40.6933 66.0392 39.9146 64.4836 38.8882 63.0946H190.858Z" fill="#899FEF"/>
<path d="M38.8899 63.0946H192.629V54.8486H13.193L38.8899 63.0946Z" fill="#E1E7FF"/>
<path d="M196.976 54.8486H192.629V124.016H196.976V54.8486Z" fill="#CFD9FF"/>
<path d="M216.192 6.50769C216.192 6.50769 202.043 13.6362 195.462 30.116C192.8 36.7828 191.379 44.9768 192.629 54.8487H14.3701C14.3701 54.8487 15.9325 46.955 19.6789 37.4822C24.5138 25.2728 32.9926 10.4433 46.4799 6.50769H216.192Z" fill="#E1E7FF"/>
<path d="M192.629 54.8487H14.3701C14.3701 54.8487 15.9325 46.955 19.6789 37.4822C38.5375 38.9155 85.2544 41.4594 137.023 36.7186C164.784 34.1748 183.294 31.9068 195.462 30.116C192.8 36.7828 191.379 44.9768 192.629 54.8487Z" fill="#AFBEFF"/>
<path d="M219.695 4.96506H37.416V10.3357H219.695V4.96506Z" fill="#AFBEFF"/>
<path d="M14.3701 54.8487C14.3701 54.8487 38.9733 52.9399 41.5183 68.9234V124.015L14.3701 140.586V54.8487Z" fill="white"/>
<path d="M14.3701 140.586L41.7614 124.014H196.976V54.8486H207.309V140.586H14.3701Z" fill="#E1E7FF"/>
<g opacity="0.35">
<path d="M181.95 102.728H75.0153V105.985H181.95V102.728Z" fill="#1A4EA1"/>
<path d="M181.95 107.587H75.0153V110.844H181.95V107.587Z" fill="#1A4EA1"/>
<path d="M181.95 112.447H75.0153V115.704H181.95V112.447Z" fill="#1A4EA1"/>
<path d="M181.95 117.308H75.0153V120.565H181.95V117.308Z" fill="#1A4EA1"/>
</g>
<path d="M73.2097 70.4365H45.3132V73.6936H73.2097V70.4365Z" fill="#1A4EA1"/>
<path d="M73.2097 75.2953H45.3132V78.5524H73.2097V75.2953Z" fill="#1A4EA1"/>
<path d="M73.2097 80.1557H45.3132V83.4128H73.2097V80.1557Z" fill="#1A4EA1"/>
<path d="M73.2097 85.0162H45.3132V88.2733H73.2097V85.0162Z" fill="#1A4EA1"/>
<g opacity="0.59">
<path d="M181.95 70.4365H75.0153V73.6936H181.95V70.4365Z" fill="#1A4EA1"/>
<path d="M181.95 75.2952H75.0153V78.5523H181.95V75.2952Z" fill="#1A4EA1"/>
<path d="M181.95 80.1557H75.0153V83.4128H181.95V80.1557Z" fill="#1A4EA1"/>
<path d="M181.95 85.0162H75.0153V88.2733H181.95V85.0162Z" fill="#1A4EA1"/>
</g>
<path d="M73.2097 102.728H45.3132V105.985H73.2097V102.728Z" fill="#1A4EA1"/>
<path d="M73.2097 107.587H45.3132V110.844H73.2097V107.587Z" fill="#1A4EA1"/>
<path d="M73.2097 112.447H45.3132V115.704H73.2097V112.447Z" fill="#1A4EA1"/>
<path d="M73.2097 117.308H45.3132V120.565H73.2097V117.308Z" fill="#1A4EA1"/>
<path d="M412.141 361.779C412 361.942 411.858 362.105 411.715 362.266C410.461 363.696 409.204 365.105 407.945 366.492C404.88 369.869 401.795 373.129 398.69 376.273C368.71 406.66 336.887 426.525 304.997 438.11C296.699 441.126 288.224 443.635 279.621 445.625C263.017 449.463 246.016 451.322 228.974 451.164C226.171 451.14 223.377 451.062 220.593 450.931C209.325 450.396 198.113 449.015 187.052 446.801V361.779H412.141Z" fill="#AFBEFF"/>
<path d="M106.236 392.75C106.236 392.75 96.5041 365.995 120.838 346.536C145.172 327.077 158.962 369.238 138.683 383.832C118.404 398.426 106.236 392.75 106.236 392.75Z" fill="#CED7FF"/>
<path d="M67.7011 347.494C67.7011 347.494 67.5275 347.494 67.2029 347.463C67.0622 347.463 66.8938 347.438 66.6977 347.421C66.5449 347.405 66.3765 347.392 66.1907 347.369C61.7951 346.895 48.6307 344.688 37.6658 334.783C37.6224 334.689 37.5808 334.592 37.5374 334.497C33.2233 321.755 31.956 309.115 34.2719 297.26C35.1862 292.584 36.1537 288.211 37.1745 284.141C49.3928 280.436 65.4443 286.6 69.2375 305.351C74.8189 332.949 67.7011 347.494 67.7011 347.494Z" fill="#CCD5FF"/>
<path d="M90.8862 306.665C90.8862 306.665 64.0574 282.484 79.4699 254.511C98.5664 219.839 142.315 252.833 125.253 279.725C108.191 306.616 90.8862 306.665 90.8862 306.665Z" fill="#CCD5FF"/>
<path d="M101.816 267.632C96.1689 284.82 93.636 295.662 91.5736 306.62C91.5736 306.66 91.5597 306.703 91.551 306.745C90.433 312.718 89.4452 318.874 88.296 326.006C87.9488 328.161 87.5911 330.402 87.2092 332.749C84.4906 350.303 84.0305 368.314 83.5896 385.732C83.4941 389.46 83.3969 393.277 83.2771 397.088C82.9698 396.829 82.666 396.567 82.3622 396.305C82.4716 392.75 82.5618 389.191 82.6504 385.708C83.0948 368.26 83.5566 350.22 86.2839 332.609C86.6658 330.258 87.0252 328.016 87.3707 325.862C88.5182 318.727 89.5095 312.565 90.6292 306.578C90.6292 306.538 90.6448 306.498 90.65 306.458C93.0909 293.444 96.0682 282.106 100.915 267.346C100.932 267.284 100.961 267.226 101 267.175C101.04 267.125 101.089 267.083 101.146 267.053C101.202 267.022 101.264 267.003 101.328 266.998C101.392 266.992 101.456 266.999 101.517 267.019C101.578 267.039 101.634 267.072 101.682 267.114C101.73 267.157 101.769 267.208 101.796 267.266C101.823 267.324 101.838 267.387 101.84 267.451C101.842 267.516 101.831 267.579 101.808 267.639L101.816 267.632Z" fill="#ECEFFF"/>
<path d="M128.654 362.628C120.533 371.567 113.262 381.293 106.432 392.359C106.365 392.471 106.293 392.584 106.224 392.706C103.255 397.523 100.361 402.612 97.4501 408.127C97.1932 407.947 96.9368 407.763 96.681 407.577C99.6497 401.958 102.604 396.78 105.636 391.873C105.708 391.755 105.781 391.633 105.858 391.515C112.658 380.55 119.894 370.892 127.964 362.007C128.048 361.915 128.165 361.86 128.289 361.854C128.413 361.848 128.535 361.892 128.627 361.975C128.719 362.059 128.774 362.175 128.78 362.299C128.786 362.424 128.742 362.545 128.659 362.637L128.654 362.628Z" fill="#ECEFFF"/>
<path d="M100.299 359.715C100.299 359.715 126.834 358.466 131.829 331.007C136.824 303.548 100.299 302.923 95.3044 327.262C90.3098 351.601 100.299 359.715 100.299 359.715Z" fill="#ABBBF4"/>
<path d="M114.521 328.543C109.95 337.99 105.493 348.445 101.259 359.62L101.177 359.839C96.3164 372.704 91.6864 386.754 87.7005 400.739C87.4366 400.525 87.1796 400.315 86.9088 400.098C90.86 386.272 95.4363 372.39 100.245 359.667C100.262 359.617 100.282 359.565 100.301 359.516C104.563 348.237 109.062 337.676 113.668 328.142C113.695 328.087 113.732 328.037 113.778 327.996C113.824 327.955 113.878 327.924 113.936 327.903C113.994 327.883 114.056 327.874 114.118 327.878C114.179 327.881 114.239 327.897 114.295 327.924C114.35 327.95 114.4 327.988 114.441 328.034C114.482 328.08 114.514 328.133 114.534 328.192C114.554 328.25 114.563 328.311 114.559 328.373C114.556 328.434 114.54 328.495 114.514 328.55L114.521 328.543Z" fill="#ECEFFF"/>
<path d="M76.444 390.993C76.0817 390.657 75.7212 390.319 75.3624 389.98C73.3191 374.64 70.2585 360.39 66.2517 347.561C66.2326 347.497 66.21 347.431 66.1909 347.369C60.9307 330.587 54.957 319.257 50.8634 312.691C46.4139 305.556 43.1675 302.373 43.1363 302.34C43.0469 302.254 42.9957 302.135 42.9937 302.011C42.9918 301.887 43.0393 301.767 43.1259 301.678C43.2124 301.588 43.3309 301.537 43.4553 301.535C43.5797 301.533 43.6997 301.581 43.789 301.667C43.9227 301.799 47.1274 304.936 51.6325 312.153C55.7764 318.791 61.8335 330.275 67.1475 347.28C67.1666 347.341 67.1839 347.402 67.203 347.454C71.2983 360.611 74.4024 375.241 76.444 390.993Z" fill="#ECEFFF"/>
<path d="M53.9015 99.4727C55.9313 99.4727 57.5767 97.8279 57.5767 95.7991C57.5767 93.7703 55.9313 92.1255 53.9015 92.1255C51.8717 92.1255 50.2263 93.7703 50.2263 95.7991C50.2263 97.8279 51.8717 99.4727 53.9015 99.4727Z" fill="#1A4EA1"/>
<path d="M64.6199 99.4727C66.6496 99.4727 68.2951 97.8279 68.2951 95.7991C68.2951 93.7703 66.6496 92.1255 64.6199 92.1255C62.5901 92.1255 60.9447 93.7703 60.9447 95.7991C60.9447 97.8279 62.5901 99.4727 64.6199 99.4727Z" fill="#1A4EA1"/>
<path d="M194.606 396.519C194.606 396.519 197.383 408.445 195.772 411.189C194.161 413.932 203.128 417.24 205.607 415.306C208.086 413.373 209.079 412.889 209.079 412.889C209.079 412.889 206.05 404.574 205.854 397.853C205.657 391.132 194.606 396.519 194.606 396.519Z" fill="#FFC890"/>
<path d="M213.753 421.087C213.747 421.748 213.625 422.404 213.395 423.025L168.838 423.655C168.838 423.655 167.708 423.294 167.275 421.357C167.16 420.826 167.101 420.284 167.102 419.74C167.081 416.372 183.806 413.29 189.323 410.89C196.464 407.781 195.964 409.662 195.964 409.662C195.964 409.662 202.203 411.857 209.121 409.583C209.121 409.583 211.572 405.641 213.353 417.196C213.634 418.474 213.768 419.779 213.753 421.087Z" fill="#454B6B"/>
<path d="M213.753 421.087C213.746 421.748 213.625 422.404 213.395 423.025L168.838 423.655C168.838 423.655 167.708 423.294 167.275 421.357L213.753 421.087Z" fill="#20307B"/>
<path d="M189.405 414.749C189.33 414.754 189.256 414.73 189.198 414.683C189.14 414.636 189.102 414.568 189.092 414.494C189.008 413.396 188.617 412.344 187.964 411.457C187.94 411.429 187.924 411.396 187.915 411.36C187.906 411.325 187.905 411.287 187.912 411.251C187.919 411.215 187.934 411.181 187.956 411.152C187.978 411.122 188.006 411.098 188.038 411.081C188.107 411.04 188.187 411.024 188.266 411.035C188.346 411.046 188.418 411.085 188.472 411.143C189.196 412.108 189.626 413.26 189.714 414.463C189.713 414.501 189.706 414.539 189.691 414.574C189.676 414.609 189.654 414.64 189.627 414.667C189.599 414.693 189.567 414.714 189.532 414.728C189.496 414.742 189.458 414.748 189.42 414.747L189.405 414.749Z" fill="white"/>
<path d="M185.183 415.403C185.108 415.408 185.035 415.384 184.977 415.337C184.919 415.289 184.881 415.222 184.87 415.148C184.754 413.413 183.973 412.667 183.966 412.66C183.938 412.636 183.916 412.606 183.901 412.573C183.886 412.54 183.879 412.503 183.88 412.467C183.881 412.43 183.89 412.394 183.907 412.362C183.924 412.329 183.947 412.301 183.976 412.278C184.038 412.228 184.115 412.201 184.195 412.201C184.274 412.201 184.352 412.228 184.414 412.278C184.454 412.313 185.361 413.146 185.492 415.11C185.491 415.148 185.484 415.186 185.469 415.22C185.454 415.255 185.432 415.287 185.405 415.313C185.378 415.34 185.346 415.361 185.311 415.375C185.276 415.389 185.238 415.396 185.2 415.395L185.183 415.403Z" fill="white"/>
<path d="M193.681 413.611C193.606 413.616 193.531 413.593 193.473 413.545C193.415 413.497 193.377 413.429 193.368 413.354C193.195 410.404 191.274 410.314 191.255 410.312C191.217 410.314 191.179 410.308 191.144 410.295C191.108 410.281 191.075 410.261 191.047 410.235C191.02 410.209 190.997 410.178 190.982 410.143C190.966 410.108 190.958 410.071 190.957 410.033C190.967 409.956 191.006 409.886 191.066 409.838C191.126 409.79 191.203 409.766 191.28 409.773C191.382 409.773 193.787 409.889 193.99 413.326C193.989 413.364 193.981 413.402 193.966 413.437C193.95 413.472 193.928 413.503 193.901 413.53C193.874 413.556 193.841 413.577 193.806 413.591C193.77 413.605 193.733 413.612 193.695 413.611H193.681Z" fill="white"/>
<path d="M220.871 98.5912C220.273 101.578 213.201 110.738 209.913 113.525C206.625 116.312 199.554 113.525 199.554 113.525C199.554 113.525 191.469 107.153 185.431 100.875C183.099 98.4454 181.073 96.0386 179.935 94.0136C175.851 86.7463 178.442 30.8899 178.442 30.8899C176.074 30.9205 173.709 30.754 171.369 30.3919C167.583 29.7949 167.385 25.7066 163.001 24.8182C158.618 23.9297 154.842 21.5316 156.328 20.0358C157.814 18.54 168.978 19.0415 169.376 18.6476C169.774 18.2537 167.987 14.0682 166.19 9.88625C164.394 5.70426 160.512 5.50644 160.512 4.50693C160.512 4.12691 161.092 3.58724 161.901 3.04237C163.217 2.16259 165.14 1.2672 166.189 1.02253C167.881 0.623416 170.876 1.91965 170.876 1.91965C171.917 0.920464 173.236 0.259839 174.661 0.0247497C177.051 -0.37089 180.537 4.10782 180.537 4.10782C180.537 4.10782 181.037 3.71045 183.028 4.10782C185.02 4.5052 194.184 24.9188 194.184 32.1861C194.184 39.4534 200.559 75.8939 201.854 77.8878C202.823 79.3731 211.458 85.2991 215.765 88.2039C217.227 89.1895 218.195 89.8264 218.195 89.8264C221.973 89.9114 221.475 95.6083 220.871 98.5912Z" fill="#FFC890"/>
<path d="M220.87 98.5912C220.273 101.578 213.201 110.738 209.913 113.525C206.624 116.312 199.554 113.525 199.554 113.525C199.554 113.525 191.469 107.153 185.431 100.875C185.693 101.088 195.29 108.815 203.737 106.695C210.661 104.96 214.527 92.7972 215.754 88.1987C217.216 89.1844 218.185 89.8212 218.185 89.8212C221.973 89.9114 221.475 95.6083 220.87 98.5912Z" fill="#FF9D6C"/>
<path d="M249.366 112.232C247.873 121.393 225.665 144.19 224.518 142.997C223.37 141.803 194.58 113.624 199.56 113.525C199.56 113.525 205.637 113.327 211.614 106.258C217.591 99.1881 219.582 90.9057 218.186 89.8212C217.426 89.2277 217.765 88.4538 218.664 88.1987C219.412 87.9835 220.551 88.1275 221.773 89.0334C223.683 90.4389 229.801 94.0847 233.339 96.1011C234.809 96.9392 235.832 97.4893 235.917 97.4893C236.217 97.4962 250.86 103.07 249.366 112.232Z" fill="#6E92CC"/>
<path d="M249.366 112.232C247.873 121.393 225.665 144.19 224.518 142.997C223.37 141.803 194.58 113.624 199.56 113.525C199.56 113.525 205.637 113.327 211.614 106.258C217.591 99.1882 219.582 90.9057 218.186 89.8212C217.426 89.2277 217.765 88.4538 218.664 88.1987C220.674 89.3475 220.122 97 216.378 103.483C212.633 109.966 203.086 114.498 201.305 114.762C199.524 115.026 208.704 125.391 217.383 127.95C226.061 130.51 230.17 115.897 233.366 109.89C236.562 103.882 230.809 99.1882 230.809 99.1882C230.809 99.1882 231.799 97.8503 233.339 96.0994C234.809 96.9375 235.832 97.4876 235.917 97.4876C236.217 97.4963 250.86 103.07 249.366 112.232Z" fill="#5276AF"/>
<path d="M242.371 111.314C242.371 111.314 236.413 111.028 236.887 114.998C237.361 118.968 265.532 116.325 271.308 111.314C271.308 111.314 271.266 110.177 271.308 109.138C271.349 108.099 266.485 108.381 266.485 108.381L242.371 111.314Z" fill="#FF8C3E"/>
<path d="M276.349 86.3697C274.288 90.6506 270.575 108.755 268.101 113.009C265.627 117.264 238.266 121.393 239.778 119.881C241.29 118.37 241.861 106.334 241.861 106.334C241.861 106.334 231.665 105.589 228.698 98.1365C226.714 93.1459 227.7 85.9359 229.438 80.5583C230.202 78.1932 231.113 76.182 231.979 74.8684C232.059 74.7487 232.137 74.6359 232.215 74.5213C233.778 72.3609 236.918 66.0446 239.404 60.7329C241.436 56.3792 243.029 52.7021 242.953 52.5373C243.378 52.6084 254.124 54.4808 263.438 57.1392C269.292 58.812 274.575 60.7954 276.358 62.8395C281.024 68.2084 278.411 82.0871 276.349 86.3697Z" fill="#FFC890"/>
<path d="M258.89 86.3697C257.449 87.1645 262.41 74.0858 261.44 71.207C260.469 68.3282 255.763 62.1836 248.887 60.2454C245.759 59.3342 242.415 59.5085 239.399 60.7399C241.43 56.3861 243.024 52.7091 242.948 52.5443C243.373 52.6154 254.119 54.4877 263.433 57.1462C267.112 60.5438 268.042 64.7119 268.815 68.1339C269.886 72.8399 260.338 85.575 258.89 86.3697Z" fill="#FF9D6C"/>
<path d="M263.555 95.0547C263.555 95.0547 269.794 94.4856 272.442 93.1633C275.089 91.841 270.612 106.091 270.612 106.091C270.612 106.091 267.904 100.63 267.714 98.0307C267.525 95.4313 259.961 96.0942 263.555 95.0547Z" fill="#FF9D6C"/>
<path d="M259.775 63.138C259.775 63.138 266.485 73.029 262.9 79.1736C259.315 85.3181 257.803 86.8539 259.775 86.3697C261.747 85.8856 263.931 79.3627 272.448 82.1044C280.965 84.8461 268.948 62.0656 267.341 61.1199C265.733 60.1742 259.775 63.138 259.775 63.138Z" fill="#361029"/>
<path d="M272.876 88.4122C272.876 88.4122 274.334 92.785 271.497 93.7308C268.66 94.6765 270.035 104.979 272.374 105.262C274.712 105.544 272.915 100.252 276.32 95.9988C279.724 91.7456 277.455 87.7753 276.32 87.2079C275.184 86.6405 272.876 88.4122 272.876 88.4122Z" fill="#361029"/>
<path d="M241.444 111.967C241.444 111.967 236.561 113.645 239.853 115.939C243.144 118.233 273.579 112.005 269.766 108.847L270.096 107.805C270.096 107.805 272.384 107.674 274.61 111.118C274.61 111.118 301.518 155.331 296.194 183.699C296.194 183.699 300.065 235.28 252.816 233.989C205.566 232.698 203.955 223.836 201.052 213.686C198.149 203.536 197.828 189.991 197.828 189.991C197.828 189.991 208.418 156.834 203.472 151.145C202.868 150.451 201.198 148.628 201.198 148.628L222.822 134.383C222.822 134.383 228.145 125.045 230.401 120.204C232.658 115.363 239.321 107.642 241.635 109.891L241.444 111.967Z" fill="#6E92CC"/>
<path d="M255.36 170.919C255.36 170.919 226.412 192.196 222.919 192.03C219.426 191.863 219.914 189.996 219.914 189.996L196.392 196.601L197.83 210.07C197.83 210.07 192.233 240.668 249.13 230.025C306.027 219.383 288.642 188.032 288.642 188.032C288.642 188.032 277.828 146.294 273.585 141.721C269.342 137.149 258.195 123.926 251.117 123.012C244.04 122.097 229.948 129.035 222.82 134.379C222.82 134.379 242.887 124.924 250.956 129C259.025 133.076 269.672 149.12 273.998 168.737C278.325 188.355 280.154 201.829 275.745 208.649C271.335 215.468 231.097 220.611 222.341 217.795C212.775 214.718 209.282 204.576 213.44 200.999C217.598 197.423 226.917 196.835 242.222 185.618C257.527 174.401 258.129 168.894 255.36 170.919Z" fill="#5276AF"/>
<path d="M304.997 438.109C296.699 441.126 288.225 443.635 279.622 445.625C278.901 438.649 266.254 398.535 263.78 392.526C261.306 386.517 259.457 379.041 257.624 371.182C257.267 369.648 256.272 366.252 254.902 361.77C249.244 343.281 237.194 306.373 237.194 306.373C233.002 309.254 204.317 324.441 204.317 324.441C204.418 324.699 212.05 343.937 213.09 361.749V361.765C214.131 379.695 211.387 391.863 211.387 391.863L191.085 394.872C191.085 394.872 190.151 393.169 188.58 390.261C188.122 389.416 187.611 388.467 187.052 387.431C177.872 370.354 156.062 329.045 154.415 318.937C152.318 306.108 191.089 250.203 193.839 242.087C196.588 233.971 193.839 196.786 193.839 196.786L202.099 194.976C202.099 194.976 201.474 215.159 218.857 221.661C236.24 228.163 271.773 219.045 279.632 210.535C287.491 202.025 281.99 179.767 278.969 167.591C275.948 155.414 264.308 129.231 251.866 126.088C239.675 123.012 223.499 133.897 222.837 134.35C242.01 116.607 256.715 117.452 271.511 128.839C286.307 140.225 289.326 179.243 295.48 181.467C301.635 183.692 300.324 163.804 301.77 243.146C302.829 301.412 296.963 337.221 296.161 361.779C295.869 370.665 296.241 378.074 297.841 384.544C301.867 400.824 303.787 420.788 304.612 432.235C304.786 434.59 304.909 436.587 304.997 438.109Z" fill="#FBAE2C"/>
<path d="M219.914 189.988C219.914 189.988 189.434 204.815 180.726 198.853C177.775 196.826 173.732 189.351 169.538 179.989C161.378 161.793 152.644 136.469 150.094 130.187C150.094 130.187 150.094 128.736 148 127.931C145.907 127.126 139.131 124.396 134.131 120.2C134.131 120.2 133.402 123.173 130.485 123.265C127.569 123.357 124.661 119.621 124.661 117.806C124.661 115.991 126.663 114.162 126.663 114.162C126.663 114.162 125.935 108.812 128.572 107.802C128.572 107.802 126.119 104.977 127.932 103.519C127.729 103.589 121.887 105.551 119.56 102.244C117.194 98.8775 120.015 98.5999 123.93 98.1504C127.845 97.701 128.301 96.6946 134.673 97.0572C141.044 97.4199 149.328 98.4211 151.512 101.788C153.696 105.154 157.793 121.349 160.069 124.172C162.345 126.996 192.021 160.021 194.478 159.475C196.934 158.928 203.469 151.145 203.469 151.145C203.469 151.145 215.077 158.722 219.267 173.228C223.456 187.735 219.914 189.988 219.914 189.988Z" fill="#FFC890"/>
<path d="M219.914 189.988C219.914 189.988 189.434 204.815 180.726 198.853C177.775 196.826 173.732 189.351 169.538 179.989C169.645 180.173 174.964 189.28 180.822 194.144C186.737 199.056 218.414 189.866 218.414 182.299C218.414 174.731 207.916 159.638 206.005 156.634C204.094 153.63 197.325 157.658 199.023 159.313C200.72 160.969 207.748 175.932 203.432 180.761C199.392 185.273 201.686 178.963 201.686 178.963C201.686 178.963 203.305 172.489 200.755 167.575C199.145 164.533 197.02 161.793 194.474 159.476C196.566 157.523 203.465 151.147 203.465 151.147C203.465 151.147 215.074 158.723 219.263 173.23C223.452 187.737 219.914 189.988 219.914 189.988Z" fill="#FF9D6C"/>
<path d="M304.997 438.109C296.699 441.126 288.224 443.635 279.621 445.625C278.901 438.649 266.254 398.535 263.78 392.526C261.306 386.517 259.457 379.041 257.624 371.182C257.266 369.648 256.272 366.252 254.902 361.77C249.244 343.281 237.194 306.373 237.194 306.373C237.194 306.373 253.916 297.409 262.492 291.882C271.068 286.355 277.163 286.354 275.696 291.882C274.229 297.411 249.829 311.282 256.555 339.029C258.091 345.363 259.989 353.258 262.082 361.761C269.174 390.53 278.559 426.23 284.047 431.628C288.626 436.129 298.305 434.179 304.615 432.218C304.785 434.59 304.909 436.588 304.997 438.109Z" fill="#D18A12"/>
<path d="M211.387 391.877L191.085 394.886C191.085 394.886 190.151 393.183 188.58 390.275C188.58 390.275 206.713 392.569 207.739 381.116C208.765 369.664 197.04 339.735 196.346 333.485C195.651 327.235 204.314 324.45 204.314 324.45C204.415 324.708 212.046 343.945 213.086 361.758C214.138 379.7 211.387 391.877 211.387 391.877Z" fill="#D18A12"/>
<path d="M189.693 392.338C189.693 392.338 201.904 392.512 211.939 388.868C211.939 388.868 213.517 387.48 213.765 390.603C214.013 393.727 213.765 396.888 212.439 397.718C211.112 398.547 193.705 401.197 191.549 399.79C189.393 398.382 185.931 390.851 189.693 392.338Z" fill="#1A4EA1"/>
<path d="M128.05 103.204C129.363 102.616 130.732 102.161 132.136 101.845C132.31 101.805 132.484 101.761 132.657 101.723C132.831 101.685 133.004 101.656 133.194 101.626C133.553 101.565 133.916 101.512 134.303 101.48C135.051 101.428 135.763 101.439 136.48 101.458C137.904 101.508 139.324 101.634 140.735 101.834C142.155 102.018 143.559 102.308 144.936 102.702V102.789L140.698 102.525C139.285 102.445 137.872 102.369 136.459 102.329C135.753 102.305 135.046 102.286 134.343 102.305C133.639 102.342 132.938 102.418 132.242 102.532C131.548 102.636 130.853 102.758 130.159 102.879C129.465 103 128.77 103.138 128.076 103.283L128.05 103.204Z" fill="#FF9D6C"/>
<path d="M128.57 107.755C129.545 107.454 130.547 107.25 131.561 107.146C133.556 106.912 135.57 106.912 137.565 107.146C138.581 107.249 139.584 107.455 140.558 107.762V107.849L137.563 107.835H134.566H128.575L128.57 107.755Z" fill="#FF9D6C"/>
<path d="M126.655 114.122C127.387 113.773 128.161 113.518 128.957 113.365C129.734 113.208 130.522 113.115 131.313 113.088C132.112 113.057 132.912 113.102 133.702 113.223C134.108 113.286 134.508 113.381 134.898 113.508C135.098 113.576 135.294 113.656 135.485 113.747C135.685 113.839 135.865 113.969 136.016 114.129L135.974 114.203C135.616 114.064 135.236 113.987 134.851 113.974C134.464 113.94 134.075 113.922 133.685 113.915C132.905 113.903 132.122 113.915 131.344 113.955C130.567 113.995 129.782 114.014 129.003 114.059L126.662 114.209L126.655 114.122Z" fill="#FF9D6C"/>
<path d="M127.725 119.921C127.756 119.572 127.904 119.244 128.145 118.989C128.202 118.922 128.264 118.86 128.332 118.803C128.399 118.741 128.469 118.683 128.543 118.63C128.615 118.581 128.692 118.538 128.77 118.491C128.845 118.444 128.925 118.406 129.008 118.377C129.646 118.121 130.344 118.053 131.02 118.181C131.336 118.241 131.647 118.328 131.949 118.441C132.093 118.505 132.239 118.566 132.377 118.639C132.449 118.673 132.52 118.706 132.589 118.743C132.659 118.779 132.721 118.826 132.787 118.866C132.917 118.953 133.044 119.039 133.169 119.133C133.296 119.223 133.416 119.324 133.527 119.433C133.757 119.653 133.964 119.895 134.145 120.157L134.103 120.232L133.322 119.853C133.065 119.723 132.801 119.626 132.528 119.506C132.397 119.448 132.262 119.399 132.124 119.359L131.714 119.223C131.577 119.177 131.435 119.156 131.296 119.119C131.158 119.083 131.017 119.054 130.876 119.033C130.316 118.92 129.739 118.925 129.181 119.046C129.044 119.079 128.909 119.122 128.779 119.175C128.713 119.202 128.65 119.233 128.588 119.267C128.527 119.298 128.469 119.333 128.414 119.373C128.172 119.517 127.965 119.715 127.81 119.95L127.725 119.921Z" fill="#FF9D6C"/>
<path d="M171.591 18.4029C171.404 18.7777 169.378 18.6389 169.378 18.6389C169.777 18.2415 167.989 14.0596 166.192 9.87757C164.395 5.69559 160.514 5.49777 160.514 4.49825C160.514 4.11823 161.093 3.57856 161.902 3.03369C163.849 3.39959 165.602 4.44514 166.848 5.98364C169.907 9.67281 171.779 18.0298 171.591 18.4029Z" fill="#FF9D6C"/>
<path d="M170.881 1.8884C171.106 1.94739 171.32 2.03919 171.518 2.16083C171.715 2.27759 171.905 2.40563 172.088 2.54433C172.261 2.68315 172.435 2.83238 172.608 2.98335C172.782 3.13432 172.937 3.29743 173.091 3.46055C173.403 3.78672 173.698 4.12842 173.975 4.48435C174.247 4.84181 174.495 5.20796 174.756 5.57063C175.016 5.9333 175.24 6.31505 175.469 6.69507C175.699 7.0751 175.923 7.46033 176.12 7.85944C176.544 8.6462 176.893 9.47121 177.162 10.3235L177.117 10.3478C176.692 9.57735 176.233 8.82251 175.765 8.07461C175.296 7.32671 174.811 6.59096 174.315 5.86215C173.836 5.12259 173.319 4.40844 172.766 3.72257C172.49 3.37945 172.196 3.05158 171.884 2.74041C171.726 2.58771 171.567 2.43674 171.395 2.29965C171.23 2.15739 171.048 2.03615 170.853 1.93872L170.881 1.8884Z" fill="#FF9D6C"/>
<path d="M180.558 4.09048C180.829 4.24156 181.069 4.44298 181.265 4.68394C181.451 4.9068 181.608 5.15295 181.732 5.41622C181.858 5.68007 181.949 5.95961 182.001 6.24742C182.061 6.55665 182.053 6.8753 181.976 7.18099L181.926 7.19661C181.834 6.92938 181.725 6.67603 181.615 6.40879C181.506 6.14156 181.384 5.88822 181.268 5.63834C181.152 5.38846 181.027 5.12643 180.9 4.87309L180.518 4.11478L180.558 4.09048Z" fill="#FF9D6C"/>
<path d="M178.444 30.8829C178.444 30.8829 180.919 30.5983 181.159 31.433C181.398 32.2677 177.716 55.1627 177.716 55.1627C177.716 55.1627 178.115 33.1978 178.444 30.8829Z" fill="#FF9D6C"/>
<path d="M225.061 423.656V431.79H139.323C133.554 429.276 127.952 426.565 122.518 423.656H225.061Z" fill="#D03E48"/>
<g opacity="0.55">
<path d="M228.974 451.164C226.171 451.139 223.377 451.062 220.593 450.931L216.357 431.789L215.425 427.578L223.369 425.824L224.688 431.789L228.974 451.164Z" fill="#D03E48"/>
</g>
<path d="M289.654 81.3478C289.44 82.3733 289.134 83.3774 288.74 84.3481C285.304 92.8509 276.32 95.9986 276.32 95.9986L264.711 70.4347C264.711 70.4347 250.6 49.3062 248.897 48.2668C248.745 48.1731 252.908 46.3233 258.991 46.4204C264.069 46.5027 269.035 47.9218 273.389 50.5348C286.155 58.0953 291.922 70.5736 289.654 81.3478Z" fill="#4D87DB"/>
<path opacity="0.66" d="M288.74 84.3481C285.304 92.8509 276.32 95.9986 276.32 95.9986L264.711 70.4347C264.711 70.4347 250.6 49.3062 248.897 48.2668C248.745 48.1731 252.908 46.3233 258.991 46.4204C261.444 49.2489 263.612 54.9024 267.18 60.0388C278.118 75.788 283.195 79.5761 288.74 84.3481Z" fill="#1A4EA1"/>
<path d="M240.314 58.7704C240.314 58.7704 246.968 52.6623 254.055 59.4992C261.141 66.3362 264.712 70.4314 264.712 70.4314C264.712 70.4314 252.187 33.5223 240.314 29.7932C228.441 26.0642 240.314 58.7704 240.314 58.7704Z" fill="#4D87DB"/>
<path d="M241.861 106.334C241.861 106.334 245.493 106.775 252.206 104.79C258.919 102.804 261.754 100.347 261.754 100.347C261.754 100.347 263.886 99.3061 262.584 102.43C261.282 105.553 249.39 110.073 241.625 109.891L241.861 106.334Z" fill="#FF9D6C"/>
<path d="M236.86 33.5101C236.86 33.5101 238.422 28.8977 245.203 35.4987C251.984 42.0996 257.39 59.6188 257.39 59.6188" stroke="#1A4EA1" stroke-miterlimit="10"/>
<path d="M263.428 88.3202C263.23 90.5604 266.206 91.9434 267.994 90.8953C269.782 89.8472 270.193 86.3958 268.103 85.4101C266.058 84.4523 263.617 86.1945 263.428 88.3202Z" fill="#FF9D6C"/>
<g opacity="0.5">
<path d="M246.39 86.5849C246.192 88.8251 249.168 90.2064 250.956 89.1583C252.744 88.1102 253.155 84.6605 251.065 83.6749C249.011 82.7048 246.564 84.4488 246.39 86.5849Z" fill="#FF9D6C"/>
</g>
<g opacity="0.5">
<path d="M232.174 80.4767C231.372 80.9487 230.327 80.9262 229.438 80.5583C230.202 78.1931 231.113 76.1819 231.979 74.8683C232.083 74.9042 232.185 74.9453 232.285 74.9916C234.375 75.9772 233.979 79.4182 232.174 80.4767Z" fill="#FF9D6C"/>
</g>
<path d="M202.186 243.368C202.186 243.368 246.491 255.023 296.885 238.488" stroke="#D18A12" stroke-width="7" stroke-miterlimit="10"/>
<path d="M223.881 253.127C223.881 253.127 171.81 301.109 175.878 321.168C179.945 341.228 197.821 384.058 197.821 384.058" stroke="white" stroke-width="2" stroke-miterlimit="10" stroke-linecap="round" stroke-dasharray="20 20"/>
<path d="M235.304 75.3057C235.651 75.7205 236.3 75.7465 236.783 75.5122C237.266 75.278 237.618 74.8441 237.953 74.4259C238.71 73.4785 239.314 71.3216 237.333 71.5905C236.083 71.7589 234.368 74.1691 235.304 75.3057Z" fill="#361029"/>
<path d="M246.055 81.327C246.402 81.7417 247.051 81.7677 247.534 81.5335C248.017 81.2992 248.369 80.8654 248.704 80.4472C249.461 79.4997 250.063 77.3428 248.084 77.6118C246.833 77.7818 245.118 80.1921 246.055 81.327Z" fill="#361029"/>
<path d="M236.255 67.183C236.698 66.7218 237.268 66.4033 237.892 66.2685C238.526 66.117 239.187 66.1271 239.816 66.298C240.138 66.3869 240.447 66.5176 240.734 66.6867C241.019 66.8578 241.277 67.0687 241.502 67.3131C241.947 67.7884 242.219 68.3997 242.274 69.0484L242.2 69.0952C242.043 68.8622 241.869 68.6412 241.679 68.4341C241.311 68.014 240.864 67.6713 240.363 67.4259C240.113 67.3057 239.852 67.2098 239.583 67.1396C239.045 66.9917 238.486 66.9331 237.929 66.9661C237.649 66.9823 237.371 67.0159 237.096 67.0667C236.82 67.1121 236.548 67.1788 236.283 67.2663L236.255 67.183Z" fill="#361029"/>
<path d="M248.416 72.0312C249.012 71.8 249.663 71.7516 250.286 71.8924C251.261 72.0858 252.122 72.6516 252.687 73.4697C252.872 73.7454 253.017 74.0457 253.119 74.3616C253.32 74.9792 253.309 75.6464 253.086 76.2566L253.001 76.267C252.959 75.9901 252.896 75.7168 252.812 75.4497C252.732 75.1828 252.628 74.9238 252.501 74.6757C252.37 74.4308 252.218 74.1985 252.044 73.9816C251.868 73.7669 251.672 73.5699 251.458 73.3934C251.032 73.0321 250.55 72.7436 250.031 72.5396C249.771 72.4355 249.505 72.3485 249.234 72.2793C248.964 72.2041 248.689 72.1501 248.411 72.118L248.416 72.0312Z" fill="#361029"/>
<path d="M231.395 90.5239C231.395 90.5239 233.033 92.2227 235.299 92.6773C237.633 93.1359 240.045 92.9962 242.311 92.2713" stroke="#FF6029" stroke-width="3" stroke-miterlimit="10" stroke-linecap="round"/>
<path d="M237.287 79.6351L233.439 84.0566L237.146 85.9341L237.287 79.6351Z" fill="#FF6029"/>
</g>
<defs>
<filter id="filter0_d_246_43" x="0" y="0" width="482.018" height="459.173" filterUnits="userSpaceOnUse" color-interpolation-filters="sRGB">
<feFlood flood-opacity="0" result="BackgroundImageFix"/>
<feColorMatrix in="SourceAlpha" type="matrix" values="0 0 0 0 0 0 0 0 0 0 0 0 0 0 0 0 0 0 127 0" result="hardAlpha"/>
<feOffset dy="4"/>
<feGaussianBlur stdDeviation="2"/>
<feComposite in2="hardAlpha" operator="out"/>
<feColorMatrix type="matrix" values="0 0 0 0 0 0 0 0 0 0 0 0 0 0 0 0 0 0 0.25 0"/>
<feBlend mode="normal" in2="BackgroundImageFix" result="effect1_dropShadow_246_43"/>
<feBlend mode="normal" in="SourceGraphic" in2="effect1_dropShadow_246_43" result="shape"/>
</filter>
</defs>
</svg>
