<svg width="884" height="589" viewBox="0 0 884 589" fill="none" xmlns="http://www.w3.org/2000/svg">
<path d="M659.457 181.042C659.457 181.042 660.412 157.62 622.151 133.72C583.89 109.82 536.067 106.473 515.017 107.91C515.017 107.91 491.104 70.6253 418.406 68.2353C345.708 65.8453 272.053 77.3176 258.183 173.868C258.183 173.868 213.227 158.095 183.094 199.68C152.96 241.265 154.398 299.584 195.051 324.441C235.703 349.298 318.924 336.868 318.924 336.868L700.589 288.117C700.589 288.117 712.548 228.368 691.981 205.431C671.415 182.494 670.934 182.956 659.457 181.042Z" fill="#24282D"/>
<path d="M301.668 101.217C301.668 101.217 281.729 119.201 288.538 154.193C288.538 154.193 298.264 70.1118 394.55 83.234C394.55 83.234 343.003 59.4192 301.668 101.217Z" fill="white"/>
<path d="M193.127 196.836C193.127 196.836 235.922 172.536 261.694 175.45C261.695 175.45 216.955 168.647 193.127 196.836Z" fill="white"/>
<path d="M600.732 328.481C598.786 327.184 474.954 335.609 452.265 338.199C429.576 340.789 351.776 359.583 345.292 360.23C338.807 360.878 303.15 382.261 299.259 386.797C295.368 391.334 294.072 411.42 296.666 414.66C299.259 417.899 443.189 427.62 445.133 428.267C447.076 428.915 495.702 434.099 513.856 423.083C532.01 412.068 568.962 386.797 606.566 383.558C644.17 380.318 652.423 379.58 652.423 379.58C656.956 385.412 667.519 380.97 667.519 380.97C705.123 388.096 704.473 353.107 704.473 353.107C704.473 353.107 602.677 329.78 600.732 328.481Z" fill="#D8D8D8"/>
<g style="mix-blend-mode:multiply">
<path d="M595.979 369.96C546.093 372.486 505.748 376.416 505.865 378.738C505.983 381.06 546.52 380.898 596.406 378.372C646.291 375.846 686.636 371.916 686.519 369.592C686.402 367.268 645.866 367.434 595.979 369.96Z" fill="#D8D8D8"/>
</g>
<g style="mix-blend-mode:multiply">
<path d="M562.322 461.993C546.888 460.742 531.248 464.321 515.869 462.684C506.519 461.689 497.675 458.805 488.514 457.021C452.449 449.989 414.377 460.3 377.496 456.789C357.803 454.914 338.865 449.124 319.071 448.105C297.302 446.981 276.027 451.656 255.015 455.467C244.262 457.415 233.42 459.213 222.407 459.939C218.987 460.164 212.445 459.129 210.677 462.052C208.726 465.276 214.548 469.341 217.334 470.781C236.396 480.632 261.313 477.683 283.823 474.915C307.517 472.002 331.655 469.701 355.411 472.223C370.347 473.807 384.842 477.269 399.519 479.963C443.619 488.068 489.241 489.248 534.505 489.827C544.654 489.958 554.993 490.039 564.71 487.715C573.965 485.502 583.512 478.984 581.124 471.583C579.164 465.482 570.237 462.635 562.322 461.993Z" fill="#D8D8D8"/>
</g>
<path d="M653.282 199.067C687.863 198.906 716.029 226.793 716.182 261.365C716.182 261.926 716.176 262.486 716.166 263.045H716.189L716.265 278.997C717.705 279.283 719.003 280.057 719.938 281.19C720.873 282.322 721.388 283.742 721.395 285.21L721.463 299.775C721.47 301.243 720.968 302.668 720.044 303.809C719.12 304.95 717.829 305.736 716.391 306.035L716.425 313.384L716.69 313.371C717.313 313.336 717.937 313.429 718.523 313.643C719.109 313.856 719.646 314.187 720.1 314.615C720.555 315.043 720.917 315.558 721.166 316.13C721.415 316.702 721.545 317.319 721.548 317.943L721.701 350.393C721.707 351.572 721.259 352.709 720.451 353.568C719.642 354.427 718.535 354.944 717.356 355.01L716.625 355.05L706.737 355.635C708.026 351.252 708.241 346.623 707.364 342.14C706.487 337.656 704.544 333.449 701.699 329.873C698.853 326.298 695.188 323.459 691.014 321.596C686.84 319.734 682.279 318.902 677.716 319.171C673.153 319.441 668.721 320.803 664.796 323.144C660.87 325.484 657.565 328.734 655.161 332.62C652.756 336.505 651.321 340.912 650.979 345.467C650.636 350.023 651.395 354.594 653.191 358.795L644.723 359.296L644.555 323.593C614.367 319.251 591.099 293.352 590.956 261.95C590.797 227.379 618.7 199.229 653.282 199.067Z" fill="#90BCD5"/>
<path d="M338.287 359.243L482.547 373.596V116.811L338.287 126.133V359.243Z" fill="#90BCD5"/>
<path d="M344.412 349.56L476.421 362.694V127.713L344.412 136.244V349.56Z" fill="#434959"/>
<mask id="mask0_265_2460" style="mask-type:luminance" maskUnits="userSpaceOnUse" x="344" y="127" width="133" height="236">
<path d="M344.412 349.56L476.421 362.694V127.713L344.412 136.244V349.56Z" fill="white"/>
</mask>
<g mask="url(#mask0_265_2460)">
<path d="M470.059 119.382L462.399 121.294L329.924 324.924L340.445 381.806C340.445 381.806 485.842 394.713 485.842 392.323C485.842 389.933 506.41 240.795 506.41 240.795L492.542 125.119L470.059 119.382Z" fill="#2D323D"/>
</g>
<path d="M655.444 254.044V204.262C658.008 203.896 653.556 203.983 656.226 203.983C685.03 203.983 708.658 226.131 711.004 254.316L655.444 254.044Z" fill="#D5DEE0"/>
<mask id="mask1_265_2460" style="mask-type:luminance" maskUnits="userSpaceOnUse" x="655" y="203" width="57" height="52">
<path d="M655.444 254.044V204.262C658.008 203.896 653.556 203.983 656.226 203.983C685.03 203.983 708.658 226.131 711.004 254.316L655.444 254.044Z" fill="white"/>
</mask>
<g mask="url(#mask1_265_2460)">
<path d="M663.342 189.741L705.711 270.778L718.401 270.347L678.398 201.78L663.342 189.741Z" fill="#E7F0F2"/>
<path d="M651.299 189.956L678.827 266.477L694.743 266.692L663.773 201.349L651.299 189.956Z" fill="#E7F0F2"/>
</g>
<path d="M713.427 235.534H711.331C708.232 235.534 705.721 238.044 705.721 241.141V261.618C705.721 264.714 708.232 267.225 711.331 267.225H713.427C716.526 267.225 719.037 264.714 719.037 261.618V241.141C719.037 238.044 716.526 235.534 713.427 235.534Z" fill="#333134"/>
<path d="M712.384 237.282H712.371C709.644 237.282 707.434 239.491 707.434 242.217V260.542C707.434 263.267 709.644 265.477 712.371 265.477H712.384C715.111 265.477 717.322 263.267 717.322 260.542V242.217C717.322 239.491 715.111 237.282 712.384 237.282Z" fill="#D5DEE0"/>
<path d="M679.686 376.241C693.989 376.241 705.584 364.652 705.584 350.357C705.584 336.062 693.989 324.473 679.686 324.473C665.382 324.473 653.787 336.062 653.787 350.357C653.787 364.652 665.382 376.241 679.686 376.241Z" fill="#333333"/>
<path d="M684.427 365.896C693.051 363.286 697.924 354.183 695.312 345.565C692.701 336.946 683.593 332.076 674.969 334.686C666.346 337.296 661.473 346.399 664.084 355.017C666.696 363.636 675.804 368.506 684.427 365.896Z" fill="#C1C1C1"/>
<path d="M679.687 343.113C678.254 343.113 676.852 343.538 675.66 344.333C674.468 345.129 673.539 346.26 672.99 347.584C672.441 348.907 672.297 350.364 672.577 351.769C672.856 353.174 673.546 354.465 674.56 355.478C675.573 356.491 676.865 357.182 678.271 357.461C679.677 357.741 681.134 357.597 682.458 357.049C683.783 356.501 684.915 355.573 685.711 354.381C686.508 353.19 686.933 351.79 686.933 350.357C686.933 348.436 686.17 346.594 684.811 345.236C683.452 343.877 681.609 343.114 679.687 343.113Z" fill="#333333"/>
<path d="M678.079 315.644C659.529 316.333 644.784 330.935 643.513 349.037C643.483 349.494 643.55 349.951 643.708 350.38C643.867 350.81 644.114 351.2 644.433 351.528C644.753 351.856 645.138 352.112 645.563 352.282C645.988 352.451 646.444 352.529 646.901 352.511L651.548 352.337C652.394 352.309 653.2 351.975 653.819 351.398C654.437 350.821 654.825 350.039 654.91 349.198C655.489 343.274 658.196 337.761 662.531 333.679C666.865 329.598 672.532 327.225 678.483 327C684.434 326.775 690.265 328.714 694.895 332.456C699.526 336.199 702.642 341.492 703.666 347.355C703.816 348.195 704.265 348.953 704.931 349.487C705.596 350.022 706.432 350.298 707.285 350.264L711.802 350.096C712.276 350.078 712.741 349.959 713.166 349.749C713.592 349.538 713.968 349.24 714.27 348.874C714.572 348.509 714.793 348.083 714.919 347.626C715.045 347.168 715.073 346.69 715.002 346.221C712.331 328.352 696.577 314.962 678.079 315.644Z" fill="#354877"/>
<path d="M644.58 138.832L644.425 359.63L572.942 365.977C572.712 345.73 560.576 329.425 545.646 329.425C530.567 329.425 518.344 346.06 518.344 366.581C518.344 368.01 518.403 369.42 518.521 370.809L482.621 373.996V117.205L644.58 138.832Z" fill="#E0E0E0"/>
<mask id="mask2_265_2460" style="mask-type:luminance" maskUnits="userSpaceOnUse" x="482" y="117" width="163" height="257">
<path d="M644.58 138.832L644.425 359.63L572.942 365.977C572.712 345.73 560.576 329.425 545.646 329.425C530.567 329.425 518.344 346.06 518.344 366.581C518.344 368.01 518.403 369.42 518.521 370.809L482.621 373.996V117.205L644.58 138.832Z" fill="white"/>
</mask>
<g mask="url(#mask2_265_2460)">
<path d="M460.621 356.228L465.353 389.335L529.454 395.783L645.179 385.895L653.352 368.267L648.62 342.039L460.621 356.228Z" fill="#90BCD5"/>
<path d="M449.695 233.493L448.836 289.371L657.851 283.354L649.251 232.634L449.695 233.493Z" fill="#90BCD5"/>
<path d="M480.84 121.9L640.875 142.538L639.585 236.699L646.468 242.289L657.223 133.078L469.654 102.122L480.84 121.9Z" fill="#90BCD5"/>
</g>
<path d="M546.631 388C561.021 387.331 572.149 375.214 571.485 360.934C570.821 346.654 558.618 335.619 544.227 336.288C529.837 336.956 518.71 349.074 519.374 363.353C520.038 377.633 532.241 388.668 546.631 388Z" fill="#333333"/>
<path d="M546.174 378.46C555.239 378.037 562.247 370.402 561.827 361.407C561.408 352.412 553.719 345.462 544.654 345.885C535.589 346.307 528.58 353.942 529 362.937C529.42 371.932 537.109 378.882 546.174 378.46Z" fill="#C1C1C1"/>
<path d="M545.757 369.397C549.784 369.209 552.897 365.817 552.71 361.821C552.524 357.825 549.108 354.738 545.082 354.925C541.055 355.113 537.942 358.505 538.129 362.501C538.315 366.497 541.73 369.584 545.757 369.397Z" fill="#333333"/>
<path d="M542.188 327.571C522.334 329.23 507.564 346.472 509.066 366.148L520.479 365.193C519.502 351.771 529.591 340.029 543.145 338.894C556.7 337.759 568.609 347.665 569.894 361.061L581.307 360.105C579.489 340.455 562.04 325.91 542.188 327.571Z" fill="#354877"/>
<path d="M439.173 186.275H360.803V358.191H439.173V186.275Z" fill="#72655A"/>
<path d="M476.816 255.973H434.691V364.955H476.816V255.973Z" fill="#635C56"/>
<path d="M356.747 312.867L455.937 311.626L456.248 248.737L356.438 250.287L356.747 312.867Z" fill="#D3A979"/>
<path d="M343.727 243.782L356.437 250.287L456.248 248.737L418.43 244.091L343.727 243.782Z" fill="#AF8A66"/>
<path d="M343.728 243.782L343.418 298.616L356.748 312.867L356.438 250.287L343.728 243.782Z" fill="#997558"/>
<path d="M241.535 222.436L260.807 227.922H344.774L325.504 222.436H241.535Z" fill="#BF9871"/>
<path d="M344.775 227.922H260.809V388.323H344.775V227.922Z" fill="#AF8A66"/>
<path d="M241.535 380.651L260.807 388.323V227.922L241.535 222.436V380.651Z" fill="#937052"/>
<path d="M308.756 227.922H296.139V257.168H308.756V227.922Z" fill="#7C6550"/>
<path d="M276.752 222.436L296.138 227.922H308.755L289.37 222.436H276.752Z" fill="#87705B"/>
<path d="M379.029 411.979L426.034 412.466L441.756 400.801L403.181 401.774L379.029 411.979Z" fill="white"/>
<path d="M403.146 401.613L378.25 412.134L426.039 412.627H426.094L442.27 400.626L403.183 401.609L403.146 401.613ZM441.244 400.973L425.977 412.3L379.806 411.824L403.21 401.934L441.244 400.973Z" fill="black"/>
<path d="M498.264 361.467H421.602V438.086H498.264V361.467Z" fill="#CCA279"/>
<path d="M466.488 361.433H454.893V379.373H466.488V361.433Z" fill="#725B46"/>
<path d="M421.602 361.467H498.264L505.723 359.754H429.11L421.602 361.467Z" fill="#A88469"/>
<path d="M498.264 438.088L505.723 436.375V359.754L498.264 361.467V438.088Z" fill="#AA7F5F"/>
<path d="M454.893 361.433H466.487L468.685 359.749H458.529L454.893 361.433Z" fill="#725B46"/>
<path d="M344.771 390.341H249.197V440.032H344.771V390.341Z" fill="#CCA279"/>
<path d="M344.771 440.032L372.225 427.814V378.123L344.771 390.341V440.032Z" fill="#AA7F5F"/>
<path d="M249.197 390.341H344.771L372.224 378.123H276.65L249.197 390.341Z" fill="#D8A880"/>
<path d="M302.673 390.341H292.303V405.662H302.673V390.341Z" fill="#66503D"/>
<path d="M292.303 390.341H302.673L326.979 378.123H316.609L292.303 390.341Z" fill="#725B46"/>
<path d="M358.498 402.327L365.506 398.808V381.113L358.498 384.24V402.327Z" fill="#5B4737"/>
<path d="M263.24 384.092L358.499 384.24L365.507 381.113L269.186 381.474L263.24 384.092Z" fill="#725B46"/>
<path d="M416.954 354.635L393.494 352.528L393.025 417.325C393.025 417.325 408.977 415.543 414.138 414.896C419.298 414.248 419.3 407.444 419.3 407.444C419.3 407.444 418.986 364.678 418.986 359.331C418.986 353.985 416.954 354.635 416.954 354.635Z" fill="#32426D"/>
<path d="M391.807 352.205H377.978C374.801 352.205 372.225 354.78 372.225 357.955V411.575C372.225 414.751 374.801 417.325 377.978 417.325H391.807C394.984 417.325 397.56 414.751 397.56 411.575V357.955C397.56 354.78 394.984 352.205 391.807 352.205Z" fill="#292F44"/>
<path d="M384.815 378.123C389.349 378.123 393.026 374.315 393.026 369.618C393.026 364.921 389.349 361.114 384.815 361.114C380.28 361.114 376.604 364.921 376.604 369.618C376.604 374.315 380.28 378.123 384.815 378.123Z" fill="#2F89D3"/>
<path d="M384.343 385.251C382.745 385.251 381.451 386.594 381.451 388.247C381.451 389.901 382.745 391.245 384.343 391.245C385.941 391.245 387.237 389.903 387.237 388.247C387.237 386.592 385.941 385.251 384.343 385.251Z" fill="#2F89D3"/>
<path d="M392.635 383.147C393.714 383.147 394.59 382.24 394.59 381.121C394.59 380.002 393.714 379.095 392.635 379.095C391.555 379.095 390.68 380.002 390.68 381.121C390.68 382.24 391.555 383.147 392.635 383.147Z" fill="#2F89D3"/>
<path d="M429.404 405.211H383.047V449.273H429.404V405.211Z" fill="#BF9871"/>
<path d="M429.402 449.273L444.194 438.686V394.624L429.402 405.211V449.273Z" fill="#967353"/>
<path d="M383.047 405.211H429.404L444.196 394.624H397.839L383.047 405.211Z" fill="#A88469"/>
<path d="M412.47 405.266H400.566V420.58H412.47V405.266Z" fill="#725B46"/>
<path d="M400.566 405.266H412.468L425.156 394.624H413.254L400.566 405.266Z" fill="#5B4737"/>
<path d="M434.928 417.984L441.518 412.617V396.539L434.928 401.258V417.984Z" fill="#4C3A2D"/>
<path d="M388.508 401.302L434.927 401.258L441.518 396.539L394.96 396.684L388.508 401.302Z" fill="#5B4737"/>
<path d="M372.949 392.193H324.96C317.686 392.193 311.789 398.087 311.789 405.357V428.707C311.789 435.977 317.686 441.871 324.96 441.871H372.949C380.224 441.871 386.121 435.977 386.121 428.707V405.357C386.121 398.087 380.224 392.193 372.949 392.193Z" fill="#476993"/>
<path d="M372.692 394.03H325.22C318.865 394.03 313.713 399.179 313.713 405.53V428.531C313.713 434.883 318.865 440.032 325.22 440.032H372.692C379.047 440.032 384.199 434.883 384.199 428.531V405.53C384.199 399.179 379.047 394.03 372.692 394.03Z" fill="#96ACCC"/>
<path d="M342.131 459.12H356.394V441.948L342.131 441.839V459.12Z" fill="#476993"/>
<path d="M349.963 465.489C363.122 465.489 373.79 463.918 373.79 461.98C373.79 460.042 363.122 458.47 349.963 458.47C336.804 458.47 326.137 460.042 326.137 461.98C326.137 463.918 336.804 465.489 349.963 465.489Z" fill="#476993"/>
<path d="M510.157 403.395C510.157 393.433 474.063 393.433 474.063 403.395C474.062 404.814 474.228 406.227 474.557 407.607L477.818 435.314C478.004 436.897 478.766 438.357 479.958 439.416C481.149 440.475 482.689 441.06 484.283 441.061H499.936C501.531 441.061 503.07 440.475 504.262 439.416C505.453 438.357 506.214 436.897 506.4 435.314L509.662 407.607C509.992 406.227 510.158 404.814 510.157 403.395Z" fill="#8EBA5A"/>
<mask id="mask3_265_2460" style="mask-type:luminance" maskUnits="userSpaceOnUse" x="474" y="395" width="37" height="47">
<path d="M510.157 403.395C510.157 393.433 474.063 393.433 474.063 403.395C474.062 404.814 474.228 406.227 474.557 407.607L477.818 435.314C478.004 436.897 478.766 438.357 479.958 439.416C481.149 440.475 482.689 441.06 484.283 441.061H499.936C501.531 441.061 503.07 440.475 504.262 439.416C505.453 438.357 506.214 436.897 506.4 435.314L509.662 407.607C509.992 406.227 510.158 404.814 510.157 403.395Z" fill="white"/>
</mask>
<g mask="url(#mask3_265_2460)">
<path d="M481.439 403.001C481.439 403.001 483.706 429.891 485.491 431.998C487.276 434.104 496.838 433.778 497.971 429.891C499.104 426.004 503.968 403.486 503.968 403.486L497.486 404.618C491.003 405.755 481.439 403.001 481.439 403.001Z" fill="#9BC165"/>
</g>
<path d="M492.109 401.526C499.629 401.526 505.724 399.75 505.724 397.558C505.724 395.367 499.629 393.59 492.109 393.59C484.59 393.59 478.494 395.367 478.494 397.558C478.494 399.75 484.59 401.526 492.109 401.526Z" fill="#B8E27D"/>
<path d="M492.109 400.692C498.045 400.692 502.857 399.289 502.857 397.558C502.857 395.827 498.045 394.424 492.109 394.424C486.173 394.424 481.361 395.827 481.361 397.558C481.361 399.289 486.173 400.692 492.109 400.692Z" fill="#33345E"/>
<path d="M441.01 439.736C441.01 442.516 449.209 444.77 459.332 444.77C469.455 444.77 477.654 442.516 477.654 439.736V425.137H441.01V439.736Z" fill="#911A1A"/>
<path d="M459.326 431.565C469.441 431.565 477.641 428.688 477.641 425.139C477.641 421.59 469.441 418.713 459.326 418.713C449.211 418.713 441.012 421.59 441.012 425.139C441.012 428.688 449.211 431.565 459.326 431.565Z" fill="#E94E3C"/>
<path d="M226.319 199.524C226.319 199.524 223.386 215.863 221.323 216.731C219.261 217.6 238.701 232.476 238.701 232.476C238.701 232.476 241.308 230.739 241.308 230.412C241.308 230.086 239.46 213.692 243.969 211.411C248.478 209.131 227.456 196.7 227.456 196.7L226.319 199.524Z" fill="#FFBF9C"/>
<mask id="mask4_265_2460" style="mask-type:luminance" maskUnits="userSpaceOnUse" x="221" y="196" width="24" height="37">
<path d="M226.319 199.524C226.319 199.524 223.386 215.863 221.323 216.731C219.261 217.6 238.701 232.476 238.701 232.476C238.701 232.476 241.308 230.739 241.308 230.412C241.308 230.086 239.46 213.692 243.969 211.411C248.478 209.131 227.456 196.7 227.456 196.7L226.319 199.524Z" fill="white"/>
</mask>
<g mask="url(#mask4_265_2460)">
<path d="M248.389 204.664C248.472 204.421 237.552 198.557 237.055 198.476C236.558 198.395 225.24 201.978 225.24 201.978C225.24 201.978 228.011 212.482 235.017 215.657C242.023 218.832 249.684 214.354 249.684 214.354C249.684 214.354 248.315 204.91 248.389 204.664Z" fill="#EA9378"/>
</g>
<path d="M221.756 198.329C221.756 198.329 220.126 206.798 223.711 207.768C227.296 208.738 228.762 203.479 228.762 203.479L229.139 197.832L223 190.659C223 190.659 219.041 191.652 221.756 198.329Z" fill="#442510"/>
<path d="M254.579 189.222C254.456 189.222 252.705 191.217 252.705 191.217C252.705 191.217 249.526 201.478 254.985 198.957C260.444 196.437 257.39 190.774 257.39 190.774C257.39 190.774 254.7 189.222 254.579 189.222Z" fill="#442510"/>
<path d="M248.427 173.058C246.121 172.554 244.181 172.373 242.538 172.428L242.56 172.326C242.56 172.326 241.88 172.388 240.773 172.592C240.418 172.649 240.08 172.717 239.757 172.796C234.234 173.997 222.527 178.018 223.088 190.485L232.051 187.227L233.184 186.821L241.901 183.725L253.308 184.784L255.59 187.715C255.59 187.715 258.856 175.339 248.427 173.058Z" fill="#46637F"/>
<mask id="mask5_265_2460" style="mask-type:luminance" maskUnits="userSpaceOnUse" x="223" y="172" width="34" height="19">
<path d="M248.427 173.058C246.121 172.554 244.181 172.373 242.538 172.428L242.56 172.326C242.56 172.326 241.88 172.388 240.773 172.592C240.418 172.649 240.08 172.717 239.757 172.796C234.234 173.997 222.527 178.018 223.088 190.485L232.051 187.227L233.184 186.821L241.901 183.725L253.308 184.784L255.59 187.715C255.59 187.715 258.856 175.339 248.427 173.058Z" fill="white"/>
</mask>
<g mask="url(#mask5_265_2460)">
<path d="M249.459 182.639C246.851 182.639 244.306 183.394 241.715 183.73C239.123 184.066 236.316 183.968 234.171 182.486C233.564 182.067 233.013 181.522 232.767 180.827C232.611 180.311 232.56 179.768 232.62 179.232C232.746 177.234 233.479 175.645 234.275 173.861C234.949 172.35 234.254 172.115 232.877 172.573C228.617 174.001 224.86 176.627 222.057 180.136C220.395 182.228 219.071 184.704 218.901 187.37C218.731 190.036 219.913 192.896 222.256 194.187C223.916 195.103 225.918 195.146 227.803 194.933C231.742 194.485 235.483 193.045 239.288 191.929C241.195 191.376 243.133 190.904 244.969 190.147C246.805 189.39 248.558 188.329 249.814 186.789C250.417 186.047 250.904 185.176 251.018 184.227C251.071 183.793 251.018 183.306 250.717 182.996C250.417 182.686 249.901 182.639 249.459 182.639Z" fill="#36536B"/>
</g>
<path d="M258.531 181.771C251.731 180.191 243.758 181.316 237.585 184.542C236.123 185.307 234.667 186.082 233.191 186.821C233.191 186.821 252.745 179.573 255.027 191.299C255.027 191.299 258.45 193.498 260.405 190.647C262.36 187.797 262.035 182.586 258.531 181.771Z" fill="#46848E"/>
<path d="M255.026 191.299C255.026 191.299 257.062 202.373 250.627 209.044C244.191 215.716 238.893 211.976 238.893 211.976C238.893 211.976 227.486 208.474 228.221 199.924L227.975 197.727C227.975 197.727 224.198 198.988 223.128 192.473C223.128 192.473 222.72 189.745 224.432 189.42C226.143 189.095 226.183 189.339 226.183 189.339L232.05 187.221C232.05 187.221 236.266 185.612 237.652 185.522C237.652 185.522 242.941 184.2 245.88 184.687C245.88 184.687 249.324 184.525 252.276 186.622C252.276 186.638 254.414 188.142 255.026 191.299Z" fill="#FFBF9C"/>
<mask id="mask6_265_2460" style="mask-type:luminance" maskUnits="userSpaceOnUse" x="223" y="184" width="33" height="30">
<path d="M255.026 191.299C255.026 191.299 257.062 202.373 250.627 209.044C244.191 215.716 238.893 211.976 238.893 211.976C238.893 211.976 227.486 208.474 228.221 199.924L227.975 197.727C227.975 197.727 224.198 198.988 223.128 192.473C223.128 192.473 222.72 189.745 224.432 189.42C226.143 189.095 226.183 189.339 226.183 189.339L232.05 187.221C232.05 187.221 236.266 185.612 237.652 185.522C237.652 185.522 242.941 184.2 245.88 184.687C245.88 184.687 249.324 184.525 252.276 186.622C252.276 186.638 254.414 188.142 255.026 191.299Z" fill="white"/>
</mask>
<g mask="url(#mask6_265_2460)">
<path d="M243.184 183.709L233.677 183.332L231.18 183.983L232.156 188.814C232.156 188.814 240.195 185.395 246.769 186.97C253.342 188.544 255.894 193.917 255.894 193.917C255.894 193.917 257.252 189.141 257.252 188.924C257.252 188.707 255.677 184.852 255.677 184.852L243.184 183.709Z" fill="#F7A78B"/>
</g>
<path d="M249.187 209.403C247.774 209.186 248.318 207.938 247.448 206.797C246.577 205.657 244.407 206.905 244.407 206.905C242.506 207.394 241.69 210.598 241.69 210.598L239.735 211.087C239.735 211.087 237.129 212.661 241.42 214.777C245.712 216.894 247.34 214.94 247.34 214.94C247.553 214.513 247.85 214.134 248.214 213.826C248.578 213.518 249.001 213.287 249.457 213.148C250.98 212.714 250.598 209.62 249.187 209.403Z" fill="#442510"/>
<path d="M241.211 203.13C239.337 202.106 238.686 200.696 238.678 200.675L238.234 200.864C238.263 200.928 238.945 202.418 240.947 203.524C242.467 204.364 244.198 204.672 245.915 204.672C247.822 204.638 249.716 204.334 251.538 203.768L251.4 203.301C248.491 204.173 244.364 204.842 241.211 203.13Z" fill="#681610"/>
<path d="M249.455 199.807H249.436L249.424 199.819L249.455 199.807Z" fill="#D18165"/>
<path d="M250.172 198.582C249.836 197.844 249.494 197.111 249.19 196.363C249.033 195.986 248.894 195.608 248.76 195.231C248.625 194.853 248.512 194.461 248.406 194.07C248.459 194.473 248.535 194.874 248.635 195.269C248.729 195.665 248.852 196.054 248.981 196.441C249.245 197.207 249.56 197.951 249.882 198.695V198.71V198.699C249.938 198.897 249.917 199.11 249.823 199.293C249.726 199.489 249.599 199.669 249.445 199.824H249.462L249.434 199.845L249.445 199.833C249.048 200.086 248.622 200.291 248.178 200.445C247.726 200.6 247.256 200.697 246.78 200.732C246.299 200.766 245.816 200.743 245.341 200.666C244.859 200.587 244.387 200.465 243.928 200.3C244.368 200.522 244.832 200.695 245.31 200.815C245.795 200.935 246.294 200.99 246.793 200.977C247.295 200.966 247.794 200.883 248.272 200.73C248.752 200.578 249.21 200.364 249.634 200.094H249.647L249.662 200.081C249.852 199.897 250.008 199.681 250.121 199.443C250.179 199.315 250.217 199.179 250.233 199.04C250.247 198.896 250.23 198.751 250.184 198.614L250.172 198.582Z" fill="#D18165"/>
<path d="M247.014 199.903C245.113 199.631 243.425 199.36 243.425 199.36C242.788 199.584 243.249 199.909 243.249 199.909C243.249 199.909 244.981 200.947 246.774 200.853C247.864 200.781 248.901 200.355 249.726 199.639C249.726 199.639 248.916 200.175 247.014 199.903Z" fill="#F2A78C"/>
<path d="M226.184 189.348C228.764 198.712 229.742 196.486 229.742 196.486C229.797 192.579 232.077 190.895 232.077 190.895C235.717 188.289 234.304 186.443 234.304 186.443L226.184 189.348Z" fill="#442510"/>
<path d="M226.401 190.239L236.314 192.845L236.423 190.185L226.293 189.371L226.401 190.239Z" fill="#292F44"/>
<path d="M243.348 188.616C240.932 188.722 237.87 188.722 237.87 188.722C237.87 188.722 236.431 188.642 236.431 190.232L236.321 192.839C236.321 192.839 235.915 196.749 238.278 196.935C240.641 197.122 243.845 196.777 243.845 196.777C243.845 196.777 245.583 196.564 245.936 195.42C246.289 194.276 246.017 190.604 246.017 190.604C246.017 190.604 245.766 188.508 243.348 188.616Z" fill="#292F44"/>
<path d="M237.141 190.515L237.045 192.826C237.045 192.826 236.684 196.294 238.779 196.46C240.874 196.626 243.717 196.318 243.717 196.318C243.717 196.318 245.256 196.129 245.57 195.114C245.883 194.098 245.642 190.845 245.642 190.845C245.642 190.845 245.426 188.982 243.282 189.077C241.138 189.171 238.418 189.171 238.418 189.171C238.418 189.171 237.141 189.099 237.141 190.515Z" fill="#E1E8EA"/>
<mask id="mask7_265_2460" style="mask-type:luminance" maskUnits="userSpaceOnUse" x="237" y="189" width="9" height="8">
<path d="M237.141 190.515L237.045 192.826C237.045 192.826 236.684 196.294 238.779 196.46C240.874 196.626 243.717 196.318 243.717 196.318C243.717 196.318 245.256 196.129 245.57 195.114C245.883 194.098 245.642 190.845 245.642 190.845C245.642 190.845 245.426 188.982 243.282 189.077C241.138 189.171 238.418 189.171 238.418 189.171C238.418 189.171 237.141 189.099 237.141 190.515Z" fill="white"/>
</mask>
<g mask="url(#mask7_265_2460)">
<path d="M235.443 196.399L236.422 197.011L243.754 188.012L241.391 188.216L235.443 196.399Z" fill="#EDF3F4"/>
<path d="M237.602 197.498L240.616 198.11L246.279 189.029L244.895 188.216L237.602 197.498Z" fill="#EDF3F4"/>
</g>
<path d="M245.973 192.465L246.043 193.409L248.885 193.626L248.746 192.948C248.254 192.031 245.973 192.465 245.973 192.465Z" fill="#292F44"/>
<path d="M256.338 191.551C256.338 191.551 256.514 190.702 255.224 190.475C253.934 190.249 249.47 189.397 249.47 189.397C249.47 189.397 248.577 189.129 248.59 191.042L248.796 195.659C248.796 195.659 248.885 197.049 251.319 197.105C253.754 197.162 255.369 197.162 255.369 197.162C255.369 197.162 256.809 197.275 256.691 196.056C256.574 194.836 256.338 191.551 256.338 191.551Z" fill="#292F44"/>
<path d="M249.057 191.266L249.246 195.376C249.246 195.376 249.325 196.613 251.493 196.664C253.662 196.715 255.097 196.715 255.097 196.715C255.097 196.715 256.378 196.815 256.272 195.731C256.167 194.648 255.959 191.72 255.959 191.72C255.959 191.72 256.116 190.964 254.967 190.762C253.819 190.56 249.846 189.803 249.846 189.803C249.846 189.803 249.044 189.564 249.057 191.266Z" fill="#E1E8EA"/>
<mask id="mask8_265_2460" style="mask-type:luminance" maskUnits="userSpaceOnUse" x="249" y="189" width="8" height="8">
<path d="M249.057 191.266L249.246 195.376C249.246 195.376 249.325 196.613 251.493 196.664C253.662 196.715 255.097 196.715 255.097 196.715C255.097 196.715 256.378 196.815 256.272 195.731C256.167 194.648 255.959 191.72 255.959 191.72C255.959 191.72 256.116 190.964 254.967 190.762C253.819 190.56 249.846 189.803 249.846 189.803C249.846 189.803 249.044 189.564 249.057 191.266Z" fill="white"/>
</mask>
<g mask="url(#mask8_265_2460)">
<path d="M247.256 198.842L248.844 199.127L253.895 189.071L252.226 188.663L247.256 198.842Z" fill="#EDF3F4"/>
<path d="M250.799 198.314L253.366 198.434L256.462 189.966L254.465 189.803L250.799 198.314Z" fill="#EDF3F4"/>
</g>
<path d="M239.791 192.847L243.811 191.542C242.887 191.108 239.791 192.847 239.791 192.847Z" fill="white"/>
<path d="M242.723 191.451C242.364 191.523 242.013 191.628 241.674 191.767C241.338 191.902 241.011 192.061 240.696 192.241C240.378 192.415 240.075 192.618 239.793 192.847C240.139 192.731 240.473 192.599 240.805 192.469C241.138 192.339 241.465 192.197 241.793 192.069C241.958 192.001 242.122 191.937 242.288 191.88C242.454 191.823 242.619 191.759 242.785 191.703C242.95 191.647 243.119 191.601 243.289 191.565C243.461 191.524 243.639 191.518 243.813 191.548C243.65 191.452 243.465 191.403 243.276 191.406C243.091 191.403 242.905 191.418 242.723 191.451Z" fill="black"/>
<path d="M242.103 191.767C241.485 191.767 240.982 192.49 240.982 193.381C240.982 194.272 241.485 194.993 242.103 194.993C242.72 194.993 243.223 194.272 243.223 193.381C243.223 192.49 242.722 191.767 242.103 191.767Z" fill="black"/>
<path d="M242.356 193.386C242.569 193.386 242.741 193.138 242.741 192.831C242.741 192.525 242.569 192.276 242.356 192.276C242.143 192.276 241.971 192.525 241.971 192.831C241.971 193.138 242.143 193.386 242.356 193.386Z" fill="white"/>
<path d="M250.381 193.173L254.246 191.919C253.358 191.502 250.381 193.173 250.381 193.173Z" fill="white"/>
<path d="M253.197 191.827C252.851 191.895 252.513 191.996 252.186 192.129C251.862 192.261 251.546 192.413 251.242 192.586C250.936 192.755 250.646 192.952 250.375 193.173C250.709 193.066 251.03 192.939 251.352 192.813L252.296 192.435C252.455 192.369 252.611 192.309 252.77 192.246C252.929 192.184 253.089 192.129 253.248 192.074C253.407 192.021 253.568 191.976 253.732 191.94C253.896 191.9 254.067 191.894 254.234 191.922C254.079 191.828 253.901 191.779 253.72 191.782C253.545 191.78 253.369 191.795 253.197 191.827Z" fill="black"/>
<path d="M252.606 192.135C252.011 192.135 251.527 192.83 251.527 193.687C251.527 194.544 252.011 195.238 252.606 195.238C253.201 195.238 253.683 194.544 253.683 193.687C253.683 192.83 253.201 192.135 252.606 192.135Z" fill="black"/>
<path d="M252.85 192.624C252.645 192.624 252.473 192.864 252.473 193.158C252.473 193.453 252.639 193.692 252.85 193.692C253.062 193.692 253.228 193.453 253.228 193.158C253.228 192.864 253.054 192.624 252.85 192.624Z" fill="white"/>
<path d="M223.005 214.079C223.005 214.079 236.654 230.125 239.131 228.838C241.473 227.616 240.946 224.081 240.946 224.081C240.946 224.081 251.25 239.919 252.555 245.566C253.86 251.212 249.521 286.273 248.753 289.214C247.984 292.155 204.917 320.701 204.917 320.701C204.917 320.701 203.784 312.557 204.917 308.323C206.051 304.088 207.526 287.966 205.569 281.778C203.612 275.59 184.06 235.851 211.273 217.936C211.273 217.926 220.81 211.194 223.005 214.079Z" fill="#FBBF5B"/>
<mask id="mask9_265_2460" style="mask-type:luminance" maskUnits="userSpaceOnUse" x="196" y="213" width="57" height="108">
<path d="M223.005 214.079C223.005 214.079 236.654 230.125 239.131 228.838C241.473 227.616 240.946 224.081 240.946 224.081C240.946 224.081 251.25 239.919 252.555 245.566C253.86 251.212 249.521 286.273 248.753 289.214C247.984 292.155 204.917 320.701 204.917 320.701C204.917 320.701 203.784 312.557 204.917 308.323C206.051 304.088 207.526 287.966 205.569 281.778C203.612 275.59 184.06 235.851 211.273 217.936C211.273 217.926 220.81 211.194 223.005 214.079Z" fill="white"/>
</mask>
<g mask="url(#mask9_265_2460)">
<path d="M226.704 231.917C226.704 231.917 230.127 248.282 223.771 255.611C217.414 262.939 204.219 257.567 204.219 257.567C204.219 257.567 194.442 247.306 205.441 220.435C205.441 220.435 183.686 226.299 182.953 234.849C182.221 243.399 177.576 264.161 180.266 273.689C182.955 283.217 186.121 302.025 187.353 302.514C188.584 303.003 193.463 309.108 194.442 310.329C195.42 311.551 207.639 313.507 208.372 313.75C209.105 313.994 215.705 313.261 216.927 312.04C218.149 310.818 233.793 294.207 234.769 291.274C235.746 288.34 241.858 279.549 242.102 277.351C242.346 275.154 245.036 264.159 245.036 264.159V250L239.903 240.718C239.903 240.718 231.836 242.664 226.704 231.917Z" fill="#FBBF5B"/>
</g>
<path d="M227.503 237.69C227.43 236.47 227.288 235.254 227.08 234.05C227.027 235.273 227.01 236.489 226.996 237.705L226.974 239.525C226.974 240.133 226.962 240.739 226.945 241.343C226.928 241.947 226.919 242.553 226.898 243.159C226.877 243.765 226.844 244.365 226.811 244.967C226.779 245.569 226.721 246.172 226.639 246.77C226.568 247.372 226.441 247.966 226.262 248.545C226.567 248.008 226.798 247.432 226.947 246.832C227.105 246.237 227.226 245.632 227.31 245.022C227.405 244.414 227.459 243.802 227.499 243.191C227.539 242.579 227.565 241.968 227.582 241.356C227.599 240.744 227.582 240.133 227.582 239.521C227.582 238.909 227.55 238.299 227.503 237.69Z" fill="#B72015"/>
<path d="M200.847 250.837C200.79 250.232 200.726 249.63 200.684 249.024C200.643 248.418 200.588 247.814 200.552 247.208C200.516 246.602 200.471 245.996 200.435 245.388C200.399 244.78 200.363 244.174 200.316 243.567C200.238 242.351 200.153 241.133 200.031 239.912C199.892 241.13 199.818 242.354 199.811 243.58C199.796 244.191 199.811 244.803 199.811 245.417C199.811 246.03 199.861 246.64 199.896 247.252C199.932 247.863 199.995 248.475 200.065 249.085C200.134 249.694 200.221 250.304 200.338 250.908C200.446 251.515 200.588 252.116 200.763 252.707C200.93 253.303 201.173 253.874 201.489 254.406C201.299 253.829 201.159 253.237 201.071 252.636C200.979 252.039 200.909 251.439 200.847 250.837Z" fill="#B72015"/>
<path d="M214.451 215.891C214.451 215.891 238.323 221.02 243.648 250.119L252.556 257.935L254.946 344.905C254.946 344.905 253.098 377.153 249.948 381.717C249.948 381.717 246.58 423.302 241.691 438.284L240.063 442.736L228.981 441.225L226.478 424.054L218.873 444.031L205.619 443.489C205.619 443.489 201.709 425.79 202.686 419.06C203.63 412.502 204.386 379.682 206.429 375.973C206.474 375.887 206.531 375.808 206.598 375.739C206.598 375.739 200.187 341.212 202.034 325.685C202.034 325.685 202.686 318.845 196.819 317.652C190.952 316.459 204.206 298.976 204.206 298.976C204.206 298.976 207.795 289.097 200.731 288.988C193.666 288.878 200.831 268.762 200.831 268.762C200.831 268.762 204.042 278.348 204.588 279.162C205.134 279.975 206.189 284.311 206.309 285.937C206.428 287.562 206.977 299.086 205.946 302.125C205.946 302.125 205.511 307.717 204.858 308.912C204.858 308.912 204.423 310.866 204.48 311.626L217.353 295.123C217.353 295.123 229.738 276.936 232.345 269.449C234.952 261.962 241.253 247.082 236.689 236.978C232.126 226.875 213.875 217.001 212.355 217.218L214.451 215.891Z" fill="#292F44"/>
<mask id="mask10_265_2460" style="mask-type:luminance" maskUnits="userSpaceOnUse" x="195" y="216" width="60" height="229">
<path d="M214.451 216C214.451 216 238.323 221.129 243.648 250.228L252.556 258.044L254.946 345.014C254.946 345.014 253.098 377.261 249.948 381.826C249.948 381.826 246.58 423.411 241.691 438.393L240.063 442.844L228.981 441.334L226.478 424.163L218.873 444.139L205.619 443.598C205.619 443.598 201.709 425.899 202.686 419.169C203.63 412.611 204.386 379.791 206.429 376.082C206.474 375.996 206.531 375.917 206.598 375.847C206.598 375.847 200.187 341.321 202.034 325.794C202.034 325.794 202.686 318.954 196.819 317.761C190.952 316.568 204.206 299.085 204.206 299.085C204.206 299.085 207.795 289.206 200.731 289.096C193.666 288.987 200.831 268.87 200.831 268.87C200.831 268.87 204.042 278.457 204.588 279.27C205.134 280.084 206.189 284.42 206.309 286.046C206.428 287.671 206.977 299.194 205.946 302.234C205.946 302.234 205.511 307.826 204.858 309.021C204.858 309.021 204.423 310.974 204.48 311.735L217.353 295.232C217.353 295.232 229.738 277.045 232.345 269.558C234.952 262.07 241.253 247.191 236.689 237.087C232.126 226.983 213.875 217.11 212.355 217.327L214.451 216Z" fill="white"/>
</mask>
<g mask="url(#mask10_265_2460)">
<path d="M232.333 390.807C230.867 394.471 229.399 402.777 229.399 404.242C229.399 405.707 225.979 425.982 225.979 425.982V441.617L232.822 441.372C232.822 441.372 230.621 425.739 233.555 414.014C236.488 402.288 241.62 365.891 241.866 364.67C242.112 363.448 243.821 345.859 243.821 345.859C243.821 345.859 235.999 370.042 235.51 375.417C235.021 380.792 233.793 387.142 232.333 390.807Z" fill="#232733"/>
<path d="M201.734 266.063L198.039 263.024C198.039 263.024 191.086 267.583 190.861 268.778C190.636 269.973 189.016 277.137 189.233 278.115C189.45 279.093 190.971 316.007 190.971 316.007C190.971 316.007 194.339 318.839 197.706 316.762C201.074 314.686 206.18 310.138 206.18 310.138C206.18 310.138 207.591 302.864 207.808 302.321C208.025 301.777 209.656 295.808 209.765 295.147C209.875 294.486 206.505 273.865 206.397 273.541C206.29 273.216 201.734 266.063 201.734 266.063Z" fill="#232733"/>
<path d="M251.905 315.05C249.474 313.54 246.741 312.607 244.191 311.316C236.94 307.644 231.536 301.328 226.955 294.779C224.877 291.807 222.835 286.693 219.806 284.664C216.217 282.264 214.058 286.127 213.45 289.128C212.387 294.373 212.102 299.744 212.603 305.071C212.745 306.572 212.951 308.077 213.44 309.502C214.292 311.988 215.95 314.101 217.454 316.256C219.51 319.203 221.319 322.314 222.864 325.558C225.476 331.044 227.586 337.224 232.544 340.732C234.811 342.337 237.522 343.232 240.249 343.781C243.976 344.536 247.956 344.651 251.479 343.215C256.854 341.03 260.396 335.231 260.334 329.433C260.271 323.636 256.839 318.103 251.905 315.05Z" fill="#232733"/>
</g>
<path d="M223.495 273.951C225.45 271.344 226.264 259.457 226.264 259.457C225.149 260.097 223.587 260.614 221.802 261.071C219.926 261.552 217.807 261.966 215.686 262.326C209.83 263.323 204.103 263.853 204.103 263.853C203.958 269.311 213.548 284.971 213.548 284.971L213.984 291.051C215.287 302.125 229.409 322.538 229.409 322.538L235.927 333.829L237.013 318.628L229.518 286.817C229.688 283.234 223.495 273.951 223.495 273.951Z" fill="#FFBF9C"/>
<path d="M236.805 318.613L236.803 318.646L236.81 318.678L236.805 318.613Z" fill="#E08D68"/>
<path d="M236.134 333.714L235.758 333.061L235.703 333.812L236.134 333.714Z" fill="#E08D68"/>
<path d="M223.557 274.001L223.59 273.95L223.561 273.906L223.557 274.001Z" fill="#E08D68"/>
<path d="M213.363 284.983V285.03C213.371 285.045 213.379 285.059 213.389 285.073L213.363 284.983Z" fill="#E08D68"/>
<path d="M204.115 263.976L204.23 263.964C204.23 263.928 204.23 263.891 204.23 263.857L204.115 263.976Z" fill="#E08D68"/>
<path d="M233.467 302.68L229.674 286.8V286.822V286.784V286.8C229.67 286.195 229.577 285.594 229.4 285.016C229.234 284.439 229.035 283.871 228.805 283.317C228.352 282.205 227.825 281.127 227.264 280.068C226.703 279.009 226.106 277.972 225.488 276.947C224.871 275.922 224.253 274.94 223.599 273.957L223.567 274.006V273.913L223.596 273.957C223.922 273.443 224.176 272.887 224.351 272.305C224.54 271.714 224.701 271.112 224.839 270.508C225.112 269.298 225.32 268.076 225.5 266.849C225.679 265.622 225.825 264.395 225.951 263.162C226.078 261.929 226.187 260.708 226.27 259.464C226.175 260.697 226.055 261.929 225.911 263.158C225.772 264.389 225.611 265.613 225.42 266.838C225.23 268.063 225.009 269.279 224.723 270.481C224.578 271.082 224.417 271.678 224.219 272.261C224.039 272.845 223.775 273.4 223.437 273.91L223.405 273.955L223.435 274.002C224.085 275.001 224.712 276.02 225.324 277.049C225.936 278.078 226.51 279.126 227.06 280.177C227.61 281.229 228.127 282.31 228.571 283.413C228.791 283.962 228.98 284.524 229.138 285.095C229.305 285.653 229.39 286.233 229.391 286.817V286.837V286.856L233.091 302.774L236.807 318.653V318.621V318.685V318.653L235.762 333.068L236.14 333.721L235.709 333.82L235.764 333.064L229.631 322.421V322.411C227.691 319.58 225.853 316.654 224.075 313.699C222.298 310.745 220.623 307.736 219.083 304.656C218.316 303.116 217.585 301.559 216.913 299.977C216.235 298.398 215.64 296.786 215.13 295.146C215.009 294.736 214.878 294.326 214.78 293.909L214.622 293.288C214.569 293.08 214.531 292.871 214.487 292.661C214.444 292.452 214.397 292.242 214.361 292.033L214.265 291.404L214.217 291.089C214.202 290.985 214.2 290.875 214.191 290.768L214.144 290.124L213.766 284.968V284.921L213.741 284.882C212.734 283.228 211.758 281.553 210.814 279.856C209.869 278.157 208.953 276.458 208.084 274.718C207.215 272.977 206.397 271.227 205.678 269.432C205.323 268.531 204.994 267.621 204.733 266.694C204.458 265.812 204.299 264.899 204.259 263.976L204.146 263.987L204.255 263.87C204.255 263.904 204.255 263.94 204.255 263.976C206.101 263.787 207.941 263.561 209.778 263.313C211.652 263.058 213.524 262.777 215.388 262.454C217.253 262.131 219.11 261.775 220.949 261.322C221.869 261.099 222.783 260.855 223.684 260.566C224.589 260.289 225.462 259.92 226.291 259.464C225.458 259.91 224.581 260.27 223.675 260.538C222.772 260.819 221.856 261.053 220.936 261.267C219.094 261.69 217.234 262.022 215.368 262.33C213.501 262.637 211.63 262.896 209.754 263.126C207.878 263.357 205.999 263.568 204.119 263.74H204.01V263.847C204.032 264.832 204.19 265.808 204.48 266.749C204.745 267.693 205.071 268.61 205.425 269.518C206.137 271.331 206.951 273.105 207.81 274.844C208.67 276.583 209.576 278.308 210.513 280.011C211.45 281.714 212.402 283.373 213.396 285.027V284.982L213.424 285.068C213.415 285.055 213.406 285.041 213.399 285.027L213.751 290.149L213.796 290.794C213.796 290.902 213.807 291.008 213.823 291.117L213.872 291.442L213.968 292.091C214.006 292.306 214.053 292.518 214.095 292.731C214.136 292.944 214.178 293.16 214.231 293.369L214.391 294.002C214.489 294.424 214.62 294.838 214.742 295.255C215.253 296.911 215.851 298.538 216.533 300.131C217.206 301.725 217.937 303.292 218.703 304.851C220.245 307.945 221.93 310.964 223.694 313.933C225.458 316.903 227.3 319.814 229.243 322.672L229.255 322.687L235.777 333.967L236.155 334.62L236.208 333.865L237.279 318.662V318.63V318.598L233.467 302.68Z" fill="#E08D68"/>
<path d="M221.611 271.312L221.355 271.513L223.365 274.064L223.62 273.863L221.611 271.312Z" fill="black"/>
<path d="M242.105 351.423L242.02 352.016C241.988 352.205 241.948 352.411 241.913 352.607C241.846 353 241.754 353.39 241.671 353.781C241.316 355.339 240.874 356.879 240.398 358.406C239.922 359.933 239.417 361.453 238.887 362.969L237.309 367.513C236.78 369.023 236.257 370.549 235.768 372.082C235.279 373.615 234.81 375.159 234.429 376.739C234.236 377.537 234.089 378.346 233.989 379.161L233.936 379.786L233.881 380.367L233.826 380.949C233.802 381.137 233.766 381.338 233.736 381.53C233.471 383.091 233.102 384.633 232.631 386.144C231.731 389.202 230.638 392.227 229.773 395.341C229.334 396.907 229.003 398.5 228.779 400.11L228.711 400.72C228.684 400.923 228.667 401.128 228.66 401.333C228.647 401.743 228.626 402.16 228.62 402.562L228.609 403.752L228.562 404.947C228.483 406.538 228.352 408.133 228.199 409.727C228.046 411.32 227.876 412.915 227.691 414.507C227.325 417.691 226.905 420.872 226.477 424.053C227.117 420.908 227.665 417.744 228.161 414.571C228.658 411.397 229.081 408.209 229.316 404.99L229.393 403.782L229.433 402.566L229.491 401.39C229.5 401.194 229.519 400.999 229.548 400.805L229.622 400.221C229.862 398.656 230.208 397.108 230.657 395.589C231.104 394.061 231.588 392.538 232.09 391.016C232.593 389.495 233.099 387.966 233.564 386.42C234.041 384.865 234.412 383.28 234.674 381.676C234.705 381.472 234.742 381.272 234.767 381.068L234.822 380.45L234.876 379.833L234.922 379.267C235.007 378.496 235.162 377.724 235.326 376.95C236.031 373.86 237.064 370.815 238.029 367.76C238.994 364.706 240.003 361.65 240.849 358.544C241.261 356.99 241.65 355.425 241.928 353.84C241.99 353.441 242.066 353.045 242.117 352.645C242.141 352.444 242.171 352.246 242.192 352.046L242.249 351.444C242.317 350.642 242.311 349.836 242.232 349.035C242.263 349.833 242.221 350.633 242.105 351.423Z" fill="#1A1F30"/>
<path d="M231.122 384.347C230.857 384.738 230.576 385.119 230.275 385.48C229.979 385.843 229.664 386.189 229.331 386.518C228.672 387.175 227.917 387.727 227.091 388.155C226.254 388.573 225.346 388.829 224.414 388.91C223.938 388.948 223.46 388.948 222.984 388.91L222.623 388.874C222.503 388.863 222.384 388.84 222.265 388.825C222.021 388.799 221.785 388.738 221.543 388.7C221.994 388.899 222.462 389.058 222.941 389.176C223.428 389.29 223.925 389.36 224.425 389.384C225.447 389.419 226.464 389.233 227.408 388.84C228.35 388.438 229.214 387.875 229.964 387.177C230.704 386.49 231.363 385.72 231.926 384.881C233.025 383.223 233.89 381.421 234.495 379.526C234.804 378.591 235.063 377.641 235.271 376.679C235.483 375.72 235.633 374.749 235.719 373.772C235.152 375.644 234.518 377.477 233.781 379.259C233.07 381.041 232.179 382.746 231.122 384.347Z" fill="#1A1F30"/>
<path d="M206.71 453.098L215.999 452.933L220.472 439.843L204.666 438.758L206.71 453.098Z" fill="#726B6B"/>
<path d="M228.981 441.208L230.014 451.468L237.182 451.144L241.44 438.964L228.469 437.691L228.981 441.208Z" fill="#726B6B"/>
<path d="M252.664 451.387L238.813 446.421C235.717 447.885 229.279 446.583 229.279 446.583C229.279 446.583 219.178 458.716 238.157 459.367C257.137 460.018 263.905 458.146 263.905 458.146C263.905 458.146 267.733 457.494 266.022 452.771C264.311 448.048 252.664 451.387 252.664 451.387Z" fill="#E0E0E0"/>
<path d="M235.473 447.315L249.568 452.771C249.568 452.771 250.871 453.587 251.279 452.528C251.687 451.469 254.7 450.817 254.7 450.817L242.56 445.605C242.56 445.605 238.242 444.221 235.473 447.315Z" fill="#FE3B1B"/>
<path d="M267.09 455.036C267.024 454.999 266.95 454.979 266.874 454.979C266.799 454.979 266.725 454.999 266.659 455.036C266.583 455.111 266.535 455.21 266.523 455.316C266.121 457.015 265.025 457.838 263.221 457.804C251.719 457.585 240.218 457.374 228.719 457.172L228.881 458.474C228.9 458.589 231.758 458.691 231.939 458.704C236.494 459.048 241.048 459.387 245.602 459.722C251.408 460.149 257.383 461.043 263.2 460.587C264.239 460.505 265.297 460.364 266.24 459.918C267.182 459.473 268.01 458.676 268.259 457.664C268.508 456.652 268.034 455.442 267.09 455.036Z" fill="#292F44"/>
<path d="M264.681 451.264C263.296 450.898 263.338 453.056 262.767 454.97C262.197 456.884 256.615 457.536 256.615 457.536C256.615 457.536 260.527 458.187 263.542 457.821C266.556 457.455 266.651 455.034 266.651 455.034C266.651 455.034 266.067 451.631 264.681 451.264Z" fill="#292F44"/>
<path d="M229.69 456.354L218.283 449.839L213.884 451.958C211.113 452.282 205.138 450.328 205.138 450.328L202.305 461.078C202.305 461.078 218.763 465.637 221.858 467.104C224.954 468.57 231.473 468.733 231.473 468.733C233.103 469.384 242.88 468.568 243.042 462.38C243.205 456.192 229.69 456.354 229.69 456.354Z" fill="#E0E0E0"/>
<path d="M217.303 449.026C215.673 450.328 210.947 451.631 210.947 451.631C210.947 451.631 220.392 458.635 223.333 459.775C226.274 460.915 231.317 456.354 231.317 456.354C231.317 456.354 218.932 447.723 217.303 449.026Z" fill="#FE3B1B"/>
<path d="M243.049 462.38C243.049 462.38 242.994 467.1 237.401 468.189C231.808 469.278 224.853 467.917 221.43 466.941C218.008 465.965 203.452 460.534 203.452 460.534C203.452 460.534 200.736 459.341 200.619 462.707C200.501 466.073 207.681 465.963 207.681 465.963C207.681 465.963 220.174 467.266 221.47 468.895C222.766 470.524 238.417 473.237 241.785 469.437C245.153 465.637 244.618 464.226 244.618 464.226C244.618 464.226 244.786 461.891 243.049 462.38Z" fill="#292F44"/>
<path d="M238.755 460.481C237.562 461.281 236.46 462.531 236.34 464.023C236.311 464.388 236.345 464.756 236.44 465.11C236.61 465.75 237.229 466.22 236.714 466.864C236.46 467.178 236.182 467.472 235.881 467.742C235.423 468.147 234.876 468.51 234.264 468.519C236.168 468.519 238.126 468.236 239.815 467.311C240.722 466.823 241.492 466.116 242.057 465.255C242.621 464.394 242.961 463.406 243.047 462.38C243.047 462.38 242.886 457.712 238.755 460.481Z" fill="#292F44"/>
<path d="M521.428 211.14C521.428 211.14 524.361 225.961 523.493 227.046C522.624 228.132 517.299 241.205 521.536 243.929C525.773 246.653 547.283 221.464 547.283 221.464C547.283 221.464 538.048 217.013 539.569 208.11L521.428 211.14Z" fill="#FFBF9C"/>
<mask id="mask11_265_2460" style="mask-type:luminance" maskUnits="userSpaceOnUse" x="519" y="208" width="29" height="37">
<path d="M521.428 211.14C521.428 211.14 524.361 225.961 523.493 227.046C522.624 228.132 517.299 241.205 521.536 243.929C525.773 246.653 547.283 221.464 547.283 221.464C547.283 221.464 538.048 217.013 539.569 208.11L521.428 211.14Z" fill="white"/>
</mask>
<g mask="url(#mask11_265_2460)">
<path d="M533.402 202.059L525.418 204.991L516.293 214.762C516.293 214.762 523.626 223.882 532.099 223.069C540.573 222.255 544.647 209.061 544.647 209.061L541.546 203.199L533.402 202.059Z" fill="#EA9378"/>
</g>
<path d="M512.816 192.18C512.816 192.18 509.335 173.16 525.783 172.581C542.231 172.001 543.314 183.249 543.314 183.249L542.594 195.659C542.594 195.659 531.546 182.445 518.339 189.86L512.816 192.18Z" fill="#46637F"/>
<mask id="mask12_265_2460" style="mask-type:luminance" maskUnits="userSpaceOnUse" x="512" y="172" width="32" height="24">
<path d="M512.816 192.18C512.816 192.18 509.335 173.16 525.783 172.581C542.231 172.001 543.314 183.249 543.314 183.249L542.594 195.659C542.594 195.659 531.546 182.445 518.339 189.86L512.816 192.18Z" fill="white"/>
</mask>
<g mask="url(#mask12_265_2460)">
<path d="M546.571 175.664C545.636 174.087 544 172.832 542.166 172.768C542.242 175.397 540.978 177.948 539.144 179.834C537.136 181.895 534.488 183.273 531.813 184.264C529.902 184.974 526.789 185.003 525.829 187.13C523.94 191.314 530.969 195.236 534.061 195.922C538.913 197 544.45 194.717 546.752 190.317C548.243 187.485 548.36 184.112 548.033 180.919C547.842 179.096 547.506 177.24 546.571 175.664Z" fill="#36536B"/>
<path d="M518.401 187.004C516.72 184.802 515.686 182.176 515.414 179.42C515.226 177.614 516.633 173.627 515.658 172.247C512.013 167.093 507.934 179.071 507.44 181.206C506.977 183.207 506.533 185.248 506.673 187.296C506.812 189.345 507.617 191.45 509.245 192.695C510.796 193.892 512.876 194.179 514.831 194.055C516.1 193.974 517.402 193.721 518.448 192.999C519.494 192.278 520.233 191.002 520.023 189.749C519.846 188.691 519.066 187.853 518.401 187.004Z" fill="#36536B"/>
</g>
<path d="M545.512 190.372C542.301 187.874 538.793 185.726 534.79 184.653C527.843 182.794 520.329 184.476 514.3 188.087C513.123 188.792 511.995 189.574 510.924 190.43C510.473 190.791 508.372 192.15 508.346 192.712C508.327 193.081 509.668 193.823 509.967 194.047C511.209 194.966 512.469 195.863 513.744 196.739C513.754 196.73 513.877 196.762 513.888 196.752C517.267 193.634 521.255 191.421 525.965 190.995C529.983 190.63 534.035 191.495 537.711 193.043C539.395 193.753 540.999 194.785 542.595 195.665C542.665 195.703 546.007 192.624 546.352 192.316C547.314 191.463 546.229 190.93 545.512 190.372Z" fill="#46848E"/>
<path d="M546.267 195.812C545.974 195.125 544.981 194.278 544.325 194.362C543.63 194.451 542.922 195.758 542.31 195.467C542.164 195.386 542.024 195.296 541.89 195.197C541.446 194.92 540.993 194.655 540.532 194.402C539.103 193.619 537.613 192.954 536.076 192.412C531.807 190.902 527.114 190.404 522.694 191.589C521.117 192.016 519.601 192.637 518.179 193.439C517.4 193.881 516.648 194.37 515.929 194.904C515.674 195.093 513.946 196.762 513.784 196.711C513.784 196.711 508.98 195.201 510.061 200.42C511.141 205.64 516.115 206.361 516.115 206.361C517.414 208.904 518.334 211.647 520.045 213.947C522.775 217.622 528.423 219.774 533.19 218.942C536.335 218.393 538.685 216.123 540.253 213.513C542.115 210.413 542.083 207.634 542.642 204.215C542.657 204.048 542.708 203.886 542.791 203.741C543.031 203.386 543.536 203.364 543.872 203.146C544.329 202.843 544.627 202.322 544.903 201.872C545.491 200.913 546.087 199.93 546.307 198.835C546.417 198.145 546.451 197.444 546.409 196.747C546.421 196.429 546.373 196.112 546.267 195.812Z" fill="#FFBF9C"/>
<path d="M542.652 196.362L542.773 202.508C542.773 202.508 546.315 198.733 545.355 196.941C544.396 195.15 542.713 195.956 542.652 196.362Z" fill="#F7AC92"/>
<path d="M510.834 198.623C509.933 200.711 514.976 204.885 515.637 204.475L514.196 199.19C514.196 199.19 511.735 196.535 510.834 198.623Z" fill="#F7AC92"/>
<path d="M522.844 194.213C522.445 194.076 522.023 194.018 521.603 194.041C521.195 194.061 520.795 194.156 520.422 194.321C520.057 194.485 519.716 194.68 519.377 194.863C519.039 195.046 518.716 195.255 518.401 195.467C518.085 195.678 517.791 195.914 517.5 196.154C516.922 196.629 516.383 197.15 515.889 197.711L515.976 197.808C516.591 197.404 517.22 197.028 517.864 196.692C518.184 196.52 518.507 196.36 518.833 196.214C519.16 196.069 519.483 195.924 519.814 195.805C520.141 195.69 520.477 195.603 520.819 195.542C521.151 195.482 521.468 195.408 521.782 195.325C522.096 195.24 522.414 195.173 522.736 195.123C523.093 195.068 523.453 195.038 523.814 195.034L523.873 194.919C523.605 194.589 523.248 194.344 522.844 194.213Z" fill="#683921"/>
<path d="M539.782 194.563C539.702 194.508 539.623 194.451 539.54 194.4L539.277 194.257C538.595 193.857 537.862 193.549 537.099 193.339C536.911 193.288 536.712 193.237 536.518 193.181C536.323 193.124 536.125 193.096 535.925 193.052C535.524 192.977 535.115 192.968 534.712 193.026C534.308 193.082 533.913 193.19 533.537 193.347C533.15 193.504 532.798 193.735 532.5 194.028L532.549 194.147C532.957 194.193 533.333 194.225 533.699 194.247C534.066 194.27 534.423 194.294 534.774 194.321C534.95 194.334 535.124 194.332 535.299 194.34C535.386 194.34 535.473 194.34 535.562 194.34H535.694H535.826C536.002 194.34 536.181 194.327 536.359 194.328C536.537 194.33 536.716 194.349 536.894 194.364C537.071 194.379 537.247 194.421 537.426 194.447L537.693 194.493C537.781 194.512 537.868 194.536 537.957 194.559L538.488 194.683L539.009 194.855L539.274 194.94C539.36 194.97 539.445 195.008 539.53 195.044L540.048 195.255C540.135 195.289 540.219 195.328 540.301 195.372L540.552 195.499L541.062 195.748L541.138 195.642C540.849 195.397 540.571 195.135 540.252 194.904L539.782 194.563Z" fill="#683921"/>
<path d="M522.126 197.228C521.735 197.265 521.352 197.365 520.993 197.525C520.643 197.688 520.315 197.894 520.016 198.138C519.717 198.376 519.453 198.657 519.234 198.971C519.542 198.748 519.85 198.538 520.162 198.342C520.473 198.148 520.795 197.974 521.127 197.819C521.457 197.672 521.802 197.558 522.155 197.479C522.518 197.412 522.887 197.387 523.256 197.406C522.898 197.261 522.511 197.2 522.126 197.228Z" fill="black"/>
<path d="M521.506 201.272C522.195 201.272 522.753 200.415 522.753 199.358C522.753 198.3 522.195 197.443 521.506 197.443C520.818 197.443 520.26 198.3 520.26 199.358C520.26 200.415 520.818 201.272 521.506 201.272Z" fill="black"/>
<path d="M521.888 198.185C521.662 198.185 521.479 198.467 521.479 198.814C521.479 199.161 521.667 199.441 521.888 199.441C522.109 199.441 522.296 199.159 522.296 198.814C522.296 198.468 522.113 198.185 521.888 198.185Z" fill="white"/>
<path d="M536.191 196.362C535.549 196.362 535.029 197.155 535.029 198.131C535.029 199.107 535.549 199.899 536.191 199.899C536.833 199.899 537.353 199.107 537.353 198.131C537.353 197.155 536.833 196.362 536.191 196.362Z" fill="black"/>
<path d="M536.557 198.285C536.771 198.285 536.944 198.022 536.944 197.696C536.944 197.371 536.771 197.107 536.557 197.107C536.343 197.107 536.17 197.371 536.17 197.696C536.17 198.022 536.343 198.285 536.557 198.285Z" fill="white"/>
<path d="M526.434 206.905C528.851 208.161 531.598 206.358 531.598 206.358C527.21 203.143 526.434 206.905 526.434 206.905Z" fill="#EA9781"/>
<path d="M562.492 258.696L558.356 261.41C558.356 261.41 552.532 287.438 557.649 291.514C562.732 295.563 569.287 299.002 573.516 295.937C577.579 292.988 575.091 281.931 574.332 279.107C573.573 276.283 562.492 258.696 562.492 258.696Z" fill="#231122"/>
<path d="M523.492 227.046C523.492 227.046 509.152 235.842 507.359 251.15C505.567 266.458 505.404 267.274 505.404 267.274L534.41 271.182L555.43 300.163C555.43 300.163 570.259 288.763 569.608 283.551C568.956 278.338 565.992 235.655 565.992 235.655C565.992 235.655 565.452 221.496 544.92 219.954C544.92 219.954 545.001 227.039 530.009 235.345C515.017 243.651 523.492 227.046 523.492 227.046Z" fill="#FBBF5B"/>
<mask id="mask13_265_2460" style="mask-type:luminance" maskUnits="userSpaceOnUse" x="505" y="219" width="65" height="82">
<path d="M523.492 227.046C523.492 227.046 509.152 235.842 507.359 251.15C505.567 266.458 505.404 267.274 505.404 267.274L534.41 271.182L555.43 300.163C555.43 300.163 570.259 288.763 569.608 283.551C568.956 278.338 565.992 235.655 565.992 235.655C565.992 235.655 565.452 221.496 544.92 219.954C544.92 219.954 545.001 227.039 530.009 235.345C515.017 243.651 523.492 227.046 523.492 227.046Z" fill="white"/>
</mask>
<g mask="url(#mask13_265_2460)">
<path d="M570.415 256.963C569.493 255.311 568.322 253.476 566.448 253.187C563.866 252.798 562.009 255.52 560.844 257.856C558.775 262.009 556.706 266.156 554.637 270.296C554.191 271.191 553.713 272.122 552.891 272.69C551.241 273.836 548.817 272.985 547.58 271.401C546.343 269.817 545.988 267.74 545.672 265.756L542.374 245.039C542.168 243.746 541.314 242.043 540.094 242.517C539.592 242.706 539.308 243.231 539.035 243.695C536.311 248.314 530.293 250.706 525.138 249.217C520.992 249.217 517.603 243.376 516.528 240.14C515.367 249.579 515.119 259.207 514.464 268.705C514.216 272.275 514.154 276.352 516.744 278.824C518.017 280.041 519.751 280.653 521.149 281.727C524.46 284.27 525.321 288.831 527.571 292.346C530.869 297.502 536.927 300.099 542.72 302.08C552.542 305.436 564.389 307.554 572.517 301.09C578.822 296.08 580.838 287.121 579.581 279.161C578.325 271.202 574.336 263.995 570.415 256.963Z" fill="#FBBF5B"/>
</g>
<path d="M541.498 254.488C541.579 264.748 543.372 262.062 543.372 262.062C548.017 257.095 566.513 258.071 568.141 257.257C569.769 256.443 568.305 247.078 568.305 247.078C556.09 243.414 541.498 254.488 541.498 254.488Z" fill="#E0E0E0"/>
<path d="M543.583 248.447C543.305 249.417 543.05 250.393 542.85 251.384C542.746 251.879 542.66 252.378 542.589 252.883C542.561 253.136 542.529 253.387 542.515 253.638C542.491 253.89 542.505 254.145 542.557 254.393C542.56 254.266 542.576 254.139 542.606 254.016C542.631 253.893 542.659 253.772 542.693 253.651C542.757 253.41 542.827 253.17 542.901 252.93C543.04 252.449 543.195 251.971 543.339 251.492C543.637 250.533 543.926 249.572 544.206 248.609C544.484 247.642 544.752 246.676 544.995 245.698C545.239 244.72 545.475 243.742 545.653 242.743C545.22 243.661 544.854 244.603 544.519 245.553C544.185 246.502 543.864 247.48 543.583 248.447Z" fill="#B72015"/>
<path d="M542.143 252.507C542.143 252.039 542.143 251.563 542.132 251.099C542.123 250.155 542.083 249.224 542.032 248.288C541.981 247.352 541.907 246.415 541.807 245.481C541.707 244.546 541.596 243.612 541.416 242.681C541.327 243.625 541.303 244.569 541.305 245.513C541.307 246.457 541.333 247.401 541.384 248.33C541.435 249.258 541.514 250.204 541.628 251.141C541.658 251.373 541.684 251.607 541.718 251.841L541.826 252.539C541.894 253.009 542.002 253.472 542.149 253.923C542.125 253.448 542.143 252.977 542.143 252.507Z" fill="#B72015"/>
<path d="M548.586 465.637C548.586 465.637 540.683 475.735 538.482 475.735C536.282 475.735 528.38 478.829 526.994 484.284C525.607 489.74 540.683 488.519 547.037 488.438C553.391 488.356 561.134 485.1 560.637 481.76C560.14 478.421 565.282 474.921 566.177 474.432C567.072 473.943 564.777 465.536 564.777 465.536L548.586 465.637Z" fill="#E0E0E0"/>
<path d="M548.587 465.637L541.662 473.537C541.662 473.537 546.93 471.066 552.334 476.305L560.672 466.994C560.672 466.994 552.416 463.113 548.587 465.637Z" fill="#FE3B1B"/>
<path d="M561.092 476.875C559.422 479.48 554.411 485.058 547.363 485.67C540.316 486.282 526.383 485.629 527.606 482.819C527.606 482.819 526.587 484.42 527.022 485.84C527.456 487.26 531.259 488.12 531.259 488.12C531.259 488.12 536.608 488.743 541.47 488.636C546.332 488.528 549.403 488.419 551.328 487.956C553.253 487.494 556.897 486.518 558.417 485.215C559.938 483.913 560.453 483.559 560.699 481.985C560.562 481 560.773 479.999 561.296 479.153C562.165 477.796 564.067 476.112 566.294 474.294L566.469 472.395C566.469 472.395 562.762 474.27 561.092 476.875Z" fill="#292F44"/>
<path d="M534.138 452.826L523.872 456.79C523.872 456.79 517.072 454.944 513.823 457.876C510.574 460.808 513.93 464.934 514.578 464.934C515.226 464.934 549.289 462.597 549.289 462.597L548.257 450.817L534.138 452.826Z" fill="#E0E0E0"/>
<path d="M523.871 456.788L525.405 457.657L536.445 453.016L533.797 451.835L523.871 456.788Z" fill="#FE3B1B"/>
<path d="M541.986 461.363C540.725 461.159 537.058 461.852 537.058 461.852C530.258 463.683 513.069 463.073 513.069 463.073C511.558 464.498 514.456 464.985 514.456 464.985L549.289 462.597L549.072 460.589C549.072 460.589 543.244 461.572 541.986 461.363Z" fill="#292F44"/>
<path d="M554.859 222.404C554.859 222.404 535.632 233.731 536.609 253.836C537.585 273.942 548.178 282.501 548.178 282.501C548.178 282.501 564.953 301.987 573.517 295.937C573.517 295.937 569.607 302.287 571.154 308.232C572.701 314.177 573.436 321.913 571.4 329.649C569.364 337.386 567.977 349.03 567.977 350.006C567.977 350.982 565.289 377.123 565.289 377.123C565.289 377.123 564.8 384.863 567.163 387.22C569.526 389.578 569.932 413.197 567.977 428.668C566.022 444.138 564.388 461.078 564.388 461.078L548.909 460.915L547.776 444.14L532.457 446.91C532.457 446.91 522.517 418.403 523.012 394.957C523.012 394.957 515.68 307.173 518.611 302.941L508.672 264.178L508.999 250.172C508.999 250.172 516.575 230.386 523.502 227.046C523.502 227.046 510.138 247.975 517.635 259.049C517.635 259.049 531.486 259.615 533.033 257.338C533.033 257.338 529.444 235.842 551.61 221.02L554.859 222.404Z" fill="#292F44"/>
<mask id="mask14_265_2460" style="mask-type:luminance" maskUnits="userSpaceOnUse" x="508" y="221" width="66" height="241">
<path d="M554.859 222.404C554.859 222.404 535.632 233.731 536.609 253.836C537.585 273.942 548.178 282.501 548.178 282.501C548.178 282.501 564.953 301.987 573.517 295.937C573.517 295.937 569.607 302.287 571.154 308.232C572.701 314.177 573.436 321.913 571.4 329.649C569.364 337.386 567.977 349.03 567.977 350.006C567.977 350.982 565.289 377.123 565.289 377.123C565.289 377.123 564.8 384.863 567.163 387.22C569.526 389.578 569.932 413.197 567.977 428.668C566.022 444.138 564.388 461.078 564.388 461.078L548.909 460.915L547.776 444.14L532.457 446.91C532.457 446.91 522.517 418.403 523.012 394.957C523.012 394.957 515.68 307.173 518.611 302.941L508.672 264.178L508.999 250.172C508.999 250.172 516.575 230.386 523.502 227.046C523.502 227.046 510.138 247.975 517.635 259.049C517.635 259.049 531.486 259.615 533.033 257.338C533.033 257.338 529.444 235.842 551.61 221.02L554.859 222.404Z" fill="white"/>
</mask>
<g mask="url(#mask14_265_2460)">
<path d="M558.167 283.653C557.516 283.488 548.88 287.239 548.88 287.239L548.228 275.188C548.228 275.188 536.658 292.933 533.236 294.404C529.813 295.874 528.837 282.19 525.741 275.023C522.645 267.857 522.807 257.599 518.895 257.924C514.983 258.248 505.208 276.001 505.044 277.793C504.88 279.584 500.482 314.605 500.482 314.605C500.482 314.605 505.533 328.449 505.86 329.262C506.187 330.076 514.823 340.989 514.823 340.989C515.31 340.825 523.621 340.663 528.674 333.816C533.727 326.969 536.007 318.506 539.103 316.714C542.199 314.922 562.568 297.985 564.359 294.402C566.15 290.819 558.823 283.815 558.167 283.653Z" fill="#232733"/>
<path d="M544.157 402.704C544.157 402.704 542.692 399.446 540.899 393.909C539.107 388.372 539.431 372.737 538.455 365.246C537.478 357.755 535.521 329.253 535.521 329.253C535.521 329.253 534.705 333.163 533.24 339.188C531.774 345.214 537.476 389.512 538.291 395.049C539.105 400.586 540.41 412.963 540.899 422.898C541.388 432.834 544.001 443.743 544.001 443.743L547.259 442.441C547.259 442.441 546.126 427.784 545.629 424.201C545.132 420.618 544.157 402.704 544.157 402.704Z" fill="#232733"/>
</g>
<path d="M547.132 433.27V433.243L546.773 431.327L546.486 429.398C546.322 428.107 546.15 426.817 546.027 425.52C545.904 424.223 545.782 422.927 545.668 421.63C545.555 420.333 545.468 419.032 545.385 417.731C545.211 415.131 545.07 412.528 544.962 409.923C544.848 407.32 544.748 404.713 544.688 402.111V401.97L544.599 401.851C544.135 401.207 543.75 400.51 543.451 399.774C543.134 399.022 542.859 398.254 542.627 397.471C542.156 395.893 541.766 394.292 541.458 392.674C541.142 391.051 540.874 389.418 540.655 387.777C540.436 386.137 540.241 384.489 540.117 382.844C539.584 376.212 539.067 369.579 538.513 362.949L537.688 353.004L536.843 343.059L535.99 333.115C535.925 332.289 535.848 331.456 535.801 330.635C535.759 329.797 535.648 328.964 535.468 328.145C535.306 327.327 535.111 326.517 534.902 325.709C534.692 324.901 534.478 324.101 534.248 323.301C534.645 324.917 535.004 326.544 535.285 328.179C535.439 328.988 535.525 329.809 535.542 330.633C535.565 331.475 535.619 332.302 535.659 333.134L535.946 338.116L536.263 343.098L536.59 348.078L536.934 353.056L537.28 358.035L537.642 363.013C538.118 369.648 538.636 376.282 539.153 382.916C539.274 384.591 539.482 386.248 539.709 387.904C539.935 389.559 540.209 391.209 540.532 392.852C540.852 394.502 541.256 396.134 541.743 397.743C541.99 398.554 542.282 399.351 542.62 400.129C542.938 400.886 543.339 401.605 543.815 402.274V402.132L543.908 402.393L543.821 402.274C543.905 404.841 544.019 407.405 544.163 409.965C544.311 412.572 544.491 415.178 544.703 417.782C544.915 420.386 545.178 422.986 545.494 425.583C545.79 428.18 546.226 430.76 546.802 433.31V433.296V433.321V433.31L547.285 438.718C547.442 440.527 547.621 442.333 547.789 444.14C547.686 442.328 547.601 440.515 547.478 438.703L547.132 433.27Z" fill="#1A1F30"/>
<path d="M543.797 402.132V402.274L543.884 402.393L543.797 402.132Z" fill="#1A1F30"/>
<path d="M548.369 455.431L548.586 465.637C556.952 469.763 564.772 465.529 564.772 465.529V455.975C554.995 462.163 548.369 455.431 548.369 455.431Z" fill="#8C8989"/>
<path d="M531.422 443.489C531.879 445.058 532.335 446.627 532.791 448.195C533.05 449.088 533.307 449.983 533.57 450.876C533.783 451.591 533.9 452.335 534.629 452.711C535.096 452.917 535.6 453.028 536.11 453.035C539.334 453.268 543.19 453.209 546.28 452.167C546.731 452.014 548.261 451.474 548.261 450.817L547.391 439.228C547.391 439.228 539.089 444.393 531.422 443.489Z" fill="#8C8989"/>
<path d="M253.736 350.491H257.363L269.966 332.373L261.505 331.337L253.736 350.491Z" fill="black"/>
<path d="M483.037 332.373L495.64 350.491H499.266L491.497 331.337L483.037 332.373Z" fill="black"/>
<path d="M483.04 244.114C482.285 244.114 435.675 246.829 435.35 246.829C435.025 246.829 406.639 248.15 400.26 244.548C387.066 237.084 385.024 245.226 385.024 245.226C385.024 245.226 376.252 271.467 378.317 278.64C380.381 285.814 443.714 281.789 443.714 281.789C443.714 281.789 489.667 280.594 493.469 279.292C497.271 277.989 501.897 247.172 500.594 241.852C499.29 236.533 483.802 244.114 483.04 244.114Z" fill="#4E85C6"/>
<path d="M499.575 240.097C496.364 238.453 488.48 241.63 484.691 243.157C483.916 243.468 483.18 243.763 483.027 243.789C482.315 243.804 465.375 244.781 451.745 245.566C443.056 246.066 435.565 246.498 435.349 246.51L435.043 246.521C429.429 246.74 423.653 246.802 418.782 246.699C409.215 246.495 402.864 245.655 400.42 244.273C395.082 241.252 390.873 240.365 387.912 241.63C387.155 241.946 386.477 242.424 385.925 243.029C385.373 243.635 384.959 244.354 384.714 245.135C384.612 245.437 382.462 251.92 380.583 259.166C377.999 269.118 377.132 275.701 378.004 278.731C378.286 279.711 379.47 280.5 381.625 281.144C383.473 281.695 386.079 282.144 389.37 282.478C394.338 282.981 400.939 283.234 409.028 283.234C409.928 283.234 410.848 283.234 411.789 283.234C427.705 283.126 443.574 282.129 443.711 282.12C445.589 282.073 489.757 280.91 493.563 279.605C496.138 278.724 498.4 267.098 499.254 262.141C500.614 254.242 501.615 244.713 500.898 241.783C500.817 241.421 500.657 241.082 500.428 240.79C500.199 240.498 499.908 240.261 499.575 240.097ZM498.627 262.024C496.58 273.917 494.511 278.591 493.365 278.986C489.651 280.258 444.165 281.453 443.687 281.467C443.53 281.467 427.677 282.471 411.778 282.578C402.449 282.641 394.929 282.39 389.43 281.833C381.032 280.981 378.917 279.579 378.62 278.55C376.609 271.565 385.231 245.59 385.326 245.324V245.3C385.549 244.613 385.917 243.982 386.406 243.45C386.895 242.919 387.493 242.499 388.159 242.219C389.001 241.875 389.904 241.706 390.813 241.722C393.308 241.722 396.457 242.768 400.093 244.824C405.76 248.033 428.291 247.42 435.06 247.157L435.342 247.146C435.474 247.146 441.367 246.808 451.775 246.202C464.774 245.447 482.579 244.427 483.032 244.427C483.221 244.427 483.558 244.297 484.921 243.746C488.333 242.372 496.319 239.151 499.267 240.663C499.518 240.783 499.739 240.958 499.912 241.176C500.085 241.393 500.206 241.647 500.267 241.919C500.884 244.399 500.178 253.038 498.627 262.03V262.024Z" fill="#35668E"/>
<path d="M371.051 244.144C364.274 247.684 268.485 244.203 268.485 244.203C268.485 244.203 254.977 234.703 253.149 243.974C251.32 253.245 253.075 280.113 255.818 282.031C258.56 283.949 380.566 282.195 380.566 282.195C380.566 282.195 386.652 269.613 383.187 259.454C383.187 259.454 387.058 252.092 387.058 245.749C387.065 236.961 376.276 241.416 371.051 244.144Z" fill="#4E85C6"/>
<path d="M380.569 281.878H380.367L380.289 282.054L380.569 281.878Z" fill="#35668E"/>
<path d="M383.461 259.595C383.48 259.557 383.497 259.519 383.516 259.479C383.505 259.44 383.491 259.398 383.478 259.358L383.461 259.595Z" fill="#35668E"/>
<path d="M386.857 242.934C386.563 242.221 386.072 241.605 385.442 241.158C384.81 240.736 384.089 240.464 383.334 240.365C382.603 240.264 381.862 240.253 381.128 240.333C380.405 240.409 379.688 240.535 378.982 240.71C377.582 241.057 376.211 241.509 374.88 242.064C373.548 242.606 372.249 243.217 370.975 243.882C370.894 243.925 370.824 243.946 370.749 243.98C370.675 244.015 370.6 244.045 370.522 244.071C370.358 244.116 370.197 244.171 370.029 244.212L369.519 244.326C369.349 244.361 369.173 244.388 369.002 244.42C368.656 244.486 368.303 244.524 367.953 244.579L366.897 244.703C365.484 244.852 364.064 244.952 362.642 245.037C359.808 245.207 356.947 245.298 354.096 245.37C348.392 245.502 342.684 245.53 336.977 245.521C325.561 245.498 314.146 245.302 302.732 245.083C291.317 244.864 279.905 244.554 268.492 244.212C279.898 244.672 291.31 245.049 302.726 245.345C308.433 245.5 314.141 245.629 319.849 245.734C325.557 245.838 331.266 245.91 336.975 245.949C342.686 245.983 348.396 245.979 354.106 245.87C356.962 245.809 359.818 245.732 362.674 245.573C364.1 245.494 365.528 245.4 366.956 245.251L368.025 245.126C368.382 245.071 368.737 245.034 369.094 244.966C369.272 244.933 369.451 244.905 369.629 244.869L370.163 244.75C370.352 244.707 370.52 244.648 370.7 244.597C370.791 244.567 370.882 244.532 370.97 244.492C371.057 244.452 371.159 244.416 371.232 244.375C372.492 243.721 373.779 243.117 375.091 242.585C376.397 242.044 377.741 241.602 379.113 241.264C379.796 241.099 380.491 240.981 381.191 240.912C381.877 240.838 382.571 240.849 383.255 240.945C383.922 241.031 384.56 241.27 385.119 241.643C385.661 242.027 386.082 242.559 386.332 243.174C386.586 243.807 386.731 244.479 386.761 245.16C386.783 245.507 386.783 245.855 386.761 246.202C386.742 246.553 386.748 246.902 386.7 247.252C386.653 247.601 386.64 247.952 386.585 248.301L386.419 249.343L386.204 250.38C386.128 250.725 386.036 251.067 385.952 251.411C385.588 252.778 385.15 254.126 384.642 255.447C384.142 256.769 383.575 258.064 382.942 259.328L382.883 259.443L382.923 259.566C383.223 260.477 383.459 261.408 383.629 262.352C383.79 263.301 383.893 264.257 383.939 265.218C383.979 266.181 383.97 267.146 383.912 268.108C383.85 269.071 383.752 270.032 383.608 270.987C383.315 272.903 382.886 274.795 382.326 276.651C381.794 278.443 381.143 280.197 380.378 281.903H380.58L380.301 282.082L380.378 281.906L357.855 282.191L335.115 282.418C319.962 282.563 304.81 282.648 289.659 282.675C282.084 282.675 274.508 282.675 266.936 282.526C265.047 282.488 263.158 282.443 261.269 282.367C260.324 282.329 259.38 282.286 258.436 282.22C257.965 282.188 257.491 282.15 257.03 282.097C256.798 282.069 256.564 282.04 256.341 281.997C256.284 281.988 256.229 281.977 256.176 281.963C256.122 281.95 256.071 281.935 256.025 281.92L255.989 281.908L255.967 281.895C255.949 281.888 255.932 281.878 255.918 281.865C255.879 281.835 255.843 281.802 255.81 281.767C255.665 281.603 255.544 281.419 255.451 281.221C255.349 281.015 255.257 280.804 255.177 280.589C255.015 280.155 254.881 279.705 254.76 279.252C254.518 278.344 254.333 277.419 254.165 276.492C253.836 274.633 253.598 272.758 253.388 270.878C252.986 267.119 252.739 263.342 252.61 259.56C252.546 257.672 252.519 255.781 252.529 253.887C252.544 252 252.597 250.112 252.729 248.224C252.797 247.28 252.886 246.336 253.011 245.405C253.135 244.475 253.271 243.527 253.632 242.662C253.962 241.781 254.584 241.039 255.394 240.561C256.207 240.093 257.172 239.955 258.107 239.984C259.05 240.027 259.984 240.19 260.887 240.467C261.794 240.737 262.681 241.068 263.543 241.456C265.27 242.234 266.929 243.158 268.5 244.216C266.937 243.143 265.285 242.204 263.564 241.409C262.706 241.011 261.823 240.672 260.919 240.393C260.012 240.106 259.071 239.933 258.12 239.88C257.176 239.846 256.186 239.978 255.343 240.446C254.504 240.934 253.857 241.694 253.509 242.6C253.329 243.043 253.191 243.502 253.098 243.971C253.007 244.437 252.929 244.915 252.861 245.375C252.729 246.319 252.635 247.263 252.559 248.207C252.414 250.095 252.348 251.983 252.321 253.887C252.295 255.792 252.321 257.676 252.361 259.57C252.467 263.359 252.684 267.144 253.069 270.916C253.258 272.803 253.502 274.691 253.825 276.554C253.991 277.498 254.172 278.423 254.416 279.347C254.537 279.809 254.671 280.268 254.839 280.721C254.921 280.95 255.017 281.174 255.126 281.391C255.235 281.622 255.376 281.837 255.546 282.027C255.593 282.079 255.645 282.126 255.7 282.169C255.73 282.195 255.764 282.216 255.801 282.231L255.857 282.259L255.904 282.276C255.966 282.3 256.029 282.319 256.093 282.333L256.282 282.373C256.524 282.42 256.762 282.45 257 282.48C257.476 282.535 257.944 282.577 258.422 282.611C259.367 282.68 260.311 282.728 261.256 282.769C263.145 282.852 265.045 282.905 266.939 282.958C274.518 283.13 282.094 283.173 289.672 283.203C297.25 283.234 304.827 283.203 312.403 283.173C319.979 283.143 327.556 283.088 335.132 283.028L357.861 282.814L369.226 282.686L380.59 282.529H380.79L380.871 282.352C381.684 280.561 382.37 278.715 382.925 276.828C383.491 274.947 383.923 273.028 384.218 271.085C384.364 270.113 384.464 269.133 384.526 268.15C384.589 267.166 384.587 266.181 384.549 265.195C384.5 264.209 384.392 263.226 384.226 262.252C384.055 261.32 383.822 260.4 383.529 259.498C383.51 259.538 383.493 259.575 383.474 259.613L383.491 259.377C383.504 259.417 383.518 259.458 383.529 259.498C384.153 258.249 384.713 256.97 385.208 255.666C385.723 254.323 386.164 252.954 386.53 251.563C386.615 251.214 386.719 250.867 386.785 250.516L387.005 249.457L387.173 248.386C387.227 248.029 387.25 247.667 387.292 247.308C387.333 246.95 387.333 246.585 387.35 246.223C387.373 245.858 387.373 245.493 387.35 245.128C387.312 244.374 387.145 243.632 386.857 242.934Z" fill="#35668E"/>
<path d="M507.134 287.985H246.186V337.018H507.134V287.985Z" fill="#354877"/>
<path d="M487.632 276.573H388.983C383.66 276.573 379.346 280.886 379.346 286.205V286.817C379.346 292.136 383.66 296.448 388.983 296.448H487.632C492.954 296.448 497.269 292.136 497.269 286.817V286.205C497.269 280.886 492.954 276.573 487.632 276.573Z" fill="#68ABD8"/>
<path d="M496.267 281.863C495.505 280.341 494.354 279.048 492.931 278.114C491.507 277.18 489.862 276.638 488.162 276.543C487.822 276.528 487.484 276.524 487.148 276.526H486.135L453.75 276.411L421.367 276.298L388.982 276.25C386.874 276.255 384.822 276.927 383.121 278.171C381.42 279.415 380.157 281.166 379.515 283.173C379.302 283.836 379.16 284.52 379.092 285.214C379.081 285.387 379.064 285.559 379.054 285.733L379.043 286.254V286.76L379.054 287.279C379.118 288.673 379.478 290.037 380.108 291.281C380.736 292.526 381.62 293.625 382.701 294.505C383.783 295.386 385.038 296.029 386.385 296.392C387.056 296.573 387.744 296.682 388.438 296.718C388.612 296.718 388.784 296.718 388.958 296.731H390.469L422.854 296.616L455.239 296.503L487.622 296.456L455.239 296.409L422.854 296.295L390.469 296.18H388.958L388.467 296.165C386.154 296.037 383.971 295.055 382.342 293.408C380.713 291.762 379.755 289.569 379.653 287.256L379.642 286.766V286.26L379.653 285.767L379.689 285.28C379.924 282.983 381.005 280.854 382.721 279.308C384.437 277.761 386.666 276.907 388.977 276.909L421.362 276.862L453.745 276.749L486.13 276.634H487.144C487.482 276.634 487.818 276.634 488.153 276.647C489.838 276.736 491.471 277.268 492.885 278.188C494.3 279.108 495.447 280.385 496.211 281.889C496.821 283.094 497.169 284.414 497.231 285.763C497.242 286.099 497.244 286.435 497.242 286.773L497.231 287.277L497.195 287.781C497.13 288.452 496.993 289.113 496.787 289.754C496.165 291.695 494.944 293.388 493.298 294.591C491.652 295.793 489.667 296.443 487.628 296.446C488.982 296.447 490.32 296.163 491.557 295.612C492.794 295.061 493.901 294.257 494.805 293.25C495.711 292.242 496.395 291.055 496.813 289.765C497.022 289.122 497.161 288.458 497.229 287.785L497.267 287.279L497.28 286.773C497.28 286.435 497.28 286.099 497.28 285.761C497.222 284.405 496.877 283.076 496.267 281.863Z" fill="#35668E"/>
<path d="M379.423 276.573H266.752C261.43 276.573 257.115 280.886 257.115 286.205V286.817C257.115 292.136 261.43 296.448 266.752 296.448H379.423C384.745 296.448 389.06 292.136 389.06 286.817V286.205C389.06 280.886 384.745 276.573 379.423 276.573Z" fill="#68ABD8"/>
<path d="M386.858 280.03C385.897 278.87 384.678 277.95 383.298 277.345C382.61 277.042 381.888 276.822 381.148 276.69L380.87 276.641L380.593 276.605C380.404 276.577 380.215 276.57 380.026 276.553C379.648 276.53 379.271 276.53 378.893 276.532H374.407L338.518 276.417L302.629 276.303L266.74 276.256C265.188 276.258 263.659 276.622 262.273 277.32C260.887 278.018 259.684 279.03 258.76 280.275C257.834 281.518 257.214 282.962 256.95 284.489C256.884 284.869 256.839 285.252 256.816 285.637C256.805 285.826 256.805 286.014 256.799 286.214V286.781C256.792 289.115 257.607 291.376 259.1 293.171C259.596 293.761 260.156 294.294 260.771 294.759C261.389 295.221 262.057 295.61 262.764 295.918C263.47 296.227 264.211 296.451 264.97 296.584C265.065 296.601 265.159 296.62 265.254 296.633L265.541 296.669C265.73 296.697 265.918 296.707 266.107 296.722C266.296 296.737 266.485 296.735 266.674 296.741H267.241H271.727L307.616 296.626L343.505 296.513L379.393 296.465L343.505 296.418L307.616 296.305L271.727 296.19H267.241H266.674C266.485 296.19 266.309 296.19 266.13 296.169C265.951 296.148 265.767 296.146 265.588 296.118L265.318 296.084C265.227 296.071 265.129 296.052 265.05 296.037C264.334 295.909 263.636 295.696 262.972 295.402C262.308 295.111 261.68 294.743 261.1 294.308C260.522 293.868 259.996 293.365 259.53 292.809C258.129 291.118 257.369 288.989 257.383 286.794V286.228C257.383 286.039 257.383 285.865 257.4 285.684C257.421 285.323 257.463 284.964 257.528 284.608C257.91 282.451 259.041 280.497 260.721 279.091C262.401 277.684 264.524 276.914 266.716 276.917L302.604 276.87L338.493 276.756L374.382 276.641H378.868C379.246 276.641 379.624 276.641 379.986 276.662C380.175 276.677 380.364 276.685 380.544 276.711L380.819 276.747C380.912 276.76 381.008 276.779 381.095 276.794C381.83 276.923 382.546 277.139 383.23 277.438C383.913 277.741 384.56 278.121 385.156 278.571C385.751 279.021 386.293 279.535 386.773 280.105C387.732 281.254 388.408 282.612 388.747 284.07C388.916 284.797 389.001 285.541 389 286.288V286.854C389 287.043 389 287.232 388.985 287.421C388.963 287.793 388.92 288.163 388.857 288.531C388.466 290.759 387.302 292.779 385.57 294.235C383.838 295.692 381.648 296.492 379.384 296.495C381.653 296.5 383.85 295.704 385.589 294.248C387.328 292.792 388.497 290.77 388.891 288.536C388.956 288.168 389 287.796 389.023 287.423C389.034 287.234 389.034 287.045 389.04 286.856V286.29C389.043 285.54 388.96 284.793 388.793 284.062C388.472 282.585 387.81 281.204 386.858 280.03Z" fill="#35668E"/>
<path d="M510.682 243.263H503.716C498.463 243.263 494.205 247.518 494.205 252.768V327.512C494.205 332.762 498.463 337.018 503.716 337.018H510.682C515.934 337.018 520.192 332.762 520.192 327.512V252.768C520.192 247.518 515.934 243.263 510.682 243.263Z" fill="#406096"/>
<path d="M249.602 243.263H242.636C237.383 243.263 233.125 247.518 233.125 252.768V327.512C233.125 332.762 237.383 337.018 242.636 337.018H249.602C254.854 337.018 259.112 332.762 259.112 327.512V252.768C259.112 247.518 254.854 243.263 249.602 243.263Z" fill="#406096"/>
<path d="M543.218 258.922C543.218 258.922 543.785 271.463 545.825 274.402C547.865 277.342 542.891 280.996 542.891 280.996C542.891 280.996 536.21 289.792 534.988 296.388C534.988 296.388 534.259 302.553 524.56 309.823C524.233 310.069 521.87 310.637 519.915 314.543C519.091 316.191 518.889 318.062 518.149 319.744C517.661 320.852 513.636 326.98 513.804 327.769C513.84 327.999 513.943 328.214 514.102 328.385C514.26 328.556 514.465 328.676 514.692 328.73C515.015 328.772 515.344 328.74 515.653 328.636C516.721 328.334 517.696 327.767 518.487 326.989C519.318 326.17 519.902 325.137 520.827 324.397C521.131 324.156 521.069 324.397 521.069 324.703C521.069 325.009 521.069 325.27 521.069 325.558C521.056 326.11 521.022 326.659 520.954 327.206C520.697 329.196 520.092 331.182 518.965 332.859C518.313 333.837 517.479 334.681 516.509 335.345C515.972 335.72 515.392 336.031 514.783 336.272C513.918 336.6 512.85 336.649 511.932 336.757C511.451 336.815 510.967 336.863 510.484 336.902C510.055 336.936 509.458 336.861 509.054 336.995C508.487 337.184 508.394 338.054 508.502 338.537C508.92 340.123 511.842 339.825 512.975 339.74C513.364 339.711 513.749 339.668 514.137 339.623C522.121 338.647 528.15 325.292 528.15 325.292L533.528 316.253C533.528 316.253 551.778 301.921 554.793 295.487C557.808 289.054 562.453 288.159 562.453 288.159C562.453 288.159 564.326 288.404 563.837 282.133C563.348 275.862 564.897 267.884 564.897 267.884C564.897 267.884 566.606 259.011 565.955 254.448C565.949 254.444 546.884 254.525 543.218 258.922Z" fill="#FFBF9C"/>
<path d="M565.859 254.455C565.859 254.483 565.859 254.51 565.859 254.537H565.945L565.859 254.455Z" fill="#E08D68"/>
<path d="M521.004 324.538L521.049 324.509C521.049 324.509 521.049 324.509 521.032 324.509C521.012 324.515 520.99 324.515 520.97 324.509C520.946 324.503 520.924 324.491 520.905 324.475C520.886 324.459 520.871 324.439 520.862 324.416C520.852 324.39 520.862 324.416 520.862 324.451V324.664L520.934 324.6L521.004 324.538Z" fill="#E08D68"/>
<path d="M533.662 316.428L533.695 316.399L533.716 316.365L533.662 316.428Z" fill="#E08D68"/>
<path d="M566.028 254.352H565.949C563.982 254.38 562.02 254.473 560.061 254.608C558.102 254.744 556.145 254.933 554.206 255.199C552.257 255.449 550.325 255.822 548.424 256.315C547.473 256.565 546.542 256.886 545.639 257.276C544.75 257.676 543.868 258.169 543.225 258.92C543.873 258.165 544.757 257.689 545.649 257.297C546.552 256.912 547.484 256.596 548.435 256.353C550.338 255.874 552.27 255.516 554.219 255.281C556.164 255.031 558.119 254.86 560.074 254.737C562.029 254.614 563.939 254.548 565.871 254.525C565.871 254.499 565.871 254.473 565.871 254.446L565.962 254.525H565.879C566.024 255.921 566.047 257.328 565.947 258.728C565.866 260.157 565.716 261.582 565.533 263.004C565.35 264.425 565.133 265.835 564.88 267.251C564.627 268.667 564.379 270.083 564.188 271.506C563.786 274.357 563.589 277.234 563.597 280.113C563.597 280.473 563.597 280.834 563.627 281.193L563.686 282.273C563.705 282.629 563.731 282.984 563.743 283.341V283.873C563.743 284.062 563.743 284.23 563.743 284.408L563.724 284.94C563.714 285.116 563.693 285.291 563.678 285.467C563.663 285.642 563.637 285.818 563.608 285.99L563.565 286.25L563.505 286.503C563.482 286.588 563.465 286.673 563.44 286.756L563.353 287C563.34 287.039 563.327 287.081 563.31 287.12L563.255 287.234C563.223 287.311 563.183 287.385 563.138 287.455C563.059 287.592 562.956 287.714 562.834 287.815C562.777 287.863 562.714 287.902 562.645 287.93C562.614 287.943 562.582 287.952 562.549 287.959C562.524 287.964 562.499 287.968 562.473 287.97H562.417C561.571 288.191 560.765 288.541 560.027 289.008C559.29 289.458 558.604 289.988 557.983 290.588C557.906 290.664 557.825 290.736 557.749 290.811L557.528 291.047C557.381 291.206 557.232 291.361 557.088 291.521L556.682 292.023L556.478 292.272C556.414 292.359 556.353 292.448 556.289 292.537C556.042 292.888 555.787 293.235 555.575 293.609L555.243 294.162C555.133 294.351 555.042 294.54 554.942 294.728L554.649 295.295L554.359 295.85L554.287 295.988L554.206 296.122L554.041 296.388L553.875 296.656L553.697 296.914C553.229 297.613 552.696 298.27 552.16 298.921C551.07 300.214 549.905 301.445 548.707 302.646C546.308 305.043 543.796 307.324 541.225 309.55C538.654 311.775 536.044 313.945 533.384 316.053L533.35 316.08L533.33 316.116L527.946 325.151V325.166C526.928 327.308 525.736 329.364 524.384 331.312C523.028 333.253 521.505 335.088 519.707 336.619C518.82 337.387 517.836 338.037 516.781 338.55C516.519 338.677 516.25 338.789 515.976 338.888L515.566 339.036C515.427 339.077 515.285 339.111 515.145 339.151C514.58 339.294 514.003 339.386 513.421 339.426L512.979 339.472L512.533 339.506C512.238 339.526 511.945 339.543 511.653 339.549C511.077 339.573 510.5 339.522 509.938 339.396C509.674 339.335 509.423 339.228 509.197 339.079C508.99 338.946 508.835 338.746 508.757 338.513C508.721 338.39 508.704 338.263 508.708 338.135C508.707 338.003 508.721 337.871 508.749 337.742C508.763 337.631 508.802 337.524 508.864 337.43C508.926 337.337 509.009 337.259 509.106 337.202C509.541 337.042 510.215 337.176 510.806 337.076L512.59 336.887C513.197 336.839 513.799 336.745 514.392 336.604C514.986 336.43 515.554 336.176 516.08 335.849C517.137 335.227 518.062 334.405 518.804 333.429C519.534 332.452 520.103 331.365 520.489 330.208C520.874 329.059 521.122 327.869 521.229 326.663C521.284 326.059 521.294 325.456 521.295 324.858V324.637V324.407C521.297 324.343 521.287 324.279 521.267 324.218C521.252 324.177 521.226 324.139 521.194 324.11C521.161 324.08 521.121 324.059 521.078 324.048C521.039 324.04 520.998 324.04 520.959 324.048C520.935 324.052 520.912 324.058 520.889 324.067C520.836 324.088 520.786 324.116 520.74 324.15C520.706 324.174 520.673 324.2 520.642 324.227C520.405 324.425 520.182 324.64 519.975 324.869C519.563 325.322 519.208 325.813 518.83 326.253C518.463 326.701 518.038 327.1 517.569 327.441C517.099 327.777 516.585 328.048 516.042 328.247C515.776 328.347 515.502 328.425 515.223 328.479C514.976 328.535 514.717 328.505 514.49 328.394C514.278 328.266 514.121 328.064 514.05 327.828C514.04 327.795 514.029 327.765 514.021 327.733C514.02 327.718 514.02 327.703 514.021 327.688C514.022 327.682 514.022 327.676 514.021 327.671V327.652V327.612C514.026 327.582 514.033 327.551 514.042 327.522C514.082 327.388 514.13 327.257 514.186 327.129C514.416 326.597 514.699 326.074 514.985 325.555C515.563 324.518 516.177 323.495 516.789 322.474L517.707 320.935C517.858 320.676 518.009 320.418 518.152 320.152C518.228 320.016 518.297 319.877 518.358 319.734C518.417 319.593 518.475 319.453 518.528 319.31C518.957 318.177 519.193 316.995 519.565 315.88C519.745 315.322 519.977 314.783 520.258 314.269C520.33 314.139 520.394 314.007 520.468 313.88L520.697 313.503L520.81 313.314L520.935 313.125L521.182 312.761C521.529 312.289 521.915 311.846 522.336 311.439C522.759 311.038 523.229 310.689 523.736 310.401C523.989 310.256 524.246 310.139 524.527 310.003C524.561 309.988 524.609 309.956 524.648 309.933C524.688 309.91 524.709 309.886 524.739 309.861L524.915 309.723L525.268 309.444L525.972 308.887L526.326 308.61C526.443 308.517 526.552 308.421 526.666 308.317C527.115 307.92 527.574 307.535 528.016 307.131C528.458 306.727 528.883 306.305 529.306 305.882L529.922 305.227L530.23 304.898C530.334 304.79 530.436 304.679 530.53 304.564L531.112 303.877L531.401 303.533L531.673 303.174L532.217 302.457L532.725 301.713C532.808 301.589 532.895 301.468 532.974 301.336L533.209 300.958C533.36 300.7 533.526 300.448 533.66 300.179C534.256 299.129 534.715 298.007 535.026 296.841C535.064 296.696 535.094 296.544 535.118 296.392C535.143 296.239 535.183 296.105 535.215 295.961L535.404 295.1L535.664 294.251L535.795 293.826L535.951 293.409C536.791 291.183 537.825 289.035 539.042 286.99C540.233 284.931 541.535 282.938 542.942 281.019L542.929 281.03L542.946 281.013C543.731 280.407 544.441 279.71 545.061 278.937C545.377 278.549 545.652 278.13 545.883 277.687C546.12 277.242 546.276 276.759 546.344 276.26L546.363 276.071C546.363 276.009 546.363 275.945 546.363 275.882C546.363 275.756 546.354 275.63 546.336 275.505C546.299 275.254 546.226 275.01 546.119 274.78L546.038 274.608L545.938 274.448L545.749 274.132C545.684 274.03 545.625 273.923 545.573 273.813C545.517 273.705 545.466 273.593 545.42 273.479C545.229 273.025 545.069 272.559 544.941 272.084C544.803 271.61 544.691 271.14 544.584 270.649C544.174 268.718 543.909 266.757 543.692 264.797C543.475 262.837 543.314 260.863 543.208 258.888C543.3 260.863 543.446 262.834 543.647 264.803C543.849 266.768 544.098 268.733 544.495 270.674C544.601 271.157 544.708 271.64 544.842 272.118C544.969 272.598 545.126 273.069 545.315 273.528C545.362 273.643 545.411 273.758 545.469 273.87C545.522 273.983 545.582 274.094 545.647 274.2L545.836 274.517L545.928 274.672L546.006 274.836C546.205 275.279 546.275 275.768 546.208 276.249C546.139 276.731 545.983 277.197 545.749 277.625C545.52 278.057 545.247 278.466 544.937 278.844C544.314 279.604 543.605 280.288 542.823 280.883H542.812V280.893C541.383 282.81 540.059 284.802 538.845 286.862C537.61 288.913 536.559 291.069 535.704 293.305L535.545 293.726L535.411 294.156L535.143 295.015L534.937 295.897C534.903 296.044 534.867 296.191 534.835 296.337C534.813 296.48 534.783 296.623 534.746 296.763C534.436 297.903 533.983 298.999 533.396 300.024C533.262 300.288 533.097 300.533 532.946 300.779L532.716 301.156C532.636 301.281 532.549 301.402 532.466 301.534L531.962 302.266L531.422 302.971L531.155 303.373L530.866 303.713L530.288 304.388C530.196 304.504 530.1 304.613 529.992 304.719L529.686 305.042L529.072 305.689C528.651 306.106 528.216 306.51 527.788 306.922C527.359 307.333 526.892 307.701 526.445 308.092C526.331 308.187 526.222 308.281 526.105 308.381L525.755 308.655L525.052 309.204L524.701 309.48L524.525 309.616C524.497 309.638 524.467 309.665 524.44 309.682C524.414 309.699 524.401 309.706 524.367 309.723C524.11 309.844 523.823 309.974 523.56 310.125C523.027 310.426 522.532 310.79 522.087 311.209C521.645 311.628 521.241 312.084 520.88 312.574L520.621 312.952L520.493 313.14L520.374 313.329L520.138 313.718C520.062 313.848 519.994 313.982 519.922 314.116C519.627 314.648 519.384 315.206 519.195 315.783C518.808 316.927 518.566 318.1 518.147 319.195C518.098 319.33 518.039 319.464 517.982 319.6C517.926 319.73 517.863 319.856 517.793 319.978C517.654 320.237 517.503 320.493 517.353 320.748L516.435 322.283C515.821 323.304 515.204 324.328 514.62 325.373C514.331 325.898 514.053 326.425 513.798 326.987C513.735 327.132 513.68 327.281 513.636 327.433C513.622 327.475 513.612 327.518 513.606 327.561L513.594 327.631C513.594 327.643 513.594 327.654 513.594 327.667V327.714C513.594 327.744 513.594 327.777 513.594 327.807C513.594 327.837 513.604 327.85 513.61 327.871C513.615 327.892 513.632 327.952 513.645 327.994C513.749 328.332 513.975 328.62 514.28 328.8C514.436 328.888 514.61 328.941 514.788 328.956C514.955 328.97 515.122 328.963 515.287 328.936C515.594 328.878 515.895 328.794 516.188 328.685C516.767 328.472 517.315 328.183 517.818 327.826C518.316 327.465 518.766 327.043 519.157 326.568C519.55 326.106 519.903 325.624 520.291 325.198C520.462 325.009 520.646 324.831 520.84 324.665V324.452C520.84 324.426 520.84 324.392 520.84 324.418C520.85 324.441 520.865 324.461 520.883 324.477C520.902 324.493 520.924 324.504 520.948 324.511C520.968 324.516 520.99 324.516 521.01 324.511C521.01 324.511 521.022 324.511 521.027 324.511L520.982 324.539L520.904 324.601L520.833 324.665V324.894C520.833 325.489 520.818 326.079 520.765 326.665C520.659 327.836 520.415 328.99 520.039 330.104C519.668 331.215 519.121 332.259 518.419 333.197C517.712 334.125 516.829 334.906 515.821 335.496C515.331 335.798 514.802 336.032 514.248 336.191C513.679 336.325 513.099 336.415 512.516 336.459L510.738 336.647C510.591 336.661 510.44 336.681 510.306 336.683C510.172 336.685 510.017 336.683 509.868 336.683C509.718 336.683 509.562 336.683 509.399 336.697C509.226 336.705 509.055 336.742 508.893 336.804C508.712 336.882 508.56 337.014 508.457 337.182C508.366 337.331 508.302 337.495 508.268 337.667C508.231 337.83 508.213 337.996 508.213 338.163C508.211 338.336 508.235 338.508 508.283 338.673C508.39 339.01 508.609 339.3 508.902 339.496C509.175 339.674 509.478 339.802 509.796 339.874C510.399 340.011 511.018 340.069 511.636 340.046C511.938 340.046 512.242 340.023 512.54 340.002L512.988 339.968L513.438 339.923L513.887 339.878C514.036 339.864 514.186 339.849 514.339 339.821C514.643 339.776 514.943 339.713 515.24 339.632C515.387 339.591 515.536 339.555 515.684 339.511L516.116 339.356C516.407 339.262 516.683 339.126 516.96 339.003C518.055 338.474 519.075 337.803 519.994 337.008C521.839 335.441 523.377 333.568 524.75 331.603C526.112 329.633 527.312 327.556 528.339 325.392L528.35 325.368C528.351 325.373 528.351 325.379 528.35 325.385L533.696 316.384L533.664 316.412L533.717 316.35L533.696 316.384C536.352 314.273 538.957 312.106 541.512 309.884C544.077 307.649 546.599 305.353 549.005 302.948C550.207 301.74 551.378 300.494 552.479 299.191C553.021 298.53 553.558 297.87 554.037 297.149L554.226 296.884L554.396 296.607L554.564 296.331L554.649 296.193L554.723 296.048L555.022 295.482L555.307 294.915C555.405 294.726 555.496 294.538 555.598 294.349L555.921 293.807C556.125 293.441 556.374 293.101 556.612 292.758C556.672 292.671 556.731 292.584 556.801 292.499L556.999 292.255L557.394 291.765C557.532 291.608 557.677 291.457 557.819 291.302L558.032 291.072C558.106 290.998 558.184 290.928 558.259 290.855C558.858 290.27 559.52 289.753 560.233 289.314C560.588 289.095 560.956 288.898 561.334 288.723C561.705 288.555 562.09 288.42 562.485 288.317C562.534 288.317 562.583 288.312 562.632 288.302C562.687 288.29 562.741 288.273 562.792 288.251C562.891 288.211 562.982 288.155 563.063 288.085C563.215 287.957 563.343 287.803 563.44 287.63C563.492 287.549 563.537 287.464 563.574 287.375L563.637 287.247C563.654 287.204 563.667 287.158 563.684 287.115L563.777 286.849C563.803 286.76 563.82 286.66 563.845 286.581L563.907 286.311L563.95 286.039C563.981 285.85 564.009 285.676 564.022 285.495C564.035 285.314 564.056 285.133 564.066 284.951L564.083 284.408C564.092 284.219 564.083 284.045 564.083 283.864L564.073 283.322C564.06 282.962 564.032 282.601 564.011 282.24L563.947 281.17C563.92 280.815 563.926 280.456 563.913 280.1C563.892 277.236 564.076 274.374 564.464 271.537C564.653 270.115 564.87 268.705 565.137 267.291C565.403 265.877 565.596 264.459 565.773 263.026C565.951 261.593 566.085 260.168 566.151 258.73C566.244 257.291 566.207 255.846 566.041 254.414L566.028 254.352Z" fill="#E08D68"/>
<path d="M564.635 268.88C564.797 268.267 564.892 267.88 564.892 267.88L564.635 268.88Z" fill="#FFBF9C"/>
<path d="M561.225 282.212L564.625 268.88C564.107 270.836 562.882 275.11 561.703 276.592C560.165 278.546 561.225 282.212 561.225 282.212Z" fill="#FFBF9C"/>
<path d="M563.058 273.241C562.843 273.83 562.607 274.409 562.352 274.976C562.216 275.254 562.093 275.543 561.938 275.803C561.869 275.938 561.791 276.068 561.704 276.192C561.617 276.318 561.543 276.432 561.44 276.57C561.071 277.125 560.84 277.761 560.767 278.423C560.69 279.064 560.695 279.712 560.784 280.351C560.866 280.983 561.013 281.604 561.224 282.205C561.112 281.586 561.045 280.96 561.022 280.332C560.994 279.713 561.034 279.094 561.141 278.484C561.24 277.892 561.469 277.329 561.814 276.838C561.899 276.73 562.002 276.581 562.093 276.449C562.187 276.314 562.274 276.174 562.352 276.03C562.522 275.75 562.65 275.463 562.794 275.171C563.299 274.003 563.72 272.801 564.056 271.574C564.399 270.356 564.678 269.12 564.891 267.872L563.695 271.459C563.483 272.061 563.285 272.658 563.058 273.241Z" fill="#E08D68"/>
<path d="M548.27 271.382L545.744 277.978C546.885 276.592 548.27 271.382 548.27 271.382Z" fill="#FFBF9C"/>
<path d="M546.998 274.689L546.418 276.35C546.367 276.486 546.315 276.622 546.267 276.762L546.109 277.172C546.06 277.309 545.993 277.44 545.939 277.577C545.911 277.646 545.879 277.712 545.842 277.776L545.744 277.978C545.854 277.874 545.957 277.763 546.054 277.647C546.145 277.528 546.243 277.408 546.32 277.283L546.556 276.905C546.628 276.773 546.696 276.639 546.766 276.507C547.032 275.973 547.263 275.422 547.457 274.857C547.646 274.291 547.82 273.724 547.958 273.147C548.104 272.569 548.208 271.982 548.27 271.389C548.018 271.933 547.803 272.484 547.597 273.035C547.391 273.587 547.191 274.134 546.998 274.689Z" fill="#E08D68"/>
<path d="M236.766 196.603C235.022 196.603 233.607 197.104 233.607 197.723C233.607 198.342 235.022 198.842 236.766 198.842C238.509 198.842 239.922 198.34 239.922 197.723C239.922 197.105 238.509 196.603 236.766 196.603Z" fill="#F7AC92"/>
<path d="M252.817 197.825C251.683 197.825 250.76 198.253 250.76 198.782C250.76 199.31 251.682 199.737 252.817 199.737C253.952 199.737 254.876 199.31 254.876 198.782C254.876 198.253 253.954 197.825 252.817 197.825Z" fill="#F7AC92"/>
<path d="M225.421 190.713C225.421 190.713 223.411 190.876 224.499 193.319C225.587 195.761 227.051 195.978 227.051 195.978L225.693 190.766L225.421 190.713Z" fill="#F7AC92"/>
<path d="M201.496 254.406C201.496 254.406 199.162 261.391 204.103 263.846C204.103 263.846 221.719 262.182 226.264 259.449C229.798 252.677 226.264 248.537 226.264 248.537C226.264 248.537 215.346 241.703 201.496 254.406Z" fill="#E0E0E0"/>
<path d="M536.864 196.354C536.52 196.249 536.166 196.186 535.808 196.165C535.45 196.14 535.092 196.175 534.746 196.269C535.099 196.301 535.439 196.352 535.777 196.415C535.946 196.448 536.114 196.482 536.28 196.524C536.361 196.547 536.444 196.564 536.527 196.584L536.773 196.656C537.1 196.751 537.423 196.864 537.738 196.994C538.059 197.119 538.369 197.27 538.698 197.409C538.445 197.157 538.16 196.941 537.85 196.766C537.538 196.59 537.207 196.452 536.864 196.354Z" fill="black"/>
<path d="M527.331 206.89C527.224 206.838 527.129 206.765 527.051 206.676C526.973 206.586 526.914 206.482 526.878 206.369C526.812 206.13 526.799 205.881 526.84 205.637C526.881 205.375 526.935 205.116 527.003 204.861L527.097 204.455L527.176 204.045C527.365 202.947 527.388 201.827 527.244 200.723C527.173 200.172 527.06 199.627 526.906 199.093C526.757 198.558 526.558 198.038 526.311 197.54C526.183 197.29 526.025 197.057 525.841 196.845C525.748 196.741 525.646 196.645 525.537 196.558C525.426 196.476 525.308 196.404 525.184 196.343C525.607 196.677 525.923 197.127 526.096 197.638C526.193 197.884 526.276 198.137 526.343 198.393C526.415 198.653 526.483 198.914 526.532 199.176C526.646 199.7 526.728 200.23 526.78 200.764C526.886 201.833 526.864 202.91 526.714 203.973L526.653 204.372L526.58 204.766C526.518 205.041 526.476 205.32 526.455 205.601C526.426 205.9 526.466 206.202 526.574 206.482C526.635 206.625 526.724 206.754 526.836 206.861C526.948 206.968 527.08 207.052 527.225 207.107C527.494 207.199 527.773 207.252 528.057 207.264C528.333 207.279 528.61 207.26 528.882 207.209C528.611 207.208 528.34 207.182 528.074 207.13C527.817 207.083 527.567 207.003 527.331 206.89Z" fill="#CE7E65"/>
<path d="M531.227 212.327C529.631 212.696 527.956 212.457 526.527 211.657L526.287 212.08C527.346 212.673 528.539 212.984 529.753 212.982C530.287 212.981 530.819 212.917 531.338 212.793C533.05 212.384 534.548 211.351 535.539 209.897L535.135 209.625C534.213 210.98 532.82 211.943 531.227 212.327Z" fill="#681610"/>
<path d="M520.166 202.977C518.277 203.299 516.852 204.228 516.994 205.053C517.136 205.878 518.781 206.275 520.674 205.952C522.566 205.629 523.987 204.7 523.847 203.875C523.707 203.05 522.058 202.652 520.166 202.977Z" fill="#F7AC92"/>
<path d="M537.067 201.002C535.15 201.106 533.633 201.865 533.679 202.701C533.724 203.537 535.314 204.121 537.232 204.022C539.149 203.924 540.666 203.16 540.62 202.323C540.575 201.487 538.985 200.898 537.067 201.002Z" fill="#F7AC92"/>
<path d="M202.826 259.439C202.826 259.439 210.648 253.361 220.533 253.587C220.533 253.578 211.842 249.57 202.826 259.439Z" fill="#B72323"/>
</svg>
