<svg width="347" height="446" viewBox="0 0 347 446" fill="none" xmlns="http://www.w3.org/2000/svg">
<g opacity="0.7">
<path d="M326.792 356.969L303.726 343.676C303.264 343.399 302.88 342.755 302.88 342.202V333.621C302.88 333.084 303.264 332.869 303.726 333.13L326.792 346.424C327.269 346.7 327.638 347.345 327.638 347.897V356.478C327.638 357.031 327.254 357.246 326.792 356.969Z" fill="#24282D"/>
<path d="M346.246 357.645V368.191L329.499 358.535C329.022 358.259 328.653 357.599 328.653 357.062V348.481C328.653 347.943 329.022 347.728 329.499 348.005L346.246 357.645Z" fill="#24282D"/>
<path d="M339.633 352.779L316.567 339.485C316.09 339.209 315.721 338.564 315.721 338.011V329.43C315.721 328.893 316.105 328.678 316.567 328.939L339.633 342.233C340.11 342.509 340.479 343.154 340.479 343.706V352.288C340.479 352.825 340.11 353.055 339.633 352.779Z" fill="#24282D"/>
<path d="M346.245 346.055V356.586L342.339 354.329C341.878 354.068 341.493 353.408 341.493 352.871V344.29C341.493 343.753 341.878 343.538 342.339 343.799L346.245 346.055Z" fill="#24282D"/>
<path d="M326.792 333.944L303.726 320.65C303.249 320.374 302.88 319.729 302.88 319.176V310.595C302.88 310.058 303.264 309.828 303.726 310.104L326.792 323.398C327.269 323.674 327.638 324.319 327.638 324.871V333.452C327.638 333.99 327.254 334.204 326.792 333.944Z" fill="#24282D"/>
<path d="M346.246 334.619V345.149L329.499 335.494C329.022 335.218 328.653 334.558 328.653 334.02V325.455C328.653 324.902 329.022 324.687 329.499 324.963L346.246 334.619Z" fill="#24282D"/>
</g>
<g opacity="0.7">
<path d="M322.025 210.54L298.958 197.246C298.481 196.97 298.112 196.325 298.112 195.772V187.191C298.112 186.654 298.497 186.424 298.958 186.7L322.025 199.994C322.486 200.27 322.871 200.915 322.871 201.467V210.048C322.871 210.586 322.486 210.801 322.025 210.54Z" fill="#24282D"/>
<path d="M309.169 191.689L286.103 178.395C285.641 178.119 285.257 177.474 285.257 176.922V168.341C285.257 167.803 285.641 167.573 286.103 167.849L309.169 181.143C309.631 181.419 310.015 182.064 310.015 182.617V191.198C310.03 191.75 309.646 191.965 309.169 191.689Z" fill="#24282D"/>
<path d="M334.943 206.548L311.876 193.255C311.399 192.978 311.03 192.334 311.03 191.781V183.2C311.03 182.663 311.415 182.448 311.876 182.709L334.943 196.003C335.419 196.279 335.789 196.924 335.789 197.476V206.057C335.789 206.595 335.419 206.809 334.943 206.548Z" fill="#24282D"/>
<path d="M322.025 187.498L298.958 174.205C298.497 173.928 298.112 173.284 298.112 172.731V164.15C298.112 163.613 298.497 163.398 298.958 163.659L322.025 176.952C322.501 177.229 322.871 177.873 322.871 178.426V187.007C322.871 187.544 322.486 187.775 322.025 187.498Z" fill="#24282D"/>
</g>
<g opacity="0.7">
<path d="M309.138 109.394L286.071 96.1006C285.61 95.8243 285.226 95.1795 285.226 94.6269V86.0459C285.226 85.5086 285.61 85.2784 286.071 85.5547L309.138 98.8483C309.599 99.1246 309.984 99.7694 309.984 100.322V108.903C309.984 109.44 309.599 109.671 309.138 109.394Z" fill="#24282D"/>
<path d="M296.283 90.559L273.216 77.2653C272.739 76.989 272.37 76.3443 272.37 75.7916V67.226C272.37 66.6887 272.755 66.4584 273.216 66.7348L296.283 80.0284C296.759 80.3047 297.128 80.9495 297.128 81.5021V90.0831C297.144 90.605 296.759 90.8199 296.283 90.559Z" fill="#24282D"/>
<path d="M322.056 105.403L298.989 92.1094C298.528 91.8331 298.144 91.1884 298.144 90.6357V82.0547C298.144 81.5175 298.528 81.2872 298.989 81.5635L322.056 94.8572C322.517 95.1335 322.902 95.7782 322.902 96.3308V104.912C322.902 105.449 322.533 105.679 322.056 105.403Z" fill="#24282D"/>
</g>
<g opacity="0.7">
<path d="M316.135 47.2855L293.068 33.9918C292.592 33.7155 292.223 33.0708 292.223 32.5182V23.9372C292.223 23.3999 292.607 23.185 293.068 23.4459L316.135 36.7396C316.596 37.0159 316.981 37.6606 316.981 38.2133V46.7943C316.981 47.3315 316.612 47.5618 316.135 47.2855Z" fill="#24282D"/>
<path d="M328.991 43.0948L305.924 29.8011C305.447 29.5248 305.078 28.8801 305.078 28.3274V19.7464C305.078 19.2092 305.463 18.9789 305.924 19.2552L328.991 32.5489C329.452 32.8252 329.836 33.4699 329.836 34.0225V42.6035C329.836 43.1408 329.452 43.3557 328.991 43.0948Z" fill="#24282D"/>
<path d="M316.135 24.2442L293.068 10.9505C292.607 10.6742 292.223 10.0295 292.223 9.47686V0.895842C292.223 0.358569 292.607 0.12831 293.068 0.404622L316.135 13.6983C316.596 13.9746 316.981 14.6193 316.981 15.1719V23.753C316.981 24.2902 316.612 24.5205 316.135 24.2442Z" fill="#24282D"/>
</g>
<g opacity="0.7">
<path d="M180.396 42.9106L157.329 29.6169C156.852 29.3406 156.483 28.6958 156.483 28.1432V19.5622C156.483 19.0249 156.868 18.81 157.329 19.071L180.396 32.3647C180.857 32.641 181.242 33.2857 181.242 33.8383V42.4193C181.242 42.9566 180.857 43.1869 180.396 42.9106Z" fill="#24282D"/>
<path d="M206.154 57.77L183.087 44.4763C182.61 44.2 182.241 43.5553 182.241 43.0027V34.4216C182.241 33.8844 182.626 33.6695 183.087 33.9304L206.154 47.2241C206.615 47.5004 206.999 48.1451 206.999 48.6978V57.2788C207.015 57.816 206.63 58.0309 206.154 57.77Z" fill="#24282D"/>
<path d="M193.237 38.7198L170.17 25.4262C169.709 25.1498 169.324 24.5051 169.324 23.9525V15.3715C169.324 14.8342 169.709 14.604 170.17 14.8803L193.237 28.1739C193.713 28.4502 194.082 29.095 194.082 29.6476V38.2286C194.082 38.7659 193.713 38.9808 193.237 38.7198Z" fill="#24282D"/>
<path d="M219.009 53.5639L195.942 40.2702C195.466 39.9939 195.097 39.3492 195.097 38.7966V30.2155C195.097 29.6783 195.481 29.448 195.942 29.7243L219.009 43.018C219.47 43.2943 219.855 43.939 219.855 44.4917V53.0727C219.855 53.6253 219.47 53.8402 219.009 53.5639Z" fill="#24282D"/>
</g>
<g opacity="0.7">
<path d="M9.25692 165.885L32.3236 152.591C32.8003 152.315 33.1694 151.67 33.1694 151.117V142.536C33.1694 141.999 32.7849 141.769 32.3236 142.045L9.25692 155.339C8.7802 155.615 8.41113 156.26 8.41113 156.812V165.393C8.41113 165.931 8.7802 166.146 9.25692 165.885Z" fill="#24282D"/>
<path d="M20.3285 138.346V146.911C20.3285 147.448 19.9441 148.109 19.4827 148.385L0.245117 159.468V148.938L19.4827 137.854C19.9441 137.578 20.3285 137.793 20.3285 138.346Z" fill="#24282D"/>
<path d="M9.25692 142.843L32.3236 129.55C32.8003 129.273 33.1694 128.629 33.1694 128.076V119.495C33.1694 118.958 32.7849 118.727 32.3236 119.004L9.25692 132.297C8.7802 132.574 8.41113 133.218 8.41113 133.771V142.352C8.41113 142.889 8.7802 143.104 9.25692 142.843Z" fill="#24282D"/>
</g>
<g opacity="0.7">
<path d="M22.1426 309.229L45.2093 295.935C45.686 295.659 46.0551 295.014 46.0551 294.462V285.881C46.0551 285.343 45.6706 285.113 45.2093 285.389L22.1426 298.683C21.6659 298.959 21.2969 299.604 21.2969 300.157V308.738C21.2969 309.29 21.6659 309.505 22.1426 309.229Z" fill="#24282D"/>
<path d="M35.0606 290.194L58.1273 276.9C58.604 276.624 58.9731 275.979 58.9731 275.427V266.846C58.9731 266.309 58.5886 266.094 58.1273 266.355L35.0606 279.648C34.5839 279.925 34.2148 280.569 34.2148 281.122V289.703C34.2148 290.24 34.5993 290.455 35.0606 290.194Z" fill="#24282D"/>
<path d="M9.28718 305.038L32.3538 291.745C32.8306 291.468 33.1996 290.824 33.1996 290.271V281.69C33.1996 281.153 32.8152 280.922 32.3538 281.199L9.28718 294.492C8.81047 294.769 8.44141 295.413 8.44141 295.966V304.547C8.44141 305.084 8.82584 305.315 9.28718 305.038Z" fill="#24282D"/>
<path d="M47.9165 271.344L70.9832 258.05C71.4445 257.774 71.829 257.129 71.829 256.576V247.995C71.829 247.458 71.4445 247.243 70.9832 247.504L47.9165 260.798C47.4398 261.074 47.0708 261.719 47.0708 262.271V270.852C47.0554 271.39 47.4398 271.62 47.9165 271.344Z" fill="#24282D"/>
<path d="M22.1426 286.203L45.2093 272.909C45.686 272.633 46.0551 271.988 46.0551 271.436V262.855C46.0551 262.317 45.6706 262.102 45.2093 262.363L22.1426 275.657C21.6659 275.933 21.2969 276.578 21.2969 277.131V285.712C21.2969 286.249 21.6659 286.464 22.1426 286.203Z" fill="#24282D"/>
</g>
<g opacity="0.7">
<path d="M59.2501 85.8617L82.3167 72.568C82.7935 72.2917 83.1625 71.647 83.1625 71.0943V62.5133C83.1625 61.9761 82.7781 61.7458 82.3167 62.0221L59.2501 75.3158C58.7887 75.5921 58.4043 76.2368 58.4043 76.7894V85.3705C58.4043 85.9077 58.7887 86.1226 59.2501 85.8617Z" fill="#24282D"/>
<path d="M46.3936 81.6556L69.4603 68.3619C69.9216 68.0856 70.3061 67.4409 70.3061 66.8883V58.3073C70.3061 57.77 69.9216 57.5397 69.4603 57.8161L46.3936 71.1097C45.9169 71.386 45.5479 72.0308 45.5479 72.5834V81.1644C45.5479 81.717 45.9323 81.9319 46.3936 81.6556Z" fill="#24282D"/>
<path d="M20.6363 96.515L43.7029 83.2214C44.1796 82.945 44.5487 82.3003 44.5487 81.7477V73.1667C44.5487 72.6294 44.1643 72.3992 43.7029 72.6755L20.6363 85.9691C20.1596 86.2454 19.7905 86.8902 19.7905 87.4428V96.0238C19.7751 96.5611 20.1596 96.776 20.6363 96.515Z" fill="#24282D"/>
<path d="M59.2501 62.8204L82.3167 49.5267C82.7935 49.2504 83.1625 48.6057 83.1625 48.053V39.472C83.1625 38.9347 82.7781 38.7045 82.3167 38.9808L59.2501 52.2745C58.7734 52.5508 58.4043 53.1955 58.4043 53.7481V62.3291C58.4043 62.8664 58.7887 63.0813 59.2501 62.8204Z" fill="#24282D"/>
<path d="M33.4766 77.6644L56.5433 64.3708C57.02 64.0945 57.3891 63.4497 57.3891 62.8971V54.3161C57.3891 53.7788 57.0046 53.5486 56.5433 53.8249L33.4766 67.1185C32.9999 67.3949 32.6309 68.0396 32.6309 68.5922V77.1732C32.6309 77.7259 33.0153 77.9408 33.4766 77.6644Z" fill="#24282D"/>
</g>
<g opacity="0.7">
<path d="M46.9014 209.02L69.9681 195.726C70.4448 195.45 70.8139 194.805 70.8139 194.253V185.672C70.8139 185.134 70.4294 184.919 69.9681 185.18L46.9014 198.474C46.4247 198.75 46.0557 199.395 46.0557 199.948V208.529C46.0557 209.081 46.4401 209.296 46.9014 209.02Z" fill="#24282D"/>
<path d="M59.7579 190.185L82.8246 176.891C83.2859 176.615 83.6703 175.97 83.6703 175.417V166.836C83.6703 166.299 83.2859 166.069 82.8246 166.345L59.7579 179.639C59.2812 179.915 58.9121 180.56 58.9121 181.112V189.693C58.9121 190.231 59.2812 190.461 59.7579 190.185Z" fill="#24282D"/>
<path d="M33.9844 205.029L57.0511 191.735C57.5124 191.459 57.8969 190.814 57.8969 190.261V181.68C57.8969 181.143 57.5124 180.928 57.0511 181.189L33.9844 194.483C33.5231 194.759 33.1387 195.404 33.1387 195.957V204.538C33.1387 205.09 33.5077 205.305 33.9844 205.029Z" fill="#24282D"/>
<path d="M46.9014 185.994L69.9681 172.7C70.4448 172.424 70.8139 171.779 70.8139 171.227V162.646C70.8139 162.108 70.4294 161.878 69.9681 162.154L46.9014 175.448C46.4247 175.724 46.0557 176.369 46.0557 176.922V185.503C46.0557 186.04 46.4401 186.255 46.9014 185.994Z" fill="#24282D"/>
</g>
<g opacity="0.2">
<path d="M243.307 384.447C266.356 384.447 285.042 373.678 285.042 360.393C285.042 347.108 266.356 336.338 243.307 336.338C220.257 336.338 201.571 347.108 201.571 360.393C201.571 373.678 220.257 384.447 243.307 384.447Z" fill="#1D1D1B"/>
</g>
<path opacity="0.2" d="M118.669 421.151L76.8571 445.236L35.0449 421.151L76.8571 397.05L118.669 421.151Z" fill="#1D1D1B"/>
<path opacity="0.2" d="M198.834 408.563L177.151 421.488L143.966 402.576L165.633 389.666L198.834 408.563Z" fill="#1D1D1B"/>
<path opacity="0.2" d="M324.009 401.978L257.9 440.201L222.254 419.646L288.363 381.438L324.009 401.978Z" fill="#1D1D1B"/>
<path d="M176.736 61.2853L171.385 64.3708L176.736 314.433L179.596 322.246L184.963 319.161V75.5L282.397 131.653V375.314L285.257 383.142L290.609 380.057L290.624 126.909L176.736 61.2853Z" fill="#A3773B"/>
<path d="M183.949 129.212L180.535 131.177C180.197 131.376 179.92 131.207 179.92 130.824V117.315C179.92 116.931 180.197 116.456 180.535 116.256L183.949 114.291C184.287 114.092 184.564 114.26 184.564 114.644V128.153C184.549 128.536 184.287 129.012 183.949 129.212Z" fill="#DADADA"/>
<path d="M183.949 271.344L180.535 273.308C180.197 273.508 179.92 273.339 179.92 272.955V259.447C179.92 259.063 180.197 258.587 180.535 258.388L183.949 256.423C184.287 256.223 184.564 256.392 184.564 256.776V270.284C184.549 270.683 184.287 271.159 183.949 271.344Z" fill="#DADADA"/>
<path d="M171.385 64.3708V317.518L179.596 322.246L179.612 78.5855L277.045 134.738L277.03 378.399L285.257 383.142V129.995L171.385 64.3708Z" fill="#EBAB55"/>
<path d="M179.72 327.205L59.6191 327.066L59.6345 78.2784L179.72 78.432V327.205Z" fill="#A3773B"/>
<path d="M179.72 327.205L59.6191 327.066L59.6345 81.4253L179.72 81.5788V327.205Z" fill="#EBAB55"/>
<path d="M207.477 152.084L208.968 154.648L211.413 153.236L209.891 150.703L207.477 152.084Z" fill="#85401F"/>
<path d="M203.709 135.767C204.17 136.243 204.539 136.918 204.678 137.578L207.123 150.242L207.277 150.964C207.384 151.516 207.815 152.054 208.245 152.207L211.121 153.236C211.367 153.328 211.552 153.19 211.567 152.898C211.582 152.56 211.582 152.207 211.598 151.869C211.644 148.446 210.967 142.413 210.383 139.604L203.709 135.767Z" fill="#85401F"/>
<path d="M201.264 137.194C201.725 137.67 202.094 138.346 202.232 139.006L204.678 151.67L204.831 152.391C204.939 152.944 205.37 153.481 205.8 153.635L208.676 154.663C208.922 154.755 209.106 154.617 209.122 154.326C209.137 153.988 209.137 153.635 209.152 153.297C209.199 149.874 208.522 143.841 207.938 141.032L201.264 137.194Z" fill="#B5572A"/>
<path d="M211.305 151.041C210.659 148.554 211.151 145.438 210.521 137.286C211.643 137.762 212.781 138.253 213.796 138.929C214.811 139.604 215.734 140.495 216.241 141.6C216.733 142.644 216.841 143.826 216.887 144.992C216.933 146.174 216.902 147.372 216.549 148.508C216.195 149.644 215.488 150.687 214.442 151.24C213.396 151.793 211.597 152.176 211.305 151.041Z" fill="#FFBB7D"/>
<path d="M207.691 141.431C207.707 141.416 207.707 141.4 207.722 141.385L207.691 141.431Z" fill="#FFDBA7"/>
<path d="M202.201 138.468C202.555 138.745 202.924 139.021 203.201 139.359C203.478 139.712 203.693 140.142 203.678 140.587C203.662 141.032 203.401 141.492 202.97 141.646C202.54 141.799 202.063 141.631 201.663 141.416C201.109 141.124 200.602 140.74 200.156 140.28C199.818 139.942 199.51 139.543 199.387 139.082C199.264 138.622 199.341 138.085 199.679 137.747C199.971 137.455 200.433 137.363 200.817 137.501C201.017 137.578 201.186 137.701 201.371 137.839C201.632 138.039 201.909 138.253 202.201 138.468Z" fill="#EBAC73"/>
<path d="M202.632 144.209C202.155 144.01 201.694 143.795 201.278 143.473C200.879 143.15 200.54 142.72 200.463 142.214C200.417 141.938 200.448 141.646 200.586 141.416C200.725 141.17 200.955 140.986 201.232 140.94C201.494 140.894 201.74 140.986 201.986 141.078C202.401 141.247 202.801 141.446 203.185 141.692C203.524 141.907 203.846 142.153 204.077 142.475C204.308 142.797 204.446 143.196 204.385 143.595C204.323 143.995 204.031 144.348 203.647 144.44C203.293 144.501 202.939 144.348 202.632 144.209Z" fill="#EBAC73"/>
<path d="M203.171 146.758C202.694 146.558 202.233 146.343 201.817 146.021C201.418 145.698 201.079 145.269 201.002 144.762C200.956 144.486 200.987 144.194 201.125 143.964C201.248 143.718 201.495 143.534 201.771 143.488C202.033 143.442 202.279 143.534 202.525 143.626C202.94 143.795 203.34 143.995 203.724 144.24C204.063 144.455 204.386 144.701 204.616 145.023C204.847 145.345 204.985 145.745 204.924 146.144C204.862 146.543 204.57 146.896 204.186 146.988C203.832 147.034 203.478 146.896 203.171 146.758Z" fill="#EBAC73"/>
<path d="M204.062 149.229C203.586 149.03 203.124 148.815 202.709 148.492C202.309 148.17 201.971 147.74 201.894 147.234C201.848 146.957 201.879 146.666 202.017 146.435C202.14 146.19 202.386 146.006 202.663 145.959C202.924 145.913 203.17 146.006 203.416 146.098C203.832 146.266 204.231 146.466 204.616 146.712C204.954 146.927 205.277 147.172 205.508 147.495C205.738 147.817 205.877 148.216 205.815 148.615C205.754 149.014 205.462 149.367 205.077 149.459C204.724 149.521 204.385 149.383 204.062 149.229Z" fill="#EBAC73"/>
<path d="M205.815 139.666C206.646 140.065 208.66 140.096 209.445 140.571C210.014 140.909 210.521 139.343 210.859 139.911C211.167 140.418 211.336 143.304 211.413 143.887C211.459 144.302 211.321 144.839 211.275 145.238C211.228 145.652 211.89 147.126 211.582 147.402C211.228 147.725 209.229 147.771 208.768 147.694C208.307 147.617 207.861 147.387 207.476 147.126C206.261 146.282 205.231 144.424 204.924 142.966C204.847 143.657 204.539 143.826 204.139 144.394C203.739 144.962 202.909 145.299 202.325 144.931C201.91 144.67 201.71 144.133 201.74 143.642C201.756 143.15 201.956 142.674 202.14 142.214C202.309 141.799 202.479 141.385 202.648 140.971C202.924 140.295 203.278 139.558 203.955 139.313C204.57 139.113 205.231 139.374 205.815 139.666Z" fill="#FFBB7D"/>
<path d="M180.842 119.817L181.426 118.789L184.548 120.6L183.963 121.629L180.842 119.817Z" fill="#3C3C3B"/>
<path d="M181.134 119.787C180.903 119.925 180.719 119.817 180.719 119.541C180.719 119.265 180.903 118.942 181.134 118.82C181.365 118.681 181.549 118.789 181.549 119.065C181.549 119.326 181.365 119.664 181.134 119.787Z" fill="#3C3C3B"/>
<path d="M184.256 121.598C184.025 121.736 183.841 121.629 183.841 121.352C183.841 121.091 184.025 120.754 184.256 120.631C184.487 120.493 184.671 120.6 184.671 120.876C184.671 121.137 184.487 121.46 184.256 121.598Z" fill="#575756"/>
<path d="M183.118 123.716L185.855 118.973L191.361 121.122L187.731 127.4L183.118 123.716Z" fill="#9D9D9C"/>
<path d="M184.486 123.578C183.425 124.192 182.549 123.701 182.549 122.458C182.549 121.23 183.41 119.725 184.486 119.111C185.548 118.497 186.424 118.988 186.424 120.232C186.424 121.46 185.548 122.964 184.486 123.578Z" fill="#9D9D9C"/>
<path d="M189.546 127.232C188.131 128.045 186.978 127.385 186.978 125.758C186.978 124.115 188.131 122.135 189.546 121.322C190.96 120.508 192.114 121.168 192.114 122.795C192.114 124.422 190.96 126.403 189.546 127.232Z" fill="#3C3C3B"/>
<path d="M189.038 127.124L191.775 122.396L199.664 126.955L196.942 131.699L189.038 127.124Z" fill="#DADADA"/>
<path d="M190.406 127.001C189.345 127.615 188.469 127.124 188.469 125.881C188.469 124.653 189.33 123.148 190.406 122.534C191.467 121.92 192.344 122.412 192.344 123.655C192.329 124.883 191.467 126.372 190.406 127.001Z" fill="#DADADA"/>
<path d="M198.295 131.561C197.234 132.175 196.357 131.683 196.357 130.44C196.357 129.212 197.219 127.708 198.295 127.094C199.356 126.479 200.233 126.971 200.233 128.214C200.233 129.442 199.371 130.947 198.295 131.561Z" fill="#9D9D9C"/>
<path d="M190.914 123.732L189.191 122.734L194.174 119.848L195.896 120.846L190.914 123.732Z" fill="#D66732"/>
<path d="M190.914 131.054L189.191 130.056V122.734L190.914 123.732V131.054Z" fill="#B5572A"/>
<path d="M190.914 131.054L195.896 128.168V120.846L190.914 123.732V131.054Z" fill="#85401F"/>
<path d="M195.405 127.447L198.265 132.251C198.604 132.451 207.261 141.984 207.261 141.984L211.275 139.666C211.275 139.666 211.044 138.668 210.89 138.146L209.86 134.278C209.722 133.725 209.722 133.234 209.86 132.865C209.968 132.574 210.152 132.374 210.398 132.267L210.537 132.205C210.721 132.129 210.798 131.868 210.721 131.545C210.706 131.515 210.706 131.484 210.69 131.453L210.629 131.254C210.583 131.115 210.521 130.977 210.444 130.854C210.26 130.532 210.014 130.256 209.737 130.102L202.556 125.958L195.39 121.813L191.376 124.131C194.39 126.925 194.575 127.938 195.405 127.447Z" fill="#D66732"/>
<path d="M207.261 141.984C207.138 141.385 207.031 140.986 206.877 140.464L205.846 136.596C205.708 136.043 205.708 135.552 205.846 135.183C205.954 134.892 206.139 134.692 206.385 134.585L206.523 134.523C206.708 134.446 206.785 134.186 206.708 133.863C206.692 133.832 206.692 133.802 206.677 133.771L206.615 133.571C206.569 133.433 206.508 133.295 206.431 133.172C206.246 132.85 206 132.574 205.723 132.42L198.542 128.276L191.376 124.131V128.398V129.795L194.236 134.6C194.605 134.784 194.897 134.938 207.261 141.984Z" fill="#B5572A"/>
<path d="M199.634 135.613C199.634 135.843 199.526 135.951 199.388 135.874C199.249 135.797 199.142 135.552 199.142 135.321V130.67C199.142 130.44 199.249 130.333 199.388 130.409C199.526 130.486 199.634 130.732 199.634 130.962V135.613Z" fill="#85401F"/>
<path d="M198.573 134.999C198.573 135.229 198.466 135.337 198.327 135.26C198.189 135.183 198.081 134.938 198.081 134.707V130.056C198.081 129.826 198.189 129.718 198.327 129.795C198.466 129.872 198.573 130.118 198.573 130.348V134.999Z" fill="#85401F"/>
<path d="M197.512 134.385C197.512 134.615 197.404 134.723 197.266 134.646C197.127 134.569 197.02 134.324 197.02 134.093V129.442C197.02 129.212 197.127 129.104 197.266 129.181C197.404 129.258 197.512 129.504 197.512 129.734V134.385Z" fill="#85401F"/>
<path d="M196.466 133.771C196.466 134.001 196.358 134.109 196.22 134.032C196.081 133.955 195.974 133.71 195.974 133.479V128.828C195.974 128.598 196.081 128.49 196.22 128.567C196.358 128.644 196.466 128.89 196.466 129.12V133.771Z" fill="#85401F"/>
<path d="M195.405 133.172C195.405 133.387 195.298 133.51 195.159 133.433C195.021 133.357 194.913 133.111 194.913 132.881V128.229C194.913 127.999 195.021 127.892 195.159 127.969C195.298 128.045 195.405 128.291 195.405 128.521V133.172Z" fill="#85401F"/>
<path d="M216.242 141.6C212.382 144.256 212.367 150.703 213.704 151.547C217.856 159.975 226.606 165.961 234.603 173.713L266.281 188.757C270.156 181.527 270.864 165.9 261.222 163.214L238.401 156.444C231.389 150.703 224.177 145.345 216.242 141.6Z" fill="#F3EDEB"/>
<path d="M239.446 135.06C239.2 134.953 230.404 130.44 230.404 130.44C225.775 127.047 217.441 128.444 215.088 132.574C214.165 134.186 214.888 136.872 218.394 137.532L225.898 139.497L239.446 135.06Z" fill="#457094"/>
<path d="M247.104 348.527C249.365 349.877 251.503 351.121 253.532 352.211C257.638 354.421 261.344 356.11 264.866 357.292C270.863 359.134 273.969 357.722 274.523 354.866C275.107 350.63 274.523 347.314 273.523 343.046L273.016 339.854L271.97 333.283L258.868 332.439H258.73L258.945 333.729V333.805L259.745 338.84L259.914 339.884L258.899 339.961L254.44 340.253L251.656 339.961C249.811 339.761 247.95 340.391 246.797 341.818C244.829 344.29 245.69 347.56 247.104 348.527Z" fill="#0A1214"/>
<path d="M211.92 367.178C218.686 371.215 224.422 374.147 229.681 375.943C232.157 376.695 234.141 376.895 235.648 376.664C237.785 376.342 239 375.16 239.308 373.487C239.907 369.25 239.308 365.934 238.308 361.667V352.702L232.096 351.981L224.422 351.059L224.637 356.877L224.714 358.505L219.224 358.873L216.41 358.581C214.596 358.382 212.72 359.042 211.582 360.469C209.644 362.941 210.49 366.211 211.92 367.178Z" fill="#0A1214"/>
<path d="M218.716 301.155C218.716 301.4 218.747 301.861 218.793 302.49C219.224 310.442 221.807 346.378 221.946 352.211C222.038 353.961 223.084 355.557 224.668 356.893C226.805 358.704 229.958 359.963 232.987 360.301C234.909 360.516 236.77 360.347 238.323 359.717C240.461 358.873 241.968 357.123 242.183 354.237C240.461 317.181 242.844 340.406 241.06 302.935L244.828 283.271L247.381 269.855C253.27 239.092 252.517 243.006 252.871 241.21C250.41 241.425 226.482 239.245 225.267 239.353C225.114 241.087 218.947 297.777 218.778 299.512C218.716 300.049 218.701 300.602 218.716 301.155Z" fill="#5386B1"/>
<path d="M238.508 240.397L239.999 245.677L243.075 269.793H243.106L244.828 283.286L246.427 295.828C247.857 303.135 250.533 320.481 255.531 333.944C256.023 335.663 257.33 337.213 259.099 338.395C259.314 338.564 259.529 338.702 259.76 338.825C263.789 341.266 269.617 342.064 273.031 339.838C275.045 338.549 276.23 336.154 275.707 332.424C274.661 327.527 269.571 298.729 267.403 288.659C265.926 258.833 265.157 256.592 266.326 254.089C270.048 241.932 265.711 229.774 264.835 227.272C259.621 226.673 268.341 229.267 238.508 240.397Z" fill="#5386B1"/>
<path d="M266.049 222.191C266.265 224.14 266.372 228.331 264.973 230.081C259.083 237.403 241.537 242.684 231.188 241.978C227.866 241.747 225.283 240.903 224.13 239.307C223.945 239.092 223.822 238.908 223.714 238.693C223.699 238.677 223.699 238.631 223.684 238.616C219.885 230.849 218.363 219.428 216.41 205.198C216.087 202.956 215.779 200.654 215.441 198.259C215.303 197.215 215.149 196.156 214.98 195.097C214.903 194.606 214.826 194.13 214.749 193.639C214.534 192.272 214.334 190.906 214.103 189.494C213.796 187.698 213.488 185.84 213.165 183.983C212.443 179.884 211.643 175.648 210.689 171.288C215.533 169.108 219.009 168.049 222.423 166.99C225.498 166.023 228.497 165.071 232.418 163.382C237.647 161.878 247.765 160.804 247.765 160.804C247.765 160.804 252.363 161.51 256.254 162.124C258.084 162.385 259.729 162.676 260.683 162.861C268.156 166.545 266.049 194.038 266.049 222.191Z" fill="#5386B1"/>
<path opacity="0.3" d="M246.781 341.818C244.813 344.29 245.69 347.56 247.104 348.527C249.365 349.877 251.502 351.121 253.532 352.211C256.223 347.421 258.315 343.031 258.899 339.961L254.439 340.253L251.656 339.961C249.795 339.761 247.935 340.391 246.781 341.818Z" fill="#1D1D1B"/>
<path opacity="0.3" d="M258.945 333.729C258.914 333.314 258.899 332.884 258.868 332.439C258.437 325.854 258.914 319.023 257.023 312.698C250.502 290.9 248.103 270.822 250.087 264.789C255.992 263.131 260.959 257.804 262.113 252.032C259.175 260.813 244.49 265.157 235.771 260.138C238.692 264.436 244.228 265.127 247.873 265.127C247.335 269.394 246.212 273.477 244.813 283.271C244.951 284.33 246.412 295.812 246.412 295.812C247.842 303.119 250.518 320.466 255.516 333.928C256.008 335.647 257.315 337.198 259.083 338.38V338.211C259.052 336.737 259.006 335.264 258.945 333.775V333.729Z" fill="#1D1D1B"/>
<path opacity="0.3" d="M249.903 223.45C249.688 229.897 249.273 236.498 246.689 242.408C249.627 240.366 252.902 238.831 256.362 237.894C249.95 220.456 254.378 200.608 248.842 182.862C249.98 196.34 250.334 209.91 249.903 223.45Z" fill="#1D1D1B"/>
<path d="M222.438 166.974C227.959 169.001 231.404 175.801 231.911 184.09L259.899 179.27C260.606 173.406 258.945 165.593 256.254 162.108C252.348 161.479 247.75 160.788 247.75 160.788C247.75 160.788 237.632 161.863 232.403 163.352C228.513 165.056 225.514 166.007 222.438 166.974Z" fill="#F3EDEB"/>
<path d="M244.291 145.637C244.168 147.832 244.045 150.027 243.552 152.161C243.06 154.295 242.168 156.383 240.677 157.994C239.001 159.806 236.602 160.896 234.141 161.034C233.372 161.08 232.588 161.034 231.835 160.88C231.081 160.727 230.328 160.481 229.697 160.021C228.728 159.315 228.175 158.194 227.775 157.043C227.775 157.043 227.775 157.043 227.775 157.027C227.683 156.766 227.606 156.505 227.529 156.26C225.791 150.319 225.53 144.041 225.914 137.854C225.976 136.933 226.053 136.012 226.329 135.137C227.175 132.558 229.835 130.854 232.527 130.517C235.233 130.179 237.955 130.993 240.415 132.159C241.092 132.482 241.769 132.835 242.307 133.357C242.814 133.848 243.183 134.477 243.66 135.014C244.26 135.659 244.46 142.352 244.291 145.637Z" fill="#FFBB7D"/>
<path opacity="0.1" d="M234.602 155.861C234.602 157.181 234.571 158.501 234.541 159.821C234.541 160.097 234.525 160.404 234.402 160.65C234.341 160.788 234.248 160.911 234.141 161.003C233.372 161.049 232.588 161.003 231.834 160.85C231.081 160.696 230.327 160.45 229.697 159.99C228.728 159.284 228.174 158.163 227.774 157.012C227.774 157.012 227.774 157.012 227.774 156.997C230.312 159.453 231.942 157.365 232.541 150.396C232.987 153.681 234.602 152.576 234.602 155.861Z" fill="#1D1D1B"/>
<path d="M247.874 144.517H232.542V164.319H247.874V144.517Z" fill="#FFBB7D"/>
<path d="M245.675 160.635C248.673 162.369 248.673 165.163 245.675 166.898C242.676 168.632 237.801 168.632 234.803 166.898C231.804 165.163 231.804 162.369 234.803 160.635C237.801 158.9 242.661 158.9 245.675 160.635Z" fill="#FFBB7D"/>
<path d="M229.098 139.221C231.358 140.525 232.373 142.981 232.604 145.576C232.85 148.17 232.45 150.795 232.696 153.389C232.927 155.983 233.942 158.731 236.187 160.051C237.755 160.972 239.678 161.064 241.508 161.049C243.907 161.018 247.059 160.88 247.966 158.67C260.007 129.442 241.492 127.462 239.324 127.278C231.65 126.618 225.776 131.898 225.915 137.44C225.945 138.499 228.313 138.775 229.098 139.221Z" fill="#0A1214"/>
<path d="M233.188 144.517C232.342 144.547 231.727 145.299 231.481 146.052C231.158 146.973 231.189 147.955 231.204 148.922C231.235 150.15 231.281 151.424 231.881 152.499C232.05 152.791 232.265 153.067 232.588 153.19C233.08 153.374 233.68 153.113 234.018 152.729C234.356 152.33 234.479 151.823 234.572 151.348C234.864 149.935 234.987 148.508 234.956 147.08C234.941 146.512 234.895 145.929 234.633 145.422C234.372 144.9 233.818 144.486 233.188 144.517Z" fill="#FFBB7D"/>
<path d="M210.689 171.273C213.996 190.323 212.873 180.084 216.395 205.198C223.438 204.752 224.791 196.647 223.392 180.053C222.438 169.922 216.81 169.016 210.689 171.273Z" fill="#F3EDEB"/>
<path d="M227.851 127.8C229.62 124.944 234.264 123.901 237.816 124.376C244.429 125.267 249.411 127.677 251.133 134.232C251.548 135.828 251.933 136.964 252.01 139.911C252.041 141.17 249.165 142.122 247.95 142.337C231.788 145.069 225.575 137.67 225.745 136.672C226.067 134.477 226.698 129.672 227.851 127.8Z" fill="#5386B1"/>
<path d="M232.049 141.431L218.409 137.532L226.067 134.508C226.206 136.964 229.327 139.85 232.049 141.431Z" fill="#457094"/>
<path d="M175.03 151.225C174.507 151.639 174.307 152.652 174.907 153.358L177.644 156.137L180.581 161.034L180.735 161.295L182.827 159.115L180.397 154.878L175.768 151.087C175.507 150.994 175.23 151.056 175.03 151.225Z" fill="#FFBB7D"/>
<path opacity="0.1" d="M175.03 151.225C174.507 151.639 174.307 152.652 174.907 153.358L177.644 156.137L180.581 161.034L180.812 160.804L179.136 156.091C177.045 154.51 174.815 152.898 175.03 151.225Z" fill="#1D1D1B"/>
<path d="M172.8 152.744C172.354 153.19 172.185 154.141 172.769 154.801L175.506 157.58L178.613 162.738L180.981 161.065L178.259 156.321L173.63 152.53C173.307 152.422 173.015 152.514 172.8 152.744Z" fill="#FFBB7D"/>
<path d="M185.578 156.352C185.04 156.444 184.487 156.828 184.164 157.503C183.179 159.1 182.595 160.819 182.272 162.646L181.795 163.766L180.55 166.729L183.733 168.433L184.317 168.74L184.994 169.108L185.24 165.931C185.332 162.676 185.671 160.189 186.839 157.549C186.993 156.628 186.316 156.214 185.578 156.352Z" fill="#FFBB7D"/>
<path opacity="0.1" d="M185.579 156.352C185.041 156.444 184.487 156.828 184.164 157.503C183.18 159.1 182.596 160.819 182.273 162.646L181.796 163.766L183.718 168.433L184.195 169.584C184.241 169.308 184.272 169.031 184.302 168.74C184.856 164.043 183.657 159.575 185.579 156.352Z" fill="#1D1D1B"/>
<path d="M182.842 159.115L176.629 163.889L174.722 165.347L174.292 165.685C173.738 169.154 175.537 171.795 178.09 173.775L179.905 177.459C180.751 177.705 181.735 177.566 182.673 177.183C184.826 176.308 186.794 174.189 186.379 172.7C185.133 170.766 184.718 168.479 184.718 166.023C184.287 163.183 183.765 160.573 182.842 159.115Z" fill="#FFBB7D"/>
<path opacity="0.1" d="M172.8 152.744C172.354 153.19 172.185 154.141 172.769 154.801L175.506 157.58L178.613 162.738L179.012 162.446L176.629 157.703C174.538 156.137 172.6 154.418 172.831 152.744C172.815 152.744 172.8 152.744 172.8 152.744Z" fill="#1D1D1B"/>
<path d="M170.954 155.032C170.662 154.97 170.401 155.062 170.216 155.262C169.755 155.738 169.678 156.751 170.355 157.38L173.384 159.852L176.69 164.196L177.029 164.641L179.212 162.707L175.983 158.301L170.954 155.032Z" fill="#FFBB7D"/>
<path opacity="0.1" d="M170.201 155.262C169.74 155.738 169.663 156.751 170.324 157.38L173.354 159.852L176.66 164.196L176.768 164.119L174.2 159.698C172.124 158.117 169.986 156.935 170.201 155.262Z" fill="#1D1D1B"/>
<path d="M170.155 158.516C169.878 158.44 169.617 158.532 169.432 158.716C169.002 159.146 168.894 160.067 169.478 160.681L172.2 163.121L174.291 165.685L175.337 166.959L175.66 167.343L177.921 165.286L176.644 163.874L174.722 161.771L170.155 158.516Z" fill="#FFBB7D"/>
<path opacity="0.1" d="M169.432 158.716C169.002 159.146 168.894 160.067 169.478 160.681L172.2 163.121L174.291 165.685C173.738 169.154 175.537 171.795 178.09 173.775L179.904 177.459C180.75 177.705 181.734 177.566 182.672 177.183C180.396 176.86 179.412 175.387 179.228 173.729C176.86 171.442 175.276 169.185 175.322 166.974C175.322 166.729 175.353 166.483 175.399 166.222L174.707 165.347L172.631 162.692C170.555 161.141 169.217 160.389 169.432 158.716Z" fill="#1D1D1B"/>
<path d="M222.424 189.97C221.316 191.582 220.163 193.147 218.887 194.636C217.81 195.91 216.642 197.123 215.411 198.274C211.705 201.774 207.307 204.752 201.879 206.994C193.406 208.667 187.331 195.296 180.35 180.13C180.027 179.501 179.842 178.856 179.766 178.211C179.227 174.036 183.349 170.137 186.332 170.551L200.972 184.628L210.69 171.257C218.41 168.264 225.73 177.06 222.424 189.97Z" fill="#F3EDEB"/>
<path d="M71.6134 203.448C71.6134 210.77 70.6908 216.711 69.5528 216.711C68.4148 216.711 67.4922 210.77 67.4922 203.448C67.4922 196.125 68.4148 190.185 69.5528 190.185C70.6908 190.185 71.6134 196.125 71.6134 203.448Z" fill="#EDEDED"/>
<path opacity="0.15" d="M225.253 239.368L223.7 238.708C223.685 238.693 223.685 238.647 223.669 238.631C219.871 230.864 218.349 219.443 216.396 205.213C216.073 202.972 215.765 200.669 215.427 198.274C211.721 201.774 207.323 204.752 201.894 206.994C193.421 208.667 187.347 195.296 180.366 180.13C180.043 179.501 179.858 178.856 179.781 178.211C186.348 190.338 192.975 203.57 200.249 203.448C205.093 202.803 210.46 198.796 214.75 193.654C216.688 191.336 218.395 188.788 219.748 186.178C219.318 188.941 219.025 191.75 218.918 194.636C218.195 208.498 220.717 223.557 225.253 239.368Z" fill="#1D1D1B"/>
<path d="M48.6084 387.333L77.7031 370.524V367.024L48.6084 383.848V387.333Z" fill="#AFB09A"/>
<path d="M45.5635 382.098L74.6736 365.274L77.703 367.024L48.6083 383.848L45.5635 382.098Z" fill="#DADBC0"/>
<path d="M105.322 387.333L76.2275 370.524V367.024L105.322 383.848V387.333Z" fill="#AFB09A"/>
<path d="M108.367 382.098L79.257 365.274L76.2275 367.024L105.322 383.848L108.367 382.098Z" fill="#DADBC0"/>
<path d="M43.6416 423.929L48.624 421.058V367.807L43.6416 370.678V423.929Z" fill="#969684"/>
<path d="M38.6592 421.058L43.6416 423.929V370.678L38.6592 367.807V421.058Z" fill="#AFB09A"/>
<path d="M108.366 423.929L113.349 421.058V367.807L108.366 370.678V423.929Z" fill="#969684"/>
<path d="M103.384 421.058L108.366 423.929V370.678L103.384 367.807V421.058Z" fill="#AFB09A"/>
<path d="M38.6592 360.193L75.9964 381.715L113.349 360.193L75.9964 338.671L38.6592 360.193Z" fill="#DADBC0"/>
<path d="M75.9961 389.329L113.349 367.822V360.193L75.9961 381.715V389.329Z" fill="#969684"/>
<path d="M38.6592 367.822L75.9964 389.329V381.715L38.6592 360.193V367.822Z" fill="#AFB09A"/>
<path d="M78.1797 409.039L107.29 392.215V388.715L78.1797 405.539V409.039Z" fill="#969684"/>
<path d="M75.1504 403.789L104.245 386.965L107.29 388.715L78.1798 405.539L75.1504 403.789Z" fill="#DADBC0"/>
<path d="M73.8279 409.039L44.7178 392.215V388.715L73.8279 405.539V409.039Z" fill="#AFB09A"/>
<path d="M76.8573 403.789L47.7626 386.965L44.7178 388.715L73.8279 405.539L76.8573 403.789Z" fill="#DADBC0"/>
<path d="M75.9961 442.58L80.9785 439.709V386.458L75.9961 389.329V442.58Z" fill="#969684"/>
<path d="M71.0293 439.709L75.9963 442.58V389.329L71.0293 386.458V439.709Z" fill="#AFB09A"/>
<path d="M159.482 360.347C159.528 360.362 159.559 360.393 159.605 360.408L161.358 361.421L160.62 362.711C160.804 368.145 163.418 370.893 168.062 371.721L169.969 372.827L168.585 375.221L167.709 374.715L165.633 392L150.301 403.037L148.394 401.932L145.949 384.478C150.593 378.292 153.208 372.535 153.392 366.886C153.392 364.583 155.007 361.79 157.006 360.638C157.944 360.101 158.805 360.024 159.451 360.331L159.482 360.347Z" fill="#85401F"/>
<path d="M158.897 361.728C160.896 360.577 162.511 361.513 162.511 363.816C162.696 369.25 165.31 371.998 169.954 372.827L167.509 393.105L150.27 403.037L147.825 385.583C152.469 379.397 155.084 373.64 155.268 367.991C155.283 365.673 156.898 362.88 158.897 361.728Z" fill="#B5572A"/>
<path d="M156.944 366.794C156.944 368.037 157.821 368.544 158.897 367.914C159.974 367.285 160.85 365.781 160.85 364.537C160.85 363.294 159.974 362.787 158.897 363.417C157.821 364.031 156.944 365.55 156.944 366.794Z" fill="#CC513B"/>
<path d="M147.825 385.583L148.363 401.932L177.151 418.526L172.799 399.967L147.825 385.583Z" fill="#85401F"/>
<path d="M169.954 372.827C161.019 369.112 154.115 375.774 147.825 385.583L172.799 399.982C180.242 390.971 187.638 385.061 194.927 387.226L169.954 372.827Z" fill="#D66732"/>
<path d="M156.944 366.794C156.944 368.037 157.821 368.544 158.897 367.914C159.974 367.285 160.85 365.781 160.85 364.537C160.85 363.294 159.974 362.787 158.897 363.417C157.821 364.031 156.944 365.55 156.944 366.794Z" fill="#85401F"/>
<path d="M160.272 363.286L157.504 368.072L184.391 383.568L187.159 378.783L160.272 363.286Z" fill="#85401F"/>
<path d="M186.362 375.835C186.408 375.851 186.438 375.881 186.485 375.897L188.238 376.91L187.499 378.199C187.684 383.634 190.298 386.381 194.942 387.21L196.849 388.316L195.465 390.71L194.589 390.204L192.513 407.488L177.181 418.526L175.274 417.42L172.829 399.967C177.473 393.78 180.087 388.024 180.272 382.375C180.272 380.072 181.887 377.278 183.886 376.127C184.824 375.59 185.685 375.513 186.331 375.82L186.362 375.835Z" fill="#85401F"/>
<path d="M185.777 377.217C187.776 376.066 189.391 377.002 189.391 379.305C189.575 384.739 192.19 387.487 196.834 388.316L194.389 408.594L177.15 418.526L174.705 401.072C179.349 394.886 181.963 389.129 182.148 383.48C182.163 381.177 183.778 378.368 185.777 377.217Z" fill="#B5572A"/>
<path d="M183.824 382.283C183.824 383.526 184.701 384.033 185.777 383.403C186.854 382.774 187.73 381.27 187.73 380.026C187.73 378.783 186.854 378.276 185.777 378.906C184.701 379.52 183.824 381.039 183.824 382.283Z" fill="#85401F"/>
<path d="M161.343 389.267L157.944 392.322V390.787L161.343 389.267Z" fill="#9D9D9C"/>
<path d="M160.866 392.997L161.481 396.912L159.974 393.212L160.866 392.997Z" fill="#878787"/>
<path d="M159.266 392.092L159.881 396.006L158.374 392.291L159.266 392.092Z" fill="#878787"/>
<path d="M159.881 396.006L161.48 396.912L159.973 393.212L158.374 392.291L159.881 396.006Z" fill="#B2B2B2"/>
<path d="M164.049 390.864L160.65 393.919V392.383L164.049 390.864Z" fill="#9D9D9C"/>
<path d="M157.944 392.322L160.651 393.919V392.383L157.944 390.787V392.322Z" fill="#C6C6C6"/>
<path d="M160.651 392.383L164.049 390.864L161.343 389.267L157.944 390.787L160.651 392.383Z" fill="#EDEDED"/>
<path d="M71.8903 345.364L55.2669 354.943L49.4541 351.612V345.426L71.8903 339.193V345.364Z" fill="#575756"/>
<path d="M71.8903 339.193L55.2669 348.772L49.4541 345.426L61.8947 338.257L69.3837 337.75L71.8903 339.193Z" fill="#878787"/>
<path d="M65.5943 344.262L62.2881 349.978L100.255 371.861L103.561 366.144L65.5943 344.262Z" fill="#D66732"/>
<path d="M66.293 345.764C66.293 344.275 65.2473 343.676 63.9556 344.413C62.6639 345.165 61.6182 346.961 61.6182 348.465C61.6182 349.954 62.6639 350.553 63.9556 349.816C65.2319 349.064 66.293 347.253 66.293 345.764Z" fill="#D66732"/>
<path d="M104.245 367.638C104.245 366.149 103.199 365.551 101.908 366.287C100.616 367.04 99.5703 368.836 99.5703 370.34C99.5703 371.829 100.616 372.428 101.908 371.691C103.199 370.939 104.245 369.127 104.245 367.638Z" fill="#85401F"/>
<path d="M290.271 409.438L312.43 386.642V385.936L280.044 367.991L257.9 390.787L290.271 409.438Z" fill="#477296"/>
<path d="M290.27 408.732L257.9 427.383L225.515 408.732L257.9 390.065L290.27 408.732Z" fill="#DADBC0"/>
<path d="M257.9 401.947L279.322 414.304L288.994 408.732L257.9 390.802L226.791 408.732L236.464 414.304L257.9 401.947Z" fill="#3D6282"/>
<path d="M290.271 408.732L312.43 385.936L280.044 367.27L257.9 390.065L290.271 408.732Z" fill="#DADBC0"/>
<path d="M264.585 402.546L260.363 404.979L264.085 411.413L268.306 408.98L264.585 402.546Z" fill="#3C3C3B"/>
<path d="M263.836 404.265C263.836 402.592 265.02 401.901 266.466 402.745C267.926 403.589 269.095 405.616 269.095 407.304C269.095 408.978 267.911 409.668 266.466 408.824C265.005 407.98 263.836 405.938 263.836 404.265Z" fill="#3C3C3B"/>
<path d="M259.607 406.69C259.607 405.017 260.791 404.326 262.237 405.171C263.698 406.015 264.867 408.041 264.867 409.73C264.867 411.403 263.683 412.094 262.237 411.249C260.791 410.405 259.607 408.363 259.607 406.69Z" fill="#9D9D9C"/>
<path d="M260.8 405.989L257.817 407.708L260.455 412.268L263.438 410.549L260.8 405.989Z" fill="#DADADA"/>
<path d="M260.269 407.197C260.269 406.015 261.099 405.524 262.129 406.122C263.16 406.721 263.99 408.164 263.99 409.346C263.99 410.528 263.16 411.019 262.129 410.42C261.099 409.822 260.269 408.394 260.269 407.197Z" fill="#DADADA"/>
<path d="M257.285 408.916C257.285 407.734 258.116 407.243 259.146 407.842C260.176 408.44 261.007 409.883 261.007 411.065C261.007 412.247 260.176 412.738 259.146 412.14C258.116 411.541 257.285 410.113 257.285 408.916Z" fill="#9D9D9C"/>
<path d="M258.386 408.792L256.269 410.012L257.683 412.458L259.801 411.238L258.386 408.792Z" fill="#DADADA"/>
<path d="M258.1 409.453C258.1 408.824 258.546 408.563 259.099 408.885C259.653 409.208 260.099 409.975 260.099 410.605C260.099 411.234 259.653 411.495 259.099 411.173C258.546 410.85 258.1 410.083 258.1 409.453Z" fill="#DADADA"/>
<path d="M255.993 410.666C255.993 410.037 256.439 409.776 256.993 410.098C257.546 410.42 257.992 411.188 257.992 411.817C257.992 412.447 257.546 412.708 256.993 412.385C256.439 412.078 255.993 411.295 255.993 410.666Z" fill="#9D9D9C"/>
<path d="M256.978 409.714C257.024 409.745 257.054 409.76 257.101 409.791C257.331 409.945 257.562 410.175 257.731 410.42C257.854 410.589 257.962 410.789 258.054 410.973C258.192 411.295 258.285 411.633 258.285 411.94C258.285 411.956 258.285 411.971 258.285 411.986C258.285 412.17 258.254 412.324 258.208 412.447C258.131 412.662 257.992 412.8 257.823 412.877C257.716 412.923 257.608 412.938 257.485 412.923C257.377 412.907 257.254 412.877 257.116 412.815C257.07 412.8 257.024 412.769 256.962 412.738C256.67 412.57 256.409 412.309 256.193 412.002C256.086 411.848 255.993 411.679 255.901 411.51C255.793 411.295 255.717 411.065 255.686 410.85C255.655 410.712 255.64 410.589 255.64 410.451C255.64 410.42 255.64 410.39 255.64 410.359C255.655 410.144 255.701 409.96 255.793 409.822C255.84 409.745 255.886 409.699 255.947 409.638C256.209 409.484 256.578 409.484 256.978 409.714Z" fill="#3C3C3B"/>
<path d="M255.963 409.668L257.839 412.907L257.639 412.984L256.901 413.291L254.563 414.258L253.148 411.817L253.656 411.434L254.84 410.528L255.701 409.868L255.963 409.668Z" fill="#3C3C3B"/>
<path d="M253.856 411.894C253.933 411.94 253.994 411.986 254.071 412.032C254.194 412.14 254.317 412.263 254.425 412.416C254.548 412.6 254.671 412.8 254.733 412.999C254.794 413.153 254.84 413.322 254.856 413.475C254.856 413.521 254.856 413.567 254.856 413.613C254.856 414.243 254.41 414.504 253.856 414.181C253.302 413.859 252.856 413.091 252.856 412.462C252.856 411.833 253.302 411.572 253.856 411.894Z" fill="#9D9D9C"/>
<path d="M254.071 412.032C254.656 411.741 255.286 411.587 255.932 411.541C256.316 411.51 256.716 411.526 257.101 411.587C257.516 411.648 257.931 411.771 258.316 411.956C258.316 411.971 258.316 411.986 258.316 412.002C258.316 412.186 258.285 412.339 258.239 412.462C257.977 412.339 257.716 412.232 257.424 412.17C257.024 412.063 256.624 412.017 256.209 412.032C255.594 412.032 254.979 412.17 254.41 412.416C254.317 412.278 254.194 412.14 254.071 412.032Z" fill="#575756"/>
<path d="M254.84 410.528C255.117 410.467 255.378 410.42 255.655 410.39C255.886 410.359 256.116 410.344 256.347 410.344C256.808 410.328 257.27 410.359 257.731 410.436C257.854 410.605 257.962 410.804 258.054 410.988C257.577 410.881 257.101 410.835 256.624 410.82C256.316 410.82 255.993 410.835 255.686 410.866C254.979 410.942 254.286 411.142 253.641 411.418L254.84 410.528Z" fill="#575756"/>
<path d="M254.732 412.999C255.501 412.723 256.347 412.662 257.131 412.846C257.254 412.877 257.377 412.907 257.5 412.953C257.547 412.969 257.593 412.984 257.639 412.999L256.901 413.306C256.224 413.184 255.501 413.245 254.855 413.491C254.84 413.322 254.794 413.153 254.732 412.999Z" fill="#575756"/>
<path d="M255.978 409.668C256.224 409.469 256.578 409.469 256.993 409.714C257.039 409.745 257.07 409.76 257.116 409.791C256.762 409.76 256.409 409.776 256.071 409.822C255.994 409.822 255.901 409.837 255.824 409.852C255.794 409.852 255.748 409.868 255.717 409.868L255.978 409.668Z" fill="#575756"/>
<path d="M253.21 412.677C253.21 412.263 253.502 412.094 253.871 412.293C254.24 412.493 254.517 412.999 254.517 413.414C254.517 413.828 254.225 413.997 253.856 413.798C253.502 413.598 253.21 413.091 253.21 412.677Z" fill="#DADADA"/>
<path d="M262.375 407.55C262.621 407.412 262.929 407.489 263.067 407.734C263.206 407.98 263.129 408.287 262.883 408.425L261.514 409.208C261.268 409.346 260.961 409.269 260.822 409.024C260.684 408.778 260.761 408.471 261.007 408.333L262.375 407.55Z" fill="#9D9D9C"/>
<path d="M253.502 412.846C253.502 412.616 253.671 412.523 253.871 412.631C254.071 412.738 254.24 413.03 254.225 413.26C254.225 413.491 254.056 413.583 253.856 413.475C253.656 413.352 253.487 413.076 253.502 412.846Z" fill="#3C3C3B"/>
<path d="M273.236 407.369L270.386 409.012L272.9 413.359L275.75 411.716L273.236 407.369Z" fill="#3C3C3B"/>
<path d="M274.507 411.587C275.492 412.155 276.276 411.695 276.276 410.559C276.276 409.423 275.476 408.056 274.507 407.488C273.523 406.921 272.739 407.381 272.724 408.517C272.724 409.638 273.523 411.019 274.507 411.587Z" fill="#3C3C3B"/>
<path d="M271.663 413.23C272.647 413.798 273.431 413.337 273.431 412.201C273.431 411.065 272.632 409.699 271.663 409.131C270.679 408.563 269.879 409.024 269.879 410.159C269.879 411.28 270.679 412.662 271.663 413.23Z" fill="#DADADA"/>
<path d="M270.505 409.766L268.494 410.925L270.27 413.996L272.281 412.837L270.505 409.766Z" fill="#9D9D9C"/>
<path d="M271.402 412.769C272.094 413.168 272.663 412.846 272.663 412.048C272.663 411.249 272.094 410.282 271.402 409.883C270.71 409.484 270.141 409.806 270.141 410.605C270.156 411.403 270.71 412.37 271.402 412.769Z" fill="#9D9D9C"/>
<path d="M269.403 413.936C270.095 414.335 270.664 414.013 270.664 413.214C270.664 412.416 270.095 411.449 269.403 411.05C268.711 410.651 268.142 410.973 268.142 411.771C268.142 412.554 268.695 413.521 269.403 413.936Z" fill="#DADADA"/>
<path d="M268.849 411.678L266.093 413.267L267.046 414.916L269.803 413.327L268.849 411.678Z" fill="#9D9D9C"/>
<path d="M269.326 413.291C269.695 413.506 270.003 413.337 270.003 412.907C270.003 412.477 269.695 411.955 269.326 411.741C268.957 411.526 268.649 411.695 268.649 412.124C268.649 412.554 268.957 413.076 269.326 413.291Z" fill="#9D9D9C"/>
<path d="M266.573 414.872C266.942 415.087 267.25 414.918 267.25 414.488C267.25 414.059 266.942 413.537 266.573 413.322C266.204 413.107 265.896 413.276 265.896 413.705C265.912 414.151 266.204 414.657 266.573 414.872Z" fill="#DADADA"/>
<path d="M264.709 410.942L262.672 412.116L266.355 418.484L268.392 417.309L264.709 410.942Z" fill="#3C3C3B"/>
<path d="M264.728 410.927C265.143 410.697 265.666 410.697 266.265 410.958C266.358 411.004 266.45 411.05 266.558 411.111C266.665 411.173 266.773 411.234 266.865 411.311C267.065 411.449 267.25 411.618 267.434 411.802C267.557 411.925 267.68 412.063 267.803 412.201C267.957 412.385 268.095 412.57 268.218 412.769C268.311 412.907 268.403 413.061 268.48 413.214C268.603 413.445 268.71 413.675 268.803 413.905C268.864 414.043 268.91 414.197 268.957 414.335C269.033 414.611 269.095 414.887 269.126 415.164C269.141 415.302 269.156 415.455 269.156 415.594C269.156 415.609 269.156 415.609 269.156 415.624C269.156 415.87 269.126 416.085 269.08 416.284C269.049 416.407 269.018 416.515 268.972 416.622C268.88 416.837 268.772 417.006 268.618 417.144C268.557 417.205 268.48 417.267 268.403 417.313H268.388C268.357 417.328 268.341 417.344 268.311 417.344C267.849 417.574 267.219 417.512 266.542 417.129C265.097 416.3 263.943 414.289 263.943 412.631C263.943 412.431 263.959 412.247 263.989 412.078C264.02 411.925 264.051 411.802 264.112 411.679C264.266 411.326 264.466 411.081 264.728 410.927Z" fill="#3C3C3B"/>
<path d="M263.605 411.956C263.744 411.971 263.913 412.017 264.066 412.078C264.205 412.14 264.374 412.201 264.528 412.293C264.574 412.324 264.635 412.355 264.666 412.385C264.774 412.447 264.881 412.523 264.989 412.616C265.158 412.738 265.312 412.892 265.466 413.045C265.543 413.122 265.635 413.23 265.712 413.306C265.881 413.491 266.035 413.705 266.173 413.92C266.235 414.012 266.296 414.12 266.358 414.212C266.465 414.412 266.573 414.596 266.665 414.811C266.711 414.918 266.758 415.01 266.788 415.118C266.865 415.317 266.942 415.532 266.988 415.732C267.019 415.839 267.05 415.947 267.065 416.069C267.111 416.269 267.127 416.469 267.127 416.653C267.127 416.699 267.142 416.745 267.127 416.791C267.127 416.852 267.127 416.929 267.127 416.991C267.111 417.159 267.096 417.313 267.065 417.466C267.034 417.589 267.004 417.697 266.957 417.789C266.573 418.679 265.635 418.925 264.543 418.295C263.098 417.466 261.944 415.455 261.944 413.798C261.914 412.508 262.621 411.817 263.605 411.956Z" fill="#DADADA"/>
<path d="M267.127 416.653C267.481 416.653 267.85 416.714 268.188 416.852C268.357 416.929 268.511 417.006 268.649 417.113C268.588 417.175 268.511 417.236 268.434 417.282L268.357 417.328C267.988 417.098 267.557 416.975 267.142 416.991C267.142 416.929 267.158 416.852 267.142 416.791C267.127 416.745 267.127 416.699 267.127 416.653Z" fill="#DADADA"/>
<path d="M267.049 417.466C267.295 417.497 267.541 417.559 267.772 417.666L267.403 417.881C267.265 417.835 267.111 417.804 266.957 417.789C266.988 417.697 267.019 417.574 267.049 417.466Z" fill="#DADADA"/>
<path d="M266.988 415.732C267.157 415.716 267.342 415.701 267.511 415.716C268.08 415.747 268.634 415.931 269.095 416.269C269.064 416.392 269.034 416.499 268.987 416.607C268.618 416.315 268.172 416.146 267.711 416.085C267.496 416.054 267.265 416.054 267.05 416.085C267.034 415.962 267.019 415.839 266.988 415.732Z" fill="#DADADA"/>
<path d="M266.65 414.811C266.743 414.78 266.85 414.765 266.943 414.749C267.711 414.627 268.511 414.765 269.126 415.148C269.142 415.287 269.157 415.44 269.157 415.578C268.619 415.164 267.865 414.98 267.112 415.072C267.004 415.087 266.881 415.102 266.773 415.133C266.743 415.01 266.712 414.918 266.65 414.811Z" fill="#DADADA"/>
<path d="M266.173 413.92C266.25 413.89 266.342 413.859 266.434 413.844C267.28 413.613 268.141 413.629 268.818 413.89C268.879 414.028 268.925 414.181 268.972 414.319C268.341 413.997 267.465 413.936 266.603 414.135C266.527 414.151 266.434 414.181 266.357 414.197C266.296 414.12 266.234 414.013 266.173 413.92Z" fill="#DADADA"/>
<path d="M265.466 413.045C265.604 412.999 265.743 412.938 265.881 412.907C266.727 412.646 267.557 412.6 268.234 412.769C268.326 412.907 268.418 413.061 268.495 413.214C267.88 412.953 266.973 412.953 266.066 413.214C265.958 413.245 265.835 413.276 265.727 413.322C265.635 413.214 265.558 413.122 265.466 413.045Z" fill="#DADADA"/>
<path d="M264.666 412.385C264.927 412.278 265.173 412.186 265.42 412.109C266.173 411.863 266.88 411.756 267.449 411.802C267.572 411.925 267.695 412.063 267.818 412.201C267.296 412.048 266.496 412.124 265.604 412.416C265.404 412.477 265.204 412.539 265.004 412.631C264.881 412.524 264.774 412.447 264.666 412.385Z" fill="#DADADA"/>
<path d="M263.605 411.956C263.79 411.848 263.959 411.741 264.128 411.648C264.405 411.51 264.682 411.388 264.943 411.28C265.42 411.096 265.866 410.988 266.266 410.942C266.358 410.988 266.45 411.034 266.558 411.096C266.666 411.157 266.773 411.219 266.866 411.295C266.42 411.203 265.789 411.311 265.113 411.572C264.774 411.695 264.42 411.863 264.067 412.063C264.051 412.063 264.036 412.048 264.021 412.048C263.867 412.002 263.728 411.971 263.605 411.956Z" fill="#DADADA"/>
<path d="M264.528 417.298C265.496 417.85 266.281 417.405 266.281 416.284C266.281 415.179 265.496 413.813 264.528 413.26C263.559 412.708 262.774 413.153 262.774 414.273C262.774 415.394 263.559 416.745 264.528 417.298Z" fill="#9D9D9C"/>
<path d="M264.528 416.1C264.912 416.33 265.235 416.146 265.235 415.686C265.235 415.225 264.912 414.688 264.528 414.458C264.143 414.227 263.82 414.412 263.82 414.872C263.82 415.333 264.128 415.885 264.528 416.1Z" fill="#DADADA"/>
<path d="M257.355 398.226L255.544 399.27L259.158 405.518L260.969 404.474L257.355 398.226Z" fill="#9D9D9C"/>
<path d="M259.177 404.311C260.592 405.124 261.73 404.464 261.73 402.837C261.73 401.21 260.592 399.23 259.177 398.416C257.762 397.603 256.624 398.263 256.624 399.89C256.609 401.517 257.762 403.497 259.177 404.311Z" fill="#9D9D9C"/>
<path d="M257.362 405.355C258.777 406.168 259.915 405.508 259.915 403.881C259.915 402.254 258.777 400.274 257.362 399.46C255.948 398.647 254.81 399.307 254.81 400.934C254.81 402.561 255.948 404.541 257.362 405.355Z" fill="#C6C6C6"/>
<path d="M255.957 400.269L253.067 401.934L255.628 406.361L258.518 404.695L255.957 400.269Z" fill="#EDEDED"/>
<path d="M257.254 404.557C258.254 405.125 259.069 404.664 259.069 403.513C259.069 402.361 258.254 400.964 257.254 400.381C256.254 399.798 255.439 400.274 255.439 401.425C255.439 402.576 256.254 403.989 257.254 404.557Z" fill="#EDEDED"/>
<path d="M254.348 406.23C255.347 406.813 256.162 406.337 256.162 405.186C256.162 404.035 255.347 402.638 254.348 402.054C253.348 401.486 252.533 401.947 252.533 403.098C252.533 404.249 253.348 405.662 254.348 406.23Z" fill="#9D9D9C"/>
<path d="M253.6 402.972L251.549 404.154L252.917 406.52L254.968 405.338L253.6 402.972Z" fill="#DADADA"/>
<path d="M254.302 405.293C254.84 405.6 255.271 405.355 255.271 404.741C255.271 404.127 254.84 403.375 254.302 403.068C253.764 402.76 253.333 403.006 253.333 403.62C253.333 404.234 253.764 404.986 254.302 405.293Z" fill="#DADADA"/>
<path d="M252.257 406.475C252.795 406.782 253.226 406.537 253.226 405.923C253.226 405.309 252.795 404.556 252.257 404.249C251.719 403.942 251.288 404.188 251.288 404.802C251.288 405.416 251.719 406.168 252.257 406.475Z" fill="#9D9D9C"/>
<path d="M253.533 406.092C253.533 406.046 253.533 405.999 253.533 405.953C253.518 405.677 253.441 405.385 253.302 405.109C253.21 404.925 253.118 404.741 252.995 404.572C252.795 404.296 252.549 404.065 252.287 403.896C252.272 403.881 252.257 403.881 252.257 403.866C252.103 403.774 251.964 403.728 251.826 403.697C251.611 403.666 251.426 403.697 251.272 403.82C251.196 403.881 251.119 403.973 251.072 404.081C251.026 404.173 250.996 404.296 250.98 404.434C250.98 404.48 250.98 404.541 250.965 404.603C250.965 404.925 251.057 405.278 251.211 405.6C251.288 405.769 251.38 405.923 251.488 406.076C251.626 406.276 251.78 406.445 251.949 406.583C252.041 406.675 252.149 406.752 252.257 406.813C252.287 406.828 252.303 406.844 252.333 406.859C252.518 406.951 252.703 406.997 252.856 406.997C252.933 406.997 253.01 406.982 253.087 406.951C253.364 406.859 253.533 406.552 253.533 406.092Z" fill="#9D9D9C"/>
<path d="M253.087 406.967L251.272 403.835L251.103 403.958L250.473 404.434L248.535 405.923L249.904 408.287L250.473 408.056L251.811 407.504L252.779 407.089L253.087 406.967Z" fill="#9D9D9C"/>
<path d="M250.181 407.657C250.181 407.581 250.181 407.504 250.165 407.412C250.135 407.258 250.088 407.089 250.012 406.936C249.919 406.736 249.812 406.552 249.673 406.383C249.566 406.26 249.443 406.138 249.32 406.045C249.289 406.015 249.243 405.999 249.212 405.969C248.674 405.662 248.243 405.907 248.243 406.521C248.243 407.135 248.674 407.888 249.212 408.195C249.75 408.532 250.181 408.287 250.181 407.657Z" fill="#C6C6C6"/>
<path d="M249.212 407.826C249.565 408.026 249.842 407.857 249.842 407.458C249.842 407.059 249.565 406.567 249.212 406.368C248.858 406.168 248.581 406.337 248.581 406.736C248.581 407.135 248.858 407.627 249.212 407.826Z" fill="#DADADA"/>
<path d="M257.977 402.622C258.208 402.484 258.285 402.193 258.162 401.962C258.024 401.732 257.731 401.655 257.501 401.778L256.178 402.546C255.948 402.684 255.871 402.975 255.994 403.206C256.132 403.436 256.424 403.513 256.655 403.39L257.977 402.622Z" fill="#9D9D9C"/>
<path d="M248.966 406.675C249.027 406.644 249.12 406.644 249.212 406.706C249.319 406.767 249.412 406.874 249.473 406.997C249.535 407.089 249.565 407.212 249.565 407.304C249.565 407.35 249.565 407.381 249.55 407.412C249.535 407.458 249.504 407.504 249.473 407.519C249.412 407.55 249.319 407.55 249.227 407.488C249.104 407.412 248.981 407.274 248.935 407.12C248.904 407.043 248.873 406.967 248.889 406.89C248.889 406.844 248.904 406.798 248.92 406.752C248.904 406.721 248.92 406.69 248.966 406.675Z" fill="#706F6F"/>
<path d="M248.948 406.663L245.632 408.574L246.132 409.438L249.448 407.527L248.948 406.663Z" fill="#706F6F"/>
<path d="M245.645 408.578L246.521 408.072C247.028 407.98 247.582 408.01 248.136 408.287L247.767 408.502C247.029 408.225 246.26 408.44 245.706 408.701L245.645 408.578Z" fill="#575756"/>
<path d="M245.875 408.977C246.275 408.839 246.736 408.763 247.213 408.824L246.644 409.146C246.444 409.162 246.244 409.208 246.06 409.269L245.875 408.977Z" fill="#575756"/>
<path d="M247.274 407.642L247.843 407.32C248.259 407.366 248.689 407.488 249.089 407.749L248.751 407.949C248.259 407.688 247.751 407.611 247.274 407.642Z" fill="#575756"/>
<path d="M248.366 407.013L248.828 406.752C248.843 406.752 248.874 406.767 248.889 406.767C248.951 406.782 248.997 406.798 249.058 406.813C249.197 406.859 249.35 406.92 249.489 406.982C249.55 407.074 249.581 407.197 249.581 407.289C249.581 407.335 249.581 407.366 249.566 407.396C249.504 407.35 249.427 407.32 249.35 407.289C249.212 407.228 249.074 407.166 248.935 407.12C248.735 407.074 248.535 407.043 248.366 407.013Z" fill="#575756"/>
<path d="M245.537 409.208C245.737 409.208 245.937 409.285 246.137 409.438C246.198 409.407 246.244 409.315 246.244 409.208C246.244 408.978 246.091 408.717 245.891 408.609C245.799 408.563 245.706 408.548 245.645 408.594L245.537 409.208Z" fill="#DADADA"/>
<path d="M245.537 409.208C245.691 409.039 245.906 408.931 246.152 408.885C246.091 408.763 245.998 408.655 245.891 408.594C245.798 408.548 245.706 408.532 245.645 408.578C245.552 408.793 245.522 409.008 245.537 409.208Z" fill="#878787"/>
<path d="M241.554 411.863C241.492 411.833 241.4 411.833 241.308 411.894C241.2 411.955 241.108 412.063 241.046 412.186C240.985 412.278 240.954 412.401 240.954 412.493C240.954 412.539 240.954 412.57 240.969 412.6C240.985 412.646 241.016 412.692 241.046 412.708C241.108 412.738 241.2 412.738 241.292 412.677C241.415 412.6 241.538 412.462 241.585 412.309C241.615 412.232 241.631 412.155 241.631 412.078C241.631 412.032 241.615 411.986 241.6 411.94C241.615 411.909 241.585 411.879 241.554 411.863Z" fill="#706F6F"/>
<path d="M241.534 411.876L241.034 412.741L244.35 414.652L244.85 413.788L241.534 411.876Z" fill="#706F6F"/>
<path d="M244.859 413.782L243.983 413.276C243.475 413.184 242.922 413.214 242.368 413.491L242.737 413.705C243.475 413.429 244.244 413.644 244.798 413.905L244.859 413.782Z" fill="#575756"/>
<path d="M244.645 414.166C244.245 414.028 243.783 413.951 243.307 414.012L243.876 414.335C244.076 414.35 244.275 414.396 244.46 414.458L244.645 414.166Z" fill="#575756"/>
<path d="M243.245 412.831L242.676 412.508C242.261 412.554 241.83 412.677 241.431 412.938L241.769 413.138C242.261 412.877 242.769 412.815 243.245 412.831Z" fill="#575756"/>
<path d="M242.153 412.216L241.692 411.956C241.677 411.956 241.646 411.971 241.63 411.971C241.569 411.986 241.523 412.002 241.461 412.017C241.323 412.063 241.169 412.124 241.031 412.186C240.969 412.278 240.938 412.401 240.938 412.493C240.938 412.539 240.938 412.57 240.954 412.6C241.015 412.554 241.092 412.524 241.169 412.493C241.308 412.431 241.446 412.37 241.584 412.324C241.784 412.263 241.969 412.232 242.153 412.216Z" fill="#575756"/>
<path d="M244.967 414.412C244.767 414.412 244.567 414.488 244.367 414.642C244.306 414.611 244.26 414.519 244.26 414.412C244.26 414.181 244.414 413.92 244.613 413.813C244.706 413.767 244.798 413.752 244.859 413.798L244.967 414.412Z" fill="#DADADA"/>
<path d="M244.968 414.412C244.814 414.243 244.599 414.135 244.353 414.089C244.414 413.966 244.506 413.859 244.614 413.798C244.706 413.752 244.798 413.736 244.86 413.782C244.952 413.982 244.983 414.197 244.968 414.412Z" fill="#878787"/>
<path d="M243.814 410.513C243.722 410.467 243.583 410.466 243.445 410.543C243.291 410.635 243.153 410.789 243.061 410.973C242.984 411.111 242.938 411.28 242.938 411.434C242.938 411.495 242.953 411.556 242.968 411.602C242.999 411.679 243.03 411.741 243.091 411.771C243.184 411.833 243.307 411.817 243.46 411.741C243.645 411.633 243.814 411.434 243.891 411.203C243.937 411.096 243.968 410.973 243.968 410.85C243.968 410.774 243.952 410.712 243.937 410.651C243.891 410.589 243.86 410.543 243.814 410.513Z" fill="#706F6F"/>
<path d="M243.787 410.54L243.064 411.79L247.912 414.584L248.635 413.334L243.787 410.54Z" fill="#706F6F"/>
<path d="M248.658 413.306L247.366 412.57C246.628 412.431 245.813 412.477 245.014 412.877L245.552 413.184C246.644 412.769 247.751 413.091 248.566 413.475L248.658 413.306Z" fill="#575756"/>
<path d="M248.319 413.89C247.735 413.69 247.058 413.583 246.382 413.675L247.212 414.151C247.52 414.181 247.797 414.243 248.073 414.319L248.319 413.89Z" fill="#575756"/>
<path d="M246.274 411.94L245.459 411.464C244.844 411.526 244.229 411.71 243.629 412.078L244.136 412.37C244.844 412.002 245.582 411.894 246.274 411.94Z" fill="#575756"/>
<path d="M244.69 411.019L244.014 410.635C243.983 410.635 243.952 410.651 243.921 410.666C243.845 410.681 243.752 410.712 243.675 410.727C243.46 410.789 243.26 410.881 243.045 410.988C242.968 411.127 242.922 411.295 242.922 411.449C242.922 411.51 242.937 411.572 242.953 411.618C243.045 411.556 243.153 411.495 243.26 411.449C243.46 411.357 243.66 411.265 243.875 411.203C244.152 411.111 244.414 411.05 244.69 411.019Z" fill="#575756"/>
<path d="M248.812 414.227C248.504 414.227 248.227 414.335 247.935 414.565C247.843 414.504 247.781 414.396 247.781 414.227C247.781 413.905 248.012 413.506 248.289 413.337C248.427 413.26 248.566 413.245 248.658 413.306L248.812 414.227Z" fill="#DADADA"/>
<path d="M248.812 414.227L248.796 414.243C248.597 413.982 248.274 413.828 247.92 413.767C248.012 413.583 248.151 413.445 248.304 413.352C248.443 413.276 248.581 413.26 248.673 413.322C248.781 413.613 248.827 413.92 248.812 414.227Z" fill="#878787"/>
<path d="M239.77 413.061C239.724 413.03 239.662 413.046 239.6 413.076C239.524 413.122 239.462 413.199 239.416 413.276C239.37 413.337 239.354 413.414 239.354 413.491C239.354 413.522 239.354 413.552 239.37 413.568C239.385 413.598 239.401 413.629 239.431 413.644C239.477 413.675 239.539 413.66 239.6 413.629C239.693 413.583 239.77 413.475 239.816 413.368C239.847 413.307 239.847 413.261 239.847 413.199C239.847 413.168 239.831 413.138 239.831 413.107C239.8 413.092 239.785 413.076 239.77 413.061Z" fill="#706F6F"/>
<path d="M239.746 413.041L239.4 413.639L241.704 414.967L242.05 414.369L239.746 413.041Z" fill="#706F6F"/>
<path d="M242.077 414.396L241.461 414.043C241.108 413.982 240.723 413.997 240.339 414.197L240.6 414.35C241.123 414.151 241.646 414.304 242.03 414.488L242.077 414.396Z" fill="#575756"/>
<path d="M241.907 414.657C241.63 414.565 241.307 414.504 240.984 414.55L241.384 414.78C241.523 414.795 241.661 414.826 241.799 414.857L241.907 414.657Z" fill="#575756"/>
<path d="M240.938 413.736L240.554 413.506C240.261 413.537 239.969 413.629 239.692 413.798L239.938 413.936C240.261 413.767 240.615 413.721 240.938 413.736Z" fill="#575756"/>
<path d="M240.185 413.306L239.862 413.122C239.847 413.122 239.831 413.122 239.816 413.138C239.77 413.153 239.739 413.153 239.708 413.168C239.601 413.199 239.508 413.245 239.416 413.291C239.37 413.352 239.354 413.429 239.354 413.506C239.354 413.537 239.354 413.567 239.37 413.583C239.416 413.552 239.462 413.521 239.524 413.506C239.616 413.46 239.708 413.414 239.816 413.399C239.923 413.337 240.062 413.322 240.185 413.306Z" fill="#575756"/>
<path d="M242.138 414.826C241.999 414.826 241.861 414.888 241.722 414.98C241.676 414.949 241.646 414.903 241.646 414.826C241.646 414.673 241.753 414.488 241.892 414.412C241.953 414.381 242.015 414.366 242.061 414.396L242.138 414.826Z" fill="#DADADA"/>
<path d="M242.138 414.826C242.03 414.703 241.876 414.627 241.707 414.611C241.753 414.519 241.815 414.458 241.892 414.412C241.953 414.381 242.015 414.366 242.061 414.396C242.122 414.534 242.153 414.688 242.138 414.826Z" fill="#878787"/>
<path d="M257.9 437.806L225.515 419.14V408.732L257.9 427.383V437.806Z" fill="#5386B1"/>
<path d="M257.9 437.806L290.271 419.14V408.732L257.9 427.383V437.806Z" fill="#477296"/>
<path d="M253.764 416.914C254.364 416.745 254.917 416.791 255.348 417.037L252.872 415.609C253.287 415.855 253.595 416.315 253.764 416.914Z" fill="#9D9D9C"/>
<path d="M252.856 417.282C253.164 417.098 253.471 416.991 253.748 416.914C253.594 416.315 253.287 415.855 252.856 415.609C252.226 415.241 251.349 415.302 250.365 415.855C248.843 416.73 247.551 418.602 247.074 420.46L249.55 421.887C250.042 420.045 251.334 418.173 252.856 417.282Z" fill="#9D9D9C"/>
<path d="M253.01 418.556C253.702 418.157 254.317 418.126 254.763 418.387L256.362 419.308C256.362 418.188 255.963 417.405 255.332 417.037C254.902 416.791 254.348 416.745 253.748 416.914C253.456 416.991 253.164 417.098 252.856 417.282C251.334 418.157 250.042 420.03 249.565 421.887L250.565 422.471C250.719 420.966 251.749 419.293 253.01 418.556Z" fill="#C6C6C6"/>
<path d="M256.993 420.859C257.685 420.46 258.3 420.429 258.746 420.69L256.362 419.324L254.763 418.403C255.209 418.664 255.486 419.216 255.486 420.015C255.486 421.473 254.548 423.208 253.317 424.083L254.532 424.773C254.701 423.269 255.732 421.58 256.993 420.859Z" fill="#EDEDED"/>
<path d="M255.501 419.999C255.501 419.216 255.224 418.648 254.778 418.387C254.332 418.126 253.702 418.173 253.025 418.556C251.764 419.278 250.734 420.966 250.58 422.471L253.348 424.067C254.548 423.177 255.501 421.442 255.501 419.999ZM252.026 421.626C251.703 421.442 251.595 421.028 251.78 420.705C251.964 420.383 252.379 420.276 252.702 420.46L254.517 421.504C254.84 421.688 254.947 422.102 254.763 422.425C254.578 422.747 254.163 422.854 253.84 422.67L252.026 421.626Z" fill="#EDEDED"/>
<path d="M256.117 425.372C255.871 425.234 255.732 424.942 255.732 424.512C255.732 423.668 256.332 422.64 257.07 422.21C257.439 421.995 257.762 421.98 258.008 422.118L259.423 422.931C259.469 422.701 259.484 422.486 259.484 422.271C259.484 421.488 259.208 420.92 258.762 420.659C258.316 420.398 257.685 420.444 257.009 420.828C255.748 421.55 254.717 423.238 254.563 424.743L257.332 426.339C257.408 426.293 257.485 426.232 257.547 426.17L256.117 425.372Z" fill="#9D9D9C"/>
<path d="M258.116 426.4C258.116 426.339 258.116 426.278 258.131 426.216C258.162 425.832 258.269 425.433 258.439 425.065C258.562 424.804 258.7 424.558 258.869 424.313C259.146 423.929 259.469 423.607 259.838 423.392C259.853 423.376 259.869 423.361 259.884 423.361C259.93 423.33 259.976 423.33 260.022 423.315L259.423 422.962L258.008 422.148C258.254 422.286 258.392 422.578 258.392 423.008C258.392 423.852 257.793 424.881 257.07 425.311C256.701 425.525 256.363 425.541 256.132 425.403L257.547 426.216L258.069 426.523L258.131 426.493C258.116 426.431 258.116 426.416 258.116 426.4Z" fill="#DADADA"/>
<path d="M257.055 422.225C256.317 422.655 255.717 423.683 255.717 424.528C255.717 424.958 255.871 425.249 256.101 425.387C256.347 425.526 256.67 425.51 257.039 425.295C257.777 424.865 258.362 423.837 258.362 422.993C258.362 422.563 258.208 422.271 257.977 422.133C257.762 421.995 257.424 422.01 257.055 422.225Z" fill="#DADADA"/>
<path d="M259.823 423.376C259.469 423.591 259.131 423.914 258.854 424.297C258.685 424.528 258.547 424.789 258.424 425.05C258.254 425.433 258.147 425.833 258.116 426.201C258.116 426.262 258.101 426.324 258.101 426.385C258.101 426.416 258.101 426.431 258.101 426.447L260.007 425.357L261.207 423.284C261.007 423.131 260.746 423.069 260.453 423.115C260.315 423.131 260.161 423.208 260.007 423.284C259.961 423.315 259.915 423.315 259.869 423.33C259.854 423.361 259.838 423.361 259.823 423.376Z" fill="#9D9D9C"/>
<path d="M262.268 424.067L261.468 423.469L261.222 423.284L260.022 425.357L262.268 424.067Z" fill="#9D9D9C"/>
<path d="M254.763 422.425C254.947 422.102 254.84 421.688 254.517 421.504L252.702 420.46C252.379 420.276 251.964 420.383 251.779 420.705C251.595 421.028 251.703 421.442 252.025 421.626L253.84 422.67C254.163 422.854 254.578 422.747 254.763 422.425Z" fill="#9D9D9C"/>
</svg>
