<svg width="546" height="445" viewBox="0 0 546 445" fill="none" xmlns="http://www.w3.org/2000/svg">
<mask id="mask0_246_180" style="mask-type:luminance" maskUnits="userSpaceOnUse" x="0" y="0" width="546" height="445">
<path d="M174.7 0.610339C138.562 2.03384 111.976 16.5917 99.6039 23.5405C38.3918 57.932 15.5942 117.895 10.7777 131.631C-19.5456 218.23 18.5825 314.214 73.7593 370.743C146.785 445.557 243.394 444.831 295.01 444.442C346.993 444.053 429.468 443.43 488.808 380.568C542.854 323.312 544.734 249.349 545.328 225.802C546.114 194.838 548.074 117.624 493.646 70.2152C457.831 39.0155 415.973 38.157 404.974 37.0344C367.522 33.2188 362.375 41.9286 324.885 41.5544C255.376 40.8573 239.517 -1.9505 174.7 0.610339Z" fill="white"/>
</mask>
<g mask="url(#mask0_246_180)">
<path d="M349.313 337.357C351.744 337.408 353.821 336.608 354.042 335.544C355.29 329.476 357.801 310.64 356.942 302.048C354.974 282.302 347.052 246.862 347.052 246.862C347.052 246.862 327.037 258.969 320.275 258.697C313.513 258.426 309.695 255.314 309.695 255.314C309.695 255.314 310.847 266.556 311.706 278.061C312.565 289.559 314.474 311.345 314.474 311.345L319.82 306.025C319.82 306.025 323.689 319.423 322.793 324.464C322.22 327.678 320.091 331.795 318.63 334.341C317.925 335.574 319.974 336.784 322.867 336.836L340.892 337.188L345.231 326.945L349.313 337.357Z" fill="#24282D"/>
<path d="M221.022 -34.9698H-87.887V437.112H221.022V-34.9698Z" fill="#24282D"/>
<path d="M682.98 405.479L218.614 395.067L-87.0867 429.106V501.977H313.769L678.971 501.177L679.17 444.354L682.98 405.479Z" fill="#D8AB98"/>
<path d="M176.294 455.361C219.313 455.361 254.187 450.42 254.187 444.325C254.187 438.23 219.313 433.289 176.294 433.289C133.274 433.289 98.4001 438.23 98.4001 444.325C98.4001 450.42 133.274 455.361 176.294 455.361Z" fill="#9D7F74"/>
<path d="M396.443 435.945C439.462 435.945 474.337 431.004 474.337 424.909C474.337 418.814 439.462 413.874 396.443 413.874C353.424 413.874 318.549 418.814 318.549 424.909C318.549 431.004 353.424 435.945 396.443 435.945Z" fill="#9D7F74"/>
<path d="M64.3467 455.507C63.9796 455.507 63.6125 455.397 63.2894 455.17C62.4744 454.597 62.2689 453.489 62.8122 452.66C64.4568 449.835 97.2472 378.132 109.766 350.689C110.184 349.765 111.278 349.361 112.196 349.779C113.121 350.198 113.525 351.291 113.106 352.208C105.448 368.997 67.1735 452.829 65.8445 454.715C65.4921 455.236 64.9194 455.507 64.3467 455.507Z" fill="#5B090B"/>
<path d="M148.723 455.507C148.356 455.507 147.989 455.397 147.666 455.17C146.851 454.597 146.645 453.489 147.189 452.66C148.833 449.835 181.624 378.132 194.142 350.689C194.561 349.765 195.647 349.361 196.572 349.779C197.498 350.198 197.901 351.291 197.483 352.208C189.825 368.997 151.55 452.829 150.221 454.715C149.869 455.236 149.296 455.507 148.723 455.507Z" fill="#5B090B"/>
<path d="M239.018 435.864H154.12C153.107 435.864 152.284 435.043 152.284 434.03C152.284 433.017 153.107 432.196 154.12 432.196H239.018C240.031 432.196 240.854 433.017 240.854 434.03C240.854 435.043 240.031 435.864 239.018 435.864Z" fill="#02102B"/>
<path d="M226.272 406.859H140.214C139.201 406.859 138.378 406.037 138.378 405.024C138.378 404.012 139.201 403.19 140.214 403.19H226.272C227.285 403.19 228.107 404.012 228.107 405.024C228.107 406.037 227.285 406.859 226.272 406.859Z" fill="#02102B"/>
<path d="M213.093 378H127.497C126.484 378 125.662 377.178 125.662 376.165C125.662 375.153 126.484 374.331 127.497 374.331H213.093C214.106 374.331 214.928 375.153 214.928 376.165C214.928 377.178 214.113 378 213.093 378Z" fill="#02102B"/>
<path d="M250.252 455.507C249.672 455.507 249.106 455.236 248.747 454.729C247.418 452.844 209.143 369.004 201.485 352.223C201.066 351.298 201.47 350.212 202.395 349.794C203.32 349.376 204.407 349.779 204.825 350.704C217.344 378.139 250.134 449.843 251.779 452.675C252.322 453.497 252.109 454.612 251.302 455.184C250.986 455.397 250.619 455.507 250.252 455.507Z" fill="#844B42"/>
<path d="M163.827 458.112C163.254 458.112 162.689 457.848 162.336 457.349C160.948 455.419 120.941 369.451 112.93 352.237C112.504 351.32 112.901 350.227 113.819 349.801C114.736 349.376 115.83 349.772 116.256 350.689C129.348 378.836 163.643 452.389 165.354 455.265C165.904 456.087 165.706 457.195 164.899 457.775C164.568 458.002 164.194 458.112 163.827 458.112Z" fill="#844B42"/>
<path d="M207.476 354.101H104.494C103.077 354.101 101.924 352.949 101.924 351.533C101.924 350.117 103.077 348.965 104.494 348.965H207.476C208.893 348.965 210.046 350.117 210.046 351.533C210.046 352.956 208.893 354.101 207.476 354.101Z" fill="#02102B"/>
<path d="M333.674 405.531C333.557 408.099 314.349 409.221 290.766 408.04C267.183 406.851 248.159 403.806 248.277 401.238C248.394 398.67 267.601 397.547 291.185 398.729C314.768 399.917 333.792 402.962 333.674 405.531Z" fill="#9D7F74"/>
<path d="M309.276 362.789L274.459 360.764L274.533 350.542C274.555 347.262 275.862 344.181 278.109 342.067C280.164 340.145 282.822 339.176 285.598 339.33L298.601 340.086C304.577 340.431 309.401 345.964 309.35 352.413L309.276 362.789ZM277.411 357.997L306.361 359.678L306.413 352.391C306.45 347.483 302.867 343.278 298.424 343.021L285.429 342.265C283.468 342.148 281.574 342.845 280.113 344.21C278.446 345.773 277.484 348.084 277.462 350.564L277.411 357.997Z" fill="#374866"/>
<path d="M331.897 368.087L331.655 401.172C331.64 403.315 329.093 405.421 327.11 405.31L263.108 401.106C261.126 400.989 259.532 399.162 259.547 397.026L259.789 363.941C259.833 357.572 264.65 352.692 270.546 353.03L321.317 355.95C327.198 356.288 331.941 361.725 331.897 368.087Z" fill="#02102B"/>
<path d="M326.905 367.962L326.663 401.37C326.648 403.527 325.025 405.186 323.05 405.076L258.116 401.304C256.133 401.187 254.54 399.345 254.555 397.18L254.797 363.772C254.841 357.344 259.657 352.413 265.553 352.751L316.325 355.701C322.213 356.046 326.956 361.534 326.905 367.962Z" fill="#374866"/>
<path d="M326.86 374.786L326.67 401.378C326.655 403.535 325.032 405.193 323.057 405.083L258.123 401.311C256.14 401.194 254.547 399.352 254.562 397.188L254.753 370.596L326.86 374.786Z" fill="#02102B"/>
<path d="M268.725 390.386L268.35 390.43C267.601 390.525 266.897 389.931 266.779 389.109L263.813 368.527C263.695 367.705 264.202 366.964 264.951 366.869L265.325 366.825C266.074 366.729 266.779 367.324 266.897 368.145L269.863 388.727C269.988 389.549 269.474 390.29 268.725 390.386Z" fill="#5B090B"/>
<path d="M307.742 394.781L305.26 395.089C304.511 395.185 303.806 394.59 303.689 393.768L301.457 378.279C301.339 377.457 301.846 376.716 302.602 376.62L305.084 376.312C305.833 376.217 306.537 376.811 306.655 377.633L308.887 393.123C309.004 393.945 308.49 394.686 307.742 394.781Z" fill="#5B090B"/>
<path d="M311.751 394.055L310.95 393.915C310.194 393.783 309.658 393.013 309.746 392.191L311.802 373.216C311.89 372.401 312.573 371.844 313.329 371.976L314.129 372.115C314.886 372.247 315.422 373.018 315.334 373.839L313.278 392.815C313.19 393.629 312.507 394.187 311.751 394.055Z" fill="#AEACB1"/>
<path d="M271.632 381.559L273.02 381.881L276.199 360.947L274.804 360.624L271.632 381.559Z" fill="#AEACB1"/>
<path d="M269.789 392.998L271.251 393.431C272.543 393.82 273.798 392.917 274.033 391.435L276.141 378.308C276.375 376.826 275.516 375.292 274.224 374.903L272.763 374.47C271.471 374.081 270.215 374.984 269.98 376.466L267.873 389.593C267.631 391.083 268.497 392.616 269.789 392.998Z" fill="#FBAE2C"/>
<path d="M275.539 382.072C275.407 381.984 275.267 381.925 275.105 381.889C274.078 381.661 273.108 382.769 272.939 384.369C272.771 385.976 273.461 387.48 274.481 387.708C274.533 387.715 274.569 387.73 274.621 387.737L275.539 382.072Z" fill="#FBAE2C"/>
<path d="M275.105 361.373L275.847 361.563C276.317 361.681 276.764 361.373 276.853 360.866L277.543 356.926L275.105 356.302L274.415 360.243C274.334 360.742 274.635 361.248 275.105 361.373Z" fill="#AEACB1"/>
<path d="M273.733 398.802L269.224 398.538C266.405 398.376 264.136 395.75 264.158 392.675L264.239 381.184L278.953 382.043L278.872 393.534C278.857 396.601 276.552 398.963 273.733 398.802Z" fill="#374866"/>
<path d="M311.075 400.967L306.567 400.702C303.747 400.541 301.479 397.914 301.501 394.84L301.581 383.349L316.295 384.207L316.214 395.698C316.2 398.773 313.894 401.135 311.075 400.967Z" fill="#374866"/>
<path d="M251.919 63.0904C251.919 63.0904 249.834 75.0581 240.597 76.4889C231.361 77.9197 229.833 73.187 230.509 66.8619C231.096 61.4027 243.394 51.1227 243.394 51.1227L251.919 63.0904Z" fill="#9C5A4A"/>
<path d="M230.391 66.9867L214.87 98.1203C214.87 98.1203 171.962 85.3675 171.984 86.2186C172.006 87.0698 165.031 106.72 165.031 106.72L215.229 121.116C221.015 122.988 227.226 119.832 229.121 114.058L245.611 73.774L230.391 66.9867Z" fill="#9C5A4A"/>
<path d="M198.247 93.0353L202.916 94.5835C202.916 94.5835 199.098 108.4 197.96 111.02C195.647 116.347 192.556 114.718 192.556 114.718L198.247 93.0353Z" fill="#5B090B"/>
<path d="M199.715 92.1988C198.834 95.8456 197.711 99.7786 196.279 103.932C194.568 108.892 192.681 113.353 190.809 117.294C171.301 113.705 155.816 107.527 154.465 97.4525C152.886 85.6536 160.508 80.5686 172.732 83.6651C184.95 86.7542 199.715 92.1988 199.715 92.1988Z" fill="#6E92CC"/>
<path d="M216.962 106.742C216.859 106.742 216.756 106.698 216.683 106.61C212.755 102.017 214.458 98.1276 214.539 97.9662C214.62 97.7827 214.84 97.702 215.024 97.7827C215.207 97.8635 215.288 98.0836 215.207 98.267C215.141 98.4138 213.636 101.914 217.241 106.133C217.373 106.287 217.351 106.522 217.197 106.647C217.131 106.713 217.05 106.742 216.962 106.742Z" fill="#5B090B"/>
<path d="M226.008 46.7861C226.389 47.4245 227.182 48.7086 228.68 49.8386C230.384 51.1227 231.742 51.2621 232.726 52.803C233.078 53.346 233.218 53.8156 233.423 54.6081C233.82 56.1563 234.106 57.5505 234.385 58.8125C234.906 61.2193 235.362 63.1711 236.375 64.8881C236.793 65.5925 237.278 66.0254 237.792 66.2823C238.783 66.7812 239.818 66.6932 240.428 66.5758C241.052 66.5464 242.072 66.3776 242.88 65.6512C243.291 65.277 243.636 64.7413 243.827 63.9636C244.29 62.0631 244.15 60.0673 243.93 57.6238C243.813 56.3398 243.68 54.9236 243.6 53.3387C243.563 52.5315 243.556 52.0472 243.732 51.4309C244.224 49.7139 245.487 49.2443 246.742 47.5933C247.843 46.1404 248.225 44.7169 248.401 44.0052C249.128 41.1362 248.372 38.7074 248.115 37.9663C247.954 37.504 246.933 34.6864 244.304 32.7419C239.238 28.9924 230.362 30.093 226.602 34.9285C224.657 37.438 224.51 40.4024 224.495 40.8867C224.451 41.6792 224.451 44.2033 226.008 46.7861Z" fill="#FBAE2C"/>
<path d="M236.037 50.3009C235.413 50.2789 234.825 50.1908 234.319 49.9927C233.511 49.6845 232.946 49.1489 232.645 48.4078C232.05 46.9476 232.366 45.8396 232.865 45.2893C233.218 44.893 233.687 44.7316 234.15 44.8417C234.502 44.9224 235.156 45.2452 235.508 46.478C235.751 47.3291 236.059 48.5398 236.375 49.912C237.234 49.9046 238.151 49.7579 239.003 49.5451C238.981 46.4926 239.275 43.7997 240.339 43.6236C241.316 43.4622 242.19 44.1373 242.63 45.3773C243.115 46.7421 242.909 48.4885 241.735 49.0388C241.14 49.3176 240.339 49.6111 239.451 49.8459C239.495 52.5388 239.737 55.672 240.024 58.1228L239.605 58.1595C239.466 56.9561 239.069 53.2946 239.018 49.9487C238.188 50.1468 237.307 50.2789 236.47 50.3009C237.197 53.5074 237.939 57.4624 238.041 59.8838L237.623 59.8912C237.513 57.4771 236.764 53.4927 236.037 50.3009ZM235.104 46.566C234.892 45.8176 234.488 45.3259 234.062 45.2232C233.753 45.1498 233.438 45.2746 233.188 45.5461C232.77 46.0083 232.513 46.9622 233.041 48.2537C233.298 48.8847 233.783 49.3396 234.48 49.6038C234.921 49.7726 235.42 49.8606 235.956 49.8826C235.64 48.5692 235.339 47.4025 235.104 46.566ZM240.42 44.0125C239.664 44.1373 239.422 46.4633 239.436 49.4204C240.251 49.1929 240.993 48.9214 241.536 48.6646C242.491 48.217 242.638 46.6687 242.226 45.4947C241.999 44.849 241.558 44.2033 240.942 44.0345C240.787 43.9978 240.611 43.9832 240.42 44.0125Z" fill="black"/>
<path d="M232.806 59.0107C233.497 62.2099 234.099 64.8074 235.45 67.0894C236.008 68.0213 236.654 68.6009 237.329 68.9385C238.643 69.6062 240.024 69.4888 240.831 69.3274C241.661 69.2833 243.019 69.0632 244.091 68.102C244.642 67.6104 245.09 66.8986 245.347 65.864C245.964 63.3399 245.773 60.6836 245.479 57.4404L232.806 59.0107Z" fill="#AEACB1"/>
<path d="M233.556 62.8335L245.942 61.4174C246.243 61.3807 246.449 61.1019 246.404 60.779C246.36 60.4635 246.081 60.236 245.78 60.2654L233.394 61.6815C233.093 61.7182 232.887 61.9971 232.931 62.3199C232.983 62.6428 233.262 62.8702 233.556 62.8335Z" fill="#5D5B60"/>
<path d="M233.82 65.343L246.206 63.9269C246.507 63.8902 246.713 63.6113 246.669 63.2885C246.625 62.973 246.346 62.7455 246.045 62.7749L233.658 64.191C233.357 64.2277 233.152 64.5065 233.196 64.8294C233.247 65.1522 233.526 65.3797 233.82 65.343Z" fill="#5D5B60"/>
<path d="M247.389 53.5074C247.389 53.5074 251.559 53.1846 250.451 57.0588C250.708 57.0075 251.266 56.9341 251.787 57.1762C252.514 57.5138 252.874 58.3429 252.712 59.2821C252.932 59.0693 253.322 58.7465 253.821 58.6584C254.871 58.475 255.561 59.4876 255.671 59.627C257.352 61.6449 254.122 66.1869 252.881 67.1628C251.633 68.146 247.903 71.0811 246.934 69.6722C245.965 68.2634 246.625 67.0747 246.625 67.0747C246.625 67.0747 243.718 68.5276 242.257 68.0139C240.796 67.493 241.332 65.908 241.332 65.908C241.332 65.908 238.916 66.473 238.446 64.1763C237.976 61.8797 244.085 59.0693 244.768 54.6888L247.389 53.5074Z" fill="#9C5A4A"/>
<path d="M244.79 54.7328L244.826 54.6888C244.65 55.9215 244.004 57.1395 243.167 58.2035C242.337 59.2821 241.332 60.2287 240.377 61.1899C239.907 61.6742 239.437 62.1658 239.07 62.6941C238.887 62.9583 238.74 63.2298 238.659 63.5086C238.637 63.5746 238.63 63.648 238.615 63.7141C238.608 63.7801 238.608 63.8461 238.608 63.9122C238.615 63.9782 238.622 64.0443 238.63 64.103C238.644 64.169 238.666 64.235 238.688 64.3011L238.747 64.4992L238.828 64.6826C238.872 64.8074 238.96 64.9101 239.026 65.0202C239.188 65.2256 239.379 65.4091 239.628 65.5265C239.87 65.6512 240.142 65.7246 240.428 65.7539C240.715 65.7833 241.03 65.7686 241.309 65.7099L241.618 65.6439L241.537 65.93C241.471 66.1722 241.442 66.451 241.464 66.6931C241.493 66.9426 241.574 67.1701 241.721 67.3535C241.86 67.537 242.058 67.6837 242.301 67.7718C242.359 67.8011 242.418 67.8158 242.477 67.8305C242.543 67.8452 242.594 67.8672 242.66 67.8745C242.793 67.8892 242.925 67.9039 243.064 67.8965C243.622 67.8892 244.224 67.7498 244.804 67.5663C245.392 67.3829 245.979 67.1407 246.53 66.8766L247.103 66.5977L246.824 67.1481C246.787 67.2141 246.75 67.3242 246.721 67.4122C246.691 67.5076 246.669 67.603 246.662 67.7057C246.633 67.9038 246.633 68.102 246.655 68.2927C246.691 68.6743 246.838 69.0338 247.036 69.364C247.139 69.5401 247.227 69.6575 247.374 69.7309C247.514 69.8043 247.697 69.8263 247.895 69.8116C248.292 69.7749 248.732 69.6135 249.151 69.4081C249.995 69.0045 250.796 68.4615 251.574 67.8965C251.963 67.6103 252.345 67.3168 252.727 67.016C253.072 66.7445 253.387 66.3776 253.681 66.0254C254.269 65.299 254.775 64.5139 255.186 63.7067C255.59 62.8996 255.891 62.0484 255.935 61.2339C255.95 60.8304 255.898 60.4341 255.73 60.0966C255.649 59.9278 255.539 59.7811 255.414 59.6197C255.296 59.4656 255.164 59.3261 255.017 59.2014C254.724 58.9519 254.357 58.7758 253.953 58.8052C253.549 58.8199 253.138 59.0693 252.815 59.3848L252.499 59.693L252.565 59.2968C252.617 58.9886 252.617 58.6804 252.55 58.3943C252.484 58.1081 252.36 57.8439 252.161 57.6312C251.97 57.4184 251.713 57.2643 251.412 57.1909C251.119 57.1102 250.781 57.1102 250.451 57.1689L250.304 57.1982L250.34 57.0662C250.487 56.5892 250.561 56.1049 250.531 55.6427C250.502 55.1804 250.333 54.7475 250.032 54.4173C249.731 54.0871 249.313 53.8596 248.85 53.7202C248.387 53.5808 247.888 53.5147 247.374 53.5294L244.79 54.7328ZM248.894 53.6395C249.371 53.7642 249.812 53.977 250.142 54.3145C250.465 54.6521 250.663 55.0997 250.708 55.584C250.759 56.0682 250.686 56.5745 250.553 57.0662L250.451 56.9634C250.81 56.89 251.177 56.8754 251.523 56.9561C251.86 57.0295 252.161 57.2056 252.382 57.4404C252.602 57.6752 252.756 57.9687 252.837 58.2842C252.918 58.5997 252.925 58.9446 252.874 59.2821L252.624 59.1941C252.807 59.0106 253.013 58.8492 253.248 58.7171C253.483 58.5924 253.74 58.497 254.004 58.4823C254.261 58.4603 254.511 58.5043 254.724 58.585C254.937 58.6658 255.128 58.7832 255.296 58.9226C255.465 59.0547 255.612 59.2087 255.744 59.3702C255.869 59.5243 256.009 59.693 256.104 59.8911C256.31 60.2727 256.376 60.7203 256.368 61.1679C256.361 61.6155 256.266 62.0704 256.126 62.5107C255.987 62.9509 255.81 63.3839 255.605 63.8094C255.186 64.6606 254.665 65.4677 254.063 66.2382C253.909 66.429 253.747 66.6198 253.578 66.8032C253.409 66.9866 253.233 67.1701 253.02 67.3315C252.639 67.6324 252.249 67.9332 251.853 68.2267C251.06 68.8064 250.238 69.364 249.335 69.8043C248.887 70.0171 248.402 70.2152 247.881 70.2666C247.624 70.2886 247.345 70.2592 247.11 70.1418C246.992 70.0831 246.897 70.0024 246.816 69.907C246.728 69.8116 246.684 69.7236 246.625 69.6355C246.405 69.2686 246.243 68.8651 246.199 68.4101C246.17 68.19 246.177 67.9552 246.214 67.7204C246.229 67.603 246.258 67.4856 246.288 67.3682C246.324 67.2435 246.361 67.1407 246.434 67.0013L246.728 67.2728C246.126 67.559 245.531 67.8011 244.907 67.9919C244.29 68.1827 243.652 68.3368 243.006 68.3368C242.844 68.3441 242.682 68.3221 242.528 68.3074C242.448 68.3001 242.374 68.2707 242.293 68.2561C242.213 68.234 242.139 68.2194 242.073 68.1827C241.787 68.0726 241.53 67.8892 241.354 67.647C241.17 67.4049 241.067 67.1114 241.045 66.8105C241.023 66.5024 241.045 66.2015 241.141 65.8787L241.361 66.1061C241.17 66.1428 241.008 66.1575 240.832 66.1648C240.663 66.1722 240.495 66.1648 240.326 66.1502C239.995 66.1135 239.672 66.0181 239.393 65.8713C239.107 65.7319 238.887 65.5044 238.703 65.2623C238.622 65.1302 238.534 65.0128 238.483 64.8661L238.395 64.6606L238.336 64.4405C238.314 64.3671 238.299 64.2937 238.277 64.2203C238.27 64.1396 238.255 64.0589 238.255 63.9709C238.262 63.8902 238.262 63.8021 238.277 63.7214C238.299 63.6407 238.307 63.5526 238.336 63.4719C238.439 63.1417 238.615 62.8335 238.813 62.5474C239.217 61.9824 239.709 61.4908 240.193 61.0138C241.17 60.0599 242.169 59.1354 243.013 58.1008C243.865 57.0808 244.525 55.9068 244.738 54.6961L244.746 54.6668L244.775 54.6521L247.404 53.5147C247.91 53.4707 248.417 53.5221 248.894 53.6395Z" fill="#5B090B"/>
<path d="M252.822 58.8639C252.565 59.5169 252.279 60.148 251.97 60.7717C251.655 61.3954 251.31 61.9971 250.913 62.5841C250.531 63.1784 250.091 63.7287 249.613 64.2717C249.496 64.4038 249.371 64.5359 249.246 64.668L248.857 65.0495C248.791 65.1156 248.725 65.1816 248.659 65.2403L248.453 65.4164C248.314 65.5338 248.174 65.6585 248.035 65.7906C248.196 65.7026 248.358 65.6072 248.527 65.5118C248.608 65.4678 248.688 65.4164 248.769 65.365C248.85 65.3137 248.923 65.255 248.997 65.2036L249.452 64.8661C249.591 64.7413 249.731 64.6166 249.87 64.4845C249.937 64.4185 250.01 64.3598 250.076 64.2937L250.267 64.0883C250.392 63.9489 250.531 63.8168 250.649 63.67L250.994 63.2298C251.104 63.083 251.207 62.9289 251.31 62.7749C251.713 62.1585 252.051 61.5128 252.308 60.8597C252.58 60.1993 252.771 59.5316 252.822 58.8639Z" fill="#5B090B"/>
<path d="M252.705 59.3188C252.719 58.974 252.697 58.6291 252.639 58.2916C252.58 57.954 252.484 57.6238 252.308 57.3303C252.22 57.1836 252.103 57.0442 251.948 56.9414C251.794 56.8314 251.596 56.7653 251.376 56.7653C251.155 56.758 250.942 56.824 250.744 56.9047C250.539 56.9855 250.362 57.1029 250.186 57.2129L250.142 57.2423L250.105 57.3083C249.636 58.1595 249.026 58.996 248.387 59.7884C247.734 60.5809 247.044 61.344 246.288 62.0558C246.104 62.2392 245.906 62.408 245.715 62.5841L245.428 62.8482C245.333 62.9363 245.23 63.017 245.127 63.0977L244.533 63.604L243.916 64.0883C243.71 64.2497 243.505 64.4111 243.292 64.5652L242.653 65.0275C242.22 65.3283 241.779 65.6072 241.339 65.9154C241.574 65.798 241.809 65.6732 242.044 65.5485C242.279 65.4237 242.514 65.3137 242.741 65.1669C243.189 64.8881 243.659 64.6239 244.085 64.3158C244.305 64.169 244.525 64.0149 244.738 63.8608L245.37 63.3692C245.473 63.2885 245.583 63.2078 245.685 63.1197L245.987 62.8556C246.185 62.6795 246.398 62.5107 246.589 62.3273C246.779 62.1438 246.978 61.9604 247.169 61.7769C247.359 61.5935 247.536 61.3954 247.719 61.2046C247.903 61.0138 248.079 60.8157 248.255 60.6176C248.431 60.4195 248.593 60.214 248.762 60.0086C249.423 59.1867 250.01 58.3356 250.48 57.4037L250.399 57.4991C250.546 57.3964 250.7 57.2863 250.862 57.2129C251.016 57.1395 251.177 57.0808 251.332 57.0808C251.64 57.0588 251.912 57.2349 252.095 57.4771C252.286 57.7192 252.411 58.0274 252.506 58.3356C252.595 58.6511 252.661 58.9813 252.705 59.3188Z" fill="#5B090B"/>
<path d="M244.158 49.4937C244.158 49.4937 240.311 54.5273 241.735 55.7381C243.16 56.9561 244.202 56.9708 245.443 55.9875C247.279 54.542 251.097 50.0734 249.731 48.2683C249.166 47.5199 247.866 47.4392 246.934 47.63C245.274 47.9822 244.298 49.3029 244.158 49.4937Z" fill="#9C5A4A"/>
<path d="M244.136 49.5524C243.615 50.0881 243.16 50.6751 242.77 51.3061C242.58 51.6216 242.411 51.9445 242.257 52.2747C242.102 52.6049 241.985 52.9351 241.867 53.2653C241.632 53.9257 241.42 54.6301 241.508 55.3345C241.552 55.6867 241.713 56.0022 241.941 56.2664C242.168 56.5232 242.469 56.714 242.807 56.8387C243.145 56.9561 243.527 57.0075 243.923 56.9634C244.121 56.9488 244.327 56.8901 244.525 56.8167C244.724 56.736 244.9 56.6406 245.069 56.5305C245.406 56.3104 245.7 56.0609 245.986 55.8041C246.265 55.5473 246.537 55.2758 246.787 54.997C247.815 53.8963 248.674 52.6783 249.32 51.4015C248.49 52.6049 247.565 53.7496 246.515 54.7842C245.986 55.2905 245.443 55.8114 244.848 56.1783C244.547 56.3618 244.254 56.4865 243.945 56.5158C243.63 56.5452 243.321 56.5012 243.042 56.3984C242.763 56.3031 242.513 56.1416 242.323 55.9362C242.139 55.7307 242.014 55.4812 241.963 55.1951C241.911 54.9089 241.926 54.6007 241.978 54.2852C242.036 53.9697 242.124 53.6395 242.22 53.3166C242.323 52.9864 242.425 52.6563 242.543 52.3407C242.668 52.0179 242.807 51.7024 242.969 51.3868C243.299 50.7485 243.688 50.1394 244.136 49.5524Z" fill="#5B090B"/>
<path d="M236.933 59.9205C236.933 59.9205 236.83 55.5473 234.495 54.7622C233.798 54.5274 233.306 54.498 232.961 54.6374C232.792 54.7035 232.586 54.8355 232.41 55.1877C232.043 55.8995 232.219 56.7213 232.315 57.2129C232.44 57.8733 232.748 59.5169 232.564 60.6103C232.373 61.7549 231.647 62.2979 231.133 62.7895C228.607 65.1963 227.579 70.472 229.15 72.5266C229.488 72.9668 230.362 73.8033 231.536 74.4417C231.625 74.4857 231.676 74.4931 231.713 74.5004C233.255 74.8086 235.692 70.4354 236.617 66.9353C237.021 65.4238 237.418 63.017 236.933 59.9205Z" fill="#9C5A4A"/>
<path d="M237.682 102.119L210.148 102.31C209.752 102.31 209.48 101.943 209.62 101.591L214.304 90.4964L215.002 88.8455C216.331 85.6903 219.671 83.4083 223.526 83.2395C223.732 83.2322 223.937 83.2248 224.15 83.2322C224.341 83.2322 224.532 83.2395 224.715 83.2542C228.445 83.4743 231.602 85.6829 232.873 88.7207C233.1 89.2564 233.321 89.792 233.548 90.3277H233.555L238.21 101.385C238.357 101.738 238.086 102.112 237.682 102.119Z" fill="#02102B"/>
<path d="M238.35 101.833C238.35 102.985 233.923 103.976 227.88 104.321C226.602 104.394 225.259 104.431 223.871 104.445C222.667 104.453 221.5 104.431 220.384 104.394C214.069 104.166 209.4 103.213 209.4 102.031C209.4 100.975 213.144 100.05 218.438 99.6391C220.119 99.507 221.955 99.4337 223.879 99.419C226 99.4043 228.012 99.4703 229.826 99.5951C234.855 99.962 238.357 100.813 238.35 101.833Z" fill="#5B090B"/>
<path d="M229.914 100.498C229.914 102.024 229.121 103.396 227.88 104.321C226.867 105.084 225.553 105.546 224.114 105.561C222.689 105.568 221.39 105.135 220.384 104.401C219.121 103.491 218.328 102.119 218.328 100.578C218.328 100.263 218.365 99.9473 218.431 99.6465C220.112 99.5144 221.948 99.441 223.871 99.4263C225.993 99.4117 228.005 99.4777 229.818 99.6024C229.885 99.8886 229.914 100.189 229.914 100.498Z" fill="#FBAE2C"/>
<path d="M225.656 2.59888H222.675V95.2439H225.656V2.59888Z" fill="#02102B"/>
<path d="M273.262 -9.5816H270.281V51.7024H273.262V-9.5816Z" fill="#02102B"/>
<path d="M295.59 76.5109L250.031 76.8338C249.37 76.8411 248.923 76.2247 249.158 75.6451L256.904 57.2863L258.056 54.5567C260.259 49.3323 265.78 45.5534 272.168 45.2819C272.506 45.2672 272.851 45.2599 273.196 45.2673C273.512 45.2673 273.827 45.2819 274.136 45.2966C280.303 45.6561 285.531 49.3176 287.638 54.3439C288.013 55.2318 288.38 56.1196 288.754 57.0075H288.761L296.463 75.3075C296.713 75.8872 296.251 76.5109 295.59 76.5109Z" fill="#02102B"/>
<path d="M296.699 76.0413C296.699 77.9418 289.379 79.5927 279.371 80.1651C277.264 80.2825 275.039 80.3558 272.741 80.3705C270.751 80.3852 268.813 80.3485 266.97 80.2898C256.529 79.9082 248.791 78.338 248.791 76.3788C248.791 74.6325 254.98 73.1063 263.747 72.4239C266.53 72.2111 269.569 72.079 272.756 72.057C276.273 72.035 279.591 72.1377 282.594 72.3505C290.913 72.9448 296.706 74.3536 296.699 76.0413Z" fill="#5B090B"/>
<path d="M282.734 73.8327C282.726 76.3568 281.427 78.6241 279.371 80.1651C277.697 81.4198 275.516 82.1976 273.137 82.2122C270.788 82.2269 268.622 81.5078 266.963 80.2898C264.877 78.7929 263.563 76.5182 263.563 73.9721C263.563 73.4438 263.615 72.9301 263.739 72.4312C266.522 72.2184 269.562 72.0863 272.748 72.0643C276.265 72.0423 279.584 72.145 282.587 72.3578C282.682 72.8274 282.734 73.3264 282.734 73.8327Z" fill="#FBAE2C"/>
<path d="M333.748 98.7146L306.215 98.9054C305.818 98.9054 305.547 98.5385 305.686 98.1863L310.371 87.0918L311.068 85.4408C312.397 82.2856 315.738 80.0036 319.592 79.8348C319.798 79.8275 320.004 79.8202 320.216 79.8275C320.407 79.8275 320.598 79.8348 320.782 79.8495C324.512 80.0696 327.669 82.2783 328.939 85.3161C329.167 85.8517 329.387 86.3873 329.614 86.923H329.622L334.277 97.9808C334.424 98.3404 334.152 98.7146 333.748 98.7146Z" fill="#02102B"/>
<path d="M334.424 98.4357C334.424 99.5878 330.004 100.578 323.954 100.923C322.676 100.997 321.332 101.033 319.945 101.048C318.741 101.055 317.573 101.033 316.457 100.997C310.143 100.769 305.473 99.8152 305.473 98.6339C305.473 97.5772 309.218 96.6527 314.511 96.2418C316.193 96.1097 318.028 96.0363 319.952 96.0217C322.074 96.007 324.086 96.073 325.899 96.1978C330.921 96.5573 334.424 97.4085 334.424 98.4357Z" fill="#5B090B"/>
<path d="M325.98 97.1003C325.98 98.6265 325.187 99.9987 323.946 100.923C322.933 101.686 321.619 102.149 320.179 102.163C318.755 102.171 317.455 101.738 316.45 101.004C315.187 100.094 314.394 98.7219 314.394 97.181C314.394 96.8655 314.431 96.55 314.497 96.2491C316.178 96.117 318.014 96.0437 319.937 96.029C322.059 96.0143 324.071 96.0804 325.884 96.2051C325.95 96.4913 325.98 96.7921 325.98 97.1003Z" fill="#FBAE2C"/>
<path d="M320.201 8.68912H317.22V91.8466H320.201V8.68912Z" fill="#02102B"/>
<path d="M327.074 5.43853C300.194 5.43853 279.496 -7.13818 272.044 -12.3773C260.81 -6.16227 242.968 0.991924 220.421 0.991924C220.384 0.991924 220.354 0.991924 220.318 0.991924C194.906 0.969912 175.354 -8.02603 163.43 -15.5618L165.023 -18.0786C176.617 -10.7483 195.618 -2.01651 220.318 -1.98716C220.354 -1.98716 220.384 -1.98716 220.421 -1.98716C242.888 -1.98716 260.538 -9.29545 271.405 -15.4371L272.242 -15.9067L273.02 -15.349C280.832 -9.69902 309.056 8.15346 344.306 0.639715C364.446 -3.6528 378.697 -14.4024 387.104 -22.6573L389.196 -20.5294C380.503 -11.9957 365.767 -0.886513 344.93 3.55276C338.74 4.87353 332.771 5.43853 327.074 5.43853Z" fill="#02102B"/>
<path d="M207.909 338.244C212.983 340.057 211.676 347.725 206.294 347.505C206.162 347.497 206.03 347.49 205.905 347.475C194.4 346.132 194.444 344.137 188.842 344.658C183.438 345.157 181.375 347.204 175.501 346.485C172.711 346.14 170.413 345.333 168.9 344.702C168.9 344.694 168.893 344.694 168.893 344.694C168.893 344.694 168.445 343.513 168.438 342.808C168.386 338.068 168.504 334.979 169.091 332.484C169.414 331.112 169.869 330.268 170.53 327.546C170.596 327.267 170.868 326.123 171.154 324.479C171.213 324.134 171.272 323.767 171.33 323.386C171.441 322.718 171.536 321.992 171.617 321.221C171.661 320.862 171.705 320.495 171.734 320.12C171.742 320.069 171.742 320.01 171.749 319.959C172.278 313.935 171.624 308.432 171.037 304.946C176.316 306.656 181.58 308.366 186.852 310.083C186.118 314.749 186.309 318.448 186.742 321.162C186.808 321.559 186.867 321.94 186.947 322.292C187.08 322.975 187.226 323.576 187.373 324.105C187.417 324.259 187.461 324.406 187.505 324.545C187.645 325.015 187.77 325.374 187.894 325.668C188.049 326.027 188.144 326.321 188.364 326.556C193.989 332.411 201.551 335.97 207.909 338.244Z" fill="#9C5A4A"/>
<path d="M218.871 341.62C218.651 342.684 218.277 344.056 217.609 345.399C217.609 345.406 217.609 345.406 217.601 345.406C216.639 346.595 215.531 347.519 215.421 347.607C213.695 349.016 211.911 349.706 210.031 350.153C208.086 350.146 205.266 349.816 201.037 348.921C197.359 348.143 194.973 347.394 193.225 346.749C189.818 345.494 188.776 344.628 185.134 344.68C183.276 344.709 181.771 344.958 180.369 345.223C177.748 345.714 175.464 346.25 171.867 345.465C169.245 344.892 167.19 343.887 165.853 343.117C165.853 343.109 165.846 343.109 165.846 343.109C165.861 343.08 165.875 343.043 165.89 343.007C165.993 342.786 166.103 342.544 166.198 342.287L166.206 342.28V342.273C166.213 342.258 166.22 342.243 166.228 342.221C166.756 340.725 167.256 339.008 167.645 337.092C168.056 335.053 168.262 333.159 168.357 331.442C168.401 330.518 168.408 329.645 168.394 328.838C171.874 329.381 173.812 330.657 174.95 331.751C175.655 332.433 176.551 333.541 178.21 334.033C178.695 334.179 179.84 334.524 180.971 334.099C182.447 333.541 182.917 332.022 183.82 330.305C183.952 330.048 184.106 329.777 184.275 329.491L184.282 329.476C185.031 328.207 186.14 326.666 187.814 325.044C188.357 325.682 189.003 326.416 189.767 327.187C190.061 327.48 190.362 327.788 190.692 328.089C191.103 328.485 191.536 328.882 192.006 329.293C192.043 329.329 192.087 329.366 192.131 329.403C192.814 329.99 193.482 330.525 194.121 331.017C195.002 331.677 195.832 332.25 196.573 332.734C197.072 333.049 197.528 333.328 197.939 333.57C197.99 333.592 198.034 333.622 198.078 333.651C198.534 333.908 198.93 334.128 199.238 334.289C199.437 334.4 199.605 334.48 199.738 334.546C200.252 334.81 200.729 335.031 201.191 335.236C201.735 335.478 202.249 335.684 202.777 335.882C203.291 336.073 203.805 336.249 204.356 336.425C206.03 336.975 208.027 337.547 211.169 338.655C211.184 338.67 211.206 338.67 211.228 338.677C212.638 339.176 213.923 339.653 215.076 340.094C216.603 340.688 217.888 341.209 218.871 341.62Z" fill="#250705"/>
<path d="M218.871 341.62C218.651 342.684 218.277 344.056 217.609 345.399C217.609 345.406 217.609 345.406 217.601 345.406C216.639 346.595 215.531 347.519 215.421 347.607C213.695 349.016 211.911 349.706 210.031 350.153C208.086 350.146 205.266 349.816 201.037 348.921C197.359 348.143 194.973 347.394 193.225 346.749C193.291 346.653 193.365 346.573 193.438 346.477C198.049 341.018 206.067 346.279 207.799 343.014C208.967 340.813 210.362 339.367 211.155 338.663C211.169 338.677 211.192 338.677 211.214 338.685C212.623 339.184 213.908 339.661 215.061 340.101C216.603 340.688 217.888 341.209 218.871 341.62Z" fill="#5B090B"/>
<path d="M217.608 345.399C217.608 345.406 217.609 345.406 217.601 345.406C216.639 346.595 215.531 347.519 215.421 347.607C213.695 349.016 211.911 349.706 210.031 350.153C209.062 350.381 208.078 350.557 207.065 350.718C205.215 351.019 203.783 351.012 203.122 351.027C195.582 351.203 191.779 351.261 189.98 349.757C188.864 348.825 188.717 348.158 187.638 347.805C186.096 347.299 185.009 348.759 182.256 349.574C181.03 349.933 179.95 349.97 177.828 350.021C173.636 350.117 169.517 349.691 166.257 349.192C165.978 348.561 164.884 345.927 165.853 343.124C165.868 343.087 165.875 343.051 165.897 343.014C165.949 342.867 166.007 342.72 166.073 342.574C166.117 342.478 166.162 342.39 166.206 342.295C166.206 342.288 166.206 342.28 166.213 342.28C166.22 342.265 166.228 342.251 166.235 342.229C166.631 341.451 167.131 340.842 167.571 340.409C168.915 340.548 170.809 340.776 173.078 341.091C179.488 342.001 182.689 342.449 186.265 343.616C190.413 344.966 190.677 345.766 195.56 347.145C197.777 347.769 199.671 348.158 201.602 348.392C204.503 348.745 207.028 348.994 209.892 348.04C213.262 346.918 216.47 344.298 216.089 342.669C215.854 341.664 214.246 340.996 214.488 340.424C214.517 340.343 214.628 340.233 215.061 340.108C216.243 339.763 218.306 340.387 218.871 341.634C219.385 342.757 218.578 344.21 217.608 345.399Z" fill="#5B090B"/>
<path d="M188.071 331.369C188.063 331.824 187.681 332.184 187.226 332.176C186.771 332.169 186.411 331.787 186.419 331.332C186.426 330.877 186.808 330.518 187.263 330.525C187.718 330.533 188.085 330.914 188.071 331.369Z" fill="white"/>
<path d="M204.341 336.425C203.21 338.487 201.837 338.457 201.837 338.457C185.516 328.691 184.275 329.491 184.275 329.491L184.282 329.476C184.495 328.683 184.877 327.62 185.567 326.482C186.33 325.227 187.19 324.347 187.843 323.782C189.091 325.624 190.846 327.84 193.217 329.975C193.217 329.975 196.147 332.624 199.238 334.282C199.488 334.414 199.737 334.539 199.737 334.539C200.251 334.803 200.729 335.023 201.191 335.229C201.734 335.471 202.248 335.676 202.777 335.874C203.276 336.073 203.79 336.249 204.341 336.425Z" fill="#5B090B"/>
<path d="M187.799 331.362C187.792 331.67 187.542 331.905 187.234 331.897C186.925 331.89 186.69 331.641 186.698 331.332C186.705 331.032 186.955 330.789 187.263 330.797C187.564 330.804 187.806 331.061 187.799 331.362Z" fill="#02102D"/>
<path d="M193.497 335.361C193.489 335.816 193.107 336.175 192.652 336.168C192.197 336.161 191.837 335.779 191.845 335.324C191.852 334.869 192.234 334.51 192.689 334.517C193.144 334.524 193.504 334.906 193.497 335.361Z" fill="white"/>
<path d="M193.218 335.353C193.21 335.654 192.961 335.896 192.652 335.889C192.351 335.882 192.109 335.632 192.116 335.324C192.124 335.023 192.373 334.781 192.682 334.788C192.983 334.796 193.225 335.053 193.218 335.353Z" fill="#02102D"/>
<path d="M198.959 337.701C198.952 338.156 198.57 338.516 198.115 338.509C197.66 338.501 197.3 338.12 197.307 337.665C197.315 337.21 197.696 336.85 198.152 336.858C198.607 336.865 198.967 337.239 198.959 337.701Z" fill="white"/>
<path d="M198.68 337.694C198.673 337.995 198.423 338.237 198.115 338.23C197.807 338.222 197.572 337.973 197.579 337.665C197.586 337.364 197.836 337.122 198.144 337.129C198.453 337.136 198.688 337.386 198.68 337.694Z" fill="#02102D"/>
<path d="M187.109 331.758C187.021 331.758 186.933 331.721 186.874 331.641C186.815 331.553 186.808 331.442 186.852 331.347C187.432 330.261 189.73 326.71 189.826 326.563C189.906 326.438 190.075 326.402 190.207 326.482C190.332 326.563 190.369 326.739 190.288 326.864C190.266 326.893 188.46 329.681 187.63 331.09C187.799 331.054 187.961 331.01 188.13 330.966C188.541 330.848 189.011 330.672 189.488 330.459C190.34 330.078 191.294 329.535 192.241 328.896C192.366 328.808 192.542 328.845 192.623 328.97C192.711 329.094 192.674 329.271 192.55 329.351C191.573 330.012 190.597 330.569 189.708 330.966C189.209 331.186 188.717 331.369 188.276 331.494C187.902 331.604 187.52 331.685 187.138 331.751C187.138 331.758 187.124 331.758 187.109 331.758Z" fill="#02102D"/>
<path d="M192.733 335.53L192.608 335.397C191.463 334.194 192.425 330.012 192.535 329.542C192.572 329.395 192.719 329.3 192.865 329.337C193.012 329.373 193.108 329.52 193.071 329.667C192.799 330.811 192.263 333.864 192.902 334.876C193.203 334.759 193.504 334.612 193.783 334.444C194.642 333.937 195.376 333.24 195.956 332.374C196.045 332.25 196.213 332.213 196.338 332.301C196.463 332.389 196.5 332.558 196.412 332.682C195.788 333.622 194.995 334.37 194.062 334.921C193.695 335.141 193.299 335.324 192.902 335.463L192.733 335.53Z" fill="#02102D"/>
<path d="M198.195 338.017C197.946 338.024 197.718 337.922 197.52 337.724C196.36 336.505 196.918 333.167 196.947 333.02C196.977 332.873 197.116 332.771 197.263 332.793C197.41 332.815 197.513 332.961 197.491 333.108C197.336 333.996 197.116 336.491 197.924 337.335C198.049 337.467 198.151 337.467 198.225 337.452C198.871 337.342 199.84 335.72 200.295 334.715C200.361 334.576 200.523 334.517 200.662 334.576C200.802 334.642 200.861 334.803 200.802 334.943C200.67 335.236 199.466 337.797 198.32 337.988C198.276 338.01 198.232 338.017 198.195 338.017Z" fill="#02102D"/>
<path d="M144.869 339.008C149.964 340.747 148.767 348.429 143.386 348.29C143.253 348.29 143.121 348.275 142.996 348.268C131.477 347.086 131.484 345.09 125.896 345.692C120.5 346.272 118.466 348.341 112.585 347.703C109.795 347.402 107.482 346.624 105.962 346.015C105.962 346.008 105.955 346.008 105.955 346.008C105.955 346.008 105.485 344.834 105.47 344.129C105.353 339.389 105.426 336.3 105.984 333.798C106.285 332.418 106.726 331.575 107.35 328.845C107.416 328.566 107.666 327.421 107.93 325.763C107.989 325.418 108.04 325.051 108.092 324.67C108.187 324.002 108.275 323.268 108.349 322.498C108.393 322.138 108.422 321.771 108.451 321.397C108.459 321.346 108.459 321.287 108.466 321.236C108.907 315.204 108.18 309.716 107.541 306.238C112.842 307.874 118.136 309.51 123.429 311.147C122.761 315.821 123.004 319.519 123.473 322.226C123.54 322.623 123.613 322.997 123.694 323.349C123.841 324.024 123.987 324.626 124.142 325.154C124.186 325.308 124.23 325.455 124.281 325.594C124.421 326.064 124.56 326.424 124.685 326.71C124.846 327.069 124.949 327.363 125.17 327.59C130.867 333.365 138.481 336.821 144.869 339.008Z" fill="#9C5A4A"/>
<path d="M155.882 342.229C155.677 343.3 155.324 344.672 154.671 346.022C154.671 346.03 154.671 346.03 154.663 346.037C153.716 347.233 152.622 348.18 152.512 348.268C150.809 349.699 149.032 350.418 147.16 350.887C145.214 350.909 142.387 350.616 138.151 349.779C134.458 349.053 132.064 348.334 130.309 347.717C126.88 346.507 125.83 345.663 122.189 345.766C120.331 345.817 118.833 346.088 117.431 346.375C114.817 346.903 112.541 347.475 108.936 346.734C106.3 346.198 104.237 345.223 102.893 344.474C102.893 344.467 102.886 344.467 102.886 344.467C102.901 344.437 102.915 344.401 102.93 344.364C103.025 344.137 103.136 343.894 103.231 343.638L103.238 343.63V343.616C103.246 343.601 103.253 343.586 103.26 343.564C103.767 342.06 104.244 340.336 104.604 338.413C104.986 336.373 105.169 334.473 105.236 332.756C105.265 331.831 105.265 330.958 105.243 330.151C108.73 330.65 110.691 331.89 111.836 332.976C112.556 333.651 113.466 334.737 115.125 335.214C115.617 335.353 116.763 335.684 117.886 335.243C119.355 334.664 119.802 333.137 120.684 331.413C120.816 331.156 120.963 330.877 121.124 330.599L121.131 330.584C121.858 329.307 122.945 327.744 124.597 326.101C125.148 326.732 125.808 327.451 126.579 328.214C126.873 328.5 127.189 328.801 127.512 329.109C127.93 329.498 128.371 329.887 128.841 330.29C128.877 330.327 128.922 330.364 128.966 330.393C129.656 330.973 130.331 331.501 130.977 331.978C131.866 332.624 132.703 333.189 133.452 333.658C133.958 333.967 134.413 334.238 134.832 334.48C134.883 334.502 134.927 334.532 134.972 334.561C135.434 334.81 135.831 335.031 136.139 335.185C136.345 335.295 136.506 335.368 136.638 335.434C137.152 335.691 137.637 335.904 138.099 336.102C138.65 336.337 139.164 336.535 139.693 336.726C140.207 336.909 140.728 337.078 141.286 337.247C142.967 337.768 144.972 338.318 148.129 339.382C148.143 339.396 148.165 339.396 148.188 339.404C149.597 339.881 150.897 340.343 152.057 340.769C153.599 341.334 154.891 341.833 155.882 342.229Z" fill="#250705"/>
<path d="M155.882 342.229C155.676 343.3 155.324 344.672 154.671 346.022C154.671 346.03 154.671 346.03 154.663 346.037C153.716 347.233 152.622 348.18 152.512 348.268C150.809 349.699 149.032 350.418 147.159 350.887C145.214 350.909 142.387 350.616 138.151 349.779C134.457 349.053 132.064 348.334 130.309 347.717C130.375 347.622 130.449 347.534 130.522 347.446C135.06 341.921 143.143 347.072 144.832 343.784C145.97 341.568 147.343 340.101 148.129 339.382C148.143 339.396 148.165 339.396 148.187 339.404C149.597 339.881 150.897 340.343 152.057 340.769C153.599 341.334 154.891 341.833 155.882 342.229Z" fill="#5B090B"/>
<path d="M154.663 346.022C154.663 346.03 154.663 346.03 154.656 346.037C153.709 347.233 152.615 348.18 152.505 348.268C150.801 349.699 149.025 350.418 147.152 350.887C146.19 351.129 145.207 351.313 144.193 351.489C142.35 351.812 140.911 351.834 140.258 351.856C132.725 352.142 128.922 352.252 127.093 350.77C125.963 349.853 125.808 349.185 124.722 348.847C123.173 348.363 122.108 349.838 119.369 350.689C118.151 351.071 117.071 351.122 114.949 351.195C110.757 351.349 106.638 350.983 103.371 350.528C103.084 349.904 101.954 347.284 102.886 344.459C102.901 344.423 102.908 344.386 102.923 344.349C102.974 344.203 103.033 344.056 103.092 343.902C103.128 343.806 103.18 343.718 103.224 343.623C103.224 343.616 103.224 343.608 103.231 343.608C103.238 343.594 103.246 343.579 103.253 343.557C103.642 342.772 104.127 342.163 104.56 341.715C105.904 341.84 107.798 342.031 110.074 342.324C116.491 343.146 119.7 343.55 123.297 344.658C127.468 345.949 127.739 346.741 132.644 348.062C134.876 348.657 136.77 349.016 138.701 349.222C141.609 349.53 144.135 349.743 146.983 348.752C150.339 347.585 153.511 344.922 153.107 343.3C152.857 342.302 151.242 341.649 151.477 341.077C151.506 340.996 151.609 340.886 152.05 340.754C153.224 340.387 155.295 340.989 155.882 342.229C156.411 343.351 155.618 344.819 154.663 346.022Z" fill="#5B090B"/>
<path d="M124.935 332.411C124.927 332.866 124.553 333.233 124.098 333.233C123.642 333.225 123.275 332.851 123.275 332.396C123.283 331.941 123.657 331.575 124.112 331.575C124.575 331.582 124.942 331.956 124.935 332.411Z" fill="white"/>
<path d="M141.278 337.239C140.177 339.316 138.804 339.308 138.804 339.308C122.343 329.769 121.117 330.591 121.117 330.591L121.124 330.577C121.33 329.784 121.689 328.713 122.365 327.568C123.106 326.306 123.958 325.411 124.597 324.831C125.874 326.658 127.659 328.845 130.052 330.951C130.052 330.951 133.018 333.556 136.132 335.177C136.381 335.309 136.631 335.427 136.631 335.427C137.145 335.684 137.629 335.896 138.092 336.095C138.643 336.329 139.157 336.527 139.685 336.718C140.206 336.894 140.72 337.063 141.278 337.239Z" fill="#5B090B"/>
<path d="M124.663 332.411C124.663 332.719 124.414 332.961 124.105 332.954C123.797 332.954 123.555 332.705 123.562 332.396C123.562 332.096 123.812 331.846 124.12 331.853C124.421 331.853 124.663 332.103 124.663 332.411Z" fill="#02102D"/>
<path d="M130.412 336.322C130.404 336.777 130.03 337.144 129.575 337.144C129.12 337.136 128.752 336.762 128.752 336.307C128.76 335.852 129.134 335.485 129.589 335.485C130.052 335.493 130.419 335.867 130.412 336.322Z" fill="white"/>
<path d="M130.141 336.322C130.141 336.623 129.891 336.872 129.583 336.865C129.274 336.865 129.032 336.615 129.039 336.307C129.039 335.999 129.289 335.757 129.597 335.764C129.898 335.772 130.141 336.021 130.141 336.322Z" fill="#02102D"/>
<path d="M135.911 338.582C135.904 339.037 135.529 339.404 135.074 339.404C134.619 339.396 134.252 339.022 134.252 338.567C134.259 338.112 134.634 337.745 135.089 337.745C135.552 337.753 135.919 338.127 135.911 338.582Z" fill="white"/>
<path d="M135.633 338.582C135.633 338.883 135.383 339.132 135.074 339.125C134.766 339.125 134.524 338.875 134.531 338.567C134.531 338.266 134.781 338.017 135.089 338.024C135.398 338.032 135.64 338.281 135.633 338.582Z" fill="#02102D"/>
<path d="M123.98 332.815C123.892 332.822 123.804 332.778 123.745 332.705C123.679 332.616 123.672 332.506 123.723 332.411C124.289 331.318 126.535 327.737 126.631 327.583C126.711 327.451 126.88 327.414 127.013 327.495C127.145 327.576 127.181 327.744 127.101 327.876C127.079 327.906 125.316 330.716 124.501 332.14C124.67 332.096 124.832 332.051 125.001 332.007C125.412 331.883 125.874 331.699 126.352 331.487C127.203 331.09 128.143 330.54 129.083 329.887C129.208 329.799 129.377 329.828 129.465 329.953C129.553 330.078 129.524 330.246 129.399 330.335C128.437 331.01 127.46 331.582 126.579 331.985C126.087 332.213 125.595 332.404 125.155 332.536C124.78 332.646 124.399 332.741 124.017 332.807C124.002 332.815 123.995 332.815 123.98 332.815Z" fill="#02102D"/>
<path d="M129.656 336.498L129.531 336.366C128.364 335.177 129.267 330.98 129.377 330.511C129.414 330.364 129.56 330.268 129.707 330.305C129.854 330.342 129.95 330.489 129.913 330.635C129.656 331.787 129.164 334.84 129.81 335.845C130.111 335.72 130.405 335.574 130.691 335.397C131.543 334.876 132.262 334.172 132.835 333.299C132.916 333.167 133.092 333.137 133.217 333.218C133.342 333.299 133.378 333.475 133.298 333.6C132.688 334.546 131.903 335.309 130.977 335.867C130.61 336.087 130.221 336.278 129.825 336.432L129.656 336.498Z" fill="#02102D"/>
<path d="M135.148 338.912C134.898 338.927 134.663 338.824 134.472 338.626C133.298 337.43 133.812 334.077 133.834 333.93C133.856 333.783 134.002 333.68 134.149 333.702C134.303 333.724 134.406 333.864 134.377 334.018C134.237 334.913 134.054 337.408 134.869 338.237C134.994 338.362 135.096 338.362 135.17 338.355C135.816 338.237 136.763 336.601 137.204 335.596C137.262 335.456 137.431 335.39 137.571 335.456C137.71 335.515 137.776 335.676 137.71 335.823C137.578 336.117 136.411 338.699 135.273 338.905C135.229 338.905 135.192 338.912 135.148 338.912Z" fill="#02102D"/>
<path d="M192.219 324.949C189.693 325.528 183.24 325.697 179.444 325.814C175.684 325.932 169.473 326.247 166.918 325.837C165.684 316.753 163.724 302.077 161.228 285.641C159.987 277.518 158.944 268.632 158.261 259.035C157.703 251.11 158.041 252.086 157.578 248.006C157.204 244.734 156.705 241.681 156.103 238.79C152.835 223.176 146.528 212.58 140.831 200.084C137.351 192.453 134.091 184.11 131.903 173.47C131.807 173.001 131.712 172.524 131.616 172.04C130.904 168.363 129.928 162.413 129.568 154.884C132.152 154.737 134.744 154.591 137.321 154.444C149.091 153.776 179.759 152.426 180.442 159.456C182.439 180.17 184.715 213.255 186.947 237.77C188.188 251.462 191.514 310.926 192.219 324.949Z" fill="#FBAE2C"/>
<path d="M161.103 285.868C159.92 277.746 158.937 268.86 158.291 259.262C157.762 251.337 158.085 252.313 157.644 248.234C155.376 227.248 148.166 215.119 141.763 200.312C145.111 191.983 148.467 183.655 151.815 175.327C158.716 188.946 168.592 213.329 168.019 244.558C167.696 261.185 164.509 275.243 161.103 285.868Z" fill="black"/>
<path d="M161.308 208.185C160.721 216.608 159.987 226.624 157.968 238.79C157.292 242.848 156.477 247.133 155.479 251.682C151.778 268.508 147.424 280.732 146.404 283.542C142.241 294.996 138.599 309.363 129.825 326.401L102.203 323.665C102.203 323.665 122.512 244.528 122.938 155.251C122.938 154.767 136.829 154.187 140.148 154.451C147.197 155.009 154.252 155.567 161.308 156.117C161.749 162.442 161.998 168.481 162.123 174.212C162.402 187.265 161.969 198.705 161.308 208.185Z" fill="#FBAE2C"/>
<path d="M178.049 173.522C176.72 173.771 164.304 175.738 158.393 176.376C140.589 178.291 135.082 178.247 132.108 178.262C126.932 178.291 123.731 178.864 123.525 174.945C122.798 160.857 123.716 108.716 128.32 98.5825C129.59 95.7942 130.867 92.5877 134.81 89.3004C140.177 84.8318 154.708 82.0802 158.482 82.1535C164.032 82.2636 170.082 82.9533 172.828 84.8244C177.608 92.2795 178.57 97.68 179.539 105.407C182.659 130.237 179.715 164.071 178.049 173.522Z" fill="#6E92CC"/>
<path d="M135.442 102.897C135.442 102.897 153.048 104.401 153.225 115.716C153.401 127.031 146.55 131.565 146.55 131.565L135.442 102.897Z" fill="black"/>
<path d="M122.652 180.074C122.652 180.074 122.769 149.638 123.826 131.213C123.826 131.213 127.696 135.278 140.405 133.304C153.114 131.33 155.545 115.283 153.555 108.334C149.833 95.3026 142.292 85.4408 142.292 85.4408L146.896 84.0833C149.407 86.879 150.581 88.8308 152.784 92.5583C156.132 98.2083 158.32 103.756 160.376 108.276C164.187 108.305 170.538 108.415 174.348 108.437C174.01 103.858 173.416 98.8614 172.461 93.5416C171.808 89.9388 171.36 86.9597 170.545 83.7972C172.028 84.2081 173.915 84.9492 175.53 86.3727C177.072 92.3822 177.953 98.5312 179.201 107.894C179.546 110.484 180.758 119.986 180.956 134.838C181.096 145.653 180.707 159.918 178.658 176.787L122.652 180.074Z" fill="#FBAE2C"/>
<path d="M174.348 108.444L179.356 108.525L178.739 103.638L173.842 103.396L174.348 108.444Z" fill="black"/>
<path d="M160.376 108.283L158.393 103.719L152.351 104.827L153.827 109.428L160.376 108.283Z" fill="black"/>
<path d="M171.015 323.525C169.385 323.525 169.333 323.393 169.275 323.261C169.106 322.872 167.072 311.704 166.455 308.285C166.418 308.087 166.551 307.896 166.749 307.859C166.954 307.83 167.138 307.955 167.175 308.153C168.144 313.502 169.605 321.449 169.906 322.806C171.514 322.924 182.336 322.263 189.524 321.764C189.723 321.742 189.899 321.904 189.913 322.102C189.928 322.307 189.774 322.476 189.576 322.491C178.137 323.29 173.181 323.525 171.015 323.525Z" fill="black"/>
<path d="M127.475 324.303C127.461 324.303 127.446 324.303 127.431 324.303L106.205 321.94C105.867 321.904 105.574 321.72 105.383 321.441C105.192 321.162 105.14 320.818 105.228 320.495L109.032 306.971C109.083 306.773 109.296 306.663 109.487 306.715C109.685 306.773 109.795 306.971 109.744 307.17L105.941 320.693C105.911 320.81 105.926 320.928 105.992 321.03C106.058 321.133 106.168 321.192 106.286 321.206L127.512 323.569C127.71 323.591 127.857 323.775 127.835 323.973C127.813 324.164 127.659 324.303 127.475 324.303Z" fill="black"/>
<path d="M125.353 186.341C125.192 186.341 125.052 186.238 125.001 186.077C124.942 185.886 125.052 185.68 125.251 185.622C137.057 182.114 138.892 171.783 138.914 171.673C138.944 171.475 139.135 171.335 139.333 171.372C139.531 171.401 139.671 171.592 139.634 171.79C139.619 171.9 137.703 182.679 125.456 186.319C125.419 186.341 125.383 186.341 125.353 186.341Z" fill="black"/>
<path d="M161.169 93.2114C155.5 93.2114 153.937 91.9713 153.863 91.9126C153.709 91.7805 153.687 91.5531 153.812 91.399C153.944 91.2449 154.171 91.2229 154.326 91.3476C154.34 91.3549 155.978 92.573 161.866 92.4703C167.777 92.3675 170.207 88.9922 170.229 88.9555C170.346 88.7868 170.574 88.7501 170.743 88.8675C170.912 88.9849 170.948 89.2124 170.838 89.3738C170.736 89.5279 168.195 93.0866 161.888 93.204C161.646 93.2114 161.404 93.2114 161.169 93.2114Z" fill="black"/>
<path d="M156.8 121.997L156.638 115.547L177.542 115.026L177.703 121.476L156.8 121.997ZM157.387 116.266L157.512 121.248L176.954 120.764L176.83 115.782L157.387 116.266Z" fill="black"/>
<path d="M164.436 138.47C164.238 138.47 164.076 138.308 164.069 138.11C164.062 137.905 164.223 137.736 164.429 137.736L169.913 137.597C173.379 137.509 176.103 133.627 175.985 128.938L175.794 121.315C175.787 121.109 175.949 120.94 176.154 120.94C176.382 120.94 176.529 121.094 176.529 121.3L176.719 128.924C176.844 134.016 173.797 138.242 169.928 138.338L164.443 138.477C164.443 138.47 164.443 138.47 164.436 138.47Z" fill="black"/>
<path d="M152.542 168.833C152.182 168.833 151.822 168.833 151.462 168.833C141.044 168.782 131.668 168.187 122.806 167.021C122.608 166.991 122.461 166.808 122.49 166.61C122.519 166.412 122.703 166.265 122.901 166.294C131.734 167.461 141.081 168.055 151.47 168.107C161.272 168.158 171.184 167.564 180.912 166.353C181.11 166.324 181.294 166.47 181.323 166.668C181.345 166.867 181.206 167.05 181.008 167.079C171.602 168.246 162.028 168.833 152.542 168.833Z" fill="black"/>
<path d="M152.395 163.748C152.035 163.748 151.683 163.748 151.323 163.748C141.852 163.704 133.085 163.058 122.894 161.672C122.696 161.642 122.556 161.459 122.578 161.261C122.608 161.063 122.791 160.916 122.989 160.945C133.144 162.332 141.881 162.97 151.323 163.014C161.088 163.058 170.971 162.457 180.677 161.209C180.883 161.187 181.059 161.327 181.088 161.525C181.118 161.723 180.971 161.906 180.773 161.936C171.397 163.139 161.852 163.748 152.395 163.748Z" fill="black"/>
<path d="M162.153 202.557C162.145 202.557 162.138 202.557 162.138 202.557C161.932 202.55 161.778 202.373 161.785 202.175L162.314 190.831C162.321 190.626 162.498 190.464 162.696 190.479C162.901 190.486 163.056 190.663 163.048 190.861L162.52 202.205C162.505 202.403 162.343 202.557 162.153 202.557Z" fill="black"/>
<path d="M181.441 68.4835C179.752 69.2246 176.477 70.8756 173.357 74.1628C172.733 74.8232 172.109 75.5497 171.514 76.3568C168.034 81.0015 169.899 84.5823 169.583 86.8056C164.421 91.7218 159.047 91.6191 154.443 89.0949C150.713 87.0551 149.127 83.9439 149.201 83.1735L157.857 63.8021L171.558 66.5317L181.441 68.4835Z" fill="#9C5A4A"/>
<path d="M179.495 69.5108C177.806 70.2519 174.524 73.0989 171.404 76.3861C169.003 75.1901 164.091 72.1964 161.514 68.2267C164.913 68.5129 166.903 67.6911 170.303 67.9772L179.495 69.5108Z" fill="#5B090B"/>
<path d="M182.814 73.0622C181.859 75.8505 174.135 74.9847 165.537 70.6775C156.947 66.3629 156.059 56.6039 157.013 52.3627C158.034 47.8281 166.257 36.961 177.615 45.1205C177.615 45.1205 186.051 59.128 185.934 61.1899C185.809 63.2518 182.123 62.8922 182.123 62.8922C182.123 62.8922 182.402 64.1176 182.659 65.7686C182.755 66.3776 182.85 67.0454 182.931 67.7278C183.151 69.7163 183.232 71.8295 182.814 73.0622Z" fill="#9C5A4A"/>
<path d="M179.723 55.4005C179.745 56.2957 179.378 57.0295 178.9 57.0368C178.43 57.0441 178.034 56.3324 178.012 55.4372C177.99 54.542 178.357 53.8082 178.834 53.8009C179.311 53.7936 179.701 54.5053 179.723 55.4005Z" fill="black"/>
<path d="M174.473 54.7035C174.26 54.7035 174.054 54.6154 173.907 54.4393C173.65 54.1311 173.687 53.6688 173.995 53.4047C174.612 52.8837 175.295 52.4434 176.015 52.0912C177.402 51.4162 178.981 51.0786 180.574 51.0933C180.978 51.1007 181.301 51.4309 181.301 51.8344C181.294 52.238 180.971 52.5609 180.567 52.5609C180.508 52.5609 180.464 52.5609 180.42 52.5609C179.091 52.5609 177.828 52.847 176.668 53.412C176.051 53.7129 175.479 54.0871 174.95 54.5273C174.81 54.6447 174.642 54.7035 174.473 54.7035Z" fill="#250705"/>
<path d="M182.931 67.7204C182.366 67.7718 181.382 67.7351 180.391 67.2141C179.297 66.6418 179.025 66.1502 178.812 65.7466L182.652 65.7613C182.748 66.3703 182.85 67.038 182.931 67.7204Z" fill="white"/>
<path d="M158.144 40.0795C155.288 41.4443 153.217 44.306 152.857 47.4392C152.593 49.7212 153.188 52.0252 153.973 54.1898C154.759 56.3617 155.75 58.4603 156.33 60.6909C156.91 62.9216 157.204 64.6386 156.308 66.7518C159.15 66.95 161.83 66.7225 164.186 65.1669C166.543 63.6113 168.452 61.4614 170.031 59.128C171.382 57.1322 172.513 54.9529 173.063 52.6122C173.614 50.2642 173.555 47.7253 172.601 45.502C172.145 44.4381 171.477 43.4622 170.64 42.6477C170.222 42.2441 169.759 41.8772 169.267 41.5691C168.768 41.2609 168.232 41.0774 167.711 40.8059C167.322 40.6005 166.984 40.3217 166.587 40.1309C166.088 39.8887 165.559 39.698 165.023 39.5439C163.951 39.243 162.835 39.1183 161.727 39.177C160.625 39.2357 159.524 39.4778 158.511 39.9034C158.401 39.9621 158.269 40.0208 158.144 40.0795Z" fill="#250705"/>
<path d="M165.515 50.2421C162.343 49.2149 159.531 46.2725 158.606 41.6424C160.545 42.7871 162.6 43.5649 164.744 43.9685C162.211 42.4129 160.06 39.83 158.525 36.5061C159.825 37.8195 161.631 37.8709 163.364 37.4013C165.089 36.9243 166.807 35.9704 168.533 35.3834C171.271 34.4442 174.032 34.4442 176.543 35.3834C177.703 35.8163 178.834 36.4694 179.664 37.6581C180.501 38.8395 181.007 40.6225 180.802 42.545C180.618 44.2106 179.906 45.8102 179.018 46.9842C178.107 48.1803 177.013 48.9067 175.934 49.4423C175.156 49.8312 174.37 49.9266 173.592 50.1174C172.292 50.4403 170.992 50.6751 169.708 50.7411C168.437 50.8071 167.182 50.7117 165.978 50.3816C165.809 50.3302 165.662 50.2862 165.515 50.2421Z" fill="#250705"/>
<path d="M168.188 62.2098C168.188 62.2098 167.05 56.6259 163.122 56.9488C159.803 57.2276 159.488 62.5987 162.505 64.2057C165.06 65.5705 165.699 66.9426 165.699 66.9426L168.188 62.2098Z" fill="#9C5A4A"/>
<path d="M163.408 63.0537C163.173 63.0537 162.945 62.9436 162.799 62.7308C161.69 61.1092 161.617 59.2528 162.622 58.3135C163.012 57.954 163.548 57.7559 164.179 57.7412C164.575 57.7045 164.921 58.0494 164.935 58.4529C164.943 58.8565 164.627 59.1941 164.223 59.2087C163.959 59.2161 163.746 59.2821 163.628 59.3922C163.291 59.7077 163.232 60.757 164.017 61.909C164.245 62.2465 164.157 62.7014 163.827 62.9289C163.694 63.0096 163.555 63.0537 163.408 63.0537Z" fill="#5B090B"/>
<path d="M168.188 51.064C167.417 51.064 165.354 50.8658 162.557 49.0681C160.391 47.674 158.974 45.2672 158.239 41.7085C158.21 41.5617 158.269 41.415 158.394 41.3343C158.518 41.2535 158.68 41.2535 158.805 41.3343C159.906 42.0533 161.088 42.611 162.336 42.9926C162.645 43.0879 162.96 43.1687 163.276 43.242C162.314 42.4349 160.971 41.2462 160.251 40.3143C159.076 38.7954 158.313 37.0491 158.283 36.9757C158.203 36.7923 158.291 36.5721 158.474 36.4914C158.658 36.4107 158.878 36.4987 158.959 36.6822C158.966 36.6969 159.723 38.4212 160.839 39.8667C161.955 41.3122 164.811 43.5355 164.84 43.5576C164.972 43.6603 165.016 43.8364 164.95 43.9905C164.884 44.1446 164.737 44.2326 164.568 44.2106C163.739 44.1079 162.916 43.9318 162.123 43.6896C161.096 43.3741 160.097 42.9412 159.157 42.4055C159.891 45.3039 161.14 47.2851 162.96 48.4591C166.22 50.5503 168.408 50.3302 168.43 50.3229C168.629 50.3008 168.812 50.4403 168.842 50.6457C168.864 50.8438 168.724 51.0273 168.526 51.0566C168.496 51.0566 168.386 51.064 168.188 51.064Z" fill="black"/>
<path d="M151.235 95.5447L179.693 121.894L173.966 139.974C173.966 139.974 160.141 138.881 140.493 108.51L151.235 95.5447Z" fill="#9C5A4A"/>
<path d="M151.169 128.168C149.186 124.983 122.938 97.7974 137.145 88.8528C146.47 82.9827 165.86 107.175 169.231 110.257C168.122 112.634 166.411 115.635 163.797 118.71C159.979 123.193 154.025 126.583 151.169 128.168Z" fill="#6E92CC"/>
<path d="M201.418 102.772C203.68 97.8414 205.383 94.312 207.586 89.6966C207.593 88.4052 208.43 87.2165 209.789 86.5781L226.786 78.5581C227.762 78.1032 230.163 80.2678 228.21 81.1776C226.257 82.0948 216.632 87.6421 216.632 87.6421C216.632 87.6421 226.522 85.14 227.072 85.9544C227.623 86.7689 231.61 94.5321 230.633 94.9871C229.657 95.442 226.602 94.7376 226.47 92.6537C226.389 91.3916 225.596 90.4598 224.98 89.9314C224.583 89.5866 224.025 89.4765 223.519 89.6306L217.85 91.3476L223.702 90.4011C224.392 90.291 225.075 90.6138 225.42 91.2229C225.633 91.5971 225.853 92.0373 226.074 92.529C226.83 94.2093 227.652 96.0584 226.727 96.8215C226.228 97.2324 225.42 97.159 225.237 97.137C223.753 96.9976 222.447 95.6181 222.013 93.681C220.185 94.1579 218.357 94.6349 216.529 95.1045C218.386 94.4588 220.244 93.8131 222.094 93.16C223.041 94.0845 224.458 95.7649 224.429 97.7901C224.422 98.3624 224.407 99.3676 223.621 99.7639C223.181 99.984 222.498 100.013 222.035 99.7565C221.433 99.4264 221.588 98.81 220.736 97.4892C220.633 97.3278 220.538 97.1957 220.472 97.1077C218.768 98.8393 214.422 106.83 212.593 108.664C208.908 106.404 205.134 105.04 201.418 102.772Z" fill="#9C5A4A"/>
<path d="M208.188 96.9829C203.46 99.6758 176.609 118.548 169.047 127.61C166.778 130.325 166.536 132.277 166.697 133.554C167.174 137.237 171.624 140.084 175.508 140.723C180.045 141.471 184.003 139.248 187.079 137.142C199.664 128.52 210.993 111.996 214.767 105.164C213.173 102.846 209.781 99.3016 208.188 96.9829Z" fill="#9C5A4A"/>
<path d="M151.822 124.771C151.69 124.771 151.565 124.705 151.499 124.58C151.404 124.404 151.47 124.176 151.646 124.081C151.749 124.029 161.698 118.541 165.229 113.162C165.339 112.994 165.567 112.95 165.736 113.06C165.905 113.17 165.956 113.397 165.839 113.566C162.212 119.099 152.41 124.499 151.999 124.727C151.94 124.756 151.881 124.771 151.822 124.771Z" fill="black"/>
<path d="M460.669 164.975H525.464V80.7827L460.669 80.7827V164.975Z" fill="#5D5B60"/>
<path d="M442.473 164.975H507.268V80.7827L442.473 80.7827V164.975Z" fill="#AEACB1"/>
<path d="M503.602 83.9659H446.141V161.327H503.602V83.9659Z" fill="#5D5B60"/>
<path opacity="0.61" d="M503.602 83.9659H461.23V161.327H503.602V83.9659Z" fill="#AEACB1"/>
<path d="M491.028 114.255H499.816V102.831H491.028V114.255Z" fill="#AEACB1"/>
<path d="M490.126 114.255H497.879V102.831H490.126V114.255Z" fill="white"/>
<path d="M439.982 80.0623L394.365 67.537V153.028L439.982 164.254V80.0623Z" fill="#5D5B60"/>
<path d="M442.478 80.7741L396.861 68.2487V153.747L442.478 164.973V80.7741Z" fill="#AEACB1"/>
<path d="M466.906 378.521C466.296 378.521 465.804 378.029 465.804 377.42V258.851C465.804 253.575 467.412 248.432 470.467 243.978L480.893 228.738C483.507 224.922 484.887 220.519 484.887 216.007V142.535C484.887 138.866 487.692 135.733 491.546 135.073C492.574 134.896 493.316 134.097 493.316 133.172V106.991C493.316 106.382 493.808 105.891 494.417 105.891C495.026 105.891 495.518 106.382 495.518 106.991V133.172C495.518 135.175 494.006 136.885 491.913 137.237C489.116 137.714 487.082 139.937 487.082 142.528V216.007C487.082 220.96 485.57 225.795 482.706 229.978L472.273 245.218C469.476 249.305 468 254.016 468 258.851V377.42C468.007 378.029 467.515 378.521 466.906 378.521Z" fill="#FBAE2C"/>
<path d="M460.41 114.255H469.199V102.831H460.41V114.255Z" fill="#AEACB1"/>
<path d="M459.509 114.255H467.262V102.831H459.509V114.255Z" fill="white"/>
<path d="M480.658 378.66C480.048 378.66 479.557 378.169 479.557 377.56V254.522C479.557 249.965 478.213 245.497 475.68 241.586L466.267 227.094C463.205 222.376 461.583 216.975 461.583 211.472V108.232C461.583 107.622 462.075 107.131 462.684 107.131C463.294 107.131 463.785 107.622 463.785 108.232V211.472C463.785 216.55 465.283 221.539 468.11 225.898L477.523 240.39C480.291 244.653 481.759 249.54 481.759 254.522V377.56C481.759 378.169 481.267 378.66 480.658 378.66Z" fill="#5B090B"/>
<path d="M475.722 114.255H484.511V102.831H475.722V114.255Z" fill="#AEACB1"/>
<path d="M474.814 114.255H482.567V102.831H474.814V114.255Z" fill="white"/>
<path d="M451.59 378.521C450.981 378.521 450.489 378.029 450.489 377.42V258.851C450.489 253.575 452.097 248.432 455.151 243.978L465.584 228.738C468.198 224.922 469.579 220.519 469.579 216.007V142.535C469.579 138.866 472.383 135.733 476.238 135.073C477.266 134.896 478.007 134.097 478.007 133.172V106.991C478.007 106.382 478.499 105.891 479.109 105.891C479.718 105.891 480.21 106.382 480.21 106.991V133.172C480.21 135.175 478.698 136.885 476.605 137.237C473.808 137.714 471.774 139.937 471.774 142.528V216.007C471.774 220.96 470.261 225.795 467.398 229.978L456.965 245.218C454.167 249.305 452.691 254.016 452.691 258.851V377.42C452.691 378.029 452.2 378.521 451.59 378.521Z" fill="#374866"/>
<path d="M385.635 125.174C379.673 126.055 331.56 138.837 330.033 148.478C329.401 152.492 330.642 154.782 334.394 156.968C338.777 159.522 343.762 158.81 347.771 157.871C364.211 154.026 385.525 144.047 392.742 139.123C392.03 136.122 386.355 128.161 385.635 125.174Z" fill="#D37B67"/>
<path d="M385.202 137.377C385.202 137.377 393.726 140.128 396.186 139.93C398.645 139.725 415.811 134.552 415.797 132.681C415.782 130.809 414.27 130.068 412.001 130.831C409.739 131.595 404.644 133.319 404.644 133.319L404.255 132.196C404.255 132.196 413.682 128.388 414.431 126.884C415.18 125.38 415.165 123.508 412.14 123.897C412.14 123.897 412.405 121.102 409.049 121.395L400.231 124.162L399.842 123.039C399.842 123.039 407.764 120.361 407.375 119.238C406.986 118.115 407.17 116.802 403.014 117.58C398.858 118.357 382.448 123.897 383.425 128.579C384.416 133.26 385.202 137.377 385.202 137.377Z" fill="#D37B67"/>
<path d="M401.795 128.072C401.649 128.072 401.509 127.984 401.45 127.83C401.377 127.64 401.48 127.427 401.671 127.361L412.016 123.545C412.207 123.472 412.42 123.575 412.486 123.765C412.559 123.956 412.456 124.169 412.265 124.235L401.92 128.05C401.884 128.065 401.839 128.072 401.795 128.072Z" fill="#844B42"/>
<path d="M410.966 165.208L446.267 187.948L443.485 208.178C443.485 208.178 428.492 209.557 401.869 180.933L410.966 165.208Z" fill="#FEAB96"/>
<path d="M344.35 415.282C348.337 418.672 344.724 426.406 339.952 424.616C339.835 424.572 339.724 424.52 339.614 424.469C329.695 419.714 330.363 417.608 325.157 416.537C320.135 415.502 317.632 417.065 312.573 414.6C310.172 413.426 308.366 411.907 307.198 410.799C307.198 410.792 307.191 410.792 307.191 410.792C307.191 410.792 307.162 409.412 307.382 408.656C308.843 403.623 309.93 400.387 311.259 397.914C311.985 396.557 312.661 395.794 314.122 393.108C314.269 392.837 314.878 391.699 315.657 390.041C315.818 389.696 315.987 389.322 316.163 388.933C316.472 388.258 316.795 387.517 317.11 386.724C317.265 386.357 317.419 385.983 317.566 385.594C317.588 385.543 317.61 385.484 317.632 385.433C320.018 379.203 321.185 373.194 321.765 369.334C325.965 372.68 330.165 376.011 334.357 379.357C332.213 384.083 331.207 388.052 330.73 391.053C330.657 391.494 330.598 391.912 330.554 392.308C330.459 393.064 330.392 393.746 330.363 394.348C330.348 394.524 330.348 394.693 330.341 394.854C330.312 395.39 330.312 395.808 330.334 396.16C330.363 396.586 330.348 396.931 330.481 397.239C333.689 405.068 339.357 411.034 344.35 415.282Z" fill="#E78D73"/>
<path d="M353.146 422.04C352.61 423.104 351.839 424.447 350.804 425.672C350.804 425.68 350.804 425.68 350.796 425.68C349.555 426.656 348.263 427.316 348.131 427.375C346.134 428.365 344.306 428.578 342.477 428.505C340.73 427.932 338.3 426.758 334.775 424.586C331.714 422.693 329.805 421.211 328.439 420.022C325.774 417.704 325.113 416.486 321.816 415.488C320.135 414.974 318.703 414.805 317.36 414.681C314.849 414.438 312.624 414.35 309.636 412.472C307.455 411.1 305.928 409.442 304.973 408.246C304.973 408.238 304.973 408.238 304.973 408.238C305.003 408.209 305.017 408.18 305.047 408.143C305.208 407.937 305.385 407.71 305.553 407.468L305.561 407.46L305.568 407.446C305.575 407.431 305.598 407.416 305.605 407.394C306.552 405.964 307.551 404.291 308.505 402.375C309.526 400.343 310.311 398.391 310.943 396.601C311.28 395.632 311.559 394.715 311.809 393.849C314.768 395.434 316.104 397.349 316.78 398.839C317.198 399.771 317.653 401.194 318.982 402.199C319.379 402.493 320.297 403.19 321.442 403.073C322.947 402.911 323.858 401.436 325.216 399.881C325.414 399.646 325.642 399.404 325.884 399.154L325.891 399.14C326.971 398.017 328.454 396.703 330.473 395.471C330.759 396.307 331.112 397.268 331.545 398.303C331.714 398.699 331.89 399.11 332.088 399.528C332.331 400.064 332.602 400.614 332.889 401.179C332.911 401.223 332.94 401.282 332.969 401.326C333.395 402.148 333.821 402.904 334.247 403.616C334.827 404.569 335.392 405.413 335.906 406.14C336.259 406.617 336.574 407.05 336.868 407.424C336.905 407.46 336.934 407.504 336.963 407.548C337.294 407.952 337.573 408.304 337.8 408.561C337.947 408.737 338.065 408.869 338.168 408.979C338.549 409.405 338.909 409.786 339.254 410.131C339.673 410.542 340.062 410.916 340.473 411.276C340.877 411.628 341.281 411.966 341.721 412.311C343.058 413.375 344.665 414.563 347.14 416.647C347.154 416.662 347.169 416.677 347.184 416.691C348.292 417.623 349.298 418.504 350.194 419.303C351.398 420.397 352.389 421.321 353.146 422.04Z" fill="white"/>
<path d="M353.146 422.04C352.61 423.104 351.839 424.447 350.804 425.672C350.804 425.68 350.804 425.68 350.796 425.68C349.555 426.656 348.263 427.316 348.131 427.375C346.134 428.365 344.306 428.578 342.478 428.505C340.73 427.932 338.3 426.758 334.776 424.586C331.714 422.693 329.805 421.211 328.439 420.022C328.527 419.942 328.623 419.876 328.718 419.802C334.607 415.363 340.143 423.258 342.742 420.301C344.489 418.313 346.207 417.19 347.147 416.662C347.162 416.676 347.177 416.691 347.191 416.706C348.3 417.638 349.306 418.518 350.202 419.318C351.398 420.397 352.39 421.321 353.146 422.04Z" fill="#6E92CC"/>
<path d="M350.804 425.672C350.804 425.68 350.804 425.68 350.796 425.68C349.556 426.656 348.263 427.316 348.131 427.375C346.134 428.365 344.306 428.578 342.478 428.505C341.538 428.468 340.591 428.365 339.629 428.241C337.867 428.02 336.582 427.602 335.987 427.426C329.152 425.43 325.708 424.381 324.563 422.268C323.858 420.954 323.939 420.206 323.08 419.524C321.853 418.54 320.414 419.766 317.676 419.832C316.457 419.861 315.473 419.582 313.549 419.017C309.746 417.902 306.178 416.258 303.402 414.783C303.351 414.035 303.204 410.931 304.974 408.238C304.996 408.202 305.018 408.172 305.047 408.135C305.142 407.996 305.245 407.857 305.348 407.717C305.414 407.629 305.488 407.548 305.554 407.46C305.554 407.453 305.561 407.446 305.561 407.446C305.568 407.431 305.59 407.416 305.598 407.394C306.207 406.683 306.846 406.191 307.374 405.853C308.535 406.396 310.172 407.182 312.11 408.172C317.588 410.997 320.326 412.399 323.175 414.666C326.479 417.3 326.464 418.217 330.414 421.101C332.213 422.407 333.792 423.368 335.451 424.176C337.948 425.386 340.143 426.384 343.021 426.208C346.413 425.995 350.128 424.154 350.304 422.326C350.415 421.196 349.181 420.022 349.578 419.487C349.629 419.413 349.761 419.325 350.194 419.318C351.362 419.296 353.021 420.558 353.139 422.04C353.249 423.39 352.059 424.689 350.804 425.672Z" fill="#02102D"/>
<path d="M328.696 402.251C328.542 402.728 328.087 403.006 327.676 402.86C327.264 402.713 327.066 402.207 327.22 401.73C327.375 401.253 327.83 400.974 328.241 401.121C328.645 401.26 328.85 401.766 328.696 402.251Z" fill="white"/>
<path d="M341.721 412.325C340.047 414.182 338.821 413.749 338.821 413.749C327.242 398.67 325.869 399.162 325.869 399.162L325.877 399.147C326.325 398.376 327 397.356 327.984 396.351C329.071 395.243 330.121 394.561 330.891 394.15C331.427 396.461 332.301 399.316 333.755 402.265C333.755 402.265 335.546 405.92 337.8 408.576C337.984 408.789 338.168 408.994 338.168 408.994C338.549 409.42 338.909 409.801 339.254 410.146C339.673 410.557 340.062 410.931 340.473 411.291C340.877 411.636 341.281 411.973 341.721 412.325Z" fill="#6E92CC"/>
<path d="M328.447 402.163C328.344 402.486 328.043 402.662 327.764 402.566C327.492 402.471 327.353 402.133 327.456 401.81C327.559 401.488 327.86 401.312 328.139 401.407C328.418 401.502 328.55 401.84 328.447 402.163Z" fill="#02102D"/>
<path d="M332.301 408.047C332.147 408.524 331.692 408.803 331.281 408.656C330.87 408.51 330.671 408.003 330.826 407.526C330.98 407.049 331.435 406.771 331.846 406.917C332.257 407.064 332.456 407.57 332.301 408.047Z" fill="white"/>
<path d="M332.059 407.959C331.956 408.282 331.648 408.458 331.376 408.363C331.105 408.268 330.965 407.93 331.068 407.607C331.171 407.284 331.472 407.108 331.751 407.204C332.023 407.306 332.162 407.644 332.059 407.959Z" fill="#02102D"/>
<path d="M336.479 412.105C336.325 412.582 335.87 412.861 335.459 412.714C335.047 412.567 334.849 412.061 335.003 411.584C335.158 411.107 335.613 410.828 336.024 410.975C336.428 411.122 336.633 411.628 336.479 412.105Z" fill="white"/>
<path d="M336.229 412.024C336.127 412.347 335.818 412.523 335.547 412.428C335.275 412.333 335.135 411.995 335.238 411.672C335.341 411.349 335.649 411.173 335.921 411.269C336.2 411.364 336.332 411.702 336.229 412.024Z" fill="#02102D"/>
<path d="M327.705 402.383C327.625 402.361 327.558 402.287 327.529 402.192C327.5 402.082 327.529 401.965 327.602 401.876C328.469 400.893 331.663 397.804 331.802 397.672C331.92 397.562 332.081 397.569 332.169 397.694C332.257 397.819 332.235 398.01 332.118 398.12C332.089 398.149 329.578 400.57 328.381 401.825C328.542 401.832 328.704 401.832 328.873 401.832C329.284 401.825 329.761 401.781 330.253 401.693C331.141 401.539 332.169 401.238 333.227 400.835C333.366 400.783 333.513 400.864 333.55 401.025C333.586 401.187 333.506 401.356 333.359 401.407C332.272 401.825 331.215 402.126 330.29 402.287C329.768 402.375 329.269 402.427 328.836 402.434C328.462 402.441 328.094 402.419 327.727 402.375C327.727 402.39 327.72 402.39 327.705 402.383Z" fill="#02102D"/>
<path d="M331.567 408.003L331.494 407.827C330.848 406.22 333.043 402.075 333.293 401.605C333.374 401.458 333.535 401.4 333.66 401.488C333.785 401.568 333.814 401.752 333.741 401.898C333.131 403.028 331.678 406.103 331.927 407.365C332.243 407.328 332.551 407.255 332.86 407.167C333.792 406.881 334.673 406.352 335.466 405.604C335.584 405.494 335.745 405.509 335.833 405.633C335.921 405.758 335.899 405.949 335.782 406.059C334.923 406.866 333.968 407.438 332.955 407.747C332.551 407.871 332.14 407.952 331.736 407.989L331.567 408.003Z" fill="#02102D"/>
<path d="M335.686 412.223C335.458 412.157 335.282 411.988 335.172 411.716C334.519 410.095 336.082 406.712 336.149 406.573C336.222 406.418 336.383 406.36 336.508 406.426C336.633 406.499 336.677 406.675 336.611 406.829C336.193 407.725 335.201 410.307 335.657 411.43C335.73 411.606 335.818 411.636 335.892 411.643C336.508 411.716 337.896 410.278 338.623 409.354C338.726 409.229 338.895 409.207 338.997 409.317C339.1 409.427 339.107 409.618 339.005 409.742C338.792 410.014 336.897 412.377 335.803 412.245C335.759 412.237 335.723 412.23 335.686 412.223Z" fill="#02102D"/>
<path d="M344.967 222.222L341.861 318.492L310.421 389.806C316.2 394.157 321.736 397.312 325.253 398.963C334.085 403.109 340.818 405.002 340.818 405.002C340.818 405.002 376.23 328.265 375.936 322.197C375.635 316.122 385.393 223.689 385.393 223.689L344.967 222.222Z" fill="#FBAE2C"/>
<path d="M341.949 315.63L354.644 321.368L340.444 321.705L341.868 318.492L341.949 315.63Z" fill="black"/>
<path d="M414.887 415.268C419.828 417.029 419.226 425.533 414.123 425.54C413.998 425.54 413.873 425.533 413.756 425.526C402.779 424.579 402.647 422.378 397.397 423.207C392.331 424.007 390.554 426.355 384.945 425.827C382.28 425.577 380.048 424.792 378.557 424.168C378.557 424.161 378.55 424.161 378.55 424.161C378.55 424.161 378.029 422.884 377.963 422.099C377.522 416.882 377.382 413.47 377.735 410.696C377.926 409.17 378.286 408.216 378.689 405.193C378.733 404.885 378.895 403.616 379.02 401.781C379.049 401.4 379.071 400.996 379.101 400.57C379.145 399.829 379.181 399.022 379.196 398.171C379.211 397.775 379.218 397.371 379.218 396.953C379.218 396.894 379.218 396.836 379.225 396.777C379.225 390.114 378.153 384.083 377.316 380.274C382.441 381.918 387.566 383.562 392.684 385.205C392.375 390.378 392.86 394.443 393.491 397.415C393.587 397.855 393.675 398.266 393.778 398.648C393.961 399.389 394.145 400.049 394.328 400.622C394.38 400.791 394.438 400.952 394.49 401.099C394.659 401.612 394.806 402.001 394.952 402.317C395.129 402.706 395.246 403.028 395.474 403.271C401.252 409.478 408.697 413.059 414.887 415.268Z" fill="#E78D73"/>
<path d="M425.525 418.489C425.408 419.67 425.165 421.196 424.637 422.708C424.637 422.715 424.637 422.715 424.629 422.723C423.822 424.073 422.845 425.144 422.75 425.247C421.237 426.876 419.607 427.72 417.867 428.299C416.024 428.38 413.337 428.145 409.269 427.353C405.731 426.663 403.418 425.944 401.707 425.32C398.381 424.095 397.331 423.192 393.888 423.412C392.133 423.53 390.73 423.875 389.431 424.227C386.993 424.887 384.879 425.584 381.42 424.887C378.895 424.374 376.868 423.361 375.547 422.583C375.547 422.576 375.539 422.576 375.539 422.576C375.554 422.539 375.561 422.503 375.576 422.459C375.649 422.209 375.738 421.938 375.811 421.651L375.818 421.644V421.629C375.826 421.607 375.833 421.593 375.833 421.571C376.207 419.905 376.538 417.983 376.743 415.855C376.964 413.595 377 411.489 376.949 409.603C376.912 408.583 376.854 407.622 376.773 406.727C380.106 407.167 382.045 408.48 383.205 409.64C383.931 410.359 384.864 411.533 386.472 412.01C386.942 412.149 388.058 412.479 389.086 411.958C390.437 411.276 390.752 409.581 391.465 407.651C391.567 407.365 391.692 407.057 391.832 406.734L391.839 406.712C392.441 405.281 393.359 403.527 394.805 401.664C395.371 402.346 396.046 403.117 396.824 403.931C397.125 404.239 397.441 404.562 397.772 404.885C398.19 405.303 398.638 405.721 399.108 406.147C399.145 406.184 399.189 406.228 399.233 406.257C399.923 406.873 400.598 407.431 401.252 407.945C402.133 408.634 402.97 409.221 403.711 409.72C404.211 410.043 404.666 410.337 405.07 410.579C405.121 410.601 405.158 410.63 405.202 410.66C405.657 410.924 406.046 411.144 406.355 411.313C406.553 411.423 406.714 411.503 406.847 411.577C407.353 411.841 407.823 412.068 408.278 412.274C408.814 412.509 409.313 412.722 409.827 412.912C410.327 413.096 410.833 413.272 411.369 413.441C412.999 413.969 414.93 414.512 417.992 415.583C418.007 415.598 418.029 415.598 418.051 415.605C419.424 416.089 420.679 416.552 421.803 416.985C423.308 417.564 424.563 418.078 425.525 418.489Z" fill="white"/>
<path d="M425.525 418.489C425.408 419.67 425.165 421.196 424.637 422.708C424.637 422.715 424.637 422.715 424.629 422.723C423.822 424.073 422.845 425.144 422.75 425.247C421.237 426.876 419.607 427.72 417.867 428.299C416.024 428.38 413.337 428.145 409.27 427.353C405.731 426.663 403.418 425.944 401.707 425.32C401.766 425.217 401.825 425.115 401.891 425.012C405.797 418.782 413.807 424.22 415.173 420.536C416.098 418.056 417.295 416.405 417.985 415.583C417.999 415.598 418.021 415.598 418.043 415.605C419.416 416.089 420.672 416.552 421.795 416.985C423.308 417.564 424.563 418.078 425.525 418.489Z" fill="#6E92CC"/>
<path d="M424.644 422.701C424.644 422.708 424.644 422.708 424.637 422.715C423.829 424.066 422.853 425.137 422.757 425.24C421.245 426.868 419.615 427.712 417.875 428.292C416.979 428.593 416.061 428.82 415.121 429.048C413.396 429.459 412.045 429.525 411.421 429.569C404.314 430.112 400.723 430.347 398.895 428.769C397.764 427.793 397.566 427.067 396.523 426.722C395.026 426.237 394.115 427.888 391.582 428.916C390.459 429.371 389.438 429.459 387.434 429.613C383.484 429.914 379.556 429.627 376.435 429.231C376.119 428.549 374.871 425.694 375.554 422.561C375.561 422.517 375.569 422.481 375.583 422.437C375.62 422.275 375.664 422.106 375.716 421.938C375.745 421.835 375.782 421.732 375.818 421.622C375.818 421.615 375.818 421.607 375.826 421.607C375.833 421.585 375.84 421.571 375.84 421.549C376.156 420.676 376.575 419.978 376.949 419.479C378.227 419.575 380.04 419.729 382.206 419.978C388.337 420.683 391.399 421.035 394.871 422.15C398.902 423.449 399.218 424.315 403.946 425.614C406.098 426.201 407.911 426.546 409.761 426.714C412.529 426.971 414.938 427.125 417.566 425.944C420.657 424.55 423.477 421.519 422.985 419.744C422.684 418.65 421.105 417.983 421.289 417.344C421.311 417.256 421.399 417.131 421.81 416.97C422.897 416.537 424.901 417.131 425.54 418.474C426.105 419.707 425.466 421.351 424.644 422.701Z" fill="#02102D"/>
<path d="M395.576 408.605C395.606 409.111 395.275 409.522 394.842 409.53C394.409 409.537 394.035 409.141 394.013 408.634C393.983 408.128 394.314 407.717 394.747 407.71C395.18 407.703 395.547 408.106 395.576 408.605Z" fill="white"/>
<path d="M411.369 413.426C410.473 415.752 409.167 415.781 409.167 415.781C392.933 405.773 391.832 406.712 391.832 406.712L391.839 406.69C391.978 405.809 392.25 404.621 392.808 403.337C393.425 401.921 394.166 400.908 394.732 400.255C396.068 402.229 397.904 404.584 400.319 406.837C400.319 406.837 403.307 409.618 406.362 411.305C406.604 411.437 406.854 411.569 406.854 411.569C407.36 411.834 407.83 412.061 408.285 412.267C408.821 412.501 409.321 412.714 409.835 412.905C410.334 413.088 410.833 413.257 411.369 413.426Z" fill="#6E92CC"/>
<path d="M395.319 408.612C395.334 408.95 395.121 409.221 394.828 409.229C394.541 409.236 394.292 408.965 394.27 408.634C394.255 408.297 394.468 408.018 394.761 408.018C395.048 408.011 395.297 408.275 395.319 408.612Z" fill="#02102D"/>
<path d="M401.031 412.758C401.061 413.264 400.73 413.675 400.297 413.683C399.864 413.69 399.489 413.294 399.467 412.788C399.438 412.281 399.768 411.87 400.202 411.863C400.627 411.848 401.002 412.252 401.031 412.758Z" fill="white"/>
<path d="M400.767 412.758C400.782 413.096 400.569 413.375 400.275 413.375C399.989 413.382 399.739 413.11 399.717 412.78C399.703 412.443 399.915 412.164 400.209 412.164C400.503 412.157 400.753 412.428 400.767 412.758Z" fill="#02102D"/>
<path d="M406.384 415.077C406.413 415.583 406.083 415.994 405.65 416.001C405.216 416.009 404.842 415.613 404.82 415.106C404.791 414.6 405.121 414.189 405.554 414.182C405.987 414.174 406.362 414.578 406.384 415.077Z" fill="white"/>
<path d="M406.127 415.084C406.142 415.422 405.929 415.693 405.635 415.701C405.349 415.708 405.099 415.436 405.077 415.106C405.062 414.769 405.275 414.497 405.569 414.49C405.855 414.483 406.105 414.747 406.127 415.084Z" fill="#02102D"/>
<path d="M394.703 409.082C394.615 409.089 394.534 409.045 394.475 408.965C394.409 408.877 394.394 408.752 394.431 408.649C394.886 407.424 396.766 403.41 396.847 403.241C396.913 403.095 397.074 403.05 397.199 403.131C397.324 403.219 397.375 403.403 397.309 403.549C397.294 403.586 395.819 406.734 395.143 408.326C395.297 408.275 395.452 408.224 395.606 408.165C395.988 408.018 396.413 407.805 396.847 407.548C397.625 407.086 398.477 406.448 399.321 405.699C399.431 405.597 399.6 405.626 399.688 405.765C399.776 405.898 399.761 406.088 399.651 406.191C398.785 406.961 397.904 407.622 397.104 408.099C396.648 408.363 396.201 408.59 395.797 408.752C395.452 408.884 395.099 409.001 394.739 409.089C394.725 409.082 394.717 409.082 394.703 409.082Z" fill="#02102D"/>
<path d="M400.327 412.971L400.202 412.832C399.02 411.562 399.585 406.91 399.651 406.382C399.673 406.213 399.805 406.103 399.952 406.14C400.092 406.169 400.195 406.33 400.173 406.499C400.011 407.776 399.754 411.159 400.437 412.245C400.716 412.098 400.98 411.922 401.237 411.731C402.008 411.137 402.64 410.337 403.117 409.354C403.183 409.207 403.344 409.163 403.469 409.251C403.594 409.339 403.645 409.522 403.572 409.669C403.058 410.726 402.375 411.592 401.538 412.245C401.208 412.501 400.855 412.721 400.488 412.898L400.327 412.971Z" fill="#02102D"/>
<path d="M405.687 415.466C405.452 415.488 405.224 415.385 405.026 415.172C403.829 413.888 404.086 410.175 404.093 410.021C404.108 409.853 404.233 409.735 404.372 409.757C404.519 409.779 404.622 409.933 404.615 410.095C404.541 411.085 404.541 413.844 405.371 414.732C405.496 414.871 405.599 414.864 405.665 414.849C406.267 414.703 407.052 412.868 407.397 411.746C407.449 411.592 407.596 411.511 407.735 411.577C407.875 411.643 407.941 411.819 407.897 411.973C407.794 412.303 406.869 415.18 405.804 415.444C405.768 415.451 405.723 415.458 405.687 415.466Z" fill="#02102D"/>
<path d="M356.567 158.105C356.567 158.105 353.285 156.645 349.357 154.194C345.422 151.744 343.344 145.874 339.027 145.338C334.71 144.802 325.385 150.614 321.303 157.115C317.228 163.616 342 192.115 348.014 186.553C354.02 180.992 356.567 158.105 356.567 158.105Z" fill="#6E92CC"/>
<path d="M364.123 234.953C364.123 234.953 362.801 264.531 363.712 277.856C366.839 323.503 371.788 403.762 371.788 403.762C371.788 403.762 384.659 406.969 404.901 400.857C405.746 400.82 401.061 228.488 401.061 228.488C401.061 228.488 380.834 224.401 364.123 234.953Z" fill="#FBAE2C"/>
<path d="M380.599 153.732C372.375 152.602 359.967 152.94 352.478 156.344C347.434 158.641 340.4 161.151 342.911 178.57C346.927 206.438 346.369 239.465 346.369 239.465L399.424 239.971C399.424 239.971 406.003 215.625 405.724 177.785C405.599 160.38 393.433 155.493 380.599 153.732Z" fill="#6E92CC"/>
<path d="M422.566 203.063C421.832 201.06 378.146 173.742 391.839 160.74C403.088 150.063 437.361 179.744 437.361 179.744C436.605 182.745 435.298 186.59 432.978 190.692C429.6 196.672 425.489 200.664 422.566 203.063Z" fill="#6E92CC"/>
<path d="M344.401 254.008L344.908 226.536C344.974 199.482 344.409 194.684 344.269 190.369C356.002 190.516 368.175 190.362 379.908 190.508C380.547 193.642 380.753 206.16 383.065 209.704C387.875 217.063 401.516 216.726 405.268 198.851C406.428 211.267 400.07 236.662 400.099 239.854C400.18 250.809 400.261 261.772 400.342 272.727L354.629 265.983C348.667 265.11 344.291 259.989 344.401 254.008Z" fill="#FBAE2C"/>
<path d="M369.761 240.566C361.472 240.566 353.116 240.111 344.901 239.216C344.695 239.194 344.555 239.01 344.577 238.812C344.6 238.607 344.79 238.467 344.981 238.489C353.887 239.458 362.948 239.913 371.913 239.825C381.215 239.737 390.599 239.076 399.798 237.851C399.997 237.822 400.18 237.968 400.21 238.166C400.239 238.365 400.092 238.548 399.894 238.577C390.657 239.803 381.252 240.463 371.92 240.551C371.2 240.566 370.481 240.566 369.761 240.566Z" fill="black"/>
<path d="M369.813 247.001C361.523 247.001 353.175 246.546 344.952 245.658C344.746 245.636 344.607 245.453 344.629 245.255C344.651 245.049 344.849 244.91 345.033 244.932C353.939 245.9 362.992 246.355 371.964 246.267C381.267 246.179 390.65 245.519 399.85 244.293C400.041 244.264 400.232 244.411 400.261 244.609C400.29 244.807 400.144 244.99 399.945 245.02C390.716 246.245 381.303 246.906 371.971 246.994C371.252 246.994 370.532 247.001 369.813 247.001Z" fill="black"/>
<path d="M356.746 239.452L354.947 239.464L354.995 246.354L356.794 246.342L356.746 239.452Z" fill="black"/>
<path d="M386.835 239.246L384.941 239.259L384.989 246.149L386.884 246.136L386.835 239.246Z" fill="black"/>
<path d="M383.653 157.262C381.171 157.753 377.786 158.172 373.792 157.893C370.305 157.658 367.375 156.961 365.15 156.264C365.488 150.034 365.833 143.804 366.171 137.567L384.673 138.558L383.653 157.262Z" fill="#E78D73"/>
<path d="M386.729 150.379L371.134 150.577C367.948 150.621 365.305 148.046 365.261 144.854L364.93 119.113C364.886 115.921 367.463 113.28 370.657 113.243L387.177 113.03C390.364 112.986 393.007 115.562 393.051 118.754L393.374 143.57C393.418 147.268 390.43 150.328 386.729 150.379Z" fill="#E78D73"/>
<path d="M368.946 110.088C365.202 111.68 362.243 115.356 361.472 119.326C360.98 121.872 360.554 124.683 360.973 128.381C361.758 135.351 363.785 142.726 364.688 145.778C364.945 146.659 365.723 147.209 366.641 147.363C372.728 148.427 378.499 148.985 381.34 147.407C382.331 146.857 382.28 144.325 383.998 137.575C384.703 134.794 385.621 132.578 386.326 131.066C392.574 126.921 392.86 123.156 392.875 122.188C393.044 112.032 381.223 104.878 368.946 110.088Z" fill="#2A0113"/>
<path d="M402.39 125.945L382.706 126.304L382.596 120.419L399.622 120.074C403.389 119.81 405.276 121.322 405.305 122.951C405.335 124.572 404.035 125.915 402.39 125.945Z" fill="#FBAE2C"/>
<path d="M360.304 126.987L393.763 126.084C394.666 115.518 385.951 106.793 376.325 107.153C366.817 107.505 358.829 116.626 360.304 126.987Z" fill="#FBAE2C"/>
<path d="M389.182 132.688C389.182 132.688 387.86 127.684 384.284 128.175C381.267 128.593 381.252 133.48 384.086 134.786C386.494 135.894 387.141 137.112 387.141 137.112L389.182 132.688Z" fill="#E78D73"/>
<path d="M384.828 133.759C384.608 133.759 384.395 133.664 384.248 133.473C383.132 132.028 382.97 130.31 383.866 129.386C384.108 129.136 384.549 128.828 385.298 128.77C385.702 128.733 386.054 129.041 386.091 129.445C386.12 129.848 385.819 130.2 385.415 130.237C385.092 130.266 384.96 130.369 384.916 130.413C384.644 130.692 384.659 131.624 385.401 132.585C385.65 132.908 385.592 133.363 385.268 133.612C385.136 133.708 384.982 133.759 384.828 133.759Z" fill="#844B42"/>
<path d="M362.103 125.101L369.614 124.969C369.343 122.951 367.537 121.505 365.584 121.645C363.785 121.769 362.279 123.23 362.103 125.101Z" fill="#2A0113"/>
<path d="M382.999 126.627C382.838 126.627 382.691 126.524 382.647 126.355C382.595 126.157 382.706 125.959 382.904 125.901C382.977 125.879 390.209 123.853 392.28 122.158C393.315 121.307 392.941 120.375 392.926 120.331C392.845 120.148 392.933 119.928 393.117 119.854C393.3 119.774 393.513 119.854 393.594 120.038C393.814 120.544 393.925 121.755 392.742 122.723C390.547 124.521 383.396 126.524 383.095 126.605C383.065 126.627 383.029 126.627 382.999 126.627Z" fill="black"/>
<path d="M346.215 151.017C346.464 151.736 345.826 152.433 345.069 152.279C342.228 151.707 334.68 150.614 329.834 153.798C323.77 157.783 323.102 162.765 321.692 161.958C317.661 159.661 322.176 153.857 319.775 153.145C317.808 152.558 317.529 150.738 317.698 149.337C318.035 146.622 334.886 139.798 340.972 144.193C341.795 144.788 345.407 148.691 346.215 151.017Z" fill="white"/>
<path d="M362.089 121.946C362.001 121.946 361.912 121.916 361.839 121.85C361.692 121.711 361.678 121.483 361.817 121.329C361.854 121.293 365.407 117.514 369.725 121.146C369.879 121.278 369.901 121.505 369.769 121.659C369.636 121.813 369.402 121.836 369.247 121.703C365.481 118.534 362.478 121.689 362.353 121.828C362.287 121.909 362.191 121.946 362.089 121.946Z" fill="black"/>
<path d="M375.224 160.263C366.274 160.263 363.058 158.707 361.971 157.32C361.303 156.469 361.479 155.757 361.501 155.677C361.56 155.479 361.758 155.369 361.957 155.427C362.147 155.486 362.265 155.684 362.214 155.875C362.206 155.904 362.118 156.344 362.581 156.909C363.513 158.047 366.802 159.888 378.433 159.47C378.638 159.456 378.807 159.624 378.814 159.822C378.822 160.028 378.66 160.197 378.462 160.204C377.309 160.241 376.23 160.263 375.224 160.263Z" fill="black"/>
<path d="M344.269 190.376C344.746 184.139 345.752 176.963 347.705 169.163C348.851 164.585 350.18 160.38 351.567 156.572C353.403 155.889 355.091 155.178 357.617 154.583C356.163 158.803 354.254 163.565 353.183 168.95C351.553 177.161 351.061 184.558 351.075 190.721C348.807 190.604 346.538 190.494 344.269 190.376Z" fill="#FBAE2C"/>
<path d="M379.908 190.516C379.908 190.516 381.465 178.886 382.963 175.283C388.822 161.165 393.91 157.335 393.91 157.335C393.352 156.968 392.625 156.565 391.715 156.22C390.944 155.926 390.232 155.765 389.644 155.662C388.69 156.469 387.397 157.636 385.988 159.155C383.925 161.371 381.384 164.526 379.49 168.283C375.701 175.796 372.963 191.55 372.963 191.55L379.908 190.516Z" fill="#FBAE2C"/>
<path d="M368.33 343.66L361.105 277.518L360.121 362.649L368.33 343.66Z" fill="black"/>
<path d="M434.652 179.781C434.931 178.783 435.819 178.034 436.869 178.012C437.537 177.998 438.257 178.108 438.793 178.511C440.107 179.502 441.531 180.39 442.368 180.236C443.213 180.082 443.051 182.217 440.893 188.843C438.734 195.469 437.948 200.422 438.103 202.77C438.257 205.118 439.314 207.62 437.838 208.089C436.362 208.559 431.84 205.22 426.524 205.272C421.208 205.323 419.791 202.872 420.679 201.045C421.575 199.218 428.939 194.522 430.731 191.184C432.089 188.667 433.866 182.598 434.652 179.781Z" fill="white"/>
<path d="M460.79 136.115C460.79 136.115 464.05 131.624 469.997 129.834C474.755 128.403 476.363 126.73 478.72 126.392C479.285 126.311 480.284 126.018 480.695 126.414C481.003 126.708 480.849 127.214 480.79 127.419C480.174 129.386 476.495 131.954 476.326 132.072C471.018 135.762 471.701 138.389 460.79 136.115Z" fill="#844B42"/>
<path d="M474.043 132.901L476.671 133.304L482.362 97.1957L479.733 96.7921L474.043 132.901Z" fill="#AEACB1"/>
<path d="M470.732 152.639L473.485 153.241C475.923 153.776 478.265 152.111 478.698 149.55L482.487 126.898C482.912 124.338 481.268 121.806 478.83 121.27L476.077 120.669C473.639 120.133 471.297 121.799 470.864 124.36L467.075 147.011C466.649 149.579 468.294 152.111 470.732 152.639Z" fill="#02102B"/>
<path d="M481.407 133.378C481.157 133.246 480.886 133.15 480.592 133.106C478.661 132.813 476.847 134.808 476.546 137.567C476.245 140.334 477.567 142.828 479.498 143.122C479.593 143.129 479.667 143.144 479.755 143.159L481.407 133.378Z" fill="#FBAE2C"/>
<path d="M479.586 97.9001L482.442 98.4138C482.927 98.5018 483.382 98.1863 483.47 97.7093L484.843 90.1883L480.247 89.3665L478.874 96.8875C478.786 97.3571 479.109 97.8121 479.586 97.9001Z" fill="#AEACB1"/>
<path d="M454.659 153.453C455.886 147.745 456.862 143.636 458.096 138.272C457.795 136.914 458.404 135.469 459.689 134.478L475.798 122.07C476.723 121.359 479.785 123.068 477.927 124.492C476.077 125.915 467.193 133.994 467.193 133.994C467.193 133.994 477.075 129.048 477.854 129.767C478.632 130.494 484.689 137.714 483.764 138.426C482.839 139.138 479.432 139.108 478.808 136.951C478.426 135.638 477.362 134.852 476.583 134.442C476.077 134.17 475.467 134.192 474.968 134.471L469.373 137.597L475.342 135.234C476.047 134.955 476.848 135.131 477.354 135.696C477.663 136.041 478.008 136.452 478.353 136.914C479.55 138.507 480.864 140.253 480.064 141.266C479.63 141.816 478.764 141.926 478.566 141.948C476.965 142.153 475.254 141.009 474.337 139.072C472.516 139.996 470.688 140.928 468.867 141.853C470.68 140.737 472.494 139.622 474.307 138.507C475.533 139.255 477.428 140.686 477.876 142.821C478 143.423 478.228 144.487 477.486 145.081C477.068 145.411 476.348 145.602 475.805 145.441C475.093 145.228 475.108 144.553 473.889 143.364C473.742 143.217 473.61 143.1 473.522 143.027C472.127 145.25 469.41 154.664 467.912 157.019C463.448 155.515 459.123 154.965 454.659 153.453Z" fill="#E78D73"/>
<path d="M456.825 149.11C453.668 154.062 437.618 185.592 435.012 198.022C434.226 201.75 434.99 203.724 435.805 204.861C438.147 208.119 443.859 208.566 447.905 207.209C452.633 205.624 455.283 201.5 457.148 197.949C464.784 183.384 467.552 162.391 468.477 153.916C465.776 152.522 459.535 150.504 456.825 149.11Z" fill="#E78D73"/>
</g>
</svg>
