<svg width="657" height="352" viewBox="0 0 657 352" fill="none" xmlns="http://www.w3.org/2000/svg">
<g filter="url(#filter0_dd_301_31)">
<path fill-rule="evenodd" clip-rule="evenodd" d="M435.108 37.1817H407.203V224.169H463.012V65.0861L435.108 37.1817Z" fill="white"/>
<path fill-rule="evenodd" clip-rule="evenodd" d="M537.747 0H537.74L507.803 29.9374V233.996H567.684V29.9374L537.747 0Z" fill="#DFEDF9"/>
<path fill-rule="evenodd" clip-rule="evenodd" d="M496.632 42.9758L472.707 66.9005V229.964H520.556V66.9005L496.632 42.9758Z" fill="white"/>
<path fill-rule="evenodd" clip-rule="evenodd" d="M133.477 44.7041H152.78V229.387H114.168V64.0068L133.477 44.7041Z" fill="white"/>
<path fill-rule="evenodd" clip-rule="evenodd" d="M175.771 3.21158H143.396V220.17H208.145V35.5858L175.771 3.21158Z" fill="white"/>
<path fill-rule="evenodd" clip-rule="evenodd" d="M223.367 5.52261H204.064V190.206H242.67V24.8253L223.367 5.52261Z" fill="#DFEDF9"/>
<path fill-rule="evenodd" clip-rule="evenodd" d="M253.181 47.0085L229.256 70.9332V233.996H277.105V70.9332L253.181 47.0085Z" fill="#DFEDF9"/>
<path fill-rule="evenodd" clip-rule="evenodd" d="M504.411 47.0085L480.486 70.9332V233.996H528.336V70.9332L504.411 47.0085Z" fill="#DFEDF9"/>
<path fill-rule="evenodd" clip-rule="evenodd" d="M144.422 49.3129H163.725V233.996H125.119V68.6156L144.422 49.3129Z" fill="#DFEDF9"/>
<path fill-rule="evenodd" clip-rule="evenodd" d="M185.564 17.038H153.189V233.996H217.944V49.4188L185.564 17.038Z" fill="#DFEDF9"/>
<path fill-rule="evenodd" clip-rule="evenodd" d="M439.246 47.0085H411.342V233.996H467.151V74.913L439.246 47.0085Z" fill="#DFEDF9"/>
<path d="M159.845 17.038H157.084V127.822H159.845V17.038Z" fill="white"/>
<path d="M424.912 47.0085H422.15V127.828H424.912V47.0085Z" fill="white"/>
<path fill-rule="evenodd" clip-rule="evenodd" d="M407.768 69.0526H383.73V230.109H431.805V93.0833L407.768 69.0526Z" fill="white"/>
<path fill-rule="evenodd" clip-rule="evenodd" d="M439.425 83.23H404.898V314.584H473.951V117.75L439.425 83.23Z" fill="#DFEDF9"/>
<path fill-rule="evenodd" clip-rule="evenodd" d="M488.784 117.399H493.512C497.432 117.399 500.644 120.61 500.644 124.53C500.644 128.451 497.432 131.662 493.512 131.662H488.784C484.864 131.662 481.652 128.451 481.652 124.53C481.652 120.61 484.864 117.399 488.784 117.399Z" fill="white"/>
<path fill-rule="evenodd" clip-rule="evenodd" d="M330.564 343.522C507.95 343.522 652.624 332.357 652.624 318.663C652.624 304.976 507.95 293.805 330.564 293.805C153.178 293.805 8.50391 304.969 8.50391 318.663C8.50391 332.351 153.178 343.522 330.564 343.522Z" fill="#C2CFD9"/>
<path fill-rule="evenodd" clip-rule="evenodd" d="M331.854 331.178C490.546 331.178 619.977 325.166 619.977 317.789C619.977 310.419 490.546 304.406 331.854 304.406C173.161 304.406 43.7305 310.419 43.7305 317.789C43.7305 325.166 173.161 331.178 331.854 331.178Z" fill="#24282D"/>
<path fill-rule="evenodd" clip-rule="evenodd" d="M226.148 187.398L251.218 168.851C252.218 168.109 253.251 167.705 254.489 167.566L350.638 156.633C354.353 156.209 357.737 158.898 358.161 162.619L362.75 202.953C363.174 206.675 360.485 210.052 356.77 210.469L11.5734 249.73C8.46776 250.081 5.62037 248.366 4.48141 245.459C3.34245 242.552 4.26951 239.353 6.78581 237.499L45.8017 208.813C46.8016 208.078 47.828 207.681 49.0597 207.535L226.148 187.398Z" fill="white"/>
<path d="M321.059 160.661L315.539 161.289L321.587 214.464L327.107 213.836L321.059 160.661Z" fill="white"/>
<path d="M177.561 192.927L172.041 193.554L176.295 230.991L181.815 230.364L177.561 192.927Z" fill="white"/>
<path d="M69.164 205.259L63.6504 205.886L67.9118 243.323L73.4254 242.696L69.164 205.259Z" fill="white"/>
<path d="M158.391 200.614L132.705 203.536L133.208 207.957L158.894 205.036L158.391 200.614Z" fill="white"/>
<path d="M159.171 207.568L133.484 210.49L133.987 214.911L159.673 211.99L159.171 207.568Z" fill="white"/>
<path d="M310.403 183.325L284.717 186.246L285.22 190.668L310.906 187.747L310.403 183.325Z" fill="white"/>
<path d="M311.208 190.256L285.521 193.177L286.024 197.598L311.711 194.677L311.208 190.256Z" fill="white"/>
<path d="M470.152 168.255H466.186V179.856H470.152V168.255Z" fill="white"/>
<path fill-rule="evenodd" clip-rule="evenodd" d="M139.231 230.487H231.54C234.91 230.487 237.672 233.241 237.672 236.618C237.672 239.989 234.91 242.75 231.54 242.75H139.231C135.861 242.75 133.1 239.996 133.1 236.618C133.1 233.241 135.861 230.487 139.231 230.487Z" fill="#24282D"/>
<path fill-rule="evenodd" clip-rule="evenodd" d="M490.096 120.365H494.42C498.009 120.365 500.949 123.305 500.949 126.895C500.949 130.484 498.015 133.424 494.42 133.424H490.096C486.506 133.424 483.566 130.484 483.566 126.895C483.566 123.305 486.506 120.365 490.096 120.365Z" fill="#FFCF61"/>
<path fill-rule="evenodd" clip-rule="evenodd" d="M451.286 142.158H459.576V231.354H443.002V150.442C443.002 145.886 446.73 142.158 451.286 142.158Z" fill="#24282D"/>
<path fill-rule="evenodd" clip-rule="evenodd" d="M480.494 126.894H504.015C506.406 126.894 508.359 128.848 508.359 131.238C508.359 133.629 506.406 135.582 504.015 135.582H480.494C478.104 135.582 476.15 133.629 476.15 131.238C476.15 128.848 478.11 126.894 480.494 126.894Z" fill="#24282D"/>
<path fill-rule="evenodd" clip-rule="evenodd" d="M480.494 126.894H490.076C492.467 126.894 494.42 128.848 494.42 131.238C494.42 133.629 492.467 135.582 490.076 135.582H480.494C478.104 135.582 476.15 133.629 476.15 131.238C476.15 128.848 478.11 126.894 480.494 126.894Z" fill="#B6D4EC"/>
<path fill-rule="evenodd" clip-rule="evenodd" d="M25.883 197.775C16.48 173.082 14.9173 146.369 31.1607 124.1C48.1523 100.818 79.2022 89.7989 106.603 85.2364C122.165 82.6406 138.07 82.7002 153.724 84.4087C173.418 86.5542 192.747 91.2689 211.725 96.8577C227.492 101.506 243.013 106.969 258.826 111.452C276.209 116.386 290.578 126.828 298.081 143.582C301.12 150.376 303.325 159.348 303.001 166.804C302.749 172.552 298.385 177.201 292.671 177.816L37.9414 205.158C32.6704 205.728 27.7703 202.728 25.883 197.775Z" fill="white"/>
<path fill-rule="evenodd" clip-rule="evenodd" d="M430.266 182.002C440.332 182.002 448.49 190.16 448.49 200.225C448.49 210.29 440.332 218.448 430.266 218.448C420.201 218.448 412.043 210.29 412.043 200.225C412.043 190.16 420.201 182.002 430.266 182.002Z" fill="#24282D"/>
<path fill-rule="evenodd" clip-rule="evenodd" d="M59.7421 195.907L277.283 172.552C280.68 172.188 283.766 174.671 284.13 178.075C284.494 181.478 282.011 184.558 278.614 184.922L61.0731 208.277C57.6695 208.641 54.5903 206.158 54.2261 202.754C53.8553 199.357 56.3385 196.272 59.7421 195.907Z" fill="#24282D"/>
<path fill-rule="evenodd" clip-rule="evenodd" d="M44.2807 197.629C35.765 175.26 34.348 151.058 49.0617 130.887C64.4509 109.79 92.5805 99.8177 117.406 95.6791C131.504 93.3283 145.913 93.3813 160.097 94.9242C177.943 96.871 195.444 101.135 212.641 106.208C226.925 110.419 240.983 115.366 255.312 119.432C271.059 123.901 284.078 133.357 290.878 148.541C293.633 154.693 295.633 162.825 295.335 169.579C295.11 174.784 291.156 178.995 285.978 179.551L55.2068 204.324C50.4258 204.834 45.9892 202.119 44.2807 197.629Z" fill="#FBAE2C"/>
<path fill-rule="evenodd" clip-rule="evenodd" d="M178.275 123.822C182.54 123.239 186.804 122.776 191.089 122.418L177.037 160.851L189.837 159.474L179.679 187.266L166.879 188.643L177.037 160.851L164.23 162.222L178.275 123.822Z" fill="white"/>
<path fill-rule="evenodd" clip-rule="evenodd" d="M274.006 180.836L202.47 188.517C200.238 184.293 198.748 179.585 198.205 174.545C195.921 153.283 211.31 134.198 232.573 131.92C253.835 129.636 272.92 145.025 275.204 166.281C275.747 171.314 275.297 176.234 274.006 180.836Z" fill="#FFCD82"/>
<path fill-rule="evenodd" clip-rule="evenodd" d="M125.444 196.781L55.1997 204.324C54.7494 204.37 54.3057 204.39 53.8687 204.383C51.657 200.178 50.1869 195.497 49.6506 190.491C47.366 169.228 62.7552 150.144 84.018 147.866C105.281 145.581 124.365 160.971 126.649 182.227C127.186 187.259 126.729 192.179 125.444 196.781Z" fill="#FFCD82"/>
<path fill-rule="evenodd" clip-rule="evenodd" d="M148.184 130.596C147.661 140.9 147.31 170.691 158.614 193.219L157.739 193.312C146.535 170.744 146.833 141.131 147.35 130.682L148.184 130.596Z" fill="#FF9861"/>
<path fill-rule="evenodd" clip-rule="evenodd" d="M44.2825 197.629C43.2627 194.947 42.3423 192.239 41.541 189.517L294.893 162.315C295.264 164.805 295.429 167.268 295.33 169.572C295.105 174.777 291.152 178.989 285.973 179.545L55.2019 204.317C50.4275 204.834 45.9909 202.119 44.2825 197.629Z" fill="#FF9861"/>
<path fill-rule="evenodd" clip-rule="evenodd" d="M198.059 172.711L274.965 164.454C275.057 165.056 275.137 165.665 275.203 166.275C275.746 171.314 275.289 176.234 274.005 180.829L257.496 182.604L202.469 188.511C200.237 184.286 198.747 179.578 198.204 174.539C198.145 173.929 198.098 173.32 198.059 172.711Z" fill="#FFC061"/>
<path fill-rule="evenodd" clip-rule="evenodd" d="M49.5 188.656L126.406 180.399C126.499 181.002 126.578 181.604 126.645 182.22C127.188 187.259 126.731 192.179 125.446 196.775L55.2014 204.317C54.9763 204.344 54.7511 204.357 54.5326 204.37L54.3671 204.377H54.3472H54.3273H54.3141H54.3075H54.2876H53.9565H53.9366H53.9168H53.8969H53.877C51.6653 200.172 50.1953 195.49 49.6589 190.484C49.5861 189.875 49.5331 189.266 49.5 188.656Z" fill="#FFC061"/>
<path fill-rule="evenodd" clip-rule="evenodd" d="M295.024 172.294C293.925 176.406 290.409 179.512 286.012 179.982L55.2407 204.754C50.8637 205.224 46.778 202.98 44.8047 199.152L295.024 172.294Z" fill="#24282D"/>
<path fill-rule="evenodd" clip-rule="evenodd" d="M38.2402 159.328C38.6905 154.852 39.6242 150.435 41.1009 146.118C42.0346 145.972 42.9947 145.846 43.9681 145.74C55.073 144.548 64.3899 146.548 64.7806 150.21C65.1713 153.865 56.4967 157.799 45.3918 158.991C42.8888 159.262 40.4784 159.368 38.2402 159.328Z" fill="#FFCF61"/>
<path fill-rule="evenodd" clip-rule="evenodd" d="M52.0613 133.894C52.1871 133.715 52.3195 133.536 52.452 133.357C67.126 113.24 94.4279 103.758 118.094 99.8111C131.808 97.5266 145.84 97.5862 159.64 99.0893C177.241 101.01 194.497 105.228 211.449 110.221C215.873 111.525 220.283 112.903 224.68 114.3C226.593 114.902 227.785 116.723 227.58 118.717C227.381 120.71 225.852 122.253 223.852 122.464L55.9218 140.489C54.2399 140.668 52.7036 139.893 51.8494 138.436C51.0018 136.993 51.0813 135.271 52.0613 133.894Z" fill="#24282D"/>
<path fill-rule="evenodd" clip-rule="evenodd" d="M64.3242 130.358C79.5214 117.922 100.38 111.386 119.001 108.287C132.721 106.003 146.746 106.062 160.546 107.565C174.399 109.075 188.047 112.009 201.496 115.631L64.3242 130.358Z" fill="#B6D4EC"/>
<path fill-rule="evenodd" clip-rule="evenodd" d="M121.743 99.2615C124.035 98.9437 126.326 98.6987 128.63 98.5066L121.081 119.16L127.961 118.419L122.505 133.351L115.625 134.092L121.081 119.16L114.201 119.895L121.743 99.2615Z" fill="white" fill-opacity="0.5"/>
<path fill-rule="evenodd" clip-rule="evenodd" d="M268.615 127.994C277.978 131.788 284.553 137.357 283.302 140.443C282.05 143.529 273.449 142.959 264.092 139.165C254.729 135.37 248.153 129.801 249.405 126.709C250.65 123.63 259.251 124.199 268.615 127.994Z" fill="#FF9861"/>
<path fill-rule="evenodd" clip-rule="evenodd" d="M271.23 129.106C278.336 131.987 283.329 136.211 282.382 138.556C281.428 140.9 274.906 140.463 267.8 137.589C260.695 134.715 255.702 130.477 256.656 128.139C257.596 125.795 264.125 126.232 271.23 129.106Z" fill="white"/>
<path fill-rule="evenodd" clip-rule="evenodd" d="M84.7391 154.594C102.28 152.713 118.027 165.401 119.908 182.942C121.788 200.483 109.094 216.23 91.5596 218.11C74.0184 219.991 58.2716 207.297 56.391 189.756C54.5038 172.221 67.1979 156.481 84.7391 154.594Z" fill="#24282D"/>
<path fill-rule="evenodd" clip-rule="evenodd" d="M85.3427 160.202C99.785 158.653 112.751 169.102 114.3 183.544C115.85 197.987 105.4 210.959 90.9581 212.502C76.5158 214.051 63.5502 203.595 61.9941 189.153C60.4446 174.717 70.8939 161.752 85.3427 160.202Z" fill="#B6D4EC"/>
<path fill-rule="evenodd" clip-rule="evenodd" d="M104.658 165.877C115.968 174.989 117.743 191.55 108.624 202.86C99.5061 214.17 82.9515 215.952 71.6348 206.833L75.1708 202.443C84.0574 209.608 97.0693 208.211 104.234 199.324C111.392 190.438 109.995 177.432 101.115 170.268L104.658 165.877Z" fill="#739EC0"/>
<path fill-rule="evenodd" clip-rule="evenodd" d="M85.846 164.95C97.6726 163.679 108.281 172.234 109.552 184.061C110.824 195.888 102.268 206.496 90.4415 207.767C78.6215 209.039 68.0067 200.483 66.7353 188.656C65.4705 176.83 74.026 166.215 85.846 164.95Z" fill="#24282D"/>
<path fill-rule="evenodd" clip-rule="evenodd" d="M81.8379 168.023L84.7714 167.712L86.4997 183.789L83.5662 184.107L81.8379 168.023ZM87.4863 167.414L90.4198 167.102L92.1481 183.18L89.2146 183.491L87.4863 167.414Z" fill="#B6D4EC"/>
<path fill-rule="evenodd" clip-rule="evenodd" d="M84.1426 189.531L87.0761 189.219L88.8044 205.297L85.8709 205.608L84.1426 189.531ZM89.791 188.928L92.7245 188.617L94.4528 204.695L91.5193 205.006L89.791 188.928Z" fill="#B6D4EC"/>
<path fill-rule="evenodd" clip-rule="evenodd" d="M100.868 171.724L102.609 174.108L89.5443 183.644L87.8027 181.26L100.868 171.724ZM104.218 176.313L91.1534 185.849L92.8949 188.226L105.96 178.691L104.218 176.313Z" fill="#B6D4EC"/>
<path fill-rule="evenodd" clip-rule="evenodd" d="M83.3872 184.485L85.1287 186.869L72.0638 196.404L70.3223 194.02L83.3872 184.485ZM86.7444 189.074L73.6795 198.609L75.4211 200.993L88.486 191.458L86.7444 189.074Z" fill="#B6D4EC"/>
<path fill-rule="evenodd" clip-rule="evenodd" d="M107.18 190.06L105.988 192.762L91.2016 186.213L92.3936 183.518L107.18 190.06ZM104.876 195.258L90.0826 188.709L88.8906 191.411L103.677 197.954L104.876 195.258Z" fill="#B6D4EC"/>
<path fill-rule="evenodd" clip-rule="evenodd" d="M87.3943 181.3L86.1957 184.001L71.4091 177.459L72.601 174.764L87.3943 181.3ZM85.0965 186.498L70.3033 179.955L69.1113 182.657L83.8979 189.199L85.0965 186.498Z" fill="#B6D4EC"/>
<path fill-rule="evenodd" clip-rule="evenodd" d="M233.301 138.648C250.842 136.768 266.589 149.455 268.47 166.996C270.35 184.538 257.656 200.284 240.115 202.165C222.574 204.052 206.827 191.358 204.946 173.81C203.066 156.276 215.76 140.529 233.301 138.648Z" fill="#24282D"/>
<path fill-rule="evenodd" clip-rule="evenodd" d="M233.903 144.257C248.345 142.707 261.311 153.157 262.861 167.599C264.41 182.041 253.961 195.013 239.512 196.563C225.07 198.112 212.104 187.657 210.555 173.214C209.005 158.772 219.461 145.806 233.903 144.257Z" fill="#B6D4EC"/>
<path fill-rule="evenodd" clip-rule="evenodd" d="M253.22 149.932C264.53 159.05 266.304 175.605 257.186 186.915C248.068 198.225 231.507 200.006 220.203 190.888L223.739 186.498C232.626 193.663 245.638 192.265 252.796 183.379C259.961 174.492 258.564 161.487 249.677 154.322L253.22 149.932Z" fill="#739EC0"/>
<path fill-rule="evenodd" clip-rule="evenodd" d="M234.414 149.005C246.24 147.733 256.848 156.289 258.12 168.115C259.391 179.942 250.836 190.557 239.009 191.822C227.189 193.093 216.574 184.538 215.303 172.711C214.032 160.884 222.587 150.27 234.414 149.005Z" fill="#24282D"/>
<path fill-rule="evenodd" clip-rule="evenodd" d="M230.402 152.071L233.336 151.753L235.064 167.837L232.131 168.155L230.402 152.071ZM236.051 151.468L238.984 151.157L240.713 167.241L237.779 167.559L236.051 151.468Z" fill="#B6D4EC"/>
<path fill-rule="evenodd" clip-rule="evenodd" d="M232.715 173.585L235.648 173.267L237.377 189.352L234.443 189.663L232.715 173.585ZM238.363 172.983L241.297 172.671L243.025 188.749L240.092 189.06L238.363 172.983Z" fill="#B6D4EC"/>
<path fill-rule="evenodd" clip-rule="evenodd" d="M249.434 155.779L251.176 158.163L238.111 167.698L236.369 165.314L249.434 155.779ZM252.785 160.368L239.72 169.903L241.461 172.287L254.526 162.752L252.785 160.368Z" fill="#B6D4EC"/>
<path fill-rule="evenodd" clip-rule="evenodd" d="M231.959 168.533L233.701 170.917L220.636 180.452L218.895 178.068L231.959 168.533ZM235.31 173.122L222.245 182.657L223.987 185.041L237.052 175.505L235.31 173.122Z" fill="#B6D4EC"/>
<path fill-rule="evenodd" clip-rule="evenodd" d="M255.742 174.115L254.543 176.81L239.757 170.261L240.949 167.566L255.742 174.115ZM253.444 179.313L238.651 172.764L237.459 175.459L252.246 182.001L253.444 179.313Z" fill="#B6D4EC"/>
<path fill-rule="evenodd" clip-rule="evenodd" d="M235.956 165.354L234.757 168.049L219.971 161.507L221.163 158.812L235.956 165.354ZM233.658 170.552L218.872 164.01L217.68 166.712L232.466 173.254L233.658 170.552Z" fill="#B6D4EC"/>
<path fill-rule="evenodd" clip-rule="evenodd" d="M215.607 130.378C219.389 129.974 222.554 130.616 222.686 131.815C222.819 133.013 219.859 134.318 216.078 134.721C212.297 135.125 209.125 134.483 208.999 133.285C208.86 132.086 211.826 130.781 215.607 130.378Z" fill="white"/>
<path fill-rule="evenodd" clip-rule="evenodd" d="M202.31 110.75C205.568 111.644 209.21 112.658 212.296 114.028C214.09 114.829 216.56 116.167 216.063 118.551C215.494 121.286 211.494 121.524 209.276 121.663C207.647 121.769 205.972 121.796 204.336 121.756C203.396 121.729 202.601 121.193 202.23 120.319L199.529 113.902C199.171 113.055 199.323 112.141 199.926 111.452C200.535 110.777 201.429 110.512 202.31 110.75Z" fill="#FFC061"/>
<path fill-rule="evenodd" clip-rule="evenodd" d="M53.2623 147.853C54.984 147.667 56.4408 148.005 56.507 148.608C56.5732 149.203 55.2223 149.846 53.5007 150.031C51.779 150.217 50.3222 149.879 50.2626 149.283C50.1897 148.674 51.5406 148.038 53.2623 147.853Z" fill="white"/>
<path fill-rule="evenodd" clip-rule="evenodd" d="M44.7559 152.892C45.6167 152.799 46.3451 152.971 46.3782 153.269C46.4113 153.567 45.7359 153.885 44.8751 153.978C44.0142 154.071 43.2858 153.898 43.2527 153.6C43.2262 153.302 43.895 152.985 44.7559 152.892Z" fill="white"/>
<path fill-rule="evenodd" clip-rule="evenodd" d="M77.4825 141.376L83.2435 140.761C84.8195 140.588 86.3227 141.085 87.4749 142.006C88.6271 142.939 89.4217 144.303 89.5939 145.879C89.7594 147.455 89.2694 148.958 88.3424 150.111C87.4153 151.263 86.0512 152.058 84.4752 152.23L78.7142 152.846C77.1382 153.018 75.635 152.521 74.4828 151.594C73.3306 150.667 72.5294 149.303 72.3638 147.727C72.1983 146.151 72.6883 144.648 73.6154 143.495C74.5424 142.35 75.9065 141.549 77.4825 141.376ZM83.3296 141.582L77.5686 142.198C76.2178 142.343 75.0457 143.025 74.2511 144.012C73.4564 144.999 73.0326 146.283 73.1783 147.641C73.324 148.992 74.0061 150.157 74.9927 150.952C75.9727 151.746 77.264 152.17 78.6149 152.024L84.3759 151.409C85.7267 151.263 86.8988 150.574 87.6868 149.594C88.4814 148.608 88.9052 147.316 88.7595 145.972C88.6139 144.621 87.9318 143.449 86.9452 142.654C85.9717 141.86 84.6805 141.436 83.3296 141.582Z" fill="#FF9861"/>
<path fill-rule="evenodd" clip-rule="evenodd" d="M155.999 134.139C159.78 133.728 162.946 134.377 163.078 135.576C163.204 136.774 160.244 138.079 156.469 138.483C152.688 138.887 149.523 138.244 149.391 137.046C149.265 135.847 152.225 134.543 155.999 134.139Z" fill="#24282D"/>
<path fill-rule="evenodd" clip-rule="evenodd" d="M101.023 140.039C104.804 139.635 107.976 140.277 108.102 141.476C108.228 142.674 105.268 143.979 101.487 144.383C97.7058 144.787 94.5406 144.144 94.4082 142.946C94.2823 141.747 97.2423 140.443 101.023 140.039Z" fill="#24282D"/>
<path fill-rule="evenodd" clip-rule="evenodd" d="M454.007 272.218H499.558C506.611 272.218 512.378 277.985 512.378 285.037C512.378 292.083 506.611 297.851 499.558 297.851H454.007C446.954 297.851 441.193 292.083 441.193 285.037C441.193 277.985 446.961 272.218 454.007 272.218Z" fill="#24282D"/>
<path fill-rule="evenodd" clip-rule="evenodd" d="M524.676 277.078H576.373C582.087 277.078 586.762 281.753 586.762 287.468C586.762 293.182 582.087 297.851 576.373 297.851H524.676C518.961 297.851 514.293 293.176 514.293 287.468C514.293 281.746 518.961 277.078 524.676 277.078Z" fill="#24282D"/>
<path fill-rule="evenodd" clip-rule="evenodd" d="M260.121 287.938H514.406C516.353 287.938 517.949 289.534 517.949 291.474C517.949 293.421 516.353 295.017 514.406 295.017H260.121C258.174 295.017 256.578 293.427 256.578 291.474C256.578 289.527 258.174 287.938 260.121 287.938Z" fill="#24282D"/>
<path fill-rule="evenodd" clip-rule="evenodd" d="M434.698 190.259H455.875C461.629 190.259 466.331 194.967 466.331 200.715V264.715C466.331 270.463 461.623 275.171 455.875 275.171H434.698C428.944 275.171 424.242 270.463 424.242 264.715V200.715C424.236 194.967 428.944 190.259 434.698 190.259Z" fill="#24282D"/>
<path fill-rule="evenodd" clip-rule="evenodd" d="M112.498 239.823H481.766C488.891 239.823 494.712 245.651 494.712 252.769C494.712 259.888 488.884 265.715 481.766 265.715H112.498C105.38 265.715 99.5527 259.888 99.5527 252.769C99.5527 245.644 105.38 239.823 112.498 239.823Z" fill="#24282D"/>
<path fill-rule="evenodd" clip-rule="evenodd" d="M120.615 264.715H458.27V274.674C458.27 280.151 453.787 284.634 448.311 284.634H130.574C125.098 284.634 120.615 280.151 120.615 274.674V264.715Z" fill="#24282D"/>
<path fill-rule="evenodd" clip-rule="evenodd" d="M464.675 130.934H531.403C533.277 130.934 534.886 131.603 536.211 132.92L602.939 199.649C604.263 200.973 604.932 202.582 604.932 204.456V275.171C604.932 278.912 601.88 281.965 598.132 281.965H464.675C460.934 281.965 457.881 278.912 457.881 275.171V137.728C457.881 133.986 460.934 130.934 464.675 130.934Z" fill="white"/>
<path fill-rule="evenodd" clip-rule="evenodd" d="M604.932 230.752V255.756C598.025 255.756 592.43 250.16 592.43 243.254C592.43 236.347 598.025 230.752 604.932 230.752Z" fill="#24282D"/>
<path fill-rule="evenodd" clip-rule="evenodd" d="M604.932 259.312V275.178C604.932 278.919 601.88 281.972 598.132 281.972H464.675C460.934 281.972 457.881 278.919 457.881 275.178V259.312H604.932Z" fill="#F7E8E8"/>
<path fill-rule="evenodd" clip-rule="evenodd" d="M471.47 137.728H528.59C530.464 137.728 532.073 138.397 533.397 139.714L572.34 178.657C574.327 180.644 574.89 183.465 573.81 186.061C572.738 188.656 570.341 190.259 567.533 190.259H471.47C467.728 190.259 464.676 187.206 464.676 183.465V144.528C464.676 140.781 467.728 137.728 471.47 137.728Z" fill="#24282D"/>
<path fill-rule="evenodd" clip-rule="evenodd" d="M471.47 137.728H520.644L555.779 172.863C557.766 174.85 558.329 177.671 557.249 180.267C556.176 182.862 553.779 184.465 550.972 184.465H464.749C464.702 184.14 464.676 183.803 464.676 183.465V144.522C464.676 140.781 467.728 137.728 471.47 137.728Z" fill="#B6D4EC"/>
<path fill-rule="evenodd" clip-rule="evenodd" d="M517.941 245.3C537.734 245.3 553.778 261.344 553.778 281.137C553.778 300.93 537.734 316.975 517.941 316.975C498.148 316.975 482.104 300.93 482.104 281.137C482.104 261.344 498.148 245.3 517.941 245.3Z" fill="#24282D"/>
<path fill-rule="evenodd" clip-rule="evenodd" d="M517.94 260.239C529.481 260.239 538.838 269.595 538.838 281.137C538.838 292.679 529.481 302.036 517.94 302.036C506.398 302.036 497.041 292.679 497.041 281.137C497.034 269.595 506.398 260.239 517.94 260.239Z" fill="#B6D4EC"/>
<path fill-rule="evenodd" clip-rule="evenodd" d="M576.815 265.212H606.58C609.666 265.212 612.188 267.735 612.188 270.82V280.866C612.188 283.951 609.666 286.468 606.58 286.468H576.815C571.001 286.468 566.246 281.713 566.246 275.899V275.78C566.246 269.966 571.001 265.212 576.815 265.212Z" fill="#24282D"/>
<path fill-rule="evenodd" clip-rule="evenodd" d="M257.882 245.3C277.675 245.3 293.72 261.344 293.72 281.137C293.72 300.93 277.675 316.975 257.882 316.975C238.09 316.975 222.045 300.93 222.045 281.137C222.038 261.344 238.09 245.3 257.882 245.3Z" fill="#24282D"/>
<path fill-rule="evenodd" clip-rule="evenodd" d="M257.881 260.239C269.423 260.239 278.78 269.595 278.78 281.137C278.78 292.679 269.423 302.036 257.881 302.036C246.339 302.036 236.982 292.679 236.982 281.137C236.976 269.595 246.332 260.239 257.881 260.239Z" fill="#B6D4EC"/>
<path fill-rule="evenodd" clip-rule="evenodd" d="M505.213 216.117H521.973C523.079 216.117 523.98 217.018 523.98 218.124C523.98 219.23 523.079 220.13 521.973 220.13H505.213C504.108 220.13 503.207 219.23 503.207 218.124C503.207 217.018 504.108 216.117 505.213 216.117Z" fill="white"/>
<path fill-rule="evenodd" clip-rule="evenodd" d="M508.987 222.607H518.191C519.297 222.607 520.198 223.507 520.198 224.613C520.198 225.719 519.297 226.62 518.191 226.62H508.987C507.881 226.62 506.98 225.719 506.98 224.613C506.98 223.507 507.881 222.607 508.987 222.607Z" fill="white"/>
<path fill-rule="evenodd" clip-rule="evenodd" d="M506.751 137.728H516.193L501.499 167.579H492.057L506.751 137.728Z" fill="white" fill-opacity="0.5"/>
<path fill-rule="evenodd" clip-rule="evenodd" d="M501.498 167.579H510.941L499.77 190.259H490.334L501.498 167.579Z" fill="white" fill-opacity="0.5"/>
<path fill-rule="evenodd" clip-rule="evenodd" d="M517.939 269.297C524.475 269.297 529.779 274.595 529.779 281.137C529.779 287.68 524.482 292.977 517.939 292.977C511.404 292.977 506.1 287.68 506.1 281.137C506.1 274.595 511.404 269.297 517.939 269.297Z" fill="#24282D"/>
<path fill-rule="evenodd" clip-rule="evenodd" d="M257.881 269.297C264.417 269.297 269.721 274.595 269.721 281.137C269.721 287.68 264.423 292.977 257.881 292.977C251.345 292.977 246.041 287.68 246.041 281.137C246.041 274.595 251.338 269.297 257.881 269.297Z" fill="#24282D"/>
<path fill-rule="evenodd" clip-rule="evenodd" d="M272.661 266.357C280.82 274.522 280.82 287.752 272.661 295.917C264.497 304.082 251.266 304.082 243.102 295.917L246.267 292.752C252.677 299.162 263.073 299.162 269.49 292.752C275.9 286.342 275.9 275.946 269.49 269.529L272.661 266.357Z" fill="#739EC0"/>
<path fill-rule="evenodd" clip-rule="evenodd" d="M532.753 266.357C540.911 274.522 540.911 287.752 532.753 295.917C524.589 304.082 511.358 304.082 503.193 295.917L506.359 292.752C512.769 299.162 523.165 299.162 529.581 292.752C535.991 286.342 535.991 275.946 529.581 269.529L532.753 266.357Z" fill="#739EC0"/>
<path fill-rule="evenodd" clip-rule="evenodd" d="M332.755 258.073H412.528C418.468 258.073 423.322 262.934 423.322 268.867V276.316C423.322 286.349 415.11 294.56 405.078 294.56H340.204C330.172 294.56 321.961 286.349 321.961 276.316V268.867C321.961 262.934 326.821 258.073 332.755 258.073Z" fill="#B6D4EC"/>
<path fill-rule="evenodd" clip-rule="evenodd" d="M422.335 282.236C419.865 289.388 413.045 294.566 405.085 294.566H340.211C332.245 294.566 325.431 289.388 322.961 282.236H422.335Z" fill="#24282D"/>
<path fill-rule="evenodd" clip-rule="evenodd" d="M336.939 253.219C338.813 253.219 340.349 254.756 340.349 256.623V292.99C340.349 294.864 338.813 296.394 336.945 296.394C335.071 296.394 333.535 294.858 333.535 292.99V256.623C333.535 254.749 335.065 253.219 336.939 253.219Z" fill="#24282D"/>
<path fill-rule="evenodd" clip-rule="evenodd" d="M478.045 199.424H492.209C493.573 199.424 494.686 200.536 494.686 201.9C494.686 203.264 493.573 204.377 492.209 204.377H478.045C476.681 204.377 475.568 203.258 475.568 201.9C475.568 200.536 476.681 199.424 478.045 199.424Z" fill="#D9C8C8"/>
<path fill-rule="evenodd" clip-rule="evenodd" d="M549.99 171.572H557.42C561.704 171.572 565.207 175.075 565.207 179.359C565.207 183.644 561.704 187.147 557.42 187.147H549.99V171.572Z" fill="white"/>
<path d="M437.405 222.905H177.975V235.162H437.405V222.905Z" fill="#24282D"/>
<path fill-rule="evenodd" clip-rule="evenodd" d="M298.201 180.386L424.507 198.086L424.175 200.457L297.877 182.763L298.201 180.386Z" fill="#24282D"/>
<path fill-rule="evenodd" clip-rule="evenodd" d="M313.261 188.968L439.559 206.668L439.228 209.039L312.93 191.345L313.261 188.968Z" fill="#B6D4EC"/>
<path fill-rule="evenodd" clip-rule="evenodd" d="M230.706 194.643L255.777 176.095C256.777 175.353 257.81 174.949 259.048 174.81L355.197 163.878C358.912 163.454 362.296 166.142 362.719 169.864L367.308 210.197C367.732 213.919 365.044 217.296 361.329 217.713L16.132 256.974C13.0264 257.325 10.179 255.61 9.04 252.703C7.90104 249.796 8.82811 246.598 11.3444 244.744L50.3603 216.058C51.3602 215.323 52.3866 214.925 53.6183 214.78L230.706 194.643Z" fill="#24282D"/>
<path d="M325.596 167.925L320.076 168.552L326.118 221.727L331.638 221.1L325.596 167.925Z" fill="#B6D4EC"/>
<path d="M182.114 200.171L176.594 200.798L180.848 238.235L186.368 237.608L182.114 200.171Z" fill="#B6D4EC"/>
<path d="M73.7382 212.496L68.2246 213.124L72.4898 250.562L78.0034 249.933L73.7382 212.496Z" fill="#B6D4EC"/>
<path d="M162.946 207.849L137.26 210.771L137.763 215.192L163.449 212.271L162.946 207.849Z" fill="#B6D4EC"/>
<path d="M163.731 214.81L138.045 217.731L138.548 222.153L164.234 219.231L163.731 214.81Z" fill="#B6D4EC"/>
<path d="M314.962 190.57L289.275 193.491L289.778 197.912L315.464 194.991L314.962 190.57Z" fill="#B6D4EC"/>
<path d="M315.758 197.5L290.072 200.421L290.575 204.843L316.261 201.922L315.758 197.5Z" fill="#B6D4EC"/>
<path fill-rule="evenodd" clip-rule="evenodd" d="M577.294 270.542H584.366C586.247 270.542 587.783 272.078 587.783 273.959C587.783 275.84 586.247 277.376 584.366 277.376H577.294C575.413 277.376 573.877 275.84 573.877 273.959C573.877 272.078 575.413 270.542 577.294 270.542Z" fill="#FFA361"/>
<path fill-rule="evenodd" clip-rule="evenodd" d="M488.521 121.12H489.991C491.21 121.12 492.209 122.12 492.209 123.339C492.209 124.564 491.21 125.557 489.991 125.557H488.521C487.303 125.557 486.303 124.557 486.303 123.339C486.303 122.12 487.303 121.12 488.521 121.12Z" fill="white"/>
<path fill-rule="evenodd" clip-rule="evenodd" d="M131.524 260.066H139C140.881 260.066 142.417 261.603 142.417 263.483C142.417 265.364 140.881 266.9 139 266.9H131.524C129.644 266.9 128.107 265.364 128.107 263.483C128.107 261.609 129.644 260.066 131.524 260.066Z" fill="#FFA361"/>
<path fill-rule="evenodd" clip-rule="evenodd" d="M430.269 190.259C435.771 190.259 440.234 194.722 440.234 200.225C440.234 205.728 435.771 210.191 430.269 210.191C424.766 210.191 420.303 205.728 420.303 200.225C420.303 194.722 424.766 190.259 430.269 190.259Z" fill="#B6D4EC"/>
<path fill-rule="evenodd" clip-rule="evenodd" d="M409.965 245.558C411.601 245.558 412.939 246.896 412.939 248.531V280.29C412.939 281.925 411.601 283.263 409.965 283.263C408.33 283.263 406.992 281.925 406.992 280.29V248.531C406.986 246.896 408.33 245.558 409.965 245.558Z" fill="#24282D"/>
<path fill-rule="evenodd" clip-rule="evenodd" d="M351.156 261.636C354.116 261.636 356.513 264.033 356.513 266.993C356.513 269.953 354.116 272.35 351.156 272.35C348.196 272.35 345.799 269.953 345.799 266.993C345.799 264.033 348.196 261.636 351.156 261.636Z" fill="#24282D"/>
<path d="M471.099 190.107H470.033V262.325H471.099V190.107Z" fill="#F7E8E8"/>
<path d="M568.156 190.107H567.09V262.325H568.156V190.107Z" fill="#F7E8E8"/>
<path fill-rule="evenodd" clip-rule="evenodd" d="M88.143 177.009C93.3081 177.009 97.4931 181.194 97.4931 186.359C97.4931 191.524 93.3081 195.709 88.143 195.709C82.978 195.709 78.793 191.524 78.793 186.359C78.7996 181.194 82.9846 177.009 88.143 177.009Z" fill="#24282D"/>
<path d="M94.5155 186.696C94.693 183.179 91.9856 180.183 88.4684 180.006C84.9511 179.828 81.9559 182.536 81.7784 186.053C81.6009 189.57 84.3083 192.565 87.8256 192.743C91.3428 192.92 94.338 190.213 94.5155 186.696Z" fill="#B6D4EC"/>
<path fill-rule="evenodd" clip-rule="evenodd" d="M236.709 161.063C241.874 161.063 246.059 165.248 246.059 170.413C246.059 175.578 241.874 179.763 236.709 179.763C231.544 179.763 227.359 175.578 227.359 170.413C227.359 165.248 231.544 161.063 236.709 161.063Z" fill="#24282D"/>
<path fill-rule="evenodd" clip-rule="evenodd" d="M236.711 164.03C240.234 164.03 243.088 166.884 243.088 170.407C243.088 173.929 240.234 176.784 236.711 176.784C233.188 176.784 230.334 173.929 230.334 170.407C230.327 166.884 233.188 164.03 236.711 164.03Z" fill="#B6D4EC"/>
<path fill-rule="evenodd" clip-rule="evenodd" d="M362.248 225.659H390.642C393.205 225.659 395.304 227.758 395.304 230.321V237.526C395.304 240.088 393.205 242.187 390.642 242.187H362.248C359.685 242.187 357.586 240.088 357.586 237.526V230.321C357.586 227.758 359.685 225.659 362.248 225.659Z" fill="#B6D4EC"/>
<path fill-rule="evenodd" clip-rule="evenodd" d="M365.685 234.632H366.36C367.625 234.632 368.658 235.665 368.658 236.93C368.658 238.194 367.625 239.227 366.36 239.227H365.685C364.42 239.227 363.387 238.194 363.387 236.93C363.38 235.665 364.42 234.632 365.685 234.632Z" fill="white"/>
<path fill-rule="evenodd" clip-rule="evenodd" d="M365.685 228.169H366.36C367.625 228.169 368.658 229.202 368.658 230.467C368.658 231.732 367.625 232.765 366.36 232.765H365.685C364.42 232.765 363.387 231.732 363.387 230.467C363.38 229.202 364.42 228.169 365.685 228.169Z" fill="#24282D"/>
</g>
<defs>
<filter id="filter0_dd_301_31" x="0" y="0" width="656.625" height="351.522" filterUnits="userSpaceOnUse" color-interpolation-filters="sRGB">
<feFlood flood-opacity="0" result="BackgroundImageFix"/>
<feColorMatrix in="SourceAlpha" type="matrix" values="0 0 0 0 0 0 0 0 0 0 0 0 0 0 0 0 0 0 127 0" result="hardAlpha"/>
<feOffset dy="4"/>
<feGaussianBlur stdDeviation="2"/>
<feComposite in2="hardAlpha" operator="out"/>
<feColorMatrix type="matrix" values="0 0 0 0 0 0 0 0 0 0 0 0 0 0 0 0 0 0 0.25 0"/>
<feBlend mode="normal" in2="BackgroundImageFix" result="effect1_dropShadow_301_31"/>
<feColorMatrix in="SourceAlpha" type="matrix" values="0 0 0 0 0 0 0 0 0 0 0 0 0 0 0 0 0 0 127 0" result="hardAlpha"/>
<feOffset dy="4"/>
<feGaussianBlur stdDeviation="2"/>
<feComposite in2="hardAlpha" operator="out"/>
<feColorMatrix type="matrix" values="0 0 0 0 0 0 0 0 0 0 0 0 0 0 0 0 0 0 0.25 0"/>
<feBlend mode="normal" in2="effect1_dropShadow_301_31" result="effect2_dropShadow_301_31"/>
<feBlend mode="normal" in="SourceGraphic" in2="effect2_dropShadow_301_31" result="shape"/>
</filter>
</defs>
</svg>
