<svg width="41" height="45" viewBox="0 0 41 45" fill="none" xmlns="http://www.w3.org/2000/svg">
<path d="M31.8917 29.3368L28.2725 27.7881C28.398 27.845 28.4466 27.9193 28.446 28.0806C28.4388 30.4368 28.4436 32.7931 28.437 35.1493C28.4364 35.3543 28.4904 35.405 28.6837 35.4025C29.67 35.3918 30.6569 35.3925 31.6426 35.4025C31.8275 35.405 31.8635 35.3468 31.8629 35.1662C31.8563 33.2956 31.8587 31.4243 31.8587 29.5537C31.8587 29.4168 31.8587 29.3531 31.8917 29.3368ZM29.5728 17.635L30.3891 15.44C29.2144 15.7031 28.0222 15.8356 26.8282 15.9525C25.7003 16.0625 24.5705 16.1375 23.4384 16.1818C23.203 16.1912 22.9671 16.195 22.7312 16.2006C21.1855 16.2725 19.6385 16.2668 18.0922 16.2256C17.9031 16.2206 17.7146 16.2093 17.5261 16.2012C16.58 16.1868 15.6364 16.1343 14.6933 16.0625C13.7574 15.9912 12.8222 15.9087 11.8911 15.7837C11.202 15.6912 10.5117 15.6031 9.83572 15.4306L10.6869 17.6362C10.6587 17.5 10.6833 17.4831 10.8076 17.5012C11.7164 17.6343 12.6301 17.7287 13.5437 17.82C14.7203 17.9375 15.9005 18.0043 17.0807 18.0512C19.106 18.1318 21.1326 18.1343 23.158 18.0512C24.723 17.9875 26.2867 17.8925 27.8433 17.6993C28.3794 17.6325 28.916 17.5725 29.4515 17.5006C29.5752 17.4837 29.6046 17.4993 29.5728 17.635ZM23.6791 5.77308C23.6785 5.92183 23.6863 6.06871 23.7295 6.21058C23.873 6.67558 24.337 6.79433 24.6738 6.45308C24.834 6.29121 24.9181 6.08683 24.9763 5.86683C25.1342 5.27183 25.2987 4.67808 25.4517 4.08183C25.4818 3.96496 25.4998 3.91996 25.597 3.98371L23.6274 2.51996C23.6653 2.72183 23.6833 2.93433 23.6809 3.15746C23.6731 4.02933 23.6803 4.90121 23.6791 5.77308ZM15.3194 5.98308C15.3842 6.21746 15.4971 6.42433 15.7078 6.55246C16.0187 6.74183 16.3291 6.64371 16.484 6.30746C16.5188 6.23246 16.5386 6.15058 16.565 6.07121C16.568 5.02808 16.5704 3.98433 16.574 2.94121C16.5746 2.80183 16.5602 2.66058 16.6202 2.52871L14.7365 3.93058C14.8079 4.01058 14.811 4.11183 14.8356 4.19996C14.9988 4.79371 15.1549 5.38933 15.3194 5.98308ZM8.40222 29.5131C8.39862 31.3912 8.40342 33.2693 8.39562 35.1468C8.39442 35.3487 8.44004 35.4056 8.63814 35.4031C9.61782 35.3918 10.5975 35.39 11.5766 35.4043C11.7945 35.4075 11.8269 35.3331 11.8263 35.1318C11.8197 32.7893 11.8245 30.4475 11.8179 28.1056C11.8173 27.9356 11.8575 27.8462 11.9998 27.7806L8.24014 29.3606C8.39442 29.3012 8.40282 29.3668 8.40222 29.5131Z" fill="#24282D"/>
<path d="M20.1235 44.7093C18.1498 44.7199 16.1826 44.5931 14.2172 44.4087C12.3948 44.2374 10.5771 44.0256 8.76539 43.7606C6.29278 43.3993 3.82378 43.0149 1.38359 42.4587C0.538976 42.2662 0.0233247 41.6031 0.00111392 40.7018C-0.00909106 40.2899 0.050939 39.8906 0.1764 39.5C0.802505 37.5506 1.43461 35.6024 2.04871 33.6487C2.45631 32.3512 3.2517 31.4424 4.46729 30.9343C5.7183 30.4112 6.97171 29.8949 8.22152 29.3681C8.39501 29.2949 8.40401 29.3599 8.40341 29.5124C8.39981 31.3906 8.40461 33.2681 8.39621 35.1462C8.39561 35.3481 8.44063 35.4043 8.63933 35.4024C9.619 35.3912 10.5987 35.3893 11.5778 35.4037C11.7951 35.4068 11.8275 35.3331 11.8275 35.1312C11.8209 32.7893 11.8257 30.4468 11.8191 28.1049C11.8185 27.9231 11.8647 27.8337 12.0322 27.7668C12.6679 27.5137 13.2994 27.2487 13.9261 26.9737C14.0858 26.9037 14.1914 26.9274 14.3241 27.0337C16.0265 28.3943 17.7326 29.7499 19.4392 31.1049C19.9284 31.4937 20.3264 31.4899 20.8193 31.0987C22.5313 29.7393 24.2439 28.3812 25.9518 27.0162C26.0778 26.9156 26.1757 26.9106 26.3149 26.9706C26.9567 27.2462 27.6008 27.5149 28.2473 27.7768C28.392 27.8356 28.4472 27.9087 28.4466 28.0812C28.4394 30.4374 28.4448 32.7937 28.4376 35.1499C28.437 35.3549 28.491 35.4056 28.6849 35.4031C29.6712 35.3924 30.6575 35.3924 31.6437 35.4031C31.8286 35.4049 31.8641 35.3468 31.8635 35.1668C31.8568 33.2962 31.8592 31.4249 31.8592 29.5543C31.8592 29.2981 31.8598 29.2974 32.0766 29.3874C33.2345 29.8687 34.3847 30.3724 35.5522 30.8268C36.9437 31.3674 37.8232 32.3656 38.2722 33.8343C38.8623 35.7662 39.4992 37.6824 40.1115 39.6068C40.2669 40.0949 40.3144 40.5993 40.2093 41.1043C40.0556 41.8418 39.5838 42.2862 38.9037 42.4487C37.2661 42.8406 35.6057 43.1124 33.9459 43.3849C32.6588 43.5962 31.3694 43.7843 30.077 43.9562C28.7509 44.1325 27.4213 44.2749 26.0904 44.4031C24.5363 44.5531 22.9803 44.6624 21.4202 44.7081C20.9879 44.7199 20.5557 44.7093 20.1235 44.7093ZM20.1403 37.6431C17.6953 37.6431 15.251 37.6431 12.806 37.6431C11.4013 37.6431 9.99659 37.6431 8.5919 37.6431C8.49466 37.6431 8.39561 37.6106 8.39681 37.7899C8.40401 39.1399 8.40161 40.4899 8.39861 41.8399C8.39861 41.9468 8.43042 41.9856 8.53427 41.9962C8.95088 42.0387 9.36628 42.0887 9.78168 42.1399C10.8814 42.2756 11.9854 42.3674 13.0893 42.4512C14.2947 42.5424 15.5013 42.6181 16.7085 42.6818C18.3004 42.7656 19.893 42.8181 21.4874 42.7656C23.7283 42.6918 25.9662 42.5643 28.1999 42.3656C29.3566 42.2624 30.5122 42.1481 31.6654 42.0068C31.8376 41.9856 31.8641 41.9168 31.8635 41.7568C31.8574 40.4631 31.855 39.1693 31.8653 37.8756C31.8671 37.6743 31.8064 37.6387 31.6293 37.6393C27.7989 37.6443 23.9696 37.6431 20.1403 37.6431Z" fill="#25719D"/>
<path d="M17.526 16.2006C16.5806 16.1868 15.6363 16.1337 14.6939 16.0618C13.758 15.9906 12.8228 15.9081 11.8917 15.7831C11.2026 15.6906 10.5116 15.6024 9.8363 15.4299C9.10034 15.2418 8.70294 14.7162 8.54507 13.9681C8.33436 12.9681 8.68133 12.0918 9.48332 11.6174C9.78167 11.4406 10.1088 11.3512 10.451 11.3499C10.6017 11.3493 10.6455 11.2924 10.6581 11.1462C10.8082 9.36118 11.4139 7.75056 12.4092 6.29743C13.0455 5.36806 13.8246 4.58618 14.7371 3.92993C14.8091 4.00993 14.8121 4.11118 14.8361 4.19931C14.9994 4.79306 15.1555 5.38868 15.32 5.98181C15.3848 6.21618 15.4977 6.42306 15.709 6.55118C16.0199 6.74056 16.3303 6.64243 16.4851 6.30618C16.52 6.23118 16.5398 6.14868 16.5662 6.06993C16.6436 6.01681 16.6232 5.93306 16.6232 5.85868C16.6238 4.74806 16.6226 3.63743 16.622 2.52681C16.6676 2.10868 16.8495 1.74931 17.0914 1.42493C17.6287 0.703681 18.3563 0.303056 19.1997 0.113681C20.387 -0.153194 21.4994 0.0436808 22.4989 0.769306C23.2865 1.34118 23.6917 2.13993 23.6827 3.15556C23.6748 4.02743 23.682 4.89931 23.6802 5.77118C23.6802 5.91993 23.6875 6.06681 23.7313 6.20868C23.8741 6.67368 24.3382 6.79243 24.6755 6.45118C24.8352 6.28931 24.9199 6.08493 24.9781 5.86493C25.136 5.26993 25.2998 4.67618 25.4535 4.07993C25.4859 3.95306 25.5051 3.91118 25.6282 4.00306C27.4219 5.34806 28.6315 7.12431 29.2654 9.32618C29.4365 9.91931 29.5517 10.5262 29.5961 11.1443C29.6081 11.3156 29.6826 11.3424 29.8254 11.3481C30.7019 11.3818 31.4 11.9124 31.6671 12.7393C31.6882 12.8049 31.6948 12.8756 31.708 12.9437C31.7062 13.2824 31.705 13.6212 31.7032 13.9599C31.6257 14.6631 31.0807 15.2831 30.3903 15.4381C29.2162 15.7018 28.024 15.8343 26.8294 15.9506C25.7014 16.0606 24.5717 16.1356 23.4395 16.1806C23.2042 16.1899 22.9683 16.1931 22.7324 16.1993C20.9963 16.2006 19.2615 16.2006 17.526 16.2006Z" fill="#FDC234"/>
<path d="M19.9314 25.673C15.9029 25.6324 12.3053 22.903 10.9757 18.7537C10.858 18.3874 10.7668 18.0137 10.6875 17.6362C10.6587 17.4999 10.6833 17.483 10.8076 17.5012C11.7164 17.6343 12.6301 17.7287 13.5437 17.8199C14.7203 17.9374 15.9005 18.0043 17.0806 18.0512C19.106 18.1318 21.1326 18.1343 23.1574 18.0512C24.7224 17.9874 26.2861 17.8924 27.8427 17.6987C28.3787 17.6318 28.9154 17.5718 29.4509 17.4999C29.5745 17.483 29.6039 17.4987 29.5721 17.6343C28.6837 21.4368 26.4932 24.0024 22.9077 25.2387C21.9976 25.553 21.0546 25.6755 19.9314 25.673Z" fill="#5E4234"/>
<path d="M17.5261 16.2006C19.2615 16.2006 20.9964 16.2006 22.7318 16.2006C21.1854 16.2718 19.6391 16.2668 18.0921 16.2256C17.9036 16.2206 17.7146 16.2093 17.5261 16.2006Z" fill="#FDC234"/>
<path d="M16.6214 2.52869C16.622 3.63931 16.6232 4.74994 16.6226 5.86056C16.6226 5.93494 16.6432 6.01869 16.565 6.07181C16.568 5.02806 16.5705 3.98494 16.5741 2.94119C16.5753 2.80181 16.5608 2.66056 16.6214 2.52869Z" fill="#FDC234"/>
<path d="M31.702 13.9612C31.7038 13.6224 31.705 13.2837 31.7068 12.9449C31.8008 13.2843 31.7911 13.6231 31.702 13.9612Z" fill="#FDC234"/>
<path d="M20.1403 37.643C23.9696 37.643 27.7989 37.6443 31.6281 37.6393C31.8052 37.6393 31.8653 37.6749 31.8641 37.8755C31.8545 39.1693 31.8563 40.463 31.8623 41.7568C31.8629 41.9174 31.8364 41.9855 31.6642 42.0068C30.511 42.1487 29.3554 42.263 28.1987 42.3655C25.965 42.5643 23.7271 42.6918 21.4862 42.7655C19.8918 42.818 18.2992 42.7655 16.7073 42.6818C15.5001 42.618 14.2935 42.5424 13.0881 42.4512C11.9842 42.3674 10.8802 42.2755 9.78049 42.1399C9.36508 42.0887 8.94908 42.0387 8.53308 41.9962C8.42983 41.9855 8.39741 41.9468 8.39741 41.8399C8.40041 40.4899 8.40221 39.1399 8.39561 37.7899C8.39441 37.6099 8.49346 37.643 8.59071 37.643C9.99539 37.6424 11.4001 37.643 12.8048 37.643C15.2504 37.643 17.6953 37.643 20.1403 37.643Z" fill="#24282D"/>
</svg>
