<svg width="538" height="448" viewBox="0 0 538 448" fill="none" xmlns="http://www.w3.org/2000/svg">
<mask id="mask0_252_1115" style="mask-type:luminance" maskUnits="userSpaceOnUse" x="6" y="0" width="532" height="448">
<path d="M10.8829 329.454C25.6559 299.242 66.7044 307.347 82.6069 276.576C92.2489 257.921 89.5837 230.281 77.3873 212.258C58.192 183.897 21.7356 184.867 9.74591 151.68C9.45059 150.658 6.58605 133.76 6.51961 131.276C6.40148 126.633 13.7548 84.452 79.7646 44.4313C93.947 35.835 158.761 -1.71694 265.428 0.0610995C298.03 0.604798 425.724 2.72816 485.783 72.5567C527.725 121.321 535.322 176.352 535.322 176.352C535.713 179.181 535.979 181.708 536.097 182.81C537.691 197.49 541.353 234.888 526.632 277.619C505.908 337.772 445.044 391.444 386.225 418.158C340.4 438.973 298.148 443.139 270.869 445.835C260.651 446.842 226.852 449.81 180.784 445.314C114.493 438.848 37.8744 431.369 14.2494 383.486C12.6621 380.254 -0.479306 352.687 10.8829 329.454Z" fill="white"/>
</mask>
<g mask="url(#mask0_252_1115)">
<path d="M312.856 -58.967H-104.502V439.003H312.856V-58.967Z" fill="#24282D"/>
<path d="M680.616 -58.967H304.558V439.003H680.616V-58.967Z" fill="#24282D"/>
<path d="M685.85 404.845L242.763 393.567L-129.87 429.76V506.634H294.753L681.605 505.789L681.812 445.85L685.85 404.845Z" fill="#D8AB98"/>
<path d="M249.621 431.663C300.711 431.663 342.128 426.449 342.128 420.017C342.128 413.585 300.711 408.372 249.621 408.372C198.531 408.372 157.114 413.585 157.114 420.017C157.114 426.449 198.531 431.663 249.621 431.663Z" fill="#9D7F74"/>
<path d="M394.384 464.307C445.474 464.307 486.89 459.093 486.89 452.661C486.89 446.23 445.474 441.016 394.384 441.016C343.294 441.016 301.877 446.23 301.877 452.661C301.877 459.093 343.294 464.307 394.384 464.307Z" fill="#9D7F74"/>
<path d="M94.7671 448.135C130.171 448.135 158.872 444.655 158.872 440.362C158.872 436.069 130.171 432.588 94.7671 432.588C59.3629 432.588 30.6621 436.069 30.6621 440.362C30.6621 444.655 59.3629 448.135 94.7671 448.135Z" fill="#9D7F74"/>
</g>
<mask id="mask1_252_1115" style="mask-type:luminance" maskUnits="userSpaceOnUse" x="6" y="0" width="532" height="448">
<path d="M10.8829 329.454C25.6559 299.242 66.7044 307.347 82.6069 276.576C92.2489 257.921 89.5837 230.281 77.3873 212.258C58.192 183.897 21.7356 184.867 9.74591 151.68C9.45059 150.658 6.58605 133.76 6.51961 131.276C6.40148 126.633 13.7548 84.452 79.7646 44.4313C93.947 35.835 158.761 -1.71694 265.428 0.0610995C298.03 0.604798 425.724 2.72816 485.783 72.5567C527.725 121.321 535.322 176.352 535.322 176.352C535.713 179.181 535.979 181.708 536.097 182.81C537.691 197.49 541.353 234.888 526.632 277.619C505.908 337.772 445.044 391.444 386.225 418.158C340.4 438.973 298.148 443.139 270.869 445.835C260.651 446.842 226.852 449.81 180.784 445.314C114.493 438.848 37.8744 431.369 14.2494 383.486C12.6621 380.254 -0.479306 352.687 10.8829 329.454Z" fill="white"/>
</mask>
<g mask="url(#mask1_252_1115)">
<path d="M59.0266 42.0509C58.9306 76.3553 58.8347 110.66 58.7387 144.964C57.1588 144.149 55.254 143.003 53.3123 141.416C53.209 141.327 53.0982 141.239 52.9949 141.151C49.6948 138.366 44.5711 138.087 40.8871 140.497C39.3957 141.474 37.8306 142.451 35.9037 143.458C24.475 144.479 18.2144 142.995 17.0184 140.967C16.2063 139.601 16.568 137.926 15.0029 136.757C13.2089 135.413 10.2853 135.788 7.9892 136.353C7.25092 121.431 6.51264 106.501 5.77435 91.5789L1.24868 145.508C-0.434599 145.354 -2.5387 145.023 -4.87167 144.31C-8.05366 143.333 -10.4605 142.003 -12.0921 140.931C-13.0002 140.931 -14.5432 141.041 -16.2191 141.753C-19.0171 142.944 -20.2796 145.001 -20.6709 145.714C-20.5675 105.825 -20.4642 65.9295 -20.3608 26.0411C-17.2379 27.5914 -13.0444 30.1115 -9.14632 34.0791C-7.10866 36.1583 -5.57304 38.1935 -4.42132 39.9863C-1.63799 40.2655 1.83193 40.383 5.75959 39.9936C12.3967 39.3397 17.6164 37.5029 21.0494 35.9894C22.2602 36.658 24.5415 38.1274 26.1214 40.743C27.0369 42.2639 27.4208 43.682 27.598 44.6959C30.6914 45.3792 34.6338 45.9596 39.2259 45.9449C48.0115 45.9155 54.9144 43.7187 59.0266 42.0509Z" fill="#24282D"/>
</g>
<mask id="mask2_252_1115" style="mask-type:luminance" maskUnits="userSpaceOnUse" x="6" y="0" width="532" height="448">
<path d="M10.8829 329.454C25.6559 299.242 66.7044 307.347 82.6069 276.576C92.2489 257.921 89.5837 230.281 77.3873 212.258C58.192 183.897 21.7356 184.867 9.74591 151.68C9.45059 150.658 6.58605 133.76 6.51961 131.276C6.40148 126.633 13.7548 84.452 79.7646 44.4313C93.947 35.835 158.761 -1.71694 265.428 0.0610995C298.03 0.604798 425.724 2.72816 485.783 72.5567C527.725 121.321 535.322 176.352 535.322 176.352C535.713 179.181 535.979 181.708 536.097 182.81C537.691 197.49 541.353 234.888 526.632 277.619C505.908 337.772 445.044 391.444 386.225 418.158C340.4 438.973 298.148 443.139 270.869 445.835C260.651 446.842 226.852 449.81 180.784 445.314C114.493 438.848 37.8744 431.369 14.2494 383.486C12.6621 380.254 -0.479306 352.687 10.8829 329.454Z" fill="white"/>
</mask>
<g mask="url(#mask2_252_1115)">
<path d="M108.087 340.6L107.747 335.788L99.8918 322.563C98.1937 319.697 94.4802 318.75 91.6082 320.447L77.6916 328.632C74.8123 330.322 73.86 334.017 75.5654 336.875L83.4576 350.159L87.7323 352.584L108.087 340.6ZM80.0172 336.427C79.4487 335.465 79.7662 334.223 80.7334 333.657L95.0856 325.215C96.0527 324.649 97.3004 324.965 97.8689 325.928L100.66 330.63C101.228 331.593 100.911 332.834 99.9435 333.4L85.5912 341.842C84.6241 342.408 83.3764 342.092 82.8079 341.129L80.0172 336.427Z" fill="#374866"/>
<path d="M87.7754 352.547L119.204 405.448L126.52 401.069L108.063 340.696L87.7754 352.547Z" fill="#AEACB1"/>
<path d="M83.0488 369.637L69.7598 363.399L73.7908 354.883L87.0799 361.121C87.5081 361.327 87.7 361.834 87.4933 362.268L84.1932 369.233C83.9939 369.652 83.477 369.843 83.0488 369.637Z" fill="#02102B"/>
<path d="M100.938 371.686L84.5488 364L83.8155 365.548L100.205 373.235L100.938 371.686Z" fill="#02102B"/>
<path d="M57.7914 359.354L49.5234 355.477L40.7677 373.967L49.0356 377.844L57.7914 359.354Z" fill="#02102B"/>
<path d="M74.4783 369.637L45.5303 356.059L52.3151 341.732L81.2631 355.31C83.0055 356.125 83.7511 358.197 82.9316 359.931L79.1221 367.984C78.3026 369.718 76.2207 370.46 74.4783 369.637Z" fill="#02102B"/>
<path d="M64.9912 365.184L33.5626 350.438C32.7652 350.064 32.4182 349.116 32.7947 348.315L38.2137 336.875C38.5903 336.082 39.5426 335.736 40.3474 336.111L71.776 350.857L64.9912 365.184Z" fill="#FBAE2C"/>
<path d="M46.7185 347.154C45.9728 348.734 44.0828 349.41 42.4955 348.66C40.9082 347.911 40.229 346.037 40.982 344.458C41.7351 342.878 43.6177 342.202 45.205 342.952C46.7923 343.694 47.4715 345.574 46.7185 347.154Z" fill="#02102B"/>
<path d="M50.9492 389.636L30.6538 380.114C29.8638 379.747 29.5242 378.806 29.9008 378.02L32.7875 371.922C33.1566 371.136 34.1016 370.798 34.8915 371.172L55.1869 380.695C55.9769 381.062 56.3165 382.002 55.94 382.788L53.0533 388.887C52.6841 389.673 51.7391 390.011 50.9492 389.636Z" fill="#02102B"/>
<path d="M122.275 367.58H115.106V342.753C115.106 339.807 112.699 337.419 109.738 337.419H75.305C72.3445 337.419 69.9451 339.814 69.9451 342.753V366.228H62.7764V342.753C62.7764 335.876 68.3947 330.285 75.305 330.285H109.738C116.649 330.285 122.267 335.876 122.267 342.753V367.58H122.275Z" fill="#6E92CC"/>
<path d="M154.78 372.326L153.51 388.027L150.38 426.681C149.819 433.632 145.537 438.885 140.443 438.885H42.0816C36.9874 438.885 32.7054 433.632 32.1443 426.681L28.571 382.517L27.7441 372.326H154.78Z" fill="#6E92CC"/>
<path d="M154.78 372.326L153.51 388.02L28.571 382.517L27.7441 372.326H154.78Z" fill="#374866"/>
<path d="M158.407 377.182H24.1205C22.7325 377.182 21.6104 376.066 21.6104 374.684V365.816C21.6104 364.435 22.7325 363.318 24.1205 363.318H158.399C159.787 363.318 160.909 364.435 160.909 365.816V374.677C160.917 376.058 159.795 377.182 158.407 377.182Z" fill="#6E92CC"/>
</g>
<mask id="mask3_252_1115" style="mask-type:luminance" maskUnits="userSpaceOnUse" x="6" y="0" width="532" height="448">
<path d="M10.8829 329.454C25.6559 299.242 66.7044 307.347 82.6069 276.576C92.2489 257.921 89.5837 230.281 77.3873 212.258C58.192 183.897 21.7356 184.867 9.74591 151.68C9.45059 150.658 6.58605 133.76 6.51961 131.276C6.40148 126.633 13.7548 84.452 79.7646 44.4313C93.947 35.835 158.761 -1.71694 265.428 0.0610995C298.03 0.604798 425.724 2.72816 485.783 72.5567C527.725 121.321 535.322 176.352 535.322 176.352C535.713 179.181 535.979 181.708 536.097 182.81C537.691 197.49 541.353 234.888 526.632 277.619C505.908 337.772 445.044 391.444 386.225 418.158C340.4 438.973 298.148 443.139 270.869 445.835C260.651 446.842 226.852 449.81 180.784 445.314C114.493 438.848 37.8744 431.369 14.2494 383.486C12.6621 380.254 -0.479306 352.687 10.8829 329.454Z" fill="white"/>
</mask>
<g mask="url(#mask3_252_1115)">
<path d="M131.785 299.617C129.26 299.816 127.045 298.794 126.735 297.295C124.992 288.765 120.991 262.227 121.249 250.023C121.751 226.13 125.214 189.246 126.233 178.821C126.366 177.491 128.411 176.55 130.315 176.954C132.545 177.432 135.439 177.895 138.082 177.836C143.929 177.711 149.156 175.735 157.233 175.911C166.897 176.124 166.875 181.377 166.875 181.377C166.875 181.377 166.506 197.358 166.462 213.683C166.417 230.009 166.048 260.956 166.048 260.956L160.105 253.704C160.105 253.704 157.078 272.88 158.377 279.963C159.204 284.489 161.722 290.198 163.435 293.732C164.262 295.437 162.217 297.259 159.219 297.494L140.518 298.941L135.254 284.665L131.785 299.617Z" fill="#24282D"/>
</g>
<mask id="mask4_252_1115" style="mask-type:luminance" maskUnits="userSpaceOnUse" x="6" y="0" width="532" height="448">
<path d="M10.8829 329.454C25.6559 299.242 66.7044 307.347 82.6069 276.576C92.2489 257.921 89.5837 230.281 77.3873 212.258C58.192 183.897 21.7356 184.867 9.74591 151.68C9.45059 150.658 6.58605 133.76 6.51961 131.276C6.40148 126.633 13.7548 84.452 79.7646 44.4313C93.947 35.835 158.761 -1.71694 265.428 0.0610995C298.03 0.604798 425.724 2.72816 485.783 72.5567C527.725 121.321 535.322 176.352 535.322 176.352C535.713 179.181 535.979 181.708 536.097 182.81C537.691 197.49 541.353 234.888 526.632 277.619C505.908 337.772 445.044 391.444 386.225 418.158C340.4 438.973 298.148 443.139 270.869 445.835C260.651 446.842 226.852 449.81 180.784 445.314C114.493 438.848 37.8744 431.369 14.2494 383.486C12.6621 380.254 -0.479306 352.687 10.8829 329.454Z" fill="white"/>
</mask>
<g mask="url(#mask4_252_1115)">
<path d="M83.559 94.8337L70.4102 95.1497V61.9032L83.559 61.5873V94.8337Z" fill="#9C5A4A"/>
<path d="M89.5093 94.8337L79.4834 95.1497V61.9032L89.5093 61.5873V94.8337Z" fill="#D8AB98"/>
<path d="M246.66 89.6833L231.525 89.9992V56.7528L246.66 56.4295V89.6833Z" fill="#9C5A4A"/>
<path d="M251.304 89.6833L241.285 89.9992V56.7528L251.304 56.4295V89.6833Z" fill="#D8AB98"/>
<path d="M282.814 58.1855L52.7578 65.5107V53.3877L282.814 46.0625V58.1855Z" fill="#D8AB98"/>
<path d="M52.7576 65.5107H20.4209V53.6008L52.7576 53.3877V65.5107Z" fill="#9C5A4A"/>
</g>
<mask id="mask5_252_1115" style="mask-type:luminance" maskUnits="userSpaceOnUse" x="6" y="0" width="532" height="448">
<path d="M10.8829 329.454C25.6559 299.242 66.7044 307.347 82.6069 276.576C92.2489 257.921 89.5837 230.281 77.3873 212.258C58.192 183.897 21.7356 184.867 9.74591 151.68C9.45059 150.658 6.58605 133.76 6.51961 131.276C6.40148 126.633 13.7548 84.452 79.7646 44.4313C93.947 35.835 158.761 -1.71694 265.428 0.0610995C298.03 0.604798 425.724 2.72816 485.783 72.5567C527.725 121.321 535.322 176.352 535.322 176.352C535.713 179.181 535.979 181.708 536.097 182.81C537.691 197.49 541.353 234.888 526.632 277.619C505.908 337.772 445.044 391.444 386.225 418.158C340.4 438.973 298.148 443.139 270.869 445.835C260.651 446.842 226.852 449.81 180.784 445.314C114.493 438.848 37.8744 431.369 14.2494 383.486C12.6621 380.254 -0.479306 352.687 10.8829 329.454Z" fill="white"/>
</mask>
<g mask="url(#mask5_252_1115)">
<path d="M81.8926 217.893L69.6445 218.209V184.963L81.8926 184.64V217.893Z" fill="#9C5A4A"/>
<path d="M87.4286 217.893L78.0967 218.209V184.963L87.4286 184.64V217.893Z" fill="#D8AB98"/>
<path d="M233.859 212.743L219.758 213.059V179.812L233.859 179.489V212.743Z" fill="#9C5A4A"/>
<path d="M238.186 212.743L228.854 213.059V179.812L238.186 179.489V212.743Z" fill="#D8AB98"/>
<path d="M267.547 181.245L53.1943 188.57V176.447L267.547 169.122V181.245Z" fill="#D8AB98"/>
<path d="M53.1947 188.57H23.0654V176.66L53.1947 176.447V188.57Z" fill="#9C5A4A"/>
</g>
<mask id="mask6_252_1115" style="mask-type:luminance" maskUnits="userSpaceOnUse" x="6" y="0" width="532" height="448">
<path d="M10.8829 329.454C25.6559 299.242 66.7044 307.347 82.6069 276.576C92.2489 257.921 89.5837 230.281 77.3873 212.258C58.192 183.897 21.7356 184.867 9.74591 151.68C9.45059 150.658 6.58605 133.76 6.51961 131.276C6.40148 126.633 13.7548 84.452 79.7646 44.4313C93.947 35.835 158.761 -1.71694 265.428 0.0610995C298.03 0.604798 425.724 2.72816 485.783 72.5567C527.725 121.321 535.322 176.352 535.322 176.352C535.713 179.181 535.979 181.708 536.097 182.81C537.691 197.49 541.353 234.888 526.632 277.619C505.908 337.772 445.044 391.444 386.225 418.158C340.4 438.973 298.148 443.139 270.869 445.835C260.651 446.842 226.852 449.81 180.784 445.314C114.493 438.848 37.8744 431.369 14.2494 383.486C12.6621 380.254 -0.479306 352.687 10.8829 329.454Z" fill="white"/>
</mask>
<g mask="url(#mask6_252_1115)">
<path d="M188.005 59.5741C193.35 62.8142 234.561 96.7513 231.947 106.435C230.862 110.469 228.699 112.122 224.18 112.658C218.894 113.29 214.42 110.601 210.965 108.096C196.812 97.824 180.578 79.8159 175.734 72.2555C177.683 69.7354 186.056 62.1016 188.005 59.5741Z" fill="#D37B67"/>
<path d="M185.03 75.0695C185.03 75.0695 174.428 74.0335 171.844 72.6523C169.26 71.271 152.996 57.5462 153.904 55.5184C154.804 53.4905 156.813 53.4024 158.917 55.298C161.021 57.1936 165.761 61.4697 165.761 61.4697L166.713 60.4337C166.713 60.4337 158.245 51.8447 158.142 49.861C158.046 47.8772 158.946 45.8494 162.054 47.7009C162.054 47.7009 163.095 44.5416 166.61 46.4445L174.915 53.6081L175.868 52.5721C175.868 52.5721 168.5 45.9228 169.452 44.8869C170.404 43.8509 170.833 42.3374 174.989 45.144C179.153 47.9507 194.413 61.7121 191.128 66.3336C187.835 70.9697 185.03 75.0695 185.03 75.0695Z" fill="#D37B67"/>
<path d="M171.517 57.0981C171.429 57.0981 171.333 57.0613 171.259 56.9952L161.794 47.9727C161.647 47.8331 161.639 47.598 161.779 47.4511C161.92 47.3041 162.156 47.2968 162.304 47.4364L171.776 56.4588C171.923 56.5984 171.931 56.8336 171.791 56.9805C171.717 57.0613 171.613 57.0981 171.517 57.0981Z" fill="#844B42"/>
<path d="M182.245 114.532L140.267 141.452L143.574 165.404C143.574 165.404 161.396 167.035 193.061 133.142L182.245 114.532Z" fill="#E78D73"/>
<path d="M261.457 410.642C256.717 414.654 261.014 423.816 266.684 421.692C266.824 421.641 266.957 421.582 267.082 421.523C278.88 415.888 278.083 413.405 284.27 412.126C290.242 410.899 293.218 412.751 299.227 409.834C302.077 408.445 304.233 406.645 305.613 405.337C305.613 405.33 305.621 405.33 305.621 405.33C305.621 405.33 305.658 403.699 305.399 402.802C303.664 396.844 302.365 393.008 300.792 390.084C299.929 388.475 299.124 387.571 297.389 384.39C297.212 384.067 296.488 382.722 295.565 380.753C295.373 380.342 295.174 379.901 294.96 379.445C294.591 378.645 294.214 377.763 293.83 376.83C293.646 376.396 293.469 375.948 293.291 375.493C293.262 375.434 293.24 375.36 293.21 375.302C290.368 367.925 288.987 360.813 288.293 356.243C283.295 360.203 278.304 364.156 273.313 368.109C275.861 373.707 277.064 378.409 277.625 381.958C277.706 382.48 277.78 382.972 277.832 383.442C277.942 384.339 278.016 385.147 278.061 385.852C278.075 386.065 278.083 386.256 278.09 386.447C278.12 387.079 278.12 387.579 278.098 387.99C278.068 388.497 278.075 388.901 277.928 389.261C274.14 398.548 267.4 405.616 261.457 410.642Z" fill="#E78D73"/>
<path d="M251.002 418.651C251.637 419.907 252.56 421.501 253.785 422.949C253.785 422.956 253.785 422.956 253.793 422.963C255.269 424.117 256.805 424.903 256.96 424.969C259.337 426.145 261.508 426.395 263.686 426.314C265.768 425.638 268.654 424.249 272.84 421.678C276.48 419.437 278.747 417.681 280.378 416.27C283.553 413.522 284.335 412.082 288.256 410.899C290.256 410.297 291.954 410.091 293.556 409.944C296.547 409.657 299.19 409.547 302.741 407.328C305.332 405.705 307.148 403.743 308.285 402.325C308.285 402.318 308.285 402.318 308.285 402.318C308.256 402.281 308.226 402.244 308.197 402.207C308.005 401.957 307.798 401.7 307.591 401.414L307.584 401.406L307.577 401.392C307.562 401.37 307.547 401.355 307.532 401.333C306.403 399.643 305.221 397.659 304.077 395.389C302.866 392.979 301.929 390.672 301.183 388.556C300.784 387.41 300.445 386.322 300.157 385.301C296.643 387.182 295.048 389.445 294.25 391.208C293.756 392.311 293.21 394 291.63 395.191C291.164 395.536 290.072 396.366 288.706 396.219C286.912 396.021 285.834 394.287 284.225 392.443C283.988 392.171 283.723 391.877 283.427 391.583L283.413 391.561C282.135 390.231 280.363 388.674 277.964 387.219C277.624 388.211 277.204 389.342 276.687 390.577C276.487 391.047 276.273 391.532 276.044 392.024C275.757 392.663 275.439 393.31 275.092 393.978C275.063 394.037 275.033 394.096 275.004 394.155C274.494 395.132 273.985 396.028 273.483 396.866C272.796 397.997 272.117 398.997 271.504 399.856C271.091 400.422 270.707 400.936 270.36 401.377C270.315 401.421 270.278 401.473 270.242 401.524C269.85 402.009 269.511 402.413 269.245 402.722C269.068 402.927 268.927 403.089 268.809 403.221C268.359 403.721 267.931 404.176 267.517 404.588C267.023 405.073 266.55 405.514 266.063 405.94C265.583 406.351 265.103 406.755 264.579 407.167C262.992 408.43 261.079 409.841 258.134 412.302C258.119 412.324 258.097 412.339 258.075 412.354C256.761 413.463 255.557 414.499 254.494 415.447C253.077 416.703 251.903 417.798 251.002 418.651Z" fill="#374866"/>
<path d="M251.002 418.651C251.637 419.907 252.56 421.501 253.785 422.949C253.785 422.956 253.785 422.956 253.793 422.963C255.269 424.117 256.805 424.903 256.96 424.969C259.337 426.145 261.508 426.395 263.686 426.314C265.768 425.638 268.654 424.249 272.84 421.678C276.48 419.437 278.747 417.681 280.378 416.27C280.267 416.174 280.157 416.094 280.046 416.006C273.047 410.745 266.462 420.098 263.376 416.601C261.294 414.242 259.256 412.912 258.141 412.295C258.126 412.317 258.104 412.332 258.082 412.347C256.768 413.456 255.565 414.492 254.501 415.44C253.077 416.703 251.903 417.798 251.002 418.651Z" fill="#02102D"/>
<path d="M253.786 422.949C253.786 422.956 253.786 422.956 253.793 422.963C255.27 424.117 256.805 424.903 256.96 424.969C259.338 426.145 261.508 426.395 263.686 426.314C264.808 426.27 265.923 426.145 267.075 425.998C269.164 425.733 270.7 425.241 271.409 425.035C279.537 422.669 283.635 421.435 284.993 418.922C285.835 417.365 285.739 416.483 286.758 415.668C288.219 414.499 289.932 415.961 293.181 416.035C294.628 416.072 295.794 415.741 298.083 415.072C302.601 413.757 306.846 411.803 310.146 410.062C310.205 409.18 310.383 405.499 308.278 402.31C308.249 402.266 308.227 402.229 308.19 402.185C308.079 402.016 307.961 401.855 307.835 401.693C307.754 401.59 307.673 401.487 307.584 401.392C307.584 401.384 307.577 401.377 307.57 401.37C307.555 401.348 307.54 401.333 307.525 401.311C306.802 400.473 306.041 399.878 305.407 399.489C304.026 400.128 302.084 401.054 299.781 402.237C293.269 405.58 290.013 407.248 286.625 409.929C282.697 413.052 282.712 414.139 278.016 417.548C275.875 419.099 274 420.23 272.021 421.185C269.054 422.618 266.447 423.801 263.022 423.588C258.991 423.338 254.568 421.156 254.362 418.988C254.236 417.651 255.698 416.255 255.226 415.623C255.159 415.535 255.011 415.432 254.487 415.425C253.092 415.396 251.121 416.894 250.988 418.643C250.884 420.245 252.295 421.788 253.786 422.949Z" fill="#02102D"/>
<path d="M280.075 395.213C280.26 395.778 280.799 396.102 281.286 395.933C281.773 395.764 282.017 395.161 281.832 394.596C281.648 394.03 281.109 393.707 280.622 393.876C280.134 394.044 279.891 394.647 280.075 395.213Z" fill="white"/>
<path d="M264.579 407.145C266.572 409.342 268.027 408.827 268.027 408.827C281.796 390.973 283.427 391.554 283.427 391.554L283.413 391.532C282.881 390.613 282.076 389.416 280.903 388.225C279.611 386.918 278.355 386.109 277.447 385.617C276.805 388.358 275.771 391.73 274.044 395.227C274.044 395.227 271.91 399.555 269.238 402.692C269.024 402.942 268.802 403.192 268.802 403.192C268.352 403.691 267.924 404.147 267.51 404.558C267.015 405.043 266.543 405.484 266.056 405.91C265.591 406.329 265.103 406.726 264.579 407.145Z" fill="#02102D"/>
<path d="M280.372 395.11C280.497 395.492 280.859 395.705 281.176 395.587C281.501 395.477 281.664 395.073 281.538 394.698C281.413 394.316 281.051 394.103 280.733 394.221C280.416 394.338 280.246 394.735 280.372 395.11Z" fill="#02102D"/>
<path d="M275.786 402.082C275.971 402.648 276.51 402.971 276.997 402.802C277.484 402.633 277.728 402.031 277.543 401.465C277.359 400.899 276.82 400.576 276.333 400.745C275.845 400.914 275.602 401.509 275.786 402.082Z" fill="white"/>
<path d="M276.074 401.98C276.199 402.362 276.561 402.575 276.878 402.457C277.196 402.34 277.366 401.943 277.24 401.568C277.115 401.186 276.753 400.973 276.436 401.091C276.118 401.201 275.956 401.597 276.074 401.98Z" fill="#02102D"/>
<path d="M270.825 406.888C271.01 407.453 271.549 407.777 272.036 407.608C272.523 407.439 272.767 406.836 272.582 406.27C272.398 405.705 271.859 405.381 271.372 405.55C270.884 405.719 270.641 406.322 270.825 406.888Z" fill="white"/>
<path d="M271.113 406.785C271.238 407.167 271.6 407.38 271.917 407.262C272.242 407.152 272.405 406.748 272.279 406.373C272.154 405.991 271.792 405.778 271.475 405.896C271.157 406.006 270.995 406.403 271.113 406.785Z" fill="#02102D"/>
<path d="M281.249 395.374C281.344 395.345 281.426 395.264 281.455 395.154C281.492 395.029 281.455 394.882 281.367 394.787C280.34 393.618 276.538 389.967 276.376 389.812C276.236 389.68 276.044 389.695 275.94 389.842C275.837 389.989 275.859 390.217 275.999 390.349C276.036 390.378 279.019 393.251 280.444 394.735C280.252 394.742 280.052 394.75 279.861 394.742C279.373 394.735 278.805 394.676 278.222 394.574C277.166 394.39 275.94 394.037 274.685 393.56C274.515 393.493 274.346 393.596 274.301 393.78C274.257 393.964 274.36 394.169 274.523 394.236C275.815 394.728 277.077 395.088 278.17 395.279C278.783 395.389 279.388 395.448 279.897 395.455C280.34 395.462 280.783 395.44 281.219 395.382C281.226 395.382 281.234 395.374 281.249 395.374Z" fill="#02102D"/>
<path d="M276.665 402.031L276.747 401.825C277.522 399.922 274.908 395.007 274.606 394.456C274.51 394.28 274.318 394.213 274.17 394.316C274.022 394.412 273.985 394.632 274.074 394.801C274.798 396.146 276.525 399.783 276.23 401.274C275.861 401.23 275.484 401.149 275.122 401.039C274.008 400.701 272.967 400.077 272.022 399.195C271.881 399.063 271.689 399.077 271.586 399.232C271.483 399.379 271.512 399.606 271.653 399.739C272.679 400.694 273.808 401.37 275.012 401.737C275.492 401.884 275.979 401.98 276.459 402.024L276.665 402.031Z" fill="#02102D"/>
<path d="M271.763 407.02C272.036 406.946 272.242 406.741 272.368 406.417C273.151 404.492 271.283 400.495 271.201 400.326C271.12 400.15 270.928 400.069 270.773 400.15C270.626 400.231 270.567 400.444 270.655 400.628C271.157 401.693 272.338 404.742 271.792 406.072C271.711 406.278 271.6 406.314 271.519 406.322C270.781 406.41 269.134 404.705 268.27 403.611C268.152 403.456 267.953 403.434 267.828 403.567C267.702 403.691 267.702 403.919 267.82 404.074C268.071 404.389 270.33 407.196 271.63 407.042C271.674 407.042 271.718 407.034 271.763 407.02Z" fill="#02102D"/>
<path d="M260.725 182.039L264.417 296.032L301.796 380.474C294.923 385.624 288.344 389.364 284.158 391.319C273.653 396.227 265.65 398.467 265.65 398.467C265.65 398.467 223.538 307.604 223.892 300.418C224.247 293.225 212.648 183.773 212.648 183.773L260.725 182.039Z" fill="#FBAE2C"/>
<path d="M264.313 292.652L249.215 299.441L266.107 299.838L264.416 296.039L264.313 292.652Z" fill="black"/>
<path d="M177.588 410.627C171.711 412.714 172.428 422.787 178.496 422.794C178.644 422.794 178.792 422.787 178.932 422.78C191.985 421.656 192.14 419.055 198.378 420.032C204.403 420.98 206.514 423.757 213.188 423.14C216.355 422.846 219.013 421.913 220.778 421.178C220.778 421.171 220.785 421.171 220.785 421.171C220.785 421.171 221.405 419.657 221.486 418.731C222.011 412.552 222.18 408.511 221.76 405.227C221.531 403.42 221.102 402.295 220.63 398.71C220.578 398.343 220.386 396.836 220.231 394.669C220.194 394.221 220.165 393.736 220.135 393.236C220.084 392.355 220.039 391.407 220.025 390.393C220.01 389.923 220.002 389.445 220.002 388.953C219.995 388.887 220.002 388.813 219.995 388.74C219.995 380.849 221.265 373.715 222.269 369.196C216.171 371.143 210.087 373.083 203.996 375.03C204.366 381.157 203.79 385.97 203.037 389.489C202.926 390.003 202.815 390.496 202.697 390.951C202.483 391.833 202.262 392.612 202.04 393.288C201.981 393.486 201.915 393.677 201.848 393.853C201.649 394.456 201.472 394.919 201.294 395.301C201.08 395.764 200.947 396.146 200.674 396.432C193.793 403.78 184.949 408.012 177.588 410.627Z" fill="#E78D73"/>
<path d="M164.935 414.441C165.075 415.844 165.363 417.651 165.99 419.437C165.99 419.444 165.99 419.444 165.998 419.451C166.965 421.046 168.117 422.317 168.235 422.434C170.029 424.367 171.97 425.366 174.038 426.049C176.23 426.145 179.427 425.866 184.263 424.925C188.471 424.11 191.225 423.257 193.255 422.515C197.205 421.06 198.46 419.995 202.55 420.26C204.639 420.399 206.301 420.803 207.851 421.229C210.752 422.008 213.263 422.838 217.375 422.008C220.38 421.398 222.786 420.201 224.359 419.275C224.359 419.268 224.366 419.268 224.366 419.268C224.352 419.224 224.337 419.18 224.322 419.128C224.233 418.834 224.13 418.511 224.041 418.173L224.034 418.166V418.151C224.027 418.129 224.019 418.107 224.012 418.077C223.569 416.101 223.17 413.831 222.927 411.311C222.661 408.629 222.617 406.145 222.683 403.904C222.727 402.692 222.801 401.561 222.89 400.503C218.925 401.024 216.622 402.582 215.241 403.949C214.377 404.801 213.263 406.189 211.358 406.748C210.797 406.91 209.475 407.299 208.25 406.682C206.648 405.874 206.264 403.868 205.422 401.583C205.296 401.245 205.156 400.877 204.986 400.503L204.979 400.481C204.263 398.783 203.17 396.712 201.45 394.507C200.778 395.316 199.973 396.227 199.043 397.196C198.689 397.564 198.312 397.946 197.921 398.328C197.419 398.82 196.887 399.312 196.326 399.819C196.282 399.863 196.23 399.908 196.179 399.952C195.352 400.686 194.554 401.348 193.779 401.95C192.731 402.766 191.742 403.464 190.856 404.051C190.265 404.433 189.719 404.779 189.239 405.073C189.18 405.102 189.128 405.139 189.076 405.168C188.537 405.484 188.072 405.749 187.711 405.94C187.474 406.072 187.282 406.167 187.127 406.248C186.529 406.557 185.961 406.829 185.429 407.071C184.794 407.35 184.196 407.6 183.584 407.828C182.986 408.048 182.395 408.247 181.753 408.452C179.818 409.077 177.515 409.724 173.883 410.995C173.86 411.009 173.838 411.017 173.816 411.024C172.184 411.597 170.686 412.148 169.357 412.662C167.57 413.346 166.079 413.956 164.935 414.441Z" fill="#374866"/>
<path d="M164.935 414.441C165.075 415.844 165.363 417.651 165.99 419.437C165.99 419.444 165.99 419.444 165.998 419.451C166.965 421.046 168.117 422.317 168.235 422.434C170.029 424.367 171.97 425.366 174.038 426.049C176.23 426.145 179.427 425.866 184.263 424.925C188.471 424.11 191.225 423.257 193.255 422.515C193.189 422.39 193.115 422.273 193.041 422.148C188.397 414.771 178.873 421.207 177.242 416.85C176.149 413.919 174.717 411.957 173.897 410.987C173.875 411.002 173.853 411.009 173.831 411.017C172.199 411.59 170.701 412.141 169.372 412.655C167.57 413.346 166.079 413.956 164.935 414.441Z" fill="#02102D"/>
<path d="M165.982 419.437C165.982 419.444 165.982 419.444 165.99 419.451C166.957 421.046 168.109 422.317 168.227 422.434C170.021 424.367 171.962 425.366 174.03 426.049C175.093 426.402 176.185 426.674 177.308 426.946C179.36 427.438 180.969 427.511 181.708 427.57C190.161 428.209 194.428 428.496 196.606 426.622C197.95 425.469 198.179 424.602 199.434 424.205C201.22 423.632 202.291 425.586 205.303 426.806C206.639 427.342 207.858 427.453 210.235 427.629C214.938 427.982 219.604 427.651 223.317 427.181C223.694 426.372 225.178 422.993 224.366 419.282C224.358 419.231 224.343 419.187 224.329 419.135C224.284 418.937 224.233 418.746 224.174 418.548C224.137 418.423 224.092 418.298 224.048 418.18C224.048 418.173 224.048 418.166 224.041 418.158C224.033 418.136 224.026 418.114 224.019 418.085C223.65 417.049 223.147 416.226 222.697 415.638C221.176 415.748 219.028 415.939 216.444 416.233C209.157 417.071 205.51 417.482 201.383 418.805C196.584 420.34 196.215 421.362 190.589 422.905C188.035 423.603 185.872 424.007 183.679 424.205C180.386 424.506 177.529 424.69 174.399 423.294C170.722 421.648 167.37 418.055 167.961 415.954C168.323 414.661 170.198 413.867 169.984 413.111C169.954 413.008 169.851 412.861 169.371 412.663C168.079 412.148 165.702 412.854 164.941 414.448C164.247 415.888 165.008 417.828 165.982 419.437Z" fill="#02102D"/>
<path d="M200.549 402.744C200.52 403.339 200.911 403.831 201.421 403.846C201.937 403.853 202.38 403.383 202.41 402.788C202.439 402.193 202.048 401.7 201.539 401.686C201.022 401.671 200.579 402.149 200.549 402.744Z" fill="white"/>
<path d="M181.767 408.452C182.837 411.208 184.38 411.237 184.38 411.237C203.679 399.386 204.993 400.503 204.993 400.503L204.986 400.481C204.823 399.437 204.498 398.034 203.834 396.506C203.103 394.831 202.217 393.633 201.545 392.854C199.958 395.191 197.773 397.983 194.901 400.642C194.901 400.642 191.35 403.934 187.717 405.932C187.422 406.094 187.134 406.241 187.134 406.241C186.536 406.55 185.967 406.821 185.436 407.064C184.801 407.343 184.203 407.593 183.59 407.821C183 408.048 182.409 408.247 181.767 408.452Z" fill="#02102D"/>
<path d="M200.859 402.751C200.837 403.148 201.095 403.478 201.442 403.486C201.782 403.493 202.077 403.177 202.099 402.78C202.121 402.384 201.863 402.053 201.516 402.046C201.176 402.038 200.881 402.354 200.859 402.751Z" fill="#02102D"/>
<path d="M194.06 407.652C194.031 408.247 194.422 408.739 194.931 408.754C195.448 408.761 195.891 408.291 195.921 407.696C195.95 407.101 195.559 406.608 195.049 406.594C194.54 406.579 194.097 407.057 194.06 407.652Z" fill="white"/>
<path d="M194.369 407.659C194.346 408.056 194.605 408.386 194.952 408.394C195.291 408.401 195.587 408.085 195.609 407.688C195.631 407.292 195.373 406.961 195.026 406.954C194.686 406.946 194.391 407.262 194.369 407.659Z" fill="#02102D"/>
<path d="M187.695 410.407C187.665 411.002 188.057 411.494 188.566 411.509C189.083 411.516 189.526 411.046 189.555 410.451C189.585 409.856 189.194 409.364 188.684 409.349C188.167 409.334 187.724 409.812 187.695 410.407Z" fill="white"/>
<path d="M188.005 410.414C187.983 410.811 188.241 411.142 188.588 411.149C188.928 411.156 189.231 410.84 189.246 410.444C189.268 410.047 189.009 409.716 188.662 409.709C188.323 409.694 188.027 410.01 188.005 410.414Z" fill="#02102D"/>
<path d="M201.591 403.302C201.694 403.309 201.797 403.258 201.864 403.162C201.938 403.052 201.96 402.905 201.915 402.788C201.376 401.34 199.139 396.587 199.043 396.381C198.962 396.212 198.778 396.153 198.623 396.256C198.468 396.359 198.416 396.579 198.497 396.748C198.519 396.792 200.269 400.517 201.074 402.406C200.889 402.347 200.705 402.281 200.527 402.215C200.077 402.038 199.568 401.781 199.051 401.48C198.128 400.936 197.109 400.179 196.105 399.29C195.972 399.173 195.773 399.21 195.67 399.364C195.559 399.526 195.581 399.746 195.714 399.863C196.747 400.775 197.796 401.561 198.748 402.119C199.287 402.435 199.826 402.707 200.299 402.891C200.712 403.052 201.133 403.184 201.554 403.287C201.561 403.302 201.576 403.302 201.591 403.302Z" fill="#02102D"/>
<path d="M194.901 407.909L195.056 407.747C196.466 406.241 195.795 400.73 195.713 400.106C195.691 399.908 195.529 399.783 195.359 399.819C195.189 399.856 195.071 400.047 195.101 400.238C195.3 401.744 195.595 405.756 194.783 407.042C194.451 406.865 194.133 406.66 193.831 406.432C192.915 405.727 192.162 404.779 191.594 403.618C191.512 403.449 191.321 403.398 191.173 403.5C191.025 403.603 190.966 403.824 191.047 403.993C191.66 405.249 192.472 406.27 193.469 407.042C193.86 407.343 194.281 407.608 194.724 407.821L194.901 407.909Z" fill="#02102D"/>
<path d="M188.522 410.862C188.803 410.884 189.069 410.767 189.305 410.517C190.73 408.996 190.427 404.602 190.412 404.419C190.397 404.22 190.242 404.081 190.073 404.11C189.903 404.132 189.777 404.316 189.785 404.514C189.866 405.683 189.873 408.952 188.884 410.003C188.729 410.164 188.618 410.157 188.537 410.142C187.821 409.966 186.891 407.791 186.477 406.461C186.418 406.278 186.241 406.19 186.079 406.263C185.916 406.336 185.835 406.55 185.887 406.733C186.005 407.123 187.112 410.532 188.382 410.84C188.434 410.848 188.478 410.855 188.522 410.862Z" fill="#02102D"/>
<path d="M237.949 197.115C237.949 197.115 239.522 232.132 238.437 247.914C234.723 301.961 228.831 396.998 228.831 396.998C228.831 396.998 213.527 400.797 189.459 393.56C188.455 393.515 194.029 189.459 194.029 189.459C194.029 189.459 218.075 184.617 237.949 197.115Z" fill="#FBAE2C"/>
<path d="M218.355 100.939C228.13 99.6021 242.888 100.006 251.792 104.04C257.794 106.758 266.159 109.734 263.169 130.358C258.392 163.355 259.057 202.464 259.057 202.464L195.963 203.059C195.963 203.059 188.145 174.228 188.477 129.425C188.632 108.816 203.095 103.026 218.355 100.939Z" fill="white"/>
<path d="M168.447 159.35C169.325 156.977 221.263 124.627 204.984 109.234C191.607 96.5897 150.854 131.732 150.854 131.732C151.754 135.281 153.305 139.836 156.066 144.692C160.082 151.782 164.977 156.514 168.447 159.35Z" fill="white"/>
<path d="M261.405 219.686L260.799 187.16C260.725 155.126 261.39 149.446 261.56 144.34C247.606 144.509 233.136 144.332 219.175 144.501C218.414 148.204 218.171 163.031 215.417 167.234C209.703 175.955 193.475 175.551 189.009 154.383C187.635 169.085 195.188 199.158 195.159 202.934C195.063 215.91 194.967 228.885 194.871 241.86L249.23 233.874C256.325 232.83 261.53 226.754 261.405 219.686Z" fill="#FBAE2C"/>
<path d="M231.23 203.698C230.374 203.698 229.525 203.691 228.676 203.684C217.579 203.581 206.394 202.795 195.416 201.34C195.217 201.31 195.069 201.127 195.098 200.928C195.128 200.73 195.313 200.583 195.512 200.613C206.453 202.06 217.616 202.846 228.683 202.949C239.351 203.052 250.13 202.515 260.717 201.369C260.916 201.347 261.101 201.494 261.123 201.693C261.145 201.891 260.998 202.075 260.798 202.097C251.023 203.162 241.093 203.698 231.23 203.698Z" fill="black"/>
<path d="M231.186 211.318C230.329 211.318 229.48 211.31 228.624 211.303C217.527 211.2 206.342 210.414 195.364 208.959C195.165 208.93 195.017 208.746 195.047 208.548C195.076 208.349 195.261 208.21 195.46 208.232C206.402 209.679 217.564 210.465 228.631 210.568C239.299 210.671 250.078 210.135 260.665 208.988C260.872 208.966 261.049 209.113 261.071 209.312C261.093 209.51 260.946 209.694 260.746 209.716C250.972 210.781 241.042 211.318 231.186 211.318Z" fill="black"/>
<path d="M246.674 210.595L248.808 210.61L248.865 202.447L246.732 202.432L246.674 210.595Z" fill="black"/>
<path d="M210.879 210.345L213.138 210.36L213.195 202.198L210.936 202.182L210.879 210.345Z" fill="black"/>
<path d="M214.722 105.12C217.675 105.708 221.699 106.193 226.446 105.869C230.595 105.59 234.08 104.767 236.723 103.944C236.317 96.5677 235.911 89.1836 235.505 81.807L213.504 82.9825L214.722 105.12Z" fill="#E78D73"/>
<path d="M209.828 96.9497L230.677 97.2142C233.881 97.2583 236.539 94.6794 236.583 91.4834L237.004 58.8908C237.048 55.6948 234.457 53.0497 231.245 53.013L209.473 52.7338C206.269 52.6897 203.612 55.2686 203.567 58.4647L203.154 90.1388C203.11 93.8345 206.114 96.9057 209.828 96.9497Z" fill="#E78D73"/>
<path d="M232.204 49.2658C236.656 51.1467 240.17 55.5037 241.086 60.1986C241.677 63.211 242.171 66.5393 241.677 70.9183C240.739 79.1693 238.332 87.9052 237.262 91.5201C236.951 92.5634 236.029 93.2099 234.943 93.401C227.701 94.6647 220.842 95.326 217.468 93.4524C216.294 92.7985 216.346 89.8008 214.308 81.8069C213.467 78.5154 212.381 75.8924 211.54 74.0997C204.113 69.1917 203.773 64.7319 203.751 63.5857C203.559 51.5655 217.616 43.0941 232.204 49.2658Z" fill="#2A0113"/>
<path d="M192.441 68.0382L215.844 68.4643L215.977 61.4991L195.733 61.0876C191.252 60.7717 189.015 62.5645 188.978 64.4894C188.941 66.4144 190.492 68.0014 192.441 68.0382Z" fill="#FBAE2C"/>
<path d="M242.488 69.2725L202.702 68.1998C201.624 55.6874 211.99 45.3644 223.441 45.7832C234.744 46.202 244.245 57.0025 242.488 69.2725Z" fill="#FBAE2C"/>
<path d="M208.146 76.0247C208.146 76.0247 209.718 70.0954 213.971 70.6832C217.566 71.1755 217.573 76.9651 214.207 78.5081C211.342 79.8232 210.574 81.2559 210.574 81.2559L208.146 76.0247Z" fill="#E78D73"/>
<path d="M213.334 77.1562C213.179 77.1562 213.017 77.1047 212.884 77.0019C212.559 76.7521 212.5 76.2892 212.751 75.9733C213.689 74.7683 213.681 73.6074 213.319 73.2327C213.187 73.0931 212.943 73.005 212.64 72.9829C212.234 72.9535 211.931 72.5935 211.961 72.1894C211.991 71.7853 212.337 71.4841 212.758 71.5135C213.43 71.5649 213.991 71.8073 214.375 72.2041C215.394 73.2548 215.202 75.2165 213.917 76.8696C213.77 77.0606 213.548 77.1562 213.334 77.1562Z" fill="#844B42"/>
<path d="M240.347 67.039L231.414 66.8847C231.739 64.4968 233.887 62.7775 236.206 62.9465C238.347 63.1008 240.141 64.8274 240.347 67.039Z" fill="#2A0113"/>
<path d="M215.505 68.7803C215.476 68.7803 215.439 68.7729 215.409 68.7656C215.047 68.6627 206.557 66.2969 203.958 64.1809C202.585 63.0567 202.703 61.6607 202.962 61.0803C203.043 60.8966 203.264 60.8085 203.449 60.8893C203.634 60.9701 203.722 61.1905 203.641 61.3742C203.619 61.4183 203.154 62.5718 204.431 63.6078C206.911 65.6283 215.52 68.0308 215.608 68.0529C215.808 68.1043 215.919 68.31 215.867 68.5084C215.815 68.6774 215.668 68.7803 215.505 68.7803Z" fill="black"/>
<path d="M240.363 63.2404C240.267 63.2404 240.164 63.2036 240.09 63.1228C239.935 62.9612 236.332 59.1773 231.799 62.9759C231.644 63.1081 231.408 63.0861 231.283 62.9318C231.15 62.7775 231.172 62.5424 231.327 62.4175C236.406 58.1634 240.6 62.5865 240.637 62.6305C240.777 62.7775 240.762 63.0126 240.614 63.1522C240.541 63.2036 240.452 63.2404 240.363 63.2404Z" fill="black"/>
<path d="M224.756 108.603C223.56 108.603 222.275 108.58 220.895 108.529C220.688 108.522 220.533 108.353 220.54 108.147C220.548 107.941 220.725 107.772 220.924 107.794C234.885 108.294 238.791 106.068 239.869 104.694C240.415 103.996 240.282 103.467 240.282 103.467C240.223 103.268 240.341 103.07 240.533 103.011C240.732 102.952 240.932 103.07 240.991 103.261C240.998 103.298 241.234 104.15 240.444 105.149C239.167 106.773 235.365 108.603 224.756 108.603Z" fill="black"/>
<path d="M261.559 144.332C260.99 136.948 259.794 128.448 257.469 119.212C256.103 113.79 254.53 108.816 252.876 104.304C250.691 103.496 248.69 102.651 245.686 101.953C247.413 106.949 249.687 112.592 250.957 118.962C252.891 128.683 253.482 137.441 253.46 144.744C256.162 144.604 258.864 144.472 261.559 144.332Z" fill="#FBAE2C"/>
<path d="M219.174 144.494C219.174 144.494 217.321 130.725 215.541 126.456C208.572 109.734 202.525 105.208 202.525 105.208C203.182 104.775 204.054 104.29 205.132 103.893C206.054 103.548 206.896 103.349 207.59 103.232C208.72 104.187 210.255 105.575 211.938 107.368C214.397 109.991 217.417 113.731 219.668 118.176C224.172 127.074 227.428 145.728 227.428 145.728L219.174 144.494Z" fill="#FBAE2C"/>
<path d="M232.943 325.84L241.537 247.518L242.703 348.322L232.943 325.84Z" fill="black"/>
<path d="M123.315 110.946C131.813 117.86 149.657 141.555 152.551 152.084C153.415 155.243 152.389 161.341 148.734 163.95C145.973 165.926 141.41 165.867 137.099 164.199C132.064 162.26 129.199 158.52 127.191 155.361C118.937 142.407 112.47 128.572 111.414 121.519C114.264 120.755 120.451 111.718 123.315 110.946Z" fill="#E78D73"/>
<path d="M126.018 109.58C126.018 109.58 119.115 100.653 115.8 97.6992C112.478 94.7529 110.617 95.495 108.491 95.2084C106.365 94.9219 100.783 91.1674 100.65 94.6427C100.51 98.1179 108.683 100.976 111.008 101.05C113.334 101.116 120.097 113.518 126.018 109.58Z" fill="#E78D73"/>
<path d="M82.9819 74.5845L95.3998 81.6967L100.007 73.7249L87.5961 66.6127C87.1827 66.3776 86.6511 66.5172 86.4149 66.9287L82.6644 73.409C82.4281 73.8204 82.5684 74.3494 82.9819 74.5845Z" fill="#02102B"/>
<path d="M70.5276 62.9164L85.8652 71.701L86.7049 70.2491L71.3672 61.4645L70.5276 62.9164Z" fill="#AEACB1"/>
<path d="M95.3626 106.298L103.099 110.729L113.104 93.4274L105.368 88.9966L95.3626 106.298Z" fill="#02102B"/>
<path d="M87.8184 81.447L114.832 96.9203L122.584 83.5115L95.5703 68.0382C93.9018 67.083 91.7682 67.6561 90.8084 69.3166L86.5338 76.708C85.574 78.3758 86.1498 80.4918 87.8184 81.447Z" fill="#02102B"/>
<path d="M96.625 86.4945L126.001 103.32C126.769 103.761 127.751 103.496 128.187 102.732L134.344 92.0932C134.787 91.329 134.521 90.3519 133.753 89.9184L104.377 73.0931L96.625 86.4945Z" fill="#FBAE2C"/>
<path d="M126.577 94.3208C127.568 92.9311 127.24 91.0047 125.844 90.0179C124.447 89.0311 122.512 89.3577 121.52 90.7474C120.528 92.137 120.857 94.0635 122.253 95.0503C123.649 96.0371 125.585 95.7105 126.577 94.3208Z" fill="#02102B"/>
<path d="M84.8064 111.35L103.736 122.188C104.489 122.621 105.456 122.364 105.892 121.607L109.155 115.964C109.591 115.215 109.332 114.253 108.572 113.819L89.6421 102.982C88.8891 102.548 87.9219 102.805 87.4863 103.562L84.2231 109.205C83.7875 109.962 84.0459 110.917 84.8064 111.35Z" fill="#02102B"/>
<path d="M126.83 121.688C126.83 121.688 116.339 124.252 112.692 123.135C109.045 122.019 103.02 119.241 100.909 117.103C98.7973 114.965 99.5652 114.451 99.5652 114.451C99.5652 114.451 96.1691 112.254 96.8261 110.072L97.5054 108.882C97.5054 108.882 93.6515 106.413 94.9066 104.26C95.5932 103.077 97.0698 102.967 97.0698 102.967C97.1584 100.08 98.251 99.1539 99.3732 98.9188C102.275 98.3163 107.332 101.939 108.779 100.77C109.163 100.454 110.056 100.087 110.499 99.7711C111.385 99.1392 112.374 99.7637 116.021 101.41C117.291 101.983 118.834 102.725 120.606 103.695C124.637 105.891 127.11 110.131 127 114.701C126.948 117.03 126.889 119.359 126.83 121.688Z" fill="#E78D73"/>
<path d="M106.416 118.426C106.371 118.426 106.32 118.418 106.276 118.396C105.434 118.044 104.585 117.662 103.765 117.25C102.363 116.545 100.989 115.744 99.6827 114.87C99.5128 114.759 99.4686 114.532 99.5793 114.363C99.69 114.194 99.9189 114.15 100.089 114.26C101.373 115.12 102.717 115.898 104.09 116.589C104.895 116.993 105.722 117.375 106.549 117.713C106.733 117.794 106.829 118.007 106.748 118.191C106.696 118.338 106.563 118.426 106.416 118.426Z" fill="#844B42"/>
<path d="M104.09 112.79C104.045 112.79 103.994 112.783 103.949 112.761C103.1 112.408 102.251 112.019 101.439 111.615C100.036 110.91 98.6633 110.116 97.3565 109.234C97.1867 109.124 97.1424 108.896 97.2531 108.727C97.3639 108.558 97.5927 108.514 97.7625 108.625C99.0472 109.484 100.391 110.263 101.764 110.954C102.561 111.358 103.396 111.732 104.223 112.078C104.407 112.159 104.503 112.372 104.422 112.555C104.37 112.71 104.237 112.79 104.09 112.79Z" fill="#844B42"/>
<path d="M104.024 107.39C103.973 107.39 103.914 107.376 103.862 107.353C102.983 106.92 102.105 106.464 101.248 105.994C99.7792 105.186 98.3174 104.304 96.9073 103.379C96.7375 103.268 96.6932 103.041 96.8039 102.872C96.9147 102.703 97.1435 102.659 97.3133 102.769C98.7087 103.687 100.156 104.554 101.603 105.355C102.452 105.825 103.316 106.273 104.187 106.7C104.371 106.788 104.445 107.008 104.357 107.192C104.29 107.317 104.165 107.39 104.024 107.39Z" fill="#844B42"/>
</g>
<mask id="mask7_252_1115" style="mask-type:luminance" maskUnits="userSpaceOnUse" x="6" y="0" width="532" height="448">
<path d="M10.8829 329.454C25.6559 299.242 66.7044 307.347 82.6069 276.576C92.2489 257.921 89.5837 230.281 77.3873 212.258C58.192 183.897 21.7356 184.867 9.74591 151.68C9.45059 150.658 6.58605 133.76 6.51961 131.276C6.40148 126.633 13.7548 84.452 79.7646 44.4313C93.947 35.835 158.761 -1.71694 265.428 0.0610995C298.03 0.604798 425.724 2.72816 485.783 72.5567C527.725 121.321 535.322 176.352 535.322 176.352C535.713 179.181 535.979 181.708 536.097 182.81C537.691 197.49 541.353 234.888 526.632 277.619C505.908 337.772 445.044 391.444 386.225 418.158C340.4 438.973 298.148 443.139 270.869 445.835C260.651 446.842 226.852 449.81 180.784 445.314C114.493 438.848 37.8744 431.369 14.2494 383.486C12.6621 380.254 -0.479306 352.687 10.8829 329.454Z" fill="white"/>
</mask>
<g mask="url(#mask7_252_1115)">
<path d="M360.335 244.064L499.774 248.767L499.021 28.4584L359.966 27.7971L360.335 244.064Z" fill="#90BCD5"/>
<path d="M366.411 34.1231L366.773 236.423L493.063 240.552L492.377 34.8285L366.411 34.1231Z" fill="#24282D"/>
<path opacity="0.54" d="M371.631 34.1526L492.702 132.445L492.68 125.332L405.149 34.3436L371.631 34.1526Z" fill="#FFFFFD"/>
<path opacity="0.54" d="M366.604 143.201C380.04 155.934 451.964 228.15 463.09 239.568L418.556 238.113L366.655 173.053L366.604 143.201Z" fill="#FFFFFD"/>
<path opacity="0.54" d="M492.849 176.888L366.559 113.797L366.573 123.591L492.967 210.994L492.849 176.888Z" fill="#FFFFFD"/>
</g>
<mask id="mask8_252_1115" style="mask-type:luminance" maskUnits="userSpaceOnUse" x="6" y="0" width="532" height="448">
<path d="M10.8829 329.454C25.6559 299.242 66.7044 307.347 82.6069 276.576C92.2489 257.921 89.5837 230.281 77.3873 212.258C58.192 183.897 21.7356 184.867 9.74591 151.68C9.45059 150.658 6.58605 133.76 6.51961 131.276C6.40148 126.633 13.7548 84.452 79.7646 44.4313C93.947 35.835 158.761 -1.71694 265.428 0.0610995C298.03 0.604798 425.724 2.72816 485.783 72.5567C527.725 121.321 535.322 176.352 535.322 176.352C535.713 179.181 535.979 181.708 536.097 182.81C537.691 197.49 541.353 234.888 526.632 277.619C505.908 337.772 445.044 391.444 386.225 418.158C340.4 438.973 298.148 443.139 270.869 445.835C260.651 446.842 226.852 449.81 180.784 445.314C114.493 438.848 37.8744 431.369 14.2494 383.486C12.6621 380.254 -0.479306 352.687 10.8829 329.454Z" fill="white"/>
</mask>
<g mask="url(#mask8_252_1115)">
<path d="M564.07 424.866C563.029 424.866 562.047 424.234 561.664 423.206C560.039 418.842 505.266 205.271 499.028 180.929C498.673 179.555 499.508 178.152 500.896 177.799C502.276 177.447 503.686 178.277 504.041 179.658C525.001 261.397 565.023 417.122 566.521 421.435C566.979 422.765 566.293 424.242 564.956 424.712C564.661 424.815 564.366 424.866 564.07 424.866Z" fill="#374866"/>
<path d="M470.375 424.866C469.334 424.866 468.352 424.234 467.968 423.206C466.344 418.842 411.571 205.271 405.332 180.929C404.978 179.555 405.812 178.152 407.2 177.799C408.581 177.447 409.991 178.277 410.345 179.658C431.305 261.397 471.327 417.122 472.826 421.435C473.284 422.765 472.597 424.242 471.261 424.712C470.966 424.815 470.67 424.866 470.375 424.866Z" fill="#374866"/>
<path d="M551.158 386.844H460.261C458.836 386.844 457.677 385.691 457.677 384.273C457.677 382.855 458.836 381.701 460.261 381.701H551.158C552.583 381.701 553.742 382.855 553.742 384.273C553.742 385.698 552.583 386.844 551.158 386.844Z" fill="#374866"/>
<path d="M452.391 412.868H357.152C356.134 412.868 355.307 412.045 355.307 411.031C355.307 410.018 356.134 409.195 357.152 409.195H452.391C453.41 409.195 454.236 410.018 454.236 411.031C454.236 412.045 453.41 412.868 452.391 412.868Z" fill="#9C5A4A"/>
<path d="M464.107 364.075H366.669C365.65 364.075 364.823 363.252 364.823 362.238C364.823 361.224 365.65 360.401 366.669 360.401H464.107C465.126 360.401 465.953 361.224 465.953 362.238C465.953 363.252 465.126 364.075 464.107 364.075Z" fill="#9C5A4A"/>
<path d="M473.831 319.021H376.895C375.876 319.021 375.049 318.199 375.049 317.185C375.049 316.171 375.876 315.348 376.895 315.348H473.824C474.842 315.348 475.669 316.171 475.669 317.185C475.677 318.199 474.85 319.021 473.831 319.021Z" fill="#9C5A4A"/>
<path d="M481.716 273.387H385.843C384.824 273.387 383.997 272.565 383.997 271.551C383.997 270.537 384.824 269.714 385.843 269.714H481.716C482.735 269.714 483.562 270.537 483.562 271.551C483.562 272.565 482.735 273.387 481.716 273.387Z" fill="#9C5A4A"/>
<path d="M491.439 224.859H396.067C395.049 224.859 394.222 224.036 394.222 223.022C394.222 222.008 395.049 221.185 396.067 221.185H491.439C492.457 221.185 493.284 222.008 493.284 223.022C493.284 224.036 492.457 224.859 491.439 224.859Z" fill="#9C5A4A"/>
<path d="M501.59 182.729H402.557C401.132 182.729 399.973 181.576 399.973 180.158C399.973 178.74 401.132 177.586 402.557 177.586H501.59C503.015 177.586 504.174 178.74 504.174 180.158C504.174 181.583 503.022 182.729 501.59 182.729Z" fill="#9C5A4A"/>
<path d="M446.64 451.023C446.381 451.023 446.123 450.986 445.864 450.905C444.506 450.479 443.745 449.046 444.166 447.687C445.539 442.963 480.815 270.309 499.286 179.643L504.358 152.444C505.946 143.921 503.724 135.016 498.408 128.631C493.838 123.15 487.629 120.116 480.925 120.094L436.902 119.954C436.879 119.954 436.85 119.954 436.828 119.954C425.621 119.954 416.016 128.477 413.454 140.703L405.082 180.687C402.992 191.157 353.712 437.761 352.243 442.544C351.822 443.903 350.382 444.667 349.017 444.249C347.651 443.83 346.883 442.397 347.304 441.038C348.596 436.527 382.35 268.097 400.024 179.665L408.404 139.66C411.468 125.024 423.155 114.818 436.835 114.818C436.865 114.818 436.894 114.818 436.924 114.818L480.948 114.958C489.209 114.987 496.828 118.676 502.387 125.362C508.766 133.018 511.335 143.238 509.445 153.392L504.366 180.635C502.166 191.443 450.648 444.322 449.113 449.23C448.758 450.325 447.74 451.023 446.64 451.023Z" fill="#374866"/>
</g>
<mask id="mask9_252_1115" style="mask-type:luminance" maskUnits="userSpaceOnUse" x="6" y="0" width="532" height="448">
<path d="M10.8829 329.454C25.6559 299.242 66.7043 307.346 82.6069 276.576C92.2489 257.921 89.5837 230.281 77.3873 212.258C58.192 183.897 21.7356 184.867 9.74591 151.68C9.45059 150.658 6.58605 133.76 6.51961 131.276C6.40148 126.633 13.7548 84.452 79.7646 44.4313C93.947 35.835 158.761 -1.71694 265.428 0.0610995C298.03 0.604798 425.724 2.72816 485.783 72.5567C527.725 121.321 535.321 176.352 535.321 176.352C535.713 179.18 535.979 181.708 536.097 182.81C537.691 197.49 541.353 234.888 526.632 277.619C505.908 337.772 445.044 391.444 386.225 418.158C340.4 438.973 298.148 443.139 270.869 445.835C260.651 446.842 226.852 449.81 180.784 445.314C114.493 438.848 37.8744 431.369 14.2494 383.486C12.6621 380.254 -0.479306 352.687 10.8829 329.454Z" fill="white"/>
</mask>
<g mask="url(#mask9_252_1115)">
<path d="M380.83 438.62C381.967 439.296 383.503 440.105 385.289 440.656C385.297 440.663 385.297 440.663 385.304 440.663C387.216 440.869 389.032 440.758 389.217 440.736C392.015 440.538 394.237 439.715 396.319 438.635C398.084 437.136 400.336 434.712 403.362 430.751C411.144 420.627 408.959 419.356 414.008 415.19C418.896 411.171 422.757 410.848 426.692 405.653C428.56 403.177 429.527 400.811 430.066 399.18C430.059 399.173 430.059 399.173 430.059 399.173C430.014 399.151 429.978 399.143 429.926 399.129C429.638 399.019 429.328 398.916 429.01 398.791H429.003L428.996 398.783C428.981 398.776 428.951 398.776 428.922 398.761C425.644 397.527 421.015 395.308 416.688 391.377C416.592 391.297 416.519 391.23 416.511 391.216C414.186 389.085 412.429 386.903 411.107 384.765C410.339 383.538 409.114 381.216 409.084 381.231C402.971 384.383 396.836 387.527 390.716 390.687C390.686 390.709 390.642 390.723 390.605 390.746C390.753 390.892 390.885 391.039 391.026 391.179L391.041 391.194C391.543 391.723 391.993 392.244 392.399 392.751C393.971 394.706 394.887 396.476 395.426 397.997C395.921 399.408 396.09 400.591 396.142 401.495C396.304 404.448 395.057 408.401 392.561 416.321C392.222 417.401 392.059 417.945 391.912 418.32C390.287 422.471 388.826 423.97 385.164 430.421C384.33 431.898 383.584 433.264 382.934 434.499C382.056 436.137 381.354 437.54 380.83 438.62Z" fill="#E78D73"/>
<path d="M397.116 400.613C402.838 397.836 408.574 395.066 414.303 392.288C413.137 389.812 411.97 387.351 410.804 384.875C410.228 383.663 409.652 382.443 409.076 381.216C406.086 374.89 403.103 368.564 400.113 362.238C392.214 364.325 384.314 366.419 376.422 368.513C381.184 375.904 385.953 383.281 390.708 390.672C390.811 390.834 390.914 391.003 391.018 391.164L391.032 391.179C391.387 391.737 391.749 392.303 392.11 392.862C393.21 394.573 394.31 396.271 395.418 397.983C395.986 398.864 396.555 399.739 397.116 400.613Z" fill="#E78D73"/>
<path d="M380.83 438.62C381.967 439.304 383.51 440.105 385.297 440.656C385.304 440.663 385.304 440.663 385.311 440.663C387.224 440.869 389.04 440.758 389.217 440.736C392.015 440.538 394.237 439.715 396.327 438.635C398.084 437.136 400.336 434.712 403.37 430.759C406.013 427.32 407.504 424.896 408.523 423.044C410.502 419.429 410.679 417.945 414.016 415.197C415.721 413.794 417.301 412.839 418.8 411.979C421.598 410.355 424.138 409.04 426.7 405.661C428.567 403.192 429.535 400.819 430.066 399.188C430.059 399.18 430.066 399.18 430.066 399.18C430.022 399.165 429.985 399.151 429.933 399.136C429.645 399.033 429.335 398.93 429.018 398.798H429.01L429.003 398.791C428.981 398.783 428.959 398.776 428.937 398.769C427.15 397.983 425.179 396.998 423.148 395.771C420.985 394.463 419.125 393.111 417.537 391.818C416.681 391.113 415.906 390.43 415.204 389.776C412.539 392.876 411.904 395.374 411.845 397.116C411.808 398.203 411.971 399.768 410.908 401.428C410.59 401.913 409.867 403.074 408.471 403.596C406.64 404.279 404.883 403.434 402.558 402.758C402.211 402.655 401.834 402.553 401.436 402.464L401.413 402.457C399.619 402.024 397.264 401.642 394.326 401.634C394.4 402.56 394.451 403.64 394.444 404.838C394.437 405.293 394.429 405.771 394.407 406.263C394.385 406.895 394.341 407.541 394.274 408.225C394.267 408.283 394.267 408.342 394.259 408.408C394.163 409.4 394.031 410.333 393.876 411.222C393.661 412.42 393.418 413.515 393.167 414.47C392.99 415.102 392.827 415.675 392.672 416.182C392.65 416.241 392.635 416.292 392.62 416.351C392.436 416.909 392.273 417.379 392.133 417.747C392.045 417.989 391.971 418.18 391.912 418.335C391.675 418.937 391.439 419.481 391.21 419.995C390.93 420.605 390.649 421.163 390.347 421.722C390.051 422.265 389.741 422.802 389.394 423.367C388.361 425.087 387.069 427.078 385.201 430.362C385.193 430.384 385.179 430.406 385.164 430.428C384.33 431.905 383.584 433.272 382.934 434.506C382.056 436.137 381.354 437.54 380.83 438.62Z" fill="#02102D"/>
<path d="M380.83 438.62C381.967 439.304 383.51 440.105 385.297 440.656C385.304 440.663 385.304 440.663 385.311 440.663C387.224 440.869 389.04 440.758 389.217 440.736C392.015 440.538 394.237 439.715 396.327 438.635C398.084 437.136 400.336 434.712 403.37 430.759C406.013 427.32 407.504 424.896 408.523 423.044C408.383 423.022 408.235 423.015 408.087 422.993C399.11 422.185 396.504 432.515 392.059 431.244C389.069 430.384 386.53 430.311 385.193 430.347C385.186 430.369 385.171 430.391 385.156 430.414C384.322 431.89 383.577 433.257 382.927 434.491C382.056 436.137 381.354 437.54 380.83 438.62Z" fill="#374866"/>
<path d="M418.799 411.972C421.597 410.348 424.137 409.033 426.698 405.653C428.566 403.184 429.533 400.811 430.065 399.18C430.058 399.173 430.065 399.173 430.065 399.173C430.021 399.158 429.984 399.143 429.932 399.129C429.644 399.026 429.334 398.923 429.017 398.791H429.009L429.002 398.783C428.98 398.776 428.958 398.769 428.935 398.761C427.149 397.975 425.178 396.991 423.147 395.764C420.984 394.456 419.124 393.104 417.536 391.811C415.668 394.985 412.701 402.538 418.799 411.972Z" fill="#374866"/>
<path d="M385.296 440.656C385.303 440.663 385.304 440.663 385.311 440.663C387.223 440.869 389.039 440.758 389.216 440.736C392.014 440.538 394.237 439.715 396.326 438.635C397.404 438.077 398.445 437.46 399.501 436.813C401.435 435.63 402.734 434.528 403.34 434.043C410.309 428.408 413.801 425.535 414.104 422.956C414.296 421.354 413.838 420.715 414.503 419.606C415.455 418.019 417.714 418.349 420.918 416.887C422.343 416.241 423.355 415.44 425.311 413.853C429.187 410.715 432.531 407.218 435.042 404.323C434.739 403.611 433.41 400.672 430.058 399.18C430.014 399.158 429.977 399.143 429.925 399.121C429.748 399.048 429.564 398.974 429.379 398.901C429.261 398.857 429.135 398.82 429.017 398.783C429.01 398.776 429.01 398.776 428.995 398.776C428.973 398.769 428.951 398.761 428.929 398.754C427.88 398.438 426.898 398.335 426.116 398.328C425.03 399.474 423.51 401.098 421.745 403.089C416.754 408.724 414.259 411.538 412.044 415.205C409.482 419.459 409.94 420.296 406.751 425.146C405.296 427.342 403.93 429.106 402.387 430.766C400.077 433.264 398.017 435.402 394.584 436.835C390.545 438.525 385.348 438.9 384.255 437.313C383.583 436.335 384.447 434.565 383.731 434.3C383.635 434.263 383.443 434.256 382.934 434.491C381.56 435.116 380.246 437.202 380.83 438.628C381.361 439.914 383.369 440.45 385.296 440.656Z" fill="black"/>
<path d="M399.648 406.858C400.061 407.211 400.718 407.211 401.124 406.851C401.53 406.491 401.523 405.91 401.11 405.558C400.696 405.205 400.039 405.205 399.633 405.565C399.227 405.918 399.234 406.498 399.648 406.858Z" fill="white"/>
<path d="M389.386 423.345C392.221 424.124 393.439 423.044 393.439 423.044C399.604 402.758 401.427 402.45 401.427 402.45L401.405 402.442C400.519 401.979 399.234 401.421 397.61 401.046C395.816 400.635 394.266 400.591 393.18 400.635C393.675 403.06 394.037 406.16 393.778 409.679C393.778 409.679 393.461 414.029 392.132 417.717C392.029 418.011 391.911 418.305 391.911 418.305C391.674 418.908 391.438 419.451 391.209 419.966C390.929 420.575 390.648 421.134 390.345 421.692C390.035 422.243 389.733 422.78 389.386 423.345Z" fill="#374866"/>
<path d="M399.892 406.638C400.165 406.873 400.608 406.873 400.874 406.63C401.14 406.388 401.14 406.006 400.867 405.771C400.594 405.536 400.151 405.536 399.885 405.778C399.612 406.013 399.619 406.403 399.892 406.638Z" fill="#24282D"/>
<path d="M398.253 414.191C398.666 414.543 399.323 414.543 399.729 414.183C400.135 413.823 400.128 413.243 399.714 412.89C399.301 412.538 398.644 412.538 398.238 412.898C397.839 413.258 397.847 413.831 398.253 414.191Z" fill="white"/>
<path d="M398.497 413.97C398.77 414.205 399.213 414.205 399.479 413.963C399.745 413.72 399.745 413.338 399.471 413.103C399.198 412.868 398.755 412.868 398.489 413.111C398.224 413.346 398.224 413.735 398.497 413.97Z" fill="#24282D"/>
<path d="M395.372 420.238C395.786 420.59 396.443 420.59 396.849 420.23C397.255 419.87 397.248 419.29 396.834 418.937C396.421 418.584 395.764 418.584 395.358 418.944C394.952 419.304 394.959 419.878 395.372 420.238Z" fill="white"/>
<path d="M395.618 420.017C395.891 420.252 396.334 420.252 396.6 420.01C396.865 419.767 396.865 419.385 396.592 419.15C396.319 418.915 395.876 418.915 395.61 419.157C395.337 419.393 395.345 419.782 395.618 420.017Z" fill="#24282D"/>
<path d="M393.765 408.695C393.787 408.695 393.801 408.695 393.824 408.688C394.835 408.533 396.349 408.254 397.81 407.791C398.453 407.586 399.065 407.358 399.567 407.123C399.996 406.924 400.416 406.696 400.823 406.454C400.933 406.388 400.985 406.278 400.97 406.16C400.948 406.043 400.859 405.947 400.734 405.91C399.257 405.484 394.052 404.426 393.831 404.382C393.639 404.345 393.454 404.448 393.418 404.61C393.373 404.771 393.491 404.94 393.676 404.977C393.72 404.985 397.803 405.815 399.796 406.307C399.612 406.403 399.42 406.498 399.235 406.586C398.755 406.807 398.179 407.027 397.567 407.225C396.157 407.674 394.687 407.945 393.698 408.092C393.506 408.122 393.381 408.276 393.418 408.445C393.447 408.592 393.595 408.695 393.765 408.695Z" fill="#24282D"/>
<path d="M395.314 414.485C396.001 414.485 396.68 414.411 397.352 414.272C397.876 414.161 398.393 414.007 398.88 413.816L399.087 413.735V413.537C399.065 411.7 394.517 409.106 394 408.82C393.838 408.732 393.624 408.768 393.52 408.915C393.417 409.055 393.469 409.246 393.631 409.334C394.886 410.032 398.053 412.053 398.371 413.346C397.987 413.485 397.588 413.596 397.189 413.676C395.964 413.934 394.694 413.941 393.409 413.691C393.217 413.654 393.033 413.757 392.996 413.926C392.959 414.088 393.077 414.249 393.262 414.286C393.948 414.426 394.635 414.492 395.314 414.485Z" fill="#24282D"/>
<path d="M395.063 420.223C395.528 420.223 395.935 420.157 396.222 419.98C396.533 419.797 396.695 419.51 396.688 419.15C396.665 417.299 393.218 415.065 393.07 414.97C392.915 414.874 392.693 414.903 392.583 415.036C392.472 415.168 392.502 415.359 392.657 415.462C393.579 416.057 395.971 417.872 395.986 419.157C395.986 419.356 395.898 419.437 395.816 419.481C395.137 419.892 392.834 419.341 391.542 418.893C391.365 418.827 391.158 418.908 391.091 419.062C391.025 419.216 391.114 419.393 391.291 419.459C391.586 419.562 393.594 420.23 395.063 420.223Z" fill="#24282D"/>
<path d="M362.911 426.093C369.216 427.695 375.528 429.304 381.833 430.898C383.007 428.437 384.174 425.983 385.34 423.522C385.916 422.309 386.492 421.097 387.075 419.885C387.562 418.864 388.05 417.835 388.537 416.806C391.047 411.538 393.55 406.263 396.053 400.988C388.758 397.556 381.464 394.125 374.17 390.701C372.191 396.917 370.213 403.118 368.242 409.334C367.629 411.267 367.009 413.206 366.396 415.139C366.337 415.322 366.278 415.499 366.219 415.682V415.704C366.019 416.321 365.82 416.939 365.628 417.556C365.03 419.444 364.432 421.318 363.834 423.206C363.524 424.161 363.221 425.131 362.911 426.093Z" fill="#E78D73"/>
<path d="M350.117 175.169C350.117 175.169 353.27 177.101 358.681 179.585C362.956 181.554 368.648 183.868 375.307 185.852C378.526 186.814 381.974 187.703 385.614 188.431C385.614 188.431 386.714 186.41 388.478 183.104C388.818 182.45 389.194 181.745 389.593 180.995C390.464 179.35 391.446 177.476 392.502 175.455C395.499 169.71 399.08 162.715 402.373 155.897L402.38 155.89C402.963 154.685 403.547 153.48 404.1 152.297C404.433 151.591 404.765 150.893 405.082 150.203C408.899 142.011 411.911 134.707 412.509 131.004C412.509 131.004 410.516 130.035 407.26 129.285C407.245 129.285 407.223 129.278 407.201 129.27C406.293 129.065 405.282 128.866 404.189 128.712H404.167C400.055 128.154 394.783 128.19 389.172 130.167C389.121 130.181 389.091 130.189 389.091 130.189C386.256 131.188 383.333 132.702 380.438 134.891C379.811 135.354 379.191 135.861 378.571 136.397C377.81 137.051 377.042 137.757 376.297 138.521C370.9 143.965 366.271 149.696 362.476 154.964C361.826 155.853 361.214 156.72 360.63 157.58C353.786 167.469 350.117 175.169 350.117 175.169Z" fill="#6E92CC"/>
<path d="M358.245 177.843L358.681 179.585C365.03 182.509 374.48 186.19 385.613 188.431C385.613 188.431 388.566 183.016 392.509 175.448C394.096 169.247 395.388 161.077 394.79 151.569C394.569 148.043 394.118 144.795 393.542 141.849C388.116 146.177 382.32 151.239 376.422 157.124C369.216 164.31 363.206 171.363 358.245 177.843Z" fill="black"/>
<path d="M384.846 240.92C382.853 245.607 358.549 298.456 349.852 316.428C348.929 318.331 348.826 320.469 349.564 322.445C354.429 335.42 359.287 348.388 364.137 361.364C364.352 361.922 364.558 362.488 364.772 363.054C368.803 373.803 377.22 396.263 377.397 396.741L410.088 380.129C406.899 368.755 400.586 357.866 397.397 346.493C394.791 337.184 392.177 327.882 389.571 318.573C397.685 303.79 405.799 289 413.92 274.218C414.665 272.851 415.419 271.484 416.172 270.118C420.151 262.851 424.138 255.592 428.124 248.326C414.001 245.931 398.97 243.322 384.846 240.92Z" fill="#F4A337"/>
<path d="M411.624 386.572L411.602 386.609C411.602 386.602 411.616 386.602 411.624 386.572Z" fill="url(#paint0_linear_252_1115)"/>
<path d="M454.415 246.9C453.514 241.427 452.059 235.938 450.546 231.104C436.423 223.463 412.798 216.946 386.478 235.747C385.452 238.767 384.411 241.794 383.384 244.821C384.47 245.725 385.791 246.739 387.364 247.804C391.683 250.714 397.914 253.924 406.286 255.996C404.521 260.449 402.772 264.901 401.007 269.354L400.852 269.758C393.802 287.597 386.766 305.436 379.715 323.283C376.644 340.057 373.573 356.823 370.501 373.597C369.468 379.21 368.442 384.831 367.415 390.444C366.456 395.676 365.503 400.907 364.536 406.138C375.241 409.217 385.946 412.295 396.644 415.374C397.404 411.751 398.372 407.953 399.582 404.015C400.129 402.244 400.697 400.503 401.31 398.813C403.562 392.413 413.573 354.553 413.573 354.553C414.54 349.873 415.514 345.2 416.482 340.52C425.23 321.196 433.986 301.887 442.75 282.586L442.757 282.579C452.104 271.249 454.031 261.316 454.518 256.253C454.872 252.396 454.798 249.215 454.415 246.9Z" fill="#FBAE2C"/>
<path d="M387.068 431.56C386.92 432.081 386.758 432.53 386.595 432.904C386.507 433.11 386.396 433.404 386.182 433.786C385.421 435.182 384.336 435.953 382.919 436.864C381.317 437.9 379.272 439.135 376.747 441.714C373.72 444.814 373.07 446.71 372.383 448.334C371.867 449.59 371.32 450.67 369.659 452.015C360.866 459.134 344.631 454.131 338.053 451.706C336.813 451.258 336.016 450.699 335.55 450.082C335.071 449.465 334.982 448.767 335.167 448.025C335.388 447.136 336.038 446.188 336.968 445.204C338.149 443.955 339.781 442.684 341.545 441.486C342.734 440.685 343.974 439.914 345.178 439.216C349.984 436.402 353.38 433.389 356.835 429.708C357.3 429.231 357.751 428.738 358.208 428.231C360.283 425.946 363.066 422.442 365.51 417.556C366.78 417.21 369.105 416.77 371.97 417.108C372.826 417.203 373.609 417.365 374.332 417.556C375.728 417.916 376.946 418.621 377.861 419.554C378.666 420.34 379.264 421.281 379.589 422.317C380.246 424.411 380.726 425.682 381.073 426.417C381.413 427.137 381.641 427.357 381.796 427.335C382.07 427.298 382.084 426.6 382.513 424.763C382.638 424.234 382.764 423.75 382.882 423.301C383.207 422.104 384.307 421.171 385.702 420.899C387.954 425.821 387.673 429.385 387.068 431.56Z" fill="#02102D"/>
<path d="M377.869 419.562C371.187 426.828 364.513 434.087 357.839 441.354C355.92 440.648 354.007 439.943 352.088 439.238C354.436 436.137 356.835 432.706 359.183 428.937C361.663 424.954 363.753 421.134 365.517 417.57C368.337 417.034 370.641 416.968 371.985 417.115C372.834 417.21 373.624 417.379 374.34 417.563C375.735 417.938 376.946 418.636 377.869 419.562Z" fill="#374866"/>
<path d="M372.391 448.334C371.874 449.59 371.328 450.67 369.667 452.015C360.874 459.134 344.639 454.131 338.061 451.706C336.821 451.258 336.023 450.699 335.558 450.082C335.078 449.465 334.99 448.767 335.174 448.025C335.396 447.136 336.046 446.188 336.976 445.204C338.157 443.955 339.789 442.683 341.553 441.486L341.649 441.559C342.845 442.537 344.359 443.154 345.975 443.411C348.02 443.734 351.387 444.653 355.824 447.209C362.395 451.015 362.853 441.758 372.391 448.334Z" fill="#374866"/>
<path d="M363.339 438.312C363.59 438.312 363.797 438.282 363.967 438.231C364.248 438.136 364.425 437.945 364.469 437.695C364.646 436.556 360.682 433.595 357.81 431.618C360.689 432.243 365.783 433.213 368.382 432.853C369.172 432.743 369.401 432.412 369.445 432.155C369.652 431.067 366.189 429.054 363.31 427.592C366.861 428.195 371.889 428.804 372.716 427.629C372.819 427.482 372.915 427.239 372.797 426.916C372.169 425.16 364.912 422.163 363.458 421.582C363.236 421.494 362.97 421.575 362.867 421.766C362.764 421.957 362.86 422.185 363.081 422.273C366.3 423.566 371.549 426.027 371.94 427.137C371.963 427.203 371.948 427.225 371.948 427.232C371.416 427.982 365.665 427.35 360.645 426.321C360.423 426.277 360.209 426.38 360.128 426.556C360.047 426.733 360.135 426.938 360.335 427.026C364.816 429.113 368.574 431.398 368.559 432.023C368.544 432.023 368.463 432.067 368.227 432.103C364.757 432.581 356.038 430.436 355.949 430.414C355.742 430.362 355.528 430.443 355.432 430.605C355.336 430.766 355.388 430.965 355.558 431.082C359.36 433.595 363.428 436.725 363.576 437.548C362.247 437.878 356.245 435.637 352.723 434.124C352.501 434.028 352.236 434.109 352.132 434.293C352.022 434.484 352.118 434.712 352.332 434.807C353.808 435.417 360.696 438.319 363.339 438.312Z" fill="#24282D"/>
<path d="M365.09 438.349C365.053 438.767 364.625 439.076 364.138 439.039C363.651 439.002 363.289 438.635 363.326 438.216C363.363 437.798 363.791 437.489 364.278 437.526C364.766 437.562 365.135 437.93 365.09 438.349Z" fill="#24282D"/>
<path d="M370.552 432.25C370.515 432.669 370.087 432.978 369.6 432.941C369.113 432.904 368.751 432.537 368.788 432.118C368.825 431.699 369.253 431.391 369.74 431.427C370.227 431.464 370.589 431.832 370.552 432.25Z" fill="#24282D"/>
<path d="M373.624 427.893C373.588 428.312 373.159 428.621 372.672 428.584C372.185 428.547 371.823 428.18 371.86 427.761C371.897 427.342 372.325 427.034 372.812 427.071C373.3 427.1 373.669 427.475 373.624 427.893Z" fill="#24282D"/>
<path d="M353.417 434.807C353.38 435.226 352.951 435.535 352.464 435.498C351.977 435.461 351.615 435.094 351.652 434.675C351.689 434.256 352.117 433.948 352.604 433.984C353.092 434.021 353.453 434.388 353.417 434.807Z" fill="#24282D"/>
<path d="M387.068 431.56C386.92 432.081 386.758 432.53 386.595 432.904C386.506 433.11 386.396 433.404 386.182 433.786C385.421 435.182 384.336 435.953 382.918 436.864C381.545 430.832 381.501 428.386 381.804 427.357C381.87 427.137 382.18 426.181 382.52 424.785C382.645 424.256 382.771 423.772 382.889 423.323C383.214 422.126 384.314 421.193 385.709 420.921C387.954 425.821 387.673 429.385 387.068 431.56Z" fill="#374866"/>
<path d="M386.646 436.541C385.693 438.745 383.737 439.936 383.228 440.229C381.943 440.972 381.699 440.692 380.407 441.376C378.473 442.397 377.521 443.837 377.033 444.498C375.217 446.989 370.729 453.756 366.218 456.526C359.972 460.354 351.186 458.23 347.081 457.238C342.873 456.225 338.096 455.064 336.066 451.287C335.859 450.89 335.69 450.494 335.564 450.09C335.328 449.392 335.21 448.701 335.173 448.032C335.402 447.143 336.044 446.195 336.974 445.218C337.033 445.953 337.247 447.033 338.015 448.069C339.241 449.722 341.219 450.398 344.519 451.258C349.835 452.632 352.493 453.322 354.494 453.359C362.703 453.528 368.802 448.995 369.614 448.378C375.609 443.8 374.715 439.48 381.891 434.631C383.863 433.301 385.693 432.493 386.838 432.045C387.037 432.64 387.273 433.624 387.118 434.829C387.081 435.108 386.978 435.762 386.646 436.541Z" fill="black"/>
<path d="M386.152 235.336C387.769 235.688 402.896 238.547 410.109 239.538C431.83 242.536 438.577 242.683 442.217 242.808C448.552 243.028 451.859 243.763 452.848 239.083C456.296 222.713 455.071 158.344 449.814 145.824C448.367 142.378 449.054 138.947 444.343 134.796C437.943 129.153 417.92 126.398 413.299 126.354C406.499 126.28 395.521 126.978 392.095 129.153C385.967 138.058 388.345 142.863 386.868 152.245C382.114 182.406 384.469 223.749 386.152 235.336Z" fill="#6E92CC"/>
<path d="M453.728 245.372C453.728 245.372 455.286 203.059 453.676 185.367C453.676 185.367 449.217 190.576 433.735 187.703C418.246 184.831 415.876 165.177 418.564 156.779C423.606 141.026 435.05 130.328 435.05 130.328L428.376 128.499C425.194 131.813 423.99 133.209 421.148 137.668C416.844 144.428 413.854 151.055 411.705 156.617C407.039 156.507 396.999 155.985 392.333 155.875C392.916 150.306 392.643 141.555 397.412 127.316C395.588 127.764 392.584 127.933 390.553 129.608C388.442 136.875 387.571 142.841 386.286 154.192C385.924 157.352 384.817 169.982 384.027 188.071C383.451 201.252 383.399 218.65 385.289 239.289L453.728 245.372Z" fill="#FBAE2C"/>
<path d="M399.996 95.4215C399.966 92.8573 400.97 88.8677 399.789 86.1639C399.169 84.7386 398.349 83.6585 397.633 82.8871C397.227 82.5123 396.784 81.976 396.555 81.2486C395.684 78.4566 400.453 73.5927 404.381 70.7861C407.548 68.5231 409.682 67.0022 412.901 66.9949C417.102 66.9875 420.07 69.5591 421 70.4334C422.58 70.5804 427.12 71.2122 430.93 74.8638C437.013 80.6976 435.758 89.0073 435.625 89.7862C434.924 93.9447 432.798 96.5824 429.697 100.41C425.754 105.282 423.348 108.316 419.42 109.161C410.686 111.064 400.077 102.291 399.996 95.4215Z" fill="#2A0113"/>
<path d="M423.894 128.315C423.392 128.991 419.332 134.178 412.023 134.502C404.965 134.818 400.513 130.336 399.893 129.697L400.328 119.506L400.432 115.979L420.867 102.034C421.362 106.736 421.856 111.431 422.366 116.126C422.89 121.166 423.363 123.275 423.894 128.315Z" fill="#E78D73"/>
<path d="M422.359 116.126C420.314 117.992 417.147 120.079 412.665 120.924C407.276 121.945 402.876 120.637 400.321 119.499L400.425 115.972L420.86 102.027C421.355 106.736 421.857 111.431 422.359 116.126Z" fill="#844B42"/>
<path d="M427.46 87.7436L421.096 108.83C419.996 112.46 417.441 115.502 414.016 117.118C406.603 120.615 399.228 120.16 395.189 116.383C394.732 115.957 393.949 115.142 393.218 113.804C391.838 111.27 391.527 108.279 392.214 105.473L396.326 88.515L396.777 86.6635L398.578 79.2134L427.46 87.7436Z" fill="#E78D73"/>
<path d="M406.485 81.1457C413.049 82.2037 415.928 84.7165 417.331 86.8987C420.232 91.4319 417.67 95.9285 421.192 99.029C423.495 101.057 427.541 101.74 429.741 100.065C430.575 99.4258 431.233 98.4118 431.543 96.8836C432.237 93.5406 433.004 85.3631 427.172 80.3963C421.738 75.7602 412.871 75.819 406.485 81.1457Z" fill="#2A0113"/>
<path d="M423.237 100.322C423.237 100.322 427.563 96.722 430.531 99.1392C433.499 101.556 429.829 105.531 426.463 106.42C423.096 107.309 421.413 106.788 421.413 106.788L423.237 100.322Z" fill="#E78D73"/>
<path d="M426.655 104.708C426.352 104.708 426.072 104.525 425.961 104.224C425.821 103.841 426.02 103.423 426.397 103.283C427.873 102.739 428.648 101.703 428.523 101.057C428.501 100.932 428.405 100.689 428.05 100.425C427.726 100.183 427.666 99.7196 427.91 99.3964C428.161 99.0731 428.619 99.0069 428.944 99.2568C429.652 99.7931 429.896 100.381 429.97 100.778C430.273 102.269 428.981 103.908 426.906 104.672C426.825 104.694 426.744 104.708 426.655 104.708Z" fill="#844B42"/>
<path d="M414.894 76.2598C414.894 76.2598 405.548 89.4776 394.938 83.923C384.329 78.3685 394.71 58.5896 408.22 67.3402C421.723 76.0982 414.894 76.2598 414.894 76.2598Z" fill="#2A0113"/>
<path d="M399.709 85.0471C398.417 85.4439 397.021 85.5247 395.656 85.3631C394.29 85.172 392.961 84.7018 391.757 83.9818C389.365 82.5491 387.579 80.0142 387.195 77.1635C386.87 74.3127 387.904 71.4032 389.816 69.3607C390.768 68.3394 391.92 67.5092 393.175 66.9361C394.445 66.3924 395.803 66.0838 397.154 66.0911L397.162 66.1573C394.496 66.3703 391.942 67.6635 390.2 69.6913C388.45 71.6971 387.49 74.4303 387.845 77.0827C388.162 79.735 389.816 82.1229 392.038 83.563C394.268 85.0251 397.08 85.5394 399.694 84.9883L399.709 85.0471Z" fill="#2A0113"/>
<path d="M408.375 88.6399C408.677 88.2799 409.157 88.1036 409.622 88.1697C411.335 88.4195 412.553 88.9926 413.395 89.5363C413.395 89.5363 414.938 90.3812 417.286 93.0704C417.389 93.1879 417.271 93.3642 417.123 93.3128C415.942 92.8793 413.085 91.8507 411.409 91.454C410.368 91.2041 409.357 91.0058 408.397 90.8368C408.146 90.7927 407.954 90.5943 407.924 90.3445C407.873 89.9184 407.895 89.2718 408.316 88.7061C408.345 88.684 408.36 88.662 408.375 88.6399Z" fill="#2A0113"/>
<path d="M402.993 89.1689C402.86 89.3967 402.616 89.4995 402.365 89.4481C401.413 89.2204 400.402 89.0146 399.346 88.8383C398.526 88.6987 397.411 88.5885 396.326 88.5077L396.777 86.6561C397.766 86.3549 398.283 86.3035 398.283 86.3035C399.272 86.1271 400.616 86.0831 402.292 86.5165C402.749 86.6268 403.126 86.9794 403.259 87.4276C403.266 87.457 403.273 87.4864 403.281 87.5158C403.443 88.1917 403.207 88.8016 402.993 89.1689Z" fill="#2A0113"/>
<path d="M400.062 93.2026C399.737 94.2092 398.999 94.8778 398.416 94.6941C397.832 94.5031 397.626 93.5332 397.951 92.5267C398.275 91.5201 399.014 90.8515 399.597 91.0352C400.18 91.2262 400.387 92.196 400.062 93.2026Z" fill="black"/>
<path d="M412.304 96.3252C411.979 97.3318 411.241 98.0004 410.658 97.8167C410.075 97.6257 409.868 96.6559 410.193 95.6493C410.518 94.6427 411.256 93.9741 411.839 94.1578C412.422 94.3415 412.629 95.3113 412.304 96.3252Z" fill="black"/>
<path d="M402.151 101.476C402.107 101.476 402.055 101.468 402.011 101.446C401.848 101.38 401.029 101.013 400.756 100.08C400.542 99.367 400.778 98.7645 400.881 98.5367L403.111 91.6523C403.17 91.4613 403.384 91.3511 403.576 91.4172C403.768 91.476 403.879 91.6891 403.812 91.8801L401.561 98.8159C401.472 99.0143 401.317 99.411 401.457 99.8739C401.642 100.484 402.181 100.726 402.284 100.77C402.476 100.844 402.565 101.064 402.483 101.248C402.432 101.387 402.291 101.476 402.151 101.476Z" fill="#844B42"/>
<path d="M398.291 102.563C398.313 102.365 398.512 102.254 398.689 102.343C399.435 102.725 400.351 103.107 401.406 103.408C403.104 103.893 404.633 104.01 405.792 104.003C405.976 104.003 406.117 104.179 406.057 104.356C405.268 106.641 402.765 107.882 400.801 107.067C398.232 106.009 398.195 103.533 398.291 102.563Z" fill="white"/>
<path d="M426.014 205.359C426.324 207.152 426.715 208.908 427.181 210.605C431.699 211.876 435.56 212.376 438.314 212.596C445.63 213.176 447.476 211.913 448.126 211.384C449.351 210.392 449.905 209.15 451.012 206.659C452.334 203.691 452.821 201.259 452.924 200.715C456.114 184.287 454.682 147.227 448.583 140.938C446.324 138.609 442.16 138.264 441.592 138.227C435.737 137.83 428.709 166.756 426.671 184.816C425.652 193.868 425.357 201.619 426.014 205.359Z" fill="#E78D73"/>
<path d="M426.892 175.602C429.291 177.954 433.396 181.443 439.457 184.419C440.077 184.72 440.705 185.022 441.369 185.301C442.669 185.881 444.042 186.425 445.504 186.932C452.266 189.276 458.446 189.937 462.743 190.084C462.743 190.084 462.743 190.054 462.757 190.003V189.996C462.949 189.033 459.775 141.379 444.337 133.943C443.06 133.326 442.085 132.76 438.763 132.099C434.813 131.313 430.893 133.965 430.539 137.661C430.539 137.683 430.531 137.705 430.531 137.727C430.443 138.609 430.362 139.49 430.273 140.372C429.143 152.128 428.021 163.869 426.892 175.602Z" fill="#6E92CC"/>
<path d="M462.749 190.37C462.734 190.37 462.727 190.37 462.712 190.37C446.019 188.872 433.594 183.391 433.476 183.332L433.277 183.244L430.124 149.718C430.102 149.52 430.257 149.336 430.456 149.321C430.656 149.307 430.84 149.453 430.855 149.652L433.971 182.751C435.61 183.449 447.356 188.254 462.778 189.643C462.985 189.658 463.133 189.841 463.111 190.04C463.103 190.224 462.941 190.37 462.749 190.37Z" fill="black"/>
<path d="M375.868 171.458C374.613 170.981 366.809 168.174 358.578 172.12C351.247 175.639 348.862 182.163 347.932 183.971C347.216 185.374 344.993 193.824 347.068 194.558C349.15 195.3 353.107 183.148 353.107 183.148C355.337 183.354 358.378 183.398 361.9 182.773C365.429 182.141 368.279 181.039 370.309 180.077C372.162 177.204 374.015 174.331 375.868 171.458Z" fill="#E78D73"/>
<path d="M420.541 187.821C393.867 196.52 373.225 202.508 362.357 205.44C362.357 205.44 349.297 209.091 343.945 204.235C342.786 203.184 341.988 202.104 341.479 201.002C340.556 199.011 340.593 196.983 341.235 195.014C341.826 193.17 342.941 191.384 344.277 189.739C348.566 184.456 354.665 181.091 361.221 179.981L365.333 179.283C382.727 177.366 400.121 175.455 417.515 173.538C418.962 173.376 420.379 173.868 421.457 174.868C422.579 175.911 423.731 177.182 424.801 178.732C426.056 180.547 426.824 181.693 426.647 183.008C426.271 185.727 422.092 187.314 420.541 187.821Z" fill="#E78D73"/>
<path d="M365.155 179.959C375.484 187.894 388.227 196.344 403.494 203.97C411.423 207.93 419.042 211.178 426.182 213.845C426.182 213.845 438.991 219.311 445.148 215.219C446.484 214.33 447.459 213.367 448.131 212.339C449.364 210.487 449.615 208.452 449.246 206.395C447.887 198.71 437.913 190.738 437.913 190.738L426.92 187.329C409.297 181.737 391.682 176.153 374.059 170.562C372.265 172.039 370.316 173.839 368.352 176.021C367.149 177.373 366.086 178.703 365.155 179.959Z" fill="#E78D73"/>
<path d="M348.973 181.855C349.098 181.855 349.217 181.789 349.276 181.671C357.168 165.39 375.581 171.378 375.765 171.436L405.311 181.326C405.481 181.385 405.673 181.296 405.732 181.128C405.791 180.959 405.702 180.782 405.525 180.723L375.979 170.834C375.787 170.768 356.813 164.603 348.678 181.399C348.596 181.561 348.67 181.752 348.84 181.826C348.884 181.848 348.929 181.855 348.973 181.855Z" fill="black"/>
<path d="M390.331 196.417C390.442 196.417 390.552 196.366 390.611 196.27C390.707 196.123 390.663 195.925 390.508 195.829L365 180.099C364.69 179.996 357.337 177.777 345.849 187.52C345.709 187.637 345.702 187.836 345.82 187.968C345.938 188.1 346.152 188.115 346.285 187.997C357.094 178.835 364.203 180.54 364.757 180.694L390.154 196.366C390.213 196.403 390.272 196.417 390.331 196.417Z" fill="black"/>
<path d="M406.114 181.047C406.114 181.047 421.862 202.229 426.72 204.33C431.578 206.432 444.837 207.313 444.187 204.602C443.53 201.891 448.831 200.686 443.863 193.148C438.887 185.609 406.114 181.047 406.114 181.047Z" fill="black"/>
<path d="M420.63 173.023C423.76 173.81 427.54 175 431.571 176.844C434.244 178.071 436.54 179.357 438.474 180.576C438.821 180.797 438.887 181.201 438.629 181.495C437.16 183.177 435.034 185.22 432.058 187.138C426.698 190.591 421.265 191.891 418.09 192.435C415.964 190.723 413.771 188.872 411.556 186.858C409.467 184.963 407.533 183.104 405.761 181.297C405.901 180.54 406.647 177.175 410.39 174.809C414.834 172.01 419.906 172.891 420.63 173.023Z" fill="#E78D73"/>
<path d="M436.985 180.341C437.938 180.128 438.949 180.503 439.362 181.238C442.131 186.138 447.794 196.432 447.41 198.372C447.351 198.651 447.203 199.437 446.635 199.577C446.103 199.709 445.453 199.209 445.136 198.945C442.05 196.403 436.705 189.401 436.852 189.636C438.189 191.965 440.204 195.477 442.855 200.12C444.11 202.317 445.195 204.279 444.287 205.006C443.475 205.653 441.437 205.05 440.138 204.565C440.138 204.565 439.222 207.137 434.003 203.823L431.396 201.84C431.396 201.84 433.124 203.809 430.481 204.411C427.838 205.014 416.646 190.606 416.646 190.606C418.366 189.019 420.625 187.233 423.526 185.536C428.443 182.678 433.301 181.164 436.985 180.341Z" fill="#E78D73"/>
<path d="M440.336 204.962C440.403 204.962 440.477 204.947 440.536 204.903C440.683 204.8 440.72 204.602 440.609 204.455L431.964 192.766C431.861 192.626 431.654 192.589 431.506 192.692C431.359 192.795 431.322 192.993 431.433 193.14L440.078 204.83C440.137 204.918 440.233 204.962 440.336 204.962Z" fill="black"/>
<path d="M429.777 227.07C423.089 227.07 416.4 226.872 409.763 226.468C401.243 225.953 392.627 225.094 384.166 223.911C383.967 223.881 383.827 223.698 383.849 223.499C383.879 223.301 384.07 223.161 384.262 223.183C392.708 224.359 401.302 225.219 409.8 225.733C424.388 226.622 439.191 226.526 453.794 225.468C453.978 225.446 454.17 225.608 454.192 225.806C454.207 226.012 454.052 226.181 453.853 226.203C445.865 226.776 437.817 227.07 429.777 227.07Z" fill="black"/>
<path d="M429.689 236.364C423.14 236.364 416.592 236.166 410.095 235.769C401.686 235.255 393.196 234.395 384.853 233.22C384.654 233.19 384.513 233.007 384.543 232.801C384.573 232.603 384.757 232.47 384.964 232.492C393.284 233.668 401.752 234.52 410.147 235.035C424.528 235.916 439.124 235.821 453.521 234.748C453.72 234.733 453.905 234.888 453.919 235.086C453.934 235.284 453.779 235.468 453.58 235.483C445.643 236.071 437.662 236.364 429.689 236.364Z" fill="black"/>
<path d="M444.86 260.552C444.845 260.552 444.823 260.552 444.809 260.552C435.521 259.222 434.266 246.805 434.251 246.68C434.229 246.482 434.384 246.298 434.583 246.283C434.783 246.269 434.967 246.416 434.982 246.614C434.989 246.731 436.2 258.575 444.912 259.824C445.111 259.854 445.252 260.037 445.222 260.243C445.193 260.419 445.037 260.552 444.86 260.552Z" fill="black"/>
<path d="M390.361 413.059C390.331 413.059 390.309 413.059 390.28 413.052C390.08 413.008 389.955 412.809 389.999 412.618L407.386 333.15L407.4 333.113L443.724 255.137C443.813 254.953 444.034 254.872 444.211 254.96C444.396 255.049 444.477 255.262 444.388 255.445L408.087 333.385L390.723 412.765C390.686 412.942 390.531 413.059 390.361 413.059Z" fill="black"/>
<path d="M389.011 158.086C388.988 158.086 388.966 158.086 388.944 158.086C387.704 158.05 386.722 157.014 386.759 155.779C386.796 154.545 387.815 153.575 389.084 153.605C389.682 153.619 390.243 153.876 390.657 154.31C391.07 154.743 391.284 155.317 391.27 155.919C391.225 157.124 390.221 158.086 389.011 158.086ZM389.011 154.332C388.198 154.332 387.519 154.979 387.497 155.794C387.475 156.624 388.132 157.322 388.966 157.344C388.981 157.344 388.996 157.344 389.011 157.344C389.823 157.344 390.502 156.698 390.524 155.882C390.539 155.478 390.391 155.096 390.111 154.802C389.83 154.508 389.461 154.339 389.055 154.332C389.04 154.332 389.025 154.332 389.011 154.332Z" fill="black"/>
<path d="M415.13 158.998C415.108 158.998 415.085 158.998 415.056 158.998C413.779 158.961 412.775 157.895 412.812 156.624C412.834 156.007 413.092 155.434 413.542 155.015C413.993 154.596 414.591 154.376 415.204 154.391C416.481 154.428 417.485 155.493 417.448 156.764C417.411 158.013 416.377 158.998 415.13 158.998ZM415.13 155.125C414.724 155.125 414.347 155.28 414.052 155.552C413.742 155.838 413.565 156.228 413.557 156.646C413.528 157.513 414.214 158.241 415.085 158.263C415.957 158.307 416.688 157.609 416.71 156.742C416.739 155.875 416.053 155.148 415.181 155.125C415.167 155.125 415.145 155.125 415.13 155.125Z" fill="black"/>
<path d="M370 376.859C369.978 376.859 369.955 376.859 369.933 376.852C369.734 376.815 369.601 376.624 369.638 376.426L379.649 321.203L405.799 256.202L390.229 250.214C390.037 250.141 389.941 249.928 390.015 249.736C390.088 249.545 390.303 249.457 390.494 249.523L406.766 255.783L406.626 256.129L380.35 321.439L370.361 376.558C370.332 376.734 370.177 376.859 370 376.859Z" fill="black"/>
</g>
<path d="M8.02669 282.799C21.9507 295.304 49.4517 288.64 62.1649 273.174C80.4152 250.978 68.2853 210.531 49.5181 204.955C35.2841 200.723 17.6834 216.688 9.60662 229.943C1.24188 243.704 -6.25906 269.971 8.02669 282.799Z" fill="#24282D"/>
<defs>
<linearGradient id="paint0_linear_252_1115" x1="411.61" y1="386.606" x2="411.611" y2="386.624" gradientUnits="userSpaceOnUse">
<stop stop-color="#869DFF"/>
<stop offset="1" stop-color="#6D69B8"/>
</linearGradient>
</defs>
</svg>
