<svg width="30" height="30" viewBox="0 0 30 30" fill="none" xmlns="http://www.w3.org/2000/svg">
<path d="M18.2642 29.3962H12.3918C6.66617 28.2217 2.11504 23.7195 0.940552 17.945V12.0725C2.11504 6.29799 6.66617 1.79579 12.3918 0.621302H18.2642C24.0388 1.79579 28.541 6.34692 29.7155 12.0725V17.945C28.541 23.7195 23.9898 28.2217 18.2642 29.3962Z" fill="#F9F9F9"/>
<path d="M18.2643 17.945V29.3962C17.3345 29.592 16.3557 29.6898 15.328 29.6898C14.3004 29.6898 13.3216 29.592 12.3918 29.3962V17.945H0.940594C0.744846 17.0152 0.646973 16.0364 0.646973 15.0088C0.646973 13.9811 0.744846 13.0023 0.940594 12.0725H12.3918V0.621313C13.3216 0.425566 14.3004 0.327692 15.328 0.327692C16.3557 0.327692 17.3345 0.425566 18.2643 0.621313V12.0725H29.7155C29.9112 13.0023 30.0091 13.9811 30.0091 15.0088C30.0091 16.0364 29.9112 17.0152 29.7155 17.945H18.2643Z" fill="#ED4C5C"/>
<path d="M8.47689 20.8812H6.51941L7.00878 23.8174L6.51941 26.7536H8.47689L7.98752 23.8174L8.47689 20.8812Z" fill="#ED4C5C"/>
<path d="M4.56189 22.8387V24.7962L7.4981 24.3068L10.4343 24.7962V22.8387L7.4981 23.3281L4.56189 22.8387Z" fill="#ED4C5C"/>
<path d="M24.1367 20.8812H22.1792L22.6686 23.8174L22.1792 26.7536H24.1367L23.6473 23.8174L24.1367 20.8812Z" fill="#ED4C5C"/>
<path d="M20.2218 22.8387V24.7962L23.158 24.3068L26.0942 24.7962V22.8387L23.158 23.3281L20.2218 22.8387Z" fill="#ED4C5C"/>
<path d="M8.47689 3.26391H6.51941C6.51941 3.26391 7.00878 5.46607 7.00878 6.20012C7.00878 6.93418 6.51941 9.13634 6.51941 9.13634H8.47689C8.47689 9.13634 7.98752 6.93418 7.98752 6.20012C7.98752 5.46607 8.47689 3.26391 8.47689 3.26391Z" fill="#ED4C5C"/>
<path d="M4.56189 5.22139V7.17886L7.4981 6.68949L10.4343 7.17886V5.22139L7.4981 5.71076L4.56189 5.22139Z" fill="#ED4C5C"/>
<path d="M24.1367 3.26391H22.1792L22.6686 6.20012L22.1792 9.13634H24.1367L23.6473 6.20012L24.1367 3.26391Z" fill="#ED4C5C"/>
<path d="M20.2218 5.22139V7.17886L23.158 6.68949L26.0942 7.17886V5.22139L23.158 5.71076L20.2218 5.22139Z" fill="#ED4C5C"/>
</svg>
