<svg width="467" height="389" viewBox="0 0 467 389" fill="none" xmlns="http://www.w3.org/2000/svg">
<path d="M323.664 350.81C117.824 357.827 94.0082 345.623 52.5602 350.81C11.1122 355.997 -4.0798 362.958 0.916048 375.379C6.6997 389.762 323.664 394.992 450.565 379.956C450.565 379.956 493.532 371.784 440.52 357.827C387.508 343.871 402.613 345.623 323.664 350.81Z" fill="#24282D"/>
<path opacity="0.15" d="M127.635 375.576C172.3 375.576 208.508 372.138 208.508 367.897C208.508 363.656 172.3 360.219 127.635 360.219C82.9698 360.219 46.7617 363.656 46.7617 367.897C46.7617 372.138 82.9698 375.576 127.635 375.576Z" fill="black"/>
<path opacity="0.15" d="M353.375 375.704C398.04 375.704 434.248 372.266 434.248 368.025C434.248 363.785 398.04 360.347 353.375 360.347C308.71 360.347 272.502 363.785 272.502 368.025C272.502 372.266 308.71 375.704 353.375 375.704Z" fill="black"/>
<path d="M181.357 154.021L184.816 166.152C185.2 167.456 185.28 168.831 185.05 170.172C184.82 171.512 184.286 172.782 183.489 173.883C182.692 174.985 181.652 175.889 180.451 176.527C179.25 177.164 177.918 177.518 176.559 177.56L167.238 177.855L181.357 154.021Z" fill="#FFE0C2"/>
<path d="M69.8418 366.952C69.9912 367.117 70.1584 367.266 70.3402 367.394C70.9214 367.814 71.6225 368.035 72.3394 368.025H101.209C101.734 368.024 102.253 367.916 102.735 367.706C103.216 367.497 103.65 367.191 104.009 366.808C104.368 366.425 104.645 365.973 104.822 365.479C105 364.985 105.075 364.459 105.042 363.935C105.027 363.773 105.007 363.613 104.979 363.452C104.958 363.366 104.943 363.29 104.923 363.206C104.837 362.873 104.705 362.555 104.531 362.259V362.252L101.751 355.636C100.923 353.666 100.806 351.468 101.423 349.42L101.809 348.121L128.776 241.161L128.868 241.603C128.903 241.772 128.952 241.997 129.015 242.264C131.246 252.962 149.156 338.721 150.679 344.397C150.883 345.162 151.107 345.947 151.333 346.747C151.333 346.747 151.451 346.775 151.669 346.818C151.773 346.839 151.908 346.859 152.061 346.887C152.214 346.915 152.399 346.936 152.595 346.964L152.903 347.007C153.114 347.027 153.332 347.056 153.569 347.078C153.593 347.08 153.616 347.08 153.64 347.078C155.324 347.24 157.724 347.275 160.102 346.685C160.227 346.657 160.354 346.622 160.481 346.587C160.988 346.454 161.484 346.285 161.967 346.082C162.213 345.976 162.452 345.872 162.69 345.752C164.348 344.958 165.745 343.707 166.718 342.146L161.4 235.803L160.255 212.848L159.548 198.676V198.493L159.316 193.948C150.056 199.68 139.005 201.172 128.748 200.774C113.897 200.199 100.7 195.659 97.0099 194.287C96.4201 194.063 96.0707 193.923 95.9999 193.895C95.9956 193.893 95.9909 193.893 95.9866 193.895C96.0073 194.309 96.0206 194.744 96.0279 195.194C96.0486 196.308 96.0279 197.488 96.0707 198.61C96.112 199.81 96.1326 201.031 96.1473 202.279C96.1606 203.997 96.1606 205.765 96.1606 207.587V207.615C96.1547 208.933 96.1547 210.282 96.1606 211.662C96.1606 218.297 96.0265 225.47 95.795 232.934C94.4769 275.055 89.958 326.488 87.7273 344.623C87.3764 347.443 87.0815 349.737 86.8648 351.405C86.7427 352.365 86.3768 353.278 85.8021 354.056C85.2274 354.835 84.4628 355.453 83.5814 355.853L70.3431 361.886C68.509 363.212 68.5798 365.571 69.8418 366.952Z" fill="#FBAE2C"/>
<path d="M108.535 212.727C108.535 212.727 107.788 229.054 95.7734 232.925C96.002 225.459 96.1391 218.289 96.1391 211.65C99.2013 212.914 103.841 214.126 108.535 212.727Z" fill="#24282D"/>
<path d="M101.211 368.024H72.3376C69.0468 368.024 67.6653 363.826 70.3162 361.871L83.5575 355.84C84.4379 355.439 85.2016 354.821 85.7766 354.043C86.3516 353.265 86.7189 352.354 86.8438 351.395C87.0605 349.726 87.351 347.436 87.7004 344.613C91.1165 346.874 96.4242 349.41 101.806 348.12L101.416 349.416C100.801 351.465 100.918 353.665 101.748 355.638L104.53 362.253C104.869 362.837 105.049 363.499 105.05 364.174C105.052 364.849 104.875 365.513 104.539 366.098C104.202 366.683 103.718 367.169 103.134 367.507C102.549 367.845 101.886 368.024 101.211 368.024Z" fill="#AED9FF"/>
<path d="M177.605 368.024H152.477C151.823 368.028 151.182 367.842 150.633 367.489C150.083 367.135 149.648 366.629 149.381 366.032C148.828 364.768 148.773 363.052 150.877 361.335C154.466 358.41 152.86 352.275 151.32 346.739C151.32 346.739 162.282 349.274 166.703 342.146L166.858 345.03C166.858 345.03 167.51 355.719 172.04 358.632C175.555 360.891 180.107 362.308 180.368 365.143C180.508 366.709 179.181 368.024 177.605 368.024Z" fill="#AED9FF"/>
<path d="M161.39 235.8C147.193 232.945 146.352 214.422 146.352 214.422C151.795 216.044 157.17 214.275 160.25 212.851L161.39 235.8Z" fill="#24282D"/>
<path d="M128.771 241.158L129.992 236.639L151.32 346.738L128.771 241.158Z" fill="#C5861C"/>
<path d="M96.0527 187.682C96.2341 187.758 96.7118 187.949 97.4696 188.214C101.994 189.814 116.313 194.017 132.954 190.187C133.319 190.101 133.692 190.017 134.056 189.92C135.592 189.541 137.152 189.084 138.728 188.552C139.163 188.404 139.605 188.257 140.048 188.081C145.787 185.971 151.173 183.002 156.022 179.276L158.078 155.809L158.294 153.303L158.793 147.628L158.871 146.687L158.899 146.379L160.954 122.975V122.904L163.086 98.6378V98.6231H163.073L151.897 95.7333L148.683 94.8973L143.228 93.4879C143.228 93.4879 139.247 92.5413 139.159 92.5413C139.159 92.5546 139.159 92.5752 139.159 92.5973C139.155 92.6227 139.155 92.6486 139.159 92.674C139.138 92.8642 139.11 93.221 139.054 93.6913C139.026 93.9022 138.998 94.1336 138.955 94.3784C138.942 94.4845 138.92 94.5966 138.899 94.7086C138.891 94.7722 138.879 94.8352 138.864 94.8973C138.828 95.1008 138.787 95.319 138.731 95.5431C138.73 95.5626 138.725 95.5816 138.716 95.5991C138.688 95.7466 138.647 95.894 138.604 96.0414C138.561 96.1889 138.528 96.3437 138.479 96.497C138.43 96.6504 138.387 96.8066 138.331 96.96C138.275 97.1133 138.233 97.2548 138.184 97.4023C138.093 97.6485 137.988 97.8932 137.876 98.1395C137.84 98.2161 137.805 98.2869 137.762 98.3709C137.655 98.6095 137.533 98.8414 137.398 99.0654C137.314 99.2202 137.215 99.3735 137.118 99.5209C137.024 99.6744 136.92 99.8221 136.808 99.9632C136.759 100.041 136.703 100.114 136.64 100.181C136.531 100.324 136.414 100.46 136.289 100.588C136.232 100.658 136.168 100.724 136.101 100.784C135.775 101.116 135.415 101.413 135.027 101.669C134.871 101.781 134.707 101.882 134.536 101.971C134.364 102.071 134.186 102.16 134.003 102.238C133.924 102.28 133.841 102.315 133.757 102.343C133.737 102.355 133.716 102.365 133.695 102.371C133.519 102.442 133.329 102.505 133.14 102.561C133.037 102.595 132.931 102.623 132.825 102.645C132.702 102.681 132.578 102.709 132.452 102.729C132.276 102.769 132.098 102.8 131.919 102.821C131.772 102.841 131.625 102.862 131.477 102.869C131.4 102.869 131.33 102.884 131.253 102.884C131.084 102.897 130.908 102.905 130.734 102.905C128.039 102.925 125.907 100.526 124.433 98.0643C124.349 97.9168 124.265 97.7694 124.181 97.622C123.781 96.9054 123.43 96.2036 123.148 95.5652C123.12 95.5106 123.094 95.4545 123.072 95.3972C122.566 94.2678 122.251 93.3552 122.124 92.991C122.124 92.9704 122.111 92.9482 122.103 92.9276C122.095 92.9025 122.088 92.8769 122.083 92.8509C122.078 92.8389 122.073 92.8271 122.068 92.8155L111.06 96.2744L109.295 96.8214V96.8288L107.879 97.2711L105.702 97.9581L97.2057 100.628L96.8695 124.306L96.6159 141.449L96.5879 143.728L96.5746 144.633L96.5599 145.546L96.5319 148.029L96.5113 149.356L96.4965 150.978L96.4405 155.34L96.2518 170.887L96.2237 173.013L96.0527 187.682Z" fill="#24282D"/>
<path d="M95.9688 193.883C95.9731 193.881 95.9777 193.881 95.982 193.883C96.0454 193.926 96.3889 194.135 96.9787 194.473C99.4496 195.853 102.001 197.083 104.619 198.159C116.728 203.189 139.48 209.047 159.292 193.929L159.244 192.159L158.184 155.945L158.38 153.238L158.794 147.625H158.773C158.717 147.61 158.57 147.589 158.346 147.541C157.871 147.436 157.402 147.302 156.942 147.141C156.921 147.128 156.897 147.118 156.872 147.113C156.033 146.816 155.225 146.44 154.458 145.99C152.916 145.092 151.574 143.888 150.516 142.451C149.904 141.622 149.395 140.722 149 139.771C148.666 138.992 148.403 138.184 148.214 137.357C147.731 135.317 147.57 132.868 147.891 129.943C148.951 120.429 150.179 110.039 150.987 103.241C151.542 98.6806 151.893 95.7215 151.893 95.7215C151.893 95.7215 150.433 94.2973 148.679 94.8856C148.679 94.8856 148.413 96.8863 148.012 99.9588C148.012 100.015 147.999 100.078 147.992 100.134C147.984 100.19 147.964 100.31 147.95 100.429C147.95 100.515 147.928 100.599 147.921 100.683C147.851 101.181 147.788 101.7 147.717 102.24C147.613 103.054 147.501 103.91 147.388 104.801C147.312 105.39 147.234 106.007 147.157 106.624C147.08 107.242 146.995 107.881 146.918 108.526C146.272 113.662 145.578 119.336 145.087 123.827C144.904 125.511 144.744 127.027 144.631 128.281C144.567 129.031 144.424 129.773 144.204 130.493C144.118 130.773 144.014 131.047 143.909 131.299C142.842 133.769 140.822 135.004 138.563 135.575C138.352 135.624 138.134 135.674 137.925 135.722C135.566 136.193 133.042 136.03 131.112 135.849C130.733 135.814 130.374 135.778 130.053 135.75C130.023 135.743 129.992 135.738 129.962 135.737C129.814 135.737 129.667 135.715 129.519 135.702C128.93 135.653 128.151 135.603 127.246 135.534C127.085 135.519 126.916 135.506 126.747 135.498C126.292 135.463 125.801 135.42 125.303 135.371C124.271 135.274 123.141 135.147 122.019 134.972H122.006C117.326 134.221 112.464 132.622 112.324 128.749C112.092 122.463 109.343 97.3536 109.279 96.8067V96.7993C109.279 96.7993 107.146 96.3157 105.686 97.936C105.686 97.936 106.634 105.856 107.455 113.712C107.454 113.721 107.454 113.73 107.455 113.74C107.453 113.751 107.453 113.762 107.455 113.774C107.455 113.802 107.455 113.859 107.469 113.921C107.504 114.279 107.547 114.638 107.582 114.994C107.582 115.114 107.603 115.233 107.616 115.353C107.68 115.942 107.743 116.532 107.799 117.122C107.799 117.221 107.814 117.325 107.827 117.417C107.89 118.006 107.946 118.596 108.002 119.186C108.002 119.263 108.017 119.347 108.023 119.425C108.087 120.015 108.143 120.59 108.193 121.15C108.193 121.211 108.198 121.272 108.206 121.333C108.262 121.95 108.311 122.54 108.361 123.102C108.374 123.249 108.381 123.382 108.396 123.522C108.417 123.768 108.437 124.007 108.452 124.239C108.564 125.713 108.641 126.94 108.656 127.789C108.746 132.405 106.634 139.42 101.492 142.339C100.008 143.188 98.3349 143.648 96.6263 143.678C96.6053 143.682 96.5839 143.682 96.5629 143.678H96.5555V144.583L96.5423 145.593L96.4995 148.807L96.4715 150.926V151.031L96.4228 155.289L96.2327 170.836L96.2105 172.962L96.0292 187.632V187.947L95.9688 193.883Z" fill="#FBAE2C"/>
<path d="M177.034 139.551C173.963 139.983 166.777 141.291 161.529 144.635C160.574 145.233 159.679 145.925 158.859 146.699L163.07 98.6201C163.07 98.6201 165.549 100.627 167.936 109.942C169.492 116.038 174.059 130.369 177.034 139.551Z" fill="#24282D"/>
<path d="M158.393 153.242C159.065 152.8 160.841 151.62 161.738 151.098C167.007 148.049 172.722 145.847 178.675 144.574C178.863 144.536 179.05 144.493 179.243 144.456C179.376 144.429 179.502 144.373 179.612 144.292C179.722 144.212 179.813 144.109 179.879 143.99C179.945 143.871 179.985 143.739 179.995 143.603C180.006 143.467 179.987 143.331 179.94 143.203L178.849 140.255C178.756 140.003 178.58 139.79 178.35 139.651C178.121 139.512 177.851 139.454 177.584 139.488C177.422 139.513 177.242 139.538 177.043 139.562C173.971 139.992 166.786 141.301 161.533 144.647C160.89 145.052 159.764 145.769 158.909 146.386L158.802 147.632L158.393 153.242Z" fill="#AED9FF"/>
<path d="M96.0098 195.182C96.0304 196.296 96.0098 197.476 96.0525 198.598C96.0938 199.798 96.1144 201.019 96.1292 202.268C96.228 202.309 96.3253 202.352 96.4241 202.386C105.923 206.322 132.379 214.58 159.537 198.675V198.492L159.305 193.946L159.257 192.177C152.998 195.488 142.25 199.957 128.738 200.778C120.613 201.286 112.462 200.408 104.632 198.182C102.015 197.437 99.4388 196.557 96.9135 195.544C96.6069 195.429 96.3046 195.307 96.0098 195.182Z" fill="#24282D"/>
<path opacity="0.1" d="M160.834 151.641C159.987 141.645 160.964 122.67 160.964 122.67L158.279 153.323C158.279 153.323 159.176 152.638 160.834 151.641Z" fill="black"/>
<path d="M144.458 140.576C145.695 140.576 146.698 139.573 146.698 138.336C146.698 137.1 145.695 136.097 144.458 136.097C143.221 136.097 142.219 137.1 142.219 138.336C142.219 139.573 143.221 140.576 144.458 140.576Z" fill="#D7EAFF"/>
<path d="M144.055 139.578C144.882 139.578 145.553 138.907 145.553 138.08C145.553 137.253 144.882 136.582 144.055 136.582C143.227 136.582 142.557 137.253 142.557 138.08C142.557 138.907 143.227 139.578 144.055 139.578Z" fill="#CCEEFF"/>
<path d="M112.23 138.876C113.304 138.876 114.174 138.006 114.174 136.933C114.174 135.86 113.304 134.99 112.23 134.99C111.157 134.99 110.287 135.86 110.287 136.933C110.287 138.006 111.157 138.876 112.23 138.876Z" fill="#D7EAFF"/>
<path d="M111.883 138.011C112.6 138.011 113.182 137.429 113.182 136.712C113.182 135.994 112.6 135.413 111.883 135.413C111.166 135.413 110.584 135.994 110.584 136.712C110.584 137.429 111.166 138.011 111.883 138.011Z" fill="#CCEEFF"/>
<path opacity="0.1" d="M122.031 134.99C125.035 135.464 127.963 135.579 129.527 135.727C133.534 136.082 143.778 137.727 144.639 128.305C145.249 121.607 147.038 107.541 148.017 99.9765C148.017 99.9765 144.518 127.285 141.482 131.703C138.447 136.122 129.963 135.52 122.062 134.997L122.031 134.99Z" fill="black"/>
<path opacity="0.1" d="M96.5938 143.727C105.343 143.489 108.801 133.719 108.683 127.83C108.633 125.412 108.129 119.941 107.531 114.332C107.848 117.642 109.031 133.638 102.969 138.586C100.806 140.355 98.6063 141.172 96.6188 141.452L96.5938 143.727Z" fill="black"/>
<path d="M122.035 92.8229C122.035 92.8229 125.184 102.947 130.706 102.905C138.872 102.849 139.048 93.0824 139.152 92.5428C139.152 92.5428 137.125 92.3821 136.311 89.3641C136.072 88.4363 135.957 87.481 135.968 86.523C135.968 86.3756 135.968 86.2281 135.968 86.0807C136.101 79.9002 122.898 82.0896 122.898 82.0896C122.898 82.0896 123.157 83.9842 123.269 86.1795C123.348 87.4813 123.332 88.7871 123.221 90.0865C123.073 91.5122 122.73 92.6062 122.035 92.8229Z" fill="#FFE0C2"/>
<path d="M123.227 90.0939C128.692 92.0592 134.178 90.2487 136.31 89.3641C136.071 88.4363 135.955 87.481 135.967 86.523L124.614 86.5864C124.614 86.5864 124.074 86.4109 123.287 86.1868C123.362 87.4889 123.342 88.7947 123.227 90.0939Z" fill="#FFD1AB"/>
<path d="M100.408 56.6348C100.758 56.6348 101.247 56.6156 101.844 56.5684C102.213 56.5419 102.623 56.505 103.071 56.4667C104.181 56.3605 105.516 56.2116 106.974 56.0244C108.006 55.905 109.098 55.7679 110.217 55.6263C110.64 55.5732 111.068 55.5216 111.501 55.4641C116.219 54.8523 121.232 54.1741 124.104 53.8807C127.012 53.577 135.014 53.1568 142.206 52.2884C143.55 52.1203 144.86 51.9419 146.121 51.7458C146.299 51.7207 146.479 51.6913 146.653 51.6618C146.886 51.6249 147.115 51.588 147.349 51.5468C147.583 51.5055 147.8 51.4686 148.024 51.4273C148.863 51.2725 149.646 51.1104 150.383 50.9334C150.948 50.8022 151.479 50.6622 151.968 50.5132C154.29 49.8174 155.669 48.974 155.44 47.9361C154.971 45.8926 151.629 46.0091 147.02 45.6877C146.015 45.6169 144.943 45.5284 143.83 45.3928C143.178 45.3073 142.512 45.2114 141.833 45.0979C134.7 43.83 102.975 48.4727 96.9377 53.6905C93.4744 56.6923 100.408 56.6348 100.408 56.6348Z" fill="#FFA233"/>
<path d="M108.909 76.1538C109.559 75.8382 110.14 75.3973 110.619 74.8564C111.377 76.7934 112.32 78.6524 113.437 80.4073C117.022 85.9672 124.45 90.1661 131.228 89.4909C140.917 88.5325 145.56 82.2459 147.55 74.5571C148.288 71.744 148.656 68.7422 148.799 65.7463C148.833 65.0224 148.852 64.2926 148.855 63.5731C148.887 60.4042 148.719 57.2364 148.353 54.0886C148.251 53.1582 148.134 52.2677 148.021 51.4347C147.797 51.476 147.578 51.5173 147.346 51.5541C147.113 51.591 146.883 51.6323 146.65 51.6691C146.476 51.6986 146.296 51.7281 146.117 51.7532C144.864 51.9493 143.546 52.1277 142.203 52.2957C135.012 53.1641 127.008 53.5843 124.101 53.888C121.223 54.1829 116.219 54.8597 111.498 55.4715C111.064 55.529 110.637 55.5806 110.214 55.6337C109.095 55.7811 108.002 55.9124 106.97 56.0318C106.97 56.0318 106.97 56.4505 107.003 57.1995C107.009 57.2557 107.013 57.3124 107.013 57.369C107.158 60.0861 107.479 62.7909 107.976 65.4662C107.236 65.3096 106.474 65.2846 105.726 65.3925C105.184 65.4622 104.658 65.6258 104.172 65.8761C103.119 66.4157 102.171 67.4728 101.823 69.4455C101.04 73.9644 105.263 77.8523 108.909 76.1538Z" fill="#FFE0C2"/>
<path d="M148.154 46.4396C148.154 47.6692 142.823 47.796 128.526 48.8649C114.229 49.9338 101.19 53.6713 101.165 52.828C100.723 34.6344 108.258 24.4628 122.543 23.388C136.828 22.3132 148.262 30.751 148.154 46.4396Z" fill="#F99C00"/>
<path d="M150.259 46.615C149.867 33.6407 138.05 22.0286 123.761 23.0961C123.515 23.1167 119.928 23.2111 117.088 24.2829C119.179 25.3666 120.1 26.8056 120.799 27.8361C124.682 33.536 126.235 42.593 125.21 49.3927C138.214 48.6747 150.301 47.7872 150.259 46.615Z" fill="#FBAE2C"/>
<path d="M141.667 47.2004C140.989 39.8153 136.949 27.3835 131.445 25.7234C134.04 24.7695 135.966 27.4572 138.213 31.0414C140.46 34.6256 145.239 46.0872 144.257 46.7374C143.276 47.3876 141.667 47.2004 141.667 47.2004Z" fill="#F99C00"/>
<path d="M104.736 55.0071C104.736 55.0071 136.886 51.9876 142.396 50.3555C142.396 50.3526 118.659 51.1369 104.736 55.0071Z" fill="#FFBF40"/>
<path d="M124.238 66.6686C125.084 66.644 125.737 65.4945 125.697 64.1011C125.657 62.7077 124.938 61.598 124.091 61.6225C123.245 61.647 122.591 62.7965 122.632 64.1899C122.672 65.5834 123.391 66.6931 124.238 66.6686Z" fill="#87563D"/>
<path d="M139.249 65.8625C140.096 65.838 140.749 64.6885 140.709 63.295C140.668 61.9016 139.949 60.7919 139.103 60.8164C138.257 60.841 137.603 61.9904 137.643 63.3839C137.684 64.7773 138.403 65.887 139.249 65.8625Z" fill="#87563D"/>
<path d="M132.002 73.7374H131.981C131.929 73.7342 131.878 73.7208 131.832 73.698C131.785 73.6753 131.744 73.6435 131.709 73.6046C131.675 73.5658 131.648 73.5205 131.632 73.4714C131.615 73.4224 131.608 73.3704 131.611 73.3187C131.613 73.2667 131.626 73.2156 131.648 73.1686C131.67 73.1216 131.702 73.0796 131.741 73.0451C131.78 73.0106 131.825 72.9842 131.875 72.9676C131.924 72.9511 131.976 72.9446 132.028 72.9486C132.523 72.9958 134.481 72.4886 134.719 71.8561C134.81 71.6113 134.511 71.3165 134.244 71.1115C131.974 69.3644 131.59 66.0545 131.578 65.9129C131.573 65.8613 131.578 65.8092 131.592 65.7594C131.607 65.7096 131.631 65.6632 131.664 65.6228C131.696 65.5824 131.737 65.5488 131.782 65.524C131.828 65.4992 131.878 65.4835 131.929 65.478C131.981 65.4725 132.033 65.4772 132.083 65.4918C132.133 65.5065 132.179 65.5308 132.219 65.5634C132.26 65.596 132.293 65.6362 132.318 65.6817C132.343 65.7273 132.359 65.7773 132.364 65.8289C132.364 65.8599 132.727 68.9457 134.723 70.4849C135.589 71.1499 135.599 71.7485 135.46 72.1318C135.023 73.2995 132.58 73.758 132.002 73.7374Z" fill="#DDA064"/>
<path d="M119.444 59.0926C119.444 59.0926 117.592 59.4729 117.565 59.9772C117.539 60.4814 118.055 60.9016 120.616 60.0937C123.177 59.2857 124.952 59.526 126.145 60.3237C127.337 61.1213 127.485 59.6219 126.177 59.0896C124.869 58.5574 124.431 57.9838 119.444 59.0926Z" fill="#87563D"/>
<path d="M110.623 74.852C111.381 76.789 112.324 78.648 113.441 80.4029C117.026 85.9627 124.454 90.1617 131.232 89.4865C140.921 88.5281 145.564 82.2415 147.554 74.5527C147.329 74.709 141.397 79.2338 133.328 75.4948C133.148 75.4156 132.95 75.3875 132.755 75.4135C132.561 75.4395 132.377 75.5186 132.224 75.6422C130.098 77.1534 123.752 81.609 110.623 74.852Z" fill="#87563D"/>
<path d="M135.696 58.0929C135.696 58.0929 133.844 58.4718 133.817 58.9775C133.791 59.4832 134.307 59.902 136.868 59.094C139.429 58.2861 141.204 58.5264 142.397 59.3255C143.589 60.1246 143.737 58.6237 142.429 58.09C141.121 57.5563 140.683 56.9872 135.696 58.0929Z" fill="#87563D"/>
<path d="M137.136 78.8077C135.601 79.1896 131.681 80.0196 128.461 79.4387C128.343 79.4175 128.222 79.4287 128.111 79.4712C128 79.5136 127.902 79.5857 127.828 79.6797C127.755 79.7736 127.709 79.8858 127.694 80.0042C127.68 80.1226 127.698 80.2426 127.747 80.3513C128.337 81.6886 129.736 83.6937 132.801 83.735C136.228 83.7807 137.338 80.7435 137.667 79.334C137.683 79.2612 137.68 79.1855 137.659 79.1139C137.638 79.0423 137.599 78.9773 137.546 78.9247C137.493 78.8722 137.428 78.8339 137.356 78.8135C137.284 78.793 137.208 78.791 137.136 78.8077Z" fill="white"/>
<path d="M103.957 69.8495C105.936 66.8005 109.855 67.6881 109.855 67.6881C109.309 66.4393 108.675 59.3078 108.516 57.3174C133.036 56.4903 143.722 55.0926 148.355 54.0871C148.253 53.1538 148.137 52.2633 148.022 51.4333C146.236 51.762 144.255 52.0451 142.205 52.2958C135.01 53.1612 127.009 53.5843 124.102 53.8895C121.224 54.1844 116.221 54.8611 111.497 55.4701C109.93 55.672 108.386 55.8667 106.97 56.0333C106.97 56.0333 106.97 56.4549 107.005 57.198C107.011 57.2543 107.015 57.3109 107.015 57.3676C107.16 60.0846 107.482 62.7894 107.978 65.4647C107.978 65.4647 105.932 64.9605 104.174 65.8717C103.123 66.4142 102.173 67.4669 101.828 69.4425C101.04 73.9703 105.264 77.8552 108.905 76.1509C109.558 75.839 110.141 75.3981 110.619 74.8549C106.209 78.3167 101.979 72.9102 103.957 69.8495Z" fill="#FFD1AB"/>
<path d="M148.356 54.0841C148.722 57.232 148.89 60.3998 148.858 63.5687L148.916 63.4463C150.588 59.4729 150.39 50.9393 150.39 50.9393C149.653 51.1163 148.866 51.2784 148.031 51.4332C148.137 52.2692 148.254 53.1538 148.356 54.0841Z" fill="#87563D"/>
<path d="M103.07 56.4667C103.116 56.6805 104.592 63.3505 105.724 65.3851C106.473 65.2773 107.234 65.3023 107.974 65.4588C107.478 62.7836 107.156 60.0788 107.011 57.3617C107.011 57.305 107.007 57.2484 107.001 57.1921C106.97 56.4431 106.969 56.0244 106.969 56.0244C105.515 56.2117 104.181 56.3606 103.07 56.4667Z" fill="#87563D"/>
<path d="M123.037 95.406C124.364 98.4004 127.009 102.925 130.704 102.905C137.338 102.863 138.702 96.4012 139.032 93.6928C139.032 93.6928 137.201 101.768 131.301 101.839C126.503 101.887 123.858 97.1738 123.037 95.406Z" fill="#FFD1AB"/>
<path d="M80.5341 172.5L88.4337 172.76L96.2286 173.012L114.904 173.615H114.912L132.036 174.169L131.932 163.19L123.927 160.854C123.918 160.856 123.909 160.856 123.899 160.854C123.88 160.852 123.861 160.847 123.843 160.84L98.3856 153.39C97.8781 153.235 97.4282 152.933 97.0933 152.522C96.7585 152.111 96.5539 151.609 96.5058 151.081V150.976C96.5016 150.927 96.5016 150.878 96.5058 150.829L96.5205 149.742L96.5058 149.735C96.4411 149.719 96.3757 149.708 96.3097 149.699C96.2537 149.686 96.1829 149.671 96.0989 149.658C95.8748 149.615 95.5593 149.559 95.1671 149.511C95.0197 149.483 94.8442 149.462 94.6614 149.434C94.3945 149.399 94.0997 149.356 93.7768 149.314L93.4259 149.272C89.1959 148.781 81.2816 148.396 74.0351 151.011C73.1092 153.397 72.807 154.267 71.9799 156.38C71.3531 157.994 71.0813 159.724 71.1829 161.452C71.2845 163.181 71.7573 164.867 72.5689 166.397C73.3805 167.927 74.512 169.263 75.8865 170.316C77.2609 171.37 78.8461 172.114 80.5341 172.5Z" fill="#FFE0C2"/>
<path d="M74.0312 151.007C81.2792 148.397 89.1906 148.782 93.422 149.273C95.349 149.5 96.5182 149.745 96.5182 149.745L96.5919 144.63L96.8867 124.25L97.2067 100.628C97.2067 100.628 92.6244 101.864 90.6178 107.763C89.5415 110.919 82.6798 128.709 76.5214 144.591C75.6722 146.776 74.8362 148.928 74.0312 151.007Z" fill="#24282D"/>
<path d="M73.8447 151.073C73.9052 151.054 73.9715 151.028 74.0305 151.007C81.2784 148.397 89.1898 148.782 93.4212 149.273C95.3482 149.5 96.5174 149.745 96.5174 149.745L96.5911 144.63C95.7674 144.424 94.9502 144.247 94.1393 144.1C86.421 142.671 79.6905 143.827 76.5295 144.583C76.2435 144.651 75.9914 144.717 75.7658 144.776C75.4174 144.867 75.0966 145.041 74.8313 145.284C74.566 145.527 74.3644 145.832 74.2443 146.171L72.8628 150.097C72.8154 150.234 72.8075 150.381 72.84 150.522C72.8726 150.663 72.9443 150.792 73.0469 150.894C73.1495 150.996 73.2788 151.067 73.42 151.099C73.5611 151.13 73.7083 151.122 73.8447 151.073Z" fill="#AED9FF"/>
<path opacity="0.1" d="M93.4219 149.273C95.3489 149.5 96.518 149.745 96.518 149.745L97.2154 121.819L96.8837 124.25L94.1399 144.1L93.4219 149.273Z" fill="black"/>
<path d="M165.805 141.009C165.805 141.009 166.302 135.594 162.175 136.586C158.048 137.579 157.006 141.969 157.006 141.969L163.866 142.151L165.805 141.009Z" fill="#FFE0C2"/>
<path d="M158.279 148.066L158.68 145.172L169.694 126.923L170.739 127.487L160.771 145.814L158.279 148.066Z" fill="#363B4C"/>
<path d="M95.3153 155.087C97.8734 155.718 122.253 160.52 123.847 160.837L98.3864 153.385C97.8368 153.224 97.355 152.887 97.0143 152.427C96.6736 151.966 96.4928 151.407 96.4992 150.835L96.5125 149.745H96.4992C96.3665 149.718 95.2313 149.493 93.4237 149.279C93.4223 149.273 92.6718 154.429 95.3153 155.087Z" fill="#FFD1AB"/>
<path opacity="0.1" d="M95.9688 193.883C95.9894 194.297 96.0027 194.732 96.01 195.182C96.0307 196.296 96.01 197.476 96.0528 198.598C96.0941 199.798 96.1147 201.019 96.1295 202.268C96.1427 203.985 96.1427 205.753 96.1427 207.575C96.1427 206.95 96.2489 205.014 96.4243 202.383C96.5496 200.405 96.7192 198.026 96.9006 195.536C96.9227 195.185 96.9507 194.834 96.9787 194.483C96.9787 194.414 96.9787 194.35 96.992 194.279C97.1394 192.26 97.3016 190.19 97.4697 188.211C97.912 182.608 98.3749 177.724 98.6123 176.615C99.202 173.942 114.447 173.619 114.91 173.612L96.2341 173.019L96.0587 187.689V188.005L95.9688 193.883Z" fill="black"/>
<path d="M130.853 163.002C130.853 163.002 132.828 159.999 136.415 159.89C140.003 159.781 134.91 163.191 134.91 163.191C134.91 163.191 130.487 166.517 130.634 166.268C130.782 166.019 130.853 163.002 130.853 163.002Z" fill="#FFE0C2"/>
<path d="M187.973 141.434L143.043 141.91C143.043 141.91 125.329 185.457 117.229 191.217C130.863 196.218 160.6 193.497 160.6 193.497L187.973 141.434Z" fill="#EACCBE"/>
<path d="M189.055 142.513L144.124 142.994L120.59 194.58H161.68L189.055 142.513Z" fill="#363B4C"/>
<path d="M157.004 142.857H178.609V140.821H157.004V142.857Z" fill="#565F77"/>
<g style="mix-blend-mode:multiply" opacity="0.2">
<path d="M189.058 142.513C189.058 142.513 149.601 142.994 144.127 142.994C166.194 156.84 161.684 194.58 161.684 194.58L189.058 142.513Z" fill="#363B4C"/>
</g>
<path d="M127.341 162.404C127.341 162.404 133.172 163.594 134.911 163.191C134.911 163.191 141.321 164.607 146.144 163.275C148.481 162.404 149.872 170.693 145.498 174.174C141.124 177.655 136.357 177.305 133.566 175.815C130.775 174.324 128.13 173.888 124.503 173.771C120.876 173.655 127.341 162.404 127.341 162.404Z" fill="#FFE0C2"/>
<path d="M314.562 156.079V193.94C339.656 209.489 378.107 193.94 378.107 193.94L379.89 152.995L380.037 149.766C370.23 149.592 367.569 134.727 367.126 121.681C366.877 114.396 367.325 107.674 367.6 104.407L367.799 102.319C367.799 102.319 365.363 100.55 362.988 100.967L363.007 103.242C363.044 108.445 363.119 121.151 362.988 126.242C362.82 132.71 358.283 141.89 348.401 142.863C346.803 143.029 345.195 143.087 343.59 143.037C335.258 142.793 327.456 139.373 327.189 128.505C326.865 115.55 327.779 103.329 327.779 103.329C327.224 103.404 326.677 103.531 326.147 103.71C325.262 103.996 324.23 104.488 323.622 105.311C323.361 112.615 322.626 134.879 322.894 143.054C323.105 149.474 320.719 154.01 314.562 156.079Z" fill="#FBAE2C"/>
<path d="M307.154 342.146C311.577 349.276 322.539 346.739 322.539 346.739C322.762 345.939 322.982 345.151 323.191 344.38C324.813 338.335 345.088 241.154 345.088 241.154L372.053 348.116L372.44 349.413C373.056 351.462 372.939 353.661 372.11 355.633L369.328 362.249C368.989 362.832 368.81 363.495 368.809 364.17C368.808 364.845 368.984 365.508 369.321 366.093C369.657 366.678 370.141 367.164 370.725 367.502C371.309 367.84 371.972 368.019 372.647 368.019H401.513C404.804 368.019 406.187 363.82 403.536 361.867L390.299 355.84C389.419 355.44 388.655 354.821 388.08 354.043C387.505 353.266 387.138 352.354 387.014 351.395C386.798 349.727 386.506 347.436 386.158 344.613C383.924 326.478 379.405 275.042 378.086 232.925C377.857 225.459 377.72 218.289 377.72 211.652C377.72 206.972 377.782 202.562 377.919 198.495C377.971 196.923 378.04 195.399 378.114 193.942C378.114 193.942 339.655 209.486 314.559 193.942L314.33 198.489L313.611 212.845L312.462 235.8L307.154 342.146Z" fill="#FBAE2C"/>
<path d="M265.162 140.501C265.162 140.501 265.204 137.788 265.953 136.088C266.702 134.388 265.123 132.992 264.353 133.517C263.583 134.042 261.176 137.203 261.176 137.203L261.904 141.938L265.162 140.501Z" fill="#FFD1AB"/>
<path d="M365.322 212.727C365.322 212.727 366.071 229.054 378.086 232.925C377.857 225.459 377.72 218.289 377.72 211.652C374.658 212.915 370.014 214.126 365.322 212.727Z" fill="#24282D"/>
<path d="M343.594 114.851C351.021 114.719 355.073 110.179 356.715 103.894C356.805 103.558 356.888 103.22 356.963 102.871C356.976 102.821 356.982 102.763 357.002 102.707C357.208 101.691 357.361 100.665 357.459 99.633C357.459 99.633 355.884 99.5829 355.11 96.9158C354.908 96.1968 354.782 95.4585 354.735 94.7131C354.697 94.2236 354.678 93.6972 354.684 93.106C354.715 92.3775 354.481 91.6624 354.025 91.0935C353.752 90.7679 353.42 90.4968 353.046 90.2944C349.243 88.1861 340.132 90.6748 340.132 90.6748C340.132 90.6748 340.189 91.4429 340.183 92.5295C340.183 92.8333 340.183 93.1635 340.151 93.507C340.119 93.8506 340.12 94.2442 340.082 94.6305C340.03 95.3308 339.928 96.0265 339.777 96.7123C339.446 98.1675 338.876 99.3661 337.86 99.633C337.86 99.633 334.578 115.016 343.594 114.851Z" fill="#FFE0C2"/>
<path d="M339.781 96.7152C343.112 97.7399 349.512 99.1229 355.115 96.9143C354.911 96.196 354.784 95.4581 354.736 94.7131C354.702 94.225 354.681 93.6943 354.688 93.1104C354.719 92.3804 354.485 91.6638 354.028 91.0935L340.157 93.5085C340.142 93.8668 340.122 94.2457 340.088 94.6305C340.032 95.3315 339.93 96.0279 339.781 96.7152Z" fill="#FFD1AB"/>
<path d="M369.678 70.6589C369.678 70.6589 371.789 70.0692 373.644 70.967C375.432 68.5889 375.782 61.2363 375.782 61.2363C374.438 61.1788 372.567 61.0328 370.436 60.8338C370.44 60.8205 370.552 65.0961 369.678 70.6589Z" fill="#AF7337"/>
<path d="M323.5 56.4461C324.86 56.796 326.238 57.0731 327.628 57.2762C329.494 57.5637 331.563 57.7996 333.701 57.9971C341.204 58.6827 349.534 58.8817 352.573 59.1103C355.571 59.33 360.792 59.8843 365.719 60.3753C367.354 60.5374 368.963 60.6937 370.437 60.8176C372.569 61.0166 374.44 61.1626 375.783 61.2201C376.406 61.251 376.913 61.2614 377.278 61.2466C377.278 61.2466 384.489 61.0992 380.789 58.0797C374.362 52.8383 341.242 48.9652 333.869 50.4971C333.168 50.6445 332.478 50.7639 331.805 50.8686C330.65 51.0455 329.543 51.1708 328.498 51.2755C323.716 51.7458 320.241 51.7252 319.812 53.8675C319.606 54.957 321.07 55.793 323.5 56.4461Z" fill="#FFA233"/>
<path d="M327.255 72.1731C328.14 83.7851 332.439 95.3588 346.235 96.326C353.3 96.8229 360.893 92.2347 364.451 86.3505C365.561 84.4927 366.487 82.5308 367.215 80.4929C367.728 81.0426 368.347 81.4834 369.034 81.7888C372.875 83.4504 377.143 79.2824 376.192 74.6028C375.775 72.5594 374.756 71.4934 373.648 70.9612C371.793 70.0677 369.682 70.653 369.682 70.653C370.117 67.8578 370.37 65.0373 370.439 62.2094C370.439 62.146 370.439 62.0885 370.439 62.031C370.45 61.2525 370.439 60.819 370.439 60.819C368.965 60.6878 367.351 60.5315 365.721 60.3767C360.794 59.8858 355.573 59.3314 352.575 59.1117C349.543 58.8817 341.213 58.6842 333.703 57.9986C331.565 57.801 329.496 57.5651 327.63 57.2776C327.537 58.146 327.443 59.0763 327.365 60.0479C327.068 63.6469 326.927 67.8842 327.255 72.1731Z" fill="#FFE0C2"/>
<path d="M323.5 56.4461C323.5 56.4461 323.537 57.4118 323.677 58.9024C323.676 58.9057 323.676 58.9093 323.677 58.9127C323.995 62.2875 324.856 68.3338 327.068 71.887C327.13 71.9858 327.187 72.0802 327.255 72.1819C326.926 67.8915 327.068 63.6542 327.366 60.0538C327.444 59.0822 327.538 58.1519 327.631 57.2835C326.24 57.0781 324.861 56.7986 323.5 56.4461Z" fill="#AF7337"/>
<path d="M327.353 52.0908C327.396 53.3691 332.934 53.3411 347.826 54.0222C362.719 54.7034 376.385 58.1976 376.383 57.3204C376.298 38.3955 368.159 28.0514 353.287 27.3629C338.416 26.6743 326.764 35.7888 327.353 52.0908Z" fill="#F99C00"/>
<path d="M325.166 52.337C325.182 38.8393 337.117 26.4149 351.999 27.096C352.256 27.1108 355.993 27.096 358.972 28.1281C356.831 29.3164 355.917 30.8394 355.221 31.9319C351.357 37.9768 350.013 47.4333 351.284 54.4704C337.747 54.1166 325.157 53.5563 325.166 52.337Z" fill="#FBAE2C"/>
<path d="M334.114 52.6879C334.597 44.9918 338.426 31.9481 344.092 30.058C341.368 29.1439 339.448 31.9953 337.219 35.7888C334.989 39.5824 330.367 51.6367 331.408 52.2854C332.449 52.9341 334.114 52.6879 334.114 52.6879Z" fill="#F99C00"/>
<path d="M372.731 59.6926C372.731 59.6926 339.226 57.5209 333.449 55.989C333.449 55.989 358.145 56.0878 372.731 59.6926Z" fill="#FFBF40"/>
<path d="M364.451 86.352C367.033 84.8098 369.035 81.7903 369.035 81.7903C368.348 81.4848 367.729 81.0441 367.216 80.4944C366.487 82.5323 365.561 84.4942 364.451 86.352Z" fill="#AF7337"/>
<path d="M351.113 73.9821C351.954 73.9821 352.635 72.8606 352.635 71.4772C352.635 70.0937 351.954 68.9722 351.113 68.9722C350.273 68.9722 349.592 70.0937 349.592 71.4772C349.592 72.8606 350.273 73.9821 351.113 73.9821Z" fill="#87563D"/>
<path d="M336.281 73.5074C337.122 73.5074 337.803 72.3859 337.803 71.0024C337.803 69.619 337.122 68.4975 336.281 68.4975C335.441 68.4975 334.76 69.619 334.76 71.0024C334.76 72.3859 335.441 73.5074 336.281 73.5074Z" fill="#87563D"/>
<path d="M343.395 81.6532H343.414C343.518 81.6505 343.616 81.6068 343.688 81.5317C343.76 81.4566 343.799 81.3561 343.797 81.2522C343.797 81.2004 343.786 81.1492 343.765 81.1016C343.745 81.0541 343.715 81.0112 343.677 80.9755C343.64 80.9399 343.595 80.9122 343.547 80.8941C343.498 80.876 343.446 80.8679 343.395 80.8703C342.902 80.8998 340.98 80.3277 340.767 79.6908C340.685 79.4461 340.992 79.1645 341.263 78.9699C343.576 77.3171 344.064 74.0499 344.089 73.9113C344.099 73.8593 344.098 73.8058 344.087 73.754C344.076 73.7022 344.054 73.6533 344.023 73.6102C343.992 73.567 343.953 73.5306 343.908 73.503C343.863 73.4754 343.812 73.4573 343.76 73.4497C343.708 73.4421 343.654 73.4453 343.603 73.4589C343.552 73.4726 343.504 73.4964 343.462 73.5291C343.42 73.5618 343.386 73.6025 343.36 73.649C343.335 73.6954 343.319 73.7466 343.314 73.7993C343.314 73.8302 342.845 76.8777 340.807 78.3315C339.923 78.961 339.895 79.5537 340.023 79.94C340.416 81.1136 342.823 81.6532 343.395 81.6532Z" fill="#DDA064"/>
<path d="M355.642 66.3169C355.642 66.3169 357.489 66.6398 357.529 67.1396C357.569 67.6394 357.07 68.0699 354.508 67.3416C351.945 66.6132 350.192 66.8993 349.032 67.7293C347.872 68.5594 347.683 67.0718 348.964 66.5056C350.245 65.9395 350.664 65.3586 355.642 66.3169Z" fill="#87563D"/>
<path d="M339.573 65.6859C339.573 65.6859 341.422 66.0102 341.462 66.5101C341.502 67.0099 341.003 67.4404 338.441 66.712C335.878 65.9837 334.124 66.2697 332.965 67.0998C331.806 67.9299 331.616 66.4422 332.897 65.8761C334.179 65.3099 334.597 64.7246 339.573 65.6859Z" fill="#87563D"/>
<path d="M349.591 85.0192C349.591 85.0192 342.421 86.296 337.943 84.3292C337.943 84.3292 338.315 89.4275 343.424 90.0644C348.357 90.6807 349.591 85.0192 349.591 85.0192Z" fill="#DDA064"/>
<path d="M373.989 75.0952C371.841 71.9858 367.797 73.0311 367.797 73.0311C368.326 71.716 368.764 64.2852 368.876 62.2123C343.37 62.0884 332.218 60.9576 327.373 60.0509C327.451 59.0793 327.546 58.1489 327.638 57.2805C329.505 57.568 331.574 57.8039 333.711 58.0015C341.214 58.6871 349.544 58.8861 352.583 59.1147C355.582 59.3343 360.803 59.8887 365.73 60.3797C367.365 60.5418 368.974 60.6981 370.448 60.822C370.448 60.822 370.457 61.2643 370.448 62.0339C370.448 62.0914 370.448 62.1489 370.448 62.2123C370.378 65.0403 370.125 67.8608 369.69 70.6559C369.69 70.6559 371.801 70.0662 373.656 70.9641C374.765 71.4963 375.784 72.5623 376.201 74.6057C377.158 79.2883 372.884 83.4519 369.043 81.7918C368.356 81.4863 367.737 81.0455 367.224 80.4958C371.905 83.9679 376.136 78.2179 373.989 75.0952Z" fill="#FFD1AB"/>
<path d="M327.189 128.508C327.189 128.864 327.214 129.207 327.239 129.54C327.258 129.851 327.291 130.157 327.327 130.454C327.347 130.645 327.373 130.829 327.404 131.013C327.478 131.552 327.584 132.086 327.721 132.613C327.767 132.81 327.817 133.007 327.868 133.203C327.944 133.458 328.016 133.698 328.109 133.94C328.145 134.052 328.188 134.163 328.237 134.27C328.292 134.441 328.358 134.608 328.433 134.771C328.458 134.841 328.491 134.904 328.522 134.975C328.592 135.134 328.669 135.292 328.744 135.451C328.806 135.579 328.874 135.704 328.948 135.826C328.991 135.922 329.04 136.015 329.095 136.104C329.151 136.209 329.212 136.311 329.279 136.409C329.351 136.54 329.429 136.667 329.514 136.79C329.571 136.88 329.635 136.968 329.698 137.051C329.788 137.183 329.882 137.312 329.984 137.439C330.023 137.499 330.068 137.557 330.117 137.61C330.199 137.723 330.295 137.832 330.391 137.94C330.487 138.047 330.575 138.155 330.67 138.257C330.817 138.416 330.965 138.562 331.112 138.708C331.22 138.816 331.327 138.917 331.441 139.013C331.554 139.109 331.652 139.203 331.759 139.292C331.783 139.315 331.808 139.336 331.834 139.355C331.982 139.482 332.146 139.609 332.305 139.73C332.35 139.764 332.397 139.796 332.445 139.825C332.578 139.927 332.718 140.029 332.858 140.12L333.054 140.241C333.201 140.343 333.349 140.431 333.505 140.521C333.689 140.635 333.874 140.737 334.058 140.832C334.177 140.902 334.306 140.965 334.432 141.023C335.225 141.418 336.049 141.747 336.896 142.006C337.105 142.077 337.321 142.14 337.536 142.196C337.751 142.252 338.012 142.323 338.26 142.381C338.743 142.501 339.239 142.597 339.734 142.675C339.989 142.72 340.237 142.758 340.49 142.789L341.253 142.885C341.506 142.91 341.766 142.935 342.021 142.954C342.276 142.973 342.534 142.992 342.795 143.006C343.056 143.019 343.315 143.031 343.576 143.037C345.182 143.087 346.79 143.03 348.389 142.866C358.267 141.894 362.806 132.713 362.972 126.244C363.137 119.774 362.972 100.963 362.972 100.963C359.645 100.086 357.454 99.6227 357.454 99.6227C356.642 108.027 352.598 114.682 343.582 114.847C334.567 115.012 337.862 99.6227 337.862 99.6227C335.907 99.8954 332.65 101.146 329.176 102.695C328.712 102.905 328.243 103.114 327.773 103.331C327.779 103.335 326.864 115.556 327.189 128.508Z" fill="#24282D"/>
<path d="M367.124 121.681C367.136 122.011 367.149 122.341 367.161 122.677C367.161 122.752 367.161 122.834 367.174 122.909C367.205 123.731 367.254 124.56 367.311 125.383C367.335 125.8 367.367 126.211 367.404 126.628C367.441 127.046 367.472 127.457 367.51 127.868C367.591 128.691 367.678 129.514 367.785 130.331C367.835 130.742 367.891 131.146 367.947 131.551C367.95 131.57 367.95 131.589 367.947 131.607C368.003 131.994 368.065 132.374 368.127 132.754C368.127 132.816 368.146 132.886 368.159 132.948C368.215 133.284 368.271 133.614 368.333 133.944C368.395 134.275 368.457 134.593 368.52 134.916C368.538 135.016 368.563 135.116 368.582 135.211C368.812 136.333 369.08 137.422 369.386 138.465C369.486 138.819 369.598 139.174 369.71 139.523C369.803 139.818 369.903 140.103 370.005 140.39C370.519 141.876 371.188 143.305 371.998 144.653C372.079 144.782 372.166 144.914 372.247 145.045C372.441 145.331 372.634 145.611 372.837 145.873C372.999 146.092 373.167 146.296 373.341 146.497C373.434 146.609 373.535 146.715 373.636 146.82C373.738 146.925 373.835 147.032 373.931 147.132C374.027 147.233 374.149 147.343 374.261 147.449C374.348 147.525 374.435 147.606 374.522 147.681C374.86 147.964 375.216 148.224 375.588 148.459C375.776 148.583 375.969 148.689 376.168 148.795C376.33 148.882 376.498 148.963 376.672 149.039C376.766 149.083 376.859 149.12 376.967 149.164C377.135 149.226 377.309 149.288 377.483 149.344C377.564 149.375 377.652 149.4 377.739 149.425C377.826 149.45 377.927 149.481 378.025 149.5C378.368 149.587 378.715 149.652 379.066 149.693C379.214 149.711 379.371 149.73 379.528 149.736C379.684 149.742 379.864 149.761 380.032 149.761L380.119 148.054L382.245 107.724C377.54 105.48 372.268 103.655 367.796 102.315C367.155 108.749 366.93 115.218 367.124 121.681Z" fill="#24282D"/>
<path d="M314.559 109.992V156.077C320.711 154.013 323.11 149.474 322.893 143.065C322.625 134.883 323.362 112.627 323.619 105.321C318.694 107.73 314.559 109.992 314.559 109.992Z" fill="#24282D"/>
<path d="M297.078 149.549C300.101 150.245 307.144 152.176 312.08 155.964C312.979 156.645 313.81 157.412 314.56 158.255V109.992C314.56 109.992 311.915 111.774 308.727 120.848C306.641 126.777 300.842 140.654 297.078 149.549Z" fill="#24282D"/>
<path d="M249.859 147.766C252.647 153.599 257.43 151.61 257.43 151.61L284.657 177.364C286.184 178.812 288.006 179.913 289.998 180.592C290.001 180.59 290.004 180.59 290.007 180.59C290.01 180.59 290.013 180.59 290.016 180.592C302.321 183.602 309.478 170.309 311.313 162.373C306.329 158.877 300.827 156.186 295.008 154.398C294.905 154.65 294.808 154.885 294.713 155.107C294.582 155.414 294.387 155.69 294.141 155.916C293.896 156.143 293.605 156.315 293.288 156.421C292.972 156.527 292.636 156.565 292.304 156.533C291.971 156.5 291.649 156.398 291.359 156.232L266.543 142.133C266.543 142.133 264.256 140.9 264.376 136.284C264.495 131.668 259.582 130.829 259.582 130.829C259.582 130.829 245.123 136.432 249.859 147.766Z" fill="#FFE0C2"/>
<path d="M293.872 152.93C293.815 153.053 293.784 153.187 293.783 153.323C293.782 153.46 293.811 153.594 293.867 153.718C293.923 153.843 294.005 153.953 294.108 154.042C294.211 154.132 294.331 154.198 294.462 154.236C294.648 154.291 294.832 154.347 295.015 154.404C300.834 156.192 306.336 158.883 311.32 162.379C312.221 163.014 312.942 163.566 313.48 163.99C313.579 164.068 313.698 164.116 313.823 164.13C313.948 164.143 314.074 164.121 314.188 164.066C314.301 164.011 314.396 163.925 314.463 163.818C314.53 163.712 314.565 163.588 314.565 163.462V158.516C314.565 158.348 314.503 158.185 314.39 158.06C313.685 157.294 312.914 156.593 312.085 155.964C307.149 152.176 300.106 150.245 297.084 149.549L296.54 149.429C296.277 149.372 296.003 149.405 295.762 149.524C295.521 149.643 295.327 149.84 295.213 150.083L293.872 152.93Z" fill="#AED9FF"/>
<path d="M290.016 180.597C292.659 181.5 295.504 181.632 298.219 180.977C300.934 180.323 303.407 178.909 305.349 176.901L314.558 167.378V164.893C313.523 163.996 312.441 163.157 311.314 162.379C309.479 170.315 302.321 183.608 290.016 180.597Z" fill="#FFD1AB"/>
<path opacity="0.1" d="M311.314 162.379C312.441 163.157 313.524 163.996 314.558 164.893V124.731C314.558 124.731 312.936 145.72 312.078 155.964C311.947 157.546 311.832 158.865 311.746 159.819C311.663 160.682 311.518 161.537 311.314 162.379Z" fill="black"/>
<path d="M363.947 143.38C365.183 143.38 366.186 142.377 366.186 141.141C366.186 139.904 365.183 138.901 363.947 138.901C362.71 138.901 361.707 139.904 361.707 141.141C361.707 142.377 362.71 143.38 363.947 143.38Z" fill="#D7EAFF"/>
<path d="M363.545 142.384C364.372 142.384 365.043 141.713 365.043 140.886C365.043 140.058 364.372 139.388 363.545 139.388C362.718 139.388 362.047 140.058 362.047 140.886C362.047 141.713 362.718 142.384 363.545 142.384Z" fill="#CCEEFF"/>
<path d="M327.836 143.623C328.909 143.623 329.779 142.753 329.779 141.68C329.779 140.607 328.909 139.737 327.836 139.737C326.763 139.737 325.893 140.607 325.893 141.68C325.893 142.753 326.763 143.623 327.836 143.623Z" fill="#D7EAFF"/>
<path d="M327.486 142.758C328.204 142.758 328.785 142.176 328.785 141.459C328.785 140.742 328.204 140.16 327.486 140.16C326.769 140.16 326.188 140.742 326.188 141.459C326.188 142.176 326.769 142.758 327.486 142.758Z" fill="#CCEEFF"/>
<path d="M372.647 368.025H401.514C404.805 368.025 406.187 363.826 403.537 361.873L390.3 355.84C389.419 355.44 388.655 354.821 388.08 354.043C387.506 353.266 387.139 352.354 387.015 351.395C386.798 349.727 386.506 347.436 386.158 344.613C382.742 346.874 377.435 349.412 372.053 348.12L372.441 349.417C373.057 351.466 372.94 353.666 372.111 355.638L369.328 362.253C368.989 362.837 368.81 363.5 368.809 364.175C368.807 364.85 368.983 365.513 369.32 366.098C369.656 366.683 370.141 367.17 370.725 367.508C371.309 367.846 371.972 368.025 372.647 368.025Z" fill="#AED9FF"/>
<path d="M296.253 368.025H321.382C322.036 368.029 322.677 367.843 323.227 367.49C323.776 367.136 324.211 366.63 324.479 366.033C325.03 364.77 325.086 363.054 322.981 361.336C319.394 358.411 320.999 352.275 322.538 346.74C322.538 346.74 311.575 349.277 307.153 342.147L306.999 345.033C306.999 345.033 306.348 355.722 301.818 358.635C298.303 360.892 293.75 362.311 293.489 365.144C293.346 366.71 294.68 368.025 296.253 368.025Z" fill="#AED9FF"/>
<path d="M314.121 202.673C340.525 217.144 371.304 205.76 377.8 202.984C377.85 201.412 378.04 195.406 378.114 193.943C378.114 193.943 339.656 209.487 314.559 193.943L314.121 202.673Z" fill="#24282D"/>
<path d="M312.463 235.8C326.658 232.945 327.501 214.422 327.501 214.422C322.057 216.044 316.681 214.275 313.603 212.851L312.463 235.8Z" fill="#24282D"/>
<path d="M345.088 241.16L343.866 236.641L322.539 346.74L345.088 241.16Z" fill="#C5861C"/>
<path opacity="0.1" d="M327.189 128.508C327.189 128.864 327.214 129.207 327.239 129.54C327.258 129.851 327.291 130.157 327.327 130.454C327.347 130.645 327.373 130.829 327.404 131.013C327.478 131.552 327.584 132.086 327.721 132.613C327.767 132.81 327.817 133.007 327.868 133.203C327.944 133.458 328.016 133.698 328.109 133.94C328.145 134.052 328.188 134.163 328.237 134.27C328.292 134.441 328.358 134.608 328.433 134.771C328.458 134.841 328.491 134.904 328.522 134.975C328.592 135.134 328.669 135.292 328.744 135.451C328.806 135.579 328.874 135.704 328.948 135.826C328.99 135.922 329.04 136.015 329.095 136.104C329.151 136.209 329.212 136.311 329.279 136.409C329.351 136.54 329.429 136.667 329.514 136.79C329.571 136.88 329.635 136.968 329.698 137.051C329.788 137.183 329.882 137.312 329.984 137.439C330.023 137.499 330.068 137.557 330.117 137.61C330.199 137.723 330.295 137.832 330.391 137.94C330.487 138.047 330.575 138.155 330.67 138.257C330.817 138.416 330.965 138.562 331.112 138.708C331.22 138.816 331.327 138.917 331.441 139.013C331.554 139.109 331.652 139.203 331.759 139.292C331.783 139.315 331.808 139.336 331.834 139.355C331.982 139.482 332.146 139.609 332.305 139.73C332.35 139.764 332.397 139.796 332.445 139.826C332.578 139.927 332.718 140.029 332.858 140.12L333.054 140.241C333.201 140.343 333.349 140.431 333.505 140.521C333.689 140.635 333.874 140.737 334.058 140.832C334.177 140.902 334.306 140.965 334.432 141.023C335.225 141.418 336.049 141.747 336.896 142.006C337.105 142.077 337.321 142.14 337.536 142.196C337.751 142.252 338.012 142.323 338.26 142.381C338.743 142.496 339.239 142.597 339.734 142.675C339.989 142.72 340.237 142.758 340.49 142.789L341.253 142.885C341.506 142.91 341.766 142.935 342.021 142.954C342.276 142.973 342.534 142.992 342.795 143.006C343.056 143.019 343.315 143.031 343.576 143.037C341.41 142.808 334.718 141.093 330.655 135.64C326.428 129.971 329.181 102.695 329.181 102.695C328.716 102.905 328.247 103.114 327.777 103.331C327.779 103.335 326.864 115.556 327.189 128.508Z" fill="black"/>
<path d="M357.003 102.7C356.99 102.757 356.984 102.814 356.971 102.87C356.984 102.82 356.99 102.763 357.009 102.707L357.003 102.7Z" fill="black"/>
<path d="M343.594 114.851C351.022 114.719 355.074 110.179 356.716 103.894C355.25 108.954 350.171 113.849 343.447 113.265C336.286 112.643 337.828 99.9957 337.872 99.633C337.872 99.633 334.578 115.016 343.594 114.851Z" fill="#FFD1AB"/>
<path d="M240.964 166.703H233.955V220.268H240.964V166.703Z" fill="#CCA244"/>
<path d="M240.965 166.703H237.711V220.268H240.965V166.703Z" fill="#CC8F46"/>
<path d="M242.34 214.26H232.578V221.769H242.34V214.26Z" fill="#CCA244"/>
<path d="M242.34 180.72H232.578V184.474H242.34V180.72Z" fill="#CCA244"/>
<path d="M240.964 184.537H233.955V186.414H240.964V184.537Z" fill="#BC7637"/>
<path d="M240.964 177.528L233.955 176.839V169.957H240.964V177.528Z" fill="#BC7637"/>
<path d="M240.964 213.175H233.955V214.198H240.964V213.175Z" fill="#BC7637"/>
<path d="M242.343 180.687H236.127V184.506H242.343V180.687Z" fill="#CC8F46"/>
<path d="M242.34 214.26H237.627V221.769H242.34V214.26Z" fill="#CC8F46"/>
<path d="M234.624 214.26H233.623V221.769H234.624V214.26Z" fill="#CC8F46"/>
<path d="M236.626 214.26H235.625V221.769H236.626V214.26Z" fill="#CC8F46"/>
<path d="M242.34 220.684H232.578V221.707H242.34V220.684Z" fill="#BC7637"/>
<path d="M274.755 166.703H267.746V220.268H274.755V166.703Z" fill="#CCA244"/>
<path d="M274.756 166.703H271.502V220.268H274.756V166.703Z" fill="#CC8F46"/>
<path d="M276.133 214.26H266.371V221.769H276.133V214.26Z" fill="#CCA244"/>
<path d="M276.133 180.72H266.371V184.474H276.133V180.72Z" fill="#CCA244"/>
<path d="M274.755 184.537H267.746V186.414H274.755V184.537Z" fill="#BC7637"/>
<path d="M267.746 177.528L274.755 176.839V169.957H267.746V177.528Z" fill="#BC7637"/>
<path d="M274.755 213.175H267.746V214.198H274.755V213.175Z" fill="#BC7637"/>
<path d="M276.132 180.687H269.916V184.506H276.132V180.687Z" fill="#CC8F46"/>
<path d="M276.131 214.26H271.418V221.769H276.131V214.26Z" fill="#CC8F46"/>
<path d="M268.415 214.26H267.414V221.769H268.415V214.26Z" fill="#CC8F46"/>
<path d="M270.417 214.26H269.416V221.769H270.417V214.26Z" fill="#CC8F46"/>
<path d="M276.133 220.684H266.371V221.707H276.133V220.684Z" fill="#BC7637"/>
<path d="M240.402 197.867C240.401 198.448 240.227 199.016 239.903 199.499C239.579 199.981 239.119 200.357 238.581 200.579C238.044 200.8 237.453 200.857 236.883 200.743C236.312 200.629 235.789 200.348 235.378 199.936C234.968 199.525 234.688 199.001 234.576 198.43C234.463 197.86 234.521 197.269 234.744 196.732C234.967 196.195 235.344 195.736 235.828 195.413C236.311 195.09 236.879 194.918 237.461 194.918C237.848 194.918 238.231 194.994 238.588 195.142C238.946 195.291 239.27 195.508 239.543 195.782C239.817 196.056 240.033 196.381 240.18 196.739C240.328 197.096 240.403 197.48 240.402 197.867Z" fill="#F3F8FF"/>
<path d="M241.809 193.864L232.027 200.171L233.112 201.853L242.894 195.547L241.809 193.864Z" fill="#F3F8FF"/>
<path d="M239.068 197.867C239.068 198.185 238.974 198.495 238.798 198.76C238.621 199.024 238.37 199.231 238.077 199.352C237.783 199.474 237.46 199.506 237.148 199.444C236.836 199.383 236.55 199.23 236.325 199.005C236.1 198.78 235.947 198.494 235.885 198.182C235.822 197.87 235.854 197.547 235.976 197.253C236.097 196.96 236.303 196.709 236.568 196.532C236.832 196.355 237.143 196.261 237.461 196.261C237.672 196.261 237.88 196.302 238.075 196.383C238.27 196.463 238.448 196.582 238.597 196.731C238.746 196.88 238.864 197.057 238.945 197.252C239.026 197.447 239.068 197.656 239.068 197.867Z" fill="#AEDCFF"/>
<path d="M273.834 197.867C273.832 198.448 273.659 199.016 273.334 199.499C273.01 199.982 272.55 200.357 272.013 200.579C271.475 200.8 270.884 200.857 270.314 200.743C269.744 200.629 269.22 200.348 268.81 199.936C268.399 199.524 268.12 199 268.007 198.429C267.894 197.859 267.953 197.268 268.176 196.731C268.399 196.194 268.776 195.735 269.26 195.412C269.744 195.09 270.313 194.918 270.894 194.918C271.281 194.918 271.664 194.995 272.021 195.143C272.378 195.291 272.702 195.509 272.975 195.782C273.249 196.056 273.465 196.381 273.612 196.739C273.76 197.097 273.835 197.48 273.834 197.867Z" fill="#F3F8FF"/>
<path d="M275.247 193.863L265.465 200.17L266.55 201.852L276.332 195.546L275.247 193.863Z" fill="#F3F8FF"/>
<path d="M272.507 197.867C272.507 198.185 272.413 198.495 272.237 198.76C272.06 199.024 271.809 199.231 271.516 199.353C271.222 199.474 270.899 199.506 270.587 199.444C270.275 199.382 269.989 199.229 269.764 199.004C269.539 198.78 269.386 198.493 269.324 198.181C269.262 197.869 269.294 197.546 269.416 197.252C269.537 196.959 269.744 196.708 270.008 196.531C270.273 196.355 270.584 196.261 270.902 196.261C271.327 196.261 271.736 196.43 272.037 196.731C272.338 197.032 272.507 197.441 272.507 197.867Z" fill="#AEDCFF"/>
<path d="M302.205 167.7C302.205 167.7 278.173 173.544 251.477 173.544C224.78 173.544 203.654 167.7 203.654 167.7V6.67467C203.654 6.67467 228.913 0.000244141 252.941 0.000244141C276.968 0.000244141 302.199 6.67467 302.199 6.67467L302.205 167.7Z" fill="#CCEEFF"/>
<path d="M245.97 10.0126H207.924V157.692H245.97V10.0126Z" fill="#F3F8FF"/>
<path d="M255.482 173.491C280.529 172.96 302.205 167.7 302.205 167.7V6.67465C302.205 6.67465 278.715 0.482347 255.482 0.0400391V173.491Z" fill="#AEDCFF"/>
<path d="M302.205 143.174H203.66V145.511H302.205V143.174Z" fill="#69B2D6"/>
<path d="M268.619 53.0639C268.619 56.1663 267.699 59.1989 265.976 61.7784C264.252 64.3579 261.803 66.3684 258.936 67.5556C256.07 68.7428 252.916 69.0535 249.874 68.4482C246.831 67.843 244.036 66.3491 241.842 64.1554C239.649 61.9617 238.155 59.1668 237.549 56.124C236.944 53.0813 237.255 49.9274 238.442 47.0613C239.629 44.1951 241.64 41.7453 244.219 40.0217C246.799 38.2982 249.831 37.3782 252.934 37.3782C257.094 37.3782 261.084 39.0308 264.025 41.9724C266.967 44.9141 268.619 48.9038 268.619 53.0639Z" fill="#69B2D6"/>
<path d="M247.473 157.686C247.473 159.072 247.062 160.427 246.292 161.58C245.522 162.733 244.427 163.631 243.146 164.161C241.866 164.692 240.456 164.831 239.097 164.56C237.737 164.29 236.488 163.622 235.508 162.642C234.528 161.662 233.86 160.413 233.59 159.053C233.319 157.694 233.458 156.284 233.989 155.004C234.519 153.723 235.418 152.628 236.57 151.858C237.723 151.088 239.078 150.677 240.464 150.677C241.385 150.677 242.296 150.858 243.147 151.21C243.997 151.562 244.77 152.078 245.421 152.729C246.072 153.38 246.588 154.153 246.94 155.003C247.292 155.854 247.473 156.765 247.473 157.686Z" fill="#69B2D6"/>
<path d="M273.169 150.649H264.492V156.322H273.169V150.649Z" fill="#69B2D6"/>
<path d="M273.169 159.995H264.492V165.668H273.169V159.995Z" fill="#69B2D6"/>
<path d="M273.169 149.848H264.492V155.522H273.169V149.848Z" fill="#F3F8FF"/>
<path d="M273.169 159.193H264.492V164.866H273.169V159.193Z" fill="#F3F8FF"/>
<path d="M247.633 148.675L246.28 150.605C247.735 152.109 248.673 154.038 248.956 156.113C249.238 158.187 248.852 160.297 247.852 162.136C246.852 163.975 245.291 165.447 243.396 166.337C241.502 167.227 239.372 167.489 237.318 167.085C238.335 167.414 239.395 167.589 240.463 167.604C242.664 167.612 244.815 166.948 246.628 165.701C248.442 164.454 249.831 162.683 250.611 160.625C251.39 158.567 251.523 156.32 250.991 154.184C250.458 152.049 249.287 150.126 247.633 148.675Z" fill="#ED6445"/>
<path d="M245.969 157.686C245.969 158.775 245.646 159.84 245.04 160.745C244.435 161.651 243.575 162.357 242.569 162.773C241.563 163.19 240.456 163.299 239.387 163.087C238.319 162.874 237.338 162.35 236.568 161.58C235.798 160.81 235.273 159.828 235.061 158.76C234.848 157.692 234.957 156.585 235.374 155.579C235.791 154.572 236.497 153.712 237.402 153.107C238.308 152.502 239.373 152.179 240.462 152.179C241.922 152.179 243.323 152.759 244.356 153.792C245.388 154.825 245.969 156.225 245.969 157.686Z" fill="#CCEEFF"/>
<path d="M246.305 155.022L241.633 156.356L242.967 151.684L246.305 155.022Z" fill="#69B2D6"/>
<path d="M203.654 167.7C203.654 167.7 250.052 180.969 302.199 167.7C302.205 167.7 253.463 177.709 203.654 167.7Z" fill="#69B2D6"/>
<path d="M266.45 53.0639C266.45 55.7374 265.658 58.351 264.172 60.5741C262.687 62.7971 260.576 64.5299 258.106 65.5531C255.636 66.5764 252.918 66.8442 250.296 66.3227C247.674 65.8012 245.265 64.5138 243.375 62.6233C241.485 60.7328 240.197 58.3242 239.676 55.702C239.154 53.0799 239.422 50.362 240.445 47.892C241.468 45.422 243.201 43.311 245.424 41.8259C247.647 40.3407 250.261 39.5482 252.934 39.5485C256.519 39.5485 259.957 40.9724 262.491 43.507C265.026 46.0417 266.45 49.4794 266.45 53.0639Z" fill="#AEDCFF"/>
<path d="M240.885 59.0719C243.096 63.5068 247.639 66.5808 252.935 66.5808C258.231 66.5808 262.766 63.5068 264.983 59.0719H240.885Z" fill="#F3F8FF"/>
<path d="M260.943 47.0574H244.924V53.7318H260.943V47.0574Z" fill="#69B2D6"/>
<path opacity="0.1" d="M367.125 121.681C367.137 122.011 367.15 122.341 367.162 122.677C367.162 122.752 367.162 122.834 367.175 122.909C367.206 123.731 367.255 124.56 367.312 125.383C367.336 125.8 367.368 126.211 367.405 126.629C367.442 127.046 367.473 127.457 367.511 127.868C367.592 128.691 367.679 129.514 367.786 130.331C367.836 130.742 367.892 131.146 367.948 131.551C367.951 131.57 367.951 131.589 367.948 131.607C368.004 131.994 368.066 132.374 368.128 132.754C368.128 132.816 368.147 132.886 368.16 132.948C368.216 133.284 368.272 133.614 368.334 133.944C368.396 134.275 368.458 134.593 368.521 134.916C368.539 135.016 368.564 135.116 368.583 135.211C368.813 136.333 369.081 137.418 369.387 138.465C369.487 138.819 369.599 139.174 369.711 139.523C369.804 139.818 369.904 140.103 370.006 140.39C370.52 141.876 371.189 143.305 371.999 144.653C372.08 144.782 372.167 144.914 372.248 145.045C372.442 145.331 372.635 145.611 372.838 145.873C373 146.092 373.168 146.296 373.342 146.497C373.435 146.609 373.536 146.715 373.637 146.82C373.739 146.925 373.836 147.032 373.932 147.132C374.028 147.233 374.15 147.343 374.262 147.449C374.349 147.525 374.436 147.606 374.523 147.681C374.861 147.964 375.217 148.224 375.589 148.459C375.777 148.577 375.97 148.689 376.169 148.795C376.331 148.882 376.499 148.963 376.673 149.039C376.767 149.083 376.86 149.12 376.968 149.164C377.136 149.226 377.31 149.288 377.484 149.344C377.565 149.375 377.653 149.4 377.74 149.425C377.827 149.45 377.928 149.481 378.026 149.5C378.369 149.587 378.716 149.652 379.067 149.693C379.215 149.711 379.372 149.73 379.529 149.736C379.685 149.742 379.865 149.761 380.033 149.761L380.12 148.054C377.843 147.891 375.679 147.002 373.945 145.518C369.051 141.329 367.457 125.763 367.125 121.681Z" fill="black"/>
<path d="M283.209 158.462L280.986 163.848L311.149 176.292L313.371 170.906L283.209 158.462Z" fill="#FFA233"/>
<path d="M336.772 183.716C336.478 184.43 335.911 184.998 335.198 185.294C334.485 185.591 333.683 185.592 332.969 185.298L308.188 175.083L310.409 169.697L335.186 179.919C335.899 180.213 336.467 180.778 336.764 181.49C337.061 182.201 337.064 183.002 336.772 183.716Z" fill="#363B4C"/>
<path d="M285.038 158.381L282.223 165.204L291.199 168.907L294.014 162.085L285.038 158.381Z" fill="#FFA233"/>
<path d="M293.678 163.22L291.752 167.888L294.804 169.147L296.729 164.479L293.678 163.22Z" fill="#B0B6C1"/>
<path d="M296.327 165.251L295.068 168.303L303.115 171.623L304.374 168.571L296.327 165.251Z" fill="#B0B6C1"/>
<path d="M293.66 163.202L291.734 167.87L292.633 168.241L294.558 163.573L293.66 163.202Z" fill="#9299A5"/>
<path d="M296.184 168.748L297.443 165.696L296.398 165.265L295.139 168.317L296.184 168.748Z" fill="#9299A5"/>
<path d="M297.299 165.636L296.742 166.985L303.797 169.896L304.353 168.547L297.299 165.636Z" fill="#9299A5"/>
<path d="M280.99 163.855L282.22 165.202L285.034 158.379L283.212 158.469L280.99 163.855Z" fill="#FC8A24"/>
<path d="M276.165 156.716L274.758 160.127L282.311 163.244L283.719 159.832L276.165 156.716Z" fill="#B0B6C1"/>
<path d="M283.717 159.831L283.235 160.999L276.848 158.364L274.756 160.126L276.164 156.714L283.717 159.831Z" fill="#9299A5"/>
<path d="M396.904 141.722C394.18 141.826 387.594 142.164 381.73 143.998C381.248 144.135 380.8 144.274 380.352 144.44L381.248 127.372V127.336L382.249 107.715C382.249 107.715 386.386 109.889 387.318 112.75C387.731 114.067 392.387 127.481 396.904 141.722Z" fill="#24282D"/>
<path d="M391.904 177.926L378.757 178.831L353.448 180.571L342.7 181.308L340.936 167.417L377.383 156.935C377.561 156.894 377.735 156.835 377.902 156.76C377.922 156.743 377.946 156.734 377.971 156.732C378.518 156.464 378.983 156.053 379.316 155.543C379.65 155.034 379.84 154.443 379.866 153.835L380.077 149.934C380.245 149.864 380.904 149.695 381.865 149.45C385.423 148.566 393.315 146.869 398.801 147.731C400.59 153.491 401.039 157.939 401.523 164.176C402.077 170.967 398.661 177.308 391.904 177.926Z" fill="#FFE0C2"/>
<path d="M399.007 147.756C398.938 147.756 398.87 147.722 398.801 147.722C393.317 146.86 385.421 148.549 381.869 149.446C380.903 149.687 380.247 149.86 380.076 149.929L380.352 144.446C380.794 144.274 381.248 144.135 381.73 144.004C387.594 142.176 394.18 141.832 396.904 141.727H397.145C397.438 141.727 397.724 141.82 397.96 141.994C398.196 142.168 398.37 142.413 398.456 142.693L399.765 146.935C399.796 147.043 399.8 147.157 399.774 147.267C399.748 147.376 399.695 147.477 399.618 147.56C399.542 147.643 399.446 147.704 399.338 147.739C399.231 147.773 399.117 147.779 399.007 147.756Z" fill="#AED9FF"/>
<path opacity="0.1" d="M381.869 149.446C380.903 149.687 380.247 149.86 380.076 149.929L380.352 144.446L381.248 127.378C381.284 128.101 381.524 136.859 381.73 143.998C381.8 145.997 381.835 147.895 381.869 149.446Z" fill="black"/>
<path d="M381.973 153.136C381.973 154.895 380.663 155.895 377.973 156.722C378.519 156.453 378.984 156.043 379.317 155.533C379.651 155.024 379.842 154.434 379.87 153.826L380.077 149.929C380.249 149.86 380.904 149.688 381.869 149.446C381.939 151.377 381.973 152.756 381.973 153.136Z" fill="#FFD1AB"/>
<path d="M342.881 181.276L342.69 181.296C337.885 181.632 333.521 181.037 330.525 185.007C327.53 188.978 319.533 188.298 316.417 183.238C316.164 182.825 315.94 182.418 315.736 182.017C315.734 182.016 315.732 182.014 315.731 182.011C315.73 182.009 315.729 182.007 315.729 182.004C312.551 175.577 316.15 170.61 319.857 168.275C323.801 165.783 327.35 168.443 331.139 168.596C334.928 168.749 340.933 167.417 340.933 167.417C340.933 167.417 347.321 180.586 342.881 181.276Z" fill="#FFE0C2"/>
<path d="M342.881 181.276L342.691 181.296C337.886 181.632 333.522 181.037 330.526 185.007C327.53 188.978 319.533 188.298 316.417 183.238C316.164 182.825 315.94 182.418 315.736 182.017C315.983 182.333 320.866 188.521 326.576 185.483C332.329 182.423 329.297 180.774 342.881 181.276Z" fill="#FFD1AB"/>
</svg>
