<svg width="483" height="406" viewBox="0 0 483 406" fill="none" xmlns="http://www.w3.org/2000/svg">
<mask id="mask0_246_762" style="mask-type:luminance" maskUnits="userSpaceOnUse" x="0" y="0" width="483" height="406">
<path d="M18.8595 249.068C42.5545 226.443 74.9978 237.263 95.4767 212.376C107.944 197.222 111.054 174.809 105.231 157.332C95.8947 129.293 66.2423 121.966 63.7701 91.4942C63.7701 91.4942 63.0618 82.7314 65.5977 73.6883C79.2338 25.1168 231.441 -28.4786 352.763 17.5638C368.581 23.5652 415.185 41.8769 447.876 85.0144C484.336 133.121 483.153 185.254 482.02 235.028C481.092 275.719 480.631 296.06 467.385 318.672C432.816 377.68 347.097 392.349 309.879 398.719C184.795 420.121 23.5985 386.956 2.8008 318.132C-2.88032 299.334 -1.03857 268.077 18.8595 249.068Z" fill="white"/>
</mask>
<g mask="url(#mask0_246_762)">
<path d="M325.421 -77.7542H-75.0273V385.514H325.421V-77.7542Z" fill="#24282D"/>
<path d="M678.281 -77.7542H317.459V385.514H678.281V-77.7542Z" fill="#24282D"/>
<path d="M683.303 353.737L258.168 343.244L-99.3672 376.922V448.432H308.051L679.23 447.646L679.435 391.891L683.303 353.737Z" fill="#24282D"/>
<path d="M212.663 375.548C261.683 375.548 301.422 370.697 301.422 364.714C301.422 358.731 261.683 353.88 212.663 353.88C163.643 353.88 123.904 358.731 123.904 364.714C123.904 370.697 163.643 375.548 212.663 375.548Z" fill="#24282D"/>
<path d="M103.871 393.32C137.841 393.32 165.379 390.082 165.379 386.088C165.379 382.094 137.841 378.856 103.871 378.856C69.9012 378.856 42.3633 382.094 42.3633 386.088C42.3633 390.082 69.9012 393.32 103.871 393.32Z" fill="#24282D"/>
</g>
<mask id="mask1_246_762" style="mask-type:luminance" maskUnits="userSpaceOnUse" x="0" y="0" width="483" height="406">
<path d="M18.8595 249.068C42.5545 226.443 74.9978 237.263 95.4767 212.376C107.944 197.222 111.054 174.809 105.231 157.332C95.8947 129.293 66.2423 121.966 63.7701 91.4942C63.7701 91.4942 63.0618 82.7314 65.5977 73.6883C79.2338 25.1168 231.441 -28.4786 352.763 17.5638C368.581 23.5652 415.185 41.8769 447.876 85.0144C484.336 133.121 483.153 185.254 482.02 235.028C481.092 275.719 480.631 296.06 467.385 318.672C432.816 377.68 347.097 392.349 309.879 398.719C184.795 420.121 23.5985 386.956 2.8008 318.132C-2.88032 299.334 -1.03857 268.077 18.8595 249.068Z" fill="white"/>
</mask>
<g mask="url(#mask1_246_762)">
<path d="M280.58 347.728L106.619 363.737V33.2986L280.58 17.2836V347.728Z" fill="#D8AB98"/>
<path d="M268.46 308.904V26.7504L139.969 38.5755C147.662 85.2399 163.472 168.179 186.162 223.812C206.201 272.943 242.739 297.318 268.46 308.904Z" fill="#9DBED1"/>
<path d="M118.732 354.276L268.46 340.497V308.904C242.739 297.318 206.194 272.95 186.154 223.812C163.465 168.179 147.662 85.2399 139.962 38.5755L118.725 40.5304V354.276H118.732Z" fill="#9DBED1"/>
</g>
<mask id="mask2_246_762" style="mask-type:luminance" maskUnits="userSpaceOnUse" x="0" y="0" width="483" height="406">
<path d="M18.8595 249.068C42.5545 226.443 74.9978 237.263 95.4767 212.376C107.944 197.222 111.054 174.809 105.231 157.332C95.8947 129.293 66.2423 121.966 63.7701 91.4942C63.7701 91.4942 63.0618 82.7314 65.5977 73.6883C79.2338 25.1168 231.441 -28.4786 352.763 17.5638C368.581 23.5652 415.185 41.8769 447.876 85.0144C484.336 133.121 483.153 185.254 482.02 235.028C481.092 275.719 480.631 296.06 467.385 318.672C432.816 377.68 347.097 392.349 309.879 398.719C184.795 420.121 23.5985 386.956 2.8008 318.132C-2.88032 299.334 -1.03857 268.077 18.8595 249.068Z" fill="white"/>
</mask>
<g mask="url(#mask2_246_762)">
<path d="M395.726 4.93906H387.062V369.909H395.726V4.93906Z" fill="#D8AB98"/>
<path d="M367.923 146.853C376.268 75.3219 371.897 26.395 379.037 6.40863L268.461 26.7504V318.685C284.973 313.449 304.836 308.248 322.347 294.147C353.685 268.904 358.431 228.22 367.923 146.853Z" fill="#9C5A4A"/>
<path d="M387.211 369.902V4.90488L379.043 6.40864C371.903 26.395 376.274 75.3219 367.929 146.853C358.437 228.22 353.691 268.911 322.352 294.147C304.842 308.248 284.979 313.449 268.467 318.685V340.497L387.211 369.902Z" fill="#844B42"/>
</g>
<mask id="mask3_246_762" style="mask-type:luminance" maskUnits="userSpaceOnUse" x="0" y="0" width="483" height="406">
<path d="M18.8595 249.068C42.5545 226.443 74.9978 237.263 95.4767 212.376C107.944 197.222 111.054 174.809 105.231 157.332C95.8947 129.293 66.2423 121.966 63.7701 91.4942C63.7701 91.4942 63.0618 82.7314 65.5977 73.6883C79.2338 25.1168 231.441 -28.4786 352.763 17.5638C368.581 23.5652 415.185 41.8769 447.876 85.0144C484.336 133.121 483.153 185.254 482.02 235.028C481.092 275.719 480.631 296.06 467.385 318.672C432.816 377.68 347.097 392.349 309.879 398.719C184.795 420.121 23.5985 386.956 2.8008 318.132C-2.88032 299.334 -1.03857 268.077 18.8595 249.068Z" fill="white"/>
</mask>
<g mask="url(#mask3_246_762)">
<path d="M364.396 196.716C366.137 196.716 367.549 193.381 367.549 189.266C367.549 185.151 366.137 181.816 364.396 181.816C362.655 181.816 361.244 185.151 361.244 189.266C361.244 193.381 362.655 196.716 364.396 196.716Z" fill="#AEACB1"/>
<path d="M363.51 192.349H350.504V186.518H363.51C364.338 187.086 364.87 188.186 364.884 189.389C364.898 190.619 364.367 191.768 363.51 192.349Z" fill="#5D5B60"/>
<path d="M347.331 197.455C352.17 197.455 356.093 193.669 356.093 188.999C356.093 184.33 352.17 180.544 347.331 180.544C342.491 180.544 338.568 184.33 338.568 188.999C338.568 193.669 342.491 197.455 347.331 197.455Z" fill="#AEACB1"/>
</g>
<mask id="mask4_246_762" style="mask-type:luminance" maskUnits="userSpaceOnUse" x="0" y="0" width="483" height="406">
<path d="M18.8595 249.068C42.5545 226.443 74.9978 237.263 95.4767 212.376C107.944 197.222 111.054 174.809 105.231 157.332C95.8947 129.293 66.2423 121.966 63.7701 91.4942C63.7701 91.4942 63.0618 82.7314 65.5977 73.6883C79.2338 25.1168 231.441 -28.4786 352.763 17.5638C368.581 23.5652 415.185 41.8769 447.876 85.0144C484.336 133.121 483.153 185.254 482.02 235.028C481.092 275.719 480.631 296.06 467.385 318.672C432.816 377.68 347.097 392.349 309.879 398.719C184.795 420.121 23.5985 386.956 2.8008 318.132C-2.88032 299.334 -1.03857 268.077 18.8595 249.068Z" fill="white"/>
</mask>
<g mask="url(#mask4_246_762)">
<path d="M224.94 105.37L262.108 116.949C270.899 118.473 275.284 125.643 273.605 130.51C272.464 133.818 268.462 136.265 263.815 136.908C258.531 136.074 251.568 134.83 243.478 132.984C217.757 127.106 213.641 122.649 211.863 119.252C211.275 118.124 208.683 112.786 211.445 108.835C213.748 105.52 219.117 104.146 224.94 105.37Z" fill="#E78D73"/>
<path d="M315.328 117.14C310.511 116.238 275.773 117.366 265.31 119.198C262.172 119.744 260.876 120.947 260.238 121.925C258.425 124.734 258.354 130.483 260.649 133.176C263.327 136.327 267.343 137.092 270.68 137.434C284.337 138.815 308.28 132.704 315.144 130.797C314.662 128.439 320.953 121.829 315.328 117.14Z" fill="#E78D73"/>
<path d="M222.113 100.339C222.113 100.339 226.264 101.597 238.016 106.409C252.616 112.383 262.342 114.994 262.342 114.994L304.05 116.354L304.504 134.324C304.504 134.324 278.166 141.576 255.697 136.641C230.182 131.029 191.349 119.444 222.113 100.339Z" fill="white"/>
<path d="M309.945 129.628C309.945 129.628 311.007 129.984 313.295 129.867C315.42 129.758 317.737 129.498 323.956 127.284C329.708 125.24 328.39 125.301 331.861 124.208C335.46 123.08 339.682 122.13 340.362 120.25C340.787 119.075 340.497 118.152 340.497 118.152C340.433 117.954 340.312 117.591 340.015 117.338C339.377 116.805 338.343 117.147 337.961 117.277C334.745 118.336 331.472 119.109 328.27 120.264C327.335 120.606 325.847 121.118 323.977 121.651C323.97 121.61 323.885 121.282 323.871 121.241L323.857 121.187C323.857 121.187 326.846 120.031 330.006 118.815C333.165 117.598 336.487 116.313 337.153 116.053C337.819 115.794 338.775 114.789 339.073 113.784C339.363 112.779 338.988 111.774 336.976 111.528C336.976 111.528 336.416 111.234 335.503 111.009C334.596 110.783 333.335 110.633 331.947 110.913C331.947 110.913 331.359 110.503 330.473 110.141C329.588 109.779 328.412 109.464 327.25 109.662C326.081 109.861 325.472 109.84 324.912 109.799C324.353 109.758 323.85 109.697 322.908 109.806C321.959 109.915 319.387 110.783 316.837 111.768C314.287 112.752 311.772 113.852 310.943 114.427C310.115 115.001 308.875 115.862 307.862 117.147C306.849 118.432 306.07 120.141 306.155 122.403C306.247 124.666 307.189 126.47 308.117 127.714C309.045 128.952 309.945 129.628 309.945 129.628Z" fill="#E78D73"/>
<path d="M324.6 126.005C324.6 126.005 329.707 127.612 329.417 130.284C329.268 131.665 327.922 132.027 327.185 132.144C326.505 132.253 325.606 131.98 324.579 131.638C324.394 131.576 324.224 131.508 324.069 131.433C323.155 131.009 322.772 130.701 321.993 130.592C320.959 130.448 319.825 130.804 319.117 131.193C315.582 133.101 309.915 132.595 308.619 130.339C308.343 129.861 307.911 128.692 307.826 127.277C307.819 127.174 307.84 127.113 307.854 127.072C308.258 125.37 313.691 124.146 317.559 124.228C319.216 124.269 321.773 124.57 324.6 126.005Z" fill="#E78D73"/>
<path d="M323.426 116.108C325.969 115.042 328.519 114.016 331.09 113.059C331.735 112.82 332.38 112.581 333.024 112.349C333.669 112.116 334.32 111.891 334.972 111.679C335.298 111.569 335.631 111.474 335.957 111.385C336.12 111.337 336.29 111.296 336.467 111.255C336.552 111.234 336.644 111.221 336.743 111.207C336.771 111.207 336.793 111.2 336.828 111.2C336.849 111.2 336.906 111.2 336.92 111.207L337.048 111.221C337.374 111.269 337.707 111.344 338.011 111.481C338.316 111.617 338.599 111.829 338.79 112.109C338.882 112.253 338.953 112.41 339.003 112.574C339.045 112.738 339.081 112.909 339.088 113.08C339.102 113.422 339.052 113.77 338.96 114.112C338.918 114.283 338.854 114.454 338.776 114.618L338.719 114.741L338.649 114.864C338.599 114.946 338.557 115.028 338.5 115.103C338.287 115.418 338.004 115.684 337.706 115.903C337.111 116.347 336.46 116.641 335.822 116.915C335.178 117.188 334.533 117.42 333.888 117.653C333.244 117.878 332.592 118.104 331.947 118.316L329.999 118.945C328.696 119.355 327.4 119.779 326.096 120.175C327.378 119.683 328.668 119.211 329.95 118.733C331.239 118.261 332.528 117.796 333.803 117.311C334.441 117.065 335.078 116.819 335.702 116.545C336.318 116.272 336.941 115.971 337.459 115.568C337.714 115.37 337.954 115.144 338.124 114.891C338.174 114.83 338.209 114.761 338.245 114.693L338.302 114.591L338.344 114.481C338.408 114.345 338.464 114.194 338.5 114.051C338.663 113.456 338.663 112.834 338.372 112.396C338.082 111.959 337.515 111.747 336.913 111.665L336.8 111.651C336.771 111.645 336.786 111.651 336.771 111.651C336.757 111.651 336.743 111.651 336.729 111.651C336.665 111.658 336.587 111.672 336.509 111.686C336.354 111.72 336.191 111.761 336.035 111.802C335.709 111.891 335.39 111.986 335.064 112.082C333.768 112.478 332.479 112.936 331.19 113.381L323.426 116.108Z" fill="#844B42"/>
<path d="M336.253 111.658C336.175 111.549 336.069 111.467 335.956 111.399C335.899 111.364 335.842 111.33 335.779 111.303C335.722 111.275 335.658 111.248 335.595 111.228C335.34 111.139 335.07 111.07 334.794 111.043C334.242 110.968 333.668 110.975 333.101 111.009L332.669 111.043C332.527 111.057 332.379 111.077 332.23 111.091C332.088 111.105 331.939 111.125 331.791 111.139L331.351 111.18C330.771 111.234 330.19 111.289 329.602 111.351C329.021 111.405 328.44 111.474 327.852 111.549C327.562 111.583 327.271 111.624 326.981 111.658L326.109 111.781C324.948 111.959 323.779 112.157 322.617 112.485C323.736 111.973 324.919 111.665 326.095 111.426C327.271 111.18 328.447 111.023 329.623 110.893C330.211 110.838 330.799 110.783 331.38 110.742L331.819 110.722C331.961 110.715 332.102 110.701 332.251 110.694C332.4 110.688 332.541 110.667 332.69 110.667L333.129 110.66C333.717 110.66 334.305 110.701 334.865 110.831C335.141 110.9 335.41 110.988 335.658 111.125C335.906 111.241 336.14 111.405 336.253 111.658Z" fill="#844B42"/>
<path d="M332.944 123.784C331.676 124.365 330.394 124.905 329.112 125.418C328.468 125.684 327.823 125.93 327.178 126.183L325.237 126.921L323.289 127.632C322.638 127.858 321.986 128.09 321.334 128.309C320.031 128.746 318.713 129.17 317.389 129.498C318.678 128.986 319.96 128.473 321.249 127.974C321.894 127.721 322.539 127.475 323.183 127.229L325.124 126.498L327.065 125.787C327.717 125.554 328.361 125.315 329.013 125.096C330.324 124.625 331.634 124.187 332.944 123.784Z" fill="#844B42"/>
<path d="M313.827 132.369C313.203 132.451 312.58 132.444 311.978 132.397C311.369 132.349 310.774 132.246 310.2 132.103C309.909 132.034 309.626 131.945 309.35 131.857C309.074 131.747 308.797 131.665 308.535 131.535C307.997 131.303 307.501 131.009 307.055 130.66C307.621 130.831 308.16 131.029 308.719 131.193C308.996 131.282 309.272 131.358 309.548 131.44C309.831 131.508 310.108 131.59 310.391 131.658C310.951 131.802 311.517 131.932 312.098 132.048C312.665 132.15 313.239 132.26 313.827 132.369Z" fill="#844B42"/>
<path d="M273.556 138.309C272.252 138.309 270.963 138.288 269.688 138.241C261.457 137.926 250.959 134.939 250.853 134.905C250.668 134.85 250.562 134.659 250.612 134.481C250.668 134.304 250.86 134.201 251.051 134.249C251.157 134.276 261.57 137.243 269.716 137.557C283.367 138.077 299.085 135.548 301.48 135.144L300.658 123.456C300.644 123.265 300.793 123.107 300.984 123.094C301.182 123.087 301.345 123.224 301.359 123.415L302.224 135.718L301.912 135.773C301.763 135.794 287.348 138.309 273.556 138.309Z" fill="black"/>
<path d="M269.724 124.057C269.618 124.057 269.519 124.016 269.448 123.928C267.082 121.057 268.328 117.113 268.378 116.949C268.435 116.771 268.633 116.669 268.824 116.723C269.009 116.778 269.115 116.969 269.058 117.154C269.044 117.188 267.875 120.913 270.007 123.504C270.128 123.654 270.106 123.866 269.951 123.982C269.88 124.03 269.802 124.057 269.724 124.057Z" fill="black"/>
<path d="M266.08 355.623C270.834 357.325 270.168 365.309 265.245 365.268C265.124 365.268 265.004 365.261 264.89 365.247C254.3 364.256 254.201 362.185 249.129 362.916C244.234 363.62 242.492 365.808 237.08 365.268C234.516 365.008 232.362 364.249 230.931 363.648C230.931 363.641 230.924 363.641 230.924 363.641C230.924 363.641 230.428 362.438 230.379 361.7C230.003 356.792 229.897 353.586 230.265 350.982C230.464 349.546 230.818 348.658 231.236 345.821C231.278 345.534 231.448 344.338 231.59 342.622C231.625 342.267 231.647 341.884 231.675 341.481C231.725 340.784 231.767 340.032 231.788 339.225C231.803 338.849 231.817 338.473 231.817 338.084C231.824 338.029 231.817 337.974 231.824 337.92C231.888 331.659 230.91 325.985 230.138 322.397C235.068 323.989 239.998 325.575 244.922 327.168C244.574 332.021 244.999 335.849 245.58 338.644C245.665 339.054 245.75 339.444 245.849 339.806C246.019 340.503 246.19 341.125 246.36 341.665C246.409 341.829 246.459 341.973 246.508 342.117C246.664 342.595 246.806 342.964 246.94 343.265C247.11 343.634 247.217 343.935 247.436 344.167C252.976 350.066 260.123 353.497 266.08 355.623Z" fill="#E78D73"/>
<path d="M276.317 358.747C276.189 359.854 275.941 361.289 275.424 362.698C275.424 362.704 275.424 362.704 275.417 362.711C274.624 363.969 273.675 364.974 273.575 365.063C272.102 366.58 270.515 367.359 268.836 367.886C267.058 367.947 264.466 367.694 260.541 366.915C257.127 366.238 254.903 365.541 253.259 364.933C250.065 363.75 249.059 362.889 245.737 363.067C244.044 363.156 242.691 363.47 241.423 363.791C239.064 364.386 237.017 365.028 233.68 364.338C231.243 363.832 229.302 362.862 228.034 362.117C228.034 362.11 228.027 362.11 228.027 362.11C228.042 362.076 228.049 362.041 228.063 362C228.141 361.768 228.226 361.515 228.297 361.242L228.304 361.235V361.221C228.311 361.201 228.318 361.187 228.318 361.166C228.693 359.601 229.033 357.803 229.253 355.808C229.487 353.682 229.543 351.713 229.508 349.936C229.487 348.979 229.437 348.07 229.366 347.236C232.582 347.68 234.438 348.931 235.543 350.032C236.237 350.715 237.13 351.829 238.674 352.287C239.127 352.417 240.197 352.739 241.196 352.26C242.506 351.631 242.832 350.045 243.534 348.234C243.64 347.968 243.753 347.68 243.895 347.38L243.902 347.359C244.497 346.019 245.404 344.379 246.813 342.65C247.352 343.299 247.996 344.024 248.74 344.803C249.023 345.097 249.328 345.404 249.647 345.705C250.051 346.101 250.476 346.498 250.929 346.901C250.964 346.935 251.007 346.976 251.049 347.011C251.708 347.598 252.353 348.132 252.976 348.617C253.826 349.273 254.62 349.834 255.335 350.305C255.81 350.613 256.249 350.893 256.638 351.125C256.688 351.146 256.723 351.173 256.766 351.207C257.198 351.46 257.573 351.672 257.871 351.829C258.062 351.939 258.218 352.014 258.338 352.082C258.827 352.335 259.281 352.554 259.713 352.745C260.23 352.971 260.711 353.176 261.2 353.361C261.682 353.538 262.164 353.702 262.681 353.873C264.246 354.386 266.109 354.912 269.049 355.951C269.063 355.965 269.084 355.965 269.106 355.972C270.423 356.436 271.635 356.888 272.711 357.304C274.185 357.865 275.396 358.357 276.317 358.747Z" fill="#3B1224"/>
<path d="M276.317 358.747C276.19 359.854 275.942 361.289 275.425 362.698C275.425 362.704 275.425 362.704 275.418 362.711C274.624 363.969 273.675 364.974 273.576 365.063C272.102 366.58 270.516 367.359 268.837 367.886C267.059 367.947 264.466 367.694 260.542 366.915C257.127 366.238 254.903 365.541 253.26 364.933C253.316 364.837 253.38 364.741 253.437 364.646C257.269 358.829 264.948 364.01 266.301 360.565C267.215 358.248 268.391 356.703 269.063 355.937C269.078 355.951 269.099 355.951 269.12 355.958C270.438 356.423 271.649 356.874 272.726 357.291C274.185 357.865 275.396 358.357 276.317 358.747Z" fill="#374866"/>
<path d="M275.424 362.704C275.424 362.711 275.424 362.711 275.417 362.718C274.624 363.976 273.675 364.981 273.576 365.069C272.102 366.587 270.516 367.366 268.837 367.892C267.972 368.166 267.08 368.371 266.166 368.576C264.501 368.945 263.191 368.993 262.589 369.034C255.725 369.478 252.254 369.67 250.504 368.166C249.42 367.236 249.243 366.553 248.23 366.225C246.785 365.753 245.9 367.298 243.442 368.241C242.351 368.658 241.366 368.733 239.432 368.856C235.614 369.102 231.824 368.801 228.814 368.398C228.516 367.756 227.333 365.063 228.028 362.123C228.035 362.082 228.042 362.048 228.056 362.007C228.091 361.85 228.141 361.7 228.183 361.542C228.212 361.447 228.247 361.344 228.283 361.248C228.283 361.242 228.283 361.235 228.29 361.228C228.297 361.207 228.304 361.194 228.304 361.173C228.615 360.353 229.026 359.711 229.395 359.239C230.627 359.341 232.37 359.505 234.459 359.758C240.367 360.476 243.321 360.838 246.665 361.918C250.547 363.176 250.837 363.989 255.392 365.254C257.46 365.828 259.21 366.163 260.988 366.341C263.658 366.607 265.975 366.778 268.525 365.691C271.521 364.413 274.27 361.59 273.809 359.922C273.526 358.89 272.01 358.248 272.194 357.653C272.216 357.571 272.308 357.455 272.697 357.305C273.746 356.908 275.68 357.482 276.282 358.754C276.87 359.902 276.232 361.433 275.424 362.704Z" fill="#374866"/>
<path d="M247.508 349.191C247.529 349.663 247.21 350.052 246.792 350.059C246.374 350.066 246.02 349.683 245.999 349.212C245.978 348.74 246.297 348.35 246.715 348.343C247.132 348.337 247.487 348.719 247.508 349.191Z" fill="white"/>
<path d="M262.701 353.866C261.809 356.04 260.555 356.054 260.555 356.054C244.985 346.498 243.908 347.373 243.908 347.373L243.915 347.352C244.057 346.525 244.326 345.411 244.886 344.208C245.495 342.882 246.217 341.939 246.77 341.33C248.038 343.196 249.788 345.425 252.097 347.564C252.097 347.564 254.952 350.203 257.884 351.823C258.118 351.952 258.352 352.076 258.352 352.076C258.841 352.328 259.294 352.547 259.726 352.739C260.243 352.964 260.725 353.169 261.214 353.354C261.702 353.531 262.184 353.702 262.701 353.866Z" fill="#374866"/>
<path d="M247.26 349.191C247.274 349.505 247.061 349.765 246.778 349.765C246.502 349.765 246.261 349.512 246.247 349.198C246.233 348.883 246.445 348.624 246.728 348.624C247.005 348.624 247.246 348.877 247.26 349.191Z" fill="#02102D"/>
<path d="M252.736 353.135C252.758 353.607 252.439 353.996 252.021 354.003C251.603 354.01 251.249 353.627 251.228 353.156C251.206 352.684 251.525 352.294 251.943 352.287C252.354 352.281 252.715 352.663 252.736 353.135Z" fill="white"/>
<path d="M252.48 353.142C252.495 353.456 252.282 353.716 251.999 353.716C251.722 353.716 251.482 353.463 251.467 353.149C251.453 352.834 251.666 352.575 251.949 352.575C252.225 352.568 252.466 352.827 252.48 353.142Z" fill="#02102D"/>
<path d="M257.879 355.37C257.9 355.842 257.581 356.231 257.164 356.238C256.746 356.245 256.391 355.862 256.37 355.391C256.349 354.919 256.668 354.529 257.086 354.523C257.503 354.516 257.858 354.898 257.879 355.37Z" fill="white"/>
<path d="M257.623 355.37C257.637 355.685 257.425 355.944 257.141 355.944C256.865 355.944 256.624 355.691 256.61 355.377C256.596 355.063 256.808 354.803 257.092 354.803C257.375 354.803 257.609 355.056 257.623 355.37Z" fill="#02102D"/>
<path d="M246.658 349.628C246.573 349.635 246.495 349.594 246.439 349.519C246.375 349.43 246.361 349.314 246.403 349.218C246.857 348.07 248.712 344.317 248.79 344.16C248.854 344.024 249.01 343.983 249.13 344.065C249.251 344.147 249.3 344.324 249.23 344.454C249.215 344.488 247.756 347.434 247.097 348.924C247.246 348.877 247.395 348.829 247.544 348.774C247.912 348.637 248.33 348.439 248.748 348.207C249.499 347.783 250.335 347.188 251.156 346.491C251.263 346.395 251.426 346.43 251.511 346.553C251.596 346.682 251.581 346.86 251.468 346.949C250.625 347.667 249.768 348.275 248.989 348.713C248.55 348.959 248.11 349.17 247.721 349.314C247.388 349.437 247.041 349.54 246.694 349.622C246.679 349.628 246.672 349.628 246.658 349.628Z" fill="#02102D"/>
<path d="M252.048 353.333L251.928 353.203C250.802 352 251.39 347.633 251.46 347.14C251.482 346.983 251.609 346.881 251.751 346.915C251.885 346.949 251.985 347.099 251.956 347.25C251.786 348.446 251.51 351.624 252.155 352.65C252.424 352.513 252.686 352.356 252.934 352.171C253.685 351.618 254.301 350.872 254.769 349.957C254.839 349.82 254.988 349.779 255.116 349.868C255.236 349.95 255.279 350.127 255.215 350.264C254.705 351.255 254.039 352.062 253.224 352.663C252.906 352.903 252.558 353.108 252.204 353.272L252.048 353.333Z" fill="#02102D"/>
<path d="M257.205 355.726C256.979 355.746 256.759 355.644 256.575 355.445C255.434 354.229 255.711 350.743 255.725 350.599C255.739 350.442 255.86 350.333 256.001 350.353C256.143 350.374 256.242 350.517 256.228 350.674C256.15 351.604 256.122 354.194 256.915 355.035C257.035 355.165 257.127 355.165 257.198 355.145C257.786 355.008 258.551 353.292 258.898 352.24C258.948 352.096 259.09 352.028 259.224 352.089C259.352 352.151 259.423 352.315 259.373 352.465C259.274 352.773 258.353 355.466 257.319 355.705C257.276 355.719 257.241 355.719 257.205 355.726Z" fill="#02102D"/>
<path d="M184.4 202.814C184.4 202.814 184.117 212.055 188.7 219.225C193.283 226.402 221.887 270.339 221.887 270.339L226.505 343.32C233.405 344.509 239.561 344.803 243.315 344.687C252.743 344.406 259.367 343.135 259.367 343.135C259.367 343.135 255.761 263.935 252.814 258.979C249.867 254.03 217.254 172.574 217.254 172.574C217.254 172.574 205.793 167.284 194.423 167.933L184.4 202.814Z" fill="#FBAE2C"/>
<path d="M191.143 222.861L207.513 248.849L210.842 214.96L191.143 222.861Z" fill="black"/>
<path d="M173.108 355.985C177.131 357.961 174.935 365.719 170.423 365.35C170.31 365.343 170.203 365.329 170.104 365.309C160.577 363.634 160.895 361.611 156.093 361.987C151.453 362.349 149.42 364.372 144.56 363.484C142.258 363.06 140.431 362.178 139.24 361.494C139.24 361.488 139.233 361.488 139.233 361.488C139.233 361.488 139.021 360.278 139.113 359.553C139.751 354.734 140.289 351.597 141.146 349.075C141.614 347.687 140.969 347.154 141.918 344.406C142.017 344.126 142.407 342.971 142.882 341.303C142.981 340.954 143.08 340.585 143.186 340.196C143.37 339.519 143.562 338.781 143.739 338.002C143.831 337.639 143.916 337.27 143.994 336.887C144.008 336.833 144.015 336.778 144.029 336.723C145.332 330.613 145.566 325.008 145.573 321.447C149.788 323.326 155.136 324.898 159.344 326.778C158.055 331.501 157.686 335.261 157.665 338.036C157.658 338.446 157.665 338.829 157.679 339.191C157.694 339.881 157.729 340.503 157.779 341.043C157.793 341.201 157.807 341.351 157.828 341.494C157.878 341.973 157.934 342.342 157.998 342.65C158.083 343.019 158.119 343.326 158.274 343.566C162.177 349.683 168.064 353.504 173.108 355.985Z" fill="#E78D73"/>
<path d="M186.127 360.339C185.915 361.44 185.561 362.848 184.93 364.215C184.93 364.222 184.93 364.222 184.923 364.229C184.031 365.425 183.011 366.354 182.904 366.443C181.318 367.851 179.674 368.514 177.96 368.918C176.182 368.849 173.618 368.412 169.764 367.352C166.414 366.43 164.253 365.575 162.659 364.851C159.564 363.436 158.629 362.513 155.299 362.445C153.599 362.417 152.225 362.629 150.943 362.855C148.541 363.279 146.459 363.771 143.186 362.841C140.799 362.158 138.936 361.057 137.732 360.216C137.732 360.209 137.725 360.209 137.725 360.209C137.739 360.175 137.753 360.141 137.767 360.1C137.859 359.868 137.965 359.628 138.058 359.362L138.065 359.355V359.341C138.072 359.328 138.079 359.307 138.086 359.287C138.582 357.756 139.063 355.985 139.439 354.01C139.843 351.911 140.048 349.95 140.154 348.173C140.204 347.216 140.225 346.307 140.225 345.466C143.399 346.143 145.148 347.523 146.168 348.699C146.806 349.43 147.606 350.606 149.115 351.173C149.561 351.337 150.603 351.734 151.63 351.33C152.983 350.797 153.429 349.239 154.272 347.482C154.4 347.222 154.534 346.942 154.697 346.655L154.704 346.641C155.398 345.35 156.433 343.784 157.977 342.151C158.466 342.834 159.047 343.607 159.734 344.434C159.996 344.748 160.272 345.076 160.562 345.404C160.931 345.828 161.327 346.252 161.745 346.689C161.781 346.724 161.816 346.771 161.859 346.806C162.475 347.441 163.077 348.015 163.658 348.542C164.451 349.253 165.202 349.875 165.875 350.394C166.329 350.736 166.739 351.043 167.108 351.31C167.15 351.337 167.193 351.365 167.228 351.399C167.639 351.679 168 351.925 168.277 352.103C168.461 352.226 168.61 352.315 168.723 352.39C169.19 352.677 169.622 352.93 170.04 353.156C170.536 353.422 171.004 353.654 171.478 353.873C171.946 354.085 172.413 354.283 172.916 354.488C174.439 355.11 176.253 355.773 179.108 357.017C179.122 357.031 179.143 357.038 179.164 357.045C180.439 357.605 181.615 358.138 182.656 358.637C184.066 359.307 185.235 359.888 186.127 360.339Z" fill="#3B1224"/>
<path d="M186.128 360.339C185.916 361.44 185.562 362.848 184.931 364.215C184.931 364.222 184.931 364.222 184.924 364.229C184.032 365.425 183.012 366.354 182.905 366.443C181.319 367.851 179.675 368.514 177.961 368.918C176.183 368.849 173.619 368.412 169.765 367.352C166.415 366.43 164.254 365.575 162.66 364.851C162.724 364.755 162.795 364.673 162.859 364.577C167.13 359.054 174.384 364.775 176.006 361.44C177.097 359.191 178.386 357.735 179.116 357.024C179.13 357.038 179.151 357.045 179.172 357.052C180.447 357.612 181.623 358.145 182.665 358.644C184.067 359.307 185.236 359.888 186.128 360.339Z" fill="#374866"/>
<path d="M184.924 364.222C184.924 364.229 184.924 364.229 184.917 364.235C184.024 365.432 183.004 366.361 182.898 366.45C181.311 367.858 179.668 368.521 177.953 368.924C177.068 369.136 176.168 369.28 175.24 369.417C173.547 369.67 172.237 369.622 171.642 369.615C164.763 369.56 161.285 369.499 159.663 367.879C158.657 366.874 158.53 366.177 157.545 365.78C156.143 365.206 155.137 366.683 152.615 367.448C151.496 367.783 150.504 367.79 148.57 367.769C144.745 367.742 140.991 367.161 138.022 366.546C137.775 365.883 136.804 363.114 137.725 360.23C137.739 360.189 137.746 360.155 137.76 360.121C137.81 359.97 137.867 359.82 137.923 359.67C137.959 359.574 138.008 359.478 138.051 359.382C138.051 359.376 138.051 359.369 138.058 359.369C138.065 359.355 138.072 359.335 138.079 359.314C138.455 358.521 138.908 357.906 139.319 357.469C140.544 357.66 142.266 357.947 144.334 358.35C150.171 359.499 153.089 360.066 156.341 361.385C160.117 362.916 160.343 363.75 164.785 365.343C166.804 366.06 168.525 366.525 170.282 366.826C172.924 367.284 175.226 367.619 177.847 366.724C180.935 365.664 183.896 363.046 183.571 361.351C183.372 360.305 181.906 359.553 182.133 358.972C182.161 358.89 182.26 358.781 182.664 358.665C183.741 358.343 185.618 359.061 186.121 360.367C186.581 361.536 185.83 363.019 184.924 364.222Z" fill="#374866"/>
<path d="M158.14 348.726C158.126 349.198 157.772 349.56 157.361 349.54C156.943 349.512 156.617 349.109 156.631 348.637C156.645 348.166 157 347.803 157.411 347.824C157.828 347.851 158.154 348.255 158.14 348.726Z" fill="white"/>
<path d="M172.923 354.488C171.867 356.594 170.614 356.518 170.614 356.518C155.83 345.869 154.689 346.662 154.689 346.662L154.697 346.648C154.902 345.835 155.256 344.741 155.908 343.586C156.616 342.308 157.417 341.419 158.012 340.852C159.131 342.807 160.704 345.151 162.843 347.455C162.843 347.455 165.485 350.298 168.283 352.117C168.51 352.26 168.729 352.404 168.729 352.404C169.197 352.691 169.629 352.944 170.047 353.169C170.543 353.436 171.01 353.668 171.485 353.887C171.952 354.085 172.42 354.29 172.923 354.488Z" fill="#374866"/>
<path d="M157.885 348.713C157.878 349.027 157.645 349.273 157.361 349.253C157.085 349.232 156.865 348.965 156.88 348.651C156.887 348.337 157.12 348.091 157.404 348.111C157.68 348.132 157.893 348.398 157.885 348.713Z" fill="#02102D"/>
<path d="M163.042 353.039C163.028 353.511 162.674 353.873 162.263 353.853C161.845 353.825 161.519 353.422 161.534 352.95C161.548 352.479 161.902 352.117 162.313 352.137C162.731 352.164 163.057 352.568 163.042 353.039Z" fill="white"/>
<path d="M162.788 353.026C162.781 353.34 162.547 353.586 162.264 353.566C161.987 353.545 161.768 353.279 161.782 352.964C161.789 352.65 162.023 352.404 162.306 352.424C162.582 352.438 162.802 352.711 162.788 353.026Z" fill="#02102D"/>
<path d="M168.001 355.644C167.987 356.115 167.633 356.477 167.222 356.457C166.804 356.43 166.478 356.026 166.493 355.555C166.507 355.083 166.861 354.721 167.272 354.741C167.69 354.762 168.016 355.165 168.001 355.644Z" fill="white"/>
<path d="M167.745 355.623C167.738 355.937 167.504 356.184 167.221 356.163C166.944 356.142 166.725 355.876 166.739 355.561C166.753 355.247 166.98 355.001 167.263 355.022C167.539 355.042 167.759 355.309 167.745 355.623Z" fill="#02102D"/>
<path d="M157.254 349.102C157.169 349.102 157.091 349.054 157.041 348.979C156.985 348.89 156.978 348.774 157.027 348.678C157.566 347.571 159.705 343.962 159.797 343.805C159.875 343.675 160.031 343.641 160.144 343.73C160.257 343.818 160.293 343.996 160.215 344.126C160.194 344.16 158.515 346.99 157.743 348.432C157.899 348.398 158.047 348.357 158.196 348.316C158.572 348.207 159.004 348.043 159.436 347.838C160.222 347.469 161.093 346.935 161.972 346.3C162.085 346.211 162.241 346.252 162.319 346.389C162.397 346.525 162.361 346.696 162.248 346.785C161.348 347.441 160.449 347.988 159.634 348.364C159.181 348.576 158.727 348.754 158.324 348.87C157.984 348.972 157.629 349.047 157.282 349.102C157.275 349.102 157.268 349.102 157.254 349.102Z" fill="#02102D"/>
<path d="M162.342 353.19L162.228 353.053C161.194 351.768 162.122 347.455 162.228 346.97C162.264 346.819 162.398 346.724 162.533 346.771C162.668 346.812 162.753 346.97 162.717 347.12C162.455 348.302 161.931 351.447 162.498 352.52C162.774 352.404 163.05 352.26 163.312 352.103C164.106 351.604 164.778 350.907 165.317 350.025C165.395 349.895 165.551 349.868 165.664 349.957C165.777 350.045 165.806 350.23 165.728 350.353C165.147 351.303 164.417 352.062 163.56 352.602C163.22 352.814 162.859 352.991 162.49 353.135L162.342 353.19Z" fill="#02102D"/>
<path d="M167.299 355.944C167.073 355.944 166.86 355.835 166.69 355.616C165.649 354.318 166.194 350.866 166.223 350.722C166.251 350.565 166.378 350.469 166.513 350.497C166.648 350.531 166.74 350.681 166.718 350.832C166.57 351.747 166.336 354.331 167.058 355.233C167.172 355.37 167.264 355.377 167.335 355.363C167.93 355.268 168.829 353.613 169.261 352.595C169.318 352.451 169.474 352.397 169.594 352.465C169.722 352.534 169.771 352.704 169.715 352.848C169.587 353.149 168.461 355.767 167.413 355.931C167.37 355.944 167.335 355.944 167.299 355.944Z" fill="#02102D"/>
<path d="M233.743 344.003C233.559 344.003 233.403 343.866 233.389 343.689L227.226 267.961L203.057 227.837C202.957 227.673 203.014 227.468 203.184 227.373C203.354 227.277 203.567 227.332 203.666 227.496L227.913 267.756L227.92 267.831L234.09 343.634C234.104 343.825 233.963 343.989 233.764 344.003C233.757 344.003 233.75 344.003 233.743 344.003Z" fill="black"/>
<path d="M174.524 163.948C174.524 163.948 168.588 173.34 166.336 196.983C165.599 204.7 166.945 209.676 163.665 221.829C152.423 263.463 136.414 338.863 136.414 338.863C136.414 338.863 148.598 345.616 171.294 346.293C172.173 346.518 224.401 177.297 224.401 177.297C224.401 177.297 195.01 159.601 174.524 163.948Z" fill="#FBAE2C"/>
<path d="M225.81 171.276C227.262 163.476 229.65 155.903 232.271 148.405C233.588 144.625 236.429 136.634 239.028 129.054C242.818 118.022 237.505 105.992 226.639 100.968C223.147 99.3547 220.129 98.1586 218.677 97.8031C213.556 96.5523 208.257 95.8824 204.014 96.3951C203.823 96.4156 203.638 96.4429 203.454 96.4634C198.375 97.1264 192.432 103.941 188.713 113.647C182.777 129.163 174.135 169.198 174.135 169.198L220.986 185.534C220.993 185.534 225.222 174.44 225.81 171.276Z" fill="white"/>
<path d="M235.685 138.869C228.58 136.593 221.475 134.317 214.37 132.041C205.232 143.504 194.925 148.699 189.91 145.951C186.453 144.057 185.369 138.302 184.845 135.507C183.988 130.968 184.597 127.072 185.299 124.454L171.457 170.524L221.192 189.553C221.192 189.546 234.53 142.041 235.685 138.869Z" fill="#FBAE2C"/>
<path d="M241.912 95.9781L237.662 102.082L236.741 103.408C235.983 112.478 233.192 112.684 230.784 112.561C227.157 112.376 223.743 108.979 218.508 98.6917L226.335 86.0806L230.352 84.365L230.394 84.3513L241.912 95.9781Z" fill="#E78D73"/>
<path d="M241.792 96.6822L238.115 101.433C237.372 100.824 236.692 100.154 236.082 99.4368C233.348 96.1969 232.208 92.0342 232.229 87.9193L232.264 87.9057L241.792 96.6822Z" fill="#844B42"/>
<path d="M252.977 99.8811C251.164 102.513 243.117 99.4915 235.119 92.6698C227.129 85.8482 228.957 75.4928 231.181 71.3574C233.568 66.9418 245.483 57.933 255.343 69.5051C255.343 69.5051 260.408 86.3335 259.693 88.4388C258.97 90.5441 255.117 89.1497 255.117 89.1497C255.117 89.1497 255.067 90.4962 254.876 92.2734C254.805 92.9296 254.72 93.6473 254.614 94.3787C254.295 96.5044 253.778 98.7259 252.977 99.8811Z" fill="#E78D73"/>
<path d="M254.685 80.7355C254.451 81.6651 253.849 82.3281 253.339 82.2051C252.829 82.0889 252.61 81.2344 252.843 80.298C253.077 79.3616 253.679 78.7054 254.189 78.8284C254.699 78.9515 254.919 79.8059 254.685 80.7355Z" fill="black"/>
<path d="M249.464 78.5003C249.194 78.5003 248.939 78.3568 248.819 78.1107C248.649 77.7689 248.805 77.3588 249.159 77.2016C249.967 76.8393 250.81 76.5659 251.674 76.4019C253.338 76.0875 255.109 76.1626 256.802 76.6206C257.178 76.7231 257.397 77.0991 257.291 77.4613C257.185 77.8236 256.795 78.0355 256.42 77.933C254.925 77.5297 253.423 77.4614 251.95 77.7416C251.199 77.8851 250.462 78.1175 249.761 78.4388C249.669 78.4798 249.563 78.5003 249.464 78.5003Z" fill="#250705"/>
<path d="M254.621 94.3855C253.998 94.283 252.956 93.9754 252.043 93.1688C251.03 92.2802 250.881 91.6924 250.768 91.2139L254.89 92.2802C254.812 92.9364 254.734 93.6541 254.621 94.3855Z" fill="white"/>
<path d="M243.953 71.5488C244.229 72.9774 243.797 74.5427 242.848 75.5748C241.481 77.0512 239.355 77.2905 237.436 77.1606C238.796 78.3636 238.895 80.6944 238.102 82.3896C237.308 84.0916 235.842 85.2877 234.369 86.3199C233.667 86.812 232.938 87.2905 232.13 87.5366C231.323 87.7758 230.416 87.7621 229.7 87.3042C228.978 86.8462 228.51 85.8824 228.73 85.0007C227.504 85.8756 225.797 85.8756 224.586 84.987C223.375 84.0984 222.716 82.3964 222.992 80.838C223.276 79.2795 224.473 77.9603 225.911 77.6322C225.422 75.7799 224.983 73.8797 225.018 71.9521C225.075 69.0608 226.272 66.2105 228.241 64.2556C230.218 62.3007 232.938 61.2754 235.608 61.4736C237.238 61.5967 238.881 62.1982 240.064 63.408C240.949 64.3103 241.544 65.5817 241.622 66.9009C241.644 67.229 241.622 67.557 241.58 67.8783C241.551 68.1175 241.53 68.3158 241.736 68.4661C241.984 68.637 242.239 68.7737 242.472 68.9719C242.706 69.1702 242.912 69.3889 243.103 69.635C243.507 70.1955 243.811 70.8516 243.953 71.5488Z" fill="#2A0113"/>
<path d="M242.075 55.7115C240.595 55.6842 239.214 56.3882 237.91 57.0786C236.975 57.5775 236.019 58.0902 235.282 58.8489C234.546 59.6076 234.035 60.6876 234.198 61.7402C234.361 62.7997 235.346 63.7361 236.394 63.6062C234.857 64.4196 234.064 66.3472 234.326 68.0834C234.588 69.8195 235.764 71.3301 237.237 72.2597C238.711 73.1893 240.46 73.5926 242.196 73.7156C246.992 74.0506 250.654 73.2782 254.125 69.9289C254.189 71.6104 255.563 72.4853 257.107 73.1278C258.644 73.7635 261.506 73.1141 262.717 71.9658C263.27 71.4395 263.681 70.7696 263.978 70.0587C265.133 67.2631 264.325 63.7566 262.059 61.7676C259.799 59.7717 256.25 59.4436 253.664 60.9747C252.758 58.719 250.675 56.9829 248.309 56.5112C247.813 56.4155 247.289 56.3677 246.793 56.5044C246.552 56.5659 246.326 56.6753 246.134 56.8325C245.95 56.9897 245.816 57.1948 245.603 57.3178C245.136 57.5844 244.902 57.1811 244.633 56.8667C244.335 56.5249 243.967 56.2583 243.563 56.0669C243.103 55.8482 242.585 55.7183 242.075 55.7115Z" fill="#2A0113"/>
<path d="M235.162 77.2016C234.992 77.2016 234.843 77.0854 234.815 76.9214C234.779 76.7368 234.907 76.5591 235.098 76.5249C237.039 76.19 238.611 75.5065 239.773 74.5017C241.112 73.3465 241.856 71.6924 241.707 70.1886C241.686 70.0041 241.834 69.8332 242.026 69.8195C242.217 69.799 242.394 69.9426 242.408 70.1271C242.571 71.8701 241.764 73.6951 240.241 75.0143C238.98 76.1011 237.287 76.8394 235.218 77.2016C235.204 77.2016 235.183 77.2016 235.162 77.2016Z" fill="#3B1224"/>
<path d="M240.928 83.1483C240.928 83.1483 242.465 77.2221 238.371 75.7252C234.914 74.4607 232.031 79.5188 234.276 82.4579C236.189 84.9597 236.168 86.5796 236.168 86.5796L240.928 83.1483Z" fill="#E78D73"/>
<path d="M236.089 81.7334C235.749 81.7334 235.444 81.4942 235.388 81.1524C235.062 79.1223 235.848 77.3383 237.251 76.9145C237.619 76.7983 238.228 76.7368 239.015 77.0718C239.369 77.229 239.532 77.6323 239.376 77.974C239.213 78.3158 238.795 78.473 238.441 78.3226C238.15 78.1927 237.874 78.1586 237.683 78.2201C237.074 78.4046 236.564 79.4983 236.797 80.9474C236.854 81.3233 236.592 81.6719 236.209 81.7266C236.167 81.7266 236.124 81.7334 236.089 81.7334Z" fill="#844B42"/>
<path d="M258.574 70.2433C258.085 70.2433 257.568 70.1681 257.037 70.0109C256.406 69.8332 255.811 69.5666 255.266 69.218C255.103 69.1155 255.053 68.9036 255.16 68.7464C255.266 68.5892 255.486 68.5481 255.648 68.6438C256.137 68.9514 256.676 69.1907 257.235 69.3547C257.894 69.5461 258.517 69.6008 259.077 69.5188C259.707 69.4299 260.26 69.1633 260.642 68.7737C261.103 68.3021 261.351 67.5981 261.322 66.8462C261.301 66.1968 261.096 65.5065 260.699 64.7409C260.614 64.57 260.678 64.365 260.855 64.2829C261.025 64.2009 261.245 64.2624 261.33 64.4333C261.776 65.2946 262.01 66.0738 262.031 66.8257C262.059 67.7621 261.74 68.6438 261.152 69.2454C260.664 69.7512 259.955 70.0861 259.169 70.1955C258.985 70.2296 258.779 70.2433 258.574 70.2433Z" fill="#3B1224"/>
<path d="M238.718 63.4285C238.605 63.4285 238.498 63.3739 238.427 63.2782C237.769 62.3622 237.726 61.1114 238.307 60.1476C238.888 59.1907 240.05 58.6165 241.197 58.7259C242.536 58.8489 243.577 59.8127 244.243 60.5304C244.371 60.6739 244.364 60.8858 244.215 61.0157C244.073 61.1387 243.847 61.1319 243.712 60.9883C243.124 60.3595 242.217 59.5051 241.126 59.4026C240.262 59.3274 239.355 59.7717 238.916 60.4894C238.477 61.2139 238.52 62.1982 239.008 62.8817C239.122 63.0389 239.079 63.2508 238.916 63.3602C238.86 63.408 238.789 63.4285 238.718 63.4285Z" fill="#3B1224"/>
<path d="M230.834 85.4313C230.564 85.4313 230.295 85.3903 230.04 85.3014C229.452 85.0964 228.964 84.6452 228.701 84.0984C228.142 84.4538 227.441 84.5974 226.789 84.4675C225.946 84.2966 225.223 83.6815 224.94 82.8954C224.657 82.1093 224.834 81.1934 225.386 80.5577C225.514 80.4142 225.733 80.3937 225.882 80.5167C226.031 80.6398 226.052 80.8517 225.925 80.9952C225.528 81.4532 225.4 82.1093 225.606 82.6698C225.811 83.2303 226.328 83.6746 226.931 83.7977C227.533 83.9207 228.198 83.7156 228.616 83.2782C228.708 83.1825 228.843 83.1483 228.978 83.1825C229.105 83.2167 229.204 83.3192 229.226 83.4491C229.325 83.989 229.757 84.4744 230.288 84.6589C230.819 84.8435 231.471 84.7409 231.903 84.3923C232.052 84.2693 232.279 84.2966 232.399 84.4402C232.527 84.5837 232.505 84.8025 232.35 84.9187C231.932 85.2536 231.386 85.4313 230.834 85.4313Z" fill="#3B1224"/>
<path d="M220.312 267.995L234.14 267.325L222.083 273.627L221.885 270.339L220.312 267.995Z" fill="black"/>
<path d="M219.195 133.969L214.371 132.041C214.371 132.041 219.188 116.45 217.36 108.965C215.108 99.7307 208.534 97.0718 203.455 96.4634C203.639 96.4429 203.823 96.4156 204.015 96.3951C208.258 95.8824 210.935 95.944 216.057 97.2016C218.791 99.8947 220.633 101.672 222.701 110.366C224.437 117.646 219.195 133.969 219.195 133.969Z" fill="#FBAE2C"/>
<path d="M223.364 180.865C223.357 180.865 223.343 180.865 223.336 180.865C214.467 180.141 205.542 178.863 196.815 177.072C188.399 175.349 180.005 173.114 171.866 170.428C171.682 170.366 171.583 170.175 171.646 169.997C171.71 169.82 171.908 169.724 172.093 169.785C180.203 172.458 188.569 174.686 196.956 176.402C205.655 178.186 214.552 179.457 223.393 180.182C223.584 180.196 223.733 180.366 223.719 180.551C223.697 180.729 223.541 180.865 223.364 180.865Z" fill="black"/>
<path d="M222.083 186.778C222.076 186.778 222.062 186.778 222.055 186.778C213.186 186.053 204.268 184.775 195.533 182.984C187.118 181.262 178.724 179.027 170.585 176.341C170.4 176.279 170.301 176.088 170.365 175.91C170.429 175.732 170.627 175.636 170.811 175.698C178.922 178.371 187.288 180.599 195.675 182.315C204.381 184.099 213.271 185.37 222.111 186.094C222.303 186.108 222.451 186.279 222.437 186.464C222.423 186.641 222.267 186.778 222.083 186.778Z" fill="black"/>
<path d="M209.332 185.165L207.639 184.885L208.722 178.651L210.416 178.931L209.332 185.165Z" fill="black"/>
<path d="M142.881 341.659C142.853 341.659 142.824 341.659 142.796 341.645C142.605 341.597 142.491 341.413 142.541 341.228L186.651 173.996L195.555 145.985C195.612 145.807 195.81 145.705 195.994 145.759C196.179 145.814 196.285 146.006 196.228 146.183L187.331 174.181L143.228 341.399C143.178 341.549 143.037 341.659 142.881 341.659Z" fill="black"/>
<path d="M231.952 144.898L218.578 141.18L219.797 137.092L233.326 140.79L231.952 144.898ZM219.456 140.715L231.492 144.057L232.434 141.255L220.292 137.933L219.456 140.715Z" fill="black"/>
<path d="M216.814 134.748C215.716 134.748 214.83 133.873 214.83 132.793C214.83 131.713 215.723 130.838 216.814 130.838C217.904 130.838 218.797 131.713 218.797 132.793C218.797 133.873 217.911 134.748 216.814 134.748ZM216.814 131.528C216.112 131.528 215.538 132.096 215.538 132.8C215.538 133.504 216.112 134.071 216.814 134.071C217.515 134.071 218.089 133.504 218.089 132.8C218.089 132.096 217.522 131.528 216.814 131.528Z" fill="black"/>
<path d="M249.846 171.501C249.846 171.501 260.606 170.073 264.87 170.278C269.135 170.483 269.9 172.185 271.55 173.381C273.201 174.57 279.555 175.712 277.288 178.104C275.028 180.496 267.512 177.079 265.876 175.609C264.247 174.133 251.227 177.96 249.846 171.501Z" fill="#E78D73"/>
<path d="M302.937 176.293L289.641 172.93L291.886 164.652L305.182 168.015C305.629 168.125 305.891 168.562 305.777 168.993L303.95 175.719C303.836 176.149 303.383 176.409 302.937 176.293Z" fill="#02102B"/>
<path d="M319.737 175.165L303.312 171.012L302.903 172.519L319.327 176.673L319.737 175.165Z" fill="#AEACB1"/>
<path d="M277.87 171.299L269.586 169.204L264.707 187.168L272.991 189.263L277.87 171.299Z" fill="#02102B"/>
<path d="M294.988 177.701L266.059 170.387L269.841 156.47L298.771 163.784C300.556 164.235 301.626 165.999 301.158 167.728L299.076 175.404C298.601 177.12 296.773 178.152 294.988 177.701Z" fill="#02102B"/>
<path d="M285.554 175.315L254.095 167.359C253.273 167.154 252.784 166.34 252.997 165.548L256 154.495C256.213 153.702 257.056 153.23 257.878 153.435L289.336 161.392L285.554 175.315Z" fill="#FBAE2C"/>
<path d="M263.395 164.294C264.997 163.939 265.997 162.399 265.629 160.854C265.261 159.309 263.665 158.344 262.064 158.698C260.462 159.053 259.462 160.594 259.83 162.139C260.198 163.684 261.794 164.649 263.395 164.294Z" fill="#02102B"/>
<path d="M276.804 199.464L256.538 194.338C255.73 194.133 255.242 193.333 255.454 192.554L257.041 186.696C257.253 185.917 258.082 185.445 258.89 185.65L279.156 190.777C279.964 190.982 280.452 191.781 280.24 192.561L278.653 198.418C278.441 199.204 277.612 199.669 276.804 199.464Z" fill="#02102B"/>
<path d="M193.035 115.677L186.143 158.911C186.306 164.556 190.52 169.225 195.861 170.073C201.939 171.036 208.194 166.839 209.391 160.435C211.863 143.873 214.392 109.505 214.378 109.457C214.059 108.446 213.918 102.096 207.897 100.653C201.28 99.0608 195.153 104.379 193.035 115.677Z" fill="#E78D73"/>
<path d="M193.544 169.738L248.712 187.42L258.792 172.034L208.412 150.681C199.409 145.985 189.655 149.109 186.793 154.98C186.226 156.142 185.936 157.414 185.879 158.74C185.688 163.586 188.876 167.954 193.544 169.738Z" fill="#E78D73"/>
<path d="M241.098 178.993C241.098 178.993 246.531 187.516 249.775 189.143C253.02 190.77 259.019 192.848 261.91 192.807C264.8 192.766 264.623 191.925 264.623 191.925C264.623 191.925 268.434 192.684 269.461 190.804C269.737 189.82 269.801 189.574 269.801 189.574C269.801 189.574 274.108 190.442 274.703 188.207C275.036 186.976 274.101 185.944 274.101 185.944C275.999 183.969 275.879 182.649 275.269 181.768C273.69 179.485 267.782 178.589 267.591 176.881C267.541 176.423 267.18 175.595 267.095 175.096C266.918 174.099 265.82 173.873 262.214 172.588C259.593 171.658 255.598 170.428 250.328 169.512C247.246 172.67 244.172 175.828 241.098 178.993Z" fill="#E78D73"/>
<path d="M194.926 103.552C193.502 105.52 192.63 107.803 192.198 110.168C190.357 120.401 182.062 159.17 185.001 164.399C190.321 173.866 243.208 188.364 243.208 188.364L251.9 167.872L213.145 151.829L215.667 108.835C214.774 102.636 212.543 99.4094 206.21 98.5072C201.287 97.8031 197.554 99.9152 194.926 103.552Z" fill="white"/>
<path d="M264.324 192.13C264.303 192.13 264.281 192.13 264.26 192.123C262.78 191.85 261.299 191.487 259.861 191.043C259.018 190.783 258.182 190.49 257.368 190.175C257.184 190.107 257.099 189.909 257.169 189.731C257.24 189.553 257.453 189.471 257.63 189.539C258.423 189.847 259.252 190.134 260.074 190.394C261.483 190.831 262.935 191.187 264.388 191.453C264.579 191.487 264.706 191.665 264.671 191.85C264.643 192.021 264.494 192.13 264.324 192.13Z" fill="#844B42"/>
<path d="M269.73 189.915C269.709 189.915 269.688 189.915 269.666 189.909C268.179 189.635 266.698 189.273 265.267 188.829C264.432 188.569 263.596 188.275 262.774 187.96C262.59 187.892 262.505 187.694 262.576 187.516C262.646 187.338 262.859 187.256 263.036 187.325C263.844 187.639 264.665 187.926 265.48 188.179C266.883 188.617 268.335 188.972 269.794 189.239C269.985 189.273 270.113 189.451 270.077 189.635C270.042 189.799 269.893 189.915 269.73 189.915Z" fill="#844B42"/>
<path d="M274.007 186.32C273.986 186.32 273.958 186.32 273.936 186.313C272.343 186.012 270.749 185.643 269.197 185.226C268.291 184.98 267.377 184.714 266.491 184.433C266.307 184.372 266.201 184.181 266.265 184.003C266.328 183.825 266.527 183.723 266.711 183.784C267.589 184.064 268.489 184.324 269.389 184.57C270.926 184.987 272.498 185.349 274.071 185.65C274.262 185.684 274.39 185.869 274.347 186.053C274.319 186.204 274.17 186.32 274.007 186.32Z" fill="#844B42"/>
<path d="M202.818 155.09C202.719 155.09 202.619 155.049 202.549 154.967C202.421 154.823 202.442 154.604 202.591 154.488C206.962 150.941 213.195 151.33 213.465 151.351C213.663 151.364 213.805 151.528 213.79 151.713C213.776 151.904 213.606 152.041 213.415 152.027C213.351 152.021 207.203 151.638 203.052 155.008C202.981 155.062 202.896 155.09 202.818 155.09Z" fill="black"/>
<path d="M241.997 187.106L225.931 182.021C225.747 181.959 225.64 181.768 225.704 181.59C225.768 181.412 225.966 181.31 226.15 181.371L241.586 186.258L246.792 173.798C246.863 173.62 247.076 173.538 247.253 173.606C247.437 173.675 247.522 173.88 247.451 174.051L241.997 187.106Z" fill="black"/>
<path d="M186.751 142.096C186.73 142.096 186.716 142.096 186.695 142.089C186.503 142.062 186.369 141.884 186.404 141.699L190.102 119.902C190.13 119.717 190.314 119.587 190.506 119.621C190.697 119.649 190.831 119.826 190.796 120.011L187.098 141.809C187.077 141.973 186.928 142.096 186.751 142.096Z" fill="black"/>
<path d="M214.384 129.389C214.377 129.389 214.37 129.389 214.363 129.389C214.165 129.375 214.016 129.218 214.03 129.027L215.178 108.302C215.192 108.111 215.362 107.967 215.553 107.981C215.752 107.995 215.9 108.152 215.886 108.343L214.739 129.068C214.732 129.252 214.576 129.389 214.384 129.389Z" fill="black"/>
<path d="M235.685 138.869C236.854 136.532 238.433 133.087 239.878 128.76C241.033 125.301 241.848 122.875 242.166 119.69C242.429 117.085 242.939 112.977 241.153 107.619L237.314 106.135C237.789 109.396 238.051 113.442 237.598 118.042C236.719 126.908 233.581 133.75 231.18 137.96L235.685 138.869Z" fill="#FBAE2C"/>
</g>
<mask id="mask5_246_762" style="mask-type:luminance" maskUnits="userSpaceOnUse" x="0" y="0" width="483" height="406">
<path d="M18.8595 249.068C42.5545 226.443 74.9978 237.263 95.4767 212.376C107.944 197.222 111.054 174.809 105.231 157.332C95.8947 129.293 66.2423 121.966 63.7701 91.4942C63.7701 91.4942 63.0618 82.7314 65.5977 73.6883C79.2338 25.1168 231.441 -28.4786 352.764 17.5638C368.581 23.5652 415.185 41.8769 447.876 85.0144C484.336 133.121 483.153 185.254 482.02 235.028C481.092 275.719 480.631 296.06 467.385 318.672C432.816 377.68 347.097 392.349 309.879 398.719C184.795 420.121 23.5985 386.956 2.8008 318.132C-2.88032 299.334 -1.03857 268.077 18.8595 249.068Z" fill="white"/>
</mask>
<g mask="url(#mask5_246_762)">
<path d="M117.592 296.122L117.273 291.747L109.913 279.731C108.32 277.134 104.841 276.265 102.15 277.803L89.1086 285.24C86.4167 286.778 85.5171 290.134 87.1109 292.732L94.5063 304.796L98.5086 306.997L117.592 296.122ZM91.2903 292.335C90.752 291.46 91.0566 290.332 91.9633 289.82L105.415 282.151C106.322 281.631 107.491 281.925 108.022 282.8L110.643 287.072C111.181 287.947 110.877 289.075 109.97 289.587L96.5181 297.257C95.6114 297.776 94.4426 297.482 93.9113 296.607L91.2903 292.335Z" fill="#374866"/>
<path d="M98.5645 306.976L128.011 355.035L134.868 351.05L117.57 296.204L98.5645 306.976Z" fill="#AEACB1"/>
<path d="M94.1167 322.492L81.6777 316.84L85.4604 309.102L97.8994 314.755C98.3102 314.946 98.4944 315.418 98.2961 315.821L95.2218 322.117C95.0305 322.506 94.5346 322.677 94.1167 322.492Z" fill="#02102B"/>
<path d="M110.901 324.36L95.541 317.375L94.8525 318.785L110.212 325.77L110.901 324.36Z" fill="#02102B"/>
<path d="M70.4698 313.161L62.7227 309.638L54.5179 326.438L62.2651 329.961L70.4698 313.161Z" fill="#02102B"/>
<path d="M86.0409 322.472L58.9883 310.168L65.3494 297.154L92.4021 309.458C94.0738 310.216 94.7893 312.144 94.003 313.757L90.4965 320.934C89.7032 322.54 87.7056 323.231 86.0409 322.472Z" fill="#02102B"/>
<path d="M77.2153 318.46L47.7968 305.083C47.0317 304.734 46.6988 303.853 47.0601 303.108L52.1037 292.773C52.4649 292.034 53.3787 291.713 54.1508 292.062L83.5694 305.438L77.2153 318.46Z" fill="#FBAE2C"/>
<path d="M60.0998 302.075C59.3986 303.511 57.6276 304.119 56.1471 303.449C54.6596 302.773 54.0291 301.064 54.7233 299.635C55.4246 298.2 57.1955 297.592 58.676 298.261C60.1636 298.931 60.8011 300.64 60.0998 302.075Z" fill="#02102B"/>
<path d="M64.0318 340.654L45.0829 332.034C44.325 331.693 43.9991 330.818 44.3604 330.086L47.038 324.611C47.3922 323.88 48.2989 323.566 49.0568 323.914L68.0057 332.533C68.7637 332.875 69.0895 333.75 68.7283 334.482L66.0506 339.957C65.6894 340.688 64.7897 340.996 64.0318 340.654Z" fill="#02102B"/>
<path d="M130.888 320.633H124.173V298.084C124.173 295.411 121.92 293.237 119.15 293.237H86.8842C84.1144 293.237 81.8618 295.411 81.8618 298.084V319.41H75.1465V298.084C75.1465 291.836 80.4167 286.751 86.8912 286.751H119.157C125.632 286.751 130.902 291.836 130.902 298.084V320.633H130.888Z" fill="#6E92CC"/>
<path d="M161.349 324.939L160.159 339.198L157.226 374.318C156.702 380.626 152.685 385.404 147.911 385.404H55.7522C50.9778 385.404 46.9684 380.626 46.4372 374.318L43.0866 334.194L42.3145 324.933H161.349V324.939Z" fill="#6E92CC"/>
<path d="M161.348 324.939L160.158 339.205L43.0924 334.201L42.3203 324.939H161.348Z" fill="#374866"/>
<path d="M164.685 329.348H38.9846C37.6529 329.348 36.5762 328.309 36.5762 327.024V319.082C36.5762 317.797 37.6529 316.758 38.9846 316.758H164.685C166.017 316.758 167.093 317.797 167.093 319.082V327.024C167.093 328.309 166.017 329.348 164.685 329.348Z" fill="#6E92CC"/>
</g>
</svg>
