<svg width="41" height="38" viewBox="0 0 41 38" fill="none" xmlns="http://www.w3.org/2000/svg">
<path d="M25.3375 8.125C27.0468 8.43467 28.6177 9.21092 29.8491 10.3544C31.0806 11.4979 31.9165 12.9566 32.25 14.5437M25.3375 1.625C28.8887 1.99133 32.2003 3.46803 34.7284 5.81264C37.2566 8.15724 38.851 11.2304 39.25 14.5275M37.5 27.495V32.37C37.502 32.8226 37.4021 33.2705 37.2069 33.6852C37.0116 34.0999 36.7253 34.4721 36.3661 34.778C36.007 35.084 35.583 35.3169 35.1213 35.4619C34.6596 35.6069 34.1704 35.6607 33.685 35.62C28.3 35.0767 23.1273 33.368 18.5825 30.6313C14.3542 28.1363 10.7693 24.8075 8.0825 20.8813C5.12497 16.642 3.28443 11.8154 2.71001 6.7925C2.66627 6.34313 2.72379 5.89024 2.87888 5.46264C3.03398 5.03504 3.28325 4.64212 3.61085 4.30888C3.93844 3.97565 4.33716 3.7094 4.78164 3.5271C5.22611 3.34479 5.7066 3.25042 6.19251 3.25H11.4425C12.2918 3.24224 13.1151 3.5215 13.7591 4.03574C14.403 4.54998 14.8236 5.2641 14.9425 6.045C15.1641 7.60511 15.575 9.13693 16.1675 10.6113C16.403 11.1929 16.4539 11.825 16.3143 12.4327C16.1748 13.0404 15.8505 13.5982 15.38 14.04L13.1575 16.1037C15.6487 20.172 19.2763 23.5405 23.6575 25.8537L25.88 23.79C26.3558 23.3531 26.9565 23.052 27.611 22.9224C28.2654 22.7928 28.9461 22.8401 29.5725 23.0587C31.1602 23.6089 32.8099 23.9905 34.49 24.1963C35.3401 24.3076 36.1165 24.7052 36.6714 25.3134C37.2264 25.9216 37.5213 26.6981 37.5 27.495Z" stroke="white" stroke-width="4" stroke-linecap="round" stroke-linejoin="round"/>
</svg>
