<svg width="42" height="39" viewBox="0 0 42 39" fill="none" xmlns="http://www.w3.org/2000/svg">
<g clip-path="url(#clip0_23_179)">
<path d="M26.3375 8.125C28.0468 8.43467 29.6177 9.21092 30.8491 10.3544C32.0806 11.4979 32.9165 12.9566 33.25 14.5437M26.3375 1.625C29.8887 1.99133 33.2003 3.46803 35.7284 5.81264C38.2566 8.15724 39.851 11.2304 40.25 14.5275M38.5 27.495V32.37C38.502 32.8226 38.4021 33.2705 38.2069 33.6852C38.0116 34.0999 37.7253 34.4721 37.3661 34.778C37.007 35.084 36.583 35.3169 36.1213 35.4619C35.6596 35.6069 35.1704 35.6607 34.685 35.62C29.3 35.0767 24.1273 33.368 19.5825 30.6313C15.3542 28.1363 11.7693 24.8075 9.0825 20.8813C6.12497 16.642 4.28443 11.8154 3.71001 6.7925C3.66627 6.34313 3.72379 5.89024 3.87888 5.46264C4.03398 5.03504 4.28325 4.64212 4.61085 4.30888C4.93844 3.97565 5.33716 3.7094 5.78164 3.5271C6.22611 3.34479 6.7066 3.25042 7.19251 3.25H12.4425C13.2918 3.24224 14.1151 3.5215 14.7591 4.03574C15.403 4.54998 15.8236 5.2641 15.9425 6.045C16.1641 7.60511 16.575 9.13693 17.1675 10.6113C17.403 11.1929 17.4539 11.825 17.3143 12.4327C17.1748 13.0404 16.8505 13.5982 16.38 14.04L14.1575 16.1037C16.6487 20.172 20.2763 23.5405 24.6575 25.8537L26.88 23.79C27.3558 23.3531 27.9565 23.052 28.611 22.9224C29.2654 22.7928 29.9461 22.8401 30.5725 23.0587C32.1602 23.6089 33.8099 23.9905 35.49 24.1963C36.3401 24.3076 37.1165 24.7052 37.6714 25.3134C38.2264 25.9216 38.5213 26.6981 38.5 27.495Z" stroke="#434343" stroke-width="4" stroke-linecap="round" stroke-linejoin="round"/>
</g>
<defs>
<clipPath id="clip0_23_179">
<rect width="42" height="39" fill="white"/>
</clipPath>
</defs>
</svg>
