<svg width="539" height="452" viewBox="0 0 539 452" fill="none" xmlns="http://www.w3.org/2000/svg">
<mask id="mask0_246_478" style="mask-type:luminance" maskUnits="userSpaceOnUse" x="40" y="0" width="499" height="443">
<path d="M538.177 318.189C533.321 363.137 503.358 391.549 493.646 400.496C437.401 452.282 360.925 441.837 352.727 440.585C311.87 434.344 311.711 418.529 266.482 403.326C175.143 372.617 127.709 420.933 81.7731 391.671C19.2669 351.864 44.8501 222.767 47.1771 211.66C50.8154 194.275 78.3005 73.464 196.562 22.0455C294.896 -20.7133 399.822 8.93714 436.327 40.5383C465.621 65.8984 470.779 93.8572 470.779 93.8572C471.745 99.0905 473.913 111.623 469.749 126.545C461.803 155.001 440.448 157.686 438.093 179.497C436.515 194.132 444.346 209.435 454.829 218.009C472.869 232.758 490.267 220.665 509.849 231.391C538.523 247.112 540.713 294.715 538.177 318.189Z" fill="white"/>
</mask>
<g mask="url(#mask0_246_478)">
<path d="M622.146 -65.5092H-48.729V414.166H622.146V-65.5092Z" fill="#24282D"/>
<path d="M693.052 370.594H287.836H282.079H-123.137V469.486H303.844L692.836 468.745L693.052 416.189V370.594Z" fill="#24282D"/>
<path d="M691.344 391.542H-124.628V392.981H691.344V391.542Z" fill="#24282D"/>
<path d="M706.495 415.246H-109.478V416.686H706.495V415.246Z" fill="#24282D"/>
<path d="M513.873 371.286L512.491 371.695L543.33 475.928L544.712 475.519L513.873 371.286Z" fill="#24282D"/>
<path d="M36.0314 370.968L34.6221 371.267L57.095 476.703L58.5043 476.403L36.0314 370.968Z" fill="#24282D"/>
<path d="M275.043 370.693L273.661 371.099L304.554 475.917L305.936 475.511L275.043 370.693Z" fill="#24282D"/>
</g>
<mask id="mask1_246_478" style="mask-type:luminance" maskUnits="userSpaceOnUse" x="0" y="9" width="499" height="442">
<path d="M498.137 326.459C493.281 371.406 463.318 399.818 453.606 408.766C397.361 460.552 320.885 450.107 312.687 448.854C271.83 442.613 271.671 426.798 226.442 411.595C135.103 380.886 87.6688 429.202 41.733 399.941C-20.7731 360.133 4.81003 231.036 7.13707 219.929C10.7753 202.545 38.2605 81.7335 156.522 30.315C254.856 -12.4438 359.782 17.2066 396.287 48.8078C425.581 74.1679 430.739 102.127 430.739 102.127C431.705 107.36 433.873 119.892 429.709 134.815C421.762 163.27 400.408 165.955 398.053 187.767C396.475 202.401 404.306 217.705 414.789 226.278C432.829 241.028 450.227 228.934 469.809 239.66C498.483 255.382 500.673 302.985 498.137 326.459Z" fill="white"/>
</mask>
<g mask="url(#mask1_246_478)">
<path d="M178.136 139.458C178.136 139.458 191.298 137.5 191.868 131.727C192.437 125.954 186.63 117.992 182.293 120.871C177.956 123.751 173.482 125.954 172.581 129.941C171.688 133.937 171.983 138.09 178.136 139.458Z" fill="#7F4C3D"/>
<path d="M174.404 126.098C169.31 126.709 140.132 136.535 130.298 141.639C127.351 143.172 126.444 144.77 126.134 145.944C125.241 149.305 127.042 155.05 130.204 157.015C133.9 159.311 138.158 158.814 141.588 158.109C155.651 155.201 173.345 142.935 179.57 138.882C178.323 136.686 181.536 128.998 174.404 126.098Z" fill="#7F4C3D"/>
<path d="M173.251 120.684L185.744 116.999L191.904 137.226L179.411 140.912L173.251 120.684Z" fill="#FBAE2C"/>
<path d="M176.774 119.633L186.76 116.689L192.927 136.938L182.934 139.883L176.774 119.633Z" fill="#374866"/>
<path d="M192.213 135.412C192.401 135.348 192.782 135.175 193.157 134.642C193.647 133.958 193.834 133.116 193.892 132.792C193.971 132.526 194.05 132.166 194.065 131.727C194.13 130.337 193.539 129.438 193.445 129.294C193.676 128.876 193.762 128.495 193.806 128.235C193.993 127.026 193.532 125.594 192.638 124.715C192.754 124.413 192.804 124.14 192.833 123.916C193.027 122.268 191.983 120.994 191.94 120.943C192.069 119.309 191.824 118.597 191.63 118.258C191.414 117.884 190.708 117.531 189.303 116.84C189.296 116.84 184.886 114.522 181.997 117.603C181.853 117.762 181.666 118.021 181.572 118.431C181.32 119.554 181.969 120.994 182.487 121.426C183.157 121.987 188.453 122.167 188.453 122.167C188.453 122.167 189.267 122.326 190.11 122.491C186.716 121.455 182.581 120.612 182.149 122.491C182.105 122.685 182.048 123.117 182.084 123.571C182.199 124.939 183.114 125.615 183.762 126.292C183.662 126.817 183.633 127.271 183.64 127.624C183.654 129.927 184.872 131.23 185.052 131.417C185.11 132.245 185.261 132.857 185.405 133.303C186.421 136.427 189.079 136.147 189.317 136.111C190.283 135.88 191.248 135.643 192.213 135.412Z" fill="#7F4C3D"/>
<path d="M182.732 121.577C183.302 121.469 183.871 121.375 184.44 121.296C184.721 121.26 185.009 121.217 185.29 121.195C185.434 121.181 185.571 121.167 185.715 121.152C185.859 121.138 185.996 121.123 186.14 121.123L186.565 121.095L186.99 121.087C187.134 121.08 187.271 121.087 187.415 121.087L187.624 121.095C187.696 121.095 187.768 121.095 187.833 121.102C188.395 121.123 188.957 121.195 189.519 121.275C189.382 121.21 189.245 121.152 189.108 121.095C189.044 121.066 188.972 121.037 188.899 121.015L188.691 120.951C188.554 120.915 188.41 120.864 188.273 120.835C188.129 120.807 187.992 120.785 187.848 120.756C187.286 120.67 186.709 120.641 186.14 120.684C185.996 120.691 185.852 120.713 185.708 120.727C185.564 120.742 185.42 120.756 185.276 120.785C184.987 120.835 184.706 120.886 184.418 120.965C183.864 121.095 183.287 121.289 182.732 121.577Z" fill="#844B42"/>
<path d="M183.834 126.213C184.36 126.227 184.894 126.234 185.419 126.234H186.212C186.342 126.234 186.479 126.234 186.608 126.234L187.004 126.241C187.134 126.241 187.264 126.249 187.401 126.249C187.53 126.249 187.66 126.256 187.797 126.263L188.193 126.277C188.323 126.292 188.453 126.299 188.582 126.306C189.108 126.349 189.627 126.407 190.153 126.501C189.656 126.227 189.137 126.069 188.611 125.961C188.085 125.853 187.559 125.817 187.033 125.795C186.5 125.788 185.974 125.817 185.441 125.882C184.894 125.954 184.36 126.047 183.834 126.213Z" fill="#844B42"/>
<path d="M185.052 131.417C185.513 131.439 185.982 131.417 186.443 131.388C186.673 131.374 186.904 131.352 187.134 131.338L187.826 131.266L188.518 131.18C188.748 131.144 188.979 131.122 189.209 131.079C189.67 131.014 190.139 130.935 190.6 130.841C190.139 130.748 189.678 130.726 189.216 130.726C188.986 130.719 188.755 130.741 188.518 130.748C188.287 130.762 188.057 130.784 187.819 130.812C187.588 130.841 187.358 130.87 187.12 130.906C186.889 130.949 186.659 130.978 186.421 131.036C185.982 131.144 185.521 131.259 185.052 131.417Z" fill="#844B42"/>
<path d="M165.895 136.845C165.888 136.665 165.888 136.391 165.903 136.06C166.061 133.303 167.444 131.59 168.835 129.358C170.874 126.09 171.897 124.449 172.336 122.34C172.74 120.389 172.653 118.561 174.044 117.711C174.166 117.632 174.973 117.186 175.787 117.402C176.997 117.733 177.17 119.338 177.199 119.605C177.35 121.397 175.953 122.088 175.441 123.945C174.951 125.738 175.96 126.198 176.5 128.905C176.839 130.611 177.61 134.484 175.139 137.104C175.016 137.233 172.509 139.811 169.411 139.321C167.091 138.968 166.061 137.154 165.895 136.845Z" fill="#7F4C3D"/>
<path d="M96.9342 120.627L133.749 138.177L168.273 125.147L175.233 142.654C171.508 146.023 166.385 149.989 159.736 153.466C153.389 156.784 147.322 158.8 142.106 160.031C136.912 161.255 131.472 161.068 126.364 159.527C101.314 151.969 86.113 140.869 87.1937 134.808C87.453 133.339 89.4415 127.883 94.1316 123.117C95.2267 122.002 96.2281 121.167 96.9342 120.627Z" fill="#6E92CC"/>
<path d="M135.147 160.729C128.713 160.729 124.441 159.232 124.376 159.21C124.189 159.146 124.088 158.937 124.16 158.75C124.225 158.562 124.434 158.462 124.621 158.534C124.708 158.562 133.216 161.535 144.297 158.966C156.22 156.201 170.579 145.987 172.574 144.54L167.517 133.303C167.437 133.123 167.517 132.907 167.697 132.828C167.877 132.749 168.093 132.828 168.172 133.008L173.475 144.77L173.244 144.943C173.086 145.058 157.387 156.669 144.462 159.664C141.069 160.456 137.913 160.729 135.147 160.729Z" fill="black"/>
<path d="M137.15 144.727C137.085 144.727 137.027 144.713 136.97 144.677C133.591 142.676 133.389 138.364 133.389 138.184C133.382 137.982 133.533 137.817 133.735 137.809C133.944 137.809 134.102 137.953 134.109 138.155C134.109 138.198 134.304 142.265 137.344 144.058C137.517 144.158 137.575 144.382 137.474 144.554C137.395 144.67 137.272 144.727 137.15 144.727Z" fill="black"/>
<path d="M300.223 129.042C299.553 130.049 298.941 130.848 298.437 131.525C298.962 130.625 299.539 129.726 300.223 129.042Z" fill="#6C7B4A"/>
<path d="M286.044 155.453C324.712 155.453 356.058 123.743 356.058 84.6273C356.058 45.5114 324.712 13.8018 286.044 13.8018C247.377 13.8018 216.031 45.5114 216.031 84.6273C216.031 123.743 247.377 155.453 286.044 155.453Z" fill="#90BCD5"/>
<path d="M353.133 85.0304C353.133 93.3374 351.649 101.284 348.94 108.62C339.48 134.325 314.999 152.617 286.297 152.617C283.285 152.617 280.324 152.415 277.414 152.019C260.634 149.773 245.815 141.214 235.383 128.783C229.41 121.685 224.886 113.342 222.206 104.171C221.536 101.889 220.995 99.5784 220.556 97.1958C219.85 93.2438 219.482 89.1767 219.482 85.0232C219.482 47.6777 249.403 17.4154 286.304 17.4154C287.212 17.4154 288.105 17.4298 288.999 17.4658C297.954 17.8257 306.433 19.9709 314.135 23.5413L314.149 23.5557C337.146 34.2238 353.133 57.7483 353.133 85.0304Z" fill="#BCD9E7"/>
<path opacity="0.54" d="M333.14 68.8987C332.6 70.5687 282.421 144.626 277.406 152.034C260.627 149.788 245.808 141.229 235.375 128.797L286.297 85.0376C286.297 85.0376 270.245 119.353 266.326 126.299C274.15 117.798 333.681 67.279 333.14 68.8987Z" fill="#FFFFFD"/>
<path opacity="0.54" d="M314.142 23.5701C312.175 25.7656 237.493 90.8755 222.198 104.185C221.528 101.904 220.988 99.5928 220.548 97.2102L288.984 17.4802C297.939 17.8401 306.419 19.9853 314.12 23.5557L314.142 23.5701Z" fill="#FFFFFD"/>
<path opacity="0.54" d="M353.133 85.0304C353.133 93.3374 351.649 101.284 348.94 108.62C341.786 112.161 327.989 119.021 327.42 119.295L353.133 85.0304Z" fill="#FFFFFD"/>
<path d="M234.936 400.495L111.264 400.754L110.86 218.41L229.151 218.158L234.936 400.495Z" fill="#BCD9E7"/>
<path d="M374.537 400.308L237.148 400.596L234.136 222.521L370.38 222.233L374.537 400.308Z" fill="white"/>
<path d="M381.439 400.293L237.148 400.596L237.018 388.315L380.899 388.013L381.439 400.293Z" fill="#B69C8F"/>
<path d="M371.814 254.899L235.563 255.187L235.505 253.74L371.749 253.452L371.814 254.899Z" fill="#BCD9E7"/>
<path d="M381.439 400.293L374.537 400.308L369.811 209.11L380.481 208.952L381.439 400.293Z" fill="#24282D"/>
<path d="M237.148 400.596L230.354 400.61L229.093 209.412L235.167 209.398L237.148 400.596Z" fill="#24282D"/>
<path d="M111.754 400.862L104.16 400.877L104.463 209.671L110.968 209.657L111.754 400.862Z" fill="#24282D"/>
<path d="M373.839 226.818L105.234 227.387L104.463 209.671L373.061 209.103L373.839 226.818Z" fill="#24282D"/>
<path d="M339.659 348.447C355.034 329.878 351.782 301.836 332.397 285.813C313.013 269.79 284.835 271.855 269.461 290.424C254.086 308.993 257.338 337.035 276.722 353.058C296.107 369.08 324.285 367.016 339.659 348.447Z" fill="#BCD9E7"/>
<path d="M326.521 349.413C342.675 340.994 348.57 320.379 339.689 303.368C330.808 286.358 310.514 279.393 294.36 287.813C278.207 296.232 272.311 316.847 281.192 333.858C290.073 350.868 310.368 357.833 326.521 349.413Z" fill="#90BCD5"/>
<path d="M365.95 247.326L304.791 247.456L304.128 232.282L365.287 232.152L365.95 247.326Z" fill="#BCD9E7"/>
<path d="M273.934 247.067L243.351 247.132L243.243 232.246L273.826 232.181L273.934 247.067Z" fill="#BCD9E7"/>
<path d="M361.209 240.618L347.787 240.646L347.578 235.903L361 235.874L361.209 240.618Z" fill="#90BCD5"/>
<path d="M222.566 274.047L116.941 274.27L116.573 235.233L223.149 236.19L222.566 274.047Z" fill="#24282D"/>
<path d="M222.847 317.626L117.316 317.85L117.157 281.706L222.998 281.476L222.847 317.626Z" fill="#24282D"/>
<path d="M224.771 394.484L117.539 395.917L118.223 325.307L223.755 325.084L224.771 394.484Z" fill="#24282D"/>
<path d="M183.179 252.077L161.926 252.121L161.645 245.685L182.898 245.642L183.179 252.077Z" fill="#BCD9E7"/>
<path d="M183.179 294.116L161.926 294.167L161.645 287.731L182.898 287.681L183.179 294.116Z" fill="#BCD9E7"/>
<path d="M183.179 339.452L161.926 339.503L161.645 333.067L182.898 333.017L183.179 339.452Z" fill="#BCD9E7"/>
<path d="M104.463 209.671L143.886 195.109L394.35 194.404L380.596 209.067L104.463 209.671Z" fill="#BCD9E7"/>
<path d="M381.439 400.293L395.445 373.998L394.177 194.576L380.481 209.153L381.439 400.293Z" fill="#BCD9E7"/>
<path d="M229.912 369.159C247.475 368.33 260.773 347.778 259.614 323.256C258.454 298.734 243.276 279.527 225.712 280.356C208.149 281.185 194.851 301.737 196.01 326.259C197.17 350.781 212.348 369.988 229.912 369.159Z" fill="#90BCD5"/>
<path d="M235.957 369.246C253.52 368.416 266.818 347.865 265.659 323.343C264.499 298.82 249.321 279.613 231.757 280.443C214.194 281.272 200.896 301.823 202.055 326.345C203.215 350.868 218.393 370.075 235.957 369.246Z" fill="#BCD9E7"/>
<path d="M259.042 323.796C258.718 304.813 247.58 289.315 234.15 289.193C232.724 289.178 231.333 289.337 229.979 289.668C242.443 291.295 252.45 306.145 252.752 324.127C253.048 341.086 244.597 355.102 233.214 357.801C233.913 357.887 234.619 357.938 235.325 357.952C248.739 358.067 259.373 342.778 259.042 323.796Z" fill="#90BCD5"/>
<path d="M252.753 324.119C252.45 306.138 242.436 291.295 229.979 289.661H229.972C218.589 292.36 210.145 306.375 210.433 323.342C210.743 341.324 220.757 356.16 233.207 357.787H233.214C244.59 355.087 253.041 341.079 252.753 324.119Z" fill="white"/>
<path d="M203.813 169.965C204.015 168.158 204.188 166.344 204.346 164.537C204.634 161.06 204.836 157.583 204.951 154.092C205.182 146.973 205.059 139.832 204.505 132.734C204.079 127.321 202.797 121.404 197.43 118.719C191.709 115.861 185.478 119.576 183.316 124.348C179.872 131.943 180.146 138.803 180.024 139.674C179.858 140.811 179.664 142.467 180.478 142.618C180.73 142.668 184.519 142.647 184.829 142.481C185.297 142.229 185.29 141.178 185.218 139.731C185.197 139.321 184.714 135.189 184.901 133.426C185.168 130.899 185.434 128.286 186.421 125.925C187.3 123.823 188.856 122.218 191.061 121.62C193.057 121.08 195.297 121.368 197.034 122.534C199.123 123.931 199.987 126.479 200.441 128.847C200.996 131.748 201.054 134.779 201.198 137.723C201.536 144.54 201.529 151.364 201.176 158.181C200.982 161.888 200.693 165.595 200.297 169.288C200.131 170.836 199.685 172.556 200.405 174.032C200.52 174.277 200.679 174.478 200.852 174.665C200.722 174.831 200.614 174.982 200.564 175.033C200.355 175.277 200.549 175.752 200.902 175.623C200.982 175.594 201.371 175.421 201.702 175.284C202.206 175.5 202.761 175.522 203.294 175.32C203.33 175.306 203.359 175.299 203.395 175.284C203.604 175.191 203.813 175.069 204.007 174.896C203.986 174.889 203.964 174.881 203.943 174.881C204.569 174.19 204.735 172.988 203.698 172.491C203.662 172.477 203.647 172.47 203.611 172.455C203.597 172.398 203.582 172.348 203.582 172.319C203.705 171.541 203.726 170.728 203.813 169.965Z" fill="#90BCD5"/>
<path d="M217.898 163.018H187.596V165.653H217.898V163.018Z" fill="#90BCD5"/>
<path d="M217.898 158.714H211.954V163.018H217.898V158.714Z" fill="#90BCD5"/>
<path d="M193.539 158.735H187.596V163.04H193.539V158.735Z" fill="#90BCD5"/>
<path d="M208.532 167.791H196.493V175.911H208.532V167.791Z" fill="#985846"/>
<path d="M202.156 201.768C202.156 201.768 248.063 200.429 261.038 169.684H144.455C144.455 169.684 155.038 201.768 202.156 201.768Z" fill="white"/>
<path d="M261.045 169.684C261.045 172.052 234.943 173.974 202.746 173.974C170.55 173.974 144.448 172.052 144.448 169.684C144.448 167.316 170.55 165.394 202.746 165.394C234.943 165.394 261.045 167.316 261.045 169.684Z" fill="#BCD9E7"/>
<path d="M193.546 158.735H177.941V160.866H193.546V158.735Z" fill="#90BCD5"/>
<path d="M227.559 157.648H211.954V159.779H227.559V157.648Z" fill="#90BCD5"/>
<path d="M317.651 383.96L317.586 394.794L317.55 401.143C315.612 417.886 336.462 413.171 336.462 413.171L337.406 398.969L338.126 388.099L317.651 383.96Z" fill="url(#paint0_linear_246_478)"/>
<path d="M317.586 394.794L317.55 401.143C315.612 417.886 336.462 413.171 336.462 413.171C336.772 407.175 337.672 400.948 337.982 394.952C331.375 394.823 324.185 394.923 317.586 394.794Z" fill="#9C5A4A"/>
<path d="M281.492 420.751C281.838 421.853 282.392 423.256 283.293 424.631C283.293 424.639 283.293 424.639 283.3 424.646C284.518 425.848 285.879 426.784 286.016 426.87C288.127 428.288 290.252 428.965 292.457 429.382C294.705 429.332 297.918 428.922 302.716 427.899C306.887 427.014 309.568 426.179 311.527 425.474C315.346 424.091 316.462 423.177 320.67 423.148C322.817 423.134 324.567 423.357 326.21 423.602C329.279 424.048 331.952 424.559 336.03 423.66C339.005 423.004 341.275 421.918 342.744 421.097C342.744 421.09 342.751 421.09 342.751 421.09C342.73 421.054 342.715 421.025 342.687 420.982C342.55 420.751 342.406 420.507 342.262 420.24L342.254 420.233V420.219C342.247 420.204 342.233 420.183 342.226 420.161C341.483 418.628 340.756 416.857 340.136 414.885C339.473 412.783 339.07 410.825 338.811 409.054C338.674 408.097 338.587 407.197 338.53 406.355C334.567 407.002 332.449 408.363 331.239 409.522C330.489 410.249 329.553 411.408 327.694 411.962C327.147 412.12 325.857 412.509 324.524 412.092C322.773 411.545 322.089 409.983 320.9 408.226C320.727 407.967 320.526 407.686 320.302 407.398L320.295 407.384C319.315 406.088 317.903 404.512 315.828 402.87C315.259 403.547 314.575 404.317 313.775 405.131C313.465 405.44 313.141 405.764 312.795 406.088C312.356 406.506 311.887 406.93 311.39 407.362C311.347 407.398 311.304 407.441 311.253 407.477C310.519 408.104 309.805 408.672 309.099 409.198C308.148 409.903 307.241 410.515 306.426 411.026C305.879 411.365 305.375 411.667 304.928 411.926C304.87 411.948 304.827 411.984 304.777 412.012C304.272 412.293 303.84 412.524 303.494 412.704C303.271 412.819 303.091 412.912 302.947 412.984C302.377 413.265 301.844 413.51 301.333 413.733C300.728 413.992 300.151 414.222 299.561 414.438C298.984 414.647 298.408 414.841 297.788 415.036C295.908 415.64 293.66 416.281 290.137 417.505C290.123 417.519 290.094 417.527 290.072 417.534C288.494 418.081 287.054 418.606 285.764 419.089C284.02 419.736 282.587 420.305 281.492 420.751Z" fill="#90BCD5"/>
<path d="M281.492 420.751C281.838 421.853 282.392 423.256 283.293 424.631C283.293 424.639 283.293 424.639 283.3 424.646C284.518 425.848 285.879 426.784 286.016 426.87C288.127 428.288 290.252 428.965 292.457 429.382C294.705 429.332 297.918 428.922 302.716 427.899C306.887 427.014 309.568 426.179 311.527 425.474C311.441 425.38 311.347 425.294 311.253 425.2C305.447 419.65 296.679 425.286 294.388 421.939C292.846 419.686 291.102 418.225 290.13 417.505C290.115 417.519 290.087 417.527 290.065 417.534C288.487 418.081 287.046 418.606 285.757 419.089C284.02 419.736 282.587 420.305 281.492 420.751Z" fill="white"/>
<path d="M326.203 423.595C329.272 424.041 331.945 424.552 336.022 423.652C338.998 422.997 341.267 421.91 342.737 421.09C342.737 421.083 342.744 421.083 342.744 421.083C342.722 421.047 342.708 421.018 342.679 420.975C342.542 420.744 342.398 420.499 342.254 420.233L342.247 420.226V420.212C342.24 420.197 342.225 420.176 342.218 420.154C341.476 418.621 340.748 416.85 340.129 414.877C339.466 412.776 339.063 410.818 338.803 409.047C335.352 410.206 328.198 413.733 326.203 423.595Z" fill="white"/>
<path d="M283.293 424.631C283.293 424.639 283.293 424.639 283.3 424.646C284.518 425.848 285.879 426.784 286.016 426.87C288.127 428.288 290.252 428.965 292.457 429.382C293.588 429.598 294.741 429.749 295.93 429.901C298.091 430.167 299.741 430.131 300.497 430.131C309.2 430.145 313.588 430.117 315.533 428.511C316.736 427.518 316.844 426.827 318.055 426.438C319.791 425.877 321.167 427.367 324.416 428.144C325.857 428.49 327.111 428.504 329.56 428.504C334.401 428.511 339.106 427.971 342.824 427.381C343.083 426.719 344.113 423.969 342.737 421.083C342.723 421.047 342.701 421.011 342.679 420.967C342.607 420.816 342.521 420.665 342.434 420.514C342.377 420.42 342.319 420.327 342.254 420.226C342.254 420.219 342.254 420.212 342.247 420.212C342.24 420.197 342.226 420.176 342.218 420.154C341.685 419.355 341.066 418.743 340.518 418.297C338.984 418.477 336.822 418.75 334.236 419.132C326.93 420.219 323.285 420.759 319.265 422.04C314.604 423.537 314.373 424.365 308.869 425.913C306.369 426.611 304.222 427.057 302.017 427.345C298.71 427.777 295.821 428.094 292.435 427.165C288.451 426.078 284.518 423.436 284.806 421.745C284.986 420.701 286.78 419.967 286.448 419.384C286.405 419.304 286.276 419.189 285.757 419.067C284.366 418.736 282.046 419.434 281.499 420.73C281.002 421.932 282.068 423.422 283.293 424.631Z" fill="black"/>
<path d="M297.774 415.036C299.265 417.145 300.843 417.08 300.843 417.08C318.775 406.592 320.281 407.398 320.281 407.398L320.274 407.384C319.957 406.57 319.423 405.476 318.523 404.317C317.529 403.036 316.455 402.143 315.663 401.568C314.387 403.504 312.572 405.836 310.029 408.104C310.029 408.104 306.888 410.911 303.48 412.704C303.206 412.848 302.932 412.984 302.932 412.984C302.363 413.265 301.83 413.51 301.319 413.733C300.713 413.992 300.137 414.222 299.546 414.438C298.97 414.647 298.394 414.841 297.774 415.036Z" fill="white"/>
<path d="M316.39 409.421C316.426 409.738 316.736 409.983 317.089 409.968C317.442 409.954 317.694 409.687 317.658 409.371C317.622 409.054 317.312 408.809 316.959 408.824C316.606 408.838 316.354 409.104 316.39 409.421Z" fill="black"/>
<path d="M310.497 413.675C310.533 413.992 310.843 414.237 311.196 414.222C311.549 414.208 311.801 413.942 311.765 413.625C311.729 413.308 311.419 413.063 311.066 413.078C310.713 413.092 310.461 413.359 310.497 413.675Z" fill="black"/>
<path d="M304.409 416.216C304.445 416.533 304.755 416.778 305.108 416.763C305.461 416.749 305.713 416.483 305.677 416.166C305.641 415.849 305.331 415.604 304.978 415.619C304.625 415.64 304.373 415.907 304.409 416.216Z" fill="black"/>
<path d="M317.226 409.817C317.327 409.817 317.42 409.767 317.471 409.695C317.536 409.608 317.536 409.486 317.471 409.392C316.707 408.276 313.739 404.656 313.609 404.504C313.501 404.375 313.299 404.339 313.163 404.433C313.026 404.519 312.997 404.699 313.105 404.828C313.134 404.864 315.461 407.701 316.549 409.147C316.354 409.111 316.16 409.068 315.965 409.025C315.346 408.881 314.748 408.68 314.359 408.536C313.336 408.161 312.19 407.621 311.044 406.981C310.893 406.894 310.699 406.93 310.612 407.067C310.526 407.197 310.576 407.377 310.735 407.463C311.916 408.125 313.098 408.68 314.15 409.068C314.56 409.219 315.194 409.435 315.843 409.587C316.282 409.687 316.736 409.774 317.183 409.824C317.19 409.81 317.204 409.817 317.226 409.817Z" fill="black"/>
<path d="M311.073 413.841L311.203 413.704C312.414 412.43 310.929 408.118 310.756 407.636C310.699 407.485 310.519 407.391 310.353 407.434C310.187 407.477 310.094 407.629 310.144 407.787C310.562 408.968 311.455 412.113 310.814 413.179C310.454 413.063 310.094 412.92 309.755 412.754C308.718 412.25 307.817 411.545 307.068 410.659C306.96 410.53 306.758 410.501 306.621 410.587C306.484 410.681 306.455 410.854 306.571 410.983C307.378 411.941 308.357 412.696 309.481 413.243C309.928 413.459 310.396 413.639 310.872 413.783L311.073 413.841Z" fill="black"/>
<path d="M305.036 416.54C305.31 416.533 305.555 416.425 305.749 416.224C306.974 414.935 306.03 411.487 305.987 411.343C305.944 411.185 305.771 411.084 305.598 411.12C305.425 411.149 305.324 411.3 305.367 411.451C305.627 412.372 306.102 414.949 305.252 415.842C305.123 415.979 305.007 415.979 304.914 415.972C304.157 415.871 302.896 414.215 302.277 413.186C302.19 413.042 301.996 412.984 301.845 413.056C301.693 413.128 301.636 413.294 301.722 413.438C301.902 413.74 303.523 416.368 304.856 416.54C304.921 416.54 304.986 416.54 305.036 416.54Z" fill="black"/>
<path d="M438.809 406.902C440.127 406.772 441.431 406.642 442.749 406.513C444.579 406.333 446.417 406.153 448.246 405.973C449.558 405.843 450.876 405.714 452.195 405.584C454.305 405.39 456.416 405.174 458.534 404.98C459.788 404.85 461.034 404.735 462.295 404.612C468.131 403.741 472.028 398.436 471.726 394.571C471.531 392.001 469.471 389.978 466.784 389.179C463.722 389.049 460.674 388.913 457.612 388.783C455.681 388.704 453.743 388.61 451.813 388.531C451.33 388.51 450.847 388.488 450.365 388.466C447.526 388.344 444.68 388.222 441.842 388.092C441.359 391.079 440.876 394.06 440.394 397.04C439.868 400.337 439.342 403.619 438.809 406.902Z" fill="url(#paint1_linear_246_478)"/>
<path d="M448.247 405.973C449.558 405.843 450.876 405.714 452.195 405.584C454.306 405.39 456.416 405.174 458.535 404.98C459.788 404.85 461.035 404.735 462.295 404.612C468.131 403.741 472.029 398.436 471.726 394.571C471.531 392.001 469.471 389.978 466.784 389.179C463.722 389.049 460.674 388.913 457.612 388.783C455.682 388.704 453.744 388.61 451.813 388.531C451.33 388.51 450.847 388.488 450.365 388.466C450.077 392.591 449.457 399.638 448.247 405.973Z" fill="#9C5A4A"/>
<path d="M470.242 388.056C470.645 388.207 470.977 388.366 471.25 388.51C471.402 388.596 471.618 388.697 471.892 388.884C472.9 389.568 473.347 390.46 473.858 391.619C474.442 392.929 475.112 394.599 476.791 396.73C478.815 399.286 480.242 399.919 481.437 400.56C482.367 401.042 483.152 401.539 483.973 402.921C488.318 410.213 481.697 422.457 478.693 427.396C478.131 428.324 477.554 428.907 476.985 429.224C476.409 429.548 475.832 429.577 475.263 429.382C474.586 429.145 473.916 428.583 473.275 427.799C472.453 426.798 471.69 425.445 471.005 423.998C470.551 423.026 470.126 422.004 469.752 421.025C468.246 417.109 466.358 414.28 463.938 411.35C463.628 410.961 463.297 410.573 462.965 410.184C461.452 408.428 460.573 407.708 456.928 406.254C456.856 405.246 456.863 403.418 457.598 401.215C457.807 400.56 456.654 397.515 456.921 396.975C457.439 395.917 458.196 395.024 459.096 394.369C459.86 393.793 460.71 393.397 461.604 393.217C463.397 392.85 464.5 392.562 465.148 392.339C465.782 392.123 465.998 391.958 466.005 391.842C466.02 391.634 465.458 391.569 464.046 391.108C463.642 390.971 463.268 390.842 462.922 390.727C462.007 390.396 461.431 389.481 461.438 388.38C465.753 386.991 468.577 387.444 470.242 388.056Z" fill="#90BCD5"/>
<path d="M459.096 394.376C463.895 400.041 468.693 405.707 473.491 411.372C472.619 412.812 471.74 414.244 470.869 415.684C468.743 413.654 466.351 411.566 463.686 409.493C460.869 407.305 459.918 406.65 456.935 406.261C455.328 399.588 455.876 400.257 456.921 396.982C457.281 395.859 458.196 395.031 459.096 394.376Z" fill="white"/>
<path d="M481.437 400.567C482.367 401.049 483.152 401.546 483.973 402.928C488.318 410.22 481.697 422.465 478.693 427.403C478.131 428.331 477.554 428.914 476.985 429.231C476.409 429.555 475.832 429.584 475.263 429.39C474.586 429.152 473.916 428.59 473.275 427.806C472.453 426.805 471.69 425.452 471.005 424.005L471.085 423.94C472.064 423.076 472.807 421.946 473.268 420.715C473.851 419.153 475.134 416.605 477.9 413.344C482.014 408.492 474.615 407.513 481.437 400.567Z" fill="white"/>
<path d="M471.856 407.132C471.935 406.837 471.971 406.592 471.942 406.412C471.906 406.189 471.783 406.038 471.589 405.987C470.696 405.771 467.677 408.644 465.624 410.738C466.589 408.55 468.174 404.663 468.304 402.626C468.34 402.007 468.109 401.812 467.907 401.755C467.057 401.517 464.889 404.065 463.246 406.203C464.298 403.49 465.588 399.638 464.774 398.919C464.673 398.832 464.493 398.739 464.212 398.803C462.691 399.17 459.118 404.598 458.419 405.678C458.311 405.843 458.333 406.052 458.477 406.146C458.614 406.239 458.815 406.175 458.923 406.009C460.48 403.605 463.304 399.703 464.262 399.473C464.32 399.458 464.334 399.473 464.341 399.473C464.867 399.934 463.433 404.346 461.812 408.169C461.74 408.334 461.791 408.507 461.921 408.586C462.05 408.658 462.23 408.608 462.331 408.456C464.73 405.124 467.173 402.367 467.677 402.417C467.677 402.431 467.699 402.489 467.684 402.683C467.518 405.404 464.392 412.02 464.363 412.084C464.291 412.236 464.32 412.416 464.435 412.495C464.55 412.581 464.723 412.552 464.838 412.43C467.468 409.651 470.645 406.714 471.33 406.657C471.38 407.715 468.621 412.207 466.834 414.834C466.719 415 466.74 415.209 466.877 415.302C467.014 415.396 467.209 415.345 467.324 415.18C468.03 414.136 471.258 409.306 471.856 407.132Z" fill="black"/>
<path d="M472.223 405.548C472.554 405.606 472.735 405.959 472.634 406.333C472.526 406.707 472.173 406.966 471.841 406.909C471.51 406.851 471.322 406.498 471.431 406.124C471.539 405.75 471.892 405.491 472.223 405.548Z" fill="black"/>
<path d="M468.167 400.905C468.498 400.963 468.678 401.316 468.578 401.69C468.47 402.064 468.116 402.323 467.785 402.266C467.454 402.208 467.266 401.855 467.374 401.481C467.482 401.107 467.836 400.848 468.167 400.905Z" fill="black"/>
<path d="M465.141 398.227C465.472 398.285 465.652 398.638 465.551 399.012C465.451 399.386 465.09 399.646 464.759 399.588C464.428 399.53 464.247 399.178 464.348 398.803C464.449 398.429 464.809 398.17 465.141 398.227Z" fill="black"/>
<path d="M467.504 414.359C467.835 414.417 468.016 414.77 467.915 415.144C467.807 415.518 467.454 415.777 467.122 415.72C466.791 415.662 466.611 415.309 466.712 414.935C466.82 414.561 467.173 414.302 467.504 414.359Z" fill="black"/>
<path d="M470.242 388.056C470.645 388.207 470.977 388.366 471.251 388.51C471.402 388.596 471.618 388.697 471.892 388.884C472.9 389.568 473.347 390.46 473.859 391.619C468.772 392.274 466.791 392.145 466.006 391.842C465.84 391.778 465.12 391.468 464.046 391.108C463.643 390.971 463.268 390.842 462.922 390.727C462.007 390.396 461.431 389.481 461.438 388.38C465.754 386.991 468.578 387.444 470.242 388.056Z" fill="white"/>
<path d="M474.19 388.726C475.818 389.611 476.466 391.209 476.625 391.619C477.014 392.663 476.755 392.836 477.1 393.887C477.619 395.456 478.628 396.291 479.089 396.709C480.811 398.285 485.559 402.223 487.071 405.901C489.168 410.998 486.056 417.663 484.6 420.78C483.109 423.969 481.416 427.597 478.044 428.922C477.691 429.051 477.338 429.159 477 429.231C476.402 429.368 475.818 429.411 475.278 429.39C474.601 429.152 473.931 428.591 473.289 427.806C473.894 427.813 474.795 427.72 475.753 427.187C477.288 426.345 478.145 424.862 479.363 422.357C481.315 418.333 482.295 416.317 482.648 414.77C484.089 408.42 481.409 403.382 481.034 402.719C478.289 397.76 474.665 398.163 471.899 392.274C471.142 390.662 470.782 389.179 470.602 388.265C471.114 388.15 471.949 388.034 472.893 388.236C473.109 388.286 473.621 388.409 474.19 388.726Z" fill="black"/>
<path d="M306.858 367.087C306.866 367.224 306.873 367.361 306.873 367.505C306.887 368.08 306.909 368.678 306.93 369.304C307.103 374.825 307.312 382.132 307.442 390.914C307.449 391.475 307.456 392.044 307.464 392.62C307.485 394.153 307.507 395.73 307.521 397.342C313.213 398.379 317.204 399.192 325.316 399.084C327.989 399.048 330.54 398.911 332.953 398.71C333.738 398.645 334.516 398.566 335.273 398.487C338.025 398.199 338.738 397.817 341.08 397.4L341.145 356.433C343.219 356.455 347.139 356.476 349.214 356.498C350.294 356.505 351.389 356.52 352.47 356.527C352.989 356.534 353.507 356.541 354.026 356.541C354.631 356.548 355.244 356.556 355.856 356.563C357.895 356.584 359.927 356.599 361.966 356.62C363.486 356.635 365.006 356.649 366.526 356.664C372.448 356.721 378.37 356.779 384.299 356.836C391.742 356.901 399.184 356.973 406.626 357.038C406.482 355.541 406.352 354.036 406.208 352.539C406.158 351.963 406.1 351.387 406.043 350.811C405.69 347.003 405.337 343.195 404.984 339.395C404.818 337.617 404.652 335.853 404.494 334.075C404.4 333.103 404.313 332.124 404.22 331.152C404.169 330.569 404.112 329.993 404.061 329.41C403.824 326.855 403.579 324.307 403.348 321.751L403.204 320.24C403.154 319.743 403.11 319.239 403.06 318.735C399.213 318.31 394.854 317.893 390.027 317.555C388.377 317.439 386.67 317.331 384.912 317.231C384.278 317.202 383.644 317.166 382.995 317.137C381.021 317.036 378.99 316.957 376.893 316.892C373.911 316.799 370.798 316.748 367.578 316.741C363.63 316.727 359.509 316.784 355.229 316.935C354.732 316.95 354.228 316.971 353.731 316.993C353.061 317.022 352.376 317.051 351.692 317.079C348.544 317.216 345.309 317.403 342.002 317.648C334.524 318.195 328.947 318.857 324.747 319.563C322.182 319.995 320.129 320.441 318.472 320.88C315.648 321.636 313.984 322.392 312.874 323.061C312.276 323.421 311.844 323.76 311.462 324.069C306.469 328.208 307.096 348.321 306.909 356.109C306.887 356.793 306.866 357.463 306.851 358.111C306.736 363.373 306.858 367.087 306.858 367.087Z" fill="#FBAE2C"/>
<path d="M359.732 356.606C374.624 356.75 385.013 356.894 399.905 357.038C398.81 344.441 397.714 331.851 396.627 319.253C393.183 317.814 389.307 316.374 384.963 314.941C384.963 314.941 367.953 333.981 359.732 356.606Z" fill="black"/>
<path d="M279.582 287.422C279.582 287.422 259.086 289.84 254.093 287.53C249.1 285.226 243.942 274.565 243.805 273.126C243.661 271.686 245.606 271.391 247.4 272.859C249.201 274.321 253.661 275.955 253.661 275.955L274.914 270.405L279.582 287.422Z" fill="#9C5A4A"/>
<path d="M256.42 285.521L252.782 284.888C252.587 284.852 252.458 284.665 252.486 284.47C252.522 284.276 252.71 284.139 252.904 284.175L256.456 284.794C264.187 284.37 264.323 284.478 264.453 284.571C264.612 284.694 264.64 284.917 264.518 285.075C264.424 285.197 264.266 285.241 264.129 285.198C263.632 285.14 259.179 285.356 256.456 285.507L256.42 285.521Z" fill="#5B090B"/>
<path d="M253.935 282.527L253.87 282.498L248.452 280.461C248.265 280.389 248.171 280.187 248.243 280C248.315 279.813 248.517 279.719 248.704 279.791L254.057 281.8C261.708 281.512 261.845 281.613 261.968 281.713C262.126 281.836 262.155 282.059 262.032 282.217C261.939 282.34 261.773 282.383 261.636 282.34C261.146 282.282 256.716 282.419 254.007 282.52L253.935 282.527Z" fill="#5B090B"/>
<path d="M252.94 279.863L245.368 276.286C245.188 276.199 245.109 275.983 245.195 275.804C245.282 275.624 245.498 275.552 245.678 275.631L253.084 279.136C260.541 278.726 260.678 278.827 260.807 278.928C260.966 279.05 260.995 279.273 260.872 279.432C260.779 279.554 260.62 279.597 260.476 279.554C259.986 279.504 255.671 279.712 253.027 279.856L252.94 279.863Z" fill="#5B090B"/>
<path d="M260.065 274.27C260.065 274.27 254.619 272.363 255.073 269.548C255.21 268.713 255.483 268.18 255.872 267.864C256.06 267.712 256.362 267.547 256.91 267.504C258.041 267.41 258.963 267.936 259.525 268.238C260.274 268.641 262.162 269.649 263.653 269.901C265.21 270.167 266.348 269.62 267.284 269.275C271.888 267.576 279.186 268.648 280.793 271.168C281.139 271.708 281.657 272.982 281.729 274.493C281.737 274.609 281.701 274.666 281.693 274.709C281.124 276.48 274.093 277.272 269.1 276.818C266.96 276.624 263.675 276.063 260.065 274.27Z" fill="#9C5A4A"/>
<path d="M366.814 250.71L323.789 277.762C317.759 280.691 310.799 278.863 307.327 273.766C303.364 267.964 304.755 259.161 310.922 254.395C324.776 244.454 338.63 234.513 352.492 224.572C355.921 222.11 360.762 223.932 361.692 228.02L366.814 250.71Z" fill="#9C5A4A"/>
<path d="M321.75 278.683L276.455 287.595L272.659 270.11L311.476 254.741C319.149 251.451 326.822 255.691 328.681 261.659C329.048 262.839 329.185 264.084 329.127 265.351C328.904 269.973 325.677 277.596 321.75 278.683Z" fill="#9C5A4A"/>
<path d="M346.923 264.135L325.922 278.107C324.207 279.244 322.305 280.072 320.302 280.547L278.797 290.359L274.078 266.935L308.71 255.086L346.562 223.975L346.923 264.135Z" fill="#6E92CC"/>
<path d="M372.254 382.873C372.21 399.53 372.801 406.189 376.18 410.27C376.857 411.084 377.592 411.811 378.392 412.452C378.824 412.797 379.278 413.128 379.753 413.431C384.127 416.224 391.014 416.375 399.883 416.519C400.387 416.526 400.906 416.533 401.432 416.533C406.035 416.562 411.345 416.418 417.462 416.238C418.24 416.216 419.018 416.188 419.789 416.152C420.308 416.137 420.826 416.116 421.345 416.087C435.055 415.475 446.28 413.862 453.931 412.516C455.516 409.255 456.719 407.737 457.908 401.791C459.125 395.722 459.176 390.468 458.967 386.71C452.771 386.408 447.915 386.177 444.118 385.99C443.585 385.969 443.081 385.94 442.591 385.925C436.604 385.63 433.6 385.486 432.209 385.414C431.979 385.4 431.748 385.393 431.525 385.378C430.999 385.357 430.473 385.328 429.954 385.299C428.701 385.241 427.44 385.177 426.194 385.112C425.307 385.061 424.428 385.025 423.542 384.982C419.544 384.774 415.553 384.579 411.554 384.378H411.547V384.306C411.612 383.787 411.669 383.276 411.727 382.758C411.806 382.11 411.885 381.462 411.958 380.807C412.483 376.308 413.002 371.788 413.506 367.253C413.593 366.482 413.679 365.712 413.766 364.942C414.09 362.062 414.407 359.169 414.717 356.268C415.005 353.626 415.286 350.984 415.567 348.349C415.639 347.658 415.711 346.96 415.79 346.276C416.122 343.188 416.439 340.093 416.756 337.019C417.001 334.593 417.246 332.175 417.483 329.756C417.548 329.18 417.606 328.604 417.656 328.028C417.865 325.919 418.074 323.817 418.283 321.715C418.377 320.779 418.413 319.836 418.384 318.893C418.384 318.886 418.384 318.886 418.384 318.879C418.24 313.819 417.606 309.19 416.727 305.058C410.574 302.718 402.275 300.458 392.354 300.199C384.948 300.005 378.536 300.976 373.478 302.186C373.608 309.579 373.666 316.468 373.666 322.91C373.658 332.88 373.421 339.985 373.14 346.492C373.118 347.075 373.089 347.651 373.068 348.234C372.938 351.178 372.808 354.051 372.693 357.052C372.671 357.628 372.65 358.204 372.628 358.787C372.513 362.12 372.419 365.676 372.369 369.722C372.362 370.096 372.362 370.456 372.354 370.816C372.347 371.399 372.34 371.975 372.333 372.543C372.297 375.43 372.275 378.144 372.261 380.699C372.261 381.441 372.254 382.153 372.254 382.873Z" fill="#FBAE2C"/>
<path d="M408.312 389.597L423.535 384.99C419.537 384.781 415.545 384.586 411.547 384.385H411.54L408.312 389.597Z" fill="black"/>
<path d="M341.267 356.577V356.419C343.428 356.44 345.575 356.462 347.737 356.484L332.276 348.169L341.267 356.577Z" fill="black"/>
<path d="M340.014 232.649C339.841 247.391 344.012 258.369 345.41 267.108C347.319 279.028 356.764 295.765 357.585 296.197C357.931 297.312 360.82 310.262 361.166 311.378C360.121 312.206 414.292 322.298 415.553 318.541C417.858 311.688 424.018 304.439 414.58 263.343C411.496 249.227 409.659 241.604 407.03 236.399C404.998 232.375 404.717 230.036 400.164 226.041C394.062 220.692 371.612 212.666 354.062 219.037C350.583 220.296 348.14 222.578 346.555 224.234C343.573 227.365 341.44 230.396 340.014 232.649Z" fill="#6E92CC"/>
<path d="M417.275 325.624C417.275 325.624 422.664 309.586 417.801 278.669C417.801 278.669 408.831 289.61 393.478 281.879C378.126 274.141 377.801 254.194 378.666 244.577C379.53 234.96 388.55 220.03 388.55 220.03C387.852 219.663 386.994 219.289 386.007 218.965C384.725 218.554 383.572 218.353 382.621 218.259C379.905 222.334 377.124 228.215 374.199 235.334C371.591 241.683 371.123 248.406 370.453 253.697C364.675 254.237 356.116 254.957 350.338 255.497C349.819 250.58 349.236 246.304 349.149 239.991C348.839 233.592 349.841 226.847 349.942 221.095C348.933 222.017 345.36 224.205 345.151 225.551C344.207 231.735 344.113 236.666 343.839 243.115C343.537 250.443 343.71 257.376 344.164 263.919C345.014 276.387 348.486 288.566 354.639 299.45C355.633 301.214 356.627 302.819 357.586 304.129L354.387 322.19L417.275 325.624Z" fill="#FBAE2C"/>
<path d="M347.83 267.583L347.297 260.723L347.658 260.694L374.314 258.65L374.847 265.51L347.83 267.583ZM348.075 261.385L348.501 266.813L374.076 264.855L373.651 259.427L348.075 261.385Z" fill="black"/>
<path d="M358.508 284.766C358.32 284.766 358.162 284.622 358.147 284.434C358.133 284.233 358.277 284.06 358.479 284.046L365.626 283.499C367.693 283.34 369.61 282.347 371.015 280.698C372.621 278.827 373.421 276.271 373.219 273.687L372.578 265.495C372.564 265.294 372.708 265.121 372.909 265.107C373.104 265.085 373.284 265.236 373.299 265.438L373.94 273.63C374.156 276.408 373.291 279.151 371.562 281.166C370.028 282.959 367.938 284.039 365.676 284.211L358.529 284.758C358.529 284.766 358.515 284.766 358.508 284.766Z" fill="black"/>
<path d="M357.585 304.489C357.391 304.489 357.225 304.331 357.225 304.137C357.225 303.935 357.384 303.777 357.578 303.769C357.809 303.769 380.935 303.431 394.516 303.064C408.046 302.697 419.162 298.615 419.27 298.572C419.457 298.5 419.666 298.601 419.731 298.781C419.803 298.968 419.702 299.177 419.522 299.242C419.407 299.285 408.182 303.402 394.537 303.777C380.949 304.151 357.823 304.482 357.585 304.489C357.593 304.489 357.593 304.489 357.585 304.489Z" fill="black"/>
<path d="M383.406 311.04C370.532 311.04 357.081 310.363 356.901 310.356C356.699 310.349 356.548 310.176 356.562 309.982C356.57 309.78 356.714 309.615 356.937 309.643C357.175 309.658 381.058 310.853 395.611 310.047C409.343 309.291 419.587 305.857 419.688 305.828C419.876 305.771 420.077 305.864 420.142 306.051C420.207 306.239 420.106 306.447 419.919 306.505C419.818 306.541 409.487 309.996 395.654 310.759C391.987 310.961 387.729 311.04 383.406 311.04Z" fill="black"/>
<path d="M453.196 393.109L405.149 392.613C404.04 392.598 402.981 392.123 402.239 391.295C401.511 390.475 401.158 389.388 401.273 388.301L408.226 323.428C408.247 323.227 408.442 323.09 408.622 323.112C408.824 323.133 408.961 323.313 408.939 323.508L401.987 388.38C401.893 389.28 402.167 390.144 402.772 390.82C403.37 391.497 404.242 391.886 405.149 391.9L453.189 392.397C453.391 392.397 453.549 392.562 453.549 392.757C453.556 392.951 453.391 393.109 453.196 393.109Z" fill="black"/>
<path d="M450.746 411.156C450.703 411.156 450.66 411.149 450.617 411.127C450.429 411.055 450.343 410.846 450.415 410.659C451.503 407.902 452.295 405.03 452.771 402.115C453.16 399.732 453.333 397.292 453.297 394.866C453.297 394.664 453.455 394.506 453.65 394.499C453.815 394.499 454.01 394.657 454.017 394.851C454.06 397.313 453.88 399.797 453.484 402.223C453.001 405.188 452.194 408.118 451.085 410.918C451.027 411.07 450.89 411.156 450.746 411.156Z" fill="black"/>
<path d="M324.221 395.6C320.036 395.6 315.792 395.046 311.592 393.952C311.397 393.901 311.282 393.707 311.333 393.512C311.383 393.318 311.578 393.203 311.772 393.253C316.073 394.369 320.417 394.916 324.704 394.873C328.206 394.837 331.693 394.405 335.064 393.584C335.259 393.541 335.453 393.656 335.496 393.851C335.54 394.045 335.424 394.24 335.23 394.283C331.801 395.111 328.256 395.55 324.704 395.586C324.546 395.593 324.38 395.6 324.221 395.6Z" fill="black"/>
<path d="M349.704 289.027C349.56 289.027 349.423 288.941 349.365 288.797C349.3 288.631 342.809 271.823 343.22 254.834C343.227 254.633 343.386 254.475 343.587 254.482C343.789 254.489 343.948 254.654 343.94 254.849C343.53 271.686 349.97 288.365 350.035 288.53C350.107 288.718 350.014 288.926 349.834 288.998C349.79 289.02 349.747 289.027 349.704 289.027Z" fill="black"/>
<path d="M335.46 391.259C335.259 391.259 335.1 391.101 335.1 390.899L335.158 354.806C335.158 353.655 335.612 352.568 336.44 351.754C337.261 350.941 338.357 350.495 339.516 350.495H339.524L359.804 350.523C360.006 350.523 360.164 350.682 360.164 350.883C360.164 351.085 360.006 351.243 359.804 351.243L339.524 351.214H339.516C338.544 351.214 337.636 351.589 336.952 352.265C336.267 352.942 335.885 353.849 335.885 354.806L335.828 390.899C335.821 391.094 335.662 391.259 335.46 391.259Z" fill="black"/>
<path d="M362.902 233.577C360.878 233.577 358.803 232.714 356.822 231.058C356.67 230.928 356.649 230.705 356.771 230.554C356.901 230.403 357.124 230.381 357.275 230.504C359.221 232.116 361.231 232.922 363.097 232.85H363.169C364.149 232.814 366.447 232.721 371.533 226.804C373.183 224.889 375.323 221.534 377.383 218.266C377.491 218.101 377.715 218.05 377.88 218.151C378.046 218.259 378.096 218.482 377.996 218.648C375.928 221.938 373.766 225.314 372.081 227.264C366.785 233.419 364.271 233.52 363.198 233.563C363.104 233.577 363.003 233.577 362.902 233.577Z" fill="black"/>
<path d="M402.297 246.592L394.444 296.909C392.268 303.129 386.065 306.879 379.992 306.008C373.082 305.015 367.809 298.248 368.781 290.733C371.966 271.513 381.396 232.505 381.432 232.462C382.139 231.447 384.53 224.45 391.555 224.882C399.271 225.364 404.011 233.34 402.297 246.592Z" fill="#9C5A4A"/>
<path d="M385.51 305.634L322.067 323.234L311.52 304.806L369.754 282.678C380.215 277.704 391.079 281.857 393.983 288.84C394.559 290.222 394.818 291.719 394.804 293.26C394.753 298.896 390.892 303.805 385.51 305.634Z" fill="#9C5A4A"/>
<path d="M327.946 304.972C327.946 304.972 317.111 300.581 312.586 299.666C308.062 298.752 306.758 300.365 304.676 301.192C302.594 302.02 295.612 301.545 297.27 304.698C298.927 307.851 307.81 306.21 309.957 305.08C312.096 303.949 324.596 311.486 327.946 304.972Z" fill="#9C5A4A"/>
<path d="M305.209 327.366L311.57 324.976L298.019 288.538L291.657 290.927L305.209 327.366Z" fill="#5D5B60"/>
<path d="M292.334 292.086L298.501 289.841L299.892 285.91C300.382 284.924 300.339 283.722 299.777 282.743L297.875 279.453C297.565 278.913 296.895 278.726 296.376 279.036C295.735 279.424 295.533 280.288 295.922 280.965L297.133 283.06C297.594 283.851 297.291 284.226 296.844 285.003L296.52 285.572C296.246 286.047 295.829 286.407 295.324 286.594L293.185 287.4C292.788 287.551 292.349 287.587 291.931 287.501L291.47 287.407C290.476 287.213 290 286.997 289.813 285.968L289.345 283.369C289.179 282.462 288.343 281.843 287.479 281.987C287.017 282.066 286.715 282.512 286.801 282.995L287.558 287.199C287.788 288.48 288.538 289.617 289.611 290.316L292.334 292.086Z" fill="#5D5B60"/>
<path d="M310.677 322.593L304.51 324.839L303.112 328.77C302.623 329.756 302.666 330.958 303.228 331.937L305.13 335.227C305.44 335.767 306.11 335.954 306.628 335.644C307.269 335.255 307.471 334.392 307.082 333.715L305.872 331.62C305.411 330.828 305.713 330.454 306.16 329.677L306.484 329.108C306.758 328.633 307.176 328.273 307.68 328.086L309.82 327.28C310.216 327.128 310.656 327.092 311.073 327.179L311.535 327.272C312.529 327.467 313.004 327.683 313.192 328.712L313.66 331.311C313.826 332.218 314.661 332.837 315.526 332.693C315.987 332.614 316.29 332.167 316.203 331.685L315.447 327.481C315.216 326.2 314.467 325.062 313.393 324.364L310.677 322.593Z" fill="#5D5B60"/>
<path d="M331.657 315.633C331.657 315.633 323.451 323.27 319.567 324.141C315.684 325.012 308.797 325.631 305.785 324.818C302.774 324.004 303.206 323.155 303.206 323.155C303.206 323.155 298.999 322.946 298.48 320.671C298.487 319.548 298.487 319.268 298.487 319.268C298.487 319.268 293.725 319.045 293.761 316.504C293.783 315.1 295.058 314.25 295.058 314.25C293.66 311.645 294.172 310.27 295.072 309.485C297.399 307.469 303.847 308.096 304.56 306.325C304.748 305.85 304.33 305.706 304.568 305.202C305.043 304.187 307.313 303.59 311.462 303.179C314.488 302.884 319.027 302.639 324.812 303.071C327.096 307.261 329.373 311.443 331.657 315.633Z" fill="#9C5A4A"/>
<path d="M404.552 232.498C405.395 235.161 405.531 237.997 405.157 240.762C403.529 252.747 397.275 297.42 393.745 303.395C389.66 310.306 328.667 323.292 328.667 323.292L322.392 299.076L367.946 282.333L380.272 231.346C383.428 224.767 386.987 221.938 394.148 223.082C399.703 223.96 402.995 227.567 404.552 232.498Z" fill="#6E92CC"/>
<path d="M306.153 323.536C305.274 323.536 304.402 323.508 303.53 323.45C303.329 323.436 303.184 323.263 303.192 323.068C303.206 322.867 303.379 322.709 303.573 322.73C305.173 322.831 306.801 322.838 308.408 322.752C309.337 322.701 310.288 322.615 311.225 322.493C311.419 322.464 311.599 322.608 311.628 322.802C311.657 322.997 311.513 323.176 311.318 323.205C310.367 323.328 309.402 323.414 308.451 323.472C307.687 323.515 306.924 323.536 306.153 323.536Z" fill="#5B090B"/>
<path d="M301.16 319.728C300.281 319.728 299.402 319.7 298.53 319.642C298.329 319.628 298.184 319.455 298.192 319.261C298.206 319.059 298.401 318.908 298.573 318.922C300.18 319.023 301.808 319.03 303.408 318.944C304.351 318.886 305.295 318.8 306.225 318.685C306.419 318.656 306.599 318.8 306.628 318.994C306.657 319.189 306.513 319.369 306.318 319.397C305.375 319.52 304.416 319.606 303.451 319.664C302.694 319.714 301.931 319.728 301.16 319.728Z" fill="#5B090B"/>
<path d="M299.085 314.79C297.766 314.79 296.441 314.754 295.122 314.675C294.921 314.661 294.769 314.495 294.784 314.294C294.798 314.099 294.957 313.934 295.166 313.955C296.902 314.056 298.667 314.085 300.389 314.056C301.405 314.034 302.428 313.998 303.422 313.934C303.638 313.912 303.789 314.07 303.804 314.272C303.818 314.474 303.667 314.639 303.465 314.654C302.456 314.718 301.426 314.762 300.396 314.783C299.964 314.783 299.524 314.79 299.085 314.79Z" fill="#5B090B"/>
<path d="M398.053 286.364C398.031 286.364 398.017 286.364 397.995 286.356C397.801 286.328 397.664 286.141 397.693 285.946L401.122 263.149C401.151 262.954 401.331 262.818 401.533 262.846C401.727 262.875 401.864 263.062 401.835 263.257L398.406 286.054C398.384 286.241 398.226 286.364 398.053 286.364Z" fill="black"/>
<path d="M330.18 321.082C330.021 321.082 329.877 320.974 329.834 320.815L324.582 301.545C324.294 300.494 324.884 299.386 325.915 299.026L338.883 294.483C339.07 294.419 339.279 294.519 339.344 294.707C339.409 294.894 339.308 295.103 339.12 295.167L326.152 299.71C325.475 299.947 325.086 300.674 325.273 301.365L330.525 320.643C330.576 320.837 330.468 321.031 330.273 321.082C330.244 321.075 330.216 321.082 330.18 321.082Z" fill="black"/>
<path d="M378.334 289.675C378.219 289.675 378.097 289.617 378.032 289.509C374.732 284.355 367.931 282.692 367.859 282.678C367.665 282.635 367.549 282.44 367.593 282.246C367.636 282.052 367.83 281.929 368.025 281.98C368.313 282.045 375.179 283.722 378.637 289.121C378.745 289.286 378.695 289.509 378.529 289.617C378.464 289.661 378.399 289.675 378.334 289.675Z" fill="black"/>
<path d="M366.202 200.054L374.797 218.554C373.435 219.807 370.626 222.521 368.342 223.78C363.601 226.393 359.106 227.07 356.339 227.25C353.882 222.182 351.433 217.115 348.976 212.047L366.202 200.054Z" fill="#9C5A4A"/>
<path d="M349.178 212.608L351.908 218.022C352.766 217.554 353.572 217.021 354.315 216.416C357.657 213.703 359.595 209.779 360.374 205.676L360.345 205.662L349.178 212.608Z" fill="#5B090B"/>
<path d="M340.316 218.065C342.722 220.807 351.325 216.215 359.336 207.289C367.34 198.355 363.839 186.802 360.762 182.397C357.463 177.696 342.83 169.115 333.393 183.735C333.393 183.735 330.071 203.668 331.166 205.964C332.276 208.261 336.404 206.123 336.404 206.123C336.404 206.123 336.649 207.656 337.11 209.657C337.283 210.398 337.477 211.205 337.701 212.025C338.364 214.401 339.257 216.855 340.316 218.065Z" fill="#9C5A4A"/>
<path d="M335.713 196.455C336.109 197.484 336.872 198.154 337.427 197.945C337.982 197.736 338.112 196.729 337.715 195.699C337.319 194.67 336.555 194 336.001 194.209C335.446 194.418 335.316 195.426 335.713 196.455Z" fill="black"/>
<path d="M333.069 193.497C332.788 193.497 332.521 193.331 332.406 193.057C332.255 192.69 332.427 192.266 332.795 192.114C334.61 191.359 336.577 191.02 338.472 191.143C339.459 191.207 340.439 191.387 341.383 191.69C341.764 191.812 341.973 192.215 341.851 192.597C341.728 192.978 341.325 193.187 340.943 193.065C340.107 192.798 339.243 192.64 338.371 192.582C336.692 192.474 334.949 192.77 333.342 193.446C333.256 193.475 333.162 193.497 333.069 193.497Z" fill="#250705"/>
<path d="M337.701 212.025C338.385 211.817 339.509 211.32 340.424 210.262C341.433 209.103 341.519 208.412 341.577 207.85L337.103 209.657C337.283 210.398 337.478 211.205 337.701 212.025Z" fill="white"/>
<path d="M337.715 187.903C333.717 189.941 328.703 190.48 324.43 188.371C327.24 187.45 329.927 186.197 332.427 184.642C328.703 185.809 324.632 186.01 320.677 185.24C322.961 184.959 324.863 183.469 326.303 181.713C327.744 179.956 328.825 177.912 330.187 176.084C332.341 173.183 335.187 170.85 338.443 169.317C339.949 168.604 341.584 168.064 343.292 168.1C344.999 168.136 346.8 168.813 347.96 170.195C348.969 171.39 349.379 172.988 349.3 174.478C349.221 175.99 348.609 177.372 347.881 178.625C347.355 179.524 346.613 180.251 345.943 181.029C344.833 182.325 343.666 183.57 342.384 184.7C341.123 185.816 339.761 186.816 338.285 187.63C338.09 187.709 337.903 187.81 337.715 187.903Z" fill="#250705"/>
<path d="M356.288 170.483C360.208 171.066 363.716 173.701 365.265 177.271C366.389 179.87 366.497 182.8 366.317 185.643C366.137 188.486 365.697 191.323 365.791 194.166C365.885 197.009 366.425 199.536 367.045 201.782C363.702 203.034 361.31 203.265 357.916 202.271C354.523 201.285 351.468 199.428 348.738 197.24C346.404 195.368 344.271 193.209 342.773 190.632C341.274 188.062 340.446 185.046 340.799 182.073C340.972 180.655 341.425 179.258 342.146 178.005C342.506 177.379 342.931 176.782 343.414 176.242C343.904 175.702 344.487 175.284 345.013 174.781C345.41 174.399 345.712 173.946 346.13 173.578C346.649 173.118 347.211 172.693 347.801 172.326C348.983 171.584 350.28 171.045 351.634 170.713C352.981 170.39 354.386 170.282 355.762 170.418C355.942 170.433 356.115 170.454 356.288 170.483Z" fill="#250705"/>
<path d="M352.06 200.205C352.06 200.205 351.447 193.201 356.296 192.179C360.388 191.315 362.672 197.549 359.617 200.522C357.023 203.049 356.742 204.899 356.742 204.899L352.06 200.205Z" fill="#9C5A4A"/>
<path d="M357.845 199.334C357.773 199.334 357.693 199.32 357.621 199.298C357.239 199.176 357.038 198.766 357.16 198.391C357.701 196.757 357.312 195.397 356.642 195.073C356.418 194.965 356.087 194.958 355.712 195.059C355.33 195.159 354.934 194.936 354.826 194.555C354.725 194.173 354.948 193.777 355.33 193.669C356.051 193.475 356.714 193.511 357.261 193.777C358.724 194.483 359.257 196.613 358.522 198.845C358.428 199.14 358.147 199.334 357.845 199.334Z" fill="#5B090B"/>
<path d="M315.734 262.688C315.576 262.688 315.432 262.58 315.389 262.422C314.337 258.57 308.595 255.439 308.537 255.41C308.364 255.317 308.299 255.101 308.393 254.921C308.487 254.748 308.703 254.683 308.883 254.777C309.128 254.914 314.963 258.088 316.087 262.234C316.138 262.429 316.03 262.623 315.835 262.674C315.799 262.681 315.763 262.688 315.734 262.688Z" fill="black"/>
<path d="M81.5526 409.752C85.9834 413.517 81.9705 422.126 76.6608 420.132C76.5311 420.082 76.4014 420.032 76.2861 419.974C65.2489 414.683 65.9981 412.351 60.2129 411.156C54.6295 410.004 51.8413 411.746 46.2218 408.996C43.5561 407.693 41.5389 406.002 40.2493 404.771C40.2493 404.764 40.2421 404.764 40.2421 404.764C40.2421 404.764 40.2061 403.23 40.451 402.395C42.0792 396.802 43.2896 393.203 44.7593 390.453C45.5662 388.941 46.3227 388.092 47.9437 385.105C48.1094 384.802 48.7866 383.543 49.6512 381.693C49.8313 381.311 50.0186 380.894 50.2131 380.462C50.5589 379.706 50.9119 378.885 51.2649 378.007C51.4379 377.597 51.6036 377.179 51.7693 376.747C51.7981 376.69 51.8197 376.625 51.8413 376.567C54.4998 369.642 55.7894 362.962 56.4378 358.672C61.1135 362.394 65.7748 366.101 70.4433 369.815C68.0586 375.07 66.9419 379.483 66.4088 382.823C66.3295 383.312 66.2647 383.78 66.2143 384.219C66.1062 385.062 66.0414 385.817 65.9981 386.487C65.9837 386.681 65.9765 386.868 65.9765 387.048C65.9477 387.646 65.9477 388.114 65.9693 388.495C65.9981 388.97 65.9909 389.352 66.1278 389.69C69.6868 398.4 75.998 405.037 81.5526 409.752Z" fill="#7F4C3D"/>
<path d="M91.329 417.267C90.7311 418.448 89.8737 419.945 88.7282 421.306C88.7282 421.313 88.7282 421.313 88.721 421.32C87.3378 422.407 85.904 423.141 85.76 423.206C83.541 424.307 81.5021 424.545 79.4704 424.466C77.5252 423.825 74.8236 422.529 70.9043 420.111C67.4966 418.009 65.3785 416.353 63.8583 415.036C60.8901 412.459 60.1552 411.105 56.4953 409.99C54.6222 409.421 53.03 409.234 51.5386 409.09C48.7433 408.816 46.265 408.723 42.9509 406.635C40.5302 405.109 38.8299 403.266 37.7637 401.935C37.7637 401.927 37.7637 401.927 37.7637 401.927C37.7925 401.891 37.8141 401.863 37.8501 401.82C38.0302 401.589 38.2248 401.344 38.4121 401.071L38.4193 401.064L38.4265 401.049C38.4409 401.035 38.4553 401.013 38.4697 400.992C39.5216 399.401 40.6311 397.544 41.6973 395.413C42.8284 393.145 43.7074 390.979 44.4062 388.992C44.7808 387.919 45.0978 386.897 45.3716 385.933C48.6641 387.696 50.1554 389.82 50.8975 391.475C51.3658 392.512 51.8701 394.096 53.347 395.211C53.7865 395.535 54.8095 396.32 56.0847 396.176C57.7633 395.996 58.772 394.362 60.2777 392.634C60.501 392.375 60.746 392.102 61.0198 391.828L61.0342 391.814C62.2301 390.561 63.8871 389.1 66.1349 387.732C66.4519 388.661 66.841 389.726 67.3309 390.885C67.5182 391.324 67.7199 391.785 67.9361 392.246C68.2098 392.843 68.5052 393.455 68.8222 394.081C68.851 394.132 68.8799 394.196 68.9087 394.247C69.3842 395.161 69.8596 396.003 70.3279 396.788C70.9763 397.846 71.6031 398.789 72.1795 399.595C72.5685 400.128 72.9288 400.603 73.2458 401.02C73.289 401.064 73.3178 401.114 73.3538 401.157C73.7213 401.611 74.0382 401.992 74.2904 402.287C74.4561 402.482 74.5858 402.633 74.6939 402.755C75.1117 403.23 75.5152 403.648 75.9042 404.037C76.3653 404.497 76.8048 404.908 77.2659 405.304C77.7125 405.692 78.1664 406.067 78.6563 406.455C80.1405 407.643 81.9344 408.96 84.6865 411.278C84.7009 411.3 84.7153 411.314 84.7369 411.329C85.9689 412.365 87.0928 413.344 88.087 414.237C89.391 415.446 90.4933 416.468 91.329 417.267Z" fill="white"/>
<path d="M91.3291 417.267C90.7311 418.448 89.8738 419.945 88.7283 421.306C88.7283 421.313 88.7283 421.313 88.7211 421.32C87.3378 422.407 85.9041 423.141 85.76 423.206C83.5411 424.307 81.5022 424.545 79.4705 424.466C77.5253 423.825 74.8236 422.529 70.9044 420.111C67.4967 418.009 65.3785 416.353 63.8584 415.036C63.9593 414.949 64.0673 414.87 64.1682 414.784C70.7171 409.846 76.8697 418.628 79.7659 415.338C81.7111 413.121 83.6203 411.876 84.665 411.293C84.6794 411.314 84.6938 411.329 84.7154 411.343C85.9473 412.38 87.0713 413.359 88.0655 414.251C89.3911 415.446 90.4934 416.468 91.3291 417.267Z" fill="#FBAE2C"/>
<path d="M88.7281 421.306C88.7281 421.313 88.7281 421.313 88.7209 421.32C87.3377 422.407 85.9039 423.141 85.7599 423.206C83.5409 424.307 81.502 424.545 79.4703 424.466C78.4257 424.423 77.3738 424.307 76.3004 424.171C74.3407 423.926 72.907 423.458 72.2442 423.264C64.6435 421.039 60.8107 419.88 59.5427 417.527C58.7575 416.065 58.8439 415.237 57.8857 414.474C56.5168 413.38 54.9175 414.748 51.8772 414.82C50.5227 414.849 49.4276 414.546 47.2879 413.92C43.0589 412.682 39.0892 410.846 36.0057 409.212C35.948 408.385 35.7896 404.929 37.7492 401.935C37.778 401.891 37.7996 401.855 37.8284 401.82C37.9365 401.661 38.0445 401.51 38.1598 401.359C38.2319 401.265 38.3111 401.172 38.3904 401.078C38.3904 401.071 38.3976 401.064 38.4048 401.064C38.4192 401.049 38.4336 401.028 38.448 401.006C39.1252 400.214 39.8312 399.667 40.4292 399.293C41.726 399.898 43.5416 400.769 45.6957 401.87C51.7835 405.008 54.831 406.57 57.9938 409.09C61.668 412.02 61.6537 413.042 66.0484 416.245C68.0512 417.699 69.8019 418.765 71.6535 419.664C74.4272 421.011 76.8695 422.119 80.0683 421.925C83.8363 421.687 87.9716 419.643 88.1734 417.606C88.2958 416.353 86.9198 415.043 87.3665 414.446C87.4241 414.366 87.5682 414.266 88.0581 414.258C89.3621 414.23 91.2065 415.633 91.3289 417.282C91.4442 418.772 90.1186 420.219 88.7281 421.306Z" fill="#02102D"/>
<path d="M64.1391 395.269C63.9662 395.802 63.4619 396.104 63.008 395.946C62.5541 395.787 62.3235 395.226 62.4965 394.686C62.6694 394.153 63.1737 393.851 63.6276 394.009C64.0814 394.168 64.312 394.736 64.1391 395.269Z" fill="white"/>
<path d="M78.6274 406.47C76.7687 408.536 75.3998 408.053 75.3998 408.053C62.5182 391.288 60.998 391.835 60.998 391.835L61.0124 391.821C61.5096 390.957 62.2588 389.834 63.3539 388.711C64.5571 387.48 65.7314 386.724 66.5815 386.264C67.1795 388.841 68.1521 392.008 69.7659 395.291C69.7659 395.291 71.7616 399.35 74.2615 402.302C74.4632 402.539 74.665 402.77 74.665 402.77C75.0828 403.245 75.4863 403.662 75.8753 404.051C76.3364 404.512 76.7759 404.922 77.237 405.318C77.6908 405.707 78.1375 406.081 78.6274 406.47Z" fill="#FBAE2C"/>
<path d="M63.8657 395.168C63.7504 395.521 63.4118 395.73 63.1092 395.622C62.8066 395.514 62.6553 395.139 62.7706 394.787C62.8858 394.434 63.2245 394.225 63.5271 394.333C63.8296 394.441 63.9809 394.815 63.8657 395.168Z" fill="#02102D"/>
<path d="M68.1523 401.712C67.9794 402.244 67.475 402.547 67.0212 402.388C66.5673 402.23 66.3367 401.668 66.5096 401.128C66.6825 400.596 67.1869 400.293 67.6407 400.452C68.0946 400.61 68.3252 401.179 68.1523 401.712Z" fill="white"/>
<path d="M67.8783 401.618C67.7631 401.971 67.4245 402.179 67.1219 402.071C66.8193 401.963 66.668 401.589 66.7833 401.236C66.8985 400.884 67.2371 400.675 67.5397 400.783C67.8423 400.884 67.9936 401.258 67.8783 401.618Z" fill="#02102D"/>
<path d="M72.7919 406.225C72.619 406.758 72.1147 407.06 71.6608 406.902C71.2069 406.743 70.9764 406.182 71.1493 405.642C71.3222 405.109 71.8265 404.807 72.2804 404.965C72.7415 405.131 72.9648 405.692 72.7919 406.225Z" fill="white"/>
<path d="M72.518 406.131C72.4027 406.484 72.0641 406.693 71.7615 406.585C71.4589 406.477 71.3076 406.103 71.4229 405.75C71.5382 405.397 71.8768 405.188 72.1794 405.296C72.482 405.397 72.6333 405.779 72.518 406.131Z" fill="#02102D"/>
<path d="M63.0369 395.42C62.9432 395.391 62.8712 395.319 62.8424 395.211C62.8135 395.089 62.8423 394.959 62.9288 394.866C63.8942 393.772 67.446 390.338 67.5973 390.194C67.727 390.072 67.9071 390.086 68.008 390.223C68.1088 390.36 68.08 390.576 67.9575 390.698C67.9287 390.727 65.1334 393.419 63.8005 394.815C63.9806 394.823 64.1608 394.83 64.3409 394.823C64.7948 394.815 65.3279 394.765 65.8754 394.664C66.8624 394.492 68.008 394.16 69.1895 393.714C69.348 393.656 69.5065 393.75 69.5497 393.923C69.593 394.096 69.4993 394.29 69.3408 394.348C68.1304 394.808 66.9561 395.147 65.9259 395.327C65.3495 395.427 64.7876 395.485 64.3121 395.492C63.9014 395.499 63.4835 395.478 63.0801 395.427C63.0657 395.42 63.0513 395.42 63.0369 395.42Z" fill="#02102D"/>
<path d="M67.3308 401.661L67.2515 401.467C66.5311 399.682 68.9734 395.067 69.2543 394.549C69.3408 394.384 69.5281 394.326 69.6578 394.42C69.7947 394.506 69.8307 394.715 69.7442 394.873C69.067 396.133 67.4532 399.552 67.727 400.948C68.0728 400.905 68.4258 400.826 68.7644 400.725C69.8019 400.409 70.7817 399.826 71.6679 398.991C71.7975 398.868 71.9777 398.883 72.0785 399.027C72.1722 399.163 72.1506 399.379 72.0209 399.502C71.0627 400.401 70.0036 401.035 68.8797 401.38C68.433 401.517 67.9792 401.604 67.5253 401.647L67.3308 401.661Z" fill="#02102D"/>
<path d="M71.9129 406.355C71.6607 406.283 71.4662 406.088 71.3437 405.793C70.6161 403.986 72.3596 400.236 72.4316 400.07C72.5109 399.905 72.691 399.833 72.8279 399.905C72.9719 399.984 73.0224 400.185 72.9431 400.351C72.4748 401.352 71.3726 404.217 71.8769 405.469C71.9561 405.664 72.057 405.692 72.1362 405.707C72.8207 405.786 74.3696 404.188 75.1765 403.158C75.2918 403.014 75.4719 402.993 75.5872 403.115C75.7025 403.238 75.7097 403.446 75.5944 403.59C75.3566 403.893 73.2457 406.52 72.0354 406.376C71.9994 406.376 71.9561 406.362 71.9129 406.355Z" fill="#02102D"/>
<path d="M82.2371 195.095L78.7861 302.135L43.8228 381.426C50.2492 386.264 56.409 389.777 60.321 391.612C70.1479 396.219 77.6334 398.328 77.6334 398.328C77.6334 398.328 117.02 313.005 116.682 306.26C116.35 299.508 127.2 196.729 127.2 196.729L82.2371 195.095Z" fill="#FBAE2C"/>
<path d="M78.8793 298.961L93.0001 305.339L77.2007 305.706L78.7857 302.143L78.8793 298.961Z" fill="black"/>
<path d="M159.995 409.738C165.492 411.696 164.822 421.155 159.145 421.162C159.008 421.162 158.871 421.155 158.734 421.147C146.523 420.089 146.379 417.649 140.543 418.57C134.909 419.463 132.928 422.069 126.689 421.486C123.728 421.205 121.235 420.334 119.585 419.643C119.585 419.636 119.578 419.636 119.578 419.636C119.578 419.636 118.994 418.218 118.922 417.347C118.432 411.545 118.274 407.751 118.663 404.663C118.879 402.964 119.275 401.906 119.722 398.544C119.765 398.206 119.945 396.788 120.089 394.751C120.125 394.326 120.147 393.872 120.176 393.405C120.226 392.577 120.262 391.684 120.277 390.734C120.291 390.288 120.298 389.841 120.298 389.381C120.306 389.316 120.298 389.251 120.306 389.186C120.306 381.779 119.117 375.077 118.18 370.837C123.879 372.666 129.578 374.487 135.269 376.315C134.923 382.067 135.464 386.588 136.17 389.892C136.271 390.374 136.379 390.835 136.494 391.267C136.696 392.094 136.905 392.821 137.106 393.462C137.164 393.649 137.229 393.829 137.286 393.995C137.474 394.563 137.64 394.995 137.798 395.348C138 395.78 138.122 396.14 138.374 396.413C144.837 403.31 153.108 407.283 159.995 409.738Z" fill="#7F4C3D"/>
<path d="M171.832 413.323C171.702 414.64 171.429 416.332 170.845 418.009C170.845 418.016 170.845 418.016 170.838 418.023C169.937 419.52 168.857 420.715 168.749 420.831C167.07 422.645 165.254 423.58 163.324 424.221C161.278 424.307 158.28 424.048 153.756 423.17C149.815 422.407 147.243 421.608 145.348 420.91C141.653 419.542 140.478 418.542 136.653 418.786C134.7 418.916 133.144 419.297 131.696 419.693C128.987 420.428 126.638 421.205 122.784 420.427C119.974 419.859 117.726 418.729 116.257 417.865C116.257 417.858 116.25 417.858 116.25 417.858C116.264 417.814 116.271 417.778 116.286 417.728C116.372 417.447 116.466 417.152 116.545 416.828L116.552 416.821V416.807C116.559 416.785 116.566 416.763 116.574 416.742C116.992 414.885 117.359 412.754 117.59 410.386C117.834 407.873 117.878 405.534 117.82 403.432C117.784 402.295 117.712 401.229 117.626 400.236C121.336 400.725 123.49 402.187 124.78 403.468C125.587 404.267 126.624 405.577 128.411 406.103C128.937 406.254 130.169 406.621 131.314 406.045C132.813 405.282 133.173 403.403 133.965 401.251C134.081 400.927 134.217 400.589 134.369 400.236L134.376 400.214C135.046 398.623 136.069 396.673 137.676 394.607C138.302 395.362 139.052 396.219 139.923 397.133C140.255 397.479 140.608 397.839 140.975 398.191C141.444 398.652 141.941 399.12 142.467 399.595C142.51 399.638 142.56 399.682 142.611 399.718C143.382 400.409 144.131 401.028 144.851 401.596C145.838 402.359 146.761 403.022 147.589 403.569C148.144 403.929 148.648 404.253 149.102 404.526C149.152 404.555 149.203 404.584 149.253 404.62C149.758 404.915 150.19 405.16 150.528 405.347C150.752 405.469 150.932 405.563 151.076 405.642C151.638 405.937 152.164 406.189 152.668 406.412C153.266 406.678 153.821 406.909 154.39 407.118C154.945 407.319 155.507 407.513 156.105 407.708C157.913 408.291 160.067 408.896 163.468 410.091C163.489 410.105 163.511 410.112 163.533 410.119C165.053 410.659 166.458 411.177 167.704 411.66C169.361 412.293 170.759 412.869 171.832 413.323Z" fill="white"/>
<path d="M171.832 413.323C171.702 414.64 171.428 416.332 170.845 418.009C170.845 418.016 170.845 418.016 170.838 418.023C169.937 419.52 168.856 420.715 168.748 420.831C167.07 422.645 165.254 423.58 163.323 424.221C161.277 424.307 158.28 424.048 153.756 423.17C149.815 422.407 147.243 421.608 145.348 420.91C145.413 420.795 145.478 420.687 145.55 420.564C149.894 413.639 158.799 419.679 160.326 415.59C161.349 412.833 162.689 410.998 163.453 410.083C163.475 410.098 163.496 410.105 163.518 410.112C165.038 410.652 166.443 411.17 167.689 411.653C169.361 412.293 170.758 412.869 171.832 413.323Z" fill="#FBAE2C"/>
<path d="M170.845 418.009C170.845 418.016 170.845 418.016 170.838 418.023C169.937 419.52 168.857 420.715 168.748 420.831C167.07 422.645 165.254 423.58 163.323 424.221C162.329 424.552 161.306 424.811 160.254 425.063C158.338 425.524 156.832 425.596 156.141 425.646C148.237 426.251 144.246 426.51 142.207 424.761C140.946 423.674 140.73 422.868 139.563 422.486C137.892 421.946 136.89 423.789 134.073 424.927C132.82 425.43 131.689 425.531 129.462 425.697C125.068 426.028 120.702 425.718 117.229 425.272C116.883 424.516 115.486 421.342 116.249 417.858C116.257 417.807 116.271 417.771 116.285 417.721C116.329 417.534 116.379 417.354 116.429 417.167C116.465 417.051 116.502 416.936 116.545 416.821C116.545 416.814 116.545 416.807 116.552 416.799C116.559 416.778 116.566 416.756 116.574 416.735C116.919 415.763 117.388 414.993 117.813 414.438C119.239 414.546 121.249 414.719 123.656 414.993C130.471 415.777 133.879 416.166 137.748 417.411C142.236 418.851 142.582 419.816 147.841 421.263C150.233 421.918 152.25 422.292 154.303 422.479C157.38 422.76 160.06 422.94 162.978 421.622C166.414 420.075 169.548 416.706 169.001 414.734C168.662 413.517 166.911 412.776 167.113 412.063C167.142 411.962 167.243 411.825 167.689 411.645C168.893 411.163 171.126 411.825 171.832 413.323C172.473 414.683 171.76 416.504 170.845 418.009Z" fill="#02102D"/>
<path d="M138.519 402.338C138.547 402.899 138.18 403.36 137.704 403.367C137.222 403.374 136.811 402.928 136.775 402.374C136.746 401.812 137.114 401.352 137.589 401.344C138.079 401.33 138.49 401.776 138.519 402.338Z" fill="white"/>
<path d="M156.083 407.701C155.081 410.285 153.633 410.314 153.633 410.314C135.586 399.185 134.354 400.229 134.354 400.229L134.361 400.207C134.512 399.228 134.815 397.904 135.442 396.478C136.126 394.902 136.955 393.779 137.582 393.052C139.066 395.247 141.105 397.868 143.792 400.365C143.792 400.365 147.113 403.461 150.514 405.332C150.787 405.484 151.061 405.627 151.061 405.627C151.623 405.923 152.149 406.175 152.653 406.398C153.251 406.664 153.806 406.894 154.375 407.103C154.93 407.312 155.485 407.506 156.083 407.701Z" fill="#FBAE2C"/>
<path d="M138.23 402.345C138.252 402.719 138.007 403.029 137.682 403.036C137.358 403.043 137.084 402.748 137.063 402.374C137.041 401.999 137.286 401.69 137.61 401.683C137.935 401.668 138.208 401.971 138.23 402.345Z" fill="#02102D"/>
<path d="M144.584 406.945C144.613 407.506 144.246 407.967 143.77 407.974C143.288 407.981 142.877 407.535 142.841 406.981C142.812 406.419 143.18 405.959 143.655 405.951C144.131 405.944 144.556 406.391 144.584 406.945Z" fill="white"/>
<path d="M144.296 406.952C144.318 407.326 144.073 407.636 143.749 407.643C143.425 407.65 143.151 407.355 143.129 406.981C143.108 406.606 143.353 406.297 143.677 406.29C144.001 406.283 144.275 406.578 144.296 406.952Z" fill="#02102D"/>
<path d="M150.543 409.529C150.572 410.09 150.204 410.551 149.729 410.558C149.246 410.566 148.835 410.119 148.799 409.565C148.771 409.004 149.138 408.543 149.614 408.536C150.089 408.528 150.514 408.968 150.543 409.529Z" fill="white"/>
<path d="M150.254 409.536C150.276 409.911 150.031 410.22 149.707 410.227C149.383 410.234 149.109 409.939 149.087 409.565C149.066 409.191 149.311 408.881 149.635 408.874C149.959 408.867 150.233 409.162 150.254 409.536Z" fill="#02102D"/>
<path d="M137.546 402.863C137.452 402.871 137.351 402.827 137.286 402.734C137.214 402.633 137.193 402.496 137.236 402.381C137.74 401.02 139.837 396.557 139.923 396.37C139.995 396.212 140.175 396.154 140.32 396.255C140.464 396.349 140.514 396.557 140.442 396.716C140.42 396.759 138.785 400.257 138.036 402.028C138.209 401.971 138.382 401.913 138.547 401.848C138.972 401.683 139.448 401.445 139.923 401.157C140.788 400.646 141.739 399.934 142.675 399.098C142.798 398.983 142.985 399.019 143.086 399.171C143.187 399.322 143.165 399.53 143.043 399.646C142.077 400.502 141.098 401.236 140.204 401.762C139.7 402.057 139.203 402.309 138.749 402.489C138.367 402.64 137.971 402.763 137.575 402.863C137.575 402.863 137.56 402.863 137.546 402.863Z" fill="#02102D"/>
<path d="M143.799 407.19L143.655 407.038C142.337 405.62 142.963 400.452 143.043 399.869C143.064 399.682 143.216 399.559 143.374 399.602C143.533 399.638 143.641 399.818 143.619 399.998C143.439 401.416 143.158 405.181 143.914 406.39C144.224 406.225 144.52 406.031 144.801 405.815C145.658 405.152 146.364 404.26 146.89 403.173C146.969 403.014 147.142 402.964 147.286 403.058C147.43 403.151 147.481 403.36 147.401 403.518C146.832 404.699 146.069 405.656 145.139 406.376C144.772 406.664 144.375 406.909 143.965 407.103L143.799 407.19Z" fill="#02102D"/>
<path d="M149.765 409.961C149.505 409.983 149.253 409.875 149.03 409.637C147.697 408.205 147.985 404.08 147.992 403.907C148.007 403.72 148.151 403.59 148.309 403.612C148.468 403.634 148.59 403.806 148.576 403.993C148.497 405.095 148.497 408.161 149.419 409.148C149.563 409.299 149.671 409.299 149.743 409.277C150.413 409.112 151.285 407.067 151.674 405.822C151.724 405.649 151.897 405.563 152.049 405.635C152.2 405.707 152.279 405.901 152.229 406.074C152.113 406.441 151.083 409.637 149.902 409.932C149.851 409.947 149.808 409.954 149.765 409.961Z" fill="#02102D"/>
<path d="M103.541 209.247C103.541 209.247 102.071 242.129 103.08 256.944C106.552 307.693 112.064 396.932 112.064 396.932C112.064 396.932 126.379 400.495 148.893 393.7C149.83 393.656 144.621 202.048 144.621 202.048C144.621 202.048 122.128 197.52 103.541 209.247Z" fill="#FBAE2C"/>
<path d="M121.869 118.942C112.726 117.683 98.9225 118.064 90.6013 121.85C84.989 124.406 77.1649 127.199 79.9603 146.563C84.4271 177.552 83.8075 214.271 83.8075 214.271L142.812 214.833C142.812 214.833 150.125 187.759 149.815 145.692C149.664 126.335 136.134 120.9 121.869 118.942Z" fill="#6E92CC"/>
<path d="M81.603 230.439L82.1649 199.896C82.237 169.814 81.6102 164.48 81.4517 159.685C94.499 159.844 108.036 159.678 121.091 159.837C121.804 163.313 122.027 177.235 124.599 181.18C129.945 189.365 145.118 188.99 149.296 169.115C150.586 182.922 143.518 211.162 143.547 214.703C143.634 226.89 143.727 239.07 143.814 251.257L92.9716 243.756C86.3507 242.784 81.4805 237.083 81.603 230.439Z" fill="#FBAE2C"/>
<path d="M109.816 215.445C100.594 215.445 91.3075 214.941 82.1722 213.947C81.9777 213.926 81.8336 213.746 81.8552 213.551C81.8768 213.357 82.0497 213.206 82.2514 213.235C92.1504 214.314 102.229 214.811 112.208 214.718C122.561 214.617 132.993 213.883 143.223 212.529C143.425 212.508 143.605 212.644 143.626 212.839C143.655 213.033 143.511 213.22 143.317 213.242C133.057 214.602 122.589 215.344 112.208 215.437C111.415 215.445 110.616 215.445 109.816 215.445Z" fill="black"/>
<path d="M109.873 222.6C100.652 222.6 91.3578 222.096 82.2225 221.103C82.0279 221.081 81.8839 220.901 81.9055 220.707C81.9271 220.512 82.1 220.361 82.3017 220.39C92.2007 221.47 102.28 221.966 112.258 221.873C122.604 221.772 133.043 221.038 143.28 219.684C143.482 219.656 143.662 219.8 143.684 219.994C143.713 220.188 143.569 220.376 143.374 220.397C133.108 221.758 122.647 222.499 112.265 222.593C111.465 222.593 110.673 222.6 109.873 222.6Z" fill="black"/>
<path d="M95.3213 214.256L93.3257 214.27L93.3796 221.937L95.3753 221.923L95.3213 214.256Z" fill="black"/>
<path d="M128.802 214.018L126.691 214.033L126.745 221.7L128.856 221.685L128.802 214.018Z" fill="black"/>
<path d="M125.262 122.865C122.503 123.412 118.735 123.873 114.297 123.571C110.421 123.305 107.157 122.534 104.686 121.764C105.068 114.832 105.443 107.907 105.824 100.975L126.4 102.076L125.262 122.865Z" fill="#7F4C3D"/>
<path d="M129.563 115.199L110.579 115.444C107.453 115.487 104.859 112.96 104.816 109.829L104.427 79.6964C104.384 76.565 106.912 73.9736 110.046 73.9376L123.886 73.7648C130.341 73.6857 135.694 78.8973 135.781 85.3471L136.083 108.533C136.127 112.147 133.194 115.156 129.563 115.199Z" fill="#7F4C3D"/>
<path d="M108.908 70.4176C104.744 72.1884 101.458 76.2771 100.601 80.6825C100.054 83.5115 99.5852 86.6357 100.046 90.7532C100.925 98.4987 103.173 106.705 104.175 110.095C104.463 111.074 105.327 111.679 106.343 111.859C113.115 113.047 119.534 113.666 122.69 111.902C123.792 111.29 123.735 108.476 125.644 100.968C126.429 97.8796 127.445 95.4106 128.237 93.7333C135.183 89.1263 135.5 84.9368 135.521 83.8571C135.701 72.5843 122.553 64.6228 108.908 70.4176Z" fill="#2A0113"/>
<path d="M146.098 88.0465L124.21 88.4424L124.088 81.8991L143.021 81.5175C147.207 81.2224 149.304 82.9068 149.34 84.7137C149.376 86.5205 147.928 88.0177 146.098 88.0465Z" fill="#FBAE2C"/>
<path d="M99.2899 89.2055L136.501 88.1977C137.51 76.4499 127.812 66.7536 117.107 67.1495C106.53 67.5454 97.6545 77.6808 99.2899 89.2055Z" fill="#FBAE2C"/>
<path d="M131.415 95.5473C131.415 95.5473 129.945 89.9829 125.968 90.53C122.611 90.9979 122.596 96.4327 125.745 97.8796C128.425 99.1105 129.145 100.464 129.145 100.464L131.415 95.5473Z" fill="#7F4C3D"/>
<path d="M126.566 96.6415C126.35 96.6415 126.141 96.5479 125.997 96.3607C124.787 94.7915 124.607 92.9343 125.565 91.9409C125.817 91.6746 126.293 91.3506 127.099 91.2858C127.496 91.2498 127.842 91.5522 127.878 91.9481C127.906 92.344 127.618 92.6895 127.215 92.7255C126.84 92.7543 126.667 92.8767 126.602 92.9487C126.271 93.2942 126.271 94.3668 127.135 95.4825C127.38 95.7993 127.323 96.2456 127.006 96.4903C126.876 96.5911 126.718 96.6415 126.566 96.6415Z" fill="#844B42"/>
<path d="M101.293 87.1108L109.65 86.9668C109.348 84.7209 107.338 83.1156 105.169 83.2668C103.166 83.4107 101.487 85.0304 101.293 87.1108Z" fill="#2A0113"/>
<path d="M124.527 88.7592C124.369 88.7592 124.225 88.6584 124.181 88.4928C124.131 88.2985 124.239 88.1041 124.433 88.0465C124.513 88.0249 132.567 85.7718 134.88 83.8714C136.061 82.8997 135.629 81.8343 135.608 81.7911C135.528 81.6111 135.615 81.3952 135.795 81.316C135.975 81.2368 136.184 81.316 136.263 81.496C136.508 82.043 136.623 83.3676 135.327 84.4257C132.892 86.4197 124.952 88.644 124.614 88.7376C124.592 88.752 124.563 88.7592 124.527 88.7592Z" fill="black"/>
<path d="M101.279 83.5547C101.192 83.5547 101.106 83.5259 101.034 83.4611C100.89 83.3244 100.875 83.1012 101.012 82.95C101.048 82.9068 104.982 78.7461 109.744 82.7485C109.895 82.8781 109.917 83.1012 109.787 83.2524C109.657 83.4035 109.434 83.4251 109.283 83.2956C105.039 79.7323 101.689 83.2812 101.545 83.4323C101.473 83.5115 101.379 83.5547 101.279 83.5547Z" fill="black"/>
<path d="M115.882 126.155C105.954 126.155 102.388 124.435 101.192 122.901C100.45 121.958 100.673 121.152 100.681 121.116C100.738 120.922 100.94 120.814 101.127 120.871C101.315 120.929 101.43 121.123 101.379 121.311C101.372 121.339 101.264 121.843 101.797 122.498C102.835 123.772 106.502 125.831 119.47 125.37C119.672 125.356 119.837 125.522 119.844 125.716C119.852 125.918 119.693 126.083 119.499 126.09C118.202 126.134 116.999 126.155 115.882 126.155Z" fill="black"/>
<path d="M81.459 159.685C81.9849 152.746 83.1088 144.77 85.2846 136.096C86.5598 131.007 88.0367 126.328 89.5784 122.095C91.6173 121.332 93.4977 120.54 96.3002 119.885C94.6864 124.579 92.5539 129.869 91.3724 135.859C89.564 144.986 89.0165 153.207 89.0309 160.067C86.5021 159.945 83.9806 159.815 81.459 159.685Z" fill="#FBAE2C"/>
<path d="M191.479 175.45C191.479 175.45 198.445 169.13 201.637 167.265C204.828 165.401 206.341 166.445 208.207 166.639C210.066 166.841 215.297 164.746 215.008 167.805C214.72 170.865 207.372 171.628 205.362 171.189C203.359 170.757 196.104 180.136 191.479 175.45Z" fill="#7F4C3D"/>
<path d="M145.471 130.935L163.165 166.142C168.237 173.542 166.104 182.123 161.385 184.642C158.179 186.356 153.59 185.377 149.865 182.569C146.76 178.178 142.769 172.29 138.432 165.142C124.635 142.409 124.981 136.089 126.199 132.238C126.602 130.964 128.662 125.054 133.475 124.003C137.502 123.11 142.272 125.874 145.471 130.935Z" fill="#7F4C3D"/>
<path d="M205.059 174.917C199.893 173.254 168.02 166.279 156.385 166.869C152.891 167.049 151.342 168.201 150.542 169.202C148.251 172.074 147.538 178.459 149.75 181.777C152.336 185.65 156.637 187.061 160.247 187.896C175.023 191.315 194.259 188.839 201.982 187.666C202.537 184.909 204.504 177.682 205.059 174.917Z" fill="#7F4C3D"/>
<path d="M206.269 163.299L196.111 203.79C195.621 205.748 196.839 207.728 198.813 208.174L213.928 211.565C216.017 212.033 218.056 210.586 218.293 208.455L220.404 189.516C220.548 188.242 220.066 186.968 219.115 186.111L213.827 181.331C212.825 180.424 212.35 179.071 212.559 177.739L214.554 165.171L206.269 163.299Z" fill="#AEACB1"/>
<path d="M206.01 163.976L214.641 165.783C214.886 165.833 215.123 165.675 215.174 165.437L215.786 162.529C215.837 162.284 215.678 162.047 215.44 161.996L206.809 160.189C206.565 160.139 206.327 160.297 206.276 160.535L205.664 163.443C205.614 163.688 205.765 163.925 206.01 163.976Z" fill="#FBAE2C"/>
<path d="M221.679 160.628L223.617 161.046C223.783 161.082 223.956 160.974 223.992 160.808L224.475 158.577C224.511 158.411 224.403 158.239 224.237 158.203L222.299 157.785C222.133 157.749 221.96 157.857 221.924 158.023L221.442 160.254C221.398 160.42 221.507 160.592 221.679 160.628Z" fill="#AEACB1"/>
<path d="M200.931 156.129L206.5 153.689C206.709 153.596 206.947 153.574 207.17 153.617L221.723 156.489C222.335 156.612 222.732 157.202 222.616 157.821L221.694 162.471C221.572 163.083 220.981 163.479 220.361 163.364L205.772 160.484C205.642 160.456 205.506 160.456 205.376 160.477L200.981 161.176C200.203 161.298 199.54 160.614 199.692 159.837L200.261 156.95C200.347 156.583 200.592 156.281 200.931 156.129Z" fill="#FBAE2C"/>
<path d="M189.375 185.823C189.375 185.823 198.092 190.279 201.356 190.077C204.62 189.876 210.117 188.731 212.177 187.32C214.238 185.902 213.64 185.298 213.64 185.298C213.64 185.298 216.817 184.103 216.5 182.058C216.147 181.115 216.053 180.878 216.053 180.878C216.053 180.878 219.648 179.539 218.827 177.408C218.373 176.227 217.119 175.824 217.119 175.824C217.379 173.291 216.55 172.254 215.614 171.808C213.186 170.67 205.304 174.061 204.202 172.743C203.906 172.391 203.481 171.131 203.056 170.872C201.745 170.087 201.615 170.483 201.025 170.454C198.604 170.937 190.744 171.836 190.744 171.836C190.744 171.836 189.814 181.741 189.375 185.823Z" fill="#7F4C3D"/>
<path d="M209.987 182.936C209.814 182.936 209.663 182.814 209.634 182.634C209.605 182.44 209.735 182.253 209.929 182.224C210.679 182.101 211.435 181.943 212.17 181.763C213.431 181.454 214.67 181.058 215.873 180.583C216.06 180.511 216.269 180.597 216.341 180.784C216.413 180.971 216.327 181.18 216.14 181.252C214.908 181.734 213.632 182.145 212.343 182.461C211.586 182.648 210.815 182.807 210.045 182.929C210.023 182.929 210.009 182.936 209.987 182.936Z" fill="#844B42"/>
<path d="M210.671 178.236C210.505 178.236 210.361 178.128 210.318 177.962C210.275 177.768 210.39 177.574 210.585 177.53C211.377 177.343 212.177 177.134 212.955 176.904C214.295 176.515 215.635 176.062 216.939 175.558C217.126 175.486 217.335 175.58 217.407 175.767C217.479 175.954 217.386 176.163 217.198 176.235C215.88 176.746 214.518 177.199 213.157 177.595C212.364 177.826 211.557 178.041 210.75 178.229C210.729 178.236 210.7 178.236 210.671 178.236Z" fill="#844B42"/>
<path d="M124.268 131.899C123.8 135.902 124.534 139.955 126.112 143.662C128.771 149.91 127.135 150.371 131.386 157.663C137.755 168.59 145.161 181.317 150.557 185.499C154.909 188.875 162.351 189.257 170.218 190.279C178.77 191.395 186.169 191.143 191.846 190.531C191.068 183.678 190.29 176.818 189.512 169.965L166.112 166.229C166.112 166.229 151.767 128.804 138.972 123.65C129.383 119.784 125.118 124.579 124.268 131.899Z" fill="#6E92CC"/>
<path d="M180.744 191.488C170.477 191.488 155.723 190.516 149.505 185.377C139.757 177.322 128.05 149.975 127.56 148.816C127.481 148.636 127.567 148.42 127.748 148.341C127.928 148.262 128.144 148.348 128.223 148.528C128.346 148.809 140.348 176.875 149.966 184.815C159.534 192.726 191.169 190.437 191.486 190.408C191.687 190.401 191.86 190.545 191.875 190.74C191.889 190.941 191.738 191.114 191.543 191.128C191.053 191.171 186.637 191.488 180.744 191.488Z" fill="black"/>
<path d="M158.554 172.254C158.467 172.254 158.388 172.225 158.316 172.168C158.165 172.038 158.15 171.808 158.28 171.656C163.093 166.171 165.967 165.883 166.083 165.869C166.284 165.855 166.457 165.998 166.472 166.2C166.486 166.394 166.342 166.567 166.147 166.589C166.104 166.596 163.388 166.934 158.828 172.132C158.748 172.211 158.655 172.254 158.554 172.254Z" fill="black"/>
<path d="M121.098 159.844C121.098 159.844 122.827 146.915 124.491 142.906C131.004 127.206 136.667 122.952 136.667 122.952C136.047 122.549 135.233 122.095 134.232 121.714C133.374 121.39 132.582 121.203 131.933 121.095C130.874 121.994 129.441 123.29 127.863 124.982C125.565 127.444 122.74 130.956 120.637 135.132C116.422 143.482 113.382 161.003 113.382 161.003L121.098 159.844Z" fill="#FBAE2C"/>
<path d="M108.223 330.123L100.183 256.577L99.0952 351.236L108.223 330.123Z" fill="black"/>
<path d="M123.547 394.34C120.651 394.34 117.755 394.153 114.873 393.779C114.679 393.75 114.534 393.57 114.563 393.376C114.592 393.181 114.772 393.037 114.967 393.066C120.665 393.8 126.436 393.8 132.106 393.066C136.429 392.505 140.708 391.511 144.851 390.115L138.742 220.268C138.734 220.066 138.893 219.9 139.087 219.893C139.289 219.879 139.455 220.044 139.462 220.239L145.586 390.619L145.334 390.705C141.076 392.166 136.652 393.196 132.2 393.779C129.332 394.153 126.436 394.34 123.547 394.34Z" fill="black"/>
<path d="M76.1417 394.931C76.0696 394.931 76.0048 394.909 75.9471 394.873C75.8463 394.837 75.6085 394.765 75.2555 394.657C72.6691 393.865 64.7946 391.468 58.0368 387.66C54.3265 385.573 50.7963 382.938 47.5399 379.828L47.3525 379.648L47.4606 379.418L81.8981 303.489L83.9801 220.937C83.9874 220.735 84.1387 220.57 84.3476 220.584C84.5493 220.591 84.7006 220.757 84.7006 220.951L82.6113 303.654L82.5825 303.719L48.2171 379.483C51.3799 382.47 54.7948 385.011 58.3826 387.034C65.0684 390.799 72.8925 393.181 75.4572 393.966C76.3794 394.247 76.3794 394.247 76.4587 394.398L76.5163 394.52L76.4154 394.923L76.1417 394.931Z" fill="black"/>
<path d="M160.24 153.207C160.118 153.207 159.995 153.142 159.93 153.034L147.791 132.727C147.69 132.555 147.747 132.339 147.913 132.231C148.086 132.13 148.302 132.187 148.41 132.353L160.55 152.66C160.651 152.833 160.593 153.048 160.427 153.156C160.37 153.192 160.305 153.207 160.24 153.207Z" fill="black"/>
</g>
<path d="M447.293 186.58C448.395 202.446 469.857 208.197 477.962 210.4C482.307 211.581 501.629 216.828 508.934 208.622C515.469 201.28 508.084 188.042 505.037 182.571C500.491 174.415 491.226 157.578 474.367 158.751C458.424 159.86 446.299 172.32 447.293 186.58Z" fill="#24282D"/>
<path d="M270.567 446.174C272.144 439.595 245.459 426.544 224.213 420.073C181.995 407.224 131.563 411.319 130.036 421.174C128.156 433.296 200.489 452.696 251.439 450.947C264.4 450.508 269.911 448.903 270.567 446.174Z" fill="#24282D"/>
<defs>
<linearGradient id="paint0_linear_246_478" x1="342.302" y1="376.535" x2="318.846" y2="410.482" gradientUnits="userSpaceOnUse">
<stop stop-color="#FC6C6D"/>
<stop offset="0.919" stop-color="#FFB57B"/>
</linearGradient>
<linearGradient id="paint1_linear_246_478" x1="438.965" y1="397.498" x2="471.847" y2="397.648" gradientUnits="userSpaceOnUse">
<stop stop-color="#FC6C6D"/>
<stop offset="0.919" stop-color="#FFB57B"/>
</linearGradient>
</defs>
</svg>
