<svg width="426" height="426" viewBox="0 0 426 426" fill="none" xmlns="http://www.w3.org/2000/svg">
<g clip-path="url(#clip0_415_71)">
<path d="M395.293 46.3786V356.055C395.293 363.361 389.372 369.282 382.07 369.282H43.9281C36.6265 369.282 30.7051 363.361 30.7051 356.055V46.3786C30.7051 39.0685 36.6265 33.1471 43.9281 33.1471H382.07C389.372 33.1471 395.293 39.0685 395.293 46.3786Z" fill="#F3F8FF"/>
<path d="M395.293 62.4857V60.4537H367.429V33.1471H365.397V60.4537H333.37V33.1471H331.338V60.4537H299.315V33.1471H297.283V60.4537H265.257V33.1471H263.225V60.4537H231.202V33.1471H229.17V60.4537H197.144V33.1471H195.112V60.4537H163.089V33.1471H161.057V60.4537H129.035V33.1471H127.003V60.4537H94.976V33.1471H92.944V60.4537H60.9216V33.1471H58.8896V60.4537H30.7012V62.4857H58.8896V94.5166H30.7012V96.5486H58.8896V128.584H30.7012V130.616H58.8896V162.647H30.7012V164.679H58.8896V196.714H30.7012V198.746H58.8896V230.777H30.7012V232.809H58.8896V264.84H30.7012V266.872H58.8896V298.907H30.7012V300.939H58.8896V332.97H30.7012V335.002H58.8896V369.295H60.9216V335.002H92.944V369.295H94.976V335.002H127.003V369.295H129.035V335.002H161.057V369.295H163.089V335.002H195.112V369.295H197.144V335.002H229.17V369.295H231.202V335.002H263.225V369.295H265.257V335.002H297.283V369.295H299.315V335.002H331.338V369.295H333.37V335.002H365.397V369.295H367.429V335.002H395.293V332.97H367.429V300.939H395.293V298.907H367.429V266.872H395.293V264.84H367.429V232.809H395.293V230.777H367.429V198.746H395.293V196.714H367.429V164.679H395.293V162.647H367.429V130.616H395.293V128.584H367.429V96.5486H395.293V94.5166H367.429V62.4857H395.293ZM92.9483 332.957H60.9259V300.926H92.9483V332.957ZM92.9483 298.899H60.9259V266.863H92.9483V298.899ZM92.9483 264.831H60.9259V232.8H92.9483V264.831ZM92.9483 230.768H60.9259V198.738H92.9483V230.768ZM92.9483 196.706H60.9259V164.67H92.9483V196.706ZM92.9483 162.638H60.9259V130.607H92.9483V162.638ZM92.9483 128.58H60.9259V96.5444H92.9483V128.58ZM92.9483 94.5124H60.9259V62.4814H92.9483V94.5124ZM127.007 332.953H94.9803V300.922H127.007V332.953ZM127.007 298.894H94.9803V266.859H127.007V298.894ZM127.007 264.827H94.9803V232.796H127.007V264.827ZM127.007 230.764H94.9803V198.733H127.007V230.764ZM127.007 196.701H94.9803V164.666H127.007V196.701ZM127.007 162.634H94.9803V130.603H127.007V162.634ZM127.007 128.575H94.9803V96.5401H127.007V128.575ZM127.007 94.5081H94.9803V62.4772H127.007V94.5081ZM161.061 332.949H129.039V300.918H161.061V332.949ZM161.061 298.89H129.039V266.855H161.061V298.89ZM161.061 264.823H129.039V232.792H161.061V264.823ZM161.061 230.76H129.039V198.729H161.061V230.76ZM161.061 196.697H129.039V164.662H161.061V196.697ZM161.061 162.63H129.039V130.599H161.061V162.63ZM161.061 128.571H129.039V96.5359H161.061V128.571ZM161.061 94.5038H129.039V62.4729H161.061V94.5038ZM195.116 332.945H163.093V300.914H195.116V332.945ZM195.116 298.886H163.093V266.851H195.116V298.886ZM195.116 264.819H163.093V232.788H195.116V264.819ZM195.116 230.756H163.093V198.725H195.116V230.756ZM195.116 196.693H163.093V164.658H195.116V196.693ZM195.116 162.626H163.093V130.595H195.116V162.626ZM195.116 128.567H163.093V96.5316H195.116V128.567ZM195.116 94.4996H163.093V62.4686H195.116V94.4996ZM229.175 332.94H197.148V300.909H229.175V332.94ZM229.175 298.882H197.148V266.846H229.175V298.882ZM229.175 264.814H197.148V232.783H229.175V264.814ZM229.175 230.751H197.148V198.721H229.175V230.751ZM229.175 196.688H197.148V164.653H229.175V196.688ZM229.175 162.621H197.148V130.59H229.175V162.621ZM229.175 128.563H197.148V96.5273H229.175V128.563ZM229.175 94.4953H197.148V62.4644H229.175V94.4953ZM263.229 332.936H231.207V300.905H263.229V332.936ZM263.229 298.877H231.207V266.842H263.229V298.877ZM263.229 264.81H231.207V232.779H263.229V264.81ZM263.229 230.747H231.207V198.716H263.229V230.747ZM263.229 196.684H231.207V164.649H263.229V196.684ZM263.229 162.617H231.207V130.586H263.229V162.617ZM263.229 128.558H231.207V96.5231H263.229V128.558ZM263.229 94.4911H231.207V62.4601H263.229V94.4911ZM297.288 332.932H265.261V300.901H297.288V332.932ZM297.288 298.873H265.261V266.838H297.288V298.873ZM297.288 264.806H265.261V232.775H297.288V264.806ZM297.288 230.743H265.261V198.712H297.288V230.743ZM297.288 196.68H265.261V164.645H297.288V196.68ZM297.288 162.613H265.261V130.582H297.288V162.613ZM297.288 128.554H265.261V96.5188H297.288V128.554ZM297.288 94.4868H265.261V62.4559H297.288V94.4868ZM331.342 332.928H299.32V300.897H331.342V332.928ZM331.342 298.869H299.32V266.834H331.342V298.869ZM331.342 264.802H299.32V232.771H331.342V264.802ZM331.342 230.739H299.32V198.708H331.342V230.739ZM331.342 196.676H299.32V164.64H331.342V196.676ZM331.342 162.608H299.32V130.578H331.342V162.608ZM331.342 128.55H299.32V96.5146H331.342V128.55ZM331.342 94.4825H299.32V62.4516H331.342V94.4825ZM365.401 332.923H333.374V300.892H365.401V332.923ZM365.401 298.865H333.374V266.829H365.401V298.865ZM365.401 264.797H333.374V232.766H365.401V264.797ZM365.401 230.734H333.374V198.703H365.401V230.734ZM365.401 196.671H333.374V164.636H365.401V196.671ZM365.401 162.604H333.374V130.573H365.401V162.604ZM365.401 128.546H333.374V96.5103H365.401V128.546ZM365.401 94.4783H333.374V62.4473H365.401V94.4783Z" fill="#CDDFF9"/>
<path d="M118.785 0H46.4506C43.9214 0 41.8711 2.05031 41.8711 4.5795V110.049C41.8711 112.578 43.9214 114.628 46.4506 114.628H118.785C121.315 114.628 123.365 112.578 123.365 110.049V4.5795C123.365 2.05031 121.315 0 118.785 0Z" fill="#B2CDED"/>
<path d="M111.429 9.7341H53.808C51.2788 9.7341 49.2285 11.7844 49.2285 14.3136V100.319C49.2285 102.848 51.2788 104.898 53.808 104.898H111.429C113.958 104.898 116.008 102.848 116.008 100.319V14.3136C116.008 11.7844 113.958 9.7341 111.429 9.7341Z" fill="#C9DFF4"/>
<path d="M64.5265 62.213C67.2745 62.213 69.5021 59.5734 69.5021 56.3172C69.5021 53.061 67.2745 50.4214 64.5265 50.4214C61.7785 50.4214 59.5508 53.061 59.5508 56.3172C59.5508 59.5734 61.7785 62.213 64.5265 62.213Z" fill="#F3F8FF"/>
<path d="M346.867 0H134.74V92.344H346.867V0Z" fill="#C9DFF4"/>
<path d="M346.867 92.344H381.582V7.62939e-06H346.867V92.344Z" fill="#B2CDED"/>
<path d="M202.274 80.7696H143.277C142.153 80.7696 141.232 79.8537 141.232 78.7248V9.33792C141.232 8.21328 142.148 7.29312 143.277 7.29312H202.274C203.399 7.29312 204.319 8.20902 204.319 9.33792V78.7248C204.319 79.8494 203.403 80.7696 202.274 80.7696ZM143.273 8.09826C142.591 8.09826 142.033 8.65632 142.033 9.33792V78.7248C142.033 79.4064 142.591 79.9645 143.273 79.9645H202.27C202.951 79.9645 203.509 79.4064 203.509 78.7248V9.33792C203.509 8.65632 202.951 8.09826 202.27 8.09826H143.273Z" fill="#8CB8ED"/>
<path d="M148.427 44.3125C149.888 44.3125 151.072 43.1281 151.072 41.6671C151.072 40.206 149.888 39.0216 148.427 39.0216C146.966 39.0216 145.781 40.206 145.781 41.6671C145.781 43.1281 146.966 44.3125 148.427 44.3125Z" fill="#8CB8ED"/>
<path d="M270.336 80.7696H211.34C210.215 80.7696 209.295 79.8537 209.295 78.7248V9.33792C209.295 8.21328 210.211 7.29312 211.34 7.29312H270.336C271.461 7.29312 272.381 8.20902 272.381 9.33792V78.7248C272.381 79.8494 271.465 80.7696 270.336 80.7696ZM211.34 8.09826C210.658 8.09826 210.1 8.65632 210.1 9.33792V78.7248C210.1 79.4064 210.658 79.9645 211.34 79.9645H270.336C271.018 79.9645 271.576 79.4064 271.576 78.7248V9.33792C271.576 8.65632 271.018 8.09826 270.336 8.09826H211.34Z" fill="#8CB8ED"/>
<path d="M216.489 44.3125C217.95 44.3125 219.135 43.1281 219.135 41.6671C219.135 40.206 217.95 39.0216 216.489 39.0216C215.028 39.0216 213.844 40.206 213.844 41.6671C213.844 43.1281 215.028 44.3125 216.489 44.3125Z" fill="#8CB8ED"/>
<path d="M338.399 80.7696H279.402C278.278 80.7696 277.357 79.8537 277.357 78.7248V9.33792C277.357 8.21328 278.273 7.29312 279.402 7.29312H338.399C339.524 7.29312 340.444 8.20902 340.444 9.33792V78.7248C340.444 79.8494 339.528 80.7696 338.399 80.7696ZM279.402 8.09826C278.721 8.09826 278.163 8.65632 278.163 9.33792V78.7248C278.163 79.4064 278.721 79.9645 279.402 79.9645H338.399C339.081 79.9645 339.639 79.4064 339.639 78.7248V9.33792C339.639 8.65632 339.081 8.09826 338.399 8.09826H279.402Z" fill="#8CB8ED"/>
<path d="M284.552 44.3125C286.013 44.3125 287.197 43.1281 287.197 41.6671C287.197 40.206 286.013 39.0216 284.552 39.0216C283.091 39.0216 281.906 40.206 281.906 41.6671C281.906 43.1281 283.091 44.3125 284.552 44.3125Z" fill="#8CB8ED"/>
<path d="M370.135 132.064H206.381V290.664H370.135V132.064Z" fill="#C9DFF4"/>
<path d="M370.135 132.064H206.381V155.068H370.135V132.064Z" fill="#B2CDED"/>
<path d="M370.135 290.664H388.576V132.064H370.135V290.664Z" fill="#B2CDED"/>
<path d="M370.135 155.068H388.576V132.064H370.135V155.068Z" fill="#8CB8ED"/>
<path d="M288.257 266.821C314.455 266.821 335.692 245.583 335.692 219.386C335.692 193.188 314.455 171.951 288.257 171.951C262.06 171.951 240.822 193.188 240.822 219.386C240.822 245.583 262.06 266.821 288.257 266.821Z" fill="#F3F8FF"/>
<path d="M288.257 252.874C306.752 252.874 321.745 237.881 321.745 219.386C321.745 200.891 306.752 185.898 288.257 185.898C269.763 185.898 254.77 200.891 254.77 219.386C254.77 237.881 269.763 252.874 288.257 252.874Z" fill="#8CB8ED"/>
<path d="M342.476 137.615H330.633V145.177H342.476V137.615Z" fill="#F3F8FF"/>
<path d="M358.796 137.615H346.953V145.177H358.796V137.615Z" fill="#F3F8FF"/>
<path d="M218.768 150.655C218.768 150.655 216.319 173.796 195.057 179.679C173.804 185.575 159.482 146.349 159.482 146.349C159.482 146.349 166.988 135.469 166.767 124.337C166.707 121.577 166.149 118.663 165.348 115.856C162.903 107.348 158.17 99.757 158.17 99.757L190.435 96.9028C190.435 96.9028 190.567 98.0189 193.958 116.648C194.776 121.129 196.633 125.423 198.998 129.364C206.423 141.79 218.777 150.66 218.777 150.66L218.768 150.655Z" fill="#FFC7D2"/>
<path d="M198.985 129.359C197.737 134.825 196.412 139.877 195.56 140.946C193.533 143.485 182.256 137.466 172.982 127.054C170.294 124.03 167.679 120.021 165.344 115.851C162.899 107.343 158.166 99.7521 158.166 99.7521L190.431 96.8979C190.431 96.8979 190.563 98.0141 193.954 116.643C194.772 121.125 196.63 125.419 198.994 129.359H198.985Z" fill="#F47382"/>
<path d="M138.426 87.8327C146.333 105.529 165.809 118.96 165.809 118.96L178.044 107.974L220.435 69.9023C220.435 69.9023 225.317 56.8199 216.976 43.3497C208.635 29.8839 196.814 23.9114 173.456 27.8945C150.103 31.869 134.503 50.5662 135.154 74.4222C135.282 79.0571 136.518 83.5684 138.426 87.8369V87.8327Z" fill="#2D1164"/>
<path d="M138.426 87.8327C146.332 105.529 165.809 118.96 165.809 118.96L178.044 107.974C170.683 92.4846 160.676 82.4736 160.676 82.4736C160.676 82.4736 150.29 86.248 138.426 87.8369V87.8327Z" fill="#7B6AA5"/>
<path d="M142.98 107.599C147.078 114.249 160.527 108.408 160.527 108.408C160.527 108.408 160.544 108.434 160.578 108.498C161.294 109.669 168.527 121.316 174.363 125.581C178.219 128.401 186.146 130.773 193.631 132.107H193.64C195.842 132.103 200.55 132.661 206.582 131.527C212.622 130.386 218.071 128.264 222.101 115.655C225.999 103.45 223.788 90.5974 223.639 89.805V89.7667C223.208 88.0499 222.744 86.6484 222.322 85.626C221.002 82.3032 221.453 79.3936 221.211 75.287C221.002 71.7682 218.216 61.7742 217.449 59.0649C217.449 59.0649 216.593 61.8339 210.561 64.9607C204.537 68.079 201.934 68.1983 203.178 66.588C204.332 65.0885 206.863 61.4633 207.187 60.9904C206.786 61.476 203.344 65.4506 195.105 68.7351C186.317 72.2325 182.756 73.2592 182.611 72.0494C182.466 70.8949 184.673 67.4997 184.864 67.21C184.455 67.6829 177.81 75.2784 171.522 79.2062C166.695 82.218 162.503 82.5077 160.676 82.4651C160.872 83.2106 161.076 83.9816 161.277 84.7825C161.694 86.7165 162.201 88.9147 162.78 90.7422C163.735 94.6572 164.48 97.8735 164.327 98.21C163.977 99.0535 162.648 99.2324 161.519 99.0918C160.386 98.964 158.324 92.2844 157.23 91.1256C156.126 89.9414 149.093 90.7763 145.319 93.3579C141.574 95.9437 138.895 100.932 142.98 107.599Z" fill="#FFC7D2"/>
<path d="M189.473 89.1427C190.98 89.0722 192.116 87.2051 192.012 84.9725C191.907 82.7398 190.601 80.9871 189.095 81.0576C187.588 81.1281 186.452 82.9952 186.556 85.2278C186.661 87.4605 187.967 89.2133 189.473 89.1427Z" fill="#2D1164"/>
<path d="M213.017 86.1271C214.397 86.0626 215.44 84.4041 215.347 82.423C215.255 80.4418 214.061 78.8881 212.681 78.9526C211.302 79.0172 210.259 80.6756 210.352 82.6568C210.444 84.638 211.638 86.1917 213.017 86.1271Z" fill="#2D1164"/>
<path d="M210.829 110.07C210.233 112.515 208.903 114.615 207.123 116.157C204.563 118.432 201.052 119.591 197.414 119.029C194.496 118.586 191.991 117.112 190.202 115.024C188.204 112.715 187.101 109.669 187.318 106.462C187.348 106.061 187.599 105.767 187.94 105.635C188.102 105.563 188.285 105.537 188.468 105.563L209.994 108.881C210.297 108.932 210.535 109.103 210.676 109.329C210.833 109.537 210.897 109.797 210.825 110.066L210.829 110.07Z" fill="#CE3A81"/>
<path d="M210.681 109.333C208.266 110.82 204.108 111.527 199.511 111.033C193.931 110.415 189.389 108.191 187.945 105.639C188.107 105.567 188.29 105.541 188.474 105.567L209.999 108.886C210.302 108.937 210.54 109.107 210.681 109.333Z" fill="white"/>
<path d="M207.12 116.157C204.56 118.432 201.049 119.591 197.411 119.029C194.493 118.586 191.988 117.112 190.199 115.024C192.142 114.057 194.463 113.435 196.977 113.316C200.977 113.129 204.607 114.253 207.116 116.157H207.12Z" fill="#F47382"/>
<path d="M190.448 85.1645C191.087 85.1346 191.569 84.3178 191.523 83.3401C191.477 82.3625 190.922 81.5942 190.282 81.6241C189.643 81.654 189.162 82.4708 189.208 83.4485C189.254 84.4261 189.809 85.1944 190.448 85.1645Z" fill="white"/>
<path d="M214.22 83.0968C214.859 83.0669 215.34 82.2501 215.294 81.2724C215.248 80.2947 214.693 79.5264 214.054 79.5564C213.415 79.5863 212.934 80.4031 212.979 81.3808C213.025 82.3584 213.58 83.1267 214.22 83.0968Z" fill="white"/>
<path d="M205.926 102.129C205.444 102.193 205.091 102.214 204.967 102.219C204.524 102.24 204.145 101.895 204.128 101.452C204.107 101.009 204.452 100.63 204.895 100.608C206.07 100.553 209.3 100.055 210.109 98.4656C210.808 97.0854 210.237 96.5316 207.493 94.7637C207.272 94.6231 207.046 94.474 206.812 94.3249C203.634 92.246 204.477 87.1127 204.511 86.8955C204.588 86.4567 205.001 86.1627 205.44 86.2394C205.879 86.3161 206.173 86.7293 206.096 87.1681C206.087 87.2107 205.397 91.4792 207.689 92.9787C207.919 93.1278 208.141 93.2727 208.358 93.4133C210.727 94.9383 212.967 96.3825 211.54 99.1983C210.488 101.269 207.506 101.929 205.926 102.133V102.129Z" fill="#F47382"/>
<path d="M184.17 78.3755C183.945 78.4053 183.706 78.3371 183.527 78.1753C183.199 77.8771 183.174 77.3659 183.472 77.0378C186.104 74.1283 190.718 74.4605 190.914 74.4776C191.357 74.5117 191.689 74.8993 191.651 75.3466C191.617 75.7897 191.225 76.1177 190.786 76.0836C190.748 76.0836 186.761 75.8024 184.665 78.1199C184.533 78.269 184.354 78.3542 184.17 78.3797V78.3755Z" fill="#2D1164"/>
<path d="M216.428 75.0697C216.138 75.1081 215.836 74.9845 215.661 74.7289C215.58 74.6096 213.77 72.1218 210.004 73.7193C209.595 73.894 209.122 73.7023 208.947 73.2933C208.773 72.8843 208.964 72.4115 209.373 72.2368C213.391 70.5328 216.113 72.5265 216.99 73.8215C217.242 74.1879 217.144 74.6906 216.777 74.9419C216.671 75.0143 216.552 75.0569 216.428 75.074V75.0697Z" fill="#2D1164"/>
<path d="M156.232 97.0769C156.232 97.0769 150.63 91.2535 146.877 96.5188C143.12 101.788 150.379 106.9 153.097 106.611C155.815 106.321 155.636 104.779 154.413 104.17C153.191 103.556 151.278 102.811 152.138 100.975C152.999 99.1345 154.481 99.9652 155.069 100.664C155.657 101.362 155.947 101.92 155.947 101.92" fill="#F47382"/>
<path d="M227.728 54.3831C227.728 54.3831 243.771 59.8998 237.662 66.3921C231.549 72.8843 157.502 73.4083 157.502 73.4083C157.502 73.4083 188.093 54.6686 227.728 54.3831Z" fill="#FFD169"/>
<path d="M227.728 54.3832C223.029 35.8436 207.97 18.9314 189.005 15.5533C175.556 13.1591 155.755 14.9356 144.999 24.4396C138.566 30.1267 135.597 39.3794 134.293 47.6779C132.892 56.5898 132.491 66.5071 134.051 75.4361C134.174 76.1518 137.348 86.8529 137.331 86.8657C137.331 86.8657 178.499 54.1276 227.728 54.3832Z" fill="#FBAE2C"/>
<path d="M204.725 102.513C204.725 102.513 213.684 102.065 215.584 104.391C217.488 106.717 216.47 109.448 215.55 109.84C214.629 110.232 212.499 108.055 212.499 108.055C212.499 108.055 213.526 109.755 212.363 110.287C211.2 110.82 206.369 107.378 206.369 107.378C206.369 107.378 205.5 109.371 203.596 108.656C201.696 107.94 200.968 106.747 200.968 106.747C200.968 106.747 198.535 108.144 196.64 107.378C194.74 106.611 194.991 104.979 194.991 104.979C194.991 104.979 190.94 107.574 189.585 106.892C188.23 106.21 189.061 104.613 189.061 104.613C189.061 104.613 185.576 107.194 185.27 104.83C184.967 102.466 196.38 96.932 204.721 102.508L204.725 102.513Z" fill="#2D1164"/>
<path d="M290.371 207.483C290.371 207.483 315.287 268.41 318.099 269.01C320.911 269.611 341.738 288.981 341.738 288.981H280.654C280.654 288.981 254.855 263.37 252.832 254.688C250.808 246.006 258.097 218.589 290.375 207.483H290.371Z" fill="#FFC7D2"/>
<path d="M351.935 292.935L340.263 298.758L333.017 281.948C332.446 280.615 331.193 279.758 329.83 279.758H295.179C294.025 279.758 292.943 280.368 292.287 281.386L280.649 299.499L270.062 291.635L281.701 273.522C284.764 268.759 289.799 265.922 295.179 265.922H329.83C336.186 265.922 342.018 269.931 344.693 276.133L351.935 292.939V292.935Z" fill="#24282D"/>
<path d="M288.258 288.981H234.113V373.236H288.258V288.981Z" fill="#BA3C54"/>
<path d="M288.258 373.236H386.307V288.981H288.258V373.236Z" fill="#DD576D"/>
<path d="M288.258 329.132H386.307V288.981H288.258V329.132Z" fill="#FF8B00"/>
<path d="M318.099 287.874H305.455V373.236H318.099V287.874Z" fill="#24282D"/>
<path d="M372.196 287.874H359.553V373.236H372.196V287.874Z" fill="#24282D"/>
<path d="M350.73 326.129H329.562V334.508H350.73V326.129Z" fill="#24317F"/>
<path d="M225.056 138.416C225.056 138.416 243.859 141.888 256.354 154.382C268.848 166.877 299.393 209.916 297.655 215.816C295.921 221.716 265.185 243.233 261.466 242.888C257.743 242.543 233.563 213.034 226.913 186.315C220.263 159.592 225.06 138.42 225.06 138.42L225.056 138.416Z" fill="#FBAE2C"/>
<path d="M246.906 235.633C248.222 233.755 290.869 196.578 294.107 199.061C297.344 201.545 302.593 214.193 301.511 217.895C300.433 221.597 260.789 251.983 256.623 250.752C252.457 249.517 243.664 240.264 246.906 235.633Z" fill="#FF8B00"/>
<path d="M221.815 134.948L201.874 133.713C201.874 133.713 224.759 158.843 201.614 160.994C178.47 163.145 164.697 135.557 164.697 135.557L151.96 143.157C151.96 143.157 143.388 279.392 207.927 257.198C272.466 235.003 221.815 134.953 221.815 134.953V134.948Z" fill="#FBAE2C"/>
<path d="M150.122 139.788C150.122 139.788 119.561 144.205 107.25 161.88C94.9425 179.555 70.9545 224.31 71.9002 228.6C72.8459 232.89 102.197 257.142 104.408 254.484C106.619 251.83 115.229 238.454 115.229 238.454C115.229 238.454 156.172 241.729 166.583 218.057C176.999 194.384 150.118 139.783 150.118 139.783L150.122 139.788Z" fill="#FBAE2C"/>
<path d="M242.472 191.231C242.472 191.231 241.957 174.396 236.47 156.755C230.983 139.115 229.76 133.819 228.376 133.606C226.991 133.393 215.941 132.286 215.459 132.95C214.978 133.619 221.04 146.05 224.307 160.687C227.575 175.325 227.098 201.766 227.098 201.766C227.098 201.766 219.792 206.525 206.1 206.768C192.404 207.01 181.814 205.664 181.814 205.664C181.814 205.664 177.78 167.827 169.366 151.976C160.953 136.124 156.987 133.773 155.836 133.96C154.69 134.147 145.906 136.678 145.847 137.313C145.787 137.947 162.452 171.772 161.034 190.226C159.615 208.68 161.059 219.969 143.133 228.847C125.207 237.729 112.436 236.115 112.436 242.019C112.436 247.923 116.201 253.351 116.261 254.19C116.321 255.029 119.388 313.455 118.097 321.455C116.811 329.46 115.716 353.899 113.944 360.042C112.167 366.181 113.53 421.305 113.53 421.305C113.53 421.305 163.692 430.503 213.159 423.154C262.626 415.806 278.725 411.985 276.697 405.799C274.669 399.618 267.035 340.83 267.035 340.83C267.035 340.83 261.962 236.157 258.767 226.896C255.572 217.635 248.841 213.78 246.119 206.695C243.396 199.611 242.472 191.231 242.472 191.231Z" fill="#24282D"/>
<path d="M234.178 200.787C236.384 200.787 238.173 198.998 238.173 196.791C238.173 194.584 236.384 192.795 234.178 192.795C231.971 192.795 230.182 194.584 230.182 196.791C230.182 198.998 231.971 200.787 234.178 200.787Z" fill="white"/>
<path d="M172.267 203.752C174.474 203.752 176.263 201.963 176.263 199.756C176.263 197.549 174.474 195.76 172.267 195.76C170.061 195.76 168.271 197.549 168.271 199.756C168.271 201.963 170.061 203.752 172.267 203.752Z" fill="white"/>
<path d="M242.127 251.698C242.127 251.698 247.746 293.271 213.751 295.712C179.752 298.153 170.461 259.792 173.14 253.061C175.82 246.33 189.077 251.706 215.608 248.115C242.14 244.524 241.79 244.175 242.127 251.698Z" fill="#739EC0"/>
<path d="M241.666 254.748C233.125 256.656 224.485 258.122 215.791 259.119C207.096 260.116 198.444 260.648 189.741 260.733C184.821 260.78 179.9 260.682 174.984 260.439C174.162 260.397 174.166 261.679 174.984 261.717C183.747 262.148 192.531 262.122 201.294 261.632C210.04 261.142 218.764 260.192 227.412 258.791C232.302 257.998 237.167 257.061 242.007 255.979C242.808 255.8 242.471 254.569 241.666 254.748Z" fill="#8293D8"/>
<path d="M260.917 321.869C258.084 328.05 254.932 334.086 251.481 339.944C247.988 345.878 244.188 351.629 240.111 357.18C237.794 360.332 235.387 363.412 232.895 366.428C232.375 367.059 233.274 367.966 233.798 367.331C238.22 361.981 242.386 356.417 246.25 350.653C250.092 344.928 253.641 339.011 256.878 332.919C258.693 329.502 260.41 326.031 262.02 322.512C262.361 321.771 261.258 321.119 260.917 321.869Z" fill="#3753B7"/>
<path d="M257.522 331.905C257.241 337.554 256.683 343.19 255.848 348.788C255.729 349.593 256.96 349.938 257.079 349.128C257.931 343.42 258.51 337.673 258.8 331.909C258.843 331.087 257.565 331.091 257.522 331.909V331.905Z" fill="#3753B7"/>
<path d="M116.639 254.94C124.588 261.786 133.091 267.98 142.054 273.437C144.601 274.987 147.183 276.474 149.799 277.905C150.519 278.302 151.166 277.198 150.442 276.802C141.279 271.792 132.516 266.041 124.298 259.596C122.002 257.794 119.753 255.941 117.542 254.041C116.92 253.508 116.013 254.407 116.639 254.944V254.94Z" fill="#3753B7"/>
<path d="M122.527 264.197C123.426 265.909 124.324 267.622 125.223 269.334C125.385 269.641 125.811 269.73 126.097 269.564C126.408 269.381 126.489 268.998 126.327 268.691C125.428 266.978 124.529 265.266 123.63 263.553C123.468 263.247 123.042 263.157 122.757 263.323C122.446 263.507 122.365 263.89 122.527 264.197Z" fill="#3753B7"/>
<path d="M247.169 315.913C235.65 319.445 223.892 322.18 211.998 324.097C200.104 326.014 188.074 327.113 176.027 327.385C169.253 327.539 162.476 327.432 155.711 327.066C154.889 327.023 154.893 328.301 155.711 328.344C167.83 329.004 179.993 328.821 192.087 327.807C204.181 326.793 216.049 324.983 227.816 322.354C234.444 320.876 241.013 319.134 247.505 317.144C248.289 316.906 247.957 315.67 247.164 315.913H247.169Z" fill="#3753B7"/>
<path d="M151.353 329.4C144.545 330.291 137.64 330.291 130.832 329.387C130.487 329.341 130.198 329.715 130.193 330.026C130.193 330.41 130.492 330.619 130.832 330.665C137.64 331.569 144.545 331.569 151.353 330.678C151.698 330.631 151.988 330.418 151.992 330.039C151.992 329.728 151.694 329.353 151.353 329.4Z" fill="#3753B7"/>
<path d="M183.606 334.708C176.347 336.706 168.926 338.086 161.433 338.828C160.623 338.909 160.615 340.187 161.433 340.106C169.041 339.356 176.577 337.967 183.947 335.939C184.739 335.722 184.402 334.487 183.606 334.708Z" fill="#3753B7"/>
<path d="M176.957 288.854C180.82 294.251 186.022 298.524 191.773 301.783C198.12 305.378 205.09 307.717 212.131 309.527C216.353 310.614 220.622 311.517 224.882 312.416C225.682 312.586 226.028 311.355 225.222 311.184C217.823 309.621 210.389 308.049 203.241 305.531C196.936 303.312 190.823 300.3 185.592 296.091C182.75 293.804 180.177 291.18 178.056 288.21C177.583 287.546 176.471 288.185 176.952 288.854H176.957Z" fill="#3753B7"/>
<path d="M134.961 162.097C143.191 167.899 145.662 178.958 144.853 188.479C144.363 194.256 142.621 199.888 139.92 205.004C137.219 210.12 133.738 214.738 130.211 219.283C125.832 224.932 121.44 230.577 117.056 236.221C116.635 236.767 116.524 237.499 117.056 238.027C117.495 238.466 118.437 238.577 118.863 238.027C122.927 232.796 126.991 227.565 131.05 222.334C134.765 217.554 138.527 212.766 141.487 207.466C147.111 197.404 149.437 184.961 145.931 173.787C144.201 168.27 141.015 163.247 136.248 159.886C135.681 159.49 134.825 159.784 134.501 160.346C134.126 160.985 134.395 161.697 134.961 162.093V162.097Z" fill="#EF7748"/>
<path d="M109.959 377.338H273.075C274.397 377.338 275.469 376.266 275.469 374.944V358.692C275.469 357.37 274.397 356.298 273.075 356.298H109.959C108.637 356.298 107.565 357.37 107.565 358.692V374.944C107.565 376.266 108.637 377.338 109.959 377.338Z" fill="#739EC0"/>
<path d="M102.837 389.334H133.662C137.027 389.334 139.754 386.607 139.754 383.242V340.668C139.754 337.304 137.027 334.576 133.662 334.576H102.837C99.4723 334.576 96.7449 337.304 96.7449 340.668V383.242C96.7449 386.607 99.4723 389.334 102.837 389.334Z" fill="#FF8B00"/>
<path d="M99.4192 369.061H127.041C130.405 369.061 133.133 366.333 133.133 362.969V338.027C133.133 334.662 130.405 331.935 127.041 331.935H99.4192C96.0548 331.935 93.3274 334.662 93.3274 338.027V362.969C93.3274 366.333 96.0548 369.061 99.4192 369.061Z" fill="#FFB400"/>
<path d="M102.526 374.552H108.494V359.203H102.526V374.552Z" fill="white"/>
<path d="M108.707 374.765H102.312V358.99H108.707V374.765ZM102.738 374.339H108.281V359.416H102.738V374.339Z" fill="black"/>
<path d="M180.574 378.603H223.076V353.18H180.574V378.603Z" fill="#8293D8"/>
<path d="M151.328 378.39H167.32V350.496H151.328V378.39Z" fill="#24282D"/>
<path d="M239.221 379.839H255.213V351.944H239.221V379.839Z" fill="#24282D"/>
<path d="M174.158 359.71C174.158 359.71 192.216 356.081 197.102 352.847C201.988 349.618 200.399 339.586 196.225 334.086C192.05 328.587 186.912 327.355 183.917 327.922C180.923 328.489 180.399 329.426 180.399 329.426L183.785 338.73C184.284 340.097 183.717 341.567 182.576 341.878L170.047 346.696L174.158 359.706V359.71Z" fill="#FF8B00"/>
<path d="M165.186 338.87L163.972 335.228C163.444 333.639 164.049 331.956 165.327 331.471L170.686 329.434C171.964 328.949 173.429 329.843 173.958 331.432L175.172 335.075C175.7 336.664 175.095 338.346 173.817 338.832L168.458 340.868C167.18 341.354 165.715 340.459 165.186 338.87Z" fill="#FF8B00"/>
<path d="M173.579 365.712L169.063 367.323C167.449 367.898 165.613 366.854 164.829 364.912L159.333 351.335C158.545 349.388 156.705 348.34 155.086 348.924L153.033 349.669C151.116 350.364 150.332 353.009 151.38 355.254L157.139 367.621C158.226 369.955 157.335 372.695 155.303 373.265L152.62 374.028C151.312 374.399 149.872 373.747 148.986 372.384L139.128 357.261C138.199 355.834 136.666 355.195 135.324 355.667L49.2464 386.224C44.7776 387.975 39.623 384.789 37.8551 379.174L37.4163 377.777C35.6783 372.264 37.8849 366.53 42.3281 364.988L153.425 326.431C157.766 324.923 162.665 327.79 164.705 333.03L175.364 360.426C176.224 362.628 175.398 365.073 173.579 365.725V365.712Z" fill="#DD576D"/>
<path d="M113.688 245.206C113.688 245.206 90.1089 285.876 90.1089 288.53C90.1089 291.184 98.7269 324.65 100.444 328.463C102.16 332.276 107.132 352.059 107.818 352.225C108.504 352.391 117.377 361.636 117.552 364.119C117.722 366.607 118.238 374.066 117.552 376.056C116.866 378.045 112.921 380.657 112.921 380.657C112.921 380.657 107.307 381.07 104.559 381.07C101.811 381.07 99.7578 379.745 99.7578 379.745C99.7578 379.745 98.9016 381.07 96.4989 381.07C94.0963 381.07 90.8416 378.582 90.8416 378.582C90.8416 378.582 88.6137 380.571 85.0097 379.907C81.41 379.242 80.3791 379.242 78.837 378.25C77.2948 377.257 76.9498 376.593 76.9498 376.593L82.6198 373.99C82.6198 373.99 82.9521 374.271 82.9521 369.299C82.9521 364.328 83.4676 353.052 83.4676 353.052C83.4676 353.052 69.7461 333.737 58.9428 313.596C48.1394 293.454 46.4226 285.91 47.7091 278.698C48.9957 271.486 76.0041 219.262 76.0041 219.262L113.688 245.21V245.206Z" fill="#FFC7D2"/>
<path d="M91.1808 361.576C91.9817 367.186 91.6324 372.929 90.2053 378.412C89.9966 379.208 91.232 379.549 91.4364 378.752C92.9274 373.035 93.2469 367.084 92.412 361.235C92.297 360.426 91.0658 360.771 91.1808 361.576Z" fill="#F47382"/>
<path d="M100.247 363.876C100.784 369.321 99.9701 374.803 97.8955 379.864C97.5845 380.627 98.8199 380.955 99.1266 380.205C101.24 375.055 102.07 369.419 101.525 363.876C101.444 363.067 100.166 363.059 100.247 363.876Z" fill="#F47382"/>
<path d="M109.658 366.484C109.892 371.157 108.891 375.821 106.752 379.983C106.377 380.712 107.481 381.359 107.856 380.627C110.096 376.269 111.183 371.383 110.936 366.484C110.893 365.666 109.615 365.661 109.658 366.484Z" fill="#F47382"/>
<path d="M90.2793 287.916C83.31 285.224 75.8038 283.546 68.319 284.581C66.2359 284.87 64.1868 285.369 62.2187 286.119C61.4562 286.408 61.7884 287.644 62.5595 287.35C69.4351 284.743 77.0137 285.224 83.9916 287.158C86.0065 287.716 87.9874 288.393 89.9385 289.148C90.7053 289.446 91.0376 288.21 90.2793 287.916Z" fill="#F47382"/>
<path d="M76.8462 278.826C79.0614 280.606 81.2766 282.387 83.4961 284.163C83.7645 284.381 84.1351 284.427 84.3992 284.163C84.6207 283.942 84.6676 283.477 84.3992 283.26C82.184 281.48 79.9688 279.699 77.7494 277.922C77.481 277.705 77.1104 277.658 76.8462 277.922C76.6247 278.144 76.5779 278.608 76.8462 278.826Z" fill="#F47382"/>
<path d="M120.426 244.251C120.426 244.251 77.5235 208.033 75.3083 211.611C73.0931 215.19 64.4666 228.443 66.6861 234.547C68.9013 240.647 107.582 264.427 112.264 261.057C116.946 257.692 120.43 244.251 120.43 244.251H120.426Z" fill="#FF8B00"/>
<path d="M252.299 177.288C251.093 189.033 251.37 200.893 253.061 212.578C253.538 215.867 254.13 219.139 254.833 222.385C254.978 223.058 255.766 223.454 256.405 223.279C257.104 223.088 257.445 222.385 257.3 221.707C254.842 210.363 253.802 198.729 254.186 187.129C254.296 183.84 254.522 180.56 254.855 177.288C254.927 176.603 254.216 176.01 253.577 176.01C252.827 176.01 252.371 176.598 252.299 177.288Z" fill="#EF7748"/>
<path d="M361.45 364.716H355.618C354.983 364.716 354.472 365.316 354.472 366.062V359.902C354.472 359.161 353.956 358.556 353.326 358.556H347.494C346.859 358.556 346.348 359.156 346.348 359.902V355.297C346.348 354.556 345.833 353.951 345.202 353.951H339.37C338.735 353.951 338.224 354.551 338.224 355.297V359.902C338.224 359.161 337.709 358.556 337.078 358.556H331.246C330.612 358.556 330.1 359.156 330.1 359.902V370.999C330.1 370.258 329.585 369.653 328.954 369.653H323.123C322.488 369.653 321.977 370.254 321.977 370.999V378.288C321.977 379.029 322.492 379.634 323.123 379.634H328.954C329.589 379.634 330.1 379.034 330.1 378.288C330.1 379.029 330.616 379.634 331.246 379.634H337.078C337.713 379.634 338.224 379.034 338.224 378.288C338.224 379.029 338.74 379.634 339.37 379.634H345.202C345.837 379.634 346.348 379.034 346.348 378.288C346.348 379.029 346.863 379.634 347.494 379.634H353.326C353.961 379.634 354.472 379.034 354.472 378.288C354.472 379.029 354.987 379.634 355.618 379.634H361.45C362.084 379.634 362.596 379.034 362.596 378.288V366.062C362.596 365.321 362.08 364.716 361.45 364.716Z" fill="#FFC7D2"/>
<path d="M330.024 379.715C329.67 379.715 329.385 379.43 329.385 379.076V370.586C329.385 370.232 329.67 369.947 330.024 369.947C330.377 369.947 330.663 370.232 330.663 370.586V379.076C330.663 379.43 330.377 379.715 330.024 379.715Z" fill="#F47382"/>
<path d="M338.276 379.715C337.922 379.715 337.637 379.43 337.637 379.076V359.753C337.637 359.399 337.922 359.114 338.276 359.114C338.629 359.114 338.915 359.399 338.915 359.753V379.076C338.915 379.43 338.629 379.715 338.276 379.715Z" fill="#F47382"/>
<path d="M346.528 379.715C346.174 379.715 345.889 379.43 345.889 379.076V359.753C345.889 359.399 346.174 359.114 346.528 359.114C346.881 359.114 347.167 359.399 347.167 359.753V379.076C347.167 379.43 346.881 379.715 346.528 379.715Z" fill="#F47382"/>
<path d="M354.778 379.715C354.424 379.715 354.139 379.43 354.139 379.076V365.802C354.139 365.448 354.424 365.163 354.778 365.163C355.131 365.163 355.417 365.448 355.417 365.802V379.076C355.417 379.43 355.131 379.715 354.778 379.715Z" fill="#F47382"/>
<path d="M204.387 378.957C204.281 390.621 204.174 402.289 204.072 413.953C204.042 417.25 204.012 420.547 203.982 423.844C203.974 424.667 205.252 424.667 205.26 423.844C205.367 412.181 205.473 400.512 205.576 388.849C205.606 385.551 205.635 382.254 205.665 378.957C205.674 378.135 204.396 378.135 204.387 378.957Z" fill="#3753B7"/>
<path d="M214.164 378.838C213.576 382.539 212.988 386.237 212.4 389.939C211.91 393.011 211.476 396.495 209.141 398.779C207.991 399.903 206.491 400.615 204.86 400.47C204.042 400.397 204.046 401.675 204.86 401.748C208.089 402.029 210.803 399.537 212.034 396.755C212.732 395.175 213.103 393.492 213.388 391.796C213.716 389.862 214.006 387.924 214.317 385.986C214.679 383.715 215.037 381.449 215.399 379.178C215.527 378.373 214.296 378.028 214.168 378.838H214.164Z" fill="#3753B7"/>
</g>
<defs>
<clipPath id="clip0_415_71">
<rect width="426" height="426" fill="white"/>
</clipPath>
</defs>
</svg>
