<svg width="708" height="648" viewBox="0 0 708 648" fill="none" xmlns="http://www.w3.org/2000/svg">
<g filter="url(#filter0_d_308_790)">
<path d="M629.001 570.5C662 590.5 512.145 587 368 587C223.855 587 107 579.598 107 570.5C166.5 529.5 305.5 542 368 549.5C485.5 563.6 604 558 629.001 570.5Z" fill="#24282D"/>
</g>
<g filter="url(#filter1_d_308_790)">
<path d="M677.373 413.276H530.831V431.373H677.373V413.276Z" fill="#739EC0"/>
<path opacity="0.3" d="M677.373 413.276H530.831V431.373H677.373V413.276Z" fill="white"/>
<path d="M636.72 494.611H615.154V384.135L625.93 372L636.72 384.135V494.611Z" fill="#739EC0"/>
<path opacity="0.6" d="M636.72 494.611H615.154V384.135L625.93 372L636.72 384.135V494.611Z" fill="white"/>
<path d="M677.373 494.611H655.808V384.135L666.583 372L677.373 384.135V494.611Z" fill="#739EC0"/>
<path opacity="0.6" d="M677.373 494.611H655.808V384.135L666.583 372L677.373 384.135V494.611Z" fill="white"/>
<path d="M596.067 494.611H574.501V384.135L585.291 372L596.067 384.135V494.611Z" fill="#739EC0"/>
<path opacity="0.6" d="M596.067 494.611H574.501V384.135L585.291 372L596.067 384.135V494.611Z" fill="white"/>
<path d="M587.485 422.325C587.485 423.542 586.508 424.519 585.291 424.519C584.073 424.519 583.096 423.542 583.096 422.325C583.096 421.107 584.073 420.13 585.291 420.13C586.494 420.13 587.485 421.107 587.485 422.325Z" fill="#263238"/>
<path d="M554.789 494.611H533.224V384.135L544.014 372L554.789 384.135V494.611Z" fill="#739EC0"/>
<path opacity="0.6" d="M554.789 494.611H533.224V384.135L544.014 372L554.789 384.135V494.611Z" fill="white"/>
<path d="M544.014 424.519C545.226 424.519 546.209 423.537 546.209 422.325C546.209 421.112 545.226 420.13 544.014 420.13C542.802 420.13 541.819 421.112 541.819 422.325C541.819 423.537 542.802 424.519 544.014 424.519Z" fill="#263238"/>
<path d="M628.903 422.325C628.903 423.542 627.926 424.519 626.708 424.519C625.491 424.519 624.514 423.542 624.514 422.325C624.514 421.107 625.491 420.13 626.708 420.13C627.912 420.13 628.903 421.107 628.903 422.325Z" fill="#263238"/>
<path d="M666.583 424.519C667.795 424.519 668.777 423.537 668.777 422.325C668.777 421.112 667.795 420.13 666.583 420.13C665.37 420.13 664.388 421.112 664.388 422.325C664.388 423.537 665.37 424.519 666.583 424.519Z" fill="#263238"/>
<path d="M188.542 413.276H42V431.373H188.542V413.276Z" fill="#739EC0"/>
<path opacity="0.3" d="M188.542 413.276H42V431.373H188.542V413.276Z" fill="white"/>
<path d="M147.888 494.611H126.309V384.135L137.099 372L147.888 384.135V494.611Z" fill="#739EC0"/>
<path opacity="0.6" d="M147.888 494.611H126.309V384.135L137.099 372L147.888 384.135V494.611Z" fill="white"/>
<path d="M188.542 494.611H166.962V384.135L177.752 372L188.542 384.135V494.611Z" fill="#739EC0"/>
<path opacity="0.6" d="M188.542 494.611H166.962V384.135L177.752 372L188.542 384.135V494.611Z" fill="white"/>
<path d="M107.235 494.611H85.6553V384.135L96.4452 372L107.235 384.135V494.611Z" fill="#739EC0"/>
<path opacity="0.6" d="M107.235 494.611H85.6553V384.135L96.4452 372L107.235 384.135V494.611Z" fill="white"/>
<path d="M96.4448 424.519C97.657 424.519 98.6396 423.537 98.6396 422.325C98.6396 421.112 97.657 420.13 96.4448 420.13C95.2326 420.13 94.25 421.112 94.25 422.325C94.25 423.537 95.2326 424.519 96.4448 424.519Z" fill="#263238"/>
<path d="M65.9587 494.611H44.3789V384.135L55.1688 372L65.9587 384.135V494.611Z" fill="#739EC0"/>
<path opacity="0.6" d="M65.9587 494.611H44.3789V384.135L55.1688 372L65.9587 384.135V494.611Z" fill="white"/>
<path d="M57.3632 422.325C57.3632 423.542 56.3862 424.519 55.1684 424.519C53.9507 424.519 52.9736 423.542 52.9736 422.325C52.9736 421.107 53.9507 420.13 55.1684 420.13C56.3862 420.13 57.3632 421.107 57.3632 422.325Z" fill="#263238"/>
<path d="M137.863 424.519C139.075 424.519 140.058 423.537 140.058 422.325C140.058 421.112 139.075 420.13 137.863 420.13C136.651 420.13 135.668 421.112 135.668 422.325C135.668 423.537 136.651 424.519 137.863 424.519Z" fill="#263238"/>
<path d="M179.946 422.325C179.946 423.542 178.969 424.519 177.751 424.519C176.534 424.519 175.557 423.542 175.557 422.325C175.557 421.107 176.534 420.13 177.751 420.13C178.955 420.13 179.946 421.107 179.946 422.325Z" fill="#263238"/>
</g>
<g filter="url(#filter2_d_308_790)">
<path d="M374.008 247.215H398.25V274.813" stroke="#263238" stroke-miterlimit="10"/>
<path d="M393.974 298.531H391.85V251.86H393.974C399.864 251.86 404.636 256.632 404.636 262.522V287.855C404.636 293.759 399.864 298.531 393.974 298.531Z" fill="#263238"/>
<path d="M559.263 379.413H548.487V427.076H559.263V379.413Z" fill="#263238"/>
<path d="M273.133 496.191C276.63 496.601 541.72 495.61 541.72 495.61L551.334 451.587L427.958 411.57L420.184 342.71H372.649L364.748 397.566L282.521 364.46L178.459 355.653L169.312 419.486L273.133 496.191Z" fill="#407BFF"/>
<path opacity="0.5" d="M273.133 496.191C276.63 496.601 541.72 495.61 541.72 495.61L551.334 451.587L427.958 411.57L420.184 342.71H372.649L364.748 397.566L282.521 364.46L178.459 355.653L169.312 419.486L273.133 496.191Z" fill="black"/>
<path d="M179.945 237.105L167.881 366.188L245.223 368.666L293.438 389.92L331.103 432.952H385.846L383.495 405.198L373.258 227.717L179.945 237.105Z" fill="#407BFF"/>
<path opacity="0.5" d="M180.059 237.105L168.009 366.188L245.351 368.666L293.566 389.92L331.231 432.952H385.974L383.623 405.198L380.338 350.782L373.385 227.717L180.059 237.105Z" fill="white"/>
<path d="M274.931 351.575C274.931 351.575 244.954 292.202 240.423 292.202C235.891 292.202 233.116 294.085 228.84 295.982C224.563 297.88 230.355 351.575 230.355 351.575H274.931Z" fill="#263238"/>
<path opacity="0.3" d="M192.986 350.796L304.992 240.504C304.992 240.504 355.217 240.504 353.207 240.504C351.196 240.504 244.996 350.796 244.996 350.796H192.986Z" fill="white"/>
<path d="M549.125 367.972C542.781 357.593 389.853 340.275 388.366 339.779L393.79 453.017L429.02 454.518C429.02 454.518 545.386 458.964 546.505 458.468C547.638 457.973 555.468 378.351 549.125 367.972Z" fill="#24282D"/>
<path d="M376.741 240.489H175.074C172.851 240.489 171.053 238.691 171.053 236.468C171.053 234.245 172.851 232.446 175.074 232.446H376.727C378.95 232.446 380.748 234.245 380.748 236.468C380.762 238.691 378.95 240.489 376.741 240.489Z" fill="#407BFF"/>
<path d="M376.117 234.202H176.787V226.131C176.787 222.789 179.492 220.085 182.833 220.085H370.085C373.427 220.085 376.132 222.789 376.132 226.131V234.202H376.117Z" fill="#24282D"/>
<path d="M412.608 360.127V237.516C412.608 237.516 413.685 223.781 432.05 223.781V233.82C432.05 233.82 422.336 231.271 422.336 240.73C422.336 250.189 422.336 360.58 422.336 360.58L412.608 360.127Z" fill="#263238"/>
<path d="M220.967 573.858C273.66 573.858 316.377 532.061 316.377 480.501C316.377 428.942 273.66 387.144 220.967 387.144C168.273 387.144 125.557 428.942 125.557 480.501C125.557 532.061 168.273 573.858 220.967 573.858Z" fill="#263238"/>
<path d="M220.967 573.858C273.66 573.858 316.377 532.061 316.377 480.501C316.377 428.942 273.66 387.144 220.967 387.144C168.273 387.144 125.557 428.942 125.557 480.501C125.557 532.061 168.273 573.858 220.967 573.858Z" stroke="#263238" stroke-width="6" stroke-miterlimit="10" stroke-dasharray="12.32 12.32"/>
<path opacity="0.3" d="M220.966 525.558C246.398 525.558 267.015 505.386 267.015 480.501C267.015 455.617 246.398 435.444 220.966 435.444C195.535 435.444 174.918 455.617 174.918 480.501C174.918 505.386 195.535 525.558 220.966 525.558Z" fill="white"/>
<path opacity="0.3" d="M220.967 510.846C238.101 510.846 251.992 497.26 251.992 480.501C251.992 463.742 238.101 450.156 220.967 450.156C203.833 450.156 189.942 463.742 189.942 480.501C189.942 497.26 203.833 510.846 220.967 510.846Z" fill="white"/>
<path d="M523.764 573.844C563.312 573.844 595.371 542.482 595.371 503.795C595.371 465.107 563.312 433.745 523.764 433.745C484.217 433.745 452.157 465.107 452.157 503.795C452.157 542.482 484.217 573.844 523.764 573.844Z" fill="#263238"/>
<path d="M523.764 573.844C563.312 573.844 595.371 542.482 595.371 503.795C595.371 465.107 563.312 433.745 523.764 433.745C484.217 433.745 452.157 465.107 452.157 503.795C452.157 542.482 484.217 573.844 523.764 573.844Z" stroke="#263238" stroke-width="6" stroke-miterlimit="10" stroke-dasharray="12.09 12.09"/>
<path opacity="0.3" d="M523.765 537.609C542.854 537.609 558.329 522.47 558.329 503.795C558.329 485.12 542.854 469.98 523.765 469.98C504.675 469.98 489.2 485.12 489.2 503.795C489.2 522.47 504.675 537.609 523.765 537.609Z" fill="white"/>
<path opacity="0.3" d="M523.764 526.578C536.621 526.578 547.043 516.378 547.043 503.795C547.043 491.212 536.621 481.011 523.764 481.011C510.908 481.011 500.485 491.212 500.485 503.795C500.485 516.378 510.908 526.578 523.764 526.578Z" fill="white"/>
<path d="M167.881 369.459L169.325 350.796L380.338 350.782L385.109 432.938L327.761 432.952L285.848 377.856L241.102 370.86L167.881 369.459Z" fill="#407BFF"/>
<path d="M378.709 320.762L368.103 318.865L341.213 342.342L332.731 328.267L348.081 313.937C348.874 313.003 348.846 311.672 348.01 310.765C347.189 309.845 345.773 309.59 344.626 310.142L301.877 330.674C300.404 331.382 299.71 332.968 300.234 334.427C300.702 335.715 302.018 336.579 303.505 336.565L319.18 333.818L329.885 353.302L316.292 366.867L337.518 390.869L347.713 392.95L350.545 416.172L383.509 416.413L380.337 350.767L378.709 320.762Z" fill="#263238"/>
<path d="M167.881 369.459L169.325 350.796L380.338 350.782L385.846 432.952H327.761L285.848 377.856L241.102 370.86L167.881 369.459Z" fill="#24282D"/>
<path d="M146.584 378.549C146.584 378.549 145.508 362.223 146.584 362.223C147.66 362.223 234.56 343.928 286.612 378.549C338.65 413.171 337.574 438.885 337.574 438.885L323.626 442.836C323.612 442.85 289.812 351.348 146.584 378.549Z" fill="#407BFF"/>
<path opacity="0.3" d="M146.584 378.549C146.584 378.549 145.508 362.223 146.584 362.223C147.66 362.223 234.56 343.928 286.612 378.549C338.65 413.171 337.574 438.885 337.574 438.885L323.626 442.836C323.612 442.85 289.812 351.348 146.584 378.549Z" fill="black"/>
<path d="M282.52 236.794H271.461V353.585H282.52V236.794Z" fill="#407BFF"/>
<path d="M292.729 268.413H279.971V259.52H292.729C295.179 259.52 297.175 261.503 297.175 263.967C297.175 266.416 295.193 268.413 292.729 268.413Z" fill="#407BFF"/>
<path d="M292.729 319.077H279.971V310.185H292.729C295.179 310.185 297.175 312.167 297.175 314.631C297.175 317.095 295.193 319.077 292.729 319.077Z" fill="#407BFF"/>
<path opacity="0.3" d="M171.436 328.239C171.436 328.239 251.369 240.489 252.516 240.489C253.663 240.489 271.476 240.489 271.476 240.489L169.34 350.782L171.436 328.239Z" fill="white"/>
<g opacity="0.3">
<path d="M389.33 359.802C442.529 361.756 482.502 362.988 482.502 362.988C482.502 362.988 426.117 347.213 388.721 347.213L389.33 359.802Z" fill="black"/>
</g>
<path d="M390.504 462.957H335.195V485.882H390.504V462.957Z" fill="#263238"/>
<path d="M390.93 489.918H334.757V498.442H390.93V489.918Z" fill="#263238"/>
<path opacity="0.3" d="M425.296 429.171C423.653 429.171 422.322 427.84 422.322 426.198V390.118C422.322 388.476 423.653 387.144 425.296 387.144C426.938 387.144 428.269 388.476 428.269 390.118V426.198C428.269 427.84 426.938 429.171 425.296 429.171Z" fill="black"/>
<path opacity="0.3" d="M436.596 429.171C434.953 429.171 433.622 427.84 433.622 426.198V390.118C433.622 388.476 434.953 387.144 436.596 387.144C438.238 387.144 439.569 388.476 439.569 390.118V426.198C439.569 427.84 438.238 429.171 436.596 429.171Z" fill="black"/>
<path opacity="0.3" d="M447.895 429.171C446.252 429.171 444.921 427.84 444.921 426.198V390.118C444.921 388.476 446.252 387.144 447.895 387.144C449.537 387.144 450.868 388.476 450.868 390.118V426.198C450.854 427.84 449.523 429.171 447.895 429.171Z" fill="black"/>
<path opacity="0.3" d="M459.181 429.171C457.538 429.171 456.207 427.84 456.207 426.198V390.118C456.207 388.476 457.538 387.144 459.181 387.144C460.823 387.144 462.154 388.476 462.154 390.118V426.198C462.154 427.84 460.823 429.171 459.181 429.171Z" fill="black"/>
<path opacity="0.3" d="M376.118 232.064C309.778 232.064 243.255 232.064 176.915 232.064V227.703H376.118V232.064Z" fill="black"/>
<path d="M169.34 350.116C228.217 349.904 317.071 350.173 376.756 350.116C368.118 350.399 359.48 350.583 350.829 350.796C290.464 351.9 229.676 351.674 169.34 350.116Z" fill="#263238"/>
<path d="M422.322 389.523C423.285 401.63 423.285 413.879 422.322 425.971C421.359 413.864 421.359 401.616 422.322 389.523Z" fill="#263238"/>
<path d="M433.721 389.523C434.684 401.63 434.684 413.879 433.721 425.971C432.744 413.864 432.744 401.616 433.721 389.523Z" fill="#263238"/>
<path d="M445.105 389.523C446.068 401.63 446.068 413.879 445.105 425.971C444.142 413.864 444.142 401.616 445.105 389.523Z" fill="#263238"/>
<path d="M456.49 389.523C457.453 401.63 457.453 413.879 456.49 425.971C455.527 413.864 455.527 401.616 456.49 389.523Z" fill="#263238"/>
<path d="M388.721 374.74C441.099 377.232 499.268 381.056 551.575 385.403C499.155 382.896 440.999 379.116 388.721 374.74Z" fill="#263238"/>
<path d="M276.615 350.385C277.578 357.847 277.592 365.338 276.615 372.8C275.638 365.338 275.652 357.862 276.615 350.385Z" fill="#263238"/>
<path opacity="0.3" d="M303.831 364.234H288.553C286.669 364.234 285.126 362.704 285.126 360.807C285.126 358.924 286.655 357.38 288.553 357.38H303.831C305.715 357.38 307.258 358.909 307.258 360.807C307.258 362.704 305.729 364.234 303.831 364.234Z" fill="black"/>
</g>
<defs>
<filter id="filter0_d_308_790" x="103" y="541.668" width="534.616" height="53.5677" filterUnits="userSpaceOnUse" color-interpolation-filters="sRGB">
<feFlood flood-opacity="0" result="BackgroundImageFix"/>
<feColorMatrix in="SourceAlpha" type="matrix" values="0 0 0 0 0 0 0 0 0 0 0 0 0 0 0 0 0 0 127 0" result="hardAlpha"/>
<feOffset dy="4"/>
<feGaussianBlur stdDeviation="2"/>
<feComposite in2="hardAlpha" operator="out"/>
<feColorMatrix type="matrix" values="0 0 0 0 0 0 0 0 0 0 0 0 0 0 0 0 0 0 0.25 0"/>
<feBlend mode="normal" in2="BackgroundImageFix" result="effect1_dropShadow_308_790"/>
<feBlend mode="normal" in="SourceGraphic" in2="effect1_dropShadow_308_790" result="shape"/>
</filter>
<filter id="filter1_d_308_790" x="38" y="372" width="643.373" height="130.611" filterUnits="userSpaceOnUse" color-interpolation-filters="sRGB">
<feFlood flood-opacity="0" result="BackgroundImageFix"/>
<feColorMatrix in="SourceAlpha" type="matrix" values="0 0 0 0 0 0 0 0 0 0 0 0 0 0 0 0 0 0 127 0" result="hardAlpha"/>
<feOffset dy="4"/>
<feGaussianBlur stdDeviation="2"/>
<feComposite in2="hardAlpha" operator="out"/>
<feColorMatrix type="matrix" values="0 0 0 0 0 0 0 0 0 0 0 0 0 0 0 0 0 0 0.25 0"/>
<feBlend mode="normal" in2="BackgroundImageFix" result="effect1_dropShadow_308_790"/>
<feBlend mode="normal" in="SourceGraphic" in2="effect1_dropShadow_308_790" result="shape"/>
</filter>
<filter id="filter2_d_308_790" x="118.557" y="220.085" width="483.814" height="364.773" filterUnits="userSpaceOnUse" color-interpolation-filters="sRGB">
<feFlood flood-opacity="0" result="BackgroundImageFix"/>
<feColorMatrix in="SourceAlpha" type="matrix" values="0 0 0 0 0 0 0 0 0 0 0 0 0 0 0 0 0 0 127 0" result="hardAlpha"/>
<feOffset dy="4"/>
<feGaussianBlur stdDeviation="2"/>
<feComposite in2="hardAlpha" operator="out"/>
<feColorMatrix type="matrix" values="0 0 0 0 0 0 0 0 0 0 0 0 0 0 0 0 0 0 0.25 0"/>
<feBlend mode="normal" in2="BackgroundImageFix" result="effect1_dropShadow_308_790"/>
<feBlend mode="normal" in="SourceGraphic" in2="effect1_dropShadow_308_790" result="shape"/>
</filter>
</defs>
</svg>
