<svg width="30" height="30" viewBox="0 0 30 30" fill="none" xmlns="http://www.w3.org/2000/svg">
<g clip-path="url(#clip0_29_143)">
<path d="M14.9861 29.9726C6.72184 29.9726 0.0223103 23.273 0.0223103 15.0088C0.0223103 6.74447 6.72184 0.0449371 14.9861 0.0449371C23.2504 0.0449371 29.95 6.74447 29.95 15.0088C29.95 23.273 23.2504 29.9726 14.9861 29.9726Z" fill="#F0F0F0"/>
<path d="M26.8566 5.89847C28.0321 7.42776 28.9184 9.19039 29.4344 11.1052H21.6499L26.8566 5.89847Z" fill="#0052B4"/>
<path d="M0.537807 11.1052C1.05388 9.19045 1.94026 7.42782 3.11562 5.89853L8.32227 11.1052H0.537807Z" fill="#0052B4"/>
<path d="M29.4344 18.9124C28.9183 20.8272 28.032 22.5898 26.8566 24.1191L21.65 18.9124H29.4344Z" fill="#0052B4"/>
<path d="M5.87581 3.1383C7.4051 1.96287 9.16768 1.07656 11.0825 0.560425V8.34495L5.87581 3.1383Z" fill="#0052B4"/>
<path d="M24.0964 26.8792C22.5671 28.0546 20.8045 28.9409 18.8897 29.4571V21.6726L24.0964 26.8792Z" fill="#0052B4"/>
<path d="M18.8898 0.560425C20.8046 1.07656 22.5672 1.96287 24.0964 3.13823L18.8898 8.34488V0.560425Z" fill="#0052B4"/>
<path d="M11.0825 29.4571C9.16774 28.9409 7.4051 28.0546 5.87587 26.8793L11.0825 21.6726V29.4571Z" fill="#0052B4"/>
<path d="M8.32227 18.9124L3.11562 24.1191C1.94026 22.5899 1.05388 20.8272 0.537807 18.9124H8.32227Z" fill="#0052B4"/>
<path d="M0.148975 13.057H13.0342H13.0343V0.171604C13.6732 0.0884257 14.3246 0.0449371 14.9861 0.0449371C15.6478 0.0449371 16.299 0.0884257 16.9379 0.171604V13.0569V13.0569H29.8233C29.9065 13.6959 29.95 14.3473 29.95 15.0088C29.95 15.6704 29.9065 16.3217 29.8233 16.9605H16.938H16.938V29.8459C16.299 29.9291 15.6478 29.9726 14.9861 29.9726C14.3246 29.9726 13.6732 29.9291 13.0343 29.8459V16.9607V16.9606H0.148975C0.0657978 16.3217 0.0223103 15.6704 0.0223103 15.0088C0.0223103 14.3473 0.0657978 13.6959 0.148975 13.057Z" fill="#D80027"/>
<path d="M11.0825 18.9124L4.40515 25.5898C4.09804 25.2828 3.80508 24.9619 3.52556 24.6291L9.24232 18.9124H11.0825V18.9124Z" fill="#D80027"/>
<path d="M18.8897 18.9124H18.8898L25.5671 25.5898C25.2601 25.8969 24.9392 26.1898 24.6065 26.4694L18.8897 20.7525V18.9124Z" fill="#D80027"/>
<path d="M18.8898 11.1052V11.1051L25.5672 4.4277C25.8743 4.7347 26.1673 5.05566 26.4468 5.38837L20.73 11.1052L18.8898 11.1052Z" fill="#D80027"/>
<path d="M11.0825 11.1052L4.40509 4.42775C4.71208 4.12064 5.03305 3.82768 5.36576 3.54822L11.0825 9.26504V11.1052Z" fill="#D80027"/>
</g>
<defs>
<clipPath id="clip0_29_143">
<rect width="29.9276" height="29.9276" fill="white" transform="matrix(-1 0 0 1 29.95 0.0449371)"/>
</clipPath>
</defs>
</svg>
