<svg width="423" height="452" viewBox="0 0 423 452" fill="none" xmlns="http://www.w3.org/2000/svg">
<path d="M347.488 347.175C288.657 396.117 201.575 410.296 128.555 381.427C124.135 379.681 119.763 377.801 115.439 375.788C111.908 374.145 108.417 372.417 104.966 370.605C85.966 360.626 68.3111 348.131 53.1229 333.62C49.9173 330.563 46.8274 327.414 43.8533 324.175C28.1788 307.116 15.8691 287.694 8.48783 266.615C7.71189 264.397 6.99039 262.161 6.32331 259.906C2.43666 246.838 0.567353 233.252 0.779965 219.619C0.971055 207.871 1.80315 197.41 3.20158 188.067C3.64862 185.093 4.15125 182.231 4.70946 179.482C9.42938 156.216 20.893 134.121 41.6923 119.513C60.4538 106.336 83.2317 99.9867 104.966 92.0322C108.49 90.7415 111.991 89.4091 115.439 87.9967L116.454 87.5781C155.366 71.4345 179.765 30.8157 221.916 21.607C229.028 20.071 236.266 19.1854 243.539 18.9612C245.345 18.9045 247.154 18.8842 248.966 18.9004C249.626 18.9004 250.286 18.9161 250.944 18.9317C251.861 18.9525 252.777 18.9855 253.692 19.0255C255.183 19.0915 256.673 19.183 258.164 19.3C259.776 19.4239 261.386 19.5768 262.995 19.7586C293.01 23.1252 320.437 35.8292 343.492 54.4431C345.263 55.8722 347.008 57.3367 348.727 58.8364C355.093 64.3941 361.081 70.3717 366.649 76.7294C366.662 76.7478 366.677 76.7647 366.694 76.7798C376.643 88.153 385.276 100.613 392.429 113.924C393.212 115.379 393.977 116.842 394.724 118.314C402.777 134.204 408.685 151.075 412.064 168.199C412.412 169.929 412.727 171.662 413.011 173.396C413.236 174.72 413.444 176.046 413.635 177.375C413.753 178.202 413.869 179.027 413.982 179.854C414.095 180.68 414.197 181.533 414.296 182.376C421.395 242.894 398.212 304.981 347.488 347.175Z" fill="#24282D"/>
<path d="M119.065 61.5794C117.885 62.3044 116.677 62.9819 115.442 63.6119C108.179 67.3417 100.017 69.5444 91.7708 70.677C83.7972 71.7715 75.49 71.874 67.8342 69.5444C60.1785 67.2148 53.2419 62.1753 50.3078 55.2648C45.1797 43.1636 52.6843 28.4549 61.9087 18.989C62.9128 17.9606 63.936 16.993 64.9644 16.0983C70.5764 11.2424 77.0664 7.50621 84.0838 5.09157C97.1283 0.595748 116.875 -2.83692 129.461 4.15523C152.103 16.7324 135.463 51.5125 119.065 61.5794Z" fill="#24282D"/>
<path d="M343.493 54.4431H253.693V19.0255C255.184 19.0915 256.674 19.183 258.165 19.3C259.777 19.4239 261.387 19.5767 262.996 19.7586C293.011 23.1252 320.438 35.8292 343.493 54.4431Z" fill="#AED9FF"/>
<path d="M392.43 113.919H253.693V58.8364H348.728C366.4 74.2348 381.261 93.1596 392.43 113.919Z" fill="#AED9FF"/>
<path d="M413.014 173.391H253.693V118.309H394.725C402.778 134.199 408.686 151.07 412.065 168.194C412.408 169.924 412.724 171.656 413.014 173.391Z" fill="#AED9FF"/>
<path d="M291.158 71.3707L290.001 70.3272C289.334 69.7258 288.305 69.779 287.704 70.4459L260.683 100.414C260.082 101.081 260.135 102.109 260.802 102.71L261.959 103.754C262.626 104.355 263.654 104.302 264.255 103.635L291.277 73.6671C291.878 73.0002 291.825 71.972 291.158 71.3707Z" fill="white"/>
<path d="M307.836 74.1832L306.678 73.1397C306.011 72.5384 304.983 72.5915 304.382 73.2585L277.361 103.226C276.759 103.893 276.812 104.921 277.479 105.523L278.637 106.566C279.304 107.168 280.332 107.115 280.933 106.448L307.954 76.4796C308.556 75.8127 308.503 74.7846 307.836 74.1832Z" fill="white"/>
<path d="M333.289 126.65L332.131 125.606C331.464 125.005 330.436 125.058 329.835 125.725L302.814 155.693C302.212 156.36 302.266 157.388 302.933 157.989L304.09 159.033C304.757 159.634 305.785 159.581 306.386 158.914L333.407 128.946C334.009 128.279 333.956 127.251 333.289 126.65Z" fill="white"/>
<path d="M346.142 128.219L344.985 127.176C344.318 126.575 343.29 126.628 342.688 127.295L315.667 157.263C315.066 157.93 315.119 158.958 315.786 159.559L316.943 160.603C317.61 161.204 318.638 161.151 319.24 160.484L346.261 130.516C346.862 129.849 346.809 128.821 346.142 128.219Z" fill="white"/>
<path d="M282.958 32.3788L281.274 30.8607C280.753 30.3904 279.949 30.432 279.479 30.9536L267.316 44.4423C266.846 44.9638 266.888 45.7679 267.409 46.2382L269.093 47.7563C269.614 48.2266 270.418 48.185 270.889 47.6635L283.051 34.1748C283.521 33.6532 283.48 32.8491 282.958 32.3788Z" fill="white"/>
<path d="M104.965 92.0322V259.906H6.32319C2.43736 246.837 0.568073 233.252 0.779843 219.619C0.97267 207.871 1.80303 197.41 3.20146 188.067C3.6485 185.093 4.15113 182.231 4.70934 179.48C9.431 156.216 20.8929 134.121 41.6922 119.513C60.4537 106.334 83.2316 99.9867 104.965 92.0322Z" fill="#AED9FF"/>
<path d="M43.8618 266.615V324.175C28.189 307.116 15.8776 287.694 8.49805 266.615H43.8618Z" fill="#AED9FF"/>
<path d="M104.966 266.615V370.605C85.9679 360.626 68.3112 348.129 53.123 333.62V266.615H104.966Z" fill="#AED9FF"/>
<path d="M76.9759 111.099H75.878C74.98 111.099 74.252 111.827 74.252 112.725V244.544C74.252 245.442 74.98 246.17 75.878 246.17H76.9759C77.8739 246.17 78.6019 245.442 78.6019 244.544V112.725C78.6019 111.827 77.8739 111.099 76.9759 111.099Z" fill="white"/>
<path d="M65.6009 164.846H64.503C63.6049 164.846 62.877 165.574 62.877 166.472V244.544C62.877 245.442 63.6049 246.17 64.503 246.17H65.6009C66.4989 246.17 67.2269 245.442 67.2269 244.544V166.472C67.2269 165.574 66.4989 164.846 65.6009 164.846Z" fill="white"/>
<path d="M117.281 87.2306V376.471L115.441 375.787V87.9967L117.281 87.2306Z" fill="#ABBBF4"/>
<path d="M159.5 425.178C146.862 425.972 134.519 427.957 123.139 432.399C109.577 437.703 139.198 444.879 143.386 445.501C171.024 449.613 199.226 450.763 227.352 451.356C265.008 452.148 302.68 451.955 340.368 450.777C364.369 450.027 388.587 448.847 411.737 443.517C414.815 442.809 418.036 441.942 420.141 439.982C424.536 435.891 421.503 429.038 415.861 426.196C404.569 420.521 384.55 423.206 371.91 423.359L320.316 423.988L216.379 425.254C198.298 425.473 178.564 423.978 159.5 425.178Z" fill="#24282D"/>
<path d="M169.27 225.969C169.27 225.969 160.199 225.395 159.511 228.38C158.823 231.364 157.673 241.127 161.232 242.161C164.792 243.195 171.452 242.62 171.452 241.466C171.452 240.313 169.27 225.969 169.27 225.969Z" fill="#367ACC"/>
<path d="M171.658 239.137C171.658 239.137 158.188 238.075 157.165 243.594C156.142 249.113 154.436 267.157 159.722 269.066C165.008 270.976 174.898 269.916 174.898 267.793C174.898 265.67 171.658 239.137 171.658 239.137Z" fill="#6192DE"/>
<path d="M202.189 122.056C202.189 122.056 205.142 127.674 215.169 124C225.196 120.326 233.797 115.057 234.49 112.753C235.183 110.45 235.532 113.665 237.25 115.043C238.969 116.42 253.787 122.737 259.987 127.215C261.795 128.52 263.809 129.493 265.624 130.78C267.505 132.109 269.282 133.58 270.94 135.18C275.441 139.523 278.533 144.787 281.734 150.097C282.777 151.819 283.81 153.561 284.655 155.387C284.983 156.098 285.558 157.124 285.485 157.943C285.412 158.761 284.945 158.855 284.217 159.023C284.217 159.023 271.014 194.851 267.107 195.999C263.201 197.147 210.189 191.864 202.189 189.109C194.189 186.354 159.512 166.373 159.512 166.373C159.512 166.373 171.797 134.251 185.118 127.69C198.438 121.128 201.002 119.308 202.189 122.056Z" fill="#6E92CC"/>
<path d="M193.034 123.757C193.034 123.757 183.74 154.315 185.578 157.875C187.416 161.434 196.832 162.009 210.265 162.009C223.699 162.009 235.988 161.549 237.826 156.383C239.664 151.216 244.47 126.831 247.521 125.874C250.571 124.917 259.98 127.214 259.987 127.215C259.257 127.042 257.989 131.084 257.749 131.629C253.233 141.917 250.092 153.89 252.147 165.157C252.281 166.038 252.535 166.896 252.901 167.709C253.221 168.359 254.197 169.099 254.103 169.703C253.974 170.535 252.501 171.875 251.925 172.497C250.851 173.654 249.569 174.731 248.045 175.222C244.486 176.371 189.138 169.481 184.43 166.726C179.722 163.971 180.41 150.421 183.051 143.3C185.691 136.179 193.034 123.757 193.034 123.757Z" fill="#FF8C3E"/>
<path d="M281.345 400.281C279.738 402.232 260.673 403.955 260.673 403.955C260.673 403.955 259.978 401.643 258.845 397.85C254.579 383.541 244.104 348.167 241.381 336.551C237.937 321.852 231.182 288.511 219.311 276.472C217.612 274.749 214.74 311.289 213.017 322.77C211.293 334.251 210.837 358.941 211.412 373.41C211.987 387.879 206.129 404.645 206.129 404.645L180.867 407.056L180.234 400.68C178.324 381.314 172.733 324.071 172.827 317.03C172.942 308.532 169.841 250.084 168.121 230.793C167.739 226.512 167.786 221.742 168.086 216.819C168.309 213.171 168.67 209.441 169.099 205.765C170.697 192.029 173.239 179.046 172.978 174.001C172.554 165.784 185.114 127.69 185.114 127.69C185.536 126.394 194.646 121.014 193.03 123.757C191.415 126.5 178.912 156.841 184.195 161.895C189.478 166.948 236.099 164.764 238.048 163.731C239.997 162.697 244.937 126.64 248.957 123.541C252.977 120.442 256.08 123.081 258.717 124.573C261.258 126.01 260.08 127.128 259.987 127.212C247.587 133.872 249.537 165.795 251.146 168.435C252.755 171.076 254.247 169.354 254.247 169.354L259.412 189.106L275.031 201.851C275.031 201.851 275.734 207.758 276.697 215.575C277.166 219.397 277.695 223.69 278.234 227.979C279.641 239.18 273.974 250.736 274.558 253.651C275.819 259.965 276.13 281.296 276.014 296.109C275.897 310.922 277.577 321.451 278.76 342.619C279.836 361.898 282.952 398.328 281.345 400.281Z" fill="#FBBF5B"/>
<path d="M281.696 368.701C280.932 350.717 279.264 332.786 278.513 314.801C277.798 297.513 278.374 280.2 278.279 262.901C278.246 257.076 280.971 250.15 280.19 244.381C279.453 238.961 278.918 233.437 278.234 227.987L223.215 234.311C223.215 234.484 223.226 234.931 223.269 235.608L168.574 234.988L168.678 237.693C168.678 237.693 198.36 239.842 207.511 239.055C216.663 238.268 223.612 240.189 223.876 242.733C224.939 253.409 227.213 270.527 230.185 271.905C234.41 273.878 240.514 271.766 247.355 273.468C263.145 277.382 260.282 298.232 267.534 338.399C274.334 376.054 273.373 390.643 258.849 397.859C259.979 401.651 260.676 403.964 260.676 403.964C260.676 403.964 279.738 402.24 281.348 400.29C281.896 399.624 281.991 398.756 282.148 397.944C283.9 388.713 282.104 378.024 281.696 368.701Z" fill="#ECB04B"/>
<path d="M235.51 99.7383C233.488 104.007 234.725 115.799 234.725 115.799C234.725 115.799 231.803 119.169 221.807 124.672C211.812 130.175 202.04 126.583 202.04 126.018C202.04 125.454 202.49 114.676 202.49 114.676C196.312 112.43 194.178 99.5142 194.398 95.4701C194.619 91.4259 194.515 88.9574 194.398 83.117C194.365 81.7609 194.458 80.4047 194.676 79.0659C195.183 76.0641 196.194 74.6934 196.194 74.6934L225.075 76.2308L225.733 76.2638C225.733 76.2638 240.895 86.2596 241.232 91.9888C241.569 97.718 235.51 99.7383 235.51 99.7383Z" fill="#FFC890"/>
<path d="M229.085 93.9744C228.117 91.5423 227.721 88.914 226.953 86.4037C226.185 83.8935 224.957 81.3937 222.792 79.9032C220.998 78.6646 218.762 78.2668 216.594 78.041C209.298 77.287 201.957 78.1452 194.68 79.0659C195.187 76.0641 196.198 74.6934 196.198 74.6934L225.079 76.2308C225.096 76.2534 225.112 76.2795 225.129 76.3021C225.824 77.3235 226.447 78.4058 226.739 79.6027C227.007 80.7075 226.974 81.861 227.087 82.9989C227.427 86.7164 229.286 90.2516 229.085 93.9744Z" fill="#FF8C5A"/>
<path d="M231.692 89.0685C231.692 89.0685 230.65 89.7426 230.218 95.246C229.785 100.749 226.863 81.2339 225.289 78.6958C223.715 76.1578 231.13 79.6339 231.692 82.667C232.255 85.7002 231.692 89.0685 231.692 89.0685Z" fill="#361029"/>
<path d="M223.043 78.6958C223.043 78.6958 228.209 83.56 231.693 89.0686C231.693 89.0686 238.205 83.0041 241.247 91.9888C241.247 91.9888 243.717 84.4633 242.371 80.1968C241.025 75.9303 226.526 60.4294 218.327 59.6425C210.127 58.8555 204.85 63.3496 204.85 63.3496C204.85 63.3496 219.449 77.1949 223.043 78.6958Z" fill="#6192DE"/>
<path d="M202.49 114.676C202.49 114.676 206.196 116.024 214.619 114.676C223.043 113.328 227.311 108.944 228.883 105.242C230.455 101.54 231.018 106.253 228.435 111.082C225.852 115.911 212.71 120.628 202.49 118.271V114.676Z" fill="#FF8C5A"/>
<path d="M194.748 78.6959C194.748 78.6959 177.897 63.235 184.296 59.0814C190.694 54.9278 199.908 56.9464 206.87 63.2367C213.833 69.527 223.043 78.6976 223.043 78.6976C223.043 78.6976 197.788 74.2747 194.748 78.6959Z" fill="#4D87DB"/>
<path d="M237.953 90.7588C238.195 91.0584 238.348 91.4193 238.396 91.8011C238.66 93.276 238.248 95.682 236.779 96.4585C235.689 97.0335 234.592 96.4446 234.062 95.4475C233.48 94.3548 233.515 92.8313 234.003 91.7143C234.604 90.3575 236.775 89.4577 237.953 90.7588Z" fill="#FF8C5A"/>
<path d="M197.91 93.851C198.543 93.851 199.055 92.9511 199.055 91.8411C199.055 90.731 198.543 89.8312 197.91 89.8312C197.278 89.8312 196.766 90.731 196.766 91.8411C196.766 92.9511 197.278 93.851 197.91 93.851Z" fill="#361029"/>
<path d="M214.024 93.9987C214.656 93.9987 215.169 93.0988 215.169 91.9887C215.169 90.8787 214.656 89.9788 214.024 89.9788C213.391 89.9788 212.879 90.8787 212.879 91.9887C212.879 93.0988 213.391 93.9987 214.024 93.9987Z" fill="#361029"/>
<path d="M199.939 83.1274C200.492 83.1621 201.065 83.2403 201.518 83.5565C201.801 83.7603 202.018 84.0436 202.14 84.3704C202.262 84.6973 202.285 85.0531 202.204 85.3927C202.191 85.4735 202.153 85.5482 202.095 85.6063C202.03 85.6501 201.956 85.6764 201.878 85.6828C199.578 86.0737 197.229 86.4663 194.929 86.0928C194.279 85.9885 193.374 85.6654 193.47 84.8316C193.538 84.2322 194.165 84.1367 194.641 83.963C196.359 83.355 198.11 83.0179 199.939 83.1274Z" fill="#361029"/>
<path d="M211.942 83.1274C211.39 83.1621 210.817 83.2403 210.362 83.5565C210.079 83.7608 209.863 84.0441 209.741 84.3708C209.619 84.6975 209.596 85.053 209.675 85.3927C209.69 85.4734 209.729 85.5479 209.787 85.6063C209.851 85.6501 209.926 85.6764 210.004 85.6828C212.304 86.0737 214.652 86.4663 216.952 86.0928C217.602 85.9885 218.507 85.6654 218.412 84.8316C218.344 84.2322 217.717 84.1367 217.241 83.963C215.523 83.355 213.772 83.0179 211.942 83.1274Z" fill="#361029"/>
<path d="M202.791 92.9824L201.012 98.3173L203.968 98.5709L202.791 92.9824Z" fill="#FF6029"/>
<g opacity="0.28">
<path d="M196.063 99.1355C196.99 99.1355 197.743 98.3834 197.743 97.4557C197.743 96.5279 196.99 95.7758 196.063 95.7758C195.135 95.7758 194.383 96.5279 194.383 97.4557C194.383 98.3834 195.135 99.1355 196.063 99.1355Z" fill="#FF8C5A"/>
</g>
<g opacity="0.28">
<path d="M218.033 97.4574C218.961 97.4574 219.713 96.7053 219.713 95.7775C219.713 94.8498 218.961 94.0977 218.033 94.0977C217.106 94.0977 216.354 94.8498 216.354 95.7775C216.354 96.7053 217.106 97.4574 218.033 97.4574Z" fill="#FF8C5A"/>
</g>
<path d="M184.344 62.6808C184.718 61.9235 185.245 61.2517 185.892 60.7074C186.21 60.4284 186.553 60.179 186.917 59.9621C187.09 59.8475 187.287 59.7537 187.472 59.6529C187.658 59.5522 187.855 59.467 188.053 59.3923C188.846 59.0804 189.677 58.8771 190.525 58.7878C191.37 58.7009 192.222 58.7009 193.068 58.7878C193.492 58.8208 193.909 58.892 194.329 58.9615C194.749 59.031 195.161 59.1213 195.569 59.2343C196.389 59.4416 197.197 59.6903 197.991 59.9795C199.571 60.5782 201.097 61.3087 202.555 62.1631C205.47 63.8656 208.114 65.9693 210.57 68.2676C213.021 70.562 215.258 73.0751 217.253 75.7757C216.183 74.4867 215.064 73.2435 213.897 72.046C212.729 70.8485 211.529 69.6903 210.295 68.5716C209.053 67.4581 207.773 66.388 206.439 65.3908C205.775 64.887 205.096 64.4076 204.408 63.9385C203.72 63.4695 203.018 63.0317 202.292 62.6183C200.863 61.7735 199.367 61.0466 197.819 60.4451C197.045 60.1499 196.255 59.8948 195.455 59.6807C195.057 59.5643 194.65 59.4879 194.247 59.3958C193.844 59.3037 193.434 59.2447 193.031 59.203C191.397 59.005 189.708 59.0814 188.15 59.639C186.592 60.1966 185.185 61.2268 184.344 62.6808Z" fill="#1A4EA2"/>
<path d="M276.697 215.577C257.945 218.53 224.447 220.557 209.806 221.136C195.478 221.707 177.399 218.64 168.09 216.809C168.312 213.16 168.674 209.431 169.103 205.755C169.103 205.755 206.323 181.65 209.77 183.715C213.217 185.781 244.371 183.126 248.964 180.946C253.557 178.766 250.007 172.907 248.389 167.28C246.918 162.133 247.521 156.124 247.858 150.86C248.066 147.662 248.405 144.464 249.058 141.323C249.67 138.384 250.448 134.967 252.164 132.489C253.662 130.335 256.698 126.319 259.905 127.179C259.933 127.186 259.96 127.194 259.987 127.205C259.465 127 257.577 128.956 257.238 129.302C256.35 130.228 255.575 131.257 254.93 132.366C253.488 134.798 252.525 137.51 251.825 140.234C250.128 146.852 249.687 153.957 250.052 160.755C250.168 162.933 249.937 166.498 251.146 168.433C252.755 171.076 254.247 169.352 254.247 169.352L259.412 189.104L275.031 201.85C275.031 201.85 275.734 207.76 276.697 215.577Z" fill="#ECB04B"/>
<path d="M167.217 232.923C167.205 232.802 167.22 232.681 167.262 232.568C167.303 232.454 167.369 232.351 167.454 232.266C167.54 232.181 167.644 232.117 167.758 232.077C167.871 232.037 167.993 232.022 168.113 232.035C173.069 232.556 196.33 234.559 230.825 230.908C269.867 226.773 279.695 226.651 279.695 226.651L282.07 228.338C282.87 228.906 283.459 229.723 283.746 230.661C284.032 231.599 283.999 232.606 283.653 233.524L281.726 238.626C281.726 238.626 254.02 236.303 234.039 237.222C215.533 238.073 174.315 237.271 168.339 237.147C168.138 237.144 167.946 237.066 167.799 236.929C167.652 236.792 167.561 236.606 167.543 236.406L167.217 232.923Z" fill="#6E92CC"/>
<path d="M260.408 214.82C258.476 215.862 257.788 216.67 258.586 218.174L264.296 228.944C264.556 229.436 265.569 229.202 265.807 229.65L266.028 230.065C266.151 230.298 266.052 230.57 265.941 230.857L265.988 230.831L270.504 228.399L270.553 228.375C270.256 228.309 269.975 228.237 269.858 228.005L269.638 227.59C269.401 227.141 270.159 226.424 269.898 225.932L264.19 215.153C263.391 213.666 262.34 213.781 260.408 214.82ZM265.161 227.911L265.123 227.932C265.06 227.966 264.991 227.988 264.92 227.996C264.849 228.004 264.777 227.998 264.708 227.979C264.64 227.959 264.575 227.925 264.519 227.881C264.464 227.836 264.417 227.781 264.383 227.718L258.982 217.519C258.916 217.39 258.904 217.24 258.948 217.102C258.992 216.964 259.089 216.849 259.218 216.783L259.256 216.762C259.319 216.727 259.388 216.705 259.459 216.697C259.53 216.689 259.602 216.695 259.671 216.715C259.739 216.735 259.803 216.768 259.859 216.813C259.915 216.857 259.962 216.913 259.996 216.975L265.397 227.173C265.463 227.302 265.475 227.452 265.431 227.59C265.387 227.729 265.29 227.844 265.161 227.911ZM266.929 226.961L266.891 226.981C266.829 227.016 266.76 227.038 266.689 227.046C266.618 227.054 266.546 227.048 266.478 227.028C266.409 227.008 266.345 226.975 266.289 226.93C266.233 226.886 266.187 226.83 266.153 226.768L260.75 216.569C260.684 216.44 260.672 216.29 260.717 216.152C260.761 216.014 260.858 215.899 260.986 215.832L261.025 215.811C261.087 215.777 261.156 215.755 261.227 215.746C261.298 215.738 261.37 215.744 261.439 215.764C261.507 215.784 261.572 215.817 261.627 215.861C261.683 215.906 261.73 215.961 261.765 216.023L267.166 226.222C267.228 226.351 267.239 226.499 267.195 226.635C267.151 226.771 267.055 226.885 266.929 226.952V226.961ZM268.823 225.333C268.889 225.462 268.901 225.612 268.856 225.75C268.812 225.888 268.715 226.003 268.587 226.069L268.548 226.09C268.486 226.125 268.417 226.147 268.346 226.155C268.275 226.163 268.203 226.158 268.134 226.138C268.066 226.118 268.001 226.085 267.946 226.041C267.89 225.996 267.843 225.941 267.808 225.878L262.407 215.679C262.342 215.55 262.33 215.4 262.374 215.262C262.419 215.124 262.515 215.009 262.644 214.941L262.682 214.92C262.744 214.886 262.813 214.864 262.884 214.856C262.956 214.848 263.028 214.854 263.096 214.873C263.165 214.893 263.229 214.927 263.285 214.971C263.341 215.016 263.387 215.071 263.422 215.134L268.823 225.333Z" fill="#FEBD57"/>
<path d="M262.682 214.912L262.643 214.932C262.515 215 262.418 215.115 262.374 215.253C262.33 215.391 262.342 215.541 262.407 215.671L267.808 225.87C267.843 225.932 267.889 225.987 267.945 226.032C268.001 226.076 268.065 226.11 268.134 226.129C268.203 226.149 268.275 226.155 268.346 226.147C268.417 226.138 268.485 226.116 268.548 226.082L268.586 226.061C268.715 225.994 268.812 225.879 268.856 225.741C268.9 225.603 268.888 225.453 268.822 225.324L263.422 215.125C263.387 215.063 263.341 215.007 263.285 214.963C263.229 214.918 263.165 214.885 263.096 214.865C263.027 214.845 262.955 214.839 262.884 214.847C262.813 214.855 262.744 214.877 262.682 214.912Z" fill="white"/>
<path d="M261.026 215.803L260.988 215.824C260.859 215.89 260.762 216.005 260.718 216.143C260.673 216.281 260.685 216.431 260.751 216.56L266.154 226.759C266.188 226.822 266.235 226.877 266.29 226.922C266.346 226.966 266.41 227 266.479 227.019C266.547 227.039 266.619 227.045 266.69 227.037C266.761 227.029 266.83 227.007 266.892 226.973L266.93 226.952C267.059 226.885 267.156 226.769 267.2 226.631C267.244 226.493 267.232 226.343 267.167 226.214L261.766 216.015C261.731 215.952 261.685 215.897 261.629 215.852C261.573 215.808 261.508 215.775 261.44 215.755C261.371 215.736 261.299 215.73 261.228 215.738C261.157 215.746 261.088 215.768 261.026 215.803Z" fill="white"/>
<path d="M259.256 216.753L259.218 216.774C259.089 216.841 258.992 216.955 258.948 217.093C258.904 217.231 258.916 217.381 258.982 217.51L264.383 227.709C264.417 227.772 264.464 227.827 264.519 227.872C264.575 227.917 264.64 227.95 264.708 227.97C264.777 227.99 264.849 227.996 264.92 227.988C264.991 227.98 265.06 227.958 265.123 227.923L265.161 227.902C265.29 227.835 265.387 227.72 265.431 227.582C265.475 227.443 265.463 227.293 265.397 227.164L259.996 216.967C259.962 216.904 259.915 216.849 259.859 216.804C259.804 216.759 259.739 216.726 259.671 216.706C259.602 216.686 259.53 216.68 259.459 216.688C259.388 216.696 259.319 216.718 259.256 216.753Z" fill="white"/>
<path d="M279.534 252.164L279.222 253.541L281.647 256.418L282.264 256.086L282.882 255.754L281.861 252.124L280.549 251.618L269.624 230.991L268.609 231.535L279.534 252.164Z" fill="#061859"/>
<path d="M265.989 230.84L265.942 230.866C265.764 230.974 265.634 231.145 265.577 231.345C265.52 231.545 265.54 231.759 265.634 231.945L265.747 232.158C265.799 232.252 265.868 232.336 265.952 232.403C266.035 232.47 266.132 232.52 266.235 232.549C266.338 232.579 266.446 232.588 266.552 232.576C266.659 232.564 266.762 232.53 266.855 232.478L268.61 231.535L269.625 230.991L271.379 230.048C271.571 229.946 271.714 229.772 271.779 229.565C271.844 229.358 271.825 229.134 271.727 228.941L271.614 228.729C271.515 228.547 271.349 228.409 271.152 228.344C270.955 228.28 270.74 228.293 270.552 228.382L270.504 228.406L265.989 230.84Z" fill="#FEBD57"/>
<path d="M219.316 276.472C218.517 280.468 214.746 311.289 213.023 322.77C211.299 334.251 210.842 358.941 211.417 373.41C211.992 387.879 206.135 404.645 206.135 404.645L180.873 407.056L180.24 400.68C195.38 401.25 203.418 364.043 202.292 342.348C201.166 320.652 207.365 297.829 211.027 284.585C214.688 271.34 219.316 276.472 219.316 276.472Z" fill="#ECB04B"/>
<path d="M249.534 210.898L242.121 216.141L274.848 262.41L282.261 257.167L249.534 210.898Z" fill="#FEBD57"/>
<path d="M249.528 210.897L245.762 213.561L278.488 259.829L282.255 257.165L249.528 210.897Z" fill="#FF8C3E"/>
<path d="M249.971 215.422L246.219 218.071L246.723 218.785L250.475 216.136L249.971 215.422Z" fill="#313B47"/>
<path d="M251.426 217.485L247.674 220.133L248.178 220.847L251.93 218.198L251.426 217.485Z" fill="#313B47"/>
<path d="M252.883 219.546L249.131 222.195L249.635 222.908L253.387 220.259L252.883 219.546Z" fill="#313B47"/>
<path d="M254.34 221.609L250.588 224.258L251.092 224.972L254.844 222.323L254.34 221.609Z" fill="#313B47"/>
<path d="M255.795 223.672L252.043 226.32L252.547 227.034L256.299 224.385L255.795 223.672Z" fill="#313B47"/>
<path d="M257.25 225.736L253.498 228.385L254.002 229.098L257.754 226.45L257.25 225.736Z" fill="#313B47"/>
<path d="M258.707 227.797L254.955 230.446L255.459 231.16L259.211 228.511L258.707 227.797Z" fill="#313B47"/>
<path d="M260.164 229.86L256.412 232.509L256.916 233.223L260.668 230.574L260.164 229.86Z" fill="#313B47"/>
<path d="M261.621 231.923L257.869 234.572L258.373 235.286L262.125 232.637L261.621 231.923Z" fill="#313B47"/>
<path d="M263.077 233.986L259.324 236.635L259.828 237.349L263.58 234.7L263.077 233.986Z" fill="#313B47"/>
<path d="M264.534 236.049L260.781 238.698L261.285 239.412L265.037 236.763L264.534 236.049Z" fill="#313B47"/>
<path d="M265.991 238.112L262.238 240.761L262.742 241.475L266.495 238.826L265.991 238.112Z" fill="#313B47"/>
<path d="M267.446 240.175L263.693 242.824L264.197 243.538L267.95 240.889L267.446 240.175Z" fill="#313B47"/>
<path d="M268.903 242.239L265.15 244.888L265.654 245.602L269.407 242.953L268.903 242.239Z" fill="#313B47"/>
<path d="M270.358 244.301L266.605 246.95L267.109 247.664L270.862 245.015L270.358 244.301Z" fill="#313B47"/>
<path d="M271.815 246.364L268.062 249.013L268.566 249.726L272.319 247.077L271.815 246.364Z" fill="#313B47"/>
<path d="M273.272 248.428L269.52 251.077L270.023 251.791L273.776 249.142L273.272 248.428Z" fill="#313B47"/>
<path d="M274.727 250.49L270.975 253.139L271.479 253.852L275.231 251.203L274.727 250.49Z" fill="#313B47"/>
<path d="M276.184 252.552L272.432 255.201L272.936 255.915L276.688 253.266L276.184 252.552Z" fill="#313B47"/>
<path d="M277.641 254.615L273.889 257.264L274.393 257.978L278.145 255.329L277.641 254.615Z" fill="#313B47"/>
<path d="M270.216 266.072C269.531 266.096 268.848 265.983 268.207 265.741C267.566 265.499 266.979 265.132 266.481 264.661L240.479 239.55C240.097 239.182 239.624 238.922 239.108 238.797C238.592 238.673 238.053 238.689 237.545 238.843C236.61 239.124 235.967 239.265 235.525 239.279C234.169 239.319 232.819 239.083 231.558 238.585C230.296 238.087 229.149 237.338 228.187 236.383C227.221 235.427 226.462 234.282 225.959 233.019C225.456 231.757 225.219 230.404 225.263 229.045C225.267 228.876 225.315 228.711 225.401 228.565C225.487 228.42 225.609 228.299 225.755 228.213C225.91 228.122 226.085 228.071 226.265 228.065C226.444 228.059 226.623 228.099 226.783 228.18L232.326 231.274C233.12 230.836 233.79 230.205 234.276 229.44C234.762 228.674 235.047 227.799 235.106 226.895L228.913 223.438C228.772 223.36 228.653 223.25 228.565 223.116C228.476 222.982 228.422 222.829 228.405 222.67C228.389 222.51 228.412 222.349 228.471 222.2C228.531 222.051 228.626 221.919 228.748 221.815C230.401 220.366 232.491 219.51 234.685 219.383C237.14 219.263 239.567 220.196 241.53 222.036C244.049 224.398 245.135 227.57 244.674 231.215C244.61 231.693 244.661 232.179 244.825 232.633C244.989 233.087 245.259 233.494 245.614 233.821L272.426 258.315C273.435 259.266 274.028 260.577 274.076 261.963C274.093 262.486 274.006 263.008 273.821 263.498C273.636 263.987 273.356 264.436 272.998 264.818C272.639 265.199 272.209 265.506 271.732 265.721C271.254 265.937 270.739 266.056 270.216 266.072Z" fill="#1A4EA2"/>
<path d="M269.522 266.303C268.837 266.326 268.154 266.213 267.513 265.971C266.873 265.728 266.286 265.361 265.788 264.89L239.779 239.788C239.398 239.419 238.924 239.159 238.409 239.035C237.893 238.91 237.353 238.926 236.845 239.079C235.911 239.362 235.268 239.501 234.825 239.515C233.469 239.556 232.12 239.32 230.858 238.822C229.596 238.325 228.449 237.576 227.485 236.621C226.52 235.664 225.762 234.519 225.259 233.256C224.756 231.993 224.518 230.64 224.562 229.282C224.566 229.113 224.614 228.948 224.7 228.803C224.786 228.658 224.908 228.537 225.053 228.451C225.208 228.359 225.383 228.308 225.563 228.302C225.743 228.297 225.921 228.337 226.082 228.418L231.627 231.512C232.42 231.073 233.09 230.442 233.576 229.677C234.061 228.912 234.347 228.037 234.406 227.133L228.213 223.676C228.072 223.599 227.952 223.489 227.863 223.356C227.774 223.223 227.718 223.069 227.701 222.91C227.684 222.75 227.706 222.589 227.765 222.44C227.824 222.291 227.918 222.158 228.04 222.053C229.692 220.603 231.782 219.747 233.977 219.621C236.432 219.499 238.859 220.432 240.822 222.274C243.341 224.635 244.426 227.807 243.966 231.451C243.902 231.929 243.954 232.415 244.117 232.869C244.281 233.323 244.551 233.73 244.906 234.057L271.717 258.551C272.726 259.503 273.319 260.814 273.368 262.199C273.397 263.252 273.009 264.274 272.289 265.042C271.569 265.811 270.574 266.264 269.522 266.303Z" fill="#B6C7FF"/>
<path d="M244.656 237.248L264.867 255.353L262.317 257.973L242.521 239.475L244.656 237.248Z" fill="white"/>
<path d="M285.826 253.22C285.34 256.62 275.249 263.329 271.929 265.834C271.203 266.351 270.339 266.637 269.448 266.655C266.009 266.843 261.65 264.364 260.886 264.223C259.916 264.049 256.687 265.743 254.024 267.524C251.361 269.304 234.244 267.972 231.499 266.629C228.755 265.286 227.865 247.574 227.865 243.815C227.865 240.056 229.319 241.131 229.319 241.131C231.902 243.099 252.386 243.189 252.386 243.189C252.386 243.189 258.301 243.016 258.865 243.099C259.43 243.182 262.418 242.83 264.598 242.204C266.778 241.579 267.181 241.935 269.038 242.116C270.895 242.296 277.349 231.646 278.245 227.979C279.142 224.311 277.655 223.245 277.655 223.245C278.459 223.071 283.9 224.221 284.869 227.174C285.838 230.128 286.309 249.818 285.826 253.22Z" fill="#6192DE"/>
<g opacity="0.26">
<path d="M269.443 266.65C266.004 266.838 261.645 264.359 260.881 264.218C259.912 264.044 256.682 265.738 254.019 267.519L252.381 243.198C252.381 243.198 258.296 243.024 258.861 243.108C259.425 243.191 262.413 242.838 264.593 242.213C266.773 241.588 267.176 241.944 269.033 242.125L269.443 266.65Z" fill="#1A4EA2"/>
</g>
<path d="M258.861 243.108C258.861 243.108 260.633 257.674 260.882 264.223" stroke="#1A4EA2" stroke-miterlimit="10"/>
<path d="M186.43 404.691C186.43 404.691 186.931 418.744 184.505 421.48C182.08 424.216 191.454 429.924 194.675 428.293C197.896 426.662 199.119 426.333 199.119 426.333C199.119 426.333 197.543 416.292 198.804 408.677C200.065 401.061 186.43 404.691 186.43 404.691Z" fill="#FFC890"/>
<path d="M204.118 434.823C204.112 435.583 203.972 436.336 203.707 437.048L152.559 437.773C152.559 437.773 151.259 437.357 150.757 435.134C150.627 434.524 150.562 433.901 150.565 433.277C150.542 429.408 169.74 425.868 176.082 423.104C184.28 419.534 183.705 421.693 183.705 421.693C183.705 421.693 190.867 424.216 198.808 421.605C198.808 421.605 201.622 417.076 203.672 430.346C203.667 430.346 204.203 432.667 204.118 434.823Z" fill="#454B6B"/>
<path d="M204.119 434.823C204.112 435.583 203.973 436.336 203.707 437.048L152.559 437.773C152.559 437.773 151.26 437.357 150.758 435.134L204.119 434.823Z" fill="#20307B"/>
<path d="M176.171 427.544C176.086 427.548 176.002 427.52 175.937 427.466C175.871 427.412 175.827 427.336 175.813 427.252C175.717 425.991 175.268 424.783 174.519 423.764C174.492 423.732 174.473 423.694 174.462 423.653C174.452 423.612 174.45 423.569 174.458 423.528C174.466 423.487 174.483 423.448 174.508 423.414C174.533 423.38 174.565 423.352 174.602 423.331C174.681 423.283 174.774 423.264 174.865 423.277C174.956 423.29 175.04 423.335 175.101 423.404C175.931 424.512 176.425 425.835 176.525 427.216C176.525 427.259 176.516 427.303 176.499 427.343C176.482 427.383 176.457 427.419 176.426 427.45C176.395 427.48 176.358 427.504 176.318 427.521C176.277 427.537 176.234 427.545 176.19 427.544H176.171Z" fill="white"/>
<path d="M171.324 428.296C171.239 428.3 171.155 428.272 171.089 428.218C171.023 428.164 170.979 428.087 170.966 428.003C170.834 426.001 169.936 425.154 169.924 425.145C169.892 425.118 169.867 425.083 169.85 425.045C169.833 425.007 169.825 424.965 169.826 424.923C169.827 424.881 169.838 424.84 169.857 424.803C169.876 424.766 169.903 424.733 169.936 424.707C170.007 424.649 170.096 424.617 170.188 424.617C170.28 424.617 170.369 424.649 170.44 424.707C170.483 424.747 171.527 425.706 171.677 427.959C171.676 428.003 171.667 428.046 171.65 428.087C171.633 428.127 171.608 428.163 171.577 428.194C171.545 428.225 171.508 428.249 171.468 428.265C171.427 428.281 171.383 428.289 171.34 428.288L171.324 428.296Z" fill="white"/>
<path d="M181.08 426.238C180.995 426.242 180.91 426.214 180.844 426.159C180.778 426.105 180.734 426.027 180.721 425.942C180.521 422.558 178.318 422.451 178.289 422.449C178.245 422.451 178.201 422.445 178.159 422.43C178.118 422.415 178.08 422.392 178.047 422.362C178.015 422.332 177.989 422.295 177.971 422.255C177.952 422.215 177.943 422.172 177.941 422.128C177.954 422.04 177.999 421.96 178.067 421.905C178.136 421.849 178.223 421.822 178.311 421.829C178.43 421.829 181.19 421.964 181.423 425.911C181.422 425.955 181.413 425.998 181.395 426.038C181.378 426.078 181.353 426.115 181.321 426.145C181.29 426.175 181.253 426.199 181.212 426.215C181.171 426.231 181.128 426.239 181.084 426.238H181.08Z" fill="white"/>
<path d="M267.544 404.691C267.544 404.691 268.044 418.744 265.619 421.48C263.194 424.216 272.567 429.924 275.788 428.293C279.009 426.662 280.232 426.333 280.232 426.333C280.232 426.333 278.656 416.292 279.917 408.677C281.179 401.061 267.544 404.691 267.544 404.691Z" fill="#FFC890"/>
<path d="M285.232 434.823C285.225 435.583 285.086 436.336 284.82 437.048L233.672 437.773C233.672 437.773 232.374 437.357 231.872 435.134C231.74 434.524 231.675 433.901 231.678 433.277C231.655 429.408 250.853 425.868 257.195 423.104C265.393 419.534 264.818 421.693 264.818 421.693C264.818 421.693 271.98 424.216 279.921 421.605C279.921 421.605 282.735 417.076 284.785 430.346C284.78 430.346 285.315 432.667 285.232 434.823Z" fill="#454B6B"/>
<path d="M285.23 434.823C285.224 435.583 285.084 436.336 284.819 437.048L233.671 437.773C233.671 437.773 232.373 437.357 231.871 435.134L285.23 434.823Z" fill="#20307B"/>
<path d="M257.282 427.544C257.197 427.548 257.114 427.52 257.048 427.466C256.982 427.412 256.938 427.336 256.924 427.252C256.829 425.991 256.38 424.782 255.63 423.764C255.603 423.732 255.584 423.694 255.573 423.653C255.563 423.612 255.562 423.569 255.57 423.528C255.578 423.487 255.595 423.448 255.62 423.414C255.644 423.38 255.677 423.352 255.714 423.331C255.792 423.283 255.885 423.264 255.976 423.277C256.067 423.29 256.151 423.335 256.212 423.404C257.042 424.512 257.537 425.835 257.638 427.216C257.637 427.304 257.601 427.388 257.538 427.449C257.475 427.511 257.39 427.545 257.301 427.544H257.282Z" fill="white"/>
<path d="M252.438 428.296C252.352 428.3 252.268 428.273 252.202 428.218C252.136 428.164 252.092 428.087 252.078 428.003C251.946 426.001 251.048 425.154 251.036 425.145C251.005 425.117 250.98 425.083 250.963 425.045C250.946 425.007 250.938 424.965 250.94 424.923C250.941 424.882 250.951 424.841 250.97 424.803C250.989 424.766 251.015 424.733 251.048 424.707C251.119 424.649 251.208 424.617 251.3 424.617C251.392 424.617 251.481 424.649 251.552 424.707C251.595 424.747 252.639 425.706 252.789 427.959C252.789 428.003 252.78 428.046 252.763 428.086C252.746 428.126 252.721 428.163 252.69 428.193C252.659 428.224 252.622 428.248 252.581 428.264C252.541 428.28 252.497 428.288 252.454 428.288L252.438 428.296Z" fill="white"/>
<path d="M262.193 426.238C262.107 426.242 262.023 426.214 261.956 426.159C261.89 426.105 261.846 426.027 261.833 425.942C261.634 422.558 259.433 422.451 259.41 422.449C259.366 422.451 259.322 422.445 259.28 422.43C259.239 422.415 259.201 422.392 259.168 422.362C259.136 422.332 259.11 422.295 259.092 422.255C259.074 422.215 259.064 422.172 259.062 422.128C259.075 422.04 259.12 421.96 259.188 421.905C259.257 421.849 259.344 421.822 259.432 421.829C259.551 421.829 262.313 421.964 262.544 425.911C262.543 425.955 262.534 425.998 262.516 426.038C262.499 426.078 262.474 426.115 262.442 426.145C262.411 426.175 262.374 426.199 262.333 426.215C262.292 426.231 262.249 426.239 262.205 426.238H262.193Z" fill="white"/>
<path d="M179.816 178.804L215.154 162.591L216.177 164.559L180.977 180.458L179.816 178.804Z" fill="white"/>
<path d="M289.639 208.347C280.404 217.455 218.739 207.436 207.682 197.811C205.059 197.088 202.485 196.197 199.976 195.144C197.791 194.203 195.663 193.06 194.384 191.826C192.299 189.801 189.549 187.077 188.099 184.461C187.124 182.709 186.737 181.007 187.519 179.596C187.519 179.596 186.348 176.516 188.82 174.611C188.82 174.611 189.072 170.398 191.683 169.971C194.294 169.543 198.88 169.309 199.899 170.492C200.919 171.675 211.712 187.669 214.447 188.19C217.181 188.711 254.939 187.558 258.63 186.573L255.222 173.544L254.247 169.814C254.247 169.814 262.923 153.537 284.217 159.482C284.217 159.482 285.15 162.011 286.397 165.942C290.092 177.587 296.544 201.539 289.639 208.347Z" fill="#FFC890"/>
<g opacity="0.55">
<path d="M199.975 194.694C197.789 193.753 195.661 192.61 194.383 191.375C192.298 189.351 189.548 186.627 188.098 184.011C189.866 183.543 193.518 182.821 195.093 184.304C196.598 185.72 198.818 191.474 199.975 194.694Z" fill="#FF8C5A"/>
</g>
<path d="M258.63 186.118C258.63 186.118 268.369 185.143 272.63 187.285C276.891 189.427 271.166 183.832 268.174 182.791C265.183 181.751 257.76 182.791 257.76 182.791L258.63 186.118Z" fill="#FF8C5A"/>
<path d="M286.396 165.485C282.505 164.127 276.637 162.513 270.904 163.277C263.166 164.309 257.312 170.549 255.221 173.087L254.246 169.358C254.246 169.358 262.922 153.078 284.216 159.025C284.216 159.025 285.156 161.551 286.396 165.485Z" fill="#FF8C5A"/>
<path d="M187.527 179.105C188.187 178.858 188.879 178.702 189.582 178.641C190.259 178.577 190.941 178.57 191.62 178.622C192.3 178.671 192.975 178.78 193.636 178.95C193.976 179.037 194.309 179.146 194.633 179.277C194.797 179.352 194.96 179.414 195.123 179.504C195.203 179.55 195.283 179.59 195.363 179.64C195.443 179.69 195.519 179.746 195.591 179.814L195.566 179.897C195.404 179.859 195.24 179.829 195.075 179.808C194.91 179.782 194.741 179.767 194.574 179.749C194.241 179.709 193.906 179.676 193.57 179.647C192.9 179.588 192.227 179.539 191.555 179.494L189.538 179.343L188.531 179.275L187.521 179.199L187.527 179.105Z" fill="#FF8C5A"/>
<path d="M188.818 174.119C189.549 173.8 190.319 173.578 191.108 173.459C191.875 173.333 192.651 173.271 193.429 173.273C194.212 173.273 194.994 173.346 195.764 173.492C196.159 173.569 196.548 173.676 196.928 173.812C197.025 173.85 197.119 173.888 197.216 173.932C197.313 173.971 197.408 174.017 197.499 174.069C197.589 174.117 197.683 174.178 197.772 174.242L197.899 174.35C197.938 174.39 197.974 174.433 198.006 174.479L197.954 174.548C197.793 174.458 197.616 174.399 197.433 174.374C197.247 174.336 197.059 174.308 196.87 174.289C196.491 174.244 196.109 174.216 195.727 174.197C194.961 174.159 194.195 174.152 193.427 174.154C192.659 174.156 191.893 174.154 191.127 174.166L188.825 174.218L188.818 174.119Z" fill="#FF8C5A"/>
<path d="M194.713 192.304L170.314 196.159L156.632 174.055L150.126 165.751L140.959 154.053L142.206 152.547H167.246L186.31 180.144L194.713 192.304Z" fill="#D03E48"/>
<path d="M194.713 192.304H192.572L184.197 180.064L166.403 154.053H140.959L142.206 152.547H167.246L186.31 180.144L194.713 192.304Z" fill="#AA0515"/>
<g opacity="0.37">
<path d="M194.713 192.299L170.315 196.154L156.633 174.058L150.127 165.755C150.127 165.755 168.791 178.926 184.198 180.067C184.911 180.122 185.615 180.148 186.311 180.147L194.713 192.299Z" fill="#AA0515"/>
</g>
<path d="M199.672 202.988C198.629 204.551 194.514 206.915 191.545 207.952C188.576 208.99 185.18 207.084 185.18 207.084C185.18 207.084 177.057 209.505 172.325 210.369C167.593 211.232 157.702 208.979 155.283 203.801C153.143 199.22 155.4 179.506 155.956 174.981C156.029 174.385 156.07 174.053 156.07 174.053L170.989 191.817H171.02L177.981 192.735C177.981 192.735 178.098 189.969 180 187.761C181.902 185.553 181.358 181.507 183.836 180.872C186.282 180.25 184.704 189.384 184.668 189.62C184.751 189.479 187.492 184.789 191.55 185.041C195.669 185.298 194.389 190.662 194.389 190.662C197.889 191.183 197.283 194.463 197.283 194.463C200.742 194.811 199.06 198.957 199.06 198.957C199.06 198.957 200.711 201.433 199.672 202.988Z" fill="#FFC890"/>
<path d="M185.179 207.087C185.179 207.087 179.62 202.409 179.033 198.982C178.446 195.554 177.596 204.64 182.874 207.754L185.179 207.087Z" fill="#FF8C5A"/>
<path d="M194.395 190.69C194.03 191.095 193.623 191.459 193.179 191.776C192.969 191.95 192.74 192.08 192.521 192.231C192.302 192.382 192.066 192.507 191.837 192.644C191.607 192.782 191.367 192.896 191.129 193.014C190.891 193.133 190.65 193.247 190.398 193.343C189.895 193.559 189.371 193.721 188.835 193.827L188.809 193.781C189.724 193.239 190.655 192.721 191.578 192.191C192.5 191.661 193.433 191.149 194.373 190.645L194.395 190.69Z" fill="#FF8C5A"/>
<path d="M197.291 194.493C196.917 194.935 196.5 195.34 196.046 195.7C195.83 195.888 195.598 196.048 195.373 196.221C195.149 196.395 194.906 196.543 194.679 196.702C194.451 196.862 194.199 197.005 193.956 197.147C193.713 197.29 193.466 197.432 193.209 197.555C192.697 197.822 192.167 198.05 191.623 198.24L191.59 198.198C192.038 197.851 192.509 197.528 192.98 197.21L194.395 196.266L195.829 195.349C196.307 195.043 196.788 194.742 197.27 194.446L197.291 194.493Z" fill="#FF8C5A"/>
<path d="M199.068 198.987C198.791 199.373 198.467 199.723 198.104 200.029C197.758 200.334 197.39 200.612 197.003 200.863C196.614 201.114 196.207 201.338 195.787 201.532C195.36 201.74 194.91 201.896 194.446 201.996L194.416 201.952C195.173 201.431 195.947 200.934 196.709 200.427C197.472 199.92 198.25 199.426 199.032 198.943L199.068 198.987Z" fill="#FF8C5A"/>
<path d="M170.983 191.819C170.983 191.819 162.514 192.34 158.77 192.236C155.027 192.132 167.514 190.179 166.918 188.651C166.322 187.122 155.949 174.984 155.949 174.984C156.022 174.388 156.113 173.393 156.113 173.393L170.983 191.819Z" fill="#FF8C5A"/>
<path d="M179.082 401.872C179.082 401.872 178.194 410.301 181.08 411.189C183.965 412.076 205.259 414.738 206.924 409.973C208.588 405.207 209.474 399.989 205.708 400.543C201.941 401.097 179.415 397.767 179.082 401.872Z" fill="#6192DE"/>
<path d="M257.708 403.498C257.708 403.498 258.799 411.904 261.81 412.099C264.82 412.293 286.154 409.948 286.667 404.923C287.179 399.897 286.841 394.621 283.295 396.033C279.749 397.446 257.083 399.43 257.708 403.498Z" fill="#6192DE"/>
<path d="M201.424 107.147C201.897 107.525 202.44 107.803 203.023 107.965C203.605 108.127 204.214 108.171 204.813 108.092C207.49 107.731 209.188 107.036 210.298 105.685C210.837 105 211.242 104.221 211.493 103.386C211.493 103.386 211.774 102.37 211.281 102.014C211.118 101.896 210.871 101.852 210.503 101.938C209.016 102.285 200.774 103.675 199.732 103.767C199.046 103.822 199.758 105.878 201.424 107.147Z" fill="#BD3132"/>
<path d="M199.73 103.767C200.099 104.203 200.981 104.655 201.951 104.809C202.92 104.964 209.379 103.475 210.147 103.273C210.914 103.072 211.279 102.005 211.279 102.005C211.116 101.887 210.869 101.844 210.501 101.929C209.014 102.288 200.778 103.682 199.73 103.767Z" fill="#F9FFFF"/>
<path d="M201.424 107.147C201.896 107.525 202.44 107.803 203.022 107.965C203.605 108.127 204.214 108.171 204.813 108.092C207.49 107.731 209.187 107.036 210.297 105.685C208.635 105.495 205.072 105.384 201.424 107.147Z" fill="#FF767B"/>
<path d="M365.493 385.395H335.535C334.083 385.395 332.895 386.503 332.895 387.86V400.194C332.895 401.551 334.083 402.659 335.535 402.659H338.17C337.753 402.224 337.519 401.645 337.515 401.042V390.634C337.515 389.279 338.704 388.169 340.156 388.169H361.443C362.896 388.169 364.084 389.279 364.084 390.634V401.042C364.081 401.645 363.846 402.224 363.429 402.659H365.487C366.938 402.659 368.126 401.551 368.126 400.194V387.86C368.131 386.503 366.943 385.395 365.493 385.395Z" fill="#20307B"/>
<path d="M377.529 436.477H323.363C322.279 436.465 321.236 436.058 320.431 435.332C319.625 434.605 319.113 433.609 318.991 432.532L316.757 414.611C316.42 411.911 318.473 409.521 321.13 409.521H379.455C382.08 409.521 384.123 411.859 383.836 414.533L381.917 432.453C381.812 433.548 381.306 434.565 380.495 435.308C379.685 436.051 378.628 436.467 377.529 436.477Z" fill="#20307B"/>
<path d="M385.375 412.603H314.498V399.82C314.499 398.938 314.849 398.092 315.474 397.468C316.098 396.844 316.944 396.494 317.827 396.494H382.045C382.927 396.494 383.774 396.844 384.398 397.468C385.022 398.092 385.373 398.938 385.373 399.82L385.375 412.603Z" fill="#FEBD57"/>
<path d="M388.016 410.961L387.868 410.337H375.22V407.631H387.229L386.687 405.339C386.574 404.917 386.323 404.544 385.973 404.282C385.623 404.02 385.196 403.882 384.758 403.892H315.556C315.108 403.882 314.671 404.026 314.317 404.301C313.963 404.575 313.715 404.964 313.614 405.4L313.171 407.631H322.378V410.337H312.634L312.499 411.02C312.273 412.154 313.204 413.202 314.439 413.202H322.378V416.091C322.378 417.868 323.921 419.308 325.823 419.308H331.448C333.359 419.308 334.893 417.868 334.893 416.091V413.202H362.703V416.091C362.703 417.868 364.246 419.308 366.148 419.308H371.773C373.684 419.308 375.218 417.868 375.218 416.091V413.202H386.086C387.35 413.202 388.288 412.111 388.016 410.961ZM334.894 410.337V407.631H362.705V410.337H334.894Z" fill="#1A4EA2"/>
<path d="M379.351 396.494H324.07V398.96H379.351V396.494Z" fill="#1A4EA2"/>
</svg>
