<svg width="679" height="590" viewBox="0 0 679 590" fill="none" xmlns="http://www.w3.org/2000/svg">
<path d="M413.999 535C532.5 519.5 540 440 642.999 389C666.5 363 465.999 276.874 346.499 291C189.999 309.5 67 382.87 58.999 389C-80.001 495.5 252.732 535 413.999 535Z" fill="#BAD5EB"/>
<path opacity="0.3" d="M531.485 329.508C536.296 322.887 537.004 313.526 533.241 306.262C530.855 301.66 526.961 298.055 523.093 294.607C519.54 291.434 515.882 288.261 511.595 286.189C500.162 280.63 486.605 283.685 474.281 286.845C471.475 287.566 468.63 288.3 466.178 289.834C463.726 291.368 461.694 293.859 461.445 296.744C461.091 300.848 464.277 304.322 467.266 307.154C478.135 317.433 489.699 327.398 502.076 335.854C511.333 342.174 524.968 338.463 531.485 329.508Z" fill="#227FBC"/>
<path opacity="0.3" d="M353.829 331.646L431.893 376.722L509.969 331.646L431.893 286.57L353.829 331.646Z" fill="#227FBC"/>
<path opacity="0.3" d="M291.132 294.082L377.6 244.155L423.829 270.836L337.348 320.763L291.132 294.082Z" fill="#227FBC"/>
<path opacity="0.3" d="M150.004 485.268L178.193 468.998L229.667 498.904L201.478 515.175L150.004 485.268Z" fill="#227FBC"/>
<path opacity="0.3" d="M355.403 431.08C355.193 429.166 353.96 427.462 351.954 426.308L321.759 408.87C320.003 407.86 317.734 407.297 315.374 407.297C313.84 407.297 312.359 407.559 311.021 407.992C310.93 407.965 310.838 407.939 310.746 407.913C307.036 406.969 303.155 407.86 299.366 408.424C280.407 411.243 261.239 405.946 242.083 405.356C229.313 404.963 216.49 406.707 204.271 410.456C195.657 413.105 186.046 416.527 185.011 427.147C184.499 432.431 186.505 437.675 189.259 442.212C198.672 457.67 216.595 466.349 234.505 468.971C241.769 470.033 249.465 470.178 256.151 467.149C260.229 465.3 263.743 462.35 267.781 460.41C279.384 454.838 293.479 458.26 305.764 454.811L307.036 455.546C308.779 456.555 311.048 457.106 313.421 457.106C315.086 457.106 316.725 456.83 318.18 456.306C332.484 451.101 344.337 444.257 353.397 435.944C354.891 434.594 355.599 432.863 355.403 431.08Z" fill="#227FBC"/>
<path d="M259.6 327.791L266.929 333.048C278.676 333.101 302.696 334.464 302.696 334.464L302.788 342.882C285.73 348.008 266.234 348.349 259.193 345.897C257.279 345.281 255.076 344.429 252.703 343.419C257.279 340.168 259.573 334.084 259.6 327.791Z" fill="#FF9673"/>
<path d="M295.577 344.363L304.741 345.596L313.749 346.291L322.94 343.708C324.906 343 325.234 341.807 323.412 341.964L319.111 342.488L326.178 339.997C329.22 338.988 328.945 337.559 326.86 337.532L324.316 337.782L328.459 336.366C330.951 335.644 330.636 333.966 328.669 333.953L316.804 334.976L327.987 332.118C329.941 331.501 329.521 329.849 327.437 329.823L310.471 332.209L307.311 330.216L312.071 324.841C313.251 323.451 312.28 321.747 310.523 323.215C308.334 325.09 305.987 326.729 303.457 328.119L297.294 335.618L291.879 339.302L289.244 341.964L295.577 344.363Z" fill="#E68660"/>
<path d="M352.557 338.319V430.005C352.557 430.752 352.203 431.513 351.469 432.182C342.645 440.271 331.225 446.866 317.21 451.953C314.43 452.963 310.825 452.74 308.504 451.402L278.309 433.978C276.945 433.191 276.264 432.155 276.264 431.12V339.434L352.557 338.319Z" fill="#CCCCCC"/>
<path d="M317.21 359.887C331.225 354.787 342.632 348.205 351.469 340.115C353.213 338.516 352.833 336.431 350.512 335.081L320.317 317.643C317.59 316.07 313.158 316.07 310.431 317.643L278.309 336.195C275.582 337.768 275.582 340.325 278.309 341.898L308.504 359.336C310.811 360.674 314.43 360.896 317.21 359.887Z" fill="#808080"/>
<path d="M313.434 358.602C314.548 358.602 315.623 358.418 316.554 358.091C330.255 353.108 341.57 346.579 350.171 338.699C350.328 338.555 350.669 338.201 350.643 337.886C350.617 337.611 350.315 337.178 349.555 336.733L319.36 319.295C318.337 318.705 316.882 318.364 315.374 318.364C313.853 318.364 312.411 318.705 311.388 319.295L279.266 337.847C278.466 338.319 278.178 338.778 278.178 339.053C278.178 339.329 278.466 339.788 279.266 340.26L309.461 357.684C310.47 358.274 311.926 358.602 313.434 358.602Z" fill="white"/>
<path d="M320.461 361.775C331.959 357.435 341.832 352.007 349.895 345.583V425.941V428.904C349.882 428.917 349.869 428.93 349.843 428.956C342.173 435.984 332.3 441.91 320.461 446.63V361.775Z" fill="white"/>
<path d="M323.018 367.386V363.519C332.195 359.926 340.35 355.613 347.365 350.67V354.551C340.337 359.48 332.169 363.794 323.018 367.386Z" fill="#333333"/>
<path d="M323.018 374.047V370.179C332.195 366.587 340.35 362.273 347.365 357.33V361.211C340.337 366.141 332.169 370.454 323.018 374.047Z" fill="#333333"/>
<path d="M323.018 380.707V376.84C332.195 373.247 340.35 368.934 347.365 363.991V367.872C340.337 372.801 332.169 377.102 323.018 380.707Z" fill="#333333"/>
<path d="M323.018 387.368V383.5C332.195 379.908 340.35 375.594 347.365 370.651V374.532C340.337 379.462 332.169 383.762 323.018 387.368Z" fill="#333333"/>
<path d="M323.018 394.015V390.147C332.195 386.555 340.35 382.241 347.365 377.298V381.179C340.337 386.109 332.169 390.423 323.018 394.015Z" fill="#333333"/>
<path d="M323.018 400.676V396.808C332.195 393.215 340.35 388.902 347.365 383.959V387.84C340.337 392.77 332.169 397.083 323.018 400.676Z" fill="#333333"/>
<path d="M340.403 395.287L336.758 397.398C336.326 397.647 335.972 398.25 335.972 398.761V400.479C335.972 400.977 336.326 401.187 336.758 400.938L340.403 398.827C340.836 398.578 341.19 397.975 341.19 397.463V395.746C341.19 395.234 340.836 395.038 340.403 395.287Z" fill="#29ABE2"/>
<path d="M337.112 346.317C337.034 346.409 336.929 346.487 336.798 346.566L328.079 351.601C327.45 351.955 326.506 352.007 325.968 351.692L321.904 349.346C321.838 349.306 321.786 349.267 321.746 349.228C321.392 348.913 321.51 348.441 322.061 348.126L330.78 343.092C331.409 342.724 332.353 342.685 332.891 343L336.955 345.347C337.388 345.596 337.427 345.989 337.112 346.317Z" fill="#666666"/>
<path d="M337.112 346.317C337.034 346.409 336.929 346.487 336.798 346.566L328.079 351.601C327.449 351.955 326.505 352.007 325.968 351.692L321.903 349.346C321.838 349.306 321.785 349.267 321.746 349.228C321.825 349.149 321.93 349.057 322.061 348.992L330.78 343.957C331.409 343.59 332.353 343.55 332.891 343.865L336.955 346.212C337.007 346.238 337.06 346.278 337.112 346.317Z" fill="#999999"/>
<path d="M333.297 345.176L331.54 346.199C331.33 346.317 330.99 346.317 330.78 346.199L330.059 345.779C329.849 345.661 329.849 345.465 330.059 345.347L331.816 344.324C332.025 344.206 332.366 344.206 332.576 344.324L333.297 344.744C333.507 344.862 333.507 345.058 333.297 345.176Z" fill="white"/>
<path d="M330.177 346.972L328.42 347.995C328.21 348.113 327.869 348.113 327.66 347.995L326.939 347.576C326.729 347.458 326.729 347.261 326.939 347.143L328.695 346.12C328.905 346.002 329.246 346.002 329.456 346.12L330.177 346.54C330.387 346.658 330.387 346.854 330.177 346.972Z" fill="white"/>
<path d="M327.056 348.782L325.299 349.804C325.089 349.922 324.748 349.922 324.539 349.804L323.817 349.385C323.608 349.267 323.608 349.07 323.817 348.952L325.574 347.93C325.784 347.812 326.125 347.812 326.335 347.93L327.056 348.349C327.266 348.454 327.266 348.651 327.056 348.782Z" fill="#FF0000"/>
<path d="M335.303 346.409L333.546 347.431C333.336 347.549 332.995 347.549 332.786 347.431L332.065 347.012C331.855 346.894 331.855 346.697 332.065 346.579L333.821 345.556C334.031 345.438 334.372 345.438 334.582 345.556L335.303 345.976C335.513 346.094 335.513 346.291 335.303 346.409Z" fill="#4D4D4D"/>
<path d="M332.13 348.244L327.331 351.011C327.122 351.129 326.781 351.129 326.571 351.011L325.85 350.591C325.64 350.473 325.64 350.276 325.85 350.158L330.648 347.392C330.858 347.274 331.199 347.274 331.409 347.392L332.13 347.812C332.34 347.93 332.34 348.126 332.13 348.244Z" fill="white"/>
<path d="M222.18 443.759C218.588 447.784 218.431 455.585 219.414 459.308C223.872 461.97 227.818 463.071 230.952 461.721C240.103 462.888 244.941 465.012 249.832 464.579C255.037 464.12 258.682 463.294 262.13 458.928C263.507 456.948 262.93 452.648 259.01 451.298C251.549 449.593 244.915 447.731 241.572 445.24L237.298 432.549L223.964 439.366L222.18 443.759Z" fill="black"/>
<path d="M215.599 422.204L223.872 430.176C223.872 430.176 231.726 433.178 227.425 437.911C225.432 440.114 219.401 440.848 219.401 440.848C213.672 440.717 215.507 441.163 203.956 431.932L196.627 429.363C192.55 427.934 189.875 425.377 189.875 421.05L190.426 418.153L196.667 407.467L202.344 407.598L215.586 411.4L215.599 422.204Z" fill="black"/>
<path d="M198.306 411.571L212.085 414.796C218.444 414.088 224.056 413.144 228.999 412.043C234.269 410.863 238.753 409.486 242.621 408.005C266.536 398.748 266.195 384.968 266.195 384.968C262.563 372.998 227.399 370.14 214.878 369.445C209.437 369.13 205.818 369.091 205.818 369.091C206.841 368.357 198.542 410.352 198.306 411.571Z" fill="#24282D"/>
<path d="M259.023 423.594L240.3 445.804C240.3 445.804 231.136 450.681 221.696 443.955C222.417 437.242 225.747 429.979 229.746 424.066C233.653 418.336 238.229 413.8 241.73 412.226C242.07 412.082 242.293 412.004 242.306 411.964C242.136 411.99 229.982 417.078 216.228 419.634C209.686 420.893 202.737 421.575 196.588 420.827C183.175 419.228 180.632 403.049 180.514 391.839C180.461 385.65 181.117 381.022 181.117 381.022L201.924 384.247L205.661 384.824C205.661 384.824 206.657 384.877 208.375 385.021C209.319 385.073 210.512 385.191 211.862 385.336C214.721 385.598 218.431 386.017 222.535 386.673C230.388 387.866 239.737 389.846 247.826 393.058C253.936 395.457 259.351 398.565 262.917 402.511C264.281 404.019 265.343 405.645 266.09 407.415C266.129 407.533 267.742 415.871 259.023 423.594Z" fill="#24282D"/>
<path d="M248.613 319.413L260.019 327.594C259.98 334.124 257.607 340.43 252.874 343.813C247.511 341.544 241.205 338.503 234.649 335.251L248.613 319.413Z" fill="white"/>
<path d="M239.658 356.072C238.779 357.501 237.639 359.048 236.393 360.28L235.646 362.693L233.614 365.538L226.298 380.353L222.587 386.634C222.351 386.778 221.499 387.315 220.083 388.036C214.943 390.803 202.698 396.572 191.54 395.72C187.581 395.431 183.778 394.317 180.527 391.917C180.265 389.492 177.76 363.296 189.455 345.255C201.675 326.388 213.121 304.335 241.533 315.545C241.533 315.545 242.018 316.948 242.621 319.334C244.64 327.148 247.053 344.14 239.658 356.072Z" fill="#24282D"/>
<path d="M206.552 345.779C206.552 345.779 218.076 334.228 229.588 339.302C238.346 343.183 240.287 352.859 240.719 357.278C248.114 345.347 244.653 327.148 242.634 319.347C235.16 313.775 224.448 314.142 221.512 315.938C212.688 323.372 207.981 334.464 206.552 345.779Z" fill="white"/>
<path d="M236.354 363.335L226.311 380.366C214.747 381.625 206.369 382.936 202.907 373.968C202.907 373.968 202.907 373.968 204.441 361.604C205.949 349.241 216.254 339.552 228.094 343.97C235.724 346.828 236.642 356.714 236.354 363.335Z" fill="white"/>
<path d="M257.803 327.948C257.515 328.381 244.967 343.682 244.967 343.682C244.967 343.682 235.095 335.736 235.685 320.803C238.136 317.604 240.208 316.056 244.771 311.389L257.803 327.948Z" fill="#FF9673"/>
<path d="M240.89 313.736C240.89 313.736 239.094 297.491 254.421 292.692C254.421 292.692 272.566 290.385 276.408 305.974C276.408 305.974 277.64 316.135 272.973 320.331L273.274 323.936C273.353 324.828 272.881 325.68 272.094 326.1L270.495 326.965L267.545 331.685C266.404 333.52 264.464 334.753 262.3 334.884C260.268 335.015 257.567 334.635 254.499 332.786C247.76 328.735 240.89 313.736 240.89 313.736Z" fill="#FF9673"/>
<path d="M276.317 312.752C273.039 316.699 262.576 313.972 259.39 320.711C259.39 320.711 254.185 327.66 247.158 323.215C240.13 318.77 239.684 315.414 239.684 315.414C239.684 315.414 238.557 298.435 248.456 293.597C257.411 289.231 264.569 291.565 270.246 295.302C275.937 299.051 281.338 306.708 276.317 312.752Z" fill="black"/>
<path d="M257.751 317.617C257.043 317.695 256.388 318.036 255.837 318.469C254.342 319.636 253.451 321.55 253.543 323.451C253.582 324.382 253.923 325.378 254.736 325.824C255.326 326.152 256.073 326.1 256.689 325.837C257.305 325.575 257.817 325.103 258.263 324.592C259.193 323.517 260.295 321.865 260.4 320.396C260.491 318.862 259.364 317.433 257.751 317.617Z" fill="#FF9673"/>
<path opacity="0.5" d="M262.93 402.511L256.991 403.39L233.325 406.838L196.247 396.991L191.566 395.759C195.985 393.255 199.381 388.994 201.95 384.26C207.864 373.47 209.62 360.293 209.62 360.293L219.349 370.087L235.043 365.603L226.337 380.38L222.627 386.66C230.441 387.866 239.776 389.859 247.879 393.058C253.962 395.457 259.364 398.552 262.93 402.511Z" fill="#24282D"/>
<path d="M231.109 383.841C238.006 382.333 244.378 377.298 246.41 370.389L257.45 389.348L296.245 387.669L296.901 398.014C296.901 398.014 272.842 406.746 259.18 404.491C259.18 404.491 251.602 404.609 239.12 391.458L231.109 383.841Z" fill="#FF9673"/>
<path d="M231.319 384.824L215.087 369.419C198.947 353.528 221.865 334.504 234.649 351.797L248.297 371.857C246.16 379.134 238.569 383.238 231.319 384.824Z" fill="white"/>
<path d="M290.948 397.83L299.969 399.863L308.884 401.331L318.272 399.561C320.291 399.024 320.724 397.87 318.888 397.857L314.561 398.001L321.812 396.139C324.932 395.392 324.775 393.95 322.703 393.74L320.147 393.766L324.395 392.717C326.938 392.219 326.768 390.514 324.814 390.331L312.896 390.318L324.29 388.443C326.296 388.01 326.02 386.319 323.949 386.109L306.839 387.001L303.863 384.746L309.068 379.816C310.366 378.531 309.54 376.748 307.678 378.059C305.331 379.737 302.853 381.166 300.218 382.32L296.245 387.669L287.71 392.442L284.852 394.854L290.948 397.83Z" fill="#FF9673"/>
<path d="M311.454 480.181C311.375 480.142 311.31 480.09 311.283 480.011L310.523 477.782C310.497 477.69 310.418 477.612 310.3 477.559C310.13 477.467 309.894 477.441 309.644 477.48L306.957 477.874C306.839 477.887 306.734 477.926 306.642 477.979L307.088 479.29C307.101 479.329 307.088 479.368 307.075 479.408C307.101 479.342 307.18 480.824 307.18 480.824C307.193 481.02 306.852 481.204 306.498 481.165C305.777 481.073 305.121 480.863 304.544 480.562C303.233 479.893 302.368 478.805 302.302 477.756L302.25 476.851C302.132 476.615 301.896 476.392 301.568 476.222L280.721 465.641C280.197 465.379 279.489 465.287 278.781 465.34C277.273 465.458 275.765 465.261 274.625 464.671C274.389 464.553 274.166 464.422 273.969 464.264C273.287 463.753 272.855 462.953 272.815 462.114L272.737 460.633C272.684 459.728 273.117 458.732 274.258 458.05C274.48 457.919 274.808 457.932 275.005 458.024C275.07 458.063 275.123 458.102 275.149 458.155L276.368 460.436C276.408 460.515 276.486 460.567 276.578 460.62C276.775 460.711 277.05 460.751 277.312 460.698L279.935 460.148C280 460.121 279.345 458.902 279.345 458.902C279.332 458.876 279.318 458.85 279.318 458.823L279.24 457.342C279.24 457.368 279.253 457.394 279.266 457.42C279.148 457.184 279.528 456.948 279.948 457.001C280.748 457.119 281.482 457.368 282.124 457.683C283.396 458.325 284.235 459.308 284.261 460.318C284.261 460.279 284.327 461.406 284.327 461.406C284.458 461.629 284.681 461.826 284.996 461.983L305.829 472.551C306.327 472.8 307.009 472.905 307.704 472.852C308.766 472.787 309.854 472.865 310.864 473.141C311.296 473.259 311.69 473.403 312.031 473.573C313.224 474.176 313.788 475.081 313.814 475.999C313.814 475.933 313.892 477.415 313.892 477.415C313.945 478.398 313.355 479.421 312.214 480.142C311.991 480.286 311.65 480.286 311.454 480.181Z" fill="#4D4D4D"/>
<path d="M304.466 479.054C305.042 479.342 305.698 479.552 306.419 479.657C306.799 479.709 307.166 479.486 307.088 479.264L306.275 476.904C306.196 476.668 306.458 476.432 306.865 476.366L309.553 475.973C309.802 475.933 310.051 475.973 310.208 476.051C310.326 476.104 310.405 476.182 310.431 476.274L311.192 478.503C311.218 478.569 311.283 478.621 311.362 478.674C311.572 478.778 311.9 478.778 312.109 478.647C314.286 477.271 314.43 474.78 311.991 473.547C311.65 473.377 311.27 473.232 310.824 473.114C309.815 472.839 308.727 472.76 307.665 472.826C306.97 472.865 306.301 472.774 305.79 472.524L284.956 461.957C284.406 461.668 284.078 461.236 284.183 460.803C284.471 459.61 283.58 458.417 282.098 457.656C281.469 457.342 280.721 457.093 279.922 456.975C279.502 456.909 279.122 457.158 279.24 457.394L280.394 459.558C280.512 459.78 280.289 460.03 279.895 460.121L277.273 460.672C276.998 460.724 276.722 460.698 276.539 460.593C276.447 460.541 276.368 460.488 276.329 460.41L275.11 458.128C275.084 458.076 275.031 458.037 274.966 457.997C274.769 457.892 274.441 457.892 274.218 458.024C272.081 459.295 272.409 461.668 273.851 462.757C274.048 462.914 274.271 463.045 274.507 463.163C275.647 463.74 277.155 463.95 278.663 463.832C279.371 463.779 280.079 463.871 280.603 464.133L301.45 474.714C301.974 474.976 302.289 475.383 302.21 475.802C302.053 476.982 302.971 478.293 304.466 479.054Z" fill="#CCCCCC"/>
<path d="M323.792 474.098C323.792 473.206 324.421 472.105 325.208 471.659L326.532 470.899C326.925 470.676 327.279 470.65 327.541 470.794L291.682 449.973C291.42 449.829 291.066 449.842 290.673 450.078L289.349 450.839C288.562 451.284 287.933 452.386 287.933 453.277C287.933 453.723 288.09 454.038 288.339 454.182L324.198 475.002C323.962 474.858 323.805 474.544 323.792 474.098Z" fill="#BD8B55"/>
<path d="M310.419 466.624C310.419 465.628 311.113 464.435 311.979 463.937L313.434 463.098C313.867 462.848 314.168 463.045 314.457 463.202C314.509 463.071 314.404 462.888 314.208 462.796L291.067 449.305C290.778 449.134 290.385 449.16 289.952 449.41L288.497 450.249C287.631 450.747 286.937 451.953 286.937 452.936C286.937 453.435 287.107 453.776 287.395 453.933L310.156 467.201C310.471 467.385 310.694 467.28 310.773 467.188C310.602 467.07 310.773 467.188 310.458 467.005C310.392 466.926 310.419 466.86 310.419 466.624Z" fill="#E34248"/>
<path d="M326.047 482.161L320.933 481.781L318.062 480.116L318.049 474.898L320.92 476.563L326.047 476.917V482.161Z" fill="#4F4F4F"/>
<path d="M326.047 476.917L338.175 469.915L338.188 475.147L326.047 482.161V476.917Z" fill="#585858"/>
<path d="M320.92 476.563L318.049 474.884L332.589 466.493L338.174 469.915L326.047 476.917L320.92 476.563Z" fill="#373737"/>
<path d="M331.029 478.267C330.243 478.713 329.613 478.359 329.613 477.454C329.613 476.563 330.243 475.461 331.029 475.016L332.354 474.255C333.14 473.809 333.77 474.163 333.77 475.068C333.77 475.96 333.14 477.061 332.354 477.507L331.029 478.267Z" fill="#BD8B55"/>
<path d="M201.57 512.264L155.851 485.701L152.128 471.908L197.846 498.471L201.57 512.264Z" fill="#A32126"/>
<path d="M197.846 498.471L152.128 471.908L181.916 454.72L227.635 481.283L197.846 498.471Z" fill="#C93B40"/>
<path d="M227.635 481.283L224.003 499.324L201.57 512.264L197.847 498.471L227.635 481.283Z" fill="#C1272D"/>
<path d="M197.846 498.471L152.128 471.908L155.76 453.894L201.478 480.457L197.846 498.471Z" fill="#C1272D"/>
<path d="M201.478 480.457L155.76 453.894L178.193 440.94L223.911 467.516L201.478 480.457Z" fill="#FF3B42"/>
<path d="M223.912 467.516L227.635 481.283L197.847 498.471L201.478 480.457L223.912 467.516Z" fill="#FF3B42"/>
<path d="M179.805 491.509L172.45 487.248L171.257 482.817L178.612 487.091L179.805 491.509Z" fill="#999999"/>
<path d="M178.625 487.091L171.27 482.817L172.436 477.035L179.792 481.309L178.625 487.091Z" fill="white"/>
<path d="M198.449 452.543L187.974 446.499C186.82 445.83 185.771 445.765 185.011 446.21L182.965 447.404C182.205 447.849 181.733 448.78 181.733 450.104L181.72 455.034L184.486 456.634L186.545 455.441L186.558 451.258L196.391 456.935C197.178 457.394 197.807 458.482 197.807 459.387L197.794 464.317L200.56 465.916L202.619 464.723L202.632 459.794C202.632 457.106 200.757 453.867 198.449 452.543Z" fill="#4D4D4D"/>
<path d="M196.391 453.736C198.686 455.06 200.561 458.312 200.561 460.96L200.548 465.89L197.781 464.291L197.794 459.361C197.794 458.456 197.165 457.368 196.378 456.909L185.903 450.865C185.116 450.419 184.487 450.773 184.487 451.678L184.473 456.608L181.707 455.008L181.72 450.078C181.733 447.417 183.608 446.342 185.916 447.679L196.391 453.736Z" fill="#1A1A1A"/>
<path d="M363.06 439.537L344.049 450.472C343.944 450.511 343.839 450.668 343.839 450.93C343.839 451.376 344.154 451.914 344.534 452.137C344.73 452.242 344.901 452.255 345.019 452.176L364.03 441.241L366.574 440.481L368.501 438.632L367.518 436.928L364.987 437.701L363.06 439.537Z" fill="#999999"/>
<path d="M330.925 455.493L343.983 449.069C344.298 448.911 344.705 448.951 345.15 449.213C346.016 449.724 346.711 450.917 346.724 451.927C346.724 452.451 346.553 452.832 346.252 453.015L334.124 461.052C334.543 460.816 334.793 460.305 334.793 459.571C334.793 458.115 333.783 456.358 332.524 455.637C331.895 455.296 331.331 455.257 330.925 455.493Z" fill="#FF3B42"/>
<path d="M330.256 456.975C330.256 455.519 331.265 454.929 332.524 455.65C333.77 456.372 334.792 458.128 334.792 459.584C334.792 461.039 333.783 461.629 332.524 460.908C331.265 460.187 330.256 458.43 330.256 456.975Z" fill="#A32126"/>
<path d="M368.501 438.632L366.364 440.232L365.118 438.068L367.517 436.928L368.501 438.632Z" fill="#E6E6E6"/>
<path d="M365.027 440.664L366.364 440.232L365.119 438.068L364.083 438.934C363.676 439.275 363.558 439.838 363.794 440.245C364.03 440.638 364.542 440.822 365.027 440.664Z" fill="#B3B3B3"/>
<path d="M296.9 246.109L337.348 269.473L418.06 222.876L377.612 199.512L296.9 246.109Z" fill="#999999"/>
<path d="M337.349 316.174V269.473L418.061 222.876V269.578L337.349 316.174Z" fill="#B3B3B3"/>
<path d="M296.9 246.109L337.348 269.473V316.174L296.9 292.824V246.109Z" fill="#666666"/>
<path d="M296.9 246.109V292.824L337.348 269.473L296.9 246.109Z" fill="#333333"/>
<path d="M417.247 182.297C423.986 169.264 430.856 157.124 438.159 148.182C445.187 135.53 452.582 125.408 460.448 118.616L482.855 131.452C471.855 143.318 461.799 151.224 451.965 158.762C443.836 171.939 435.157 182.769 425.56 189.587L417.247 182.297Z" fill="#24282D"/>
<path d="M417.247 182.297L416.054 187.961V191.816L417.588 195.578L421.587 197.571L423.855 196.85C425.232 196.142 424.825 194.136 423.291 194.661L424.851 193.599C426.569 192.628 425.926 190.924 424.34 191.16L425.559 190.596C426.87 190.059 426.294 188.144 424.917 188.158L423.344 188.066C424.458 187.463 423.96 185.391 422.347 185.404C422.347 185.404 418.506 185.562 418.466 185.509C418.427 185.47 417.247 182.297 417.247 182.297Z" fill="#F79974"/>
<path d="M512.159 286.57C513.129 288.615 512.264 292.706 510.992 297.255C508.763 301.66 504.424 300.362 500.53 300.166C493.004 299.772 488.244 304.492 478.555 302.447C472.8 301.228 469.22 299.196 468.774 295.288C468.945 293.571 470.282 292.063 472.695 290.765C472.695 290.765 487.13 287.618 487.523 287.461C487.917 287.304 494.734 284.223 494.944 283.79C495.154 283.357 499.441 273.681 499.441 273.681L513.667 276.658L512.159 286.57Z" fill="black"/>
<path d="M532.809 308.675C533.858 313.041 534.041 314.313 533.268 317.446C532.52 319.085 531.825 319.793 530.973 322.061C529.964 324.867 529.754 329.666 525.296 332.249C519.947 335.92 510.1 335.435 507.308 330.951C507.452 328.866 509.143 324.343 511.975 320.79L517.6 311.848L517.875 303.129L532.415 300.952L532.809 308.675Z" fill="black"/>
<path d="M518.386 174.391L506.429 231.424C507.543 248.914 513.128 266.3 511.07 283.108C509.615 290.07 495.193 288.641 492.57 283.423C493.855 270.338 486.67 250.711 484.35 229.13C484.271 207.837 485.097 185.955 489.883 169.199L518.386 174.391Z" fill="#222F3C"/>
<path d="M489.214 174.05C488.401 179.95 495.455 196.077 504.24 203.72C503.794 216.373 503.951 238.373 505.105 252.782C510.415 273.826 515.174 293.977 515.712 307.102C517.928 310.301 525.06 311.979 529.701 310.602C530.068 310.497 530.357 310.406 530.632 310.274C530.724 310.235 530.842 310.183 530.947 310.143C532.599 309.37 533.753 308.072 533.884 306.144C534.893 289.572 532.992 272.619 529.465 255.444L534.198 197.086C537.673 189.246 539.718 180.081 536.309 165.921L532.363 166.603L489.214 174.05Z" fill="#24282D"/>
<path d="M460.934 126.811C464.356 148.51 481.072 159.824 481.072 159.824L484.534 166.734L489.07 175.833C528.259 192.786 536.296 165.921 536.296 165.921C533.923 137.365 515.161 128.266 515.161 128.266C508.16 116.046 494.564 108.822 494.564 108.822C451.467 88.9064 460.934 126.811 460.934 126.811Z" fill="#24282D"/>
<path opacity="0.5" d="M536.309 165.908C536.309 165.908 515.659 167.311 510.192 149.676L499.48 146.595C499.48 146.595 495.769 164.492 484.533 166.708L492.859 187.62C498.982 190.268 504.252 191.553 508.789 191.855C524.391 204.966 524.089 235.213 520.759 256.44C528.875 267.755 529.308 289.152 529.701 310.576C529.885 310.51 530.186 310.392 530.632 310.248C530.724 310.209 530.842 310.156 530.947 310.117C532.599 309.344 533.752 308.046 533.883 306.118C534.893 289.546 532.992 272.593 529.465 255.418L534.198 197.06C537.673 189.233 539.718 180.068 536.309 165.908Z" fill="#24282D"/>
<path d="M469.626 118.616L479.223 119.954C479.223 119.954 484.664 121.147 482.855 131.452C481.098 141.416 476.654 142.098 476.654 142.098L460.448 134.153L469.626 118.616Z" fill="#F79974"/>
<path opacity="0.5" d="M471.029 133.091L476.641 142.098C476.641 142.098 480.692 152.482 474.936 150.909C472.117 150.135 465.431 142.229 465.431 142.229L471.029 133.091Z" fill="#F28F85"/>
<path d="M472.144 131.911C472.144 131.911 479.302 111.549 460.986 107.367C455.794 106.187 444.846 110.094 442.277 119.77C440.664 125.827 438.619 132.671 449.422 139.371L449.92 142.164C449.986 143.632 450.707 144.406 451.887 144.144L453.251 143.632C453.251 143.632 457.826 146.976 461.786 146.163C465.759 145.376 472.826 139.292 472.144 131.911Z" fill="#F79974"/>
<path d="M468.512 132.894C468.433 132.855 466.48 134.822 466.48 134.822C462.481 134.061 459.649 135.503 456.056 131.203C456.056 131.203 452.988 136.434 444.597 135.582C444.597 135.582 444.479 134.271 443.312 133.091C440.611 130.364 436.101 119.39 447.731 110.278C451.14 107.616 456.62 104.05 465.077 108.272C473.887 112.664 476.68 122.51 474.477 130.206C473.769 132.776 470.859 134.153 468.512 132.894Z" fill="black"/>
<path d="M465.654 131.504C466.165 130.141 467.896 129.472 469.285 129.931C470.675 130.377 471.645 131.74 471.895 133.17C472.026 133.904 471.96 134.717 471.554 135.333C470.99 136.172 469.889 136.5 468.892 136.369C466.663 136.093 464.775 133.812 465.654 131.504Z" fill="#F79974"/>
<path d="M446.472 126.575C451.638 128.174 462.743 125.84 461.733 126.863C456.725 131.99 445.331 147.08 434.292 140.302C427.802 136.316 435.944 125.775 442.185 120.386C443.955 122.471 442.329 125.29 446.472 126.575Z" fill="#222F3C"/>
<path d="M460.986 127.833C466.099 125.08 471.698 120.609 473.533 116.807C473.533 116.807 470.78 102.149 458.443 103.525C438.737 105.728 438.291 122.628 441.031 126.024C445.161 131.164 452.582 132.33 460.986 127.833Z" fill="#24282D"/>
<path d="M431.892 355.98V371.687L362.154 331.423V315.716L431.892 355.98Z" fill="#808080"/>
<path d="M431.893 355.98V371.687L501.644 331.423V315.716L431.893 355.98Z" fill="#B3B3B3"/>
<path d="M431.892 306.485V355.98L362.154 315.716L391.445 283.121L431.892 306.485Z" fill="#999999"/>
<path d="M431.893 306.485V355.98L501.644 315.716L472.353 283.121L431.893 306.485Z" fill="#CCCCCC"/>
<path d="M391.444 189.928L431.892 213.292V306.485L391.444 283.121V189.928Z" fill="#808080"/>
<path d="M472.353 189.928L431.893 213.292V306.485L472.353 283.121V189.928Z" fill="#B3B3B3"/>
<path d="M391.444 189.928L431.892 213.292L472.353 189.928L431.892 166.577L391.444 189.928Z" fill="#666666"/>
<path d="M391.444 189.928L431.892 166.577V213.292L391.444 189.928Z" fill="#333333"/>
<path d="M479.578 216.53H477.034L472.118 213.777L472.288 218.352L470.295 221.001L465.405 222.968C463.648 223.204 464.186 225.393 465.418 225.524L463.648 226.127C462.416 226.455 462.743 228.514 464.12 228.514L465.995 228.5C464.854 228.999 465.261 230.9 466.729 230.808L469.692 230.598C468.132 231.083 468.434 232.617 470.492 232.617H475.972L478.647 232.172L482.017 230.284L486.488 223.19L486.789 217.736L484.534 213.764L479.578 216.53Z" fill="#F79974"/>
<path d="M517.98 151.224L510.991 187.948C510.021 193.415 510.952 198.004 503.898 205.359C494.209 215.219 492.859 218.575 486.487 223.217C486.29 220.594 483.117 215.861 479.577 216.543L492.846 189.351L493.042 163.443C490.512 143.855 517.77 126.168 517.98 151.224Z" fill="#24282D"/>
<path opacity="0.3" d="M373.168 459.938L485.648 394.998L526.699 418.848L414.219 483.787L373.168 459.938Z" fill="#227FBC"/>
<path d="M414.94 479.001L379.698 458.509L379.475 378.229L379.671 378.347L414.717 398.709L414.743 408.228L414.94 479.001Z" fill="#B3B3B3"/>
<path d="M520.393 337.703L485.15 317.21L379.475 378.229L414.717 398.709L520.393 337.703Z" fill="#F2F2F2"/>
<path d="M520.628 417.982L414.94 479.001L414.717 398.709L414.913 398.591L520.405 337.703L520.432 347.444L520.628 417.982Z" fill="#E6E6E6"/>
<path d="M473.35 377.836L419.489 408.922V471.122L473.35 440.022V377.836Z" fill="#999999"/>
<path d="M463.255 434.212C472.56 418.096 472.559 400.676 463.253 395.303C453.947 389.93 438.861 398.639 429.556 414.755C420.251 430.871 420.252 448.291 429.558 453.664C438.863 459.037 453.95 450.328 463.255 434.212Z" fill="#666666"/>
<path d="M461.564 433.237C469.935 418.739 469.934 403.068 461.563 398.234C453.191 393.401 439.619 401.236 431.248 415.734C422.878 430.232 422.878 445.903 431.25 450.736C439.621 455.57 453.193 447.735 461.564 433.237Z" fill="black"/>
<mask id="mask0_308_908" style="mask-type:luminance" maskUnits="userSpaceOnUse" x="424" y="396" width="44" height="57">
<path d="M461.564 433.237C469.935 418.739 469.934 403.068 461.563 398.234C453.191 393.401 439.619 401.236 431.248 415.734C422.878 430.232 422.878 445.903 431.25 450.736C439.621 455.57 453.193 447.735 461.564 433.237Z" fill="white"/>
</mask>
<g mask="url(#mask0_308_908)">
<path d="M447.022 434.542C447.022 429.52 443.194 424 441.24 425.128C439.116 426.347 440.572 428.34 435.445 438.763C432.062 445.62 435.694 446.551 441.24 443.326C444.426 441.477 447.022 439.576 447.022 434.542Z" fill="#808080"/>
<path d="M426.097 435.918C430.45 433.401 437.137 425.128 437.137 422.873C437.137 420.421 434.685 423.528 428.221 421.326C423.973 419.883 421.351 425.574 421.377 431.972C421.39 435.643 421.744 438.422 426.097 435.918Z" fill="#808080"/>
<path d="M435.38 406.405C435.38 411.427 439.208 416.946 441.162 415.819C443.286 414.6 441.831 412.607 446.957 402.183C450.34 395.326 446.708 394.395 441.162 397.621C437.963 399.469 435.38 401.37 435.38 406.405Z" fill="#808080"/>
<path d="M456.292 405.042C451.94 407.559 445.253 415.832 445.253 418.087C445.253 420.539 447.705 417.432 454.168 419.634C458.416 421.076 461.039 415.386 461.012 408.988C461.012 405.304 460.645 402.524 456.292 405.042Z" fill="#808080"/>
<path d="M447.691 416.946C447.691 412.921 444.872 411.296 441.385 413.315C437.91 415.321 435.078 420.211 435.078 424.223C435.078 428.235 437.897 429.874 441.385 427.855C444.872 425.849 447.691 420.972 447.691 416.946Z" fill="#333333"/>
<path d="M445.836 412.908L436.927 428.338L439.845 430.023L448.754 414.592L445.836 412.908Z" fill="#333333"/>
<path d="M450.615 418.638C450.615 414.613 447.796 412.987 444.308 415.006C440.834 417.012 438.002 421.902 438.002 425.914C438.002 429.926 440.821 431.565 444.308 429.546C447.796 427.54 450.615 422.65 450.615 418.638Z" fill="#666666"/>
<path d="M450.156 420.185C450.156 417.169 448.045 415.95 445.436 417.458C442.827 418.966 440.716 422.624 440.716 425.639C440.716 428.655 442.827 429.874 445.436 428.366C448.032 426.858 450.156 423.2 450.156 420.185Z" fill="#333333"/>
</g>
<path d="M430.62 405.566H429.479V462.285H430.62V405.566Z" fill="#4D4D4D"/>
<path d="M438.802 400.846H437.661V457.565H438.802V400.846Z" fill="#4D4D4D"/>
<path d="M446.996 396.113H445.855V452.832H446.996V396.113Z" fill="#4D4D4D"/>
<path d="M455.178 391.393H454.037V448.112H455.178V391.393Z" fill="#4D4D4D"/>
<path d="M463.358 386.66H462.218V443.378H463.358V386.66Z" fill="#4D4D4D"/>
<path d="M470.825 386.84L421.707 415.199L421.989 415.687L471.107 387.328L470.825 386.84Z" fill="#4D4D4D"/>
<path d="M470.823 391.993L421.705 420.352L421.987 420.84L471.105 392.481L470.823 391.993Z" fill="#4D4D4D"/>
<path d="M470.822 397.142L421.704 425.502L421.986 425.99L471.104 397.63L470.822 397.142Z" fill="#4D4D4D"/>
<path d="M470.826 402.31L421.708 430.669L421.99 431.158L471.108 402.798L470.826 402.31Z" fill="#4D4D4D"/>
<path d="M470.825 407.462L421.707 435.821L421.989 436.31L471.107 407.95L470.825 407.462Z" fill="#4D4D4D"/>
<path d="M470.823 412.616L421.705 440.976L421.987 441.464L471.105 413.104L470.823 412.616Z" fill="#4D4D4D"/>
<path d="M470.822 417.769L421.703 446.129L421.985 446.617L471.103 418.257L470.822 417.769Z" fill="#4D4D4D"/>
<path d="M470.826 422.93L421.708 451.289L421.99 451.778L471.108 423.418L470.826 422.93Z" fill="#4D4D4D"/>
<path d="M470.823 428.087L421.705 456.446L421.987 456.934L471.105 428.575L470.823 428.087Z" fill="#4D4D4D"/>
<path d="M470.822 433.239L421.704 461.598L421.986 462.086L471.104 433.727L470.822 433.239Z" fill="#4D4D4D"/>
<path d="M421.285 409.971L471.54 380.956V438.986L421.285 468.001V409.971ZM470.412 382.923L422.426 410.627V466.034L470.412 438.331V382.923Z" fill="#4D4D4D"/>
<path d="M520.432 347.444L414.94 408.346L414.914 398.591L520.406 337.703L520.432 347.444Z" fill="#CCCCCC"/>
<path d="M383.631 456.175L400.819 466.034C400.216 465.68 399.836 464.933 399.836 463.858L382.647 453.998C382.647 455.074 383.015 455.821 383.631 456.175Z" fill="#E6E6E6"/>
<path d="M405.579 437.728L388.39 427.868L385.965 429.232L403.153 439.091L405.579 437.728Z" fill="#E6E6E6"/>
<path d="M399.823 444.847L382.647 435V454.012L399.823 463.858V444.847Z" fill="#E6E6E6"/>
<path d="M396.453 446.8L386.017 440.822V447.299L396.453 453.277V446.8Z" fill="#4D4D4D"/>
<path d="M403.154 439.091L385.965 429.232C384.129 430.28 382.635 432.863 382.635 435L399.823 444.86C399.823 442.723 401.318 440.14 403.154 439.091Z" fill="#E6E6E6"/>
<path d="M399.823 463.858C399.823 465.982 401.318 466.86 403.153 465.798L405.579 464.448V437.728L403.153 439.078C401.318 440.127 399.823 442.71 399.823 444.847V463.858Z" fill="#999999"/>
<path d="M496.911 419.542L495.456 418.716L481.243 426.885L482.699 427.711L496.911 419.542Z" fill="#4D4D4D"/>
<path d="M482.699 427.711L481.243 426.885V434.319L482.699 435.145V427.711Z" fill="#4D4D4D"/>
<path d="M496.911 419.542L482.698 427.711V435.145L496.911 426.976V419.542Z" fill="white"/>
<path d="M514.349 409.473L512.907 408.647L498.694 416.815L500.15 417.641L514.349 409.473Z" fill="#4D4D4D"/>
<path d="M500.15 417.641L498.694 416.815V424.249L500.15 425.075V417.641Z" fill="#4D4D4D"/>
<path d="M514.349 409.473L500.149 417.641V425.075L514.349 416.907V409.473Z" fill="white"/>
<path d="M514.388 356.019L482.108 374.663C480.85 375.397 479.827 377.167 479.827 378.623V381.035C479.827 382.49 480.85 383.08 482.108 382.359L514.388 363.715C515.647 362.981 516.669 361.211 516.669 359.756V357.343C516.682 355.888 515.66 355.298 514.388 356.019Z" fill="#4D4D4D"/>
<path d="M515.28 356.53L483 375.174C481.741 375.909 480.719 377.679 480.719 379.134V381.546C480.719 383.002 481.741 383.592 483 382.871L515.28 364.227C516.538 363.492 517.561 361.722 517.561 360.267V357.855C517.561 356.399 516.538 355.809 515.28 356.53Z" fill="white"/>
<path d="M514.388 368.357L482.108 387.001C480.85 387.735 479.827 389.505 479.827 390.96V393.373C479.827 394.828 480.85 395.418 482.108 394.697L514.388 376.053C515.647 375.319 516.669 373.549 516.669 372.093V369.681C516.682 368.212 515.66 367.622 514.388 368.357Z" fill="#4D4D4D"/>
<path d="M515.28 368.868L483 387.512C481.741 388.246 480.719 390.016 480.719 391.472V393.884C480.719 395.339 481.741 395.929 483 395.208L515.28 376.564C516.538 375.83 517.561 374.06 517.561 372.605V370.192C517.561 368.724 516.538 368.134 515.28 368.868Z" fill="white"/>
<path d="M514.388 380.681L482.108 399.325C480.85 400.059 479.827 401.829 479.827 403.285V405.697C479.827 407.152 480.85 407.742 482.108 407.021L514.388 388.377C515.647 387.643 516.669 385.873 516.669 384.418V382.005C516.682 380.55 515.66 379.96 514.388 380.681Z" fill="#4D4D4D"/>
<path d="M515.28 381.192L483 399.836C481.741 400.571 480.719 402.341 480.719 403.796V406.208C480.719 407.664 481.741 408.254 483 407.533L515.28 388.889C516.538 388.154 517.561 386.384 517.561 384.929V382.517C517.561 381.061 516.538 380.471 515.28 381.192Z" fill="white"/>
</svg>
